<?xml version="1.0" encoding="UTF-8" standalone="no"?>
<svg
   width="16"
   height="16"
   viewBox="0 0 4.2333332 4.2333335"
   version="1.1"
   id="svg8"
   inkscape:version="1.1.2 (0a00cf5339, 2022-02-04)"
   sodipodi:docname="application-x-executable.svg"
   xmlns:inkscape="http://www.inkscape.org/namespaces/inkscape"
   xmlns:sodipodi="http://sodipodi.sourceforge.net/DTD/sodipodi-0.dtd"
   xmlns="http://www.w3.org/2000/svg"
   xmlns:svg="http://www.w3.org/2000/svg"
   xmlns:rdf="http://www.w3.org/1999/02/22-rdf-syntax-ns#"
   xmlns:cc="http://creativecommons.org/ns#"
   xmlns:dc="http://purl.org/dc/elements/1.1/">
  <defs
     id="defs2" />
  <sodipodi:namedview
     id="base"
     pagecolor="#ffffff"
     bordercolor="#666666"
     borderopacity="1.0"
     inkscape:pageopacity="0.0"
     inkscape:pageshadow="2"
     inkscape:zoom="45.254834"
     inkscape:cx="4.1984465"
     inkscape:cy="9.7337668"
     inkscape:document-units="mm"
     inkscape:current-layer="layer1"
     showgrid="true"
     units="px"
     inkscape:window-width="1920"
     inkscape:window-height="1028"
     inkscape:window-x="0"
     inkscape:window-y="24"
     inkscape:window-maximized="1"
     inkscape:document-rotation="0"
     inkscape:pagecheckerboard="0">
    <inkscape:grid
       type="xygrid"
       id="grid815"
       spacingx="0.13229167"
       spacingy="0.13229167" />
  </sodipodi:namedview>
  <metadata
     id="metadata5">
    <rdf:RDF>
      <cc:Work
         rdf:about="">
        <dc:format>image/svg+xml</dc:format>
        <dc:type
           rdf:resource="http://purl.org/dc/dcmitype/StillImage" />
      </cc:Work>
    </rdf:RDF>
  </metadata>
  <g
     inkscape:label="Capa 1"
     inkscape:groupmode="layer"
     id="layer1"
     transform="translate(0,-292.76665)">
    <path
       id="rect828"
       style="opacity:1;fill:#f1f6f8;fill-opacity:0.8509804;stroke:none;stroke-width:0;stroke-linecap:round;stroke-linejoin:round;stroke-miterlimit:4;stroke-dasharray:none;stroke-opacity:1"
       d="M 3,3 C 1.8919937,3 1,3.8919937 1,5 v 7 c 0,1.108006 0.8919881,2 2,2 h 10 c 1.108012,0 2,-0.891994 2,-2 V 5 C 15,3.8919937 14.108006,3 13,3 Z m 11,9 c 0,0.554003 -0.446013,1 -1,1 H 3 C 2.4460136,13 2,12.554003 2,12 V 5 C 2,4.4459969 2.4459969,4 3,4 h 10 c 0.554003,0 1,0.4459969 1,1 z"
       transform="matrix(0.26458333,0,0,0.26458333,0,292.76665)"
       sodipodi:nodetypes="ssssssssscssccsscc" />
    <path
       id="path2593"
       style="fill:#f1f6f8;fill-opacity:0.8509804;stroke:none;stroke-width:0.01;stroke-linecap:butt;stroke-linejoin:miter;stroke-miterlimit:4;stroke-dasharray:none;stroke-opacity:1"
       d="m 2.6458333,294.35415 -0.9260416,0.13229 0.1322917,0.13229 c -0.1064535,0.15813 -0.204754,0.85358 -10e-8,1.05834 0,-0.2016 0.2645834,-0.66146 0.5291668,-0.52917 l 0.1322916,0.13229 z"
       sodipodi:nodetypes="ccccccc" />
  </g>
</svg>
