<?xml version="1.0" encoding="UTF-8" standalone="no"?>
<svg
   xmlns:dc="http://purl.org/dc/elements/1.1/"
   xmlns:cc="http://creativecommons.org/ns#"
   xmlns:rdf="http://www.w3.org/1999/02/22-rdf-syntax-ns#"
   xmlns:svg="http://www.w3.org/2000/svg"
   xmlns="http://www.w3.org/2000/svg"
   xmlns:xlink="http://www.w3.org/1999/xlink"
   xmlns:sodipodi="http://sodipodi.sourceforge.net/DTD/sodipodi-0.dtd"
   xmlns:inkscape="http://www.inkscape.org/namespaces/inkscape"
   width="128"
   height="128"
   viewBox="0 0 33.866666 33.866668"
   version="1.1"
   id="svg1015"
   inkscape:version="1.0.2 (e86c870879, 2021-01-15)"
   sodipodi:docname="0cc-famitracker.svg">
  <defs
     id="defs1009">
    <linearGradient
       inkscape:collect="always"
       id="linearGradient873">
      <stop
         style="stop-color:#0b0b0b;stop-opacity:1;"
         offset="0"
         id="stop869" />
      <stop
         style="stop-color:#0b0b0b;stop-opacity:0.85882353;"
         offset="0.68076366"
         id="stop878" />
      <stop
         style="stop-color:#0b0b0b;stop-opacity:0.83137255;"
         offset="0.69925421"
         id="stop888" />
      <stop
         style="stop-color:#0b0b0b;stop-opacity:0.80392157;"
         offset="0.71879315"
         id="stop890" />
      <stop
         style="stop-color:#0b0b0b;stop-opacity:0.78039216;"
         offset="0.73593426"
         id="stop892" />
      <stop
         style="stop-color:#0b0b0b;stop-opacity:0.75686275;"
         offset="0.75022364"
         id="stop894" />
      <stop
         style="stop-color:#0b0b0b;stop-opacity:0.73333333;"
         offset="0.76798755"
         id="stop896" />
      <stop
         style="stop-color:#0b0b0b;stop-opacity:0.08235294;"
         offset="0.9150058"
         id="stop919" />
      <stop
         style="stop-color:#0b0b0b;stop-opacity:0.07058824;"
         offset="0.92246956"
         id="stop917" />
      <stop
         style="stop-color:#0b0b0b;stop-opacity:0.05882353;"
         offset="0.92918676"
         id="stop915" />
      <stop
         style="stop-color:#0b0b0b;stop-opacity:0.04705882;"
         offset="0.93840873"
         id="stop912" />
      <stop
         style="stop-color:#0b0b0b;stop-opacity:0.03137255;"
         offset="0.94760686"
         id="stop910" />
      <stop
         style="stop-color:#0b0b0b;stop-opacity:0.02352941;"
         offset="0.95380515"
         id="stop908" />
      <stop
         style="stop-color:#0b0b0b;stop-opacity:0.01568627;"
         offset="0.95886087"
         id="stop906" />
      <stop
         style="stop-color:#0b0b0b;stop-opacity:0.01176471;"
         offset="0.96356124"
         id="stop904" />
      <stop
         style="stop-color:#0b0b0b;stop-opacity:0.00784314;"
         offset="0.96845078"
         id="stop902" />
      <stop
         style="stop-color:#0b0b0b;stop-opacity:0.00392157;"
         offset="0.97347641"
         id="stop900" />
      <stop
         style="stop-color:#0b0b0b;stop-opacity:0;"
         offset="0.97812337"
         id="stop886" />
      <stop
         style="stop-color:#0b0b0b;stop-opacity:0;"
         offset="0.98456311"
         id="stop884" />
      <stop
         style="stop-color:#0b0b0b;stop-opacity:0;"
         offset="0.98700982"
         id="stop882" />
      <stop
         style="stop-color:#0b0b0b;stop-opacity:0;"
         offset="0.98924524"
         id="stop880" />
      <stop
         style="stop-color:#0b0b0b;stop-opacity:0;"
         offset="1"
         id="stop871" />
    </linearGradient>
    <linearGradient
       inkscape:collect="always"
       xlink:href="#linearGradient895"
       id="linearGradient897"
       x1="2685.9844"
       y1="1088.7905"
       x2="2685.9844"
       y2="1770.3615"
       gradientUnits="userSpaceOnUse"
       gradientTransform="matrix(0.04277854,0,0,0.04277854,-95.919086,-44.867312)" />
    <linearGradient
       inkscape:collect="always"
       id="linearGradient895">
      <stop
         style="stop-color:#f864f7;stop-opacity:1"
         offset="0"
         id="stop891" />
      <stop
         style="stop-color:#8b0bcf;stop-opacity:1"
         offset="1"
         id="stop893" />
    </linearGradient>
    <linearGradient
       inkscape:collect="always"
       id="linearGradient879">
      <stop
         style="stop-color:#e84efc;stop-opacity:1"
         offset="0"
         id="stop875" />
      <stop
         style="stop-color:#b20ce6;stop-opacity:1"
         offset="1"
         id="stop877" />
    </linearGradient>
    <radialGradient
       inkscape:collect="always"
       xlink:href="#linearGradient873"
       id="radialGradient898"
       gradientUnits="userSpaceOnUse"
       cx="60.636452"
       cy="20.456388"
       fx="60.636452"
       fy="20.456388"
       r="17.303919"
       gradientTransform="translate(-43.433354,-3.9448764)" />
    <radialGradient
       inkscape:collect="always"
       xlink:href="#linearGradient879"
       id="radialGradient993"
       cx="16.968126"
       cy="4.670938"
       fx="16.968126"
       fy="4.670938"
       r="13.695572"
       gradientUnits="userSpaceOnUse"
       gradientTransform="matrix(4.8885673,0,0,1.5420669,-65.723642,-0.93384819)" />
    <linearGradient
       inkscape:collect="always"
       xlink:href="#linearGradient883"
       id="linearGradient885"
       x1="16.048216"
       y1="11.041626"
       x2="16.048216"
       y2="24.842192"
       gradientUnits="userSpaceOnUse"
       gradientTransform="matrix(0.93827579,0,0,0.93827579,1.1636417,1.8957549)" />
    <linearGradient
       inkscape:collect="always"
       id="linearGradient883">
      <stop
         style="stop-color:#ffffff;stop-opacity:1;"
         offset="0"
         id="stop879" />
      <stop
         style="stop-color:#efd4fc;stop-opacity:1"
         offset="1"
         id="stop881" />
    </linearGradient>
  </defs>
  <sodipodi:namedview
     id="base"
     pagecolor="#ffffff"
     bordercolor="#666666"
     borderopacity="1.0"
     inkscape:pageopacity="0.0"
     inkscape:pageshadow="2"
     inkscape:zoom="0.70000001"
     inkscape:cx="-318.96347"
     inkscape:cy="-91.611699"
     inkscape:document-units="mm"
     inkscape:current-layer="layer1"
     inkscape:document-rotation="0"
     showgrid="false"
     units="px"
     inkscape:window-width="1920"
     inkscape:window-height="1028"
     inkscape:window-x="0"
     inkscape:window-y="24"
     inkscape:window-maximized="1" />
  <metadata
     id="metadata1012">
    <rdf:RDF>
      <cc:Work
         rdf:about="">
        <dc:format>image/svg+xml</dc:format>
        <dc:type
           rdf:resource="http://purl.org/dc/dcmitype/StillImage" />
        <dc:title></dc:title>
      </cc:Work>
    </rdf:RDF>
  </metadata>
  <g
     inkscape:label="Capa 1"
     inkscape:groupmode="layer"
     id="layer1">
    <circle
       style="opacity:0.309726;fill:url(#radialGradient898);fill-opacity:1;stroke-width:3;stroke-linecap:square;stroke-linejoin:round"
       id="path867"
       cx="17.203098"
       cy="16.511513"
       r="17.303919" />
    <circle
       style="fill:url(#linearGradient897);fill-opacity:1;stroke:#b1aaaa;stroke-width:0.0575565;stroke-linecap:square;stroke-opacity:0.992157"
       id="circle839"
       cx="17.203098"
       cy="16.511513"
       r="15.118138" />
    <circle
       style="fill:url(#radialGradient993);fill-opacity:1;stroke:none;stroke-width:0.0498826;stroke-linecap:square;stroke-opacity:1"
       id="circle839-3"
       cx="17.203098"
       cy="16.511513"
       r="13.102469" />
    <path
       d="m 10.400922,10.020252 c -1.1551641,0 -2.0851966,0.930032 -2.0851966,2.084555 v 4.169747 c 0,1.154522 0.9300325,2.084554 2.0851966,2.084554 h 1.389272 c 1.155164,0 2.085196,-0.930032 2.085196,-2.084554 v -4.169747 c 0,-1.154523 -0.930032,-2.084555 -2.085196,-2.084555 z m 6.948938,0 c -1.155164,0 -2.085196,0.930032 -2.085196,2.084555 v 4.169747 c 0,1.154522 0.930032,2.084554 2.085196,2.084554 h 1.389274 c 0.930032,0 1.704845,-0.606766 1.974874,-1.443793 l -1.279597,-0.640761 c 0,0.384842 -0.309795,0.694639 -0.695277,0.694639 H 17.34986 c -0.385483,0 -0.69528,-0.309797 -0.69528,-0.694639 v -4.169747 c 0,-0.384841 0.309797,-0.694638 0.69528,-0.694638 h 1.389274 c 0.385482,0 0.695277,0.309797 0.695277,0.694638 l 1.279597,-0.640119 c -0.270029,-0.83767 -1.044842,-1.444436 -1.974874,-1.444436 z m 6.948938,0 c -1.155162,0 -2.085194,0.930032 -2.085194,2.084555 v 4.169747 c 0,1.154522 0.930032,2.084554 2.085194,2.084554 h 1.389275 c 0.930033,0 1.704844,-0.606766 1.974874,-1.443793 l -1.279595,-0.640761 c 0,0.384842 -0.309798,0.694639 -0.695279,0.694639 h -1.389275 c -0.385481,0 -0.695278,-0.309797 -0.695278,-0.694639 v -4.169747 c 0,-0.384841 0.309797,-0.694638 0.695278,-0.694638 h 1.389275 c 0.385481,0 0.695279,0.309797 0.695279,0.694638 l 1.279595,-0.640119 c -0.27003,-0.83767 -1.044841,-1.444436 -1.974874,-1.444436 z m -13.897876,1.389917 h 1.389272 c 0.385483,0 0.69528,0.309797 0.69528,0.694638 v 4.169747 c 0,0.384842 -0.309797,0.694639 -0.69528,0.694639 h -1.389272 c -0.385483,0 -0.6952802,-0.309797 -0.6952802,-0.694639 v -4.169747 c 0,-0.384841 0.3097972,-0.694638 0.6952802,-0.694638 z m 2.779188,8.338855 c -0.769681,0 -1.389916,0.619593 -1.389916,1.389916 v 6.94894 h 1.389916 v -4.169747 h 2.779831 V 22.528216 H 13.18011 V 21.13894 h 4.16975 v -1.389916 z m 5.559024,0 v 1.389916 h 2.085194 v 6.94894 h 1.389276 v -6.94894 h 2.085194 v -1.389916 z"
       fill="#ebe0ed"
       fill-rule="nonzero"
       id="path894"
       style="fill:#3b076f;fill-opacity:0.0747753;stroke-width:0.6414" />
    <path
       d="m 10.250133,9.2759256 c -1.1551643,0 -2.0851967,0.9300314 -2.0851967,2.0845544 v 4.169748 c 0,1.154522 0.9300324,2.084553 2.0851967,2.084553 h 1.389272 c 1.155163,0 2.085196,-0.930031 2.085196,-2.084553 V 11.36048 c 0,-1.154523 -0.930033,-2.0845544 -2.085196,-2.0845544 z m 6.948938,0 c -1.155164,0 -2.085196,0.9300314 -2.085196,2.0845544 v 4.169748 c 0,1.154522 0.930032,2.084553 2.085196,2.084553 h 1.389273 c 0.930033,0 1.704846,-0.606765 1.974875,-1.443793 l -1.279597,-0.64076 c 0,0.384841 -0.309795,0.694638 -0.695278,0.694638 h -1.389273 c -0.385484,0 -0.695281,-0.309797 -0.695281,-0.694638 V 11.36048 c 0,-0.384841 0.309797,-0.694638 0.695281,-0.694638 h 1.389273 c 0.385483,0 0.695278,0.309797 0.695278,0.694638 l 1.279597,-0.640119 C 20.29319,9.8826914 19.518377,9.2759256 18.588344,9.2759256 Z m 6.948938,0 c -1.155162,0 -2.085195,0.9300314 -2.085195,2.0845544 v 4.169748 c 0,1.154522 0.930033,2.084553 2.085195,2.084553 h 1.389274 c 0.930033,0 1.704845,-0.606765 1.974875,-1.443793 l -1.279595,-0.64076 c 0,0.384841 -0.309798,0.694638 -0.69528,0.694638 h -1.389274 c -0.385482,0 -0.695279,-0.309797 -0.695279,-0.694638 V 11.36048 c 0,-0.384841 0.309797,-0.694638 0.695279,-0.694638 h 1.389274 c 0.385482,0 0.69528,0.309797 0.69528,0.694638 l 1.279595,-0.640119 C 27.242128,9.8826914 26.467316,9.2759256 25.537283,9.2759256 Z M 10.250133,10.665842 h 1.389272 c 0.385483,0 0.69528,0.309797 0.69528,0.694638 v 4.169748 c 0,0.384841 -0.309797,0.694638 -0.69528,0.694638 h -1.389272 c -0.3854832,0 -0.6952804,-0.309797 -0.6952804,-0.694638 V 11.36048 c 0,-0.384841 0.3097972,-0.694638 0.6952804,-0.694638 z m 2.779187,8.338856 c -0.76968,0 -1.389915,0.619592 -1.389915,1.389915 v 6.94894 h 1.389915 v -4.169747 h 2.779832 V 21.783889 H 13.02932 v -1.389276 h 4.169751 v -1.389915 z m 5.559024,0 v 1.389915 h 2.085195 v 6.94894 h 1.389275 v -6.94894 h 2.085195 v -1.389915 z"
       fill="#ebe0ed"
       fill-rule="nonzero"
       id="path892"
       style="fill:#3b076f;fill-opacity:0.19396;stroke-width:0.6414" />
    <path
       d="m 9.480069,8.8904034 c -1.155164,0 -2.0851965,0.930032 -2.0851965,2.0845546 v 4.169747 c 0,1.154522 0.9300325,2.084553 2.0851965,2.084553 h 1.389272 c 1.155164,0 2.085196,-0.930031 2.085196,-2.084553 v -4.169747 c 0,-1.1545226 -0.930032,-2.0845546 -2.085196,-2.0845546 z m 6.948938,0 c -1.155164,0 -2.085196,0.930032 -2.085196,2.0845546 v 4.169747 c 0,1.154522 0.930032,2.084553 2.085196,2.084553 h 1.389274 c 0.930032,0 1.704845,-0.606765 1.974874,-1.443792 l -1.279597,-0.640761 c 0,0.384842 -0.309795,0.694639 -0.695277,0.694639 h -1.389274 c -0.385483,0 -0.69528,-0.309797 -0.69528,-0.694639 v -4.169747 c 0,-0.384841 0.309797,-0.694638 0.69528,-0.694638 h 1.389274 c 0.385482,0 0.695277,0.309797 0.695277,0.694638 l 1.279597,-0.640119 C 19.523126,9.4971695 18.748313,8.8904034 17.818281,8.8904034 Z m 6.948938,0 c -1.155162,0 -2.085194,0.930032 -2.085194,2.0845546 v 4.169747 c 0,1.154522 0.930032,2.084553 2.085194,2.084553 h 1.389275 c 0.930033,0 1.704844,-0.606765 1.974874,-1.443792 l -1.279595,-0.640761 c 0,0.384842 -0.309798,0.694639 -0.695279,0.694639 h -1.389275 c -0.385481,0 -0.695278,-0.309797 -0.695278,-0.694639 v -4.169747 c 0,-0.384841 0.309797,-0.694638 0.695278,-0.694638 h 1.389275 c 0.385481,0 0.695279,0.309797 0.695279,0.694638 l 1.279595,-0.640119 C 26.472064,9.4971695 25.697253,8.8904034 24.76722,8.8904034 Z M 9.480069,10.28032 h 1.389272 c 0.385483,0 0.69528,0.309797 0.69528,0.694638 v 4.169747 c 0,0.384842 -0.309797,0.694639 -0.69528,0.694639 H 9.480069 c -0.385483,0 -0.6952802,-0.309797 -0.6952802,-0.694639 v -4.169747 c 0,-0.384841 0.3097972,-0.694638 0.6952802,-0.694638 z m 2.779188,8.338855 c -0.769681,0 -1.389916,0.619592 -1.389916,1.389916 v 6.94894 h 1.389916 v -4.169748 h 2.779831 v -1.389916 h -2.779831 v -1.389276 h 4.16975 v -1.389916 z m 5.559024,0 v 1.389916 h 2.085194 v 6.94894 h 1.389276 v -6.94894 h 2.085194 v -1.389916 z"
       fill="#ebe0ed"
       fill-rule="nonzero"
       id="path9"
       style="fill:url(#linearGradient885);fill-opacity:1;stroke-width:0.6414" />
    <path
       id="path887"
       style="fill:#751eef;fill-opacity:0.147523;stroke-width:0.641399"
       d="m 18.547593,9.0237913 c 0.344826,0.2565018 0.607023,0.6178641 0.742332,1.0376157 l -0.939673,0.469837 c 0.100644,0.120455 0.163401,0.273728 0.163401,0.443654 l 1.279565,-0.640026 C 19.598043,9.7294114 19.138198,9.2460626 18.547593,9.0237913 Z m 6.94912,0 c 0.344826,0.2565018 0.607023,0.6178641 0.742332,1.0376157 l -0.939673,0.470321 c 0.100446,0.120399 0.162916,0.273432 0.162916,0.44317 l 1.279564,-0.640026 C 26.546677,9.7294114 26.087319,9.2460626 25.496713,9.0237913 Z m -13.891451,0.00193 c 0.513023,0.3791006 0.846094,0.9863997 0.846094,1.6757007 v 4.169865 c 0,1.154522 -0.930252,2.084445 -2.085415,2.084445 H 8.9767956 c -0.259976,0 -0.5073784,-0.04911 -0.7365136,-0.135278 0.3463207,0.256048 0.7741392,0.408743 1.2398062,0.408743 h 1.3891448 c 1.155164,0 2.085415,-0.929923 2.085415,-2.084445 v -4.169857 c 0,-0.894941 -0.560048,-1.65263 -1.349386,-1.9491672 z M 8.9767956,10.007099 c -0.3854829,0 -0.6952998,0.309489 -0.6952998,0.69433 v 4.169861 c 0,0.367415 0.2833624,0.663156 0.6443888,0.689481 -0.087335,-0.11612 -0.1410963,-0.258905 -0.1410963,-0.416013 v -4.16986 c 0,-0.384842 0.3098169,-0.694816 0.6952999,-0.694816 h 1.3891448 c 0.01762,0 0.03412,0.0041 0.0514,0.0053 -0.126588,-0.168393 -0.326498,-0.278281 -0.554692,-0.278281 z m 6.9491194,0 c -0.385483,0 -0.6953,0.309489 -0.6953,0.69433 v 4.169861 c 0,0.367251 0.28311,0.662924 0.643904,0.689481 -0.08725,-0.116092 -0.140611,-0.258989 -0.140611,-0.416016 v -4.169857 c 0,-0.384842 0.309817,-0.694816 0.6953,-0.694816 h 1.389145 c 0.01745,0 0.03379,0.0041 0.05091,0.0053 -0.126592,-0.168319 -0.326092,-0.278311 -0.554204,-0.278311 z m 6.948636,0 c -0.385482,0 -0.6953,0.309489 -0.6953,0.69433 v 4.169861 c 0,0.367355 0.283448,0.663072 0.644389,0.689481 -0.08733,-0.11612 -0.141097,-0.258905 -0.141097,-0.416013 v -4.16986 c 0,-0.384842 0.309818,-0.694816 0.6953,-0.694816 h 1.389145 c 0.01762,0 0.03412,0.0041 0.0514,0.0053 -0.126596,-0.168319 -0.326095,-0.278311 -0.554207,-0.278311 z m -3.590929,5.523129 c -0.275327,0.827611 -1.045283,1.42551 -1.968562,1.42551 h -1.389145 c -0.259912,0 -0.507425,-0.04915 -0.736514,-0.135278 0.346321,0.256048 0.77414,0.408743 1.239807,0.408743 h 1.389145 c 0.930031,0 1.704836,-0.606908 1.974865,-1.443935 z m 6.948636,0 c -0.275369,0.827537 -1.044849,1.42551 -1.968078,1.42551 h -1.389629 c -0.259596,0 -0.506688,-0.04886 -0.735545,-0.134794 0.346226,0.255804 0.773415,0.408259 1.238837,0.408259 h 1.389145 c 0.930033,0 1.704836,-0.606908 1.974864,-1.443935 z m -10.306343,3.08909 v 1.116165 h -4.169859 v 1.38963 h 0.503292 v -1.116165 h 4.16986 v -1.38963 z m 6.948636,0 v 1.116165 H 20.78962 v 6.94912 h -0.886337 v 0.273465 h 1.389629 v -6.94912 h 2.084931 v -1.38963 z m -5.056198,1.116165 v 0.273465 h 1.582123 V 19.735483 Z M 14.5358,21.398578 v 1.116165 h -2.779744 v 4.16986 h -0.886823 v 0.273465 h 1.390115 v -4.16986 h 2.779744 v -1.38963 z" />
  </g>
</svg>
