<?xml version="1.0" encoding="UTF-8" standalone="no"?>
<svg
   xmlns:dc="http://purl.org/dc/elements/1.1/"
   xmlns:cc="http://creativecommons.org/ns#"
   xmlns:rdf="http://www.w3.org/1999/02/22-rdf-syntax-ns#"
   xmlns:svg="http://www.w3.org/2000/svg"
   xmlns="http://www.w3.org/2000/svg"
   xmlns:xlink="http://www.w3.org/1999/xlink"
   xmlns:sodipodi="http://sodipodi.sourceforge.net/DTD/sodipodi-0.dtd"
   xmlns:inkscape="http://www.inkscape.org/namespaces/inkscape"
   width="128"
   height="128"
   viewBox="0 0 33.866666 33.866668"
   version="1.1"
   id="svg1015"
   inkscape:version="1.0.2 (e86c870879, 2021-01-15)"
   sodipodi:docname="3540_XVIIx86.0.svg">
  <defs
     id="defs1009">
    <linearGradient
       inkscape:collect="always"
       id="linearGradient873">
      <stop
         style="stop-color:#0b0b0b;stop-opacity:1;"
         offset="0"
         id="stop869" />
      <stop
         style="stop-color:#0b0b0b;stop-opacity:0.85882353;"
         offset="0.68076366"
         id="stop878" />
      <stop
         style="stop-color:#0b0b0b;stop-opacity:0.83137255;"
         offset="0.69925421"
         id="stop888" />
      <stop
         style="stop-color:#0b0b0b;stop-opacity:0.80392157;"
         offset="0.71879315"
         id="stop890" />
      <stop
         style="stop-color:#0b0b0b;stop-opacity:0.78039216;"
         offset="0.73593426"
         id="stop892" />
      <stop
         style="stop-color:#0b0b0b;stop-opacity:0.75686275;"
         offset="0.75022364"
         id="stop894" />
      <stop
         style="stop-color:#0b0b0b;stop-opacity:0.73333333;"
         offset="0.76798755"
         id="stop896" />
      <stop
         style="stop-color:#0b0b0b;stop-opacity:0.08235294;"
         offset="0.9150058"
         id="stop919" />
      <stop
         style="stop-color:#0b0b0b;stop-opacity:0.07058824;"
         offset="0.92246956"
         id="stop917" />
      <stop
         style="stop-color:#0b0b0b;stop-opacity:0.05882353;"
         offset="0.92918676"
         id="stop915" />
      <stop
         style="stop-color:#0b0b0b;stop-opacity:0.04705882;"
         offset="0.93840873"
         id="stop912" />
      <stop
         style="stop-color:#0b0b0b;stop-opacity:0.03137255;"
         offset="0.94760686"
         id="stop910" />
      <stop
         style="stop-color:#0b0b0b;stop-opacity:0.02352941;"
         offset="0.95380515"
         id="stop908" />
      <stop
         style="stop-color:#0b0b0b;stop-opacity:0.01568627;"
         offset="0.95886087"
         id="stop906" />
      <stop
         style="stop-color:#0b0b0b;stop-opacity:0.01176471;"
         offset="0.96356124"
         id="stop904" />
      <stop
         style="stop-color:#0b0b0b;stop-opacity:0.00784314;"
         offset="0.96845078"
         id="stop902" />
      <stop
         style="stop-color:#0b0b0b;stop-opacity:0.00392157;"
         offset="0.97347641"
         id="stop900" />
      <stop
         style="stop-color:#0b0b0b;stop-opacity:0;"
         offset="0.97812337"
         id="stop886" />
      <stop
         style="stop-color:#0b0b0b;stop-opacity:0;"
         offset="0.98456311"
         id="stop884" />
      <stop
         style="stop-color:#0b0b0b;stop-opacity:0;"
         offset="0.98700982"
         id="stop882" />
      <stop
         style="stop-color:#0b0b0b;stop-opacity:0;"
         offset="0.98924524"
         id="stop880" />
      <stop
         style="stop-color:#0b0b0b;stop-opacity:0;"
         offset="1"
         id="stop871" />
    </linearGradient>
    <linearGradient
       inkscape:collect="always"
       xlink:href="#linearGradient895"
       id="linearGradient897"
       x1="2685.9844"
       y1="1088.7905"
       x2="2685.9844"
       y2="1770.3615"
       gradientUnits="userSpaceOnUse"
       gradientTransform="matrix(0.04277854,0,0,0.04277854,-95.919086,-44.867312)" />
    <linearGradient
       inkscape:collect="always"
       id="linearGradient895">
      <stop
         style="stop-color:#f864f7;stop-opacity:1"
         offset="0"
         id="stop891" />
      <stop
         style="stop-color:#8b0bcf;stop-opacity:1"
         offset="1"
         id="stop893" />
    </linearGradient>
    <linearGradient
       inkscape:collect="always"
       id="linearGradient879">
      <stop
         style="stop-color:#e84efc;stop-opacity:1"
         offset="0"
         id="stop875" />
      <stop
         style="stop-color:#b20ce6;stop-opacity:1"
         offset="1"
         id="stop877" />
    </linearGradient>
    <radialGradient
       inkscape:collect="always"
       xlink:href="#linearGradient873"
       id="radialGradient898"
       gradientUnits="userSpaceOnUse"
       cx="60.636452"
       cy="20.456388"
       fx="60.636452"
       fy="20.456388"
       r="17.303919"
       gradientTransform="translate(-43.433354,-3.9448764)" />
    <radialGradient
       inkscape:collect="always"
       xlink:href="#linearGradient879"
       id="radialGradient993"
       cx="16.968126"
       cy="4.670938"
       fx="16.968126"
       fy="4.670938"
       r="13.695572"
       gradientUnits="userSpaceOnUse"
       gradientTransform="matrix(4.8885673,0,0,1.5420669,-65.723642,-0.93384819)" />
    <linearGradient
       inkscape:collect="always"
       xlink:href="#linearGradient884"
       id="linearGradient886"
       x1="13.364421"
       y1="13.92075"
       x2="13.364421"
       y2="24.14933"
       gradientUnits="userSpaceOnUse"
       gradientTransform="translate(0.24609948,-0.59326537)" />
    <linearGradient
       inkscape:collect="always"
       id="linearGradient884">
      <stop
         style="stop-color:#ffffff;stop-opacity:1;"
         offset="0"
         id="stop880-3" />
      <stop
         style="stop-color:#e9c1fb;stop-opacity:1"
         offset="1"
         id="stop882-6" />
    </linearGradient>
  </defs>
  <sodipodi:namedview
     id="base"
     pagecolor="#ffffff"
     bordercolor="#666666"
     borderopacity="1.0"
     inkscape:pageopacity="0.0"
     inkscape:pageshadow="2"
     inkscape:zoom="1.979899"
     inkscape:cx="7.3156037"
     inkscape:cy="40.624468"
     inkscape:document-units="mm"
     inkscape:current-layer="layer1"
     inkscape:document-rotation="0"
     showgrid="false"
     units="px"
     inkscape:window-width="1920"
     inkscape:window-height="1028"
     inkscape:window-x="0"
     inkscape:window-y="24"
     inkscape:window-maximized="1" />
  <metadata
     id="metadata1012">
    <rdf:RDF>
      <cc:Work
         rdf:about="">
        <dc:format>image/svg+xml</dc:format>
        <dc:type
           rdf:resource="http://purl.org/dc/dcmitype/StillImage" />
        <dc:title></dc:title>
      </cc:Work>
    </rdf:RDF>
  </metadata>
  <g
     inkscape:label="Capa 1"
     inkscape:groupmode="layer"
     id="layer1">
    <circle
       style="opacity:0.309726;fill:url(#radialGradient898);fill-opacity:1;stroke-width:3;stroke-linecap:square;stroke-linejoin:round"
       id="path867"
       cx="17.203098"
       cy="16.511513"
       r="17.303919" />
    <circle
       style="fill:url(#linearGradient897);fill-opacity:1;stroke:#b1aaaa;stroke-width:0.0575565;stroke-linecap:square;stroke-opacity:0.992157"
       id="circle839"
       cx="17.203098"
       cy="16.511513"
       r="15.118138" />
    <circle
       style="fill:url(#radialGradient993);fill-opacity:1;stroke:none;stroke-width:0.0498826;stroke-linecap:square;stroke-opacity:1"
       id="circle839-3"
       cx="17.203098"
       cy="16.511513"
       r="13.102469" />
    <g
       id="g906"
       style="opacity:0.333664"
       transform="translate(0.24609948,-0.59326537)">
      <path
         d="m 16.503128,12.621969 c -2.04385,-0.0044 -3.689072,2.396953 -4.52054,5.011365 -0.94213,2.962326 -2.6347223,4.035023 -4.22046,4.442595 l 10.665245,4.75e-4 0.658665,-1.285138 -2.456091,-0.03064 c -2.160976,-0.184528 -2.591508,-2.316585 -2.465902,-2.995502 0.207729,-1.332219 0.886453,-3.426668 2.338852,-5.143204 z m 0.787332,0 -0.658668,1.285137 2.456093,0.03064 c 2.160974,0.184528 2.591506,2.316581 2.4659,2.995501 -0.20773,1.332218 -0.886279,3.426668 -2.338736,5.143202 2.043849,0.0044 3.689072,-2.396954 4.520539,-5.011366 0.94213,-2.962323 2.634723,-4.034849 4.220402,-4.442419 z"
         fill="#ffffff"
         fill-opacity="0.52107"
         stroke-width="1.048"
         id="path888"
         style="fill:#372a4c;fill-opacity:0.100519" />
      <path
         d="m 16.565665,13.086124 c -2.04385,-0.0044 -3.689072,2.396953 -4.52054,5.011365 -0.94213,2.962326 -2.634722,4.035023 -4.2204597,4.442595 l 10.6652447,4.75e-4 0.658665,-1.285138 -2.456091,-0.03064 c -2.160976,-0.184528 -2.591508,-2.316585 -2.465902,-2.995502 0.207729,-1.332219 0.886453,-3.426668 2.338852,-5.143204 z m 0.787332,0 -0.658668,1.285137 2.456093,0.03064 c 2.160974,0.184528 2.591506,2.316581 2.4659,2.995501 -0.20773,1.332218 -0.886279,3.426668 -2.338736,5.143202 2.043849,0.0044 3.689072,-2.396954 4.520539,-5.011366 0.94213,-2.962323 2.634723,-4.034849 4.220402,-4.442419 z"
         fill="#ffffff"
         fill-opacity="0.52107"
         stroke-width="1.048"
         id="path890"
         style="fill:#372a4c;fill-opacity:0.100519" />
      <path
         d="m 16.660062,13.425786 c -2.04385,-0.0044 -3.689072,2.396953 -4.52054,5.011365 -0.94213,2.962326 -2.6347223,4.035023 -4.22046,4.442595 l 10.665245,4.75e-4 0.658665,-1.285138 -2.456091,-0.03064 c -2.160976,-0.184528 -2.591508,-2.316585 -2.465902,-2.995502 0.207729,-1.332219 0.886453,-3.426668 2.338852,-5.143204 z m 0.787332,0 -0.658668,1.285137 2.456093,0.03064 c 2.160974,0.184528 2.591506,2.316581 2.4659,2.995501 -0.20773,1.332218 -0.886279,3.426668 -2.338736,5.143202 2.043849,0.0044 3.689072,-2.396954 4.520539,-5.011366 0.94213,-2.962323 2.634723,-4.034849 4.220402,-4.442419 z"
         fill="#ffffff"
         fill-opacity="0.52107"
         stroke-width="1.048"
         id="path892"
         style="fill:#372a4c;fill-opacity:0.100519" />
      <path
         d="m 17.06553,13.874951 c -2.04385,-0.0044 -3.689072,2.396953 -4.52054,5.011365 -0.94213,2.962326 -2.6347228,4.035023 -4.2204605,4.442595 l 10.6652455,4.75e-4 0.658665,-1.285138 -2.456091,-0.03064 c -2.160976,-0.184528 -2.591508,-2.316585 -2.465902,-2.995502 0.207729,-1.332219 0.886453,-3.426668 2.338852,-5.143204 z m 0.787332,0 -0.658668,1.285137 2.456093,0.03064 c 2.160974,0.184528 2.591506,2.316581 2.4659,2.995501 -0.20773,1.332218 -0.886279,3.426668 -2.338736,5.143202 2.043849,0.0044 3.689072,-2.396954 4.520539,-5.011366 0.94213,-2.962323 2.634723,-4.034849 4.220402,-4.442419 z"
         fill="#ffffff"
         fill-opacity="0.52107"
         stroke-width="1.048"
         id="path894"
         style="fill:#372a4c;fill-opacity:0.100519" />
      <path
         d="m 17.46035,14.433808 c -2.04385,-0.0044 -3.689072,2.396953 -4.52054,5.011365 -0.94213,2.962326 -2.634723,4.035023 -4.2204604,4.442595 l 10.6652454,4.75e-4 0.658665,-1.285138 -2.456091,-0.03064 c -2.160976,-0.184528 -2.591508,-2.316585 -2.465902,-2.995502 0.207729,-1.332219 0.886453,-3.426668 2.338852,-5.143204 z m 0.787332,0 -0.658668,1.285137 2.456093,0.03064 c 2.160974,0.184528 2.591506,2.316581 2.4659,2.995501 -0.20773,1.332218 -0.886279,3.426668 -2.338736,5.143202 2.043849,0.0044 3.689072,-2.396954 4.520539,-5.011366 0.94213,-2.962323 2.634723,-4.034849 4.220402,-4.442419 z"
         fill="#ffffff"
         fill-opacity="0.52107"
         stroke-width="1.048"
         id="path896"
         style="fill:#372a4c;fill-opacity:0.100519" />
      <path
         d="m 18.118379,14.920577 c -2.04385,-0.0044 -3.689072,2.396953 -4.52054,5.011365 -0.94213,2.962326 -2.634723,4.035023 -4.2204605,4.442595 l 10.6652455,4.75e-4 0.658665,-1.285138 -2.456091,-0.03064 c -2.160976,-0.184528 -2.591508,-2.316585 -2.465902,-2.995502 0.207729,-1.332219 0.886453,-3.426668 2.338852,-5.143204 z m 0.787332,0 -0.658668,1.285137 2.456093,0.03064 c 2.160974,0.184528 2.591506,2.316581 2.4659,2.995501 -0.20773,1.332218 -0.886279,3.426668 -2.338736,5.143202 2.043849,0.0044 3.689072,-2.396954 4.520539,-5.011366 0.94213,-2.962323 2.634723,-4.034849 4.220402,-4.442419 z"
         fill="#ffffff"
         fill-opacity="0.52107"
         stroke-width="1.048"
         id="path898"
         style="fill:#372a4c;fill-opacity:0.100519" />
    </g>
    <path
       d="m 15.841307,11.762406 c -2.043851,-0.0044 -3.689072,2.396953 -4.520541,5.011365 -0.94213,2.962326 -2.6347216,4.035023 -4.2204593,4.442595 l 10.6652453,4.75e-4 0.658665,-1.285138 -2.456092,-0.03064 c -2.160976,-0.184528 -2.591508,-2.316585 -2.465902,-2.995502 0.20773,-1.332219 0.886453,-3.426668 2.338852,-5.143204 z m 0.787332,0 -0.658668,1.285137 2.456093,0.03064 c 2.160974,0.184528 2.591506,2.316581 2.4659,2.995501 -0.20773,1.332218 -0.886279,3.426668 -2.338736,5.143202 2.043849,0.0044 3.689072,-2.396954 4.520539,-5.011366 0.94213,-2.962323 2.634723,-4.034849 4.220402,-4.442419 z"
       fill="#ffffff"
       fill-opacity="0.52107"
       stroke-width="1.048"
       id="path2390"
       style="fill:url(#linearGradient886);fill-opacity:1" />
  </g>
</svg>
