<?xml version="1.0" encoding="UTF-8" standalone="no"?>
<svg
   xmlns:dc="http://purl.org/dc/elements/1.1/"
   xmlns:cc="http://creativecommons.org/ns#"
   xmlns:rdf="http://www.w3.org/1999/02/22-rdf-syntax-ns#"
   xmlns:svg="http://www.w3.org/2000/svg"
   xmlns="http://www.w3.org/2000/svg"
   xmlns:xlink="http://www.w3.org/1999/xlink"
   xmlns:sodipodi="http://sodipodi.sourceforge.net/DTD/sodipodi-0.dtd"
   xmlns:inkscape="http://www.inkscape.org/namespaces/inkscape"
   version="1.1"
   id="svg2"
   width="136.53333"
   height="136.53333"
   viewBox="0 0 136.53333 136.53333"
   sodipodi:docname="6180-the-moon.svg"
   inkscape:version="1.0.2 (e86c870879, 2021-01-15)">
  <metadata
     id="metadata8">
    <rdf:RDF>
      <cc:Work
         rdf:about="">
        <dc:format>image/svg+xml</dc:format>
        <dc:type
           rdf:resource="http://purl.org/dc/dcmitype/StillImage" />
        <dc:title></dc:title>
      </cc:Work>
    </rdf:RDF>
  </metadata>
  <defs
     id="defs6">
    <linearGradient
       inkscape:collect="always"
       id="linearGradient953">
      <stop
         style="stop-color:#727474;stop-opacity:0.98717636"
         offset="0"
         id="stop949" />
      <stop
         style="stop-color:#242628;stop-opacity:1"
         offset="1"
         id="stop951" />
    </linearGradient>
    <linearGradient
       inkscape:collect="always"
       id="linearGradient4313">
      <stop
         style="stop-color:#2d2f33;stop-opacity:1"
         offset="0"
         id="stop4315" />
      <stop
         style="stop-color:#676969;stop-opacity:1"
         offset="1"
         id="stop4317" />
    </linearGradient>
    <linearGradient
       inkscape:collect="always"
       xlink:href="#linearGradient4313"
       id="linearGradient4319"
       x1="66.280823"
       y1="128.61551"
       x2="64.943542"
       y2="16.578243"
       gradientUnits="userSpaceOnUse"
       gradientTransform="matrix(0.96111005,0,0,0.96111005,2.2110748,2.0329508)" />
    <filter
       filterUnits="objectBoundingBox"
       y="0%"
       x="0%"
       height="100%"
       width="100%"
       id="alpha">
      <feColorMatrix
         id="feColorMatrix823"
         values="0 0 0 0 1 0 0 0 0 1 0 0 0 0 1 0 0 0 1 0"
         type="matrix"
         in="SourceGraphic" />
    </filter>
    <mask
       id="mask0">
      <g
         id="g828"
         filter="url(#alpha)">
        <rect
           id="rect826"
           style="fill:rgb(0%,0%,0%);fill-opacity:0.2"
           y="0"
           x="0"
           height="384"
           width="384" />
      </g>
    </mask>
    <clipPath
       id="clip1">
      <rect
         id="rect831"
         y="0"
         x="0"
         height="384"
         width="384" />
    </clipPath>
    <g
       clip-path="url(#clip1)"
       id="surface5">
      <path
         id="path834"
         d="M 128 64 C 114.367188 64.023438 101.386719 69.839844 92.296875 80 L 80 80 C 53.492188 80.003906 32.003906 101.492188 32 128 L 32 232 C 32.003906 258.507812 53.492188 279.996094 80 280 L 86.484375 280 C 95.050781 294.832031 110.871094 303.980469 128 304 L 130.8125 304 C 137.585938 323.152344 155.683594 335.96875 176 336 L 208 336 C 228.320312 335.976562 246.429688 323.160156 253.203125 304 L 256 304 C 273.125 303.972656 288.9375 294.828125 297.5 280 L 304 280 C 330.507812 279.996094 351.996094 258.507812 352 232 L 352 128 C 351.996094 101.492188 330.507812 80.003906 304 80 L 291.703125 80 C 282.613281 69.839844 269.632812 64.023438 256 64 L 224 64 C 212.183594 64.019531 200.789062 68.398438 192 76.296875 C 183.210938 68.398438 171.816406 64.019531 160 64 Z M 128 64"
         style="fill:rgb(0%,0%,0%)" />
    </g>
    <mask
       id="mask1">
      <g
         id="g839"
         filter="url(#alpha)">
        <rect
           id="rect837"
           style="fill:rgb(0%,0%,0%);fill-opacity:0.2"
           y="0"
           x="0"
           height="384"
           width="384" />
      </g>
    </mask>
    <clipPath
       id="clip2">
      <rect
         id="rect842"
         y="0"
         x="0"
         height="384"
         width="384" />
    </clipPath>
    <g
       clip-path="url(#clip2)"
       id="surface8">
      <path
         id="path845"
         d="M 80 128 C 80 136 80 144 80 152 C 90.667969 152 101.332031 152 112 152 C 112 144 112 136 112 128 C 101.332031 128 90.667969 128 80 128 Z M 80 128"
         style="fill:rgb(0%,0%,0%)" />
      <path
         id="path847-8"
         d="M 80 168 C 80 176 80 184 80 192 C 90.667969 192 101.332031 192 112 192 C 112 184 112 176 112 168 C 101.332031 168 90.667969 168 80 168 Z M 80 168"
         style="fill:rgb(0%,0%,0%)" />
      <path
         id="path849-7"
         d="M 80 208 C 80 216 80 224 80 232 C 90.667969 232 101.332031 232 112 232 C 112 224 112 216 112 208 C 101.332031 208 90.667969 208 80 208 Z M 80 208"
         style="fill:rgb(0%,0%,0%)" />
      <path
         id="path851"
         d="M 128 112 C 128 120 128 128 128 136 C 138.667969 136 149.332031 136 160 136 C 160 128 160 120 160 112 C 149.332031 112 138.667969 112 128 112 Z M 128 112"
         style="fill:rgb(0%,0%,0%)" />
      <path
         id="path853"
         d="M 128 152 C 128 160 128 168 128 176 C 138.667969 176 149.332031 176 160 176 C 160 168 160 160 160 152 C 149.332031 152 138.667969 152 128 152 Z M 128 152"
         style="fill:rgb(0%,0%,0%)" />
      <path
         id="path855"
         d="M 128 192 C 128 200 128 208 128 216 C 138.667969 216 149.332031 216 160 216 C 160 208 160 200 160 192 C 149.332031 192 138.667969 192 128 192 Z M 128 192"
         style="fill:rgb(0%,0%,0%)" />
      <path
         id="path857"
         d="M 128 232 C 128 240 128 248 128 256 C 138.667969 256 149.332031 256 160 256 C 160 248 160 240 160 232 C 149.332031 232 138.667969 232 128 232 Z M 128 232"
         style="fill:rgb(0%,0%,0%)" />
      <path
         id="path859"
         d="M 176 144 C 176 152 176 160 176 168 C 186.667969 168 197.332031 168 208 168 C 208 160 208 152 208 144 C 197.332031 144 186.667969 144 176 144 Z M 176 144"
         style="fill:rgb(0%,0%,0%)" />
      <path
         id="path861"
         d="M 176 184 C 176 192 176 200 176 208 C 186.667969 208 197.332031 208 208 208 C 208 200 208 192 208 184 C 197.332031 184 186.667969 184 176 184 Z M 176 184"
         style="fill:rgb(0%,0%,0%)" />
      <path
         id="path863"
         d="M 176 224 C 176 232 176 240 176 248 C 186.667969 248 197.332031 248 208 248 C 208 240 208 232 208 224 C 197.332031 224 186.667969 224 176 224 Z M 176 224"
         style="fill:rgb(0%,0%,0%)" />
      <path
         id="path865"
         d="M 176 264 C 176 272 176 280 176 288 C 186.667969 288 197.332031 288 208 288 C 208 280 208 272 208 264 C 197.332031 264 186.667969 264 176 264 Z M 176 264"
         style="fill:rgb(0%,0%,0%)" />
      <path
         id="path867"
         d="M 304 128 C 304 136 304 144 304 152 C 293.332031 152 282.667969 152 272 152 C 272 144 272 136 272 128 C 282.667969 128 293.332031 128 304 128 Z M 304 128"
         style="fill:rgb(0%,0%,0%)" />
      <path
         id="path869"
         d="M 304 168 C 304 176 304 184 304 192 C 293.332031 192 282.667969 192 272 192 C 272 184 272 176 272 168 C 282.667969 168 293.332031 168 304 168 Z M 304 168"
         style="fill:rgb(0%,0%,0%)" />
      <path
         id="path871"
         d="M 304 208 C 304 216 304 224 304 232 C 293.332031 232 282.667969 232 272 232 C 272 224 272 216 272 208 C 282.667969 208 293.332031 208 304 208 Z M 304 208"
         style="fill:rgb(0%,0%,0%)" />
      <path
         id="path873"
         d="M 256 112 C 256 120 256 128 256 136 C 245.332031 136 234.667969 136 224 136 C 224 128 224 120 224 112 C 234.667969 112 245.332031 112 256 112 Z M 256 112"
         style="fill:rgb(0%,0%,0%)" />
      <path
         id="path875"
         d="M 256 152 C 256 160 256 168 256 176 C 245.332031 176 234.667969 176 224 176 C 224 168 224 160 224 152 C 234.667969 152 245.332031 152 256 152 Z M 256 152"
         style="fill:rgb(0%,0%,0%)" />
      <path
         id="path877"
         d="M 256 192 C 256 200 256 208 256 216 C 245.332031 216 234.667969 216 224 216 C 224 208 224 200 224 192 C 234.667969 192 245.332031 192 256 192 Z M 256 192"
         style="fill:rgb(0%,0%,0%)" />
      <path
         id="path879"
         d="M 256 232 C 256 240 256 248 256 256 C 245.332031 256 234.667969 256 224 256 C 224 248 224 240 224 232 C 234.667969 232 245.332031 232 256 232 Z M 256 232"
         style="fill:rgb(0%,0%,0%)" />
    </g>
    <mask
       id="mask2">
      <g
         id="g884"
         filter="url(#alpha)">
        <rect
           id="rect882"
           style="fill:rgb(0%,0%,0%);fill-opacity:0.290196"
           y="0"
           x="0"
           height="384"
           width="384" />
      </g>
    </mask>
    <clipPath
       id="clip3">
      <rect
         id="rect887"
         y="0"
         x="0"
         height="384"
         width="384" />
    </clipPath>
    <g
       clip-path="url(#clip3)"
       id="surface11">
      <path
         id="path890"
         d="M 128 56 C 114.367188 56.023438 101.386719 61.839844 92.296875 72 L 80 72 C 53.492188 72.003906 32.003906 93.492188 32 120 L 32 128 C 32.003906 101.492188 53.492188 80.003906 80 80 L 92.296875 80 C 101.386719 69.839844 114.367188 64.023438 128 64 L 160 64 C 171.816406 64.019531 183.210938 68.398438 192 76.296875 C 200.789062 68.398438 212.183594 64.019531 224 64 L 256 64 C 269.632812 64.023438 282.613281 69.839844 291.703125 80 L 304 80 C 330.507812 80.003906 351.996094 101.492188 352 128 L 352 120 C 351.996094 93.492188 330.507812 72.003906 304 72 L 291.703125 72 C 282.613281 61.839844 269.632812 56.023438 256 56 L 224 56 C 212.183594 56.019531 200.789062 60.398438 192 68.296875 C 183.210938 60.398438 171.816406 56.019531 160 56 Z M 128 56"
         style="fill:rgb(100.000%,100.000%,100.000%)" />
    </g>
    <filter
       filterUnits="objectBoundingBox"
       y="0%"
       x="0%"
       height="100%"
       width="100%"
       id="alpha-0">
      <feColorMatrix
         id="feColorMatrix864"
         values="0 0 0 0 1 0 0 0 0 1 0 0 0 0 1 0 0 0 1 0"
         type="matrix"
         in="SourceGraphic" />
    </filter>
    <mask
       id="mask0-0">
      <g
         style="filter:url(#alpha-0)"
         id="g869"
         filter="url(#alpha)">
        <rect
           id="rect867"
           style="fill:rgb(0%,0%,0%);fill-opacity:0.301961"
           y="0"
           x="0"
           height="384"
           width="384" />
      </g>
    </mask>
    <clipPath
       id="clip1-5">
      <rect
         id="rect872"
         y="0"
         x="0"
         height="384"
         width="384" />
    </clipPath>
    <g
       clip-path="url(#clip1-5)"
       id="surface5-3">
      <path
         id="path875-4"
         d="M 168.203125 339.898438 C 138.5625 336.339844 110.464844 323.269531 78.152344 298.019531 C 68.023438 290.105469 56.875 280.476562 55.933594 278.832031 C 54.523438 276.375 54.855469 273.503906 56.765625 271.59375 C 59.730469 268.625 62.039062 269.203125 74.238281 275.964844 C 112.203125 297.007812 136.375 306.730469 162.863281 311.605469 C 172.945312 313.460938 204.023438 313.476562 215.898438 311.632812 C 240.496094 307.8125 258.472656 302.875 283.027344 293.203125 C 297.113281 287.652344 298.8125 287.46875 302.335938 291.148438 C 304.636719 293.550781 304.988281 297.324219 303.167969 300.101562 C 301.621094 302.460938 292.773438 308.617188 282.78125 314.289062 C 247.457031 334.335938 203.566406 344.144531 168.203125 339.898438 Z M 309.863281 315.40625 C 309.082031 314.625 308.441406 313.199219 308.441406 312.242188 C 308.441406 311.285156 310.171875 305.277344 312.289062 298.894531 C 316.761719 285.398438 317.648438 280.578125 315.960938 278.890625 C 314.144531 277.074219 308.707031 276.664062 299.542969 277.652344 C 283.625 279.367188 281.480469 279.402344 279.933594 278.003906 C 277.792969 276.066406 278.070312 271.980469 280.5 269.703125 C 283.097656 267.269531 289.441406 263.777344 294.308594 262.101562 C 304.0625 258.746094 324.144531 258.257812 330.824219 261.214844 C 335.714844 263.378906 336.578125 265.296875 336.453125 273.738281 C 336.25 287.535156 330.304688 302.582031 321.390625 311.855469 C 317.144531 316.273438 316.3125 316.832031 313.949219 316.832031 C 312.238281 316.832031 310.78125 316.324219 309.863281 315.40625 Z M 145.394531 262.058594 C 133.753906 259.601562 122.777344 253.003906 116.554688 244.730469 C 112.25 239.003906 110.277344 235.027344 107.929688 227.355469 C 106.164062 221.574219 106.015625 220.109375 106.003906 208.628906 C 105.992188 194.035156 107.039062 189.015625 112.351562 178.292969 C 121.636719 159.539062 141.347656 147.578125 172.105469 142.042969 C 179.699219 140.675781 201.4375 138.171875 205.800781 138.160156 C 211.523438 138.144531 211.628906 137.953125 211.628906 127.257812 C 211.628906 112.722656 208.964844 105.179688 202.21875 100.582031 C 197.234375 97.191406 192.847656 95.878906 186.429688 95.863281 C 177.1875 95.839844 169.660156 98.976562 163.726562 105.316406 C 160.128906 109.167969 158.566406 111.875 157.105469 116.789062 C 156.554688 118.644531 155.441406 121.003906 154.628906 122.039062 C 153.367188 123.640625 152.605469 123.914062 149.410156 123.914062 C 147.355469 123.914062 142.28125 123.441406 138.140625 122.859375 C 134 122.277344 127.5 121.453125 123.699219 121.03125 C 115.453125 120.109375 113.839844 119.566406 112.28125 117.191406 C 111.175781 115.503906 111.179688 115.046875 112.355469 110.21875 C 115.414062 97.648438 119.929688 89.609375 129.050781 80.492188 C 139.480469 70.066406 150.589844 64.539062 168.367188 60.941406 C 175.824219 59.429688 179.25 59.136719 189.347656 59.136719 C 215.1875 59.136719 234.644531 65.707031 247.269531 78.699219 C 254.589844 86.230469 258.320312 94.433594 260.113281 106.953125 C 260.660156 110.769531 261.113281 129.476562 261.390625 159.507812 L 261.816406 206.136719 L 264.125 211.472656 C 265.390625 214.410156 268.234375 219.210938 270.441406 222.144531 C 275.761719 229.210938 276.867188 231.585938 275.992188 234.074219 C 275.34375 235.921875 262.523438 247.6875 250.914062 257.089844 C 246.195312 260.914062 245.398438 261.304688 242.328125 261.304688 C 239.074219 261.304688 238.734375 261.097656 233.464844 255.929688 C 230.449219 252.972656 225.878906 247.6875 223.308594 244.183594 C 220.734375 240.679688 218.242188 237.8125 217.769531 237.8125 C 217.292969 237.8125 215.476562 239.292969 213.734375 241.105469 C 206.328125 248.78125 196.613281 255.484375 187.953125 258.890625 C 177.398438 263.042969 157.195312 264.546875 145.394531 262.058594 Z M 184.847656 228.195312 C 194.207031 225.757812 200.683594 219.890625 205.90625 209.121094 C 210.675781 199.285156 211.722656 193.347656 211.46875 177.617188 L 211.269531 165.558594 L 202.730469 165.707031 C 190.527344 165.921875 183.679688 167.304688 175.738281 171.167969 C 161.984375 177.859375 156.082031 188.484375 157.027344 204.847656 C 157.523438 213.410156 159.796875 218.695312 165.050781 223.496094 C 170.800781 228.753906 177.027344 230.230469 184.847656 228.195312 Z M 184.847656 228.195312"
         style="fill:rgb(0%,0%,0%)" />
    </g>
    <mask
       id="mask1-7">
      <g
         style="filter:url(#alpha-0)"
         id="g880"
         filter="url(#alpha)">
        <rect
           id="rect878"
           style="fill:rgb(0%,0%,0%);fill-opacity:0.14902"
           y="0"
           x="0"
           height="384"
           width="384" />
      </g>
    </mask>
    <clipPath
       id="clip2-3">
      <rect
         id="rect883"
         y="0"
         x="0"
         height="384"
         width="384" />
    </clipPath>
    <g
       clip-path="url(#clip2-3)"
       id="surface8-2">
      <path
         id="path886"
         d="M 189.347656 51.636719 C 185.855469 51.636719 183.191406 51.675781 180.855469 51.785156 C 203.476562 52.8125 220.726562 59.320312 232.269531 71.199219 C 239.589844 78.730469 243.320312 86.933594 245.113281 99.453125 C 245.660156 103.269531 246.113281 121.976562 246.390625 152.007812 L 246.820312 198.636719 L 249.125 203.976562 C 250.394531 206.910156 253.234375 211.714844 255.441406 214.644531 C 260.761719 221.710938 261.867188 224.085938 260.996094 226.574219 C 260.34375 228.421875 247.527344 240.1875 235.917969 249.589844 C 235.660156 249.796875 235.457031 249.957031 235.222656 250.144531 C 238.863281 253.648438 239.480469 253.804688 242.328125 253.804688 C 245.398438 253.804688 246.195312 253.414062 250.917969 249.589844 C 262.527344 240.1875 275.34375 228.421875 275.996094 226.574219 C 276.867188 224.085938 275.761719 221.710938 270.441406 214.644531 C 268.234375 211.714844 265.394531 206.910156 264.125 203.976562 L 261.820312 198.636719 L 261.390625 152.007812 C 261.113281 121.976562 260.660156 103.269531 260.113281 99.453125 C 258.320312 86.933594 254.589844 78.730469 247.269531 71.199219 C 234.640625 58.203125 215.1875 51.636719 189.347656 51.636719 Z M 189.347656 51.636719"
         style="fill:rgb(0%,0%,0%)" />
    </g>
    <radialGradient
       inkscape:collect="always"
       xlink:href="#linearGradient929"
       id="radialGradient935-3"
       gradientUnits="userSpaceOnUse"
       gradientTransform="matrix(1.3408242,0,0,1.3408242,-187.37684,-130.79009)"
       cx="190.85039"
       cy="148.92816"
       fx="190.85039"
       fy="148.92816"
       r="53.835484" />
    <linearGradient
       inkscape:collect="always"
       id="linearGradient929">
      <stop
         style="stop-color:#000000;stop-opacity:1;"
         offset="0"
         id="stop925" />
      <stop
         style="stop-color:#000000;stop-opacity:0.74117647;"
         offset="0.27787876"
         id="stop961" />
      <stop
         style="stop-color:#000000;stop-opacity:0.2627451;"
         offset="0.58380306"
         id="stop963" />
      <stop
         style="stop-color:#000000;stop-opacity:0.21568627;"
         offset="0.62281501"
         id="stop967" />
      <stop
         style="stop-color:#000000;stop-opacity:0.17254902;"
         offset="0.66894341"
         id="stop971" />
      <stop
         style="stop-color:#000000;stop-opacity:0.13333333;"
         offset="0.70968169"
         id="stop975" />
      <stop
         style="stop-color:#000000;stop-opacity:0.09019608;"
         offset="0.76298833"
         id="stop979" />
      <stop
         style="stop-color:#000000;stop-opacity:0.06666667;"
         offset="0.79677397"
         id="stop977" />
      <stop
         style="stop-color:#000000;stop-opacity:0.03137255;"
         offset="0.86606854"
         id="stop981" />
      <stop
         style="stop-color:#000000;stop-opacity:0.02745098;"
         offset="0.88822615"
         id="stop947" />
      <stop
         style="stop-color:#000000;stop-opacity:0.02352941;"
         offset="0.90482414"
         id="stop983" />
      <stop
         style="stop-color:#000000;stop-opacity:0.01960784;"
         offset="0.91823369"
         id="stop987" />
      <stop
         style="stop-color:#000000;stop-opacity:0.01176471;"
         offset="0.94519842"
         id="stop991" />
      <stop
         style="stop-color:#000000;stop-opacity:0;"
         offset="1"
         id="stop927-6" />
    </linearGradient>
    <radialGradient
       inkscape:collect="always"
       xlink:href="#linearGradient929"
       id="radialGradient1005"
       gradientUnits="userSpaceOnUse"
       gradientTransform="matrix(1.4637532,0,0,1.4637532,-209.34175,-147.65995)"
       cx="190.85039"
       cy="148.92816"
       fx="190.85039"
       fy="148.92816"
       r="53.835484" />
    <radialGradient
       inkscape:collect="always"
       xlink:href="#linearGradient929"
       id="radialGradient959"
       gradientUnits="userSpaceOnUse"
       gradientTransform="matrix(1.4268032,0,0,1.4268032,-203.76217,-143.63025)"
       cx="190.85039"
       cy="148.92816"
       fx="190.85039"
       fy="148.92816"
       r="53.835484" />
    <linearGradient
       inkscape:collect="always"
       xlink:href="#linearGradient953"
       id="linearGradient955"
       x1="71.252815"
       y1="9.1584473"
       x2="71.252815"
       y2="123.60909"
       gradientUnits="userSpaceOnUse" />
  </defs>
  <sodipodi:namedview
     pagecolor="#ffffff"
     bordercolor="#666666"
     borderopacity="1"
     objecttolerance="10"
     gridtolerance="10"
     guidetolerance="10"
     inkscape:pageopacity="0"
     inkscape:pageshadow="2"
     inkscape:window-width="1920"
     inkscape:window-height="1028"
     id="namedview4"
     showgrid="false"
     inkscape:zoom="4"
     inkscape:cx="42.08511"
     inkscape:cy="77.405641"
     inkscape:window-x="0"
     inkscape:window-y="24"
     inkscape:window-maximized="1"
     inkscape:current-layer="svg2"
     showguides="false"
     inkscape:document-rotation="0" />
  <circle
     style="opacity:0.429235;fill:url(#radialGradient1005);fill-opacity:1;stroke:none;stroke-width:45.8791;stroke-linecap:round;stroke-linejoin:round;stroke-miterlimit:4;stroke-dasharray:none;stroke-opacity:1"
     id="circle1003"
     cx="70.016151"
     cy="70.334122"
     r="78.801865" />
  <circle
     style="opacity:0.429235;fill:url(#radialGradient935-3);fill-opacity:1;stroke:none;stroke-width:42.0261;stroke-linecap:round;stroke-linejoin:round;stroke-miterlimit:4;stroke-dasharray:none;stroke-opacity:1"
     id="circle938"
     cx="68.520004"
     cy="68.896385"
     r="72.183922" />
  <circle
     style="opacity:0.429235;fill:url(#radialGradient959);fill-opacity:1;stroke:none;stroke-width:44.721;stroke-linecap:round;stroke-linejoin:round;stroke-miterlimit:4;stroke-dasharray:none;stroke-opacity:1"
     id="circle923"
     cx="68.543808"
     cy="68.860909"
     r="76.812645" />
  <circle
     id="path12"
     cx="68.482712"
     cy="67.74012"
     r="61.531731"
     style="fill:url(#linearGradient4319);fill-opacity:1;stroke:url(#linearGradient955);stroke-width:5.76666;stroke-miterlimit:4;stroke-dasharray:none;stroke-opacity:1" />
  <path
     style="fill:#000000;stroke-width:1.33333337"
     d=""
     id="path849"
     inkscape:connector-curvature="0" />
  <path
     style="fill:#000000;stroke-width:1.33333337"
     d=""
     id="path847"
     inkscape:connector-curvature="0" />
  <path
     id="path865-3"
     style="font-style:normal;font-variant:normal;font-weight:normal;font-stretch:normal;font-size:15.3564px;line-height:1.25;font-family:HipsterScriptW00-Regular;-inkscape-font-specification:HipsterScriptW00-Regular;fill:#fdfdfd;fill-opacity:1;stroke-width:0.290199"
     d="m 59.445894,53.062745 c -1.586424,0 -3.173341,0.445992 -4.759765,1.335937 -1.586427,0.889945 -3.018044,2.186166 -4.294922,3.888672 -1.276878,1.702503 -2.322205,3.811108 -3.134766,6.326172 -0.812558,2.476372 -1.21875,5.299806 -1.21875,8.472656 0,1.857278 0.270793,3.501942 0.8125,4.933594 0.5804,1.392957 1.335035,2.573683 2.263672,3.541016 0.92864,0.92864 1.993868,1.625526 3.19336,2.089843 1.199493,0.503015 2.436012,0.753907 3.71289,0.753907 1.547732,0 3.076901,-0.348444 4.585938,-1.044922 1.547731,-0.696482 2.9216,-1.741808 4.121093,-3.134766 1.238186,-1.392957 2.223814,-3.153119 2.958985,-5.28125 0.773866,-2.128131 1.162109,-4.642925 1.162109,-7.544922 0,-2.437679 -0.270795,-4.546281 -0.8125,-6.326172 -0.503015,-1.818585 -1.199898,-3.307951 -2.089844,-4.46875 -0.851253,-1.199491 -1.838833,-2.089522 -2.960937,-2.669921 -1.122107,-0.5804 -2.300877,-0.871094 -3.539063,-0.871094 z m 42.019536,0 c -1.586428,0 -3.171393,0.445992 -4.757817,1.335937 -1.586426,0.889945 -3.018044,2.186166 -4.294922,3.888672 -1.276878,1.702503 -2.322207,3.811108 -3.134765,6.326172 -0.812561,2.476372 -1.21875,5.299806 -1.21875,8.472656 0,1.857278 0.270793,3.501942 0.8125,4.933594 0.580399,1.392957 1.335034,2.573683 2.263671,3.541016 0.928641,0.92864 1.991916,1.625526 3.191407,2.089843 1.199493,0.503015 2.437965,0.753907 3.714843,0.753907 1.547732,0 3.076903,-0.348444 4.585943,-1.044922 1.54773,-0.696482 2.9216,-1.741808 4.12109,-3.134766 1.23819,-1.392957 2.22382,-3.153119 2.95899,-5.28125 0.77386,-2.128131 1.16015,-4.642925 1.16015,-7.544922 0,-2.437679 -0.27079,-4.546281 -0.8125,-6.326172 -0.50301,-1.818585 -1.19794,-3.307951 -2.08789,-4.46875 -0.85125,-1.199491 -1.83883,-2.089522 -2.96093,-2.669921 -1.12211,-0.5804 -2.30284,-0.871094 -3.54102,-0.871094 z m -60.882817,0.464844 c -2.282904,0 -4.431308,0.619236 -6.443359,1.857421 -2.012051,1.199491 -3.792112,2.766508 -5.339844,4.701172 -1.509038,1.895973 -2.707711,4.024476 -3.597656,6.384766 -0.889946,2.360292 -1.333985,4.662039 -1.333985,6.90625 0,1.973357 0.328543,3.695671 0.986328,5.166015 0.657786,1.470348 1.508016,2.688918 2.552735,3.65625 1.044719,0.96733 2.225432,1.682127 3.541015,2.146485 1.315572,0.46432 2.649642,0.697265 4.003907,0.697265 1.547731,0 2.941502,-0.310595 4.179687,-0.929687 1.238186,-0.619094 2.263611,-1.411574 3.076172,-2.378906 0.851251,-1.006025 1.490388,-2.109103 1.916016,-3.308594 0.46432,-1.238186 0.695312,-2.476658 0.695312,-3.714844 0,-1.044719 -0.173243,-2.050246 -0.521484,-3.017578 -0.309546,-0.967332 -0.813287,-1.817563 -1.509766,-2.552734 -0.696481,-0.735174 -1.586509,-1.316563 -2.669922,-1.742188 -1.044718,-0.46432 -2.283192,-0.695312 -3.714843,-0.695312 -0.657786,0 -1.29497,0.07571 -1.914063,0.230469 -0.580399,0.116086 -1.121987,0.271382 -1.625,0.464843 -0.464319,0.193472 -0.87051,0.386617 -1.21875,0.580078 -0.348238,0.15477 -0.601085,0.290168 -0.755859,0.40625 -0.34824,0.270844 -0.579233,0.483888 -0.695313,0.638672 -0.116079,0.154772 -0.213628,0.503215 -0.291015,1.044922 -0.07739,0.309543 -0.115235,0.580336 -0.115235,0.8125 v 0.464844 0.232422 c 0.116081,-0.154777 0.289326,-0.329976 0.521485,-0.523438 0.193466,-0.193464 0.44436,-0.406508 0.753906,-0.638672 0.309546,-0.232158 0.735638,-0.502954 1.277344,-0.8125 0.503012,-0.270851 1.006752,-0.463996 1.509765,-0.580078 0.541706,-0.116082 1.043494,-0.173828 1.507813,-0.173828 0.851252,0 1.587938,0.213047 2.207031,0.638672 0.619093,0.386933 1.12088,0.928521 1.507812,1.625 0.425627,0.657786 0.736222,1.412419 0.929688,2.263672 0.232159,0.851253 0.347656,1.721383 0.347656,2.611328 0,0.889945 -0.09755,1.760075 -0.291015,2.611328 -0.193467,0.812558 -0.502109,1.549245 -0.927735,2.207031 -0.386933,0.619092 -0.870772,1.12088 -1.451172,1.507813 -0.580399,0.425628 -1.277284,0.638672 -2.089843,0.638672 -1.122106,0 -2.107732,-0.328542 -2.958985,-0.986328 -0.851252,-0.657787 -1.548137,-1.470168 -2.089844,-2.4375 -0.541706,-1.006025 -0.947896,-2.071253 -1.21875,-3.19336 -0.270853,-1.160798 -0.40625,-2.224074 -0.40625,-3.191406 0,-1.818585 0.250894,-3.714143 0.753907,-5.6875 0.503013,-2.012052 1.257646,-3.889661 2.263672,-5.630859 1.006025,-1.779891 2.264399,-3.307107 3.773437,-4.583985 1.509038,-1.276878 3.269199,-2.089259 5.28125,-2.4375 0.154759,-0.03868 0.252313,-0.07849 0.291016,-0.117187 0.0774,-0.0387 0.153089,-0.05859 0.230468,-0.05859 h 0.117188 c 0,-0.0387 0.01989,-0.09645 0.05859,-0.173828 0.07738,-0.154784 0.115234,-0.270277 0.115234,-0.347656 0,-0.154772 -0.07764,-0.290168 -0.232422,-0.40625 -0.154771,-0.116082 -0.483314,-0.173829 -0.986328,-0.173828 z m 39.582031,0 c -0.889945,-10e-7 -1.797925,0.193145 -2.726562,0.580078 -0.92864,0.386933 -1.76092,0.928521 -2.496094,1.625 -0.735171,0.696481 -1.334508,1.508862 -1.798828,2.4375 -0.46432,0.92864 -0.697266,1.91622 -0.697266,2.960937 0,1.470347 0.270793,2.726768 0.8125,3.771485 0.5804,1.006027 1.297185,1.953804 2.148438,2.84375 -1.741198,1.470344 -3.192717,2.999511 -4.353516,4.585937 -1.122106,1.586424 -1.683593,3.268938 -1.683593,5.048828 0,1.276881 0.213046,2.399855 0.638671,3.367188 0.425628,0.928637 0.987115,1.683272 1.683594,2.263671 0.696479,0.619092 1.50886,1.063131 2.4375,1.333985 0.928638,0.309546 1.896317,0.464844 2.902344,0.464844 1.199491,0 2.398163,-0.193146 3.597656,-0.580079 1.199491,-0.386932 2.282668,-0.968324 3.25,-1.742187 0.967332,-0.735174 1.741866,-1.643151 2.322266,-2.726563 0.619091,-1.083411 0.927734,-2.301984 0.927734,-3.65625 0,-1.238185 -0.288741,-2.323313 -0.869141,-3.251953 -0.580399,-0.928637 -1.317086,-1.741018 -2.207031,-2.4375 -0.851253,-0.735171 -1.799033,-1.412155 -2.84375,-2.03125 -1.006027,-0.619091 -1.953805,-1.218428 -2.84375,-1.798828 -0.851253,-0.619091 -1.566085,-1.276175 -2.146484,-1.972656 -0.580399,-0.696479 -0.871094,-1.490914 -0.871094,-2.380859 0,-0.657787 0.135397,-1.277023 0.40625,-1.857422 0.309546,-0.619092 0.695836,-1.140779 1.160156,-1.566406 0.503013,-0.464318 1.044601,-0.832663 1.625,-1.103516 0.619095,-0.270854 1.258232,-0.40625 1.916016,-0.40625 0.657786,0 1.121725,0.155298 1.392578,0.464844 0.270854,0.270853 0.40625,0.619296 0.40625,1.044922 0,0.425627 -0.0956,0.889565 -0.289062,1.392578 -0.193467,0.46432 -0.426412,0.910312 -0.697266,1.335937 -0.232159,0.386933 -0.483053,0.735376 -0.753906,1.044922 -0.270844,0.270854 -0.483888,0.40625 -0.638672,0.40625 -0.116082,0 -0.173828,0.05775 -0.173828,0.173828 0,0.07738 0.07764,0.192872 0.232422,0.347656 0.154771,0.154777 0.365865,0.329976 0.636718,0.523438 0.270854,0.154764 0.561548,0.308106 0.871094,0.462891 0.309546,0.116081 0.620139,0.173828 0.929688,0.173828 0.696478,0 1.315717,-0.135397 1.857421,-0.40625 0.5804,-0.309546 1.044338,-0.715738 1.392579,-1.21875 0.386938,-0.503015 0.677632,-1.062549 0.871093,-1.681641 0.232164,-0.657786 0.347657,-1.316823 0.347657,-1.974609 0,-0.735171 -0.135399,-1.450006 -0.40625,-2.146485 -0.232162,-0.696478 -0.618452,-1.315715 -1.160157,-1.857422 -0.541707,-0.541707 -1.23859,-0.987699 -2.089843,-1.335937 -0.812558,-0.348241 -1.820038,-0.521484 -3.019532,-0.521484 z M 57.703707,55.38501 c 0.773866,0 1.528498,0.290695 2.263672,0.871094 0.735173,0.580399 1.39421,1.45053 1.974609,2.611328 0.580399,1.122104 1.04434,2.533823 1.392578,4.236328 0.348241,1.702506 0.521485,3.695613 0.521485,5.978516 0,2.24421 -0.193146,4.197515 -0.580078,5.861328 -0.386933,1.663811 -0.890672,3.057584 -1.509766,4.179688 -0.619092,1.083414 -1.333926,1.895795 -2.146484,2.4375 -0.773866,0.541707 -1.566346,0.8125 -2.378907,0.8125 -0.773866,0 -1.528501,-0.232946 -2.263672,-0.697266 -0.735173,-0.503012 -1.39421,-1.237746 -1.974609,-2.205078 -0.580399,-0.967332 -1.044337,-2.166004 -1.392578,-3.597656 -0.348238,-1.470345 -0.521484,-3.154809 -0.521484,-5.050782 0,-2.592451 0.193145,-4.854398 0.580078,-6.789062 0.386933,-1.934665 0.88872,-3.541481 1.507812,-4.818359 0.619094,-1.276879 1.315978,-2.224659 2.089844,-2.84375 0.812558,-0.657787 1.624942,-0.986329 2.4375,-0.986329 z m 42.021484,0 c 0.773869,0 1.528499,0.290695 2.263679,0.871094 0.73517,0.580399 1.39226,1.45053 1.97265,2.611328 0.5804,1.122104 1.04434,2.533823 1.39258,4.236328 0.34824,1.702506 0.52344,3.695613 0.52344,5.978516 0,2.24421 -0.19315,4.197515 -0.58008,5.861328 -0.38693,1.663811 -0.89067,3.057584 -1.50976,4.179688 -0.6191,1.083414 -1.33393,1.895795 -2.14649,2.4375 -0.77387,0.541707 -1.5683,0.8125 -2.380863,0.8125 -0.773865,0 -1.5285,-0.232946 -2.263671,-0.697266 -0.735174,-0.503012 -1.392257,-1.237746 -1.972657,-2.205078 -0.580399,-0.967332 -1.044337,-2.166004 -1.392578,-3.597656 -0.348238,-1.470345 -0.523437,-3.154809 -0.523437,-5.050782 0,-2.592451 0.193145,-4.854398 0.580078,-6.789062 0.386933,-1.934665 0.890674,-3.541481 1.509765,-4.818359 0.619095,-1.276879 1.315978,-2.224659 2.089844,-2.84375 0.812558,-0.657787 1.624942,-0.986329 2.4375,-0.986329 z M 76.219332,68.558839 c 0.657786,0.657783 1.31487,1.296921 1.972656,1.916015 0.657787,0.619092 1.257124,1.296077 1.798828,2.03125 0.541707,0.696479 0.9877,1.488961 1.335938,2.378906 0.34824,0.851253 0.521484,1.818932 0.521484,2.902344 0,0.812561 -0.135396,1.509445 -0.40625,2.089844 -0.232159,0.541704 -0.5607,1.005645 -0.986328,1.392578 -0.425625,0.386938 -0.929366,0.677632 -1.509766,0.871094 -0.541707,0.154784 -1.121142,0.232422 -1.740234,0.232422 -0.696479,0 -1.413264,-0.115493 -2.148437,-0.347657 -0.696479,-0.232158 -1.333664,-0.562656 -1.914063,-0.988281 -0.541707,-0.425628 -0.987699,-0.947314 -1.335937,-1.566406 -0.348241,-0.657787 -0.521485,-1.372619 -0.521485,-2.146485 0,-1.354265 0.463938,-2.785882 1.392578,-4.294921 0.967333,-1.547732 2.148058,-3.039054 3.541016,-4.470703 z" />
</svg>
