<?xml version="1.0" encoding="UTF-8" standalone="no"?>
<svg
   xmlns:dc="http://purl.org/dc/elements/1.1/"
   xmlns:cc="http://creativecommons.org/ns#"
   xmlns:rdf="http://www.w3.org/1999/02/22-rdf-syntax-ns#"
   xmlns:svg="http://www.w3.org/2000/svg"
   xmlns="http://www.w3.org/2000/svg"
   xmlns:xlink="http://www.w3.org/1999/xlink"
   xmlns:sodipodi="http://sodipodi.sourceforge.net/DTD/sodipodi-0.dtd"
   xmlns:inkscape="http://www.inkscape.org/namespaces/inkscape"
   version="1.1"
   id="svg2"
   width="128"
   height="128"
   viewBox="0 0 128 128"
   sodipodi:docname="4137_winhlp32.0.svg"
   inkscape:version="1.0.2 (e86c870879, 2021-01-15)">
  <metadata
     id="metadata8">
    <rdf:RDF>
      <cc:Work
         rdf:about="">
        <dc:format>image/svg+xml</dc:format>
        <dc:type
           rdf:resource="http://purl.org/dc/dcmitype/StillImage" />
        <dc:title></dc:title>
      </cc:Work>
    </rdf:RDF>
  </metadata>
  <defs
     id="defs6">
    <linearGradient
       inkscape:collect="always"
       id="linearGradient858">
      <stop
         style="stop-color:#ffffff;stop-opacity:1;"
         offset="0"
         id="stop854" />
      <stop
         style="stop-color:#0961ee;stop-opacity:1"
         offset="1"
         id="stop856" />
    </linearGradient>
    <linearGradient
       inkscape:collect="always"
       id="linearGradient833">
      <stop
         style="stop-color:#0152ee;stop-opacity:1"
         offset="0"
         id="stop829" />
      <stop
         style="stop-color:#2ba7ef;stop-opacity:1"
         offset="1"
         id="stop831" />
    </linearGradient>
    <linearGradient
       inkscape:collect="always"
       id="linearGradient823">
      <stop
         style="stop-color:#0241b5;stop-opacity:1"
         offset="0"
         id="stop819" />
      <stop
         style="stop-color:#57b9f2;stop-opacity:1"
         offset="1"
         id="stop821" />
    </linearGradient>
    <linearGradient
       inkscape:collect="always"
       xlink:href="#linearGradient823"
       id="linearGradient825"
       x1="-741.83197"
       y1="959.04749"
       x2="-741.83197"
       y2="93.836403"
       gradientUnits="userSpaceOnUse"
       gradientTransform="matrix(0.13667801,0,0,0.13667801,162.31231,-5.989337)" />
    <linearGradient
       inkscape:collect="always"
       xlink:href="#linearGradient833"
       id="linearGradient835"
       x1="-738.76385"
       y1="931.43433"
       x2="-738.76385"
       y2="152.13077"
       gradientUnits="userSpaceOnUse"
       gradientTransform="matrix(0.13667801,0,0,0.13667801,162.31231,-5.989337)" />
    <linearGradient
       inkscape:collect="always"
       xlink:href="#linearGradient858"
       id="linearGradient860"
       x1="50.302635"
       y1="40.983459"
       x2="50.302635"
       y2="224.22624"
       gradientUnits="userSpaceOnUse" />
  </defs>
  <sodipodi:namedview
     pagecolor="#ffffff"
     bordercolor="#666666"
     borderopacity="1"
     objecttolerance="10"
     gridtolerance="10"
     guidetolerance="10"
     inkscape:pageopacity="0"
     inkscape:pageshadow="2"
     inkscape:window-width="1920"
     inkscape:window-height="1028"
     id="namedview4"
     showgrid="false"
     inkscape:zoom="0.921875"
     inkscape:cx="-356.05878"
     inkscape:cy="-23.721874"
     inkscape:window-x="0"
     inkscape:window-y="24"
     inkscape:window-maximized="1"
     inkscape:current-layer="svg2"
     inkscape:document-rotation="0" />
  <circle
     style="opacity:1;fill:url(#linearGradient825);fill-opacity:1;stroke:none;stroke-width:0.78699166;stroke-linecap:round;stroke-linejoin:round;stroke-miterlimit:4;stroke-dasharray:none;stroke-opacity:1"
     id="path817"
     cx="63.591888"
     cy="64.286316"
     r="61.380009" />
  <circle
     r="55.089832"
     cy="64.286316"
     cx="63.591888"
     id="circle827"
     style="opacity:1;fill:url(#linearGradient835);fill-opacity:1;stroke:none;stroke-width:0.70634133;stroke-linecap:round;stroke-linejoin:round;stroke-miterlimit:4;stroke-dasharray:none;stroke-opacity:1" />
  <g
     id="g874"
     style="opacity:0.27376677">
    <path
       id="path862"
       style="fill:#00206b;fill-opacity:0.14609537;stroke:none;stroke-width:3.77953;stroke-opacity:1"
       d="m 72.971775,23.402712 c -1.341184,0 -1.75231,0.05669 -2.700525,0.37115 -2.725455,0.903836 -4.888252,3.096567 -5.782284,5.862425 -0.307956,0.952668 -0.363931,1.37212 -0.363931,2.72829 0,1.358626 0.05582,1.774715 0.366349,2.735244 1.0362,3.2064 3.739881,5.572082 7.071489,6.187389 1.058479,0.195401 2.910036,0.03893 4.12111,-0.348851 2.674133,-0.855722 4.879223,-3.087949 5.768183,-5.838727 0.310412,-0.960529 0.366312,-1.376618 0.366312,-2.735244 0,-1.358627 -0.05598,-1.775093 -0.366312,-2.73566 -0.892237,-2.760907 -3.056795,-4.951824 -5.787118,-5.857512 -0.940449,-0.311811 -1.354507,-0.368504 -2.693273,-0.368504 z m -3.009226,22.218369 c -0.215962,0.0036 -0.442964,0.01134 -0.683085,0.02268 -5.767816,0.302362 -10.996868,3.036435 -14.691874,7.680756 -2.055334,2.583383 -3.757047,5.477367 -4.442706,7.555805 -0.640967,1.942941 -0.497473,3.293556 0.389295,3.665612 0.717823,0.301229 1.230546,-0.104693 2.567935,-2.031836 2.389822,-3.443868 3.139945,-4.43709 4.176322,-5.528428 1.33053,-1.401147 2.803846,-2.460889 3.564162,-2.564221 0.717906,-0.09751 0.909245,0.166299 0.812051,1.120252 -0.083,0.814715 -0.139654,0.995036 -5.869743,18.695622 -2.208147,6.821065 -4.16787,12.997531 -4.355251,13.725619 -0.881243,3.424177 -1.165648,7.379717 -0.691151,9.615005 0.880996,4.150183 3.850832,5.760413 8.82133,4.782613 4.465811,-0.87851 9.059588,-3.994206 12.898919,-8.74832 2.972758,-3.681071 4.91661,-7.293203 5.327702,-9.899943 0.256327,-1.625311 -0.169928,-2.428233 -1.186039,-2.235175 -0.785393,0.149291 -1.572366,1.104491 -4.597459,5.579905 -2.614359,3.867818 -3.44129,4.739679 -4.404018,4.643415 -0.768416,-0.07672 -1.02807,-0.606766 -1.001057,-2.041626 0.01852,-0.977272 0.142752,-1.625499 0.64964,-3.390085 1.190997,-4.14633 2.86916,-9.407282 4.994011,-15.654614 3.174489,-9.333392 3.435163,-10.1568 3.814019,-12.053443 1.273909,-6.37765 0.362495,-10.619074 -2.627981,-12.226582 -0.991257,-0.5328 -1.953218,-0.738747 -3.465022,-0.714407 z"
       inkscape:connector-curvature="0" />
    <path
       id="path864"
       style="fill:#00206b;fill-opacity:0.09378;stroke:none;stroke-width:3.77953;stroke-opacity:1"
       d="m 73.697159,24.857842 c -1.341184,0 -1.75231,0.05669 -2.700525,0.37115 -2.725455,0.903836 -4.888252,3.096567 -5.782284,5.862425 -0.307956,0.952668 -0.363931,1.37212 -0.363931,2.72829 0,1.358626 0.05582,1.774715 0.366349,2.735244 1.0362,3.2064 3.739881,5.572082 7.071489,6.187389 1.058479,0.195401 2.910036,0.03893 4.12111,-0.348851 2.674133,-0.855722 4.879223,-3.087949 5.768183,-5.838727 0.310412,-0.960529 0.366312,-1.376618 0.366312,-2.735244 0,-1.358627 -0.05598,-1.775093 -0.366312,-2.73566 -0.892237,-2.760907 -3.056795,-4.951824 -5.787118,-5.857512 -0.940449,-0.311811 -1.354507,-0.368504 -2.693273,-0.368504 z m -3.009226,22.218369 c -0.215962,0.0036 -0.442964,0.01134 -0.683085,0.02268 -5.767816,0.302362 -10.996868,3.036435 -14.691874,7.680756 -2.055334,2.583383 -3.757047,5.477367 -4.442706,7.555805 -0.640967,1.942941 -0.497473,3.293556 0.389295,3.665612 0.717823,0.301229 1.230546,-0.104693 2.567935,-2.031836 2.389822,-3.443868 3.139945,-4.43709 4.176322,-5.528428 1.33053,-1.401147 2.803846,-2.460889 3.564162,-2.564221 0.717906,-0.09751 0.909245,0.166299 0.812051,1.120252 -0.083,0.814715 -0.139654,0.995036 -5.869743,18.695622 -2.208147,6.821065 -4.16787,12.997531 -4.355251,13.725619 -0.881243,3.424177 -1.165648,7.379717 -0.691151,9.615005 0.880996,4.150193 3.850832,5.760423 8.82133,4.782623 4.465811,-0.87851 9.059588,-3.994216 12.898919,-8.74833 2.972758,-3.681071 4.91661,-7.293203 5.327702,-9.899943 0.256327,-1.625311 -0.169928,-2.428233 -1.186039,-2.235175 -0.785393,0.149291 -1.572366,1.104491 -4.597459,5.579905 -2.614359,3.867818 -3.44129,4.739679 -4.404018,4.643415 -0.768416,-0.07672 -1.02807,-0.606766 -1.001057,-2.041626 0.01852,-0.977272 0.142752,-1.625499 0.64964,-3.390085 1.190997,-4.14633 2.86916,-9.407282 4.994011,-15.654614 3.174489,-9.333392 3.435163,-10.1568 3.814019,-12.053443 1.273909,-6.37765 0.362495,-10.619074 -2.627981,-12.226582 -0.991257,-0.5328 -1.953218,-0.738747 -3.465022,-0.714407 z"
       inkscape:connector-curvature="0" />
    <path
       id="path866"
       style="fill:#00206b;fill-opacity:0.09378;stroke:none;stroke-width:3.77953;stroke-opacity:1"
       d="m 73.834606,26.611111 c -1.341184,0 -1.75231,0.05669 -2.700525,0.37115 -2.725455,0.903836 -4.888252,3.096567 -5.782284,5.862425 -0.307956,0.952668 -0.363931,1.37212 -0.363931,2.72829 0,1.358626 0.05582,1.774715 0.366349,2.735244 1.0362,3.2064 3.739881,5.572082 7.071489,6.187389 1.058479,0.195401 2.910036,0.03893 4.12111,-0.348851 2.674133,-0.855722 4.879223,-3.087949 5.768183,-5.838727 0.310412,-0.960529 0.366312,-1.376618 0.366312,-2.735244 0,-1.358627 -0.05598,-1.775093 -0.366312,-2.73566 C 81.42276,30.07622 79.258202,27.885303 76.527879,26.979615 75.58743,26.667804 75.173372,26.611111 73.834606,26.611111 Z M 70.82538,48.82948 c -0.215962,0.0036 -0.442964,0.01134 -0.683085,0.02268 -5.767816,0.302362 -10.996868,3.036435 -14.691874,7.680756 -2.055334,2.583383 -3.757047,5.477367 -4.442706,7.555805 -0.640967,1.942941 -0.497473,3.293556 0.389295,3.665612 0.717823,0.301229 1.230546,-0.104693 2.567935,-2.031836 2.389822,-3.443868 3.139945,-4.43709 4.176322,-5.528428 1.33053,-1.401147 2.803846,-2.460889 3.564162,-2.564221 0.717906,-0.09751 0.909245,0.166299 0.812051,1.120252 -0.083,0.814715 -0.139654,0.995036 -5.869743,18.695622 -2.208147,6.821065 -4.16787,12.997531 -4.355251,13.725619 -0.881243,3.424177 -1.165648,7.379717 -0.691151,9.615009 0.880996,4.15019 3.850832,5.76042 8.82133,4.78262 4.465811,-0.87851 9.059588,-3.99422 12.898919,-8.748331 2.972758,-3.681071 4.91661,-7.293203 5.327702,-9.899943 0.256327,-1.625311 -0.169928,-2.428233 -1.186039,-2.235175 -0.785393,0.149291 -1.572366,1.104491 -4.597459,5.579905 -2.614359,3.867818 -3.44129,4.739679 -4.404018,4.643415 -0.768416,-0.07672 -1.02807,-0.606766 -1.001057,-2.041626 0.01852,-0.977272 0.142752,-1.625499 0.64964,-3.390085 1.190997,-4.14633 2.86916,-9.407282 4.994011,-15.654614 3.174489,-9.333392 3.435163,-10.1568 3.814019,-12.053443 1.273909,-6.37765 0.362495,-10.619074 -2.627981,-12.226582 -0.991257,-0.5328 -1.953218,-0.738747 -3.465022,-0.714407 z"
       inkscape:connector-curvature="0" />
    <path
       id="path868"
       style="fill:#00206b;fill-opacity:0.09378;stroke:none;stroke-width:3.77953;stroke-opacity:1"
       d="m 73.691917,27.549207 c -1.341184,0 -1.75231,0.05669 -2.700525,0.37115 -2.725455,0.903836 -4.888252,3.096567 -5.782284,5.862425 -0.307956,0.952668 -0.363931,1.37212 -0.363931,2.72829 0,1.358626 0.05582,1.774715 0.366349,2.735244 1.0362,3.2064 3.739881,5.572082 7.071489,6.187389 1.058479,0.195401 2.910036,0.03893 4.12111,-0.348851 2.674133,-0.855722 4.879223,-3.087949 5.768183,-5.838727 0.310412,-0.960529 0.366312,-1.376618 0.366312,-2.735244 0,-1.358627 -0.05598,-1.775093 -0.366312,-2.73566 C 81.280071,31.014316 79.115513,28.823399 76.38519,27.917711 75.444741,27.6059 75.030683,27.549207 73.691917,27.549207 Z m -3.009226,22.218369 c -0.215962,0.0036 -0.442964,0.01134 -0.683085,0.02268 -5.767816,0.302362 -10.996868,3.036435 -14.691874,7.680756 -2.055334,2.583383 -3.757047,5.477367 -4.442706,7.555805 -0.640967,1.942941 -0.497473,3.293556 0.389295,3.665612 0.717823,0.301229 1.230546,-0.104693 2.567935,-2.031836 2.389822,-3.443868 3.139945,-4.43709 4.176322,-5.528428 1.33053,-1.401147 2.803846,-2.460889 3.564162,-2.564221 0.717906,-0.09751 0.909245,0.166299 0.812051,1.120252 -0.083,0.814715 -0.139654,0.995036 -5.869743,18.695622 -2.208147,6.821065 -4.16787,12.997531 -4.355251,13.725619 -0.881243,3.424177 -1.165648,7.379717 -0.691151,9.615013 0.880996,4.15019 3.850832,5.76042 8.82133,4.78262 4.465811,-0.87851 9.059588,-3.99422 12.898919,-8.748335 2.972758,-3.681071 4.91661,-7.293203 5.327702,-9.899943 0.256327,-1.625311 -0.169928,-2.428233 -1.186039,-2.235175 -0.785393,0.149291 -1.572366,1.104491 -4.597459,5.579905 -2.614359,3.867818 -3.44129,4.739679 -4.404018,4.643415 -0.768416,-0.07672 -1.02807,-0.606766 -1.001057,-2.041626 0.01852,-0.977272 0.142752,-1.625499 0.64964,-3.390085 1.190997,-4.14633 2.86916,-9.407282 4.994011,-15.654614 3.174489,-9.333392 3.435163,-10.1568 3.814019,-12.053443 1.273909,-6.37765 0.362495,-10.619074 -2.627981,-12.226582 -0.991257,-0.5328 -1.953218,-0.738747 -3.465022,-0.714407 z"
       inkscape:connector-curvature="0" />
  </g>
  <path
     id="path1035"
     style="fill:url(#linearGradient860);fill-opacity:1;stroke:none;stroke-width:3.77953;stroke-opacity:1"
     d="m 71.295074,22.566241 c -1.341184,0 -1.75231,0.05669 -2.700525,0.37115 -2.725455,0.903836 -4.888252,3.096567 -5.782284,5.862425 -0.307956,0.952668 -0.363931,1.37212 -0.363931,2.72829 0,1.358626 0.05582,1.774715 0.366349,2.735244 1.0362,3.2064 3.739881,5.572082 7.071489,6.187389 1.058479,0.195401 2.910036,0.03893 4.12111,-0.348851 2.674133,-0.855722 4.879223,-3.087949 5.768183,-5.838727 0.310412,-0.960529 0.366312,-1.376618 0.366312,-2.735244 0,-1.358627 -0.05598,-1.775093 -0.366312,-2.73566 C 78.883228,26.03135 76.71867,23.840433 73.988347,22.934745 73.047898,22.622934 72.63384,22.566241 71.295074,22.566241 Z M 68.285848,44.78461 c -0.215962,0.0036 -0.442964,0.01134 -0.683085,0.02268 -5.767816,0.302362 -10.996868,3.036435 -14.691874,7.680756 -2.055334,2.583383 -3.757047,5.477367 -4.442706,7.555805 -0.640967,1.942941 -0.497473,3.293556 0.389295,3.665612 0.717823,0.301229 1.230546,-0.104693 2.567935,-2.031836 2.389822,-3.443868 3.139945,-4.43709 4.176322,-5.528428 1.33053,-1.401147 2.803846,-2.460889 3.564162,-2.564221 0.717906,-0.09751 0.909245,0.166299 0.812051,1.120252 -0.083,0.814715 -0.139654,0.995036 -5.869743,18.695622 -2.208147,6.821065 -4.16787,12.997531 -4.355251,13.725619 -0.881243,3.424177 -1.165648,7.379717 -0.691151,9.615005 0.880996,4.150184 3.850832,5.760414 8.82133,4.782614 4.465811,-0.87851 9.059588,-3.994204 12.898919,-8.748321 2.972758,-3.681071 4.91661,-7.293203 5.327702,-9.899943 0.256327,-1.625311 -0.169928,-2.428233 -1.186039,-2.235175 -0.785393,0.149291 -1.572366,1.104491 -4.597459,5.579905 -2.614359,3.867818 -3.44129,4.739679 -4.404018,4.643415 -0.768416,-0.07672 -1.02807,-0.606766 -1.001057,-2.041626 0.01852,-0.977272 0.142752,-1.625499 0.64964,-3.390085 1.190997,-4.14633 2.86916,-9.407282 4.994011,-15.654614 3.174489,-9.333392 3.435163,-10.1568 3.814019,-12.053443 1.273909,-6.37765 0.362495,-10.619074 -2.627981,-12.226582 -0.991257,-0.5328 -1.953218,-0.738747 -3.465022,-0.714407 z"
     inkscape:connector-curvature="0" />
</svg>
