<?xml version="1.0" encoding="UTF-8" standalone="no"?>
<svg
   xmlns:dc="http://purl.org/dc/elements/1.1/"
   xmlns:cc="http://creativecommons.org/ns#"
   xmlns:rdf="http://www.w3.org/1999/02/22-rdf-syntax-ns#"
   xmlns:svg="http://www.w3.org/2000/svg"
   xmlns="http://www.w3.org/2000/svg"
   xmlns:xlink="http://www.w3.org/1999/xlink"
   xmlns:sodipodi="http://sodipodi.sourceforge.net/DTD/sodipodi-0.dtd"
   xmlns:inkscape="http://www.inkscape.org/namespaces/inkscape"
   width="128"
   height="128"
   viewBox="0 0 33.866666 33.866668"
   version="1.1"
   id="svg1015"
   inkscape:version="1.0.2 (e86c870879, 2021-01-15)"
   sodipodi:docname="alacritty-simple.svg">
  <defs
     id="defs1009">
    <linearGradient
       inkscape:collect="always"
       id="linearGradient873">
      <stop
         style="stop-color:#0b0b0b;stop-opacity:1;"
         offset="0"
         id="stop869" />
      <stop
         style="stop-color:#0b0b0b;stop-opacity:0.85882353;"
         offset="0.68076366"
         id="stop878" />
      <stop
         style="stop-color:#0b0b0b;stop-opacity:0.83137255;"
         offset="0.69925421"
         id="stop888" />
      <stop
         style="stop-color:#0b0b0b;stop-opacity:0.80392157;"
         offset="0.71879315"
         id="stop890" />
      <stop
         style="stop-color:#0b0b0b;stop-opacity:0.78039216;"
         offset="0.73593426"
         id="stop892" />
      <stop
         style="stop-color:#0b0b0b;stop-opacity:0.75686275;"
         offset="0.75022364"
         id="stop894" />
      <stop
         style="stop-color:#0b0b0b;stop-opacity:0.73333333;"
         offset="0.76798755"
         id="stop896" />
      <stop
         style="stop-color:#0b0b0b;stop-opacity:0.08235294;"
         offset="0.9150058"
         id="stop919" />
      <stop
         style="stop-color:#0b0b0b;stop-opacity:0.07058824;"
         offset="0.92246956"
         id="stop917" />
      <stop
         style="stop-color:#0b0b0b;stop-opacity:0.05882353;"
         offset="0.92918676"
         id="stop915" />
      <stop
         style="stop-color:#0b0b0b;stop-opacity:0.04705882;"
         offset="0.93840873"
         id="stop912" />
      <stop
         style="stop-color:#0b0b0b;stop-opacity:0.03137255;"
         offset="0.94760686"
         id="stop910" />
      <stop
         style="stop-color:#0b0b0b;stop-opacity:0.02352941;"
         offset="0.95380515"
         id="stop908" />
      <stop
         style="stop-color:#0b0b0b;stop-opacity:0.01568627;"
         offset="0.95886087"
         id="stop906" />
      <stop
         style="stop-color:#0b0b0b;stop-opacity:0.01176471;"
         offset="0.96356124"
         id="stop904" />
      <stop
         style="stop-color:#0b0b0b;stop-opacity:0.00784314;"
         offset="0.96845078"
         id="stop902" />
      <stop
         style="stop-color:#0b0b0b;stop-opacity:0.00392157;"
         offset="0.97347641"
         id="stop900" />
      <stop
         style="stop-color:#0b0b0b;stop-opacity:0;"
         offset="0.97812337"
         id="stop886" />
      <stop
         style="stop-color:#0b0b0b;stop-opacity:0;"
         offset="0.98456311"
         id="stop884" />
      <stop
         style="stop-color:#0b0b0b;stop-opacity:0;"
         offset="0.98700982"
         id="stop882" />
      <stop
         style="stop-color:#0b0b0b;stop-opacity:0;"
         offset="0.98924524"
         id="stop880" />
      <stop
         style="stop-color:#0b0b0b;stop-opacity:0;"
         offset="1"
         id="stop871" />
    </linearGradient>
    <linearGradient
       inkscape:collect="always"
       xlink:href="#linearGradient895"
       id="linearGradient897"
       x1="2685.9844"
       y1="1088.7905"
       x2="2685.9844"
       y2="1770.3615"
       gradientUnits="userSpaceOnUse"
       gradientTransform="matrix(0.04277854,0,0,0.04277854,-95.919086,-44.867312)" />
    <linearGradient
       inkscape:collect="always"
       id="linearGradient895">
      <stop
         style="stop-color:#535859;stop-opacity:1"
         offset="0"
         id="stop891" />
      <stop
         style="stop-color:#050505;stop-opacity:1"
         offset="1"
         id="stop893" />
    </linearGradient>
    <linearGradient
       inkscape:collect="always"
       id="linearGradient879">
      <stop
         style="stop-color:#303334;stop-opacity:1"
         offset="0"
         id="stop875" />
      <stop
         style="stop-color:#1a1a1c;stop-opacity:1"
         offset="1"
         id="stop877" />
    </linearGradient>
    <radialGradient
       inkscape:collect="always"
       xlink:href="#linearGradient873"
       id="radialGradient898"
       gradientUnits="userSpaceOnUse"
       cx="60.636452"
       cy="20.456388"
       fx="60.636452"
       fy="20.456388"
       r="17.303919"
       gradientTransform="translate(-43.433354,-3.9448764)" />
    <radialGradient
       inkscape:collect="always"
       xlink:href="#linearGradient879"
       id="radialGradient993"
       cx="16.786602"
       cy="3.5456841"
       fx="16.786602"
       fy="3.5456841"
       r="13.695572"
       gradientUnits="userSpaceOnUse"
       gradientTransform="matrix(4.8885673,0,0,1.5420669,-65.723642,-0.93384819)" />
    <linearGradient
       inkscape:collect="always"
       xlink:href="#linearGradient859"
       id="linearGradient861"
       x1="66.501045"
       y1="32.071148"
       x2="66.501045"
       y2="105.31081"
       gradientUnits="userSpaceOnUse"
       gradientTransform="translate(1.1499151,-1.2821851)" />
    <linearGradient
       inkscape:collect="always"
       id="linearGradient859">
      <stop
         style="stop-color:#f35f38;stop-opacity:1"
         offset="0"
         id="stop855" />
      <stop
         style="stop-color:#d98775;stop-opacity:1"
         offset="1"
         id="stop857" />
    </linearGradient>
    <linearGradient
       inkscape:collect="always"
       xlink:href="#linearGradient1073"
       id="linearGradient1075"
       x1="-17.133165"
       y1="34.297569"
       x2="91.400391"
       y2="83.183594"
       gradientUnits="userSpaceOnUse" />
    <linearGradient
       inkscape:collect="always"
       id="linearGradient1073">
      <stop
         style="stop-color:#f3f038;stop-opacity:1;"
         offset="0"
         id="stop1069" />
      <stop
         style="stop-color:#f3f038;stop-opacity:0;"
         offset="1"
         id="stop1071" />
    </linearGradient>
    <linearGradient
       inkscape:collect="always"
       xlink:href="#linearGradient873-3"
       id="linearGradient875"
       x1="17.034967"
       y1="20.052954"
       x2="17.034967"
       y2="27.33605"
       gradientUnits="userSpaceOnUse"
       gradientTransform="translate(-2.4054113,0.19780406)" />
    <linearGradient
       inkscape:collect="always"
       id="linearGradient873-3">
      <stop
         style="stop-color:#12a1f4;stop-opacity:1;"
         offset="0"
         id="stop869-6" />
      <stop
         style="stop-color:#2fc5f5;stop-opacity:0.9818182"
         offset="1"
         id="stop871-7" />
    </linearGradient>
    <linearGradient
       inkscape:collect="always"
       xlink:href="#linearGradient1083"
       id="linearGradient1085"
       x1="59.966797"
       y1="71.892578"
       x2="63.121906"
       y2="81.852554"
       gradientUnits="userSpaceOnUse"
       gradientTransform="matrix(0.26458333,0,0,0.26458333,-2.4054113,0.19780406)" />
    <linearGradient
       inkscape:collect="always"
       id="linearGradient1083">
      <stop
         style="stop-color:#54cbf7;stop-opacity:1;"
         offset="0"
         id="stop1079" />
      <stop
         style="stop-color:#54cbf7;stop-opacity:0;"
         offset="1"
         id="stop1081" />
    </linearGradient>
  </defs>
  <sodipodi:namedview
     id="base"
     pagecolor="#ffffff"
     bordercolor="#666666"
     borderopacity="1.0"
     inkscape:pageopacity="0.0"
     inkscape:pageshadow="2"
     inkscape:zoom="5.6"
     inkscape:cx="25.532743"
     inkscape:cy="46.7136"
     inkscape:document-units="mm"
     inkscape:current-layer="layer1"
     inkscape:document-rotation="0"
     showgrid="false"
     units="px"
     inkscape:window-width="1920"
     inkscape:window-height="1028"
     inkscape:window-x="0"
     inkscape:window-y="24"
     inkscape:window-maximized="1" />
  <metadata
     id="metadata1012">
    <rdf:RDF>
      <cc:Work
         rdf:about="">
        <dc:format>image/svg+xml</dc:format>
        <dc:type
           rdf:resource="http://purl.org/dc/dcmitype/StillImage" />
        <dc:title></dc:title>
      </cc:Work>
    </rdf:RDF>
  </metadata>
  <g
     inkscape:label="Capa 1"
     inkscape:groupmode="layer"
     id="layer1">
    <circle
       style="opacity:0.309726;fill:url(#radialGradient898);fill-opacity:1;stroke-width:3;stroke-linecap:square;stroke-linejoin:round"
       id="path867"
       cx="17.203098"
       cy="16.511513"
       r="17.303919" />
    <circle
       style="fill:url(#linearGradient897);fill-opacity:1;stroke:#b1aaaa;stroke-width:0.0575565;stroke-linecap:square;stroke-opacity:0.992157"
       id="circle839"
       cx="17.203098"
       cy="16.511513"
       r="15.118138" />
    <circle
       style="fill:url(#radialGradient993);fill-opacity:1;stroke:none;stroke-width:0.0498826;stroke-linecap:square;stroke-opacity:1"
       id="circle839-3"
       cx="17.203098"
       cy="16.511513"
       r="13.102469" />
    <g
       id="g963"
       transform="translate(2.5364831,-2.2752819)">
      <g
         aria-label="A"
         style="font-style:normal;font-variant:normal;font-weight:normal;font-stretch:normal;font-size:27.0976px;line-height:1.25;font-family:sans-serif;-inkscape-font-specification:sans-serif;letter-spacing:0px;word-spacing:0px;fill:#000000;fill-opacity:1;stroke:none;stroke-width:0.677439"
         id="text845"
         transform="translate(-2.1011629,-0.14144074)">
        <path
           style="font-style:normal;font-variant:normal;font-weight:normal;font-stretch:normal;font-family:sans-serif;-inkscape-font-specification:sans-serif;fill:url(#linearGradient861);fill-opacity:1;stroke:none;stroke-width:3.77953;stroke-linecap:round;stroke-linejoin:round;stroke-miterlimit:4;stroke-dasharray:none;stroke-opacity:1"
           d="m 59.548828,25.757812 a 1.8899528,1.8899528 0 0 0 -1.654297,0.97461 h 11.59961 a 1.8899528,1.8899528 0 0 0 -1.65625,-0.97461 z m -1.96875,1.732422 -0.804687,2.064454 H 70.609375 L 69.808594,27.490234 Z M 56.480469,30.3125 55.677734,32.376953 H 71.703125 L 70.902344,30.3125 Z m -1.097657,2.822266 -0.804687,2.064453 h 18.21875 l -0.798828,-2.064453 z m -1.099609,2.822265 -0.802734,2.064453 h 20.412109 l -0.800781,-2.064453 z m -1.097656,2.822266 -0.804688,2.066406 h 22.605469 l -0.800781,-2.066406 z m -1.097656,2.822265 -0.804688,2.066407 h 24.796875 l -0.800781,-2.066407 z m -1.09961,2.824219 -0.802734,2.064453 h 12.701172 c 0.223709,-0.685311 0.414401,-1.234645 0.673828,-2.064453 z m 12.78711,0 c 0.143957,0.445353 0.287215,0.896831 0.43164,1.330078 0.116428,0.349281 0.153602,0.43739 0.253907,0.734375 H 77.175781 L 76.375,44.425781 Z M 49.890625,47.248047 49.085938,49.3125 H 61.9375 l 0.195312,-0.515625 a 1.8899528,1.8899528 0 0 0 0.01367,-0.03711 c 0.133774,-0.379023 0.338288,-1.050247 0.492188,-1.511719 z m 14.832031,0 c 0.177176,0.514107 0.416452,1.234861 0.53125,1.541015 L 65.449219,49.3125 H 78.269531 L 77.46875,47.248047 Z m -15.93164,2.822265 -0.802735,2.064454 h 12.878907 l 0.783203,-2.064454 z m 16.941406,0 0.769531,2.064454 H 79.363281 L 78.5625,50.070312 Z m -18.039063,2.822266 -0.802734,2.064453 h 12.90625 l 0.783203,-2.064453 z m 19.091797,0 0.771485,2.064453 h 12.90039 L 79.65625,52.892578 Z m -20.189453,2.822266 -0.804687,2.064453 h 12.9375 l 0.78125,-2.064453 z m 21.242188,0 0.771484,2.064453 h 12.941406 l -0.798828,-2.064453 z m -22.341797,2.822265 -0.804688,2.066407 h 12.966797 l 0.783203,-2.066407 z m 23.396484,0 0.771484,2.066407 h 12.982422 l -0.800781,-2.066407 z m -24.49414,2.822266 -0.804688,2.066406 h 12.994141 l 0.783203,-2.066406 z m 25.546874,0 0.771485,2.066406 h 13.023437 l -0.800781,-2.066406 z m -26.646484,2.824219 -0.802734,2.064453 h 13.021484 l 0.783203,-2.064453 z m 27.701172,0 0.769531,2.064453 h 13.066407 l -0.800782,-2.064453 z m -28.798828,2.822265 -0.804688,2.064453 h 13.050782 l 0.783203,-2.064453 z m 29.851562,0 0.769532,2.064453 h 13.107422 l -0.800782,-2.064453 z m -30.951172,2.822266 -0.802734,2.064453 h 13.078125 l 0.783203,-2.064453 z m 32.003907,0 0.771484,2.064453 h 13.146485 l -0.800782,-2.064453 z m -33.101563,2.822266 -0.802734,2.064453 h 13.107422 l 0.78125,-2.064453 z m 34.154297,0 0.771485,2.064453 h 13.1875 l -0.800782,-2.064453 z m -35.251953,2.822265 -0.804688,2.064453 h 13.136719 l 0.783203,-2.064453 z m 36.306641,0 0.769531,2.064453 h 13.228516 l -0.798829,-2.064453 z m -37.40625,2.822266 -0.802735,2.064453 h 13.164063 l 0.783203,-2.064453 z m 38.458984,0 0.771484,2.064453 h 13.269532 l -0.800782,-2.064453 z m -39.556641,2.822266 -0.804687,2.066406 h 13.193359 l 0.783203,-2.066406 z m 40.609375,0 0.771485,2.066406 h 13.310547 l -0.800782,-2.066406 z m -41.707031,2.822265 -0.804687,2.066406 h 13.220703 l 0.783203,-2.066406 z m 42.761719,0 0.769531,2.066406 h 13.351563 l -0.800782,-2.066406 z m -43.861328,2.824219 -0.802735,2.064453 h 13.25 l 0.78125,-2.064453 z m 44.914062,0 0.771485,2.064453 h 13.392578 l -0.800782,-2.064453 z m -46.011719,2.822266 -0.804687,2.064453 h 13.279297 l 0.78125,-2.064453 z m 47.066407,0 0.769531,2.064453 h 13.433594 l -0.800782,-2.064453 z m -48.166016,2.822265 -0.802734,2.064453 h 13.30664 l 0.783203,-2.064453 z m 49.21875,0 0.769531,2.064453 h 13.47461 l -0.800782,-2.064453 z m -50.316406,2.822266 -0.804688,2.064453 h 13.335938 l 0.783203,-2.064453 z m 51.369141,0 0.771484,2.064453 h 13.513672 l -0.798828,-2.064453 z m -52.46875,2.822265 -0.802735,2.064456 h 13.365235 l 0.78125,-2.064456 z m 53.521484,0 0.771484,2.064456 H 97.966797 L 97.166016,98.052734 Z M 29.091797,100.875 a 1.8899528,1.8899528 0 0 0 1.589844,2.06641 h 9.888671 a 1.8899528,1.8899528 0 0 0 1.490235,-1.19336 l 0.330078,-0.87305 z m 55.601562,0 0.322266,0.86523 a 1.8899528,1.8899528 0 0 0 1.488281,1.20118 H 96.585938 A 1.8899528,1.8899528 0 0 0 98.1875,100.875 Z"
           transform="matrix(0.26458333,0,0,0.26458333,-0.30424836,0.3392448)"
           id="path847" />
        <path
           id="path1067"
           d="m 59.548828,25.757812 a 1.8899528,1.8899528 0 0 0 -1.654297,0.97461 h 11.59961 a 1.8899528,1.8899528 0 0 0 -1.65625,-0.97461 z m -1.96875,1.732422 -0.804687,2.064454 H 70.609375 L 69.808594,27.490234 Z M 56.480469,30.3125 55.677734,32.376953 H 71.703125 L 70.902344,30.3125 Z m -1.097657,2.822266 -0.804687,2.064453 h 18.21875 l -0.798828,-2.064453 z m -1.099609,2.822265 -0.802734,2.064453 h 20.412109 l -0.800781,-2.064453 z m -1.097656,2.822266 -0.804688,2.066406 h 22.605469 l -0.800781,-2.066406 z m -1.097656,2.822265 -0.804688,2.066407 h 24.796875 l -0.800781,-2.066407 z m -1.09961,2.824219 -0.802734,2.064453 h 12.701172 c 0.223709,-0.685311 0.414401,-1.234645 0.673828,-2.064453 z m 12.78711,0 c 0.143957,0.445353 0.287215,0.896831 0.43164,1.330078 0.116428,0.349281 0.153602,0.43739 0.253907,0.734375 H 77.175781 L 76.375,44.425781 Z M 49.890625,47.248047 49.085938,49.3125 H 61.9375 l 0.195312,-0.515625 a 1.8899528,1.8899528 0 0 0 0.01367,-0.03711 c 0.133774,-0.379023 0.338288,-1.050247 0.492188,-1.511719 z m 14.832031,0 c 0.177176,0.514107 0.416452,1.234861 0.53125,1.541015 L 65.449219,49.3125 H 78.269531 L 77.46875,47.248047 Z m -15.93164,2.822265 -0.802735,2.064454 h 12.878907 l 0.783203,-2.064454 z m 16.941406,0 0.769531,2.064454 H 79.363281 L 78.5625,50.070312 Z m -18.039063,2.822266 -0.802734,2.064453 h 12.90625 l 0.783203,-2.064453 z m 19.091797,0 0.771485,2.064453 h 12.90039 L 79.65625,52.892578 Z m -20.189453,2.822266 -0.804687,2.064453 h 12.9375 l 0.78125,-2.064453 z m 21.242188,0 0.771484,2.064453 h 12.941406 l -0.798828,-2.064453 z m -22.341797,2.822265 -0.804688,2.066407 h 12.966797 l 0.783203,-2.066407 z m 23.396484,0 0.771484,2.066407 h 12.982422 l -0.800781,-2.066407 z m -24.49414,2.822266 -0.804688,2.066406 h 12.994141 l 0.783203,-2.066406 z m 25.546874,0 0.771485,2.066406 h 13.023437 l -0.800781,-2.066406 z m -26.646484,2.824219 -0.802734,2.064453 h 13.021484 l 0.783203,-2.064453 z m 27.701172,0 0.769531,2.064453 h 13.066407 l -0.800782,-2.064453 z m -28.798828,2.822265 -0.804688,2.064453 h 13.050782 l 0.783203,-2.064453 z m 29.851562,0 0.769532,2.064453 h 13.107422 l -0.800782,-2.064453 z m -30.951172,2.822266 -0.802734,2.064453 h 13.078125 l 0.783203,-2.064453 z m 32.003907,0 0.771484,2.064453 h 13.146485 l -0.800782,-2.064453 z m -33.101563,2.822266 -0.802734,2.064453 h 13.107422 l 0.78125,-2.064453 z m 34.154297,0 0.771485,2.064453 h 13.1875 l -0.800782,-2.064453 z m -35.251953,2.822265 -0.804688,2.064453 h 13.136719 l 0.783203,-2.064453 z m 36.306641,0 0.769531,2.064453 h 13.228516 l -0.798829,-2.064453 z m -37.40625,2.822266 -0.802735,2.064453 h 13.164063 l 0.783203,-2.064453 z m 38.458984,0 0.771484,2.064453 h 13.269532 l -0.800782,-2.064453 z m -39.556641,2.822266 -0.804687,2.066406 h 13.193359 l 0.783203,-2.066406 z m 40.609375,0 0.771485,2.066406 h 13.310547 l -0.800782,-2.066406 z m -41.707031,2.822265 -0.804687,2.066406 h 13.220703 l 0.783203,-2.066406 z m 42.761719,0 0.769531,2.066406 h 13.351563 l -0.800782,-2.066406 z m -43.861328,2.824219 -0.802735,2.064453 h 13.25 l 0.78125,-2.064453 z m 44.914062,0 0.771485,2.064453 h 13.392578 l -0.800782,-2.064453 z m -46.011719,2.822266 -0.804687,2.064453 h 13.279297 l 0.78125,-2.064453 z m 47.066407,0 0.769531,2.064453 h 13.433594 l -0.800782,-2.064453 z m -48.166016,2.822265 -0.802734,2.064453 h 13.30664 l 0.783203,-2.064453 z m 49.21875,0 0.769531,2.064453 h 13.47461 l -0.800782,-2.064453 z m -50.316406,2.822266 -0.804688,2.064453 h 13.335938 l 0.783203,-2.064453 z m 51.369141,0 0.771484,2.064453 h 13.513672 l -0.798828,-2.064453 z m -52.46875,2.822265 -0.802735,2.064456 h 13.365235 l 0.78125,-2.064456 z m 53.521484,0 0.771484,2.064456 H 97.966797 L 97.166016,98.052734 Z M 29.091797,100.875 a 1.8899528,1.8899528 0 0 0 1.589844,2.06641 h 9.888671 a 1.8899528,1.8899528 0 0 0 1.490235,-1.19336 l 0.330078,-0.87305 z m 55.601562,0 0.322266,0.86523 a 1.8899528,1.8899528 0 0 0 1.488281,1.20118 H 96.585938 A 1.8899528,1.8899528 0 0 0 98.1875,100.875 Z"
           style="font-style:normal;font-variant:normal;font-weight:normal;font-stretch:normal;font-family:sans-serif;-inkscape-font-specification:sans-serif;fill:url(#linearGradient1075);fill-opacity:1;stroke:none;stroke-width:3.77953;stroke-linecap:round;stroke-linejoin:round;stroke-miterlimit:4;stroke-dasharray:none;stroke-opacity:1"
           transform="matrix(0.26458333,0,0,0.26458333,-0.30424836,0.3392448)" />
      </g>
      <path
         style="fill:url(#linearGradient875);fill-opacity:1;stroke:none;stroke-width:0.897898;stroke-linecap:round;stroke-linejoin:round;stroke-miterlimit:4;stroke-dasharray:none;stroke-opacity:1"
         d="m 14.43232,16.912546 -0.02791,0.06666 h 0.05581 z m -0.112654,0.267167 -0.22996,0.54622 h 0.685229 l -0.22996,-0.54622 z m -0.314193,0.746724 -0.230477,0.54622 h 1.314649 l -0.229961,-0.54622 z m -0.314709,0.746725 -0.22996,0.54622 h 1.94355 l -0.22996,-0.54622 z m -0.31471,0.746724 -0.22996,0.54622 h 2.57297 l -0.230477,-0.54622 z m -0.314709,0.746725 -0.22996,0.54622 h 3.202388 l -0.230477,-0.54622 z m -0.314193,0.746724 -0.22996,0.54622 h 3.830774 l -0.22996,-0.54622 z m -0.31471,0.746725 -10e-4,0.0026 0.152445,0.544153 h 3.697449 l 0.152445,-0.544153 -0.001,-0.0026 z m 0.20774,0.746724 0.152962,0.546737 h 3.27887 l 0.152962,-0.546737 z m 0.209289,0.747241 0.152963,0.54622 h 2.86029 l 0.152962,-0.54622 z m 0.20929,0.746725 0.152962,0.54622 h 2.441195 l 0.153479,-0.54622 z m 0.209289,0.746724 0.152963,0.54622 h 2.022615 l 0.153479,-0.54622 z m 0.20929,0.746725 0.152962,0.54622 h 1.604037 l 0.152962,-0.54622 z m 0.209289,0.746724 0.152963,0.546221 h 1.185457 l 0.152962,-0.546221 z m 0.20929,0.746724 0.153479,0.546738 h 0.766362 l 0.152962,-0.546738 z m 0.20929,0.746726 0.327111,1.166852 0.327112,-1.166852 z"
         id="rect863" />
      <path
         id="path1077"
         d="m 14.43232,16.912546 -0.02791,0.06666 h 0.05581 z m -0.112654,0.267167 -0.22996,0.54622 h 0.685229 l -0.22996,-0.54622 z m -0.314193,0.746724 -0.230477,0.54622 h 1.314649 l -0.229961,-0.54622 z m -0.314709,0.746725 -0.22996,0.54622 h 1.94355 l -0.22996,-0.54622 z m -0.31471,0.746724 -0.22996,0.54622 h 2.57297 l -0.230477,-0.54622 z m -0.314709,0.746725 -0.22996,0.54622 h 3.202388 l -0.230477,-0.54622 z m -0.314193,0.746724 -0.22996,0.54622 h 3.830774 l -0.22996,-0.54622 z m -0.31471,0.746725 -10e-4,0.0026 0.152445,0.544153 h 3.697449 l 0.152445,-0.544153 -0.001,-0.0026 z m 0.20774,0.746724 0.152962,0.546737 h 3.27887 l 0.152962,-0.546737 z m 0.209289,0.747241 0.152963,0.54622 h 2.86029 l 0.152962,-0.54622 z m 0.20929,0.746725 0.152962,0.54622 h 2.441195 l 0.153479,-0.54622 z m 0.209289,0.746724 0.152963,0.54622 h 2.022615 l 0.153479,-0.54622 z m 0.20929,0.746725 0.152962,0.54622 h 1.604037 l 0.152962,-0.54622 z m 0.209289,0.746724 0.152963,0.546221 h 1.185457 l 0.152962,-0.546221 z m 0.20929,0.746724 0.153479,0.546738 h 0.766362 l 0.152962,-0.546738 z m 0.20929,0.746726 0.327111,1.166852 0.327112,-1.166852 z"
         style="fill:url(#linearGradient1085);fill-opacity:1;stroke:none;stroke-width:0.897898;stroke-linecap:round;stroke-linejoin:round;stroke-miterlimit:4;stroke-dasharray:none;stroke-opacity:1" />
    </g>
  </g>
</svg>
