<?xml version="1.0" encoding="UTF-8" standalone="no"?>
<svg
   width="128"
   height="128"
   viewBox="0 0 33.866666 33.866668"
   version="1.1"
   id="svg1015"
   inkscape:version="1.1.2 (0a00cf5339, 2022-02-04)"
   sodipodi:docname="distributor-logo-gentoo.svg"
   xmlns:inkscape="http://www.inkscape.org/namespaces/inkscape"
   xmlns:sodipodi="http://sodipodi.sourceforge.net/DTD/sodipodi-0.dtd"
   xmlns:xlink="http://www.w3.org/1999/xlink"
   xmlns="http://www.w3.org/2000/svg"
   xmlns:svg="http://www.w3.org/2000/svg"
   xmlns:rdf="http://www.w3.org/1999/02/22-rdf-syntax-ns#"
   xmlns:cc="http://creativecommons.org/ns#"
   xmlns:dc="http://purl.org/dc/elements/1.1/">
  <defs
     id="defs1009">
    <linearGradient
       inkscape:collect="always"
       id="linearGradient873">
      <stop
         style="stop-color:#0b0b0b;stop-opacity:1;"
         offset="0"
         id="stop869" />
      <stop
         style="stop-color:#0b0b0b;stop-opacity:0.85882353;"
         offset="0.68076366"
         id="stop878" />
      <stop
         style="stop-color:#0b0b0b;stop-opacity:0.83137255;"
         offset="0.69925421"
         id="stop888" />
      <stop
         style="stop-color:#0b0b0b;stop-opacity:0.80392157;"
         offset="0.71879315"
         id="stop890" />
      <stop
         style="stop-color:#0b0b0b;stop-opacity:0.78039216;"
         offset="0.73593426"
         id="stop892" />
      <stop
         style="stop-color:#0b0b0b;stop-opacity:0.75686275;"
         offset="0.75022364"
         id="stop894" />
      <stop
         style="stop-color:#0b0b0b;stop-opacity:0.73333333;"
         offset="0.76798755"
         id="stop896" />
      <stop
         style="stop-color:#0b0b0b;stop-opacity:0.08235294;"
         offset="0.9150058"
         id="stop919" />
      <stop
         style="stop-color:#0b0b0b;stop-opacity:0.07058824;"
         offset="0.92246956"
         id="stop917" />
      <stop
         style="stop-color:#0b0b0b;stop-opacity:0.05882353;"
         offset="0.92918676"
         id="stop915" />
      <stop
         style="stop-color:#0b0b0b;stop-opacity:0.04705882;"
         offset="0.93840873"
         id="stop912" />
      <stop
         style="stop-color:#0b0b0b;stop-opacity:0.03137255;"
         offset="0.94760686"
         id="stop910" />
      <stop
         style="stop-color:#0b0b0b;stop-opacity:0.02352941;"
         offset="0.95380515"
         id="stop908" />
      <stop
         style="stop-color:#0b0b0b;stop-opacity:0.01568627;"
         offset="0.95886087"
         id="stop906" />
      <stop
         style="stop-color:#0b0b0b;stop-opacity:0.01176471;"
         offset="0.96356124"
         id="stop904" />
      <stop
         style="stop-color:#0b0b0b;stop-opacity:0.00784314;"
         offset="0.96845078"
         id="stop902" />
      <stop
         style="stop-color:#0b0b0b;stop-opacity:0.00392157;"
         offset="0.97347641"
         id="stop900" />
      <stop
         style="stop-color:#0b0b0b;stop-opacity:0;"
         offset="0.97812337"
         id="stop886" />
      <stop
         style="stop-color:#0b0b0b;stop-opacity:0;"
         offset="0.98456311"
         id="stop884" />
      <stop
         style="stop-color:#0b0b0b;stop-opacity:0;"
         offset="0.98700982"
         id="stop882" />
      <stop
         style="stop-color:#0b0b0b;stop-opacity:0;"
         offset="0.98924524"
         id="stop880" />
      <stop
         style="stop-color:#0b0b0b;stop-opacity:0;"
         offset="1"
         id="stop871" />
    </linearGradient>
    <linearGradient
       inkscape:collect="always"
       xlink:href="#linearGradient895"
       id="linearGradient897"
       x1="2685.9844"
       y1="1088.7905"
       x2="2685.9844"
       y2="1770.3615"
       gradientUnits="userSpaceOnUse"
       gradientTransform="matrix(0.04277854,0,0,0.04277854,-95.919086,-44.867312)" />
    <linearGradient
       inkscape:collect="always"
       id="linearGradient895">
      <stop
         style="stop-color:#e16bff;stop-opacity:1"
         offset="0"
         id="stop891" />
      <stop
         style="stop-color:#6c21ce;stop-opacity:1"
         offset="1"
         id="stop893" />
    </linearGradient>
    <linearGradient
       inkscape:collect="always"
       id="linearGradient879">
      <stop
         style="stop-color:#db48ff;stop-opacity:1"
         offset="0"
         id="stop875" />
      <stop
         style="stop-color:#8427df;stop-opacity:0.96862745"
         offset="1"
         id="stop877" />
    </linearGradient>
    <radialGradient
       inkscape:collect="always"
       xlink:href="#linearGradient873"
       id="radialGradient898"
       gradientUnits="userSpaceOnUse"
       cx="60.636452"
       cy="20.456388"
       fx="60.636452"
       fy="20.456388"
       r="17.303919"
       gradientTransform="translate(-43.433354,-3.9448764)" />
    <radialGradient
       inkscape:collect="always"
       xlink:href="#linearGradient879"
       id="radialGradient993"
       cx="16.968126"
       cy="4.670938"
       fx="16.968126"
       fy="4.670938"
       r="13.695572"
       gradientUnits="userSpaceOnUse"
       gradientTransform="matrix(4.8885673,0,0,1.8641486,-65.723642,-2.4382716)" />
    <linearGradient
       id="b"
       x2="1"
       gradientTransform="matrix(0.10138208,-17.338417,17.338417,0.10138208,16.113103,25.29877)"
       gradientUnits="userSpaceOnUse"
       x1="-1.2255912"
       y1="0.013013591"
       y2="1.110223e-16">
      <stop
         stop-color="#c9cfe5"
         offset="0"
         id="stop7"
         style="stop-color:#c22aff;stop-opacity:1" />
      <stop
         stop-color="#fff"
         offset="1"
         id="stop9" />
    </linearGradient>
    <linearGradient
       inkscape:collect="always"
       xlink:href="#linearGradient1317"
       id="linearGradient1319"
       x1="8.5747871"
       y1="17.073038"
       x2="23.294001"
       y2="52.140263"
       gradientUnits="userSpaceOnUse"
       gradientTransform="translate(0.40721535,-1.3003852)" />
    <linearGradient
       inkscape:collect="always"
       id="linearGradient1317">
      <stop
         style="stop-color:#ffffff;stop-opacity:1;"
         offset="0"
         id="stop1313" />
      <stop
         style="stop-color:#a534fb;stop-opacity:1"
         offset="1"
         id="stop1315" />
    </linearGradient>
  </defs>
  <sodipodi:namedview
     id="base"
     pagecolor="#ffffff"
     bordercolor="#666666"
     borderopacity="1.0"
     inkscape:pageopacity="0.0"
     inkscape:pageshadow="2"
     inkscape:zoom="3.959798"
     inkscape:cx="26.263966"
     inkscape:cy="30.304576"
     inkscape:document-units="mm"
     inkscape:current-layer="layer1"
     inkscape:document-rotation="0"
     showgrid="false"
     units="px"
     inkscape:window-width="1920"
     inkscape:window-height="1028"
     inkscape:window-x="0"
     inkscape:window-y="24"
     inkscape:window-maximized="1"
     inkscape:pagecheckerboard="0" />
  <metadata
     id="metadata1012">
    <rdf:RDF>
      <cc:Work
         rdf:about="">
        <dc:format>image/svg+xml</dc:format>
        <dc:type
           rdf:resource="http://purl.org/dc/dcmitype/StillImage" />
      </cc:Work>
    </rdf:RDF>
  </metadata>
  <g
     inkscape:label="Capa 1"
     inkscape:groupmode="layer"
     id="layer1">
    <circle
       style="opacity:0.309726;fill:url(#radialGradient898);fill-opacity:1;stroke-width:3;stroke-linecap:square;stroke-linejoin:round"
       id="path867"
       cx="17.203098"
       cy="16.511513"
       r="17.303919" />
    <circle
       style="fill:url(#linearGradient897);fill-opacity:1;stroke:#b1aaaa;stroke-width:0.0575565;stroke-linecap:square;stroke-opacity:0.992157"
       id="circle839"
       cx="17.203098"
       cy="16.511513"
       r="15.118138" />
    <circle
       style="fill:url(#radialGradient993);fill-opacity:1;stroke:none;stroke-width:0.0498826;stroke-linecap:square;stroke-opacity:1"
       id="circle839-3"
       cx="17.203098"
       cy="16.511513"
       r="13.102469" />
    <g
       id="g2979"
       transform="translate(0.40721535,-1.3003852)">
      <path
         d="M 15.599795,8.8030408 C 11.923408,8.9769489 9.0457975,12.311584 9.1934195,14.12349 c 0.141552,1.765393 4.6126705,3.31441 4.5600925,3.366987 -0.91404,0.772486 -1.516661,1.294218 -2.281058,1.991882 -1.8361705,1.678439 -3.1040975,2.9221 -2.4610335,4.669294 0.742153,2.014126 2.3659905,1.931216 4.2709165,1.557106 4.918027,-0.970663 13.008908,-7.190996 12.598399,-9.484189 -0.333666,-1.858415 -4.85736,-5.528736 -7.530729,-6.8431747 A 5.6581574,5.6581574 0 0 0 15.599795,8.8030408 Z m 0.760353,3.1849882 c 0.459043,-0.04247 0.99493,0.07279 1.591483,0.364 1.304329,0.628909 2.655169,2.303303 0,3.255766 -0.721931,0.258844 -3.037366,-0.622842 -2.96659,-1.846282 0.0627,-1.128397 0.606665,-1.700683 1.375107,-1.773484 z"
         fill="#ffffff"
         fill-rule="evenodd"
         id="path2784"
         style="fill:#2d024e;fill-opacity:0.0767912;stroke-width:2.0222" />
      <path
         d="m 16.449579,9.99789 c -3.676387,0.173908 -6.5539973,3.508543 -6.406375,5.320449 0.141552,1.765393 4.61267,3.31441 4.560092,3.366987 -0.91404,0.772486 -1.516661,1.294218 -2.281058,1.991882 -1.83617,1.678439 -3.1040973,2.9221 -2.4610333,4.669294 0.7421533,2.014126 2.3659903,1.931216 4.2709163,1.557106 4.918027,-0.970663 13.008908,-7.190996 12.598399,-9.484189 -0.333666,-1.858415 -4.85736,-5.528736 -7.530729,-6.843175 A 5.6581574,5.6581574 0 0 0 16.449579,9.99789 Z m 0.760353,3.184988 c 0.459043,-0.04247 0.99493,0.07279 1.591483,0.364 1.304329,0.628909 2.655169,2.303303 0,3.255766 -0.721931,0.258844 -3.037366,-0.622842 -2.96659,-1.846282 0.0627,-1.128397 0.606665,-1.700683 1.375107,-1.773484 z"
         fill="#ffffff"
         fill-rule="evenodd"
         id="path2952"
         style="fill:#2d024e;fill-opacity:0.0307026;stroke-width:2.0222" />
      <path
         d="M 15.79548,9.1006667 C 12.119093,9.2745748 9.2414829,12.60921 9.3891049,14.421116 c 0.141552,1.765393 4.6126701,3.31441 4.5600921,3.366987 -0.91404,0.772486 -1.516661,1.294218 -2.281058,1.991882 -1.8361701,1.678439 -3.1040971,2.9221 -2.4610331,4.669294 0.742153,2.014126 2.3659901,1.931216 4.2709161,1.557106 4.918027,-0.970663 13.008908,-7.190996 12.598399,-9.484189 -0.333666,-1.858415 -4.85736,-5.528736 -7.530729,-6.8431748 A 5.6581574,5.6581574 0 0 0 15.79548,9.1006667 Z m 0.760353,3.1849883 c 0.459043,-0.04247 0.99493,0.07279 1.591483,0.364 1.304329,0.628909 2.655169,2.303303 0,3.255766 -0.721931,0.258844 -3.037366,-0.622842 -2.96659,-1.846282 0.0627,-1.128397 0.606665,-1.700683 1.375107,-1.773484 z"
         fill="#ffffff"
         fill-rule="evenodd"
         id="path2912"
         style="fill:#2d024e;fill-opacity:0.0636519;stroke-width:2.0222" />
      <path
         d="M 16.144812,9.5186059 C 12.468425,9.692514 9.5908147,13.027149 9.7384367,14.839055 c 0.141552,1.765393 4.6126703,3.31441 4.5600923,3.366987 -0.91404,0.772486 -1.516661,1.294218 -2.281058,1.991882 -1.83617,1.678439 -3.1040973,2.9221 -2.4610333,4.669294 0.7421533,2.014126 2.3659903,1.931216 4.2709163,1.557106 4.918027,-0.970663 13.008908,-7.190996 12.598399,-9.484189 -0.333666,-1.858415 -4.85736,-5.528736 -7.530729,-6.843175 A 5.6581574,5.6581574 0 0 0 16.144812,9.5186059 Z m 0.760353,3.1849881 c 0.459043,-0.04247 0.99493,0.07279 1.591483,0.364 1.304329,0.628909 2.655169,2.303303 0,3.255766 -0.721931,0.258844 -3.037366,-0.622842 -2.96659,-1.846282 0.0627,-1.128397 0.606665,-1.700683 1.375107,-1.773484 z"
         fill="#ffffff"
         fill-rule="evenodd"
         id="path2950"
         style="fill:#2d024e;fill-opacity:0.0636519;stroke-width:2.0222" />
      <path
         d="m 16.734365,10.530013 c -3.676387,0.173908 -6.553998,3.508543 -6.406375,5.320449 0.141552,1.765393 4.61267,3.31441 4.560092,3.366987 -0.91404,0.772486 -1.516661,1.294218 -2.281058,1.991882 -1.83617,1.678439 -3.1040977,2.9221 -2.461034,4.669294 0.742154,2.014126 2.365991,1.931216 4.270917,1.557106 4.918027,-0.970663 13.008908,-7.190996 12.598399,-9.484189 -0.333666,-1.858415 -4.85736,-5.528736 -7.530729,-6.843175 a 5.6581574,5.6581574 0 0 0 -2.750212,-0.578354 z m 0.760353,3.184988 c 0.459043,-0.04247 0.99493,0.07279 1.591483,0.364 1.304329,0.628909 2.655169,2.303303 0,3.255766 -0.721931,0.258844 -3.037366,-0.622842 -2.96659,-1.846282 0.0627,-1.128397 0.606665,-1.700683 1.375107,-1.773484 z"
         fill="#ffffff"
         fill-rule="evenodd"
         id="path2972"
         style="fill:#2d024e;fill-opacity:0.0307026;stroke-width:2.0222" />
    </g>
    <path
       d="m 15.739716,7.2172338 c -3.676387,0.1739081 -6.5539985,3.5085432 -6.4063765,5.3204492 0.141552,1.765393 4.6126715,3.31441 4.5600935,3.366987 -0.91404,0.772486 -1.516661,1.294218 -2.281058,1.991882 -1.8361715,1.678439 -3.1040985,2.9221 -2.4610345,4.669294 0.742153,2.014126 2.3659905,1.931216 4.2709175,1.557106 4.918027,-0.970663 13.008908,-7.190996 12.598399,-9.484189 -0.333666,-1.858415 -4.85736,-5.5287362 -7.530729,-6.8431747 A 5.6581574,5.6581574 0 0 0 15.739716,7.2172338 Z m 0.760353,3.1849882 c 0.459043,-0.04247 0.99493,0.07279 1.591483,0.364 1.304329,0.628909 2.655169,2.303303 0,3.255766 -0.721931,0.258844 -3.037366,-0.622842 -2.96659,-1.846282 0.0627,-1.128397 0.606665,-1.700683 1.375107,-1.773484 z"
       fill="#ffffff"
       fill-rule="evenodd"
       id="path895"
       style="fill:url(#linearGradient1319);fill-opacity:1;stroke-width:2.0222" />
  </g>
</svg>
