<?xml version="1.0" encoding="UTF-8" standalone="no"?>
<svg
   width="128"
   height="128"
   viewBox="0 0 33.866666 33.866668"
   version="1.1"
   id="svg1015"
   inkscape:version="1.1.2 (0a00cf5339, 2022-02-04)"
   sodipodi:docname="sense_emu_gui.svg"
   xmlns:inkscape="http://www.inkscape.org/namespaces/inkscape"
   xmlns:sodipodi="http://sodipodi.sourceforge.net/DTD/sodipodi-0.dtd"
   xmlns:xlink="http://www.w3.org/1999/xlink"
   xmlns="http://www.w3.org/2000/svg"
   xmlns:svg="http://www.w3.org/2000/svg"
   xmlns:rdf="http://www.w3.org/1999/02/22-rdf-syntax-ns#"
   xmlns:cc="http://creativecommons.org/ns#"
   xmlns:dc="http://purl.org/dc/elements/1.1/">
  <defs
     id="defs1009">
    <linearGradient
       inkscape:collect="always"
       id="linearGradient873">
      <stop
         style="stop-color:#0b0b0b;stop-opacity:1;"
         offset="0"
         id="stop869" />
      <stop
         style="stop-color:#0b0b0b;stop-opacity:0.85882353;"
         offset="0.68076366"
         id="stop878" />
      <stop
         style="stop-color:#0b0b0b;stop-opacity:0.83137255;"
         offset="0.69925421"
         id="stop888" />
      <stop
         style="stop-color:#0b0b0b;stop-opacity:0.80392157;"
         offset="0.71879315"
         id="stop890" />
      <stop
         style="stop-color:#0b0b0b;stop-opacity:0.78039216;"
         offset="0.73593426"
         id="stop892" />
      <stop
         style="stop-color:#0b0b0b;stop-opacity:0.75686275;"
         offset="0.75022364"
         id="stop894" />
      <stop
         style="stop-color:#0b0b0b;stop-opacity:0.73333333;"
         offset="0.76798755"
         id="stop896" />
      <stop
         style="stop-color:#0b0b0b;stop-opacity:0.08235294;"
         offset="0.9150058"
         id="stop919" />
      <stop
         style="stop-color:#0b0b0b;stop-opacity:0.07058824;"
         offset="0.92246956"
         id="stop917" />
      <stop
         style="stop-color:#0b0b0b;stop-opacity:0.05882353;"
         offset="0.92918676"
         id="stop915" />
      <stop
         style="stop-color:#0b0b0b;stop-opacity:0.04705882;"
         offset="0.93840873"
         id="stop912" />
      <stop
         style="stop-color:#0b0b0b;stop-opacity:0.03137255;"
         offset="0.94760686"
         id="stop910" />
      <stop
         style="stop-color:#0b0b0b;stop-opacity:0.02352941;"
         offset="0.95380515"
         id="stop908" />
      <stop
         style="stop-color:#0b0b0b;stop-opacity:0.01568627;"
         offset="0.95886087"
         id="stop906" />
      <stop
         style="stop-color:#0b0b0b;stop-opacity:0.01176471;"
         offset="0.96356124"
         id="stop904" />
      <stop
         style="stop-color:#0b0b0b;stop-opacity:0.00784314;"
         offset="0.96845078"
         id="stop902" />
      <stop
         style="stop-color:#0b0b0b;stop-opacity:0.00392157;"
         offset="0.97347641"
         id="stop900" />
      <stop
         style="stop-color:#0b0b0b;stop-opacity:0;"
         offset="0.97812337"
         id="stop886" />
      <stop
         style="stop-color:#0b0b0b;stop-opacity:0;"
         offset="0.98456311"
         id="stop884" />
      <stop
         style="stop-color:#0b0b0b;stop-opacity:0;"
         offset="0.98700982"
         id="stop882" />
      <stop
         style="stop-color:#0b0b0b;stop-opacity:0;"
         offset="0.98924524"
         id="stop880" />
      <stop
         style="stop-color:#0b0b0b;stop-opacity:0;"
         offset="1"
         id="stop871" />
    </linearGradient>
    <linearGradient
       inkscape:collect="always"
       xlink:href="#linearGradient895"
       id="linearGradient897"
       x1="2685.9844"
       y1="1088.7905"
       x2="2685.9844"
       y2="1770.3615"
       gradientUnits="userSpaceOnUse"
       gradientTransform="matrix(0.04277854,0,0,0.04277854,-95.919086,-44.867312)" />
    <linearGradient
       inkscape:collect="always"
       id="linearGradient895">
      <stop
         style="stop-color:#ffaf1c;stop-opacity:1"
         offset="0"
         id="stop891" />
      <stop
         style="stop-color:#f51306;stop-opacity:1"
         offset="1"
         id="stop893" />
    </linearGradient>
    <linearGradient
       inkscape:collect="always"
       id="linearGradient879">
      <stop
         style="stop-color:#ffa318;stop-opacity:1"
         offset="0"
         id="stop875" />
      <stop
         style="stop-color:#ff2a2b;stop-opacity:1"
         offset="1"
         id="stop877" />
    </linearGradient>
    <radialGradient
       inkscape:collect="always"
       xlink:href="#linearGradient873"
       id="radialGradient898"
       gradientUnits="userSpaceOnUse"
       cx="60.636452"
       cy="20.456388"
       fx="60.636452"
       fy="20.456388"
       r="17.303919"
       gradientTransform="translate(-43.433354,-3.9448764)" />
    <radialGradient
       inkscape:collect="always"
       xlink:href="#linearGradient879"
       id="radialGradient993"
       cx="16.968126"
       cy="3.7658708"
       fx="16.968126"
       fy="3.7658708"
       r="13.695572"
       gradientUnits="userSpaceOnUse"
       gradientTransform="matrix(4.8885673,0,0,1.8641486,-65.723642,-2.4382716)" />
    <linearGradient
       id="b"
       x2="1"
       gradientTransform="matrix(0.10138208,-17.338417,17.338417,0.10138208,16.113103,25.29877)"
       gradientUnits="userSpaceOnUse"
       x1="-1.2255912"
       y1="0.013013591"
       y2="1.110223e-16">
      <stop
         stop-color="#c9cfe5"
         offset="0"
         id="stop7"
         style="stop-color:#c22aff;stop-opacity:1" />
      <stop
         stop-color="#fff"
         offset="1"
         id="stop9" />
    </linearGradient>
    <linearGradient
       inkscape:collect="always"
       xlink:href="#linearGradient3711"
       id="linearGradient3713"
       x1="9.9889927"
       y1="5.7486653"
       x2="9.9889927"
       y2="14.780211"
       gradientUnits="userSpaceOnUse"
       gradientTransform="translate(-0.35679309,-0.27261781)" />
    <linearGradient
       inkscape:collect="always"
       id="linearGradient3711">
      <stop
         style="stop-color:#ffddaa;stop-opacity:1"
         offset="0"
         id="stop3707" />
      <stop
         style="stop-color:#fff5f0;stop-opacity:1"
         offset="1"
         id="stop3709" />
    </linearGradient>
    <linearGradient
       inkscape:collect="always"
       xlink:href="#linearGradient2554"
       id="linearGradient2556"
       x1="35.256111"
       y1="62.4445"
       x2="35.256111"
       y2="159.30795"
       gradientUnits="userSpaceOnUse"
       gradientTransform="matrix(0.26458333,0,0,0.26458333,-0.35679309,-0.27261781)" />
    <linearGradient
       inkscape:collect="always"
       id="linearGradient2554">
      <stop
         style="stop-color:#fef9fa;stop-opacity:1;"
         offset="0"
         id="stop2550" />
      <stop
         style="stop-color:#ca4a00;stop-opacity:1"
         offset="1"
         id="stop2552" />
    </linearGradient>
  </defs>
  <sodipodi:namedview
     id="base"
     pagecolor="#ffffff"
     bordercolor="#666666"
     borderopacity="1.0"
     inkscape:pageopacity="0.0"
     inkscape:pageshadow="2"
     inkscape:zoom="0.7"
     inkscape:cx="264.28571"
     inkscape:cy="84.285714"
     inkscape:document-units="mm"
     inkscape:current-layer="layer1"
     inkscape:document-rotation="0"
     showgrid="false"
     units="px"
     inkscape:window-width="1920"
     inkscape:window-height="1033"
     inkscape:window-x="0"
     inkscape:window-y="24"
     inkscape:window-maximized="1"
     inkscape:pagecheckerboard="0"
     inkscape:lockguides="false" />
  <metadata
     id="metadata1012">
    <rdf:RDF>
      <cc:Work
         rdf:about="">
        <dc:format>image/svg+xml</dc:format>
        <dc:type
           rdf:resource="http://purl.org/dc/dcmitype/StillImage" />
      </cc:Work>
    </rdf:RDF>
  </metadata>
  <g
     inkscape:label="Capa 1"
     inkscape:groupmode="layer"
     id="layer1">
    <circle
       style="opacity:0.309726;fill:url(#radialGradient898);fill-opacity:1;stroke-width:3;stroke-linecap:square;stroke-linejoin:round"
       id="path867"
       cx="17.203098"
       cy="16.511513"
       r="17.303919" />
    <circle
       style="fill:url(#linearGradient897);fill-opacity:1;stroke:#b1aaaa;stroke-width:0.0575565;stroke-linecap:square;stroke-opacity:0.992157"
       id="circle839"
       cx="17.203098"
       cy="16.511513"
       r="15.118138" />
    <circle
       style="fill:url(#radialGradient993);fill-opacity:1;stroke:none;stroke-width:0.0498826;stroke-linecap:square;stroke-opacity:1"
       id="circle839-3"
       cx="17.203098"
       cy="16.511513"
       r="13.102469" />
    <path
       style="opacity:0.2;stroke-width:0.467409"
       d="m 13.037476,6.7974859 c 0.11126,0.1399844 0.267105,0.2773914 0.102246,0.4381969 C 12.9125,7.0890912 12.682496,6.9418443 12.142825,6.8376528 12.264437,6.9777256 12.516188,7.117528 12.36375,7.257592 12.078428,7.1450073 11.763635,7.064041 11.414323,7.0165834 c 0.167261,0.142122 0.306893,0.280642 0.169804,0.3907251 C 11.278803,7.3102705 10.857673,7.179666 10.446643,7.292286 l 0.261091,0.2702208 c 0.02888,0.036197 -0.608956,0.028336 -1.0297615,0.034696 0.153587,0.2203801 0.310252,0.4339906 0.4016795,0.8124909 -0.04171,0.043652 -0.2507115,0.019397 -0.4473245,0 0.201595,0.4384671 0.5518265,0.5481723 0.6335575,0.7358044 -0.123148,0.09633 -0.2934205,0.07098 -0.4801905,0.0055 0.145143,0.308926 0.4496365,0.521626 0.6901605,0.7723201 -0.0608,0.04459 -0.168391,0.07107 -0.419939,0.04018 0.222208,0.2440108 0.490642,0.4676508 0.808839,0.6682488 -0.05634,0.06727 -0.24932,0.06309 -0.429069,0.06756 0.288222,0.291436 0.658382,0.442909 1.006028,0.633558 -0.173302,0.122301 -0.296373,0.09478 -0.429067,0.09311 0.245884,0.208686 0.66354,0.315876 1.051671,0.441848 -0.07382,0.118521 -0.147104,0.151131 -0.304911,0.184409 0.410815,0.234864 0.998913,0.128289 1.164873,0.248311 -0.04007,0.118044 -0.153058,0.195119 -0.288481,0.259265 0.661371,0.03967 2.470512,-0.02459 2.817239,-1.438745 -0.677043,-0.768413 -1.912863,-1.6708859 -4.038706,-2.7861986 1.653836,0.5718445 3.145825,1.3337387 4.394745,2.3826936 1.468256,-0.70624 0.455223,-2.488014 -0.261092,-3.1951827 -0.03632,0.1867318 -0.07716,0.3047894 -0.124156,0.3396017 -0.233235,-0.2582822 -0.42278,-0.5219561 -0.723026,-0.7704955 -9.34e-4,0.1459731 0.07104,0.3041163 -0.107724,0.4199391 C 14.432126,7.2876839 14.213734,7.0874694 13.92483,6.9180077 14.063984,7.1659059 13.94852,7.2406821 13.87371,7.3434234 13.653045,7.1479345 13.444378,6.9508575 13.037478,6.7974946 Z m 8.033605,0 C 20.664179,6.9508434 20.453686,7.1479257 20.233029,7.3434058 20.158209,7.2406614 20.042752,7.1658883 20.181906,6.9179901 19.893,7.0874589 19.676434,7.2876663 19.51548,7.51138 19.33673,7.3955624 19.408729,7.2374157 19.407756,7.0914426 19.10751,7.3399821 18.916141,7.6036559 18.682906,7.8619382 18.635917,7.8271189 18.595073,7.7090753 18.55875,7.5223363 17.842433,8.2295051 16.831228,10.011279 18.299484,10.71752 19.548403,9.6685621 21.040393,8.90667 22.694231,8.3348256 20.568386,9.4501381 19.332566,10.35261 18.655518,11.121026 c 0.346728,1.414145 2.155868,1.478415 2.817239,1.438744 -0.135425,-0.06415 -0.248412,-0.14122 -0.28848,-0.259265 0.165954,-0.120022 0.75406,-0.01343 1.164875,-0.248312 -0.15781,-0.03327 -0.232919,-0.0659 -0.306738,-0.184409 0.388132,-0.125976 0.807612,-0.23316 1.053497,-0.441847 -0.132688,0.0016 -0.25759,0.02919 -0.430893,-0.09312 0.347647,-0.190648 0.719633,-0.342123 1.007852,-0.633558 -0.179747,-0.0044 -0.374548,-2.87e-4 -0.430894,-0.06756 0.318199,-0.200597 0.586631,-0.424238 0.808838,-0.6682498 -0.251543,0.03089 -0.357307,0.0044 -0.418111,-0.04018 0.240523,-0.2506961 0.54501,-0.4633941 0.690159,-0.7723231 -0.186768,0.0655 -0.357039,0.09086 -0.480191,-0.0055 0.08174,-0.1876333 0.431962,-0.2973367 0.63356,-0.7358038 -0.196615,0.019397 -0.405615,0.043652 -0.447326,0 0.09142,-0.3785039 0.248096,-0.5921108 0.401679,-0.8124909 -0.420804,-0.00636 -1.058643,0.0015 -1.029762,-0.034696 l 0.261093,-0.2701886 c -0.41103,-0.1126199 -0.832159,0.018002 -1.137485,0.1150226 -0.137087,-0.1100762 0.0025,-0.2486013 0.169805,-0.3907251 -0.349313,0.047451 -0.665931,0.1284309 -0.951253,0.2410086 -0.152439,-0.1400728 0.09931,-0.2798753 0.220924,-0.4199392 -0.539671,0.1041932 -0.767849,0.2514455 -0.995071,0.3980299 -0.164858,-0.1608125 -0.009,-0.2982053 0.102246,-0.4381968 z m -4.049668,5.8261871 c -1.173324,-0.03106 -2.299665,0.884825 -2.302358,1.416838 -0.0034,0.646436 0.927235,1.308744 2.309662,1.325544 1.411741,0.01028 2.312412,-0.528801 2.316964,-1.195912 0.0051,-0.755823 -1.283118,-1.558145 -2.324268,-1.54647 z m -3.542089,0.449154 c -1.629169,0.03086 -2.874853,1.178392 -2.817239,3.076504 0.06466,0.831632 4.258985,-2.896091 3.534787,-3.019905 -0.245736,-0.04222 -0.484811,-0.061 -0.717548,-0.0566 z m 6.868731,0.0639 c -0.232737,-0.0044 -0.473636,0.01431 -0.719372,0.0566 -0.724199,0.12382 3.47194,3.851535 3.536612,3.019904 0.05761,-1.898114 -1.188072,-3.045647 -2.81724,-3.076506 z m -0.691985,2.31514 a 2.7282477,2.2955212 58.681418 0 0 -1.199564,0.328647 2.7282477,2.2955212 58.681418 1 0 2.970609,4.575504 2.7282477,2.2955212 58.681418 0 0 -1.771045,-4.904151 z m -5.247404,0.127813 a 2.2955212,2.7282477 31.318582 0 0 -1.771045,4.904151 2.2955212,2.7282477 31.318582 1 0 2.970608,-4.575504 2.2955212,2.7282477 31.318582 0 0 -1.199563,-0.328647 z m 9.090754,1.415009 c -1.139273,-0.310638 -0.384593,4.795495 0.542268,4.37649 1.019525,-0.834547 1.347952,-3.278083 -0.542268,-4.37649 z m -13.164157,0.0639 c -1.8902198,1.098406 -1.5617936,3.541941 -0.5422695,4.37649 0.9268615,0.419005 1.6815415,-4.687125 0.5422695,-4.37649 z m 6.82126,3.288302 a 2.5464108,2.3894632 0 0 0 -2.621876,2.38817 2.547018,2.390033 0 0 0 5.094036,0 2.5464108,2.3894632 0 0 0 -2.47216,-2.38817 z m 5.554144,0.887346 c -0.596706,0.0159 -1.308368,0.59047 -1.984666,1.367539 -0.788008,0.939261 -1.226689,2.652465 -0.651818,3.204313 0.549651,0.428648 2.024937,0.368593 3.114847,-1.170351 0.791424,-1.033594 0.526924,-2.758858 0.07486,-3.217091 -0.167879,-0.132141 -0.35432,-0.189684 -0.55322,-0.18441 z m -11.431455,0.366984 c -0.213701,-0.0094 -0.414031,0.03531 -0.58974,0.144242 -0.469976,0.363986 -0.556177,1.60337 0.113203,2.820891 0.992531,1.45094 2.390108,1.596393 2.965129,1.243383 0.607805,-0.462424 0.275519,-2.032055 -0.452803,-2.924963 -0.626866,-0.740181 -1.394685,-1.255585 -2.035788,-1.28355 z m 5.813408,4.277894 c -1.016593,-0.02588 -2.575077,0.414607 -2.556147,0.978638 -0.01625,0.384693 1.223764,1.494265 2.488591,1.438747 1.221321,0.02142 2.483659,-1.087044 2.466682,-1.577508 -0.0026,-0.505071 -1.376138,-0.885308 -2.399126,-0.839877 z"
       id="path6" />
    <path
       id="path8"
       style="fill:url(#linearGradient3713);fill-opacity:1;stroke-width:0.0315608"
       d="m 13.037222,6.3300798 c 0.111208,0.1399916 0.26666,0.2768867 0.101802,0.4376994 C 12.9118,6.6211948 12.683407,6.4745807 12.143736,6.3703875 c 0.121612,0.1400641 0.373098,0.2800744 0.220659,0.4201292 -0.285323,-0.112581 -0.601017,-0.1943946 -0.95033,-0.2418456 0.167199,0.1421236 0.306587,0.2816313 0.169499,0.3917075 -0.305324,-0.09704 -0.725853,-0.2278584 -1.136882,-0.1152385 l 0.260449,0.2707844 c 0.02888,0.036197 -0.609106,0.027747 -1.0299115,0.034107 0.153584,0.2203781 0.310623,0.4333346 0.4020435,0.8118366 -0.04171,0.043653 -0.2503865,0.019397 -0.4470015,0 0.201595,0.4384691 0.5518335,0.5492732 0.6335535,0.7369059 -0.123153,0.096403 -0.2943395,0.07119 -0.4811085,0.00568 0.14515,0.3089267 0.4498725,0.5208421 0.6903975,0.771529 -0.06081,0.0446 -0.167038,0.071198 -0.418579,0.040308 0.222206,0.2440112 0.490538,0.4670615 0.808736,0.667659 -0.05634,0.06737 -0.250201,0.06433 -0.429948,0.06873 0.288219,0.291437 0.659527,0.442903 1.007174,0.633553 -0.173302,0.122301 -0.297259,0.09359 -0.429948,0.09199 0.245885,0.208686 0.664001,0.316892 1.052132,0.442867 -0.07382,0.118514 -0.147597,0.151214 -0.305407,0.184484 0.410815,0.234789 0.998833,0.127509 1.164786,0.24753 -0.04007,0.11805 -0.152927,0.194749 -0.288354,0.258899 0.66137,0.03967 2.470153,-0.02504 2.816882,-1.439188 -0.677049,-0.7684163 -1.912668,-1.6705643 -4.038513,-2.7858767 1.653837,0.5718445 3.146156,1.334362 4.39508,2.3833167 1.468253,-0.7062378 0.455867,-2.487468 -0.260449,-3.1946366 -0.03632,0.1867265 -0.07757,0.304695 -0.12454,0.3395141 -0.233234,-0.2582822 -0.423742,-0.5229897 -0.723987,-0.7715292 -0.001,0.145973 0.07127,0.3043119 -0.107487,0.4201295 C 14.43173,6.8200191 14.214443,6.620473 13.92554,6.451004 14.064694,6.6989024 13.9492,6.7740734 13.87438,6.8768178 13.653725,6.6813378 13.444123,6.4834387 13.037222,6.3300812 Z m 8.033101,0 C 20.663422,6.4834373 20.453821,6.6813364 20.233165,6.8768164 20.158355,6.7740713 20.043369,6.698901 20.182522,6.4510026 19.893618,6.6204717 19.675814,6.8200178 19.514862,7.0437314 19.33611,6.9279138 19.408365,6.7695749 19.407375,6.6236019 c -0.300246,0.2485396 -0.490752,0.513247 -0.723986,0.7715293 -0.04699,-0.034819 -0.08822,-0.1527876 -0.12454,-0.3395142 -0.716318,0.7071686 -1.728186,2.4883989 -0.259933,3.194637 1.24892,-1.0489551 2.741243,-1.8114726 4.395081,-2.383317 -2.125846,1.1153123 -3.361981,2.0174603 -4.03903,2.785876 0.346729,1.414146 2.155511,1.478861 2.816882,1.439189 -0.135427,-0.06415 -0.248289,-0.14085 -0.288355,-0.258899 0.165953,-0.120022 0.75449,-0.01274 1.165304,-0.24753 -0.157809,-0.03327 -0.231589,-0.06597 -0.305408,-0.184485 0.388132,-0.125975 0.806248,-0.234181 1.052132,-0.442867 -0.132688,0.0016 -0.256645,0.03032 -0.429948,-0.09198 0.347647,-0.19065 0.718438,-0.342116 1.006657,-0.633553 -0.179747,-0.0044 -0.373604,-0.0014 -0.429948,-0.06873 0.318198,-0.2005979 0.587047,-0.4236483 0.809253,-0.6676595 -0.251543,0.03089 -0.357773,0.00429 -0.418579,-0.040308 0.240525,-0.2506948 0.544732,-0.4626022 0.689881,-0.7715289 -0.186768,0.065505 -0.357439,0.090718 -0.480591,-0.00568 0.08174,-0.1876327 0.431957,-0.298437 0.633553,-0.7369058 -0.196616,0.019397 -0.40529,0.043653 -0.447001,0 0.09142,-0.3785021 0.247943,-0.5914586 0.401526,-0.8118367 -0.420805,-0.00636 -1.058278,0.00209 -1.029395,-0.034107 L 23.660863,6.8251477 C 23.249832,6.7125278 22.829306,6.8433457 22.523981,6.9403862 22.386894,6.83031 22.526781,6.6908024 22.693997,6.5486788 22.344684,6.5961298 22.028989,6.6779433 21.743667,6.7905243 21.591228,6.6504693 21.842717,6.5104592 21.964325,6.3703951 21.424654,6.4745883 21.195744,6.6212024 20.96852,6.7677868 20.803662,6.6069741 20.95912,6.470079 21.070323,6.3300874 Z" />
    <path
       id="path12"
       style="fill:url(#linearGradient2556);fill-opacity:1;stroke-width:0.0356505"
       d="m 16.966181,12.155047 c -1.153281,-0.0017 -2.244241,0.895335 -2.246891,1.419035 -0.0034,0.646436 0.927509,1.308183 2.309936,1.324984 1.411741,0.01028 2.312619,-0.529716 2.317171,-1.196827 0.0051,-0.75582 -1.283771,-1.558353 -2.324922,-1.546675 -0.01833,-4.77e-4 -0.03699,-4.77e-4 -0.05529,-5.29e-4 z m -3.400309,0.450102 c -1.671925,-0.0093 -2.962859,1.144808 -2.904216,3.076814 0.06466,0.831634 4.2599,-2.896159 3.535701,-3.01997 -0.215018,-0.03695 -0.426161,-0.0557 -0.631485,-0.05684 z m 6.694681,0.06356 c -0.205324,0.0011 -0.416467,0.0199 -0.631486,0.05684 -0.724198,0.123812 3.471042,3.851603 3.535702,3.019971 0.05864,-1.932008 -1.232292,-3.086109 -2.904216,-3.076815 z m -0.679028,2.314587 a 2.7282476,2.295521 58.681485 0 0 -1.124996,0.330729 2.7282476,2.295521 58.681485 1 0 2.970878,4.575432 2.7282476,2.295521 58.681485 0 0 -1.845882,-4.906161 z m -5.098397,0.127124 a 2.2955209,2.7282476 31.318515 0 0 -1.845882,4.906677 2.2955209,2.7282476 31.318515 1 0 2.970878,-4.575431 2.2955209,2.7282476 31.318515 0 0 -1.124996,-0.331246 z m 8.915218,1.404049 c -0.990625,0.01671 -0.254525,4.796338 0.643372,4.39043 1.019525,-0.834549 1.348132,-3.278588 -0.542086,-4.376994 -0.0356,-0.0097 -0.06933,-0.01398 -0.101286,-0.01344 z m -12.961999,0.06356 c -0.03196,-5.29e-4 -0.06568,0.0037 -0.101286,0.01344 -1.8902174,1.098406 -1.5616121,3.542445 -0.5420865,4.376994 0.8978985,0.405911 1.6339975,-4.373718 0.6433725,-4.390429 z m 6.645589,3.298506 a 2.5464104,2.3894634 0 0 0 -2.546615,2.391069 2.5466146,2.389655 0 1 0 5.093229,0 2.5464104,2.3894634 0 0 0 -2.546614,-2.391069 z m 5.62808,0.890902 c -0.596704,0.01583 -1.308079,0.590804 -1.984375,1.367875 -0.788008,0.939262 -1.226511,2.652605 -0.65164,3.204456 0.549649,0.428648 2.025146,0.368471 3.115056,-1.170471 0.791424,-1.033597 0.52596,-2.759659 0.0739,-3.217892 -0.167884,-0.132142 -0.354036,-0.189244 -0.552938,-0.183968 z m -11.510408,0.365869 c -0.18378,0.0038 -0.355786,0.04991 -0.50953,0.145211 -0.469973,0.363986 -0.556205,1.60298 0.113172,2.8205 0.992531,1.45094 2.388624,1.596342 2.963643,1.243335 0.607807,-0.462427 0.276152,-2.030944 -0.452169,-2.923853 -0.652985,-0.771018 -1.458761,-1.298906 -2.115116,-1.285193 z m 6.089034,4.274675 c -0.06625,-4.24e-4 -0.131917,7.67e-4 -0.195854,0.0036 -1.016593,-0.02588 -2.575353,0.414203 -2.556433,0.978234 -0.01625,0.384696 1.223909,1.494718 2.488737,1.43919 1.22132,0.02143 2.482959,-1.086702 2.465999,-1.577165 -0.0025,-0.473505 -1.20872,-0.837638 -2.202449,-0.843877 z" />
  </g>
</svg>
