<?xml version="1.0" encoding="UTF-8" standalone="no"?>
<svg
   xmlns:dc="http://purl.org/dc/elements/1.1/"
   xmlns:cc="http://creativecommons.org/ns#"
   xmlns:rdf="http://www.w3.org/1999/02/22-rdf-syntax-ns#"
   xmlns:svg="http://www.w3.org/2000/svg"
   xmlns="http://www.w3.org/2000/svg"
   xmlns:xlink="http://www.w3.org/1999/xlink"
   xmlns:sodipodi="http://sodipodi.sourceforge.net/DTD/sodipodi-0.dtd"
   xmlns:inkscape="http://www.inkscape.org/namespaces/inkscape"
   version="1.1"
   id="svg2"
   width="136.53333"
   height="136.53333"
   viewBox="0 0 136.53333 136.53333"
   sodipodi:docname="easytag.svg"
   inkscape:version="1.0.2 (e86c870879, 2021-01-15)">
  <metadata
     id="metadata8">
    <rdf:RDF>
      <cc:Work
         rdf:about="">
        <dc:format>image/svg+xml</dc:format>
        <dc:type
           rdf:resource="http://purl.org/dc/dcmitype/StillImage" />
        <dc:title></dc:title>
      </cc:Work>
    </rdf:RDF>
  </metadata>
  <defs
     id="defs6">
    <linearGradient
       inkscape:collect="always"
       id="linearGradient4313">
      <stop
         style="stop-color:#2d2f33;stop-opacity:1"
         offset="0"
         id="stop4315" />
      <stop
         style="stop-color:#676969;stop-opacity:1"
         offset="1"
         id="stop4317" />
    </linearGradient>
    <linearGradient
       inkscape:collect="always"
       id="linearGradient4180">
      <stop
         style="stop-color:#f5f5f5;stop-opacity:1;"
         offset="0"
         id="stop4182" />
      <stop
         style="stop-color:#ebeae6;stop-opacity:1"
         offset="1"
         id="stop4184" />
    </linearGradient>
    <linearGradient
       inkscape:collect="always"
       xlink:href="#linearGradient4180"
       id="linearGradient4186"
       x1="30.858253"
       y1="16.587393"
       x2="116.88322"
       y2="116.384"
       gradientUnits="userSpaceOnUse"
       gradientTransform="matrix(0.96111005,0,0,0.96111005,2.2110748,2.0329508)" />
    <linearGradient
       inkscape:collect="always"
       xlink:href="#linearGradient4313"
       id="linearGradient4319"
       x1="66.280823"
       y1="128.61551"
       x2="64.943542"
       y2="16.578243"
       gradientUnits="userSpaceOnUse"
       gradientTransform="matrix(0.96111005,0,0,0.96111005,2.2110748,2.0329508)" />
    <filter
       filterUnits="objectBoundingBox"
       y="0%"
       x="0%"
       height="100%"
       width="100%"
       id="alpha">
      <feColorMatrix
         id="feColorMatrix823"
         values="0 0 0 0 1 0 0 0 0 1 0 0 0 0 1 0 0 0 1 0"
         type="matrix"
         in="SourceGraphic" />
    </filter>
    <mask
       id="mask0">
      <g
         id="g828"
         filter="url(#alpha)">
        <rect
           id="rect826"
           style="fill:rgb(0%,0%,0%);fill-opacity:0.2"
           y="0"
           x="0"
           height="384"
           width="384" />
      </g>
    </mask>
    <clipPath
       id="clip1">
      <rect
         id="rect831"
         y="0"
         x="0"
         height="384"
         width="384" />
    </clipPath>
    <g
       clip-path="url(#clip1)"
       id="surface5">
      <path
         id="path834"
         d="M 128 64 C 114.367188 64.023438 101.386719 69.839844 92.296875 80 L 80 80 C 53.492188 80.003906 32.003906 101.492188 32 128 L 32 232 C 32.003906 258.507812 53.492188 279.996094 80 280 L 86.484375 280 C 95.050781 294.832031 110.871094 303.980469 128 304 L 130.8125 304 C 137.585938 323.152344 155.683594 335.96875 176 336 L 208 336 C 228.320312 335.976562 246.429688 323.160156 253.203125 304 L 256 304 C 273.125 303.972656 288.9375 294.828125 297.5 280 L 304 280 C 330.507812 279.996094 351.996094 258.507812 352 232 L 352 128 C 351.996094 101.492188 330.507812 80.003906 304 80 L 291.703125 80 C 282.613281 69.839844 269.632812 64.023438 256 64 L 224 64 C 212.183594 64.019531 200.789062 68.398438 192 76.296875 C 183.210938 68.398438 171.816406 64.019531 160 64 Z M 128 64"
         style="fill:rgb(0%,0%,0%)" />
    </g>
    <mask
       id="mask1">
      <g
         id="g839"
         filter="url(#alpha)">
        <rect
           id="rect837"
           style="fill:rgb(0%,0%,0%);fill-opacity:0.2"
           y="0"
           x="0"
           height="384"
           width="384" />
      </g>
    </mask>
    <clipPath
       id="clip2">
      <rect
         id="rect842"
         y="0"
         x="0"
         height="384"
         width="384" />
    </clipPath>
    <g
       clip-path="url(#clip2)"
       id="surface8">
      <path
         id="path845"
         d="M 80 128 C 80 136 80 144 80 152 C 90.667969 152 101.332031 152 112 152 C 112 144 112 136 112 128 C 101.332031 128 90.667969 128 80 128 Z M 80 128"
         style="fill:rgb(0%,0%,0%)" />
      <path
         id="path847-8"
         d="M 80 168 C 80 176 80 184 80 192 C 90.667969 192 101.332031 192 112 192 C 112 184 112 176 112 168 C 101.332031 168 90.667969 168 80 168 Z M 80 168"
         style="fill:rgb(0%,0%,0%)" />
      <path
         id="path849-7"
         d="M 80 208 C 80 216 80 224 80 232 C 90.667969 232 101.332031 232 112 232 C 112 224 112 216 112 208 C 101.332031 208 90.667969 208 80 208 Z M 80 208"
         style="fill:rgb(0%,0%,0%)" />
      <path
         id="path851"
         d="M 128 112 C 128 120 128 128 128 136 C 138.667969 136 149.332031 136 160 136 C 160 128 160 120 160 112 C 149.332031 112 138.667969 112 128 112 Z M 128 112"
         style="fill:rgb(0%,0%,0%)" />
      <path
         id="path853"
         d="M 128 152 C 128 160 128 168 128 176 C 138.667969 176 149.332031 176 160 176 C 160 168 160 160 160 152 C 149.332031 152 138.667969 152 128 152 Z M 128 152"
         style="fill:rgb(0%,0%,0%)" />
      <path
         id="path855"
         d="M 128 192 C 128 200 128 208 128 216 C 138.667969 216 149.332031 216 160 216 C 160 208 160 200 160 192 C 149.332031 192 138.667969 192 128 192 Z M 128 192"
         style="fill:rgb(0%,0%,0%)" />
      <path
         id="path857"
         d="M 128 232 C 128 240 128 248 128 256 C 138.667969 256 149.332031 256 160 256 C 160 248 160 240 160 232 C 149.332031 232 138.667969 232 128 232 Z M 128 232"
         style="fill:rgb(0%,0%,0%)" />
      <path
         id="path859"
         d="M 176 144 C 176 152 176 160 176 168 C 186.667969 168 197.332031 168 208 168 C 208 160 208 152 208 144 C 197.332031 144 186.667969 144 176 144 Z M 176 144"
         style="fill:rgb(0%,0%,0%)" />
      <path
         id="path861"
         d="M 176 184 C 176 192 176 200 176 208 C 186.667969 208 197.332031 208 208 208 C 208 200 208 192 208 184 C 197.332031 184 186.667969 184 176 184 Z M 176 184"
         style="fill:rgb(0%,0%,0%)" />
      <path
         id="path863"
         d="M 176 224 C 176 232 176 240 176 248 C 186.667969 248 197.332031 248 208 248 C 208 240 208 232 208 224 C 197.332031 224 186.667969 224 176 224 Z M 176 224"
         style="fill:rgb(0%,0%,0%)" />
      <path
         id="path865"
         d="M 176 264 C 176 272 176 280 176 288 C 186.667969 288 197.332031 288 208 288 C 208 280 208 272 208 264 C 197.332031 264 186.667969 264 176 264 Z M 176 264"
         style="fill:rgb(0%,0%,0%)" />
      <path
         id="path867"
         d="M 304 128 C 304 136 304 144 304 152 C 293.332031 152 282.667969 152 272 152 C 272 144 272 136 272 128 C 282.667969 128 293.332031 128 304 128 Z M 304 128"
         style="fill:rgb(0%,0%,0%)" />
      <path
         id="path869"
         d="M 304 168 C 304 176 304 184 304 192 C 293.332031 192 282.667969 192 272 192 C 272 184 272 176 272 168 C 282.667969 168 293.332031 168 304 168 Z M 304 168"
         style="fill:rgb(0%,0%,0%)" />
      <path
         id="path871"
         d="M 304 208 C 304 216 304 224 304 232 C 293.332031 232 282.667969 232 272 232 C 272 224 272 216 272 208 C 282.667969 208 293.332031 208 304 208 Z M 304 208"
         style="fill:rgb(0%,0%,0%)" />
      <path
         id="path873"
         d="M 256 112 C 256 120 256 128 256 136 C 245.332031 136 234.667969 136 224 136 C 224 128 224 120 224 112 C 234.667969 112 245.332031 112 256 112 Z M 256 112"
         style="fill:rgb(0%,0%,0%)" />
      <path
         id="path875"
         d="M 256 152 C 256 160 256 168 256 176 C 245.332031 176 234.667969 176 224 176 C 224 168 224 160 224 152 C 234.667969 152 245.332031 152 256 152 Z M 256 152"
         style="fill:rgb(0%,0%,0%)" />
      <path
         id="path877"
         d="M 256 192 C 256 200 256 208 256 216 C 245.332031 216 234.667969 216 224 216 C 224 208 224 200 224 192 C 234.667969 192 245.332031 192 256 192 Z M 256 192"
         style="fill:rgb(0%,0%,0%)" />
      <path
         id="path879"
         d="M 256 232 C 256 240 256 248 256 256 C 245.332031 256 234.667969 256 224 256 C 224 248 224 240 224 232 C 234.667969 232 245.332031 232 256 232 Z M 256 232"
         style="fill:rgb(0%,0%,0%)" />
    </g>
    <mask
       id="mask2">
      <g
         id="g884"
         filter="url(#alpha)">
        <rect
           id="rect882"
           style="fill:rgb(0%,0%,0%);fill-opacity:0.290196"
           y="0"
           x="0"
           height="384"
           width="384" />
      </g>
    </mask>
    <clipPath
       id="clip3">
      <rect
         id="rect887"
         y="0"
         x="0"
         height="384"
         width="384" />
    </clipPath>
    <g
       clip-path="url(#clip3)"
       id="surface11">
      <path
         id="path890"
         d="M 128 56 C 114.367188 56.023438 101.386719 61.839844 92.296875 72 L 80 72 C 53.492188 72.003906 32.003906 93.492188 32 120 L 32 128 C 32.003906 101.492188 53.492188 80.003906 80 80 L 92.296875 80 C 101.386719 69.839844 114.367188 64.023438 128 64 L 160 64 C 171.816406 64.019531 183.210938 68.398438 192 76.296875 C 200.789062 68.398438 212.183594 64.019531 224 64 L 256 64 C 269.632812 64.023438 282.613281 69.839844 291.703125 80 L 304 80 C 330.507812 80.003906 351.996094 101.492188 352 128 L 352 120 C 351.996094 93.492188 330.507812 72.003906 304 72 L 291.703125 72 C 282.613281 61.839844 269.632812 56.023438 256 56 L 224 56 C 212.183594 56.019531 200.789062 60.398438 192 68.296875 C 183.210938 60.398438 171.816406 56.019531 160 56 Z M 128 56"
         style="fill:rgb(100.000%,100.000%,100.000%)" />
    </g>
    <filter
       filterUnits="objectBoundingBox"
       y="0%"
       x="0%"
       height="100%"
       width="100%"
       id="alpha-0">
      <feColorMatrix
         id="feColorMatrix864"
         values="0 0 0 0 1 0 0 0 0 1 0 0 0 0 1 0 0 0 1 0"
         type="matrix"
         in="SourceGraphic" />
    </filter>
    <mask
       id="mask0-0">
      <g
         style="filter:url(#alpha-0)"
         id="g869"
         filter="url(#alpha)">
        <rect
           id="rect867"
           style="fill:rgb(0%,0%,0%);fill-opacity:0.301961"
           y="0"
           x="0"
           height="384"
           width="384" />
      </g>
    </mask>
    <clipPath
       id="clip1-5">
      <rect
         id="rect872"
         y="0"
         x="0"
         height="384"
         width="384" />
    </clipPath>
    <g
       clip-path="url(#clip1-5)"
       id="surface5-3">
      <path
         id="path875-4"
         d="M 168.203125 339.898438 C 138.5625 336.339844 110.464844 323.269531 78.152344 298.019531 C 68.023438 290.105469 56.875 280.476562 55.933594 278.832031 C 54.523438 276.375 54.855469 273.503906 56.765625 271.59375 C 59.730469 268.625 62.039062 269.203125 74.238281 275.964844 C 112.203125 297.007812 136.375 306.730469 162.863281 311.605469 C 172.945312 313.460938 204.023438 313.476562 215.898438 311.632812 C 240.496094 307.8125 258.472656 302.875 283.027344 293.203125 C 297.113281 287.652344 298.8125 287.46875 302.335938 291.148438 C 304.636719 293.550781 304.988281 297.324219 303.167969 300.101562 C 301.621094 302.460938 292.773438 308.617188 282.78125 314.289062 C 247.457031 334.335938 203.566406 344.144531 168.203125 339.898438 Z M 309.863281 315.40625 C 309.082031 314.625 308.441406 313.199219 308.441406 312.242188 C 308.441406 311.285156 310.171875 305.277344 312.289062 298.894531 C 316.761719 285.398438 317.648438 280.578125 315.960938 278.890625 C 314.144531 277.074219 308.707031 276.664062 299.542969 277.652344 C 283.625 279.367188 281.480469 279.402344 279.933594 278.003906 C 277.792969 276.066406 278.070312 271.980469 280.5 269.703125 C 283.097656 267.269531 289.441406 263.777344 294.308594 262.101562 C 304.0625 258.746094 324.144531 258.257812 330.824219 261.214844 C 335.714844 263.378906 336.578125 265.296875 336.453125 273.738281 C 336.25 287.535156 330.304688 302.582031 321.390625 311.855469 C 317.144531 316.273438 316.3125 316.832031 313.949219 316.832031 C 312.238281 316.832031 310.78125 316.324219 309.863281 315.40625 Z M 145.394531 262.058594 C 133.753906 259.601562 122.777344 253.003906 116.554688 244.730469 C 112.25 239.003906 110.277344 235.027344 107.929688 227.355469 C 106.164062 221.574219 106.015625 220.109375 106.003906 208.628906 C 105.992188 194.035156 107.039062 189.015625 112.351562 178.292969 C 121.636719 159.539062 141.347656 147.578125 172.105469 142.042969 C 179.699219 140.675781 201.4375 138.171875 205.800781 138.160156 C 211.523438 138.144531 211.628906 137.953125 211.628906 127.257812 C 211.628906 112.722656 208.964844 105.179688 202.21875 100.582031 C 197.234375 97.191406 192.847656 95.878906 186.429688 95.863281 C 177.1875 95.839844 169.660156 98.976562 163.726562 105.316406 C 160.128906 109.167969 158.566406 111.875 157.105469 116.789062 C 156.554688 118.644531 155.441406 121.003906 154.628906 122.039062 C 153.367188 123.640625 152.605469 123.914062 149.410156 123.914062 C 147.355469 123.914062 142.28125 123.441406 138.140625 122.859375 C 134 122.277344 127.5 121.453125 123.699219 121.03125 C 115.453125 120.109375 113.839844 119.566406 112.28125 117.191406 C 111.175781 115.503906 111.179688 115.046875 112.355469 110.21875 C 115.414062 97.648438 119.929688 89.609375 129.050781 80.492188 C 139.480469 70.066406 150.589844 64.539062 168.367188 60.941406 C 175.824219 59.429688 179.25 59.136719 189.347656 59.136719 C 215.1875 59.136719 234.644531 65.707031 247.269531 78.699219 C 254.589844 86.230469 258.320312 94.433594 260.113281 106.953125 C 260.660156 110.769531 261.113281 129.476562 261.390625 159.507812 L 261.816406 206.136719 L 264.125 211.472656 C 265.390625 214.410156 268.234375 219.210938 270.441406 222.144531 C 275.761719 229.210938 276.867188 231.585938 275.992188 234.074219 C 275.34375 235.921875 262.523438 247.6875 250.914062 257.089844 C 246.195312 260.914062 245.398438 261.304688 242.328125 261.304688 C 239.074219 261.304688 238.734375 261.097656 233.464844 255.929688 C 230.449219 252.972656 225.878906 247.6875 223.308594 244.183594 C 220.734375 240.679688 218.242188 237.8125 217.769531 237.8125 C 217.292969 237.8125 215.476562 239.292969 213.734375 241.105469 C 206.328125 248.78125 196.613281 255.484375 187.953125 258.890625 C 177.398438 263.042969 157.195312 264.546875 145.394531 262.058594 Z M 184.847656 228.195312 C 194.207031 225.757812 200.683594 219.890625 205.90625 209.121094 C 210.675781 199.285156 211.722656 193.347656 211.46875 177.617188 L 211.269531 165.558594 L 202.730469 165.707031 C 190.527344 165.921875 183.679688 167.304688 175.738281 171.167969 C 161.984375 177.859375 156.082031 188.484375 157.027344 204.847656 C 157.523438 213.410156 159.796875 218.695312 165.050781 223.496094 C 170.800781 228.753906 177.027344 230.230469 184.847656 228.195312 Z M 184.847656 228.195312"
         style="fill:rgb(0%,0%,0%)" />
    </g>
    <mask
       id="mask1-7">
      <g
         style="filter:url(#alpha-0)"
         id="g880"
         filter="url(#alpha)">
        <rect
           id="rect878"
           style="fill:rgb(0%,0%,0%);fill-opacity:0.14902"
           y="0"
           x="0"
           height="384"
           width="384" />
      </g>
    </mask>
    <clipPath
       id="clip2-3">
      <rect
         id="rect883"
         y="0"
         x="0"
         height="384"
         width="384" />
    </clipPath>
    <g
       clip-path="url(#clip2-3)"
       id="surface8-2">
      <path
         id="path886"
         d="M 189.347656 51.636719 C 185.855469 51.636719 183.191406 51.675781 180.855469 51.785156 C 203.476562 52.8125 220.726562 59.320312 232.269531 71.199219 C 239.589844 78.730469 243.320312 86.933594 245.113281 99.453125 C 245.660156 103.269531 246.113281 121.976562 246.390625 152.007812 L 246.820312 198.636719 L 249.125 203.976562 C 250.394531 206.910156 253.234375 211.714844 255.441406 214.644531 C 260.761719 221.710938 261.867188 224.085938 260.996094 226.574219 C 260.34375 228.421875 247.527344 240.1875 235.917969 249.589844 C 235.660156 249.796875 235.457031 249.957031 235.222656 250.144531 C 238.863281 253.648438 239.480469 253.804688 242.328125 253.804688 C 245.398438 253.804688 246.195312 253.414062 250.917969 249.589844 C 262.527344 240.1875 275.34375 228.421875 275.996094 226.574219 C 276.867188 224.085938 275.761719 221.710938 270.441406 214.644531 C 268.234375 211.714844 265.394531 206.910156 264.125 203.976562 L 261.820312 198.636719 L 261.390625 152.007812 C 261.113281 121.976562 260.660156 103.269531 260.113281 99.453125 C 258.320312 86.933594 254.589844 78.730469 247.269531 71.199219 C 234.640625 58.203125 215.1875 51.636719 189.347656 51.636719 Z M 189.347656 51.636719"
         style="fill:rgb(0%,0%,0%)" />
    </g>
    <radialGradient
       inkscape:collect="always"
       xlink:href="#linearGradient929"
       id="radialGradient935-3"
       gradientUnits="userSpaceOnUse"
       gradientTransform="matrix(1.3408242,0,0,1.3408242,-187.37684,-130.79009)"
       cx="190.85039"
       cy="148.92816"
       fx="190.85039"
       fy="148.92816"
       r="53.835484" />
    <linearGradient
       inkscape:collect="always"
       id="linearGradient929">
      <stop
         style="stop-color:#000000;stop-opacity:1;"
         offset="0"
         id="stop925" />
      <stop
         style="stop-color:#000000;stop-opacity:0.74117647;"
         offset="0.27787876"
         id="stop961" />
      <stop
         style="stop-color:#000000;stop-opacity:0.2627451;"
         offset="0.58380306"
         id="stop963" />
      <stop
         style="stop-color:#000000;stop-opacity:0.21568627;"
         offset="0.62281501"
         id="stop967" />
      <stop
         style="stop-color:#000000;stop-opacity:0.17254902;"
         offset="0.66894341"
         id="stop971" />
      <stop
         style="stop-color:#000000;stop-opacity:0.13333333;"
         offset="0.70968169"
         id="stop975" />
      <stop
         style="stop-color:#000000;stop-opacity:0.09019608;"
         offset="0.76298833"
         id="stop979" />
      <stop
         style="stop-color:#000000;stop-opacity:0.06666667;"
         offset="0.79677397"
         id="stop977" />
      <stop
         style="stop-color:#000000;stop-opacity:0.03137255;"
         offset="0.86606854"
         id="stop981" />
      <stop
         style="stop-color:#000000;stop-opacity:0.02745098;"
         offset="0.88822615"
         id="stop947" />
      <stop
         style="stop-color:#000000;stop-opacity:0.02352941;"
         offset="0.90482414"
         id="stop983" />
      <stop
         style="stop-color:#000000;stop-opacity:0.01960784;"
         offset="0.91823369"
         id="stop987" />
      <stop
         style="stop-color:#000000;stop-opacity:0.01176471;"
         offset="0.94519842"
         id="stop991" />
      <stop
         style="stop-color:#000000;stop-opacity:0;"
         offset="1"
         id="stop927-6" />
    </linearGradient>
    <radialGradient
       inkscape:collect="always"
       xlink:href="#linearGradient929"
       id="radialGradient1005"
       gradientUnits="userSpaceOnUse"
       gradientTransform="matrix(1.4637532,0,0,1.4637532,-209.34175,-147.65995)"
       cx="190.85039"
       cy="148.92816"
       fx="190.85039"
       fy="148.92816"
       r="53.835484" />
    <radialGradient
       inkscape:collect="always"
       xlink:href="#linearGradient929"
       id="radialGradient959"
       gradientUnits="userSpaceOnUse"
       gradientTransform="matrix(1.4268032,0,0,1.4268032,-203.76217,-143.63025)"
       cx="190.85039"
       cy="148.92816"
       fx="190.85039"
       fy="148.92816"
       r="53.835484" />
    <linearGradient
       inkscape:collect="always"
       xlink:href="#linearGradient898"
       id="linearGradient900"
       x1="477.15335"
       y1="446.22519"
       x2="397.99509"
       y2="309.11905"
       gradientUnits="userSpaceOnUse" />
    <linearGradient
       inkscape:collect="always"
       id="linearGradient898">
      <stop
         style="stop-color:#f0c512;stop-opacity:1;"
         offset="0"
         id="stop894" />
      <stop
         style="stop-color:#f0c512;stop-opacity:0;"
         offset="1"
         id="stop896" />
    </linearGradient>
    <linearGradient
       inkscape:collect="always"
       xlink:href="#linearGradient880"
       id="linearGradient882"
       x1="79.844887"
       y1="164.78447"
       x2="35.072319"
       y2="164.78447"
       gradientUnits="userSpaceOnUse" />
    <linearGradient
       inkscape:collect="always"
       id="linearGradient880">
      <stop
         style="stop-color:#4ae437;stop-opacity:1;"
         offset="0"
         id="stop876" />
      <stop
         style="stop-color:#4ae437;stop-opacity:0;"
         offset="1"
         id="stop878" />
    </linearGradient>
    <radialGradient
       inkscape:collect="always"
       xlink:href="#linearGradient880"
       id="radialGradient869"
       cx="-1.6846582"
       cy="260.99203"
       fx="-1.6846582"
       fy="260.99203"
       r="84.677834"
       gradientTransform="matrix(0.70234732,0.10824887,-0.26586806,1.7250224,143.99536,-317.77461)"
       gradientUnits="userSpaceOnUse" />
    <radialGradient
       inkscape:collect="always"
       xlink:href="#linearGradient929"
       id="radialGradient935"
       gradientUnits="userSpaceOnUse"
       gradientTransform="matrix(1.1050935,0,0,1.1050935,-134.03504,65.547819)"
       cx="190.85039"
       cy="148.92816"
       fx="190.85039"
       fy="148.92816"
       r="53.835484" />
    <linearGradient
       inkscape:collect="always"
       xlink:href="#linearGradient919"
       id="linearGradient921"
       x1="47.329903"
       y1="200.93797"
       x2="92.600548"
       y2="243.18102"
       gradientUnits="userSpaceOnUse" />
    <linearGradient
       inkscape:collect="always"
       id="linearGradient919">
      <stop
         style="stop-color:#f4f4f4;stop-opacity:1;"
         offset="0"
         id="stop915" />
      <stop
         style="stop-color:#efeeec;stop-opacity:1"
         offset="1"
         id="stop917" />
    </linearGradient>
  </defs>
  <sodipodi:namedview
     pagecolor="#ffffff"
     bordercolor="#666666"
     borderopacity="1"
     objecttolerance="10"
     gridtolerance="10"
     guidetolerance="10"
     inkscape:pageopacity="0"
     inkscape:pageshadow="2"
     inkscape:window-width="1920"
     inkscape:window-height="1028"
     id="namedview4"
     showgrid="false"
     inkscape:zoom="4"
     inkscape:cx="42.08511"
     inkscape:cy="77.405641"
     inkscape:window-x="0"
     inkscape:window-y="24"
     inkscape:window-maximized="1"
     inkscape:current-layer="svg2"
     showguides="false"
     inkscape:document-rotation="0" />
  <circle
     style="opacity:0.429235;fill:url(#radialGradient1005);fill-opacity:1;stroke:none;stroke-width:45.8791;stroke-linecap:round;stroke-linejoin:round;stroke-miterlimit:4;stroke-dasharray:none;stroke-opacity:1"
     id="circle1003"
     cx="70.016151"
     cy="70.334122"
     r="78.801865" />
  <circle
     style="opacity:0.429235;fill:url(#radialGradient935-3);fill-opacity:1;stroke:none;stroke-width:42.0261;stroke-linecap:round;stroke-linejoin:round;stroke-miterlimit:4;stroke-dasharray:none;stroke-opacity:1"
     id="circle938"
     cx="68.520004"
     cy="68.896385"
     r="72.183922" />
  <circle
     style="opacity:0.429235;fill:url(#radialGradient959);fill-opacity:1;stroke:none;stroke-width:44.721;stroke-linecap:round;stroke-linejoin:round;stroke-miterlimit:4;stroke-dasharray:none;stroke-opacity:1"
     id="circle923"
     cx="68.543808"
     cy="68.860909"
     r="76.812645" />
  <circle
     id="path12"
     cx="68.482712"
     cy="67.74012"
     r="61.531731"
     style="fill:url(#linearGradient4319);fill-opacity:1;stroke:url(#linearGradient4186);stroke-width:5.76666;stroke-miterlimit:4;stroke-dasharray:none;stroke-opacity:1" />
  <path
     style="fill:#000000;stroke-width:1.33333337"
     d=""
     id="path849"
     inkscape:connector-curvature="0" />
  <path
     style="fill:#000000;stroke-width:1.33333337"
     d=""
     id="path847"
     inkscape:connector-curvature="0" />
  <g
     id="g1009"
     transform="matrix(0.32274644,0,0,0.32274644,40.807119,21.591615)">
    <path
       id="path859-9"
       style="opacity:1;fill:#f0c512;fill-opacity:0.900185;stroke-width:3.77953;stroke-linecap:round;stroke-linejoin:round"
       d="m 673.00586,258.55664 c -3.507,0.0326 -7.01678,0.26193 -10.51563,0.67578 3.24506,14.77559 3.08884,30.54743 -1.11132,46.22266 L 555.89258,699.13672 c -5.03195,11.86152 -12.12662,22.0453 -20.90235,30.69531 a 64.803412,48.51725 15 0 1 -7.21875,6.9082 L 310.12305,902.91992 a 64.803412,48.51725 15 0 1 -42.08594,11.73633 48.51725,64.803412 60 0 0 62.55859,-58.83398 l 36.39453,-271.40625 a 48.51725,64.803412 60 0 0 0.21875,-9.99219 c 0.089,-12.32187 -2.09457,-24.53692 -6.92382,-36.48242 l -26.27539,-45.50977 -43.41016,33.05859 c -14.07337,11.40446 -22.58569,26.99234 -26.43555,45.40235 l -69.58203,258.40039 a 64.803413,48.517251 52.709934 0 0 67.99414,89.28711 l 273.83008,1.66015 a 64.803413,48.517251 52.709934 0 0 9.93945,-1.04882 c 12.23354,-1.47538 24.07248,-5.19401 35.3086,-11.5 L 905.9082,660.76562 c 42.9591,-32.71426 51.20447,-93.63469 18.49024,-136.59374 L 751.44531,297.05664 c -19.42409,-25.50696 -48.79187,-38.77574 -78.43945,-38.5 z"
       transform="scale(0.26458333)" />
    <path
       id="path892"
       style="opacity:1;fill:url(#linearGradient900);fill-opacity:1;stroke-width:3.77953;stroke-linecap:round;stroke-linejoin:round"
       d="m 292.33984,108.83203 c -43.46191,-0.48208 -83.20619,28.27739 -94.99804,72.28516 l -13.65235,50.95312 176.59571,305.8711 c 4.82925,11.9455 7.01283,24.16055 6.92382,36.48242 a 48.517251,64.803413 60 0 1 -0.21875,9.99219 L 330.5957,855.82227 a 48.517251,64.803413 60 0 1 -62.55859,58.83398 64.803413,48.517251 15 0 0 42.08594,-11.73633 L 527.77148,736.74023 a 64.803413,48.517251 15 0 0 7.21875,-6.9082 c 8.77573,-8.65001 15.8704,-18.83379 20.90235,-30.69531 L 661.37891,305.45508 C 675.35443,253.29772 644.61436,200.05756 592.45703,186.08203 L 316.71289,112.19727 c -8.14959,-2.18368 -16.32454,-3.27596 -24.37305,-3.36524 z"
       transform="scale(0.26458333)" />
    <path
       id="path857-3"
       style="opacity:1;fill:#4ae437;fill-opacity:0.735787;stroke-width:3.77953;stroke-linecap:round;stroke-linejoin:round"
       d="m 292.33984,108.83203 c -43.46191,-0.48208 -83.20619,28.27739 -94.99804,72.28516 l -13.65235,50.95312 176.59571,305.8711 c 4.82925,11.9455 7.01283,24.16055 6.92382,36.48242 a 48.517251,64.803413 60 0 1 -0.21875,9.99219 L 330.5957,855.82227 a 48.517251,64.803413 60 0 1 -62.55859,58.83398 64.803413,48.517251 15 0 0 42.08594,-11.73633 L 527.77148,736.74023 a 64.803413,48.517251 15 0 0 7.21875,-6.9082 c 8.77573,-8.65001 15.8704,-18.83379 20.90235,-30.69531 L 661.37891,305.45508 C 675.35443,253.29772 644.61436,200.05756 592.45703,186.08203 L 316.71289,112.19727 c -8.14959,-2.18368 -16.32454,-3.27596 -24.37305,-3.36524 z"
       transform="scale(0.26458333)" />
    <path
       id="path874"
       style="opacity:1;fill:url(#linearGradient882);fill-opacity:1;stroke-width:1;stroke-linecap:round;stroke-linejoin:round"
       d="m -59.231853,77.26824 c -12.37271,7.14339 -16.58249,22.85447 -9.4391,35.22719 l 53.917901,93.38853 c 2.520538,4.07637 6.325397,6.83405 11.027751,8.46252 l 65.479762,26.93687 a 12.836856,17.145903 60 0 0 25.71558,-14.8469 l 9.62957,-71.80974 a 12.836856,17.145903 60 0 0 0.058,-2.64351 c 0.02355,-3.26016 -0.55461,-6.4924 -1.83235,-9.65298 L 41.407362,48.94168 C 34.263973,36.56897 18.552444,32.35946 6.179729,39.50285 Z" />
    <path
       id="path861-6"
       style="opacity:1;fill:url(#radialGradient869);fill-opacity:1;stroke-width:1;stroke-linecap:round;stroke-linejoin:round"
       d="m -59.231853,77.26824 c -12.37271,7.14339 -16.58249,22.85447 -9.4391,35.22719 l 53.917901,93.38853 c 2.520538,4.07637 6.325397,6.83405 11.027751,8.46252 l 65.479762,26.93687 a 12.836856,17.145903 60 0 0 25.71558,-14.8469 l 9.62957,-71.80974 a 12.836856,17.145903 60 0 0 0.058,-2.64351 c 0.02355,-3.26016 -0.55461,-6.4924 -1.83235,-9.65298 L 41.407362,48.94168 C 34.263973,36.56897 18.552444,32.35946 6.179729,39.50285 Z" />
    <path
       id="rect833"
       style="opacity:1;fill:#efefef;fill-opacity:0.675546;stroke-width:1;stroke-linecap:round;stroke-linejoin:round"
       d="m -59.231852,77.268241 c -12.372713,7.143389 -16.582486,22.854469 -9.439097,35.227189 l 53.917897,93.38853 c 2.520538,4.07637 6.325397,6.83405 11.027751,8.46252 l 65.479762,26.93687 a 12.836856,17.145903 60 0 0 25.71558,-14.8469 l 9.62957,-71.80974 a 12.836856,17.145903 60 0 0 0.058,-2.64351 c 0.02355,-3.26016 -0.55461,-6.4924 -1.83235,-9.65298 L 41.407362,48.941684 C 34.263973,36.56897 18.552444,32.359457 6.179729,39.502847 Z" />
    <path
       id="path884"
       style="opacity:1;fill:#12a700;fill-opacity:0.205942;stroke-width:3.77953;stroke-linecap:round;stroke-linejoin:round"
       d="m 198.95508,175.77344 c -0.57814,1.75812 -1.1281,3.53302 -1.61328,5.34375 l -13.65235,50.95312 176.59571,305.8711 c 4.82925,11.9455 7.01283,24.16055 6.92382,36.48242 a 48.51725,64.803412 60 0 1 -0.21875,9.99219 L 330.5957,855.82227 a 48.51725,64.803412 60 0 1 -2.83008,11.17968 48.51725,64.803412 60 0 1 -0.45117,1.17383 48.51725,64.803412 60 0 1 -0.47851,1.17383 48.51725,64.803412 60 0 1 -2.19532,4.65039 48.51725,64.803412 60 0 1 -0.61718,1.15039 48.51725,64.803412 60 0 1 -0.31836,0.57227 48.51725,64.803412 60 0 1 -0.32617,0.57031 48.51725,64.803412 60 0 1 -2.08985,3.39258 48.51725,64.803412 60 0 1 -1.13086,1.66797 48.51725,64.803412 60 0 1 -0.78515,1.0996 48.51725,64.803412 60 0 1 -0.8086,1.0918 48.51725,64.803412 60 0 1 -3.02148,3.73438 48.51725,64.803412 60 0 1 -0.91406,1.04101 48.51725,64.803412 60 0 1 -1.89453,2.04492 48.51725,64.803412 60 0 1 -0.98047,1.00196 48.51725,64.803412 60 0 1 -1,0.98633 48.51725,64.803412 60 0 1 -1.01953,0.9746 48.51725,64.803412 60 0 1 -0.51954,0.48047 48.51725,64.803412 60 0 1 -0.52148,0.47657 48.51725,64.803412 60 0 1 -1.05859,0.94336 48.51725,64.803412 60 0 1 -0.002,0 48.51725,64.803412 60 0 1 -1.07617,0.92578 48.51725,64.803412 60 0 1 -1.65234,1.35937 48.51725,64.803412 60 0 1 -1.1211,0.88477 48.51725,64.803412 60 0 1 -0.56836,0.43554 48.51725,64.803412 60 0 1 -1.14648,0.85743 48.51725,64.803412 60 0 1 -1.16211,0.83984 48.51725,64.803412 60 0 1 -0.002,0 48.51725,64.803412 60 0 1 -1.17774,0.82227 48.51725,64.803412 60 0 1 -0.5957,0.40234 48.51725,64.803412 60 0 1 -1.19922,0.79297 48.51725,64.803412 60 0 1 -0.60547,0.38867 48.51725,64.803412 60 0 1 -0.60937,0.38477 48.51725,64.803412 60 0 1 -0.61133,0.3789 48.51725,64.803412 60 0 1 -1.23438,0.74219 48.51725,64.803412 60 0 1 -3.13671,1.76758 48.51725,64.803412 60 0 1 -1.91602,0.99609 48.51725,64.803412 60 0 1 -0.64453,0.32031 48.51725,64.803412 60 0 1 -0.64453,0.31641 48.51725,64.803412 60 0 1 -1.95118,0.91211 48.51725,64.803412 60 0 1 -0.42578,0.19141 48.51725,64.803412 60 0 0 10.45704,1.38671 64.803412,48.51725 15 0 0 13.51367,-7.41406 l 64.60937,-49.33203 a 48.51725,64.803412 60 0 0 0.56055,-3.29101 L 411.6875,578.89062 a 48.51725,64.803412 60 0 0 0.2207,-9.99218 c 0.0892,-12.32187 -2.09652,-24.53693 -6.92578,-36.48242 L 201.19727,179.45117 c -0.72218,-1.25084 -1.47454,-2.47127 -2.24219,-3.67773 z"
       transform="scale(0.26458333)" />
    <path
       id="path905"
       style="opacity:1;fill:#c28a00;fill-opacity:0.213138;stroke-width:3.77953;stroke-linecap:round;stroke-linejoin:round"
       d="m 673.00586,258.55664 c -3.507,0.0326 -7.01678,0.26193 -10.51563,0.67578 0.0312,0.14206 0.0573,0.2855 0.0879,0.42774 0.11641,0.54146 0.22481,1.08485 0.33204,1.6289 0.094,0.47692 0.18459,0.95477 0.27148,1.4336 0.0997,0.54922 0.19683,1.09875 0.28711,1.65039 0.0806,0.4924 0.15348,0.98622 0.22656,1.48047 0.0794,0.53728 0.16196,1.07392 0.23242,1.61328 0.0658,0.50361 0.11977,1.01028 0.17774,1.51562 0.11422,0.99623 0.2115,1.99557 0.29492,2.99805 0.0425,0.51023 0.0905,1.01952 0.125,1.53125 0.0343,0.51004 0.0558,1.02175 0.082,1.5332 0.0289,0.5615 0.057,1.12246 0.0762,1.68555 0.0172,0.50653 0.0279,1.01374 0.0371,1.52148 0.0103,0.56573 0.0172,1.1321 0.0176,1.69922 3.1e-4,0.50023 -3.6e-4,1.00072 -0.008,1.50195 -0.009,0.63829 -0.0307,1.2782 -0.0527,1.91797 -0.0146,0.42242 -0.0247,0.84457 -0.0449,1.26758 -0.0426,0.89583 -0.10026,1.79321 -0.16797,2.69141 -0.0227,0.30077 -0.0448,0.60134 -0.0703,0.90234 -0.0805,0.94997 -0.17432,1.89958 -0.2832,2.85156 -0.0395,0.34545 -0.0875,0.69145 -0.13086,1.03711 -0.0938,0.74948 -0.19306,1.49966 -0.30469,2.25 -0.0602,0.40419 -0.12604,0.80851 -0.1914,1.21289 -0.11284,0.69845 -0.23486,1.39683 -0.36329,2.09571 -0.0741,0.403 -0.14726,0.80589 -0.22656,1.20898 -0.15016,0.76355 -0.31344,1.52733 -0.48242,2.29102 -0.0732,0.3307 -0.14006,0.66149 -0.2168,0.99219 -0.254,1.0948 -0.5232,2.18896 -0.8164,3.2832 L 555.89258,699.13672 c -5.03195,11.86152 -12.12662,22.0453 -20.90235,30.69531 a 64.803411,48.517249 15 0 1 -7.21875,6.9082 l -159.11523,121.48829 -2.26563,16.89062 a 48.51725,64.803412 60 0 1 -28.59179,43.91602 l 12.1875,0.0742 213.58008,-163.07227 a 64.803412,48.51725 15 0 0 7.21875,-6.9082 c 8.77572,-8.65002 15.87039,-18.8338 20.90234,-30.69532 L 697.17383,324.75195 c 5.98557,-22.33847 3.7645,-44.87393 -4.82422,-64.43945 -6.3669,-1.2261 -12.84837,-1.81627 -19.34375,-1.75586 z"
       transform="scale(0.26458333)" />
    <circle
       style="opacity:0.642159;fill:url(#radialGradient935);fill-opacity:1;stroke:none;stroke-width:34.6374;stroke-linecap:round;stroke-linejoin:round;stroke-miterlimit:4;stroke-dasharray:none;stroke-opacity:1"
       id="circle923-0"
       cx="76.87249"
       cy="230.12738"
       r="59.493248" />
    <path
       id="path993"
       style="opacity:1;fill:#ffffff;fill-opacity:0.19786;stroke-width:3.77953;stroke-linecap:round;stroke-linejoin:round"
       d="m 71.875,136.1582 c -16.47157,0.0452 -33.173463,4.28561 -48.517578,13.14453 L -223.86914,292.03711 c -46.76301,26.99863 -62.67246,86.37954 -35.67383,133.14258 l 203.783204,352.96484 c 9.526443,15.40675 23.907011,25.82953 41.679688,31.98438 L 233.40234,911.9375 a 48.517251,64.803413 60 0 0 9.85547,2.91406 L 7.1660156,817.72852 C -10.606661,811.57367 -24.987229,801.15089 -34.513672,785.74414 L -238.29688,432.7793 c -26.99863,-46.76304 -11.08722,-106.14395 35.67579,-133.14258 L 44.603516,156.90234 C 66.942032,144.0052 92.157494,140.90569 115.34961,146.27734 101.86699,139.60269 86.969413,136.11676 71.875,136.1582 Z"
       transform="scale(0.26458333)" />
    <circle
       style="opacity:1;fill:url(#linearGradient921);fill-opacity:1;stroke:none;stroke-width:22.4464;stroke-linecap:round;stroke-linejoin:round;stroke-miterlimit:4;stroke-dasharray:none;stroke-opacity:1"
       id="path913"
       cx="74.871033"
       cy="225.85196"
       r="38.553978" />
  </g>
</svg>
