<?xml version="1.0" encoding="UTF-8" standalone="no"?>
<svg
   xmlns:dc="http://purl.org/dc/elements/1.1/"
   xmlns:cc="http://creativecommons.org/ns#"
   xmlns:rdf="http://www.w3.org/1999/02/22-rdf-syntax-ns#"
   xmlns:svg="http://www.w3.org/2000/svg"
   xmlns="http://www.w3.org/2000/svg"
   xmlns:xlink="http://www.w3.org/1999/xlink"
   xmlns:sodipodi="http://sodipodi.sourceforge.net/DTD/sodipodi-0.dtd"
   xmlns:inkscape="http://www.inkscape.org/namespaces/inkscape"
   version="1.1"
   id="svg2"
   width="128"
   height="128"
   viewBox="0 0 128 128"
   sodipodi:docname="freetube.svg"
   inkscape:version="1.1-dev (1:0.92.0+devel+202004260039+9758c7a)">
  <metadata
     id="metadata8">
    <rdf:RDF>
      <cc:Work
         rdf:about="">
        <dc:format>image/svg+xml</dc:format>
        <dc:type
           rdf:resource="http://purl.org/dc/dcmitype/StillImage" />
      </cc:Work>
    </rdf:RDF>
  </metadata>
  <defs
     id="defs6">
    <linearGradient
       inkscape:collect="always"
       id="linearGradient833">
      <stop
         style="stop-color:#dfe3e8;stop-opacity:1"
         offset="0"
         id="stop829" />
      <stop
         style="stop-color:#fefeff;stop-opacity:1"
         offset="1"
         id="stop831" />
    </linearGradient>
    <linearGradient
       inkscape:collect="always"
       id="linearGradient823">
      <stop
         style="stop-color:#ccd4da;stop-opacity:1"
         offset="0"
         id="stop819" />
      <stop
         style="stop-color:#ffffff;stop-opacity:1"
         offset="1"
         id="stop821" />
    </linearGradient>
    <linearGradient
       inkscape:collect="always"
       xlink:href="#linearGradient823"
       id="linearGradient825"
       x1="-741.83197"
       y1="959.04749"
       x2="-741.83197"
       y2="93.836403"
       gradientUnits="userSpaceOnUse"
       gradientTransform="matrix(0.13667801,0,0,0.13667801,162.31231,-5.989337)" />
    <linearGradient
       inkscape:collect="always"
       xlink:href="#linearGradient833"
       id="linearGradient835"
       x1="-738.76385"
       y1="931.43433"
       x2="-738.76385"
       y2="152.13077"
       gradientUnits="userSpaceOnUse"
       gradientTransform="matrix(0.13667801,0,0,0.13667801,161.84082,-5.989337)" />
  </defs>
  <sodipodi:namedview
     pagecolor="#ffffff"
     bordercolor="#666666"
     borderopacity="1"
     objecttolerance="10"
     gridtolerance="10"
     guidetolerance="10"
     inkscape:pageopacity="0"
     inkscape:pageshadow="2"
     inkscape:window-width="1920"
     inkscape:window-height="1024"
     id="namedview4"
     showgrid="false"
     inkscape:zoom="4"
     inkscape:cx="58.557988"
     inkscape:cy="70.267084"
     inkscape:window-x="0"
     inkscape:window-y="30"
     inkscape:window-maximized="1"
     inkscape:current-layer="svg2"
     showguides="true"
     inkscape:guide-bbox="true" />
  <circle
     style="opacity:1;fill:url(#linearGradient825);fill-opacity:1;stroke:none;stroke-width:0.78699166;stroke-linecap:round;stroke-linejoin:round;stroke-miterlimit:4;stroke-dasharray:none;stroke-opacity:1"
     id="path817"
     cx="63.591888"
     cy="64.286316"
     r="61.380009" />
  <circle
     r="55.089832"
     cy="64.286316"
     cx="63.120399"
     id="circle827"
     style="opacity:1;fill:url(#linearGradient835);fill-opacity:1;stroke:none;stroke-width:0.706341;stroke-linecap:round;stroke-linejoin:round;stroke-miterlimit:4;stroke-dasharray:none;stroke-opacity:1" />
  <g
     id="g1147">
    <g
       id="g986"
       transform="translate(67.174889,0.001954)">
      <path
         id="path938"
         style="fill:none;fill-opacity:1;stroke:#ff3333;stroke-width:0.2;stroke-linecap:round;stroke-linejoin:round;stroke-miterlimit:4;stroke-dasharray:none;stroke-opacity:0.02"
         d="m -6.5791863,37.976562 v 0.002 c -2.026118,0.01657 -3.6523437,1.651474 -3.6523437,3.68164 v 8.341797 c 0,2.04052 1.6430727,3.683594 3.6835937,3.683594 h 7.824219 17.0585943 4.564453 c 4.320643,0 7.803069,-3.45493 7.851562,-7.763672 h 0.002 V 37.976562 H 18.334877 1.2762827 -6.5479363 Z m -18.3144527,0.126954 c -2.059912,0 -3.71875,1.658837 -3.71875,3.71875 v 4.085937 38.994141 4.638672 c 0,3.926621 2.872807,7.156524 6.638672,7.716796 v 0.08789 h 1.166016 7.804687 V 89.541016 84.902344 48.976562 45.908203 41.822266 c 0,-2.059913 -1.658835,-3.71875 -3.71875,-3.71875 h -4.085937 z" />
      <path
         d="m -6.5791863,37.976562 v 0.002 c -2.026118,0.01657 -3.6523437,1.651474 -3.6523437,3.68164 v 8.341797 c 0,2.04052 1.6430727,3.683594 3.6835937,3.683594 h 7.824219 17.0585943 4.564453 c 4.320643,0 7.803069,-3.45493 7.851562,-7.763672 h 0.002 V 37.976562 H 18.334877 1.2762827 -6.5479363 Z m -18.3144527,0.126954 c -2.059912,0 -3.71875,1.658837 -3.71875,3.71875 v 4.085937 38.994141 4.638672 c 0,3.926621 2.872807,7.156524 6.638672,7.716796 v 0.08789 h 1.166016 7.804687 V 89.541016 84.902344 48.976562 45.908203 41.822266 c 0,-2.059913 -1.658835,-3.71875 -3.71875,-3.71875 h -4.085937 z"
         style="fill:none;fill-opacity:1;stroke:#ff3333;stroke-width:0.4;stroke-linecap:round;stroke-linejoin:round;stroke-miterlimit:4;stroke-dasharray:none;stroke-opacity:0.02"
         id="path940" />
      <path
         id="path942"
         style="fill:none;fill-opacity:1;stroke:#ff3333;stroke-width:0.6;stroke-linecap:round;stroke-linejoin:round;stroke-miterlimit:4;stroke-dasharray:none;stroke-opacity:0.02"
         d="m -6.5791863,37.976562 v 0.002 c -2.026118,0.01657 -3.6523437,1.651474 -3.6523437,3.68164 v 8.341797 c 0,2.04052 1.6430727,3.683594 3.6835937,3.683594 h 7.824219 17.0585943 4.564453 c 4.320643,0 7.803069,-3.45493 7.851562,-7.763672 h 0.002 V 37.976562 H 18.334877 1.2762827 -6.5479363 Z m -18.3144527,0.126954 c -2.059912,0 -3.71875,1.658837 -3.71875,3.71875 v 4.085937 38.994141 4.638672 c 0,3.926621 2.872807,7.156524 6.638672,7.716796 v 0.08789 h 1.166016 7.804687 V 89.541016 84.902344 48.976562 45.908203 41.822266 c 0,-2.059913 -1.658835,-3.71875 -3.71875,-3.71875 h -4.085937 z" />
      <path
         d="m -6.5791863,37.976562 v 0.002 c -2.026118,0.01657 -3.6523437,1.651474 -3.6523437,3.68164 v 8.341797 c 0,2.04052 1.6430727,3.683594 3.6835937,3.683594 h 7.824219 17.0585943 4.564453 c 4.320643,0 7.803069,-3.45493 7.851562,-7.763672 h 0.002 V 37.976562 H 18.334877 1.2762827 -6.5479363 Z m -18.3144527,0.126954 c -2.059912,0 -3.71875,1.658837 -3.71875,3.71875 v 4.085937 38.994141 4.638672 c 0,3.926621 2.872807,7.156524 6.638672,7.716796 v 0.08789 h 1.166016 7.804687 V 89.541016 84.902344 48.976562 45.908203 41.822266 c 0,-2.059913 -1.658835,-3.71875 -3.71875,-3.71875 h -4.085937 z"
         style="fill:none;fill-opacity:1;stroke:#ff3333;stroke-width:0.8;stroke-linecap:round;stroke-linejoin:round;stroke-miterlimit:4;stroke-dasharray:none;stroke-opacity:0.02"
         id="path944" />
      <path
         id="path946"
         style="fill:none;fill-opacity:1;stroke:#ff3333;stroke-width:1;stroke-linecap:round;stroke-linejoin:round;stroke-miterlimit:4;stroke-dasharray:none;stroke-opacity:0.02"
         d="m -6.5791863,37.976562 v 0.002 c -2.026118,0.01657 -3.6523437,1.651474 -3.6523437,3.68164 v 8.341797 c 0,2.04052 1.6430727,3.683594 3.6835937,3.683594 h 7.824219 17.0585943 4.564453 c 4.320643,0 7.803069,-3.45493 7.851562,-7.763672 h 0.002 V 37.976562 H 18.334877 1.2762827 -6.5479363 Z m -18.3144527,0.126954 c -2.059912,0 -3.71875,1.658837 -3.71875,3.71875 v 4.085937 38.994141 4.638672 c 0,3.926621 2.872807,7.156524 6.638672,7.716796 v 0.08789 h 1.166016 7.804687 V 89.541016 84.902344 48.976562 45.908203 41.822266 c 0,-2.059913 -1.658835,-3.71875 -3.71875,-3.71875 h -4.085937 z" />
      <path
         d="m -6.5791863,37.976562 v 0.002 c -2.026118,0.01657 -3.6523437,1.651474 -3.6523437,3.68164 v 8.341797 c 0,2.04052 1.6430727,3.683594 3.6835937,3.683594 h 7.824219 17.0585943 4.564453 c 4.320643,0 7.803069,-3.45493 7.851562,-7.763672 h 0.002 V 37.976562 H 18.334877 1.2762827 -6.5479363 Z m -18.3144527,0.126954 c -2.059912,0 -3.71875,1.658837 -3.71875,3.71875 v 4.085937 38.994141 4.638672 c 0,3.926621 2.872807,7.156524 6.638672,7.716796 v 0.08789 h 1.166016 7.804687 V 89.541016 84.902344 48.976562 45.908203 41.822266 c 0,-2.059913 -1.658835,-3.71875 -3.71875,-3.71875 h -4.085937 z"
         style="fill:none;fill-opacity:1;stroke:#ff3333;stroke-width:1.2;stroke-linecap:round;stroke-linejoin:round;stroke-miterlimit:4;stroke-dasharray:none;stroke-opacity:0.02"
         id="path948" />
      <path
         id="path950"
         style="fill:none;fill-opacity:1;stroke:#ff3333;stroke-width:1.4;stroke-linecap:round;stroke-linejoin:round;stroke-miterlimit:4;stroke-dasharray:none;stroke-opacity:0.02"
         d="m -6.5791863,37.976562 v 0.002 c -2.026118,0.01657 -3.6523437,1.651474 -3.6523437,3.68164 v 8.341797 c 0,2.04052 1.6430727,3.683594 3.6835937,3.683594 h 7.824219 17.0585943 4.564453 c 4.320643,0 7.803069,-3.45493 7.851562,-7.763672 h 0.002 V 37.976562 H 18.334877 1.2762827 -6.5479363 Z m -18.3144527,0.126954 c -2.059912,0 -3.71875,1.658837 -3.71875,3.71875 v 4.085937 38.994141 4.638672 c 0,3.926621 2.872807,7.156524 6.638672,7.716796 v 0.08789 h 1.166016 7.804687 V 89.541016 84.902344 48.976562 45.908203 41.822266 c 0,-2.059913 -1.658835,-3.71875 -3.71875,-3.71875 h -4.085937 z" />
      <path
         d="m -6.5791863,37.976562 v 0.002 c -2.026118,0.01657 -3.6523437,1.651474 -3.6523437,3.68164 v 8.341797 c 0,2.04052 1.6430727,3.683594 3.6835937,3.683594 h 7.824219 17.0585943 4.564453 c 4.320643,0 7.803069,-3.45493 7.851562,-7.763672 h 0.002 V 37.976562 H 18.334877 1.2762827 -6.5479363 Z m -18.3144527,0.126954 c -2.059912,0 -3.71875,1.658837 -3.71875,3.71875 v 4.085937 38.994141 4.638672 c 0,3.926621 2.872807,7.156524 6.638672,7.716796 v 0.08789 h 1.166016 7.804687 V 89.541016 84.902344 48.976562 45.908203 41.822266 c 0,-2.059913 -1.658835,-3.71875 -3.71875,-3.71875 h -4.085937 z"
         style="fill:none;fill-opacity:1;stroke:#ff3333;stroke-width:1.6;stroke-linecap:round;stroke-linejoin:round;stroke-miterlimit:4;stroke-dasharray:none;stroke-opacity:0.02"
         id="path952" />
      <path
         id="path954"
         style="fill:none;fill-opacity:1;stroke:#ff3333;stroke-width:1.8;stroke-linecap:round;stroke-linejoin:round;stroke-miterlimit:4;stroke-dasharray:none;stroke-opacity:0.02"
         d="m -6.5791863,37.976562 v 0.002 c -2.026118,0.01657 -3.6523437,1.651474 -3.6523437,3.68164 v 8.341797 c 0,2.04052 1.6430727,3.683594 3.6835937,3.683594 h 7.824219 17.0585943 4.564453 c 4.320643,0 7.803069,-3.45493 7.851562,-7.763672 h 0.002 V 37.976562 H 18.334877 1.2762827 -6.5479363 Z m -18.3144527,0.126954 c -2.059912,0 -3.71875,1.658837 -3.71875,3.71875 v 4.085937 38.994141 4.638672 c 0,3.926621 2.872807,7.156524 6.638672,7.716796 v 0.08789 h 1.166016 7.804687 V 89.541016 84.902344 48.976562 45.908203 41.822266 c 0,-2.059913 -1.658835,-3.71875 -3.71875,-3.71875 h -4.085937 z" />
      <path
         d="m -6.5791863,37.976562 v 0.002 c -2.026118,0.01657 -3.6523437,1.651474 -3.6523437,3.68164 v 8.341797 c 0,2.04052 1.6430727,3.683594 3.6835937,3.683594 h 7.824219 17.0585943 4.564453 c 4.320643,0 7.803069,-3.45493 7.851562,-7.763672 h 0.002 V 37.976562 H 18.334877 1.2762827 -6.5479363 Z m -18.3144527,0.126954 c -2.059912,0 -3.71875,1.658837 -3.71875,3.71875 v 4.085937 38.994141 4.638672 c 0,3.926621 2.872807,7.156524 6.638672,7.716796 v 0.08789 h 1.166016 7.804687 V 89.541016 84.902344 48.976562 45.908203 41.822266 c 0,-2.059913 -1.658835,-3.71875 -3.71875,-3.71875 h -4.085937 z"
         style="fill:none;fill-opacity:1;stroke:#ff3333;stroke-width:2;stroke-linecap:round;stroke-linejoin:round;stroke-miterlimit:4;stroke-dasharray:none;stroke-opacity:0.02"
         id="path956" />
      <path
         id="path958"
         style="fill:none;fill-opacity:1;stroke:#ff3333;stroke-width:2.5;stroke-linecap:round;stroke-linejoin:round;stroke-miterlimit:4;stroke-dasharray:none;stroke-opacity:0.02"
         d="m -6.5791863,37.976562 v 0.002 c -2.026118,0.01657 -3.6523437,1.651474 -3.6523437,3.68164 v 8.341797 c 0,2.04052 1.6430727,3.683594 3.6835937,3.683594 h 7.824219 17.0585943 4.564453 c 4.320643,0 7.803069,-3.45493 7.851562,-7.763672 h 0.002 V 37.976562 H 18.334877 1.2762827 -6.5479363 Z m -18.3144527,0.126954 c -2.059912,0 -3.71875,1.658837 -3.71875,3.71875 v 4.085937 38.994141 4.638672 c 0,3.926621 2.872807,7.156524 6.638672,7.716796 v 0.08789 h 1.166016 7.804687 V 89.541016 84.902344 48.976562 45.908203 41.822266 c 0,-2.059913 -1.658835,-3.71875 -3.71875,-3.71875 h -4.085937 z" />
      <path
         d="m -6.5791863,37.976562 v 0.002 c -2.026118,0.01657 -3.6523437,1.651474 -3.6523437,3.68164 v 8.341797 c 0,2.04052 1.6430727,3.683594 3.6835937,3.683594 h 7.824219 17.0585943 4.564453 c 4.320643,0 7.803069,-3.45493 7.851562,-7.763672 h 0.002 V 37.976562 H 18.334877 1.2762827 -6.5479363 Z m -18.3144527,0.126954 c -2.059912,0 -3.71875,1.658837 -3.71875,3.71875 v 4.085937 38.994141 4.638672 c 0,3.926621 2.872807,7.156524 6.638672,7.716796 v 0.08789 h 1.166016 7.804687 V 89.541016 84.902344 48.976562 45.908203 41.822266 c 0,-2.059913 -1.658835,-3.71875 -3.71875,-3.71875 h -4.085937 z"
         style="fill:none;fill-opacity:1;stroke:#ff3333;stroke-width:3;stroke-linecap:round;stroke-linejoin:round;stroke-miterlimit:4;stroke-dasharray:none;stroke-opacity:0.02"
         id="path960" />
      <path
         id="path962"
         style="fill:none;fill-opacity:1;stroke:#ff3333;stroke-width:3.5;stroke-linecap:round;stroke-linejoin:round;stroke-miterlimit:4;stroke-dasharray:none;stroke-opacity:0.02"
         d="m -6.5791863,37.976562 v 0.002 c -2.026118,0.01657 -3.6523437,1.651474 -3.6523437,3.68164 v 8.341797 c 0,2.04052 1.6430727,3.683594 3.6835937,3.683594 h 7.824219 17.0585943 4.564453 c 4.320643,0 7.803069,-3.45493 7.851562,-7.763672 h 0.002 V 37.976562 H 18.334877 1.2762827 -6.5479363 Z m -18.3144527,0.126954 c -2.059912,0 -3.71875,1.658837 -3.71875,3.71875 v 4.085937 38.994141 4.638672 c 0,3.926621 2.872807,7.156524 6.638672,7.716796 v 0.08789 h 1.166016 7.804687 V 89.541016 84.902344 48.976562 45.908203 41.822266 c 0,-2.059913 -1.658835,-3.71875 -3.71875,-3.71875 h -4.085937 z" />
      <path
         d="m -6.5791863,37.976562 v 0.002 c -2.026118,0.01657 -3.6523437,1.651474 -3.6523437,3.68164 v 8.341797 c 0,2.04052 1.6430727,3.683594 3.6835937,3.683594 h 7.824219 17.0585943 4.564453 c 4.320643,0 7.803069,-3.45493 7.851562,-7.763672 h 0.002 V 37.976562 H 18.334877 1.2762827 -6.5479363 Z m -18.3144527,0.126954 c -2.059912,0 -3.71875,1.658837 -3.71875,3.71875 v 4.085937 38.994141 4.638672 c 0,3.926621 2.872807,7.156524 6.638672,7.716796 v 0.08789 h 1.166016 7.804687 V 89.541016 84.902344 48.976562 45.908203 41.822266 c 0,-2.059913 -1.658835,-3.71875 -3.71875,-3.71875 h -4.085937 z"
         style="fill:none;fill-opacity:1;stroke:#ff3333;stroke-width:4;stroke-linecap:round;stroke-linejoin:round;stroke-miterlimit:4;stroke-dasharray:none;stroke-opacity:0.02"
         id="path964" />
      <path
         id="path966"
         style="fill:none;fill-opacity:1;stroke:#ff3333;stroke-width:4.5;stroke-linecap:round;stroke-linejoin:round;stroke-miterlimit:4;stroke-dasharray:none;stroke-opacity:0.02"
         d="m -6.5791863,37.976562 v 0.002 c -2.026118,0.01657 -3.6523437,1.651474 -3.6523437,3.68164 v 8.341797 c 0,2.04052 1.6430727,3.683594 3.6835937,3.683594 h 7.824219 17.0585943 4.564453 c 4.320643,0 7.803069,-3.45493 7.851562,-7.763672 h 0.002 V 37.976562 H 18.334877 1.2762827 -6.5479363 Z m -18.3144527,0.126954 c -2.059912,0 -3.71875,1.658837 -3.71875,3.71875 v 4.085937 38.994141 4.638672 c 0,3.926621 2.872807,7.156524 6.638672,7.716796 v 0.08789 h 1.166016 7.804687 V 89.541016 84.902344 48.976562 45.908203 41.822266 c 0,-2.059913 -1.658835,-3.71875 -3.71875,-3.71875 h -4.085937 z" />
      <path
         d="m -6.5791863,37.976562 v 0.002 c -2.026118,0.01657 -3.6523437,1.651474 -3.6523437,3.68164 v 8.341797 c 0,2.04052 1.6430727,3.683594 3.6835937,3.683594 h 7.824219 17.0585943 4.564453 c 4.320643,0 7.803069,-3.45493 7.851562,-7.763672 h 0.002 V 37.976562 H 18.334877 1.2762827 -6.5479363 Z m -18.3144527,0.126954 c -2.059912,0 -3.71875,1.658837 -3.71875,3.71875 v 4.085937 38.994141 4.638672 c 0,3.926621 2.872807,7.156524 6.638672,7.716796 v 0.08789 h 1.166016 7.804687 V 89.541016 84.902344 48.976562 45.908203 41.822266 c 0,-2.059913 -1.658835,-3.71875 -3.71875,-3.71875 h -4.085937 z"
         style="fill:none;fill-opacity:1;stroke:#ff3333;stroke-width:5;stroke-linecap:round;stroke-linejoin:round;stroke-miterlimit:4;stroke-dasharray:none;stroke-opacity:0.02"
         id="path968" />
    </g>
    <path
       id="rect82"
       style="fill:#ff3333;fill-opacity:1;stroke-width:0.0295866;stroke-linecap:round;stroke-linejoin:round"
       d="M 60.595703 37.976562 L 60.595703 37.978516 C 58.569585 37.995086 56.943359 39.62999 56.943359 41.660156 L 56.943359 50.001953 C 56.943359 52.042473 58.586432 53.685547 60.626953 53.685547 L 68.451172 53.685547 L 85.509766 53.685547 L 90.074219 53.685547 C 94.394862 53.685547 97.877288 50.230617 97.925781 45.921875 L 97.927734 45.921875 L 97.927734 37.976562 L 85.509766 37.976562 L 68.451172 37.976562 L 60.626953 37.976562 L 60.595703 37.976562 z M 42.28125 38.103516 C 40.221338 38.103516 38.5625 39.762353 38.5625 41.822266 L 38.5625 45.908203 L 38.5625 84.902344 L 38.5625 89.541016 C 38.5625 93.467637 41.435307 96.69754 45.201172 97.257812 L 45.201172 97.345703 L 46.367188 97.345703 L 54.171875 97.345703 L 54.171875 89.541016 L 54.171875 84.902344 L 54.171875 48.976562 L 54.171875 45.908203 L 54.171875 41.822266 C 54.171875 39.762353 52.51304 38.103516 50.453125 38.103516 L 46.367188 38.103516 L 42.28125 38.103516 z " />
    <g
       id="g1090"
       transform="translate(-94.44562)">
      <g
         id="g990"
         transform="matrix(0.29586619,0,0,0.29586619,241.82209,72.49652)"
         style="fill:none;fill-opacity:1;stroke:#29abe1;stroke-width:0.675981;stroke-linecap:round;stroke-miterlimit:4;stroke-dasharray:none;stroke-opacity:0.02">
        <path
           style="color:#000000;fill:none;fill-opacity:1;stroke:#29abe1;stroke-width:0.675981;stroke-linecap:round;stroke-linejoin:round;stroke-miterlimit:4;stroke-dasharray:none;stroke-opacity:0.02"
           d="m -297.46699,-55.277263 c -3.98944,-1.996019 -8.68468,0.904323 -8.68555,5.365234 v 72.992191 c 1.4e-4,4.50553 4.78051,7.40375 8.77539,5.32031 l 71.43945,-37.2519497 c 4.3402,-2.2649103 4.28782,-8.4939453 -0.0898,-10.6855553 z"
           id="path988"
           sodipodi:nodetypes="ccccccc" />
      </g>
      <g
         style="fill:none;fill-opacity:1;stroke:#29abe1;stroke-width:1.35196;stroke-linecap:round;stroke-miterlimit:4;stroke-dasharray:none;stroke-opacity:0.02"
         transform="matrix(0.29586619,0,0,0.29586619,241.82209,72.49652)"
         id="g994">
        <path
           sodipodi:nodetypes="ccccccc"
           id="path992"
           d="m -297.46699,-55.277263 c -3.98944,-1.996019 -8.68468,0.904323 -8.68555,5.365234 v 72.992191 c 1.4e-4,4.50553 4.78051,7.40375 8.77539,5.32031 l 71.43945,-37.2519497 c 4.3402,-2.2649103 4.28782,-8.4939453 -0.0898,-10.6855553 z"
           style="color:#000000;fill:none;fill-opacity:1;stroke:#29abe1;stroke-width:1.35196;stroke-linecap:round;stroke-linejoin:round;stroke-miterlimit:4;stroke-dasharray:none;stroke-opacity:0.02" />
      </g>
      <g
         id="g998"
         transform="matrix(0.29586619,0,0,0.29586619,241.82209,72.49652)"
         style="fill:none;fill-opacity:1;stroke:#29abe1;stroke-width:2.02794;stroke-linecap:round;stroke-miterlimit:4;stroke-dasharray:none;stroke-opacity:0.02">
        <path
           style="color:#000000;fill:none;fill-opacity:1;stroke:#29abe1;stroke-width:2.02794;stroke-linecap:round;stroke-linejoin:round;stroke-miterlimit:4;stroke-dasharray:none;stroke-opacity:0.02"
           d="m -297.46699,-55.277263 c -3.98944,-1.996019 -8.68468,0.904323 -8.68555,5.365234 v 72.992191 c 1.4e-4,4.50553 4.78051,7.40375 8.77539,5.32031 l 71.43945,-37.2519497 c 4.3402,-2.2649103 4.28782,-8.4939453 -0.0898,-10.6855553 z"
           id="path996"
           sodipodi:nodetypes="ccccccc" />
      </g>
      <g
         style="fill:none;fill-opacity:1;stroke:#29abe1;stroke-width:2.70393;stroke-linecap:round;stroke-miterlimit:4;stroke-dasharray:none;stroke-opacity:0.02"
         transform="matrix(0.29586619,0,0,0.29586619,241.82209,72.49652)"
         id="g1002">
        <path
           sodipodi:nodetypes="ccccccc"
           id="path1000"
           d="m -297.46699,-55.277263 c -3.98944,-1.996019 -8.68468,0.904323 -8.68555,5.365234 v 72.992191 c 1.4e-4,4.50553 4.78051,7.40375 8.77539,5.32031 l 71.43945,-37.2519497 c 4.3402,-2.2649103 4.28782,-8.4939453 -0.0898,-10.6855553 z"
           style="color:#000000;fill:none;fill-opacity:1;stroke:#29abe1;stroke-width:2.70393;stroke-linecap:round;stroke-linejoin:round;stroke-miterlimit:4;stroke-dasharray:none;stroke-opacity:0.02" />
      </g>
      <g
         id="g1006"
         transform="matrix(0.29586619,0,0,0.29586619,241.82209,72.49652)"
         style="fill:none;fill-opacity:1;stroke:#29abe1;stroke-width:3.37991;stroke-linecap:round;stroke-miterlimit:4;stroke-dasharray:none;stroke-opacity:0.02">
        <path
           style="color:#000000;fill:none;fill-opacity:1;stroke:#29abe1;stroke-width:3.37991;stroke-linecap:round;stroke-linejoin:round;stroke-miterlimit:4;stroke-dasharray:none;stroke-opacity:0.02"
           d="m -297.46699,-55.277263 c -3.98944,-1.996019 -8.68468,0.904323 -8.68555,5.365234 v 72.992191 c 1.4e-4,4.50553 4.78051,7.40375 8.77539,5.32031 l 71.43945,-37.2519497 c 4.3402,-2.2649103 4.28782,-8.4939453 -0.0898,-10.6855553 z"
           id="path1004"
           sodipodi:nodetypes="ccccccc" />
      </g>
      <g
         style="fill:none;fill-opacity:1;stroke:#29abe1;stroke-width:4.05589;stroke-linecap:round;stroke-miterlimit:4;stroke-dasharray:none;stroke-opacity:0.02"
         transform="matrix(0.29586619,0,0,0.29586619,241.82209,72.49652)"
         id="g1010">
        <path
           sodipodi:nodetypes="ccccccc"
           id="path1008"
           d="m -297.46699,-55.277263 c -3.98944,-1.996019 -8.68468,0.904323 -8.68555,5.365234 v 72.992191 c 1.4e-4,4.50553 4.78051,7.40375 8.77539,5.32031 l 71.43945,-37.2519497 c 4.3402,-2.2649103 4.28782,-8.4939453 -0.0898,-10.6855553 z"
           style="color:#000000;fill:none;fill-opacity:1;stroke:#29abe1;stroke-width:4.05589;stroke-linecap:round;stroke-linejoin:round;stroke-miterlimit:4;stroke-dasharray:none;stroke-opacity:0.02" />
      </g>
      <g
         id="g1014"
         transform="matrix(0.29586619,0,0,0.29586619,241.82209,72.49652)"
         style="fill:none;fill-opacity:1;stroke:#29abe1;stroke-width:4.73187;stroke-linecap:round;stroke-miterlimit:4;stroke-dasharray:none;stroke-opacity:0.02">
        <path
           style="color:#000000;fill:none;fill-opacity:1;stroke:#29abe1;stroke-width:4.73187;stroke-linecap:round;stroke-linejoin:round;stroke-miterlimit:4;stroke-dasharray:none;stroke-opacity:0.02"
           d="m -297.46699,-55.277263 c -3.98944,-1.996019 -8.68468,0.904323 -8.68555,5.365234 v 72.992191 c 1.4e-4,4.50553 4.78051,7.40375 8.77539,5.32031 l 71.43945,-37.2519497 c 4.3402,-2.2649103 4.28782,-8.4939453 -0.0898,-10.6855553 z"
           id="path1012"
           sodipodi:nodetypes="ccccccc" />
      </g>
      <g
         style="fill:none;fill-opacity:1;stroke:#29abe1;stroke-width:5.40785;stroke-linecap:round;stroke-miterlimit:4;stroke-dasharray:none;stroke-opacity:0.02"
         transform="matrix(0.29586619,0,0,0.29586619,241.82209,72.49652)"
         id="g1018">
        <path
           sodipodi:nodetypes="ccccccc"
           id="path1016"
           d="m -297.46699,-55.277263 c -3.98944,-1.996019 -8.68468,0.904323 -8.68555,5.365234 v 72.992191 c 1.4e-4,4.50553 4.78051,7.40375 8.77539,5.32031 l 71.43945,-37.2519497 c 4.3402,-2.2649103 4.28782,-8.4939453 -0.0898,-10.6855553 z"
           style="color:#000000;fill:none;fill-opacity:1;stroke:#29abe1;stroke-width:5.40785;stroke-linecap:round;stroke-linejoin:round;stroke-miterlimit:4;stroke-dasharray:none;stroke-opacity:0.02" />
      </g>
      <g
         id="g1022"
         transform="matrix(0.29586619,0,0,0.29586619,241.82209,72.49652)"
         style="fill:none;fill-opacity:1;stroke:#29abe1;stroke-width:6.08383;stroke-linecap:round;stroke-miterlimit:4;stroke-dasharray:none;stroke-opacity:0.02">
        <path
           style="color:#000000;fill:none;fill-opacity:1;stroke:#29abe1;stroke-width:6.08383;stroke-linecap:round;stroke-linejoin:round;stroke-miterlimit:4;stroke-dasharray:none;stroke-opacity:0.02"
           d="m -297.46699,-55.277263 c -3.98944,-1.996019 -8.68468,0.904323 -8.68555,5.365234 v 72.992191 c 1.4e-4,4.50553 4.78051,7.40375 8.77539,5.32031 l 71.43945,-37.2519497 c 4.3402,-2.2649103 4.28782,-8.4939453 -0.0898,-10.6855553 z"
           id="path1020"
           sodipodi:nodetypes="ccccccc" />
      </g>
      <g
         style="fill:none;fill-opacity:1;stroke:#29abe1;stroke-width:6.75981;stroke-linecap:round;stroke-miterlimit:4;stroke-dasharray:none;stroke-opacity:0.02"
         transform="matrix(0.29586619,0,0,0.29586619,241.82209,72.49652)"
         id="g1026">
        <path
           sodipodi:nodetypes="ccccccc"
           id="path1024"
           d="m -297.46699,-55.277263 c -3.98944,-1.996019 -8.68468,0.904323 -8.68555,5.365234 v 72.992191 c 1.4e-4,4.50553 4.78051,7.40375 8.77539,5.32031 l 71.43945,-37.2519497 c 4.3402,-2.2649103 4.28782,-8.4939453 -0.0898,-10.6855553 z"
           style="color:#000000;fill:none;fill-opacity:1;stroke:#29abe1;stroke-width:6.75981;stroke-linecap:round;stroke-linejoin:round;stroke-miterlimit:4;stroke-dasharray:none;stroke-opacity:0.02" />
      </g>
      <g
         id="g1030"
         transform="matrix(0.29586619,0,0,0.29586619,241.82209,72.49652)"
         style="fill:none;fill-opacity:1;stroke:#29abe1;stroke-width:7.77378;stroke-linecap:round;stroke-miterlimit:4;stroke-dasharray:none;stroke-opacity:0.02">
        <path
           style="color:#000000;fill:none;fill-opacity:1;stroke:#29abe1;stroke-width:7.77378;stroke-linecap:round;stroke-linejoin:round;stroke-miterlimit:4;stroke-dasharray:none;stroke-opacity:0.02"
           d="m -297.46699,-55.277263 c -3.98944,-1.996019 -8.68468,0.904323 -8.68555,5.365234 v 72.992191 c 1.4e-4,4.50553 4.78051,7.40375 8.77539,5.32031 l 71.43945,-37.2519497 c 4.3402,-2.2649103 4.28782,-8.4939453 -0.0898,-10.6855553 z"
           id="path1028"
           sodipodi:nodetypes="ccccccc" />
      </g>
      <g
         style="fill:none;fill-opacity:1;stroke:#29abe1;stroke-width:8.78776;stroke-linecap:round;stroke-miterlimit:4;stroke-dasharray:none;stroke-opacity:0.02"
         transform="matrix(0.29586619,0,0,0.29586619,241.82209,72.49652)"
         id="g1034">
        <path
           sodipodi:nodetypes="ccccccc"
           id="path1032"
           d="m -297.46699,-55.277263 c -3.98944,-1.996019 -8.68468,0.904323 -8.68555,5.365234 v 72.992191 c 1.4e-4,4.50553 4.78051,7.40375 8.77539,5.32031 l 71.43945,-37.2519497 c 4.3402,-2.2649103 4.28782,-8.4939453 -0.0898,-10.6855553 z"
           style="color:#000000;fill:none;fill-opacity:1;stroke:#29abe1;stroke-width:8.78776;stroke-linecap:round;stroke-linejoin:round;stroke-miterlimit:4;stroke-dasharray:none;stroke-opacity:0.02" />
      </g>
      <g
         id="g1038"
         transform="matrix(0.29586619,0,0,0.29586619,241.82209,72.49652)"
         style="fill:none;fill-opacity:1;stroke:#29abe1;stroke-width:9.80173;stroke-linecap:round;stroke-miterlimit:4;stroke-dasharray:none;stroke-opacity:0.02">
        <path
           style="color:#000000;fill:none;fill-opacity:1;stroke:#29abe1;stroke-width:9.80173;stroke-linecap:round;stroke-linejoin:round;stroke-miterlimit:4;stroke-dasharray:none;stroke-opacity:0.02"
           d="m -297.46699,-55.277263 c -3.98944,-1.996019 -8.68468,0.904323 -8.68555,5.365234 v 72.992191 c 1.4e-4,4.50553 4.78051,7.40375 8.77539,5.32031 l 71.43945,-37.2519497 c 4.3402,-2.2649103 4.28782,-8.4939453 -0.0898,-10.6855553 z"
           id="path1036"
           sodipodi:nodetypes="ccccccc" />
      </g>
      <g
         style="fill:none;fill-opacity:1;stroke:#29abe1;stroke-width:10.8157;stroke-linecap:round;stroke-miterlimit:4;stroke-dasharray:none;stroke-opacity:0.02"
         transform="matrix(0.29586619,0,0,0.29586619,241.82209,72.49652)"
         id="g1042">
        <path
           sodipodi:nodetypes="ccccccc"
           id="path1040"
           d="m -297.46699,-55.277263 c -3.98944,-1.996019 -8.68468,0.904323 -8.68555,5.365234 v 72.992191 c 1.4e-4,4.50553 4.78051,7.40375 8.77539,5.32031 l 71.43945,-37.2519497 c 4.3402,-2.2649103 4.28782,-8.4939453 -0.0898,-10.6855553 z"
           style="color:#000000;fill:none;fill-opacity:1;stroke:#29abe1;stroke-width:10.8157;stroke-linecap:round;stroke-linejoin:round;stroke-miterlimit:4;stroke-dasharray:none;stroke-opacity:0.02" />
      </g>
      <g
         id="g1046"
         transform="matrix(0.29586619,0,0,0.29586619,241.82209,72.49652)"
         style="fill:none;fill-opacity:1;stroke:#29abe1;stroke-width:11.8297;stroke-linecap:round;stroke-miterlimit:4;stroke-dasharray:none;stroke-opacity:0.02">
        <path
           style="color:#000000;fill:none;fill-opacity:1;stroke:#29abe1;stroke-width:11.8297;stroke-linecap:round;stroke-linejoin:round;stroke-miterlimit:4;stroke-dasharray:none;stroke-opacity:0.02"
           d="m -297.46699,-55.277263 c -3.98944,-1.996019 -8.68468,0.904323 -8.68555,5.365234 v 72.992191 c 1.4e-4,4.50553 4.78051,7.40375 8.77539,5.32031 l 71.43945,-37.2519497 c 4.3402,-2.2649103 4.28782,-8.4939453 -0.0898,-10.6855553 z"
           id="path1044"
           sodipodi:nodetypes="ccccccc" />
      </g>
      <g
         style="fill:none;fill-opacity:1;stroke:#29abe1;stroke-width:13.5196;stroke-linecap:round;stroke-miterlimit:4;stroke-dasharray:none;stroke-opacity:0.02"
         transform="matrix(0.29586619,0,0,0.29586619,241.82209,72.49652)"
         id="g1050">
        <path
           sodipodi:nodetypes="ccccccc"
           id="path1048"
           d="m -297.46699,-55.277263 c -3.98944,-1.996019 -8.68468,0.904323 -8.68555,5.365234 v 72.992191 c 1.4e-4,4.50553 4.78051,7.40375 8.77539,5.32031 l 71.43945,-37.2519497 c 4.3402,-2.2649103 4.28782,-8.4939453 -0.0898,-10.6855553 z"
           style="color:#000000;fill:none;fill-opacity:1;stroke:#29abe1;stroke-width:13.5196;stroke-linecap:round;stroke-linejoin:round;stroke-miterlimit:4;stroke-dasharray:none;stroke-opacity:0.02" />
      </g>
      <g
         id="g1054"
         transform="matrix(0.29586619,0,0,0.29586619,241.82209,72.49652)"
         style="fill:none;fill-opacity:1;stroke:#29abe1;stroke-width:15.2096;stroke-linecap:round;stroke-miterlimit:4;stroke-dasharray:none;stroke-opacity:0.02">
        <path
           style="color:#000000;fill:none;fill-opacity:1;stroke:#29abe1;stroke-width:15.2096;stroke-linecap:round;stroke-linejoin:round;stroke-miterlimit:4;stroke-dasharray:none;stroke-opacity:0.02"
           d="m -297.46699,-55.277263 c -3.98944,-1.996019 -8.68468,0.904323 -8.68555,5.365234 v 72.992191 c 1.4e-4,4.50553 4.78051,7.40375 8.77539,5.32031 l 71.43945,-37.2519497 c 4.3402,-2.2649103 4.28782,-8.4939453 -0.0898,-10.6855553 z"
           id="path1052"
           sodipodi:nodetypes="ccccccc" />
      </g>
    </g>
    <g
       id="g910"
       transform="matrix(0.29586619,0,0,0.29586619,147.37647,72.49652)"
       style="fill:#29abe1;fill-opacity:1">
      <path
         style="color:#000000;fill:#29abe1;fill-opacity:1;stroke-width:12;stroke-linecap:round;stroke-linejoin:round"
         d="m -297.46699,-55.277263 c -3.98944,-1.996019 -8.68468,0.904323 -8.68555,5.365234 v 72.992191 c 1.4e-4,4.50553 4.78051,7.40375 8.77539,5.32031 l 71.43945,-37.2519497 c 4.3402,-2.2649103 4.28782,-8.4939453 -0.0898,-10.6855553 z"
         id="path914"
         sodipodi:nodetypes="ccccccc" />
    </g>
  </g>
</svg>
