<?xml version="1.0" encoding="UTF-8" standalone="no"?>
<svg
   width="128"
   height="128"
   viewBox="0 0 33.866666 33.866668"
   version="1.1"
   id="svg1015"
   inkscape:version="1.1.2 (0a00cf5339, 2022-02-04)"
   sodipodi:docname="half-life2.svg"
   xmlns:inkscape="http://www.inkscape.org/namespaces/inkscape"
   xmlns:sodipodi="http://sodipodi.sourceforge.net/DTD/sodipodi-0.dtd"
   xmlns:xlink="http://www.w3.org/1999/xlink"
   xmlns="http://www.w3.org/2000/svg"
   xmlns:svg="http://www.w3.org/2000/svg"
   xmlns:rdf="http://www.w3.org/1999/02/22-rdf-syntax-ns#"
   xmlns:cc="http://creativecommons.org/ns#"
   xmlns:dc="http://purl.org/dc/elements/1.1/">
  <defs
     id="defs1009">
    <linearGradient
       inkscape:collect="always"
       id="linearGradient873">
      <stop
         style="stop-color:#0b0b0b;stop-opacity:1;"
         offset="0"
         id="stop869" />
      <stop
         style="stop-color:#0b0b0b;stop-opacity:0.85882353;"
         offset="0.68076366"
         id="stop878" />
      <stop
         style="stop-color:#0b0b0b;stop-opacity:0.83137255;"
         offset="0.69925421"
         id="stop888" />
      <stop
         style="stop-color:#0b0b0b;stop-opacity:0.80392157;"
         offset="0.71879315"
         id="stop890" />
      <stop
         style="stop-color:#0b0b0b;stop-opacity:0.78039216;"
         offset="0.73593426"
         id="stop892" />
      <stop
         style="stop-color:#0b0b0b;stop-opacity:0.75686275;"
         offset="0.75022364"
         id="stop894" />
      <stop
         style="stop-color:#0b0b0b;stop-opacity:0.73333333;"
         offset="0.76798755"
         id="stop896" />
      <stop
         style="stop-color:#0b0b0b;stop-opacity:0.08235294;"
         offset="0.9150058"
         id="stop919" />
      <stop
         style="stop-color:#0b0b0b;stop-opacity:0.07058824;"
         offset="0.92246956"
         id="stop917" />
      <stop
         style="stop-color:#0b0b0b;stop-opacity:0.05882353;"
         offset="0.92918676"
         id="stop915" />
      <stop
         style="stop-color:#0b0b0b;stop-opacity:0.04705882;"
         offset="0.93840873"
         id="stop912" />
      <stop
         style="stop-color:#0b0b0b;stop-opacity:0.03137255;"
         offset="0.94760686"
         id="stop910" />
      <stop
         style="stop-color:#0b0b0b;stop-opacity:0.02352941;"
         offset="0.95380515"
         id="stop908" />
      <stop
         style="stop-color:#0b0b0b;stop-opacity:0.01568627;"
         offset="0.95886087"
         id="stop906" />
      <stop
         style="stop-color:#0b0b0b;stop-opacity:0.01176471;"
         offset="0.96356124"
         id="stop904" />
      <stop
         style="stop-color:#0b0b0b;stop-opacity:0.00784314;"
         offset="0.96845078"
         id="stop902" />
      <stop
         style="stop-color:#0b0b0b;stop-opacity:0.00392157;"
         offset="0.97347641"
         id="stop900" />
      <stop
         style="stop-color:#0b0b0b;stop-opacity:0;"
         offset="0.97812337"
         id="stop886" />
      <stop
         style="stop-color:#0b0b0b;stop-opacity:0;"
         offset="0.98456311"
         id="stop884" />
      <stop
         style="stop-color:#0b0b0b;stop-opacity:0;"
         offset="0.98700982"
         id="stop882" />
      <stop
         style="stop-color:#0b0b0b;stop-opacity:0;"
         offset="0.98924524"
         id="stop880" />
      <stop
         style="stop-color:#0b0b0b;stop-opacity:0;"
         offset="1"
         id="stop871" />
    </linearGradient>
    <linearGradient
       inkscape:collect="always"
       xlink:href="#linearGradient895"
       id="linearGradient897"
       x1="2685.9844"
       y1="1088.7905"
       x2="2685.9844"
       y2="1770.3615"
       gradientUnits="userSpaceOnUse"
       gradientTransform="matrix(0.04277854,0,0,0.04277854,-95.919086,-44.867312)" />
    <linearGradient
       inkscape:collect="always"
       id="linearGradient895">
      <stop
         style="stop-color:#535859;stop-opacity:1"
         offset="0"
         id="stop891" />
      <stop
         style="stop-color:#050505;stop-opacity:1"
         offset="1"
         id="stop893" />
    </linearGradient>
    <linearGradient
       inkscape:collect="always"
       id="linearGradient879">
      <stop
         style="stop-color:#303334;stop-opacity:1"
         offset="0"
         id="stop875" />
      <stop
         style="stop-color:#1a1a1c;stop-opacity:1"
         offset="1"
         id="stop877" />
    </linearGradient>
    <radialGradient
       inkscape:collect="always"
       xlink:href="#linearGradient873"
       id="radialGradient898"
       gradientUnits="userSpaceOnUse"
       cx="60.636452"
       cy="20.456388"
       fx="60.636452"
       fy="20.456388"
       r="17.303919"
       gradientTransform="translate(-43.433354,-3.9448764)" />
    <radialGradient
       inkscape:collect="always"
       xlink:href="#linearGradient879"
       id="radialGradient993"
       cx="16.786602"
       cy="3.5456841"
       fx="16.786602"
       fy="3.5456841"
       r="13.695572"
       gradientUnits="userSpaceOnUse"
       gradientTransform="matrix(4.8885673,0,0,1.5420669,-65.723642,-0.93384819)" />
    <linearGradient
       inkscape:collect="always"
       xlink:href="#linearGradient960"
       id="linearGradient962"
       x1="5.4192772"
       y1="0.64870965"
       x2="25.948286"
       y2="19.768625"
       gradientUnits="userSpaceOnUse"
       gradientTransform="translate(0.07823112,-0.33964914)" />
    <linearGradient
       inkscape:collect="always"
       id="linearGradient960">
      <stop
         style="stop-color:#fbd101;stop-opacity:1"
         offset="0"
         id="stop956" />
      <stop
         style="stop-color:#ffa139;stop-opacity:0.99521941"
         offset="1"
         id="stop958" />
    </linearGradient>
  </defs>
  <sodipodi:namedview
     id="base"
     pagecolor="#ffffff"
     bordercolor="#666666"
     borderopacity="1.0"
     inkscape:pageopacity="0.0"
     inkscape:pageshadow="2"
     inkscape:zoom="5.6"
     inkscape:cx="20.535714"
     inkscape:cy="46.785714"
     inkscape:document-units="mm"
     inkscape:current-layer="layer1"
     inkscape:document-rotation="0"
     showgrid="false"
     units="px"
     inkscape:window-width="1920"
     inkscape:window-height="1028"
     inkscape:window-x="0"
     inkscape:window-y="24"
     inkscape:window-maximized="1"
     inkscape:pagecheckerboard="0" />
  <metadata
     id="metadata1012">
    <rdf:RDF>
      <cc:Work
         rdf:about="">
        <dc:format>image/svg+xml</dc:format>
        <dc:type
           rdf:resource="http://purl.org/dc/dcmitype/StillImage" />
      </cc:Work>
    </rdf:RDF>
  </metadata>
  <g
     inkscape:label="Capa 1"
     inkscape:groupmode="layer"
     id="layer1">
    <circle
       style="opacity:0.309726;fill:url(#radialGradient898);fill-opacity:1;stroke-width:3;stroke-linecap:square;stroke-linejoin:round"
       id="path867"
       cx="17.203098"
       cy="16.511513"
       r="17.303919" />
    <circle
       style="fill:url(#linearGradient897);fill-opacity:1;stroke:#b1aaaa;stroke-width:0.0575565;stroke-linecap:square;stroke-opacity:0.992157"
       id="circle839"
       cx="17.203098"
       cy="16.511513"
       r="15.118138" />
    <circle
       style="fill:url(#radialGradient993);fill-opacity:1;stroke:none;stroke-width:0.0498826;stroke-linecap:square;stroke-opacity:1"
       id="circle839-3"
       cx="17.203098"
       cy="16.511513"
       r="13.102469" />
    <path
       inkscape:connector-curvature="0"
       style="display:inline;fill:#000000;fill-opacity:0.09288;stroke-width:0.134447;enable-background:new"
       d="m 24.164553,9.430306 c -0.973309,0.0032 -2.013952,0.06913 -2.911756,0.06913 -2.003659,0 -3.969394,-0.07096 -5.708274,0.05763 -2.686561,0.1986419 -4.678863,1.371981 -6.0559182,2.854136 -1.4066766,1.514114 -2.5026495,3.658059 -2.5026495,6.28832 0,2.741877 1.0641978,4.790924 2.5026495,6.28832 1.3684502,1.42444 3.3943722,2.683333 5.9406772,2.854135 4.696303,0.314749 7.822101,-2.314913 9.200076,-5.64873 0.894763,-2.164934 1.976491,-4.767416 2.911759,-7.045071 0.282601,-0.688124 0.838232,-1.562713 0.931531,-2.387408 C 28.658512,11.117153 27.779358,10.16958 26.667205,9.7318479 26.042905,9.486122 25.137864,9.427106 24.164553,9.430302 Z m 0.831656,1.048693 c 0.658601,-0.02832 1.347235,0.420957 1.263812,1.290701 -0.09483,0.988859 -1.082899,1.680691 -1.5135,2.329789 h 1.5135 c 0.09096,0.133561 0.09096,0.565632 0,0.699128 -0.759855,-0.07475 -1.607798,-0.06211 -2.44503,-0.05953 -0.356421,-1.307112 1.851906,-2.18382 1.628739,-3.259404 -0.105282,-0.507306 -0.828431,-0.523762 -0.697209,0.232404 H 23.87261 c -0.0151,-0.810952 0.542481,-1.208098 1.123599,-1.233081 z m -8.742952,0.772114 c 2.24251,0.0075 3.861573,0.895739 4.99954,1.916843 1.428068,1.281421 2.749403,3.892029 2.270248,6.755048 -0.391204,2.33727 -1.704231,4.195218 -3.843289,5.356787 -2.327686,1.264148 -5.25075,1.075231 -7.337015,-0.174775 -2.013307,-1.206314 -3.9084222,-3.54457 -3.6108843,-7.221773 0.1582026,-1.955227 1.0083431,-3.312735 2.0973853,-4.425257 1.014736,-1.036678 2.440592,-1.940922 4.425258,-2.153087 0.3463,-0.03702 0.678396,-0.05485 0.998757,-0.05377 z m -2.571797,1.974465 v 1.573039 h 1.340636 c 0.128514,0.453775 0.364131,0.799421 0.464805,1.281097 -1.148844,1.96082 -2.465158,4.098124 -3.608964,5.996375 -0.148008,0.245603 -0.367818,0.539835 -0.349564,0.816292 h 1.978306 c 1.008157,-1.437534 1.875262,-3.016059 2.911755,-4.425257 0.575715,1.637037 1.261936,3.163135 1.805445,4.832442 1.102316,-0.275657 2.215654,-0.539559 3.144157,-0.989153 -0.261887,-0.436931 -0.303359,-1.095325 -0.581965,-1.51542 -0.439332,0.181752 -0.8947,0.349212 -1.39826,0.466726 -0.941166,-2.74673 -2.08577,-5.289532 -3.026997,-8.036141 z"
       id="path1177" />
    <path
       inkscape:connector-curvature="0"
       style="display:inline;fill:url(#linearGradient962);fill-opacity:1;stroke-width:0.134447;enable-background:new"
       d="m 23.693195,8.7531906 c -0.973309,0.00318 -2.013952,0.069135 -2.911756,0.069135 -2.003659,0 -3.969394,-0.070963 -5.708274,0.057629 -2.686561,0.1986423 -4.678863,1.3719814 -6.0559186,2.8541364 -1.4066766,1.514114 -2.5026495,3.658059 -2.5026495,6.28832 0,2.741877 1.0641978,4.790924 2.5026495,6.28832 1.3684506,1.42444 3.3943726,2.683333 5.9406776,2.854135 4.696303,0.314749 7.822101,-2.314913 9.200076,-5.64873 0.894763,-2.164934 1.976491,-4.767416 2.911759,-7.045071 0.282601,-0.688124 0.838232,-1.562713 0.931531,-2.387408 C 28.187154,10.440042 27.308,9.4924689 26.195847,9.0547369 25.571547,8.8090111 24.666506,8.7499946 23.693195,8.7531906 Z m 0.831656,1.0486933 c 0.658601,-0.02832 1.347235,0.4209571 1.263812,1.2907011 -0.09483,0.988859 -1.082899,1.680691 -1.5135,2.329789 h 1.5135 c 0.09096,0.133561 0.09096,0.565632 0,0.699128 -0.759855,-0.07475 -1.607798,-0.06211 -2.44503,-0.05953 -0.356421,-1.307112 1.851906,-2.18382 1.628739,-3.259404 -0.105282,-0.507306 -0.828431,-0.523762 -0.697209,0.232404 h -0.873911 c -0.0151,-0.810952 0.542481,-1.2080981 1.123599,-1.2330811 z m -8.742952,0.7721141 c 2.24251,0.0075 3.861573,0.895739 4.99954,1.916843 1.428068,1.281421 2.749403,3.892029 2.270248,6.755048 -0.391204,2.33727 -1.704231,4.195218 -3.843289,5.356787 -2.327686,1.264148 -5.25075,1.075231 -7.337015,-0.174775 -2.0133072,-1.206314 -3.9084226,-3.54457 -3.6108847,-7.221773 0.1582026,-1.955227 1.0083425,-3.312735 2.0973857,-4.425257 1.014736,-1.036678 2.440592,-1.940922 4.425258,-2.153087 0.3463,-0.03702 0.678396,-0.05485 0.998757,-0.05377 z m -2.571797,1.974465 v 1.573039 h 1.340636 c 0.128514,0.453775 0.364131,0.799421 0.464805,1.281097 -1.148844,1.96082 -2.465158,4.098124 -3.608964,5.996375 -0.148008,0.245603 -0.367818,0.539835 -0.349564,0.816292 h 1.978306 c 1.008157,-1.437534 1.875262,-3.016059 2.911755,-4.425257 0.575715,1.637037 1.261936,3.163135 1.805445,4.832442 1.102316,-0.275657 2.215654,-0.539559 3.144157,-0.989153 -0.261887,-0.436931 -0.303359,-1.095325 -0.581965,-1.51542 -0.439332,0.181752 -0.8947,0.349212 -1.39826,0.466726 -0.941166,-2.74673 -2.08577,-5.289532 -3.026997,-8.036141 z"
       id="path7" />
  </g>
</svg>
