<?xml version="1.0" encoding="UTF-8" standalone="no"?>
<svg
   xmlns:dc="http://purl.org/dc/elements/1.1/"
   xmlns:cc="http://creativecommons.org/ns#"
   xmlns:rdf="http://www.w3.org/1999/02/22-rdf-syntax-ns#"
   xmlns:svg="http://www.w3.org/2000/svg"
   xmlns="http://www.w3.org/2000/svg"
   xmlns:xlink="http://www.w3.org/1999/xlink"
   xmlns:sodipodi="http://sodipodi.sourceforge.net/DTD/sodipodi-0.dtd"
   xmlns:inkscape="http://www.inkscape.org/namespaces/inkscape"
   width="128"
   height="128"
   viewBox="0 0 33.866666 33.866668"
   version="1.1"
   id="svg1015"
   inkscape:version="1.0.2 (e86c870879, 2021-01-15)"
   sodipodi:docname="homebank.svg">
  <defs
     id="defs1009">
    <linearGradient
       inkscape:collect="always"
       id="linearGradient873">
      <stop
         style="stop-color:#0b0b0b;stop-opacity:1;"
         offset="0"
         id="stop869" />
      <stop
         style="stop-color:#0b0b0b;stop-opacity:0.85882353;"
         offset="0.68076366"
         id="stop878" />
      <stop
         style="stop-color:#0b0b0b;stop-opacity:0.83137255;"
         offset="0.69925421"
         id="stop888" />
      <stop
         style="stop-color:#0b0b0b;stop-opacity:0.80392157;"
         offset="0.71879315"
         id="stop890" />
      <stop
         style="stop-color:#0b0b0b;stop-opacity:0.78039216;"
         offset="0.73593426"
         id="stop892" />
      <stop
         style="stop-color:#0b0b0b;stop-opacity:0.75686275;"
         offset="0.75022364"
         id="stop894" />
      <stop
         style="stop-color:#0b0b0b;stop-opacity:0.73333333;"
         offset="0.76798755"
         id="stop896" />
      <stop
         style="stop-color:#0b0b0b;stop-opacity:0.08235294;"
         offset="0.9150058"
         id="stop919" />
      <stop
         style="stop-color:#0b0b0b;stop-opacity:0.07058824;"
         offset="0.92246956"
         id="stop917" />
      <stop
         style="stop-color:#0b0b0b;stop-opacity:0.05882353;"
         offset="0.92918676"
         id="stop915" />
      <stop
         style="stop-color:#0b0b0b;stop-opacity:0.04705882;"
         offset="0.93840873"
         id="stop912" />
      <stop
         style="stop-color:#0b0b0b;stop-opacity:0.03137255;"
         offset="0.94760686"
         id="stop910" />
      <stop
         style="stop-color:#0b0b0b;stop-opacity:0.02352941;"
         offset="0.95380515"
         id="stop908" />
      <stop
         style="stop-color:#0b0b0b;stop-opacity:0.01568627;"
         offset="0.95886087"
         id="stop906" />
      <stop
         style="stop-color:#0b0b0b;stop-opacity:0.01176471;"
         offset="0.96356124"
         id="stop904" />
      <stop
         style="stop-color:#0b0b0b;stop-opacity:0.00784314;"
         offset="0.96845078"
         id="stop902" />
      <stop
         style="stop-color:#0b0b0b;stop-opacity:0.00392157;"
         offset="0.97347641"
         id="stop900" />
      <stop
         style="stop-color:#0b0b0b;stop-opacity:0;"
         offset="0.97812337"
         id="stop886" />
      <stop
         style="stop-color:#0b0b0b;stop-opacity:0;"
         offset="0.98456311"
         id="stop884" />
      <stop
         style="stop-color:#0b0b0b;stop-opacity:0;"
         offset="0.98700982"
         id="stop882" />
      <stop
         style="stop-color:#0b0b0b;stop-opacity:0;"
         offset="0.98924524"
         id="stop880" />
      <stop
         style="stop-color:#0b0b0b;stop-opacity:0;"
         offset="1"
         id="stop871" />
    </linearGradient>
    <linearGradient
       inkscape:collect="always"
       xlink:href="#linearGradient895"
       id="linearGradient897"
       x1="2685.9844"
       y1="1088.7905"
       x2="2685.9844"
       y2="1770.3615"
       gradientUnits="userSpaceOnUse"
       gradientTransform="matrix(0.04277854,0,0,0.04277854,-95.919086,-44.867312)" />
    <linearGradient
       inkscape:collect="always"
       id="linearGradient895">
      <stop
         style="stop-color:#ffe95f;stop-opacity:1"
         offset="0"
         id="stop891" />
      <stop
         style="stop-color:#ffa115;stop-opacity:1"
         offset="1"
         id="stop893" />
    </linearGradient>
    <linearGradient
       inkscape:collect="always"
       id="linearGradient879">
      <stop
         style="stop-color:#fcd840;stop-opacity:1"
         offset="0"
         id="stop875" />
      <stop
         style="stop-color:#ffb937;stop-opacity:1"
         offset="1"
         id="stop877" />
    </linearGradient>
    <radialGradient
       inkscape:collect="always"
       xlink:href="#linearGradient873"
       id="radialGradient898"
       gradientUnits="userSpaceOnUse"
       cx="60.636452"
       cy="20.456388"
       fx="60.636452"
       fy="20.456388"
       r="17.303919"
       gradientTransform="translate(-43.433354,-3.9448764)" />
    <radialGradient
       inkscape:collect="always"
       xlink:href="#linearGradient879"
       id="radialGradient993"
       cx="16.968126"
       cy="4.670938"
       fx="16.968126"
       fy="4.670938"
       r="13.695572"
       gradientUnits="userSpaceOnUse"
       gradientTransform="matrix(4.8885673,0,0,1.8641486,-65.723642,-2.4382716)" />
    <linearGradient
       inkscape:collect="always"
       xlink:href="#linearGradient944"
       id="linearGradient946"
       x1="9.625701"
       y1="6.6789994"
       x2="9.625701"
       y2="23.788414"
       gradientUnits="userSpaceOnUse" />
    <linearGradient
       inkscape:collect="always"
       id="linearGradient944">
      <stop
         style="stop-color:#fdfbf2;stop-opacity:1"
         offset="0"
         id="stop940" />
      <stop
         style="stop-color:#fef8ec;stop-opacity:1"
         offset="1"
         id="stop942" />
    </linearGradient>
    <linearGradient
       inkscape:collect="always"
       xlink:href="#linearGradient952"
       id="linearGradient954"
       x1="16.85738"
       y1="10.649665"
       x2="16.85738"
       y2="16.444195"
       gradientUnits="userSpaceOnUse" />
    <linearGradient
       inkscape:collect="always"
       id="linearGradient952">
      <stop
         style="stop-color:#fdf5dc;stop-opacity:1"
         offset="0"
         id="stop948" />
      <stop
         style="stop-color:#fef5dd;stop-opacity:1"
         offset="1"
         id="stop950" />
    </linearGradient>
    <linearGradient
       inkscape:collect="always"
       xlink:href="#linearGradient960"
       id="linearGradient962"
       x1="22.084728"
       y1="7.0924053"
       x2="22.084728"
       y2="22.052294"
       gradientUnits="userSpaceOnUse" />
    <linearGradient
       inkscape:collect="always"
       id="linearGradient960">
      <stop
         style="stop-color:#fdefbe;stop-opacity:1"
         offset="0"
         id="stop956" />
      <stop
         style="stop-color:#feeabe;stop-opacity:1"
         offset="1"
         id="stop958" />
    </linearGradient>
    <linearGradient
       inkscape:collect="always"
       xlink:href="#linearGradient976"
       id="linearGradient978"
       x1="25.694004"
       y1="27.268154"
       x2="25.694004"
       y2="8.2271395"
       gradientUnits="userSpaceOnUse" />
    <linearGradient
       inkscape:collect="always"
       id="linearGradient976">
      <stop
         style="stop-color:#ffd17a;stop-opacity:1"
         offset="0"
         id="stop972" />
      <stop
         style="stop-color:#fdde79;stop-opacity:1"
         offset="1"
         id="stop974" />
    </linearGradient>
    <linearGradient
       inkscape:collect="always"
       xlink:href="#linearGradient968"
       id="linearGradient970"
       x1="28.182035"
       y1="22.284742"
       x2="28.182035"
       y2="8.7310457"
       gradientUnits="userSpaceOnUse" />
    <linearGradient
       inkscape:collect="always"
       id="linearGradient968">
      <stop
         style="stop-color:#fee09d;stop-opacity:1"
         offset="0"
         id="stop964" />
      <stop
         style="stop-color:#fde69d;stop-opacity:1"
         offset="1"
         id="stop966" />
    </linearGradient>
    <linearGradient
       inkscape:collect="always"
       xlink:href="#linearGradient984"
       id="linearGradient986"
       x1="28.555946"
       y1="24.693213"
       x2="28.555946"
       y2="6.9008422"
       gradientUnits="userSpaceOnUse" />
    <linearGradient
       inkscape:collect="always"
       id="linearGradient984">
      <stop
         style="stop-color:#fecc61;stop-opacity:1"
         offset="0"
         id="stop980" />
      <stop
         style="stop-color:#fdd960;stop-opacity:1"
         offset="1"
         id="stop982" />
    </linearGradient>
  </defs>
  <sodipodi:namedview
     id="base"
     pagecolor="#ffffff"
     bordercolor="#666666"
     borderopacity="1.0"
     inkscape:pageopacity="0.0"
     inkscape:pageshadow="2"
     inkscape:zoom="3.959798"
     inkscape:cx="36.375393"
     inkscape:cy="30.44122"
     inkscape:document-units="mm"
     inkscape:current-layer="layer1"
     inkscape:document-rotation="0"
     showgrid="false"
     units="px"
     inkscape:window-width="1920"
     inkscape:window-height="1028"
     inkscape:window-x="0"
     inkscape:window-y="24"
     inkscape:window-maximized="1" />
  <metadata
     id="metadata1012">
    <rdf:RDF>
      <cc:Work
         rdf:about="">
        <dc:format>image/svg+xml</dc:format>
        <dc:type
           rdf:resource="http://purl.org/dc/dcmitype/StillImage" />
        <dc:title></dc:title>
      </cc:Work>
    </rdf:RDF>
  </metadata>
  <g
     inkscape:label="Capa 1"
     inkscape:groupmode="layer"
     id="layer1">
    <circle
       style="opacity:0.309726;fill:url(#radialGradient898);fill-opacity:1;stroke-width:3;stroke-linecap:square;stroke-linejoin:round"
       id="path867"
       cx="17.203098"
       cy="16.511513"
       r="17.303919" />
    <circle
       style="fill:url(#linearGradient897);fill-opacity:1;stroke:#b1aaaa;stroke-width:0.0575565;stroke-linecap:square;stroke-opacity:0.992157"
       id="circle839"
       cx="17.203098"
       cy="16.511513"
       r="15.118138" />
    <circle
       style="fill:url(#radialGradient993);fill-opacity:1;stroke:none;stroke-width:0.0498826;stroke-linecap:square;stroke-opacity:1"
       id="circle839-3"
       cx="17.203098"
       cy="16.511513"
       r="13.102469" />
    <g
       id="g1074"
       style="opacity:0.320857"
       transform="matrix(0.95182463,0,0,0.95182463,1.0216019,0.73377802)">
      <path
         id="path841-3-2-2"
         style="fill:#6e3e00;fill-opacity:0.249675;stroke:none;stroke-width:0.0607114px;stroke-linecap:butt;stroke-linejoin:miter;stroke-opacity:1"
         d="m 25.028958,7.049265 -4.983326,1.6443097 -6.696881,-0.2542295 0.421424,1.6657708 h -1.22e-4 L 13.34863,8.4393452 8.0369661,11.285078 l 1.22e-4,2.52e-4 -1.801068,5.948778 0.967115,3.919212 v 1.21e-4 l 2.755731,3.552808 0.7760889,2.394784 3.740991,0.09676 1.414032,-2.12917 0.839408,0.184149 0.936641,1.904468 3.614112,-0.0097 1.339447,-2.599092 4.830243,-3.764479 -0.912215,-1.544111 2.174584,-0.808103 0.336997,-3.114666 -1.944426,-0.419763 -3.103853,-4.543886 -0.279751,1.570327 -8.25e-4,-7.11e-4 0.535846,-1.9956528 2.042376,-1.7295674 z m -16.9919889,4.235813 -0.233716,-1.006721 -0.01755,-1.5901186 -1.49917,1.5322536 h 1.21e-4 v 1.21e-4 l 0.05502,1.481504 h -1.22e-4 l 0.982648,1.878617 z m 5.8482259,-0.469803 -4.1257739,5.205892 4.1254179,-5.205655 z"
         sodipodi:nodetypes="cccccccccccccccccccccccccccccccccccccccccccc" />
      <path
         id="path1058"
         style="fill:#6e3e00;fill-opacity:0.186818;stroke:none;stroke-width:0.0607114px;stroke-linecap:butt;stroke-linejoin:miter;stroke-opacity:1"
         d="M 25.338856,7.268049 20.35553,8.9123587 13.658649,8.6581292 14.080073,10.3239 h -1.22e-4 l -0.421423,-1.6657708 -5.3116641,2.8457328 1.22e-4,2.52e-4 -1.801068,5.948778 0.967115,3.919212 v 1.21e-4 l 2.7557311,3.552808 0.776089,2.394784 3.740991,0.09676 1.414032,-2.12917 0.839408,0.184149 0.936641,1.904468 3.614112,-0.0097 1.339447,-2.599092 4.830243,-3.764479 -0.912215,-1.544111 2.174584,-0.808103 0.336997,-3.114666 -1.944426,-0.419763 -3.103853,-4.543886 -0.279751,1.570327 -8.25e-4,-7.11e-4 0.535846,-1.995653 2.042376,-1.7295672 z m -16.9919891,4.235813 -0.233716,-1.006721 -0.01755,-1.5901186 -1.49917,1.5322536 h 1.21e-4 v 1.21e-4 l 0.05502,1.481504 h -1.22e-4 l 0.982648,1.878617 z m 5.8482261,-0.469803 -4.125774,5.205892 4.125418,-5.205655 z"
         sodipodi:nodetypes="cccccccccccccccccccccccccccccccccccccccccccc" />
      <path
         id="path1060"
         style="fill:#6e3e00;fill-opacity:0.109381;stroke:none;stroke-width:0.0607114px;stroke-linecap:butt;stroke-linejoin:miter;stroke-opacity:1"
         d="m 25.584564,7.4006864 -4.983326,1.6443097 -6.696881,-0.2542295 0.421424,1.6657704 h -1.22e-4 l -0.421423,-1.6657704 -5.3116641,2.8457324 1.22e-4,2.52e-4 -1.801068,5.948778 0.967115,3.919212 v 1.21e-4 l 2.7557311,3.552808 0.776089,2.394784 3.740991,0.09676 1.414032,-2.12917 0.839408,0.184149 0.936641,1.904468 3.614112,-0.0097 1.339447,-2.599092 4.830243,-3.764479 -0.912215,-1.544111 2.174584,-0.808103 0.336997,-3.114666 -1.944426,-0.419763 -3.103853,-4.543886 -0.279751,1.570327 -8.25e-4,-7.11e-4 0.535846,-1.995653 2.042376,-1.7295668 z M 8.5925749,11.636499 8.3588589,10.629778 8.3413089,9.0396598 6.8421389,10.571913 h 1.21e-4 v 1.21e-4 l 0.05502,1.481504 h -1.22e-4 l 0.982648,1.878617 z m 5.8482261,-0.469803 -4.125774,5.205892 4.125418,-5.205655 z"
         sodipodi:nodetypes="cccccccccccccccccccccccccccccccccccccccccccc" />
      <path
         id="path1062"
         style="fill:#6e3e00;fill-opacity:0.067849;stroke:none;stroke-width:0.0607114px;stroke-linecap:butt;stroke-linejoin:miter;stroke-opacity:1"
         d="m 25.893652,7.6154041 -4.983326,1.6443097 -6.696881,-0.2542295 0.421424,1.6657707 h -1.22e-4 l -0.421423,-1.6657707 -5.3116644,2.8457327 1.22e-4,2.52e-4 -1.801068,5.948778 0.967115,3.919212 v 1.21e-4 l 2.7557314,3.552808 0.776089,2.394784 3.740991,0.09676 1.414032,-2.12917 0.839408,0.184149 0.936641,1.904468 3.614112,-0.0097 1.339447,-2.599092 4.830243,-3.764479 -0.912215,-1.544111 2.174584,-0.808103 0.336997,-3.114666 -1.944426,-0.419763 -3.103853,-4.543886 -0.279751,1.570327 -8.25e-4,-7.11e-4 0.535846,-1.995653 2.042376,-1.7295671 z M 8.9016626,11.851217 8.6679466,10.844496 8.6503966,9.2543775 7.1512266,10.786631 h 1.21e-4 v 1.21e-4 l 0.05502,1.481504 h -1.22e-4 l 0.982648,1.878617 z m 5.8482264,-0.469803 -4.125774,5.205892 4.125418,-5.205655 z"
         sodipodi:nodetypes="cccccccccccccccccccccccccccccccccccccccccccc" />
      <path
         id="path1064"
         style="fill:#6e3e00;fill-opacity:0.067849;stroke:none;stroke-width:0.0607114px;stroke-linecap:butt;stroke-linejoin:miter;stroke-opacity:1"
         d="m 26.321858,7.9270584 -4.983326,1.6443097 -6.696881,-0.2542295 0.421424,1.6657704 h -1.22e-4 L 14.64153,9.3171386 9.3298657,12.162871 l 1.22e-4,2.52e-4 -1.801068,5.948778 0.967115,3.919212 v 1.21e-4 l 2.7557313,3.552808 0.776089,2.394784 3.740991,0.09676 1.414032,-2.12917 0.839408,0.184149 0.936641,1.904468 3.614112,-0.0097 1.339447,-2.599092 4.830243,-3.764479 -0.912215,-1.544111 2.174584,-0.808103 0.336997,-3.114666 -1.944426,-0.419763 -3.103853,-4.543886 -0.279751,1.570327 -8.25e-4,-7.11e-4 0.535846,-1.995653 2.042376,-1.7295668 z M 9.3298687,12.162871 9.0961527,11.15615 9.0786027,9.5660318 7.5794327,11.098285 h 1.21e-4 v 1.21e-4 l 0.05502,1.481504 h -1.22e-4 l 0.982648,1.878617 z m 5.8482263,-0.469803 -4.125774,5.205892 4.125418,-5.205655 z"
         sodipodi:nodetypes="cccccccccccccccccccccccccccccccccccccccccccc" />
      <path
         id="path1066"
         style="fill:#6e3e00;fill-opacity:0.0282179;stroke:none;stroke-width:0.0607114px;stroke-linecap:butt;stroke-linejoin:miter;stroke-opacity:1"
         d="m 26.779234,8.2785279 -4.983326,1.6443097 -6.696881,-0.2542295 0.421424,1.6657709 h -1.22e-4 l -0.421423,-1.6657709 -5.3116645,2.8457329 1.22e-4,2.52e-4 -1.801068,5.948778 0.967115,3.919212 v 1.21e-4 l 2.7557315,3.552808 0.776089,2.394784 3.740991,0.09676 1.414032,-2.12917 0.839408,0.184149 0.936641,1.904468 3.614112,-0.0097 1.339447,-2.599092 4.830243,-3.764479 -0.912215,-1.544111 2.174584,-0.808103 0.336997,-3.114666 -1.944426,-0.419763 -3.103853,-4.543886 -0.279751,1.570327 -8.25e-4,-7.11e-4 0.535846,-1.995653 2.042376,-1.7295673 z M 9.7872445,12.514341 9.5535285,11.50762 9.5359785,9.9175013 8.0368085,11.449755 h 1.21e-4 v 1.21e-4 l 0.05502,1.481504 h -1.22e-4 l 0.982648,1.878617 z m 5.8482265,-0.469803 -4.125774,5.205892 4.125418,-5.205655 z"
         sodipodi:nodetypes="cccccccccccccccccccccccccccccccccccccccccccc" />
    </g>
    <g
       id="g1056"
       transform="matrix(0.95182463,0,0,0.95182463,1.0216019,0.73377802)">
      <path
         id="path841-3-2"
         style="fill:#fdcb3c;fill-opacity:1;stroke:none;stroke-width:0.0607114px;stroke-linecap:butt;stroke-linejoin:miter;stroke-opacity:1"
         d="M 24.679078,7.0385086 19.695752,8.6828183 12.998871,8.4285888 13.420295,10.09436 h -1.22e-4 L 12.99875,8.4285888 7.6870862,11.274322 l 1.215e-4,2.52e-4 -1.8010681,5.948778 0.9671158,3.919212 v 1.21e-4 l 2.755731,3.552808 0.7760886,2.394784 3.740991,0.09676 1.414032,-2.12917 0.839408,0.184149 0.936641,1.904468 3.614112,-0.0097 1.339447,-2.599092 4.830243,-3.764479 -0.912215,-1.544111 2.174584,-0.808103 0.336997,-3.114666 -1.944426,-0.419763 -3.103853,-4.543886 -0.279751,1.570327 -8.25e-4,-7.11e-4 0.535846,-1.9956536 2.042376,-1.729567 z M 7.687089,11.274322 7.4533726,10.267601 7.435825,8.677482 5.9366547,10.209736 h 1.215e-4 v 1.21e-4 l 0.05502,1.481504 h -1.223e-4 l 0.9826484,1.878617 z m 5.848226,-0.469803 -4.1257739,5.205892 4.1254179,-5.205655 z"
         sodipodi:nodetypes="cccccccccccccccccccccccccccccccccccccccccccc" />
      <path
         id="path841-3"
         style="fill:url(#linearGradient946);fill-opacity:1;stroke:none;stroke-width:0.0607114px;stroke-linecap:butt;stroke-linejoin:miter;stroke-opacity:1"
         d="m 7.4409265,8.658475 -1.4991703,1.532254 1.5167189,0.05787 z m 6.1483435,2.065139 -5.8970785,0.531701 1.7223324,4.736209 z m -4.1747461,5.26791 -2.5562856,5.132136 8.2858147,1.028064 z" />
      <path
         id="path849-6"
         style="fill:url(#linearGradient954);fill-opacity:1;stroke:none;stroke-width:0.0607114px;stroke-linecap:butt;stroke-linejoin:miter;stroke-opacity:1"
         d="m 5.9418103,10.190754 0.05502,1.481622 1.6954155,-0.417036 z m 1.7504359,1.064586 -1.8010681,5.949015 3.5234015,-1.212807 z m 1.7223334,4.736208 8.9346684,-0.404822 -4.759923,-4.863086 z m 0.1994453,8.684945 0.7760891,2.394785 5.155022,-2.032413 z"
         sodipodi:nodetypes="cccccccccccccccc" />
      <path
         id="path859-7"
         style="fill:#feebbe;fill-opacity:1;stroke:none;stroke-width:0.0607114px;stroke-linecap:butt;stroke-linejoin:miter;stroke-opacity:1"
         d="m 9.4145796,15.991548 -3.5234015,1.212807 0.9671159,3.91933 z m -2.5562856,5.132137 2.7557309,3.552808 5.9311111,0.362372 0.839527,0.184151 -1.240555,-3.071267 z" />
      <path
         id="path873-5"
         style="fill:url(#linearGradient962);fill-opacity:1;stroke:none;stroke-width:0.0607114px;stroke-linecap:butt;stroke-linejoin:miter;stroke-opacity:1"
         d="m 24.684176,7.0195458 -4.983441,1.6443097 3.669726,3.2484215 z m -4.983441,1.6443097 -6.111466,2.0598035 4.759924,4.863086 z m -1.351542,6.9228895 -8.9346709,0.404823 5.7295299,6.1602 z M 13.589269,10.723659 13.003854,8.409626 7.6921906,11.25536 Z" />
      <path
         id="path917-3"
         style="fill:url(#linearGradient978);fill-opacity:1;stroke:none;stroke-width:0.0607114px;stroke-linecap:butt;stroke-linejoin:miter;stroke-opacity:1"
         d="M 5.9417544,10.190773 7.6921906,11.25536 7.4584742,10.248638 Z m 1.7504362,1.064587 -1.6954161,0.417034 0.982648,1.878619 z m 16.0539364,-0.760401 -0.375666,1.417318 3.389526,2.955298 z m 3.01386,4.372616 -8.410794,0.71917 5.048659,4.661979 z m -3.362135,5.381149 -8.2538,1.903044 1.240554,3.071266 5.890201,-0.704348 z m -7.013246,4.97431 0.936641,1.904468 3.614113,-0.0097 z"
         sodipodi:nodetypes="ccccccccccccccccccccccccc" />
      <path
         id="path960-5"
         style="fill:url(#linearGradient970);fill-opacity:1;stroke:none;stroke-width:0.0607114px;stroke-linecap:butt;stroke-linejoin:miter;stroke-opacity:1"
         d="m 19.700735,8.6638555 -1.351542,6.9228895 8.410794,-0.71917 z m -1.351542,6.9228895 -3.205141,6.565023 8.2538,-1.903044 z m 3.925614,8.931941 -5.890201,0.704348 4.550754,1.894745 z" />
      <path
         id="path985-9"
         style="fill:#fde59d;fill-opacity:1;stroke:none;stroke-width:0.0607114px;stroke-linecap:butt;stroke-linejoin:miter;stroke-opacity:1"
         d="m 13.003909,8.4096064 0.585416,2.3140336 6.111466,-2.059804 z m 2.541227,16.6292586 -5.155022,2.032413 3.740991,0.09676 z" />
      <path
         id="path1034"
         style="fill:url(#linearGradient986);fill-opacity:1;stroke:none;stroke-width:0.0607114px;stroke-linecap:butt;stroke-linejoin:miter;stroke-opacity:1"
         d="m 24.684176,7.0195458 -0.790791,2.8934006 2.060397,-1.7448621 z m -10.812337,2.8304376 -2.252848,1.1372736 0.03119,0.701383 2.37676,-1.135495 2.830438,0.09652 -0.09925,-0.7177476 z m 12.888148,5.0175916 -3.362135,5.381149 4.969565,-1.846721 0.336997,-3.114665 z m -3.362135,5.381149 -1.123045,4.269962 4.830243,-3.764468 z" />
      <path
         style="fill:#fef2d8;fill-opacity:1;stroke:none;stroke-width:0.0607114px;stroke-linecap:butt;stroke-linejoin:miter;stroke-opacity:1"
         d="m 27.10505,20.754217 -1.081624,-1.830846 -2.625573,1.325308 z"
         id="path1039" />
    </g>
  </g>
</svg>
