<?xml version="1.0" encoding="UTF-8" standalone="no"?>
<svg
   xmlns:dc="http://purl.org/dc/elements/1.1/"
   xmlns:cc="http://creativecommons.org/ns#"
   xmlns:rdf="http://www.w3.org/1999/02/22-rdf-syntax-ns#"
   xmlns:svg="http://www.w3.org/2000/svg"
   xmlns="http://www.w3.org/2000/svg"
   xmlns:xlink="http://www.w3.org/1999/xlink"
   xmlns:sodipodi="http://sodipodi.sourceforge.net/DTD/sodipodi-0.dtd"
   xmlns:inkscape="http://www.inkscape.org/namespaces/inkscape"
   width="128"
   height="128"
   viewBox="0 0 33.866666 33.866668"
   version="1.1"
   id="svg1015"
   inkscape:version="1.0.2 (e86c870879, 2021-01-15)"
   sodipodi:docname="irccloud-desktop.svg">
  <defs
     id="defs1009">
    <linearGradient
       inkscape:collect="always"
       id="linearGradient873">
      <stop
         style="stop-color:#0b0b0b;stop-opacity:1;"
         offset="0"
         id="stop869" />
      <stop
         style="stop-color:#0b0b0b;stop-opacity:0.85882353;"
         offset="0.68076366"
         id="stop878" />
      <stop
         style="stop-color:#0b0b0b;stop-opacity:0.83137255;"
         offset="0.69925421"
         id="stop888" />
      <stop
         style="stop-color:#0b0b0b;stop-opacity:0.80392157;"
         offset="0.71879315"
         id="stop890" />
      <stop
         style="stop-color:#0b0b0b;stop-opacity:0.78039216;"
         offset="0.73593426"
         id="stop892" />
      <stop
         style="stop-color:#0b0b0b;stop-opacity:0.75686275;"
         offset="0.75022364"
         id="stop894" />
      <stop
         style="stop-color:#0b0b0b;stop-opacity:0.73333333;"
         offset="0.76798755"
         id="stop896" />
      <stop
         style="stop-color:#0b0b0b;stop-opacity:0.08235294;"
         offset="0.9150058"
         id="stop919" />
      <stop
         style="stop-color:#0b0b0b;stop-opacity:0.07058824;"
         offset="0.92246956"
         id="stop917" />
      <stop
         style="stop-color:#0b0b0b;stop-opacity:0.05882353;"
         offset="0.92918676"
         id="stop915" />
      <stop
         style="stop-color:#0b0b0b;stop-opacity:0.04705882;"
         offset="0.93840873"
         id="stop912" />
      <stop
         style="stop-color:#0b0b0b;stop-opacity:0.03137255;"
         offset="0.94760686"
         id="stop910" />
      <stop
         style="stop-color:#0b0b0b;stop-opacity:0.02352941;"
         offset="0.95380515"
         id="stop908" />
      <stop
         style="stop-color:#0b0b0b;stop-opacity:0.01568627;"
         offset="0.95886087"
         id="stop906" />
      <stop
         style="stop-color:#0b0b0b;stop-opacity:0.01176471;"
         offset="0.96356124"
         id="stop904" />
      <stop
         style="stop-color:#0b0b0b;stop-opacity:0.00784314;"
         offset="0.96845078"
         id="stop902" />
      <stop
         style="stop-color:#0b0b0b;stop-opacity:0.00392157;"
         offset="0.97347641"
         id="stop900" />
      <stop
         style="stop-color:#0b0b0b;stop-opacity:0;"
         offset="0.97812337"
         id="stop886" />
      <stop
         style="stop-color:#0b0b0b;stop-opacity:0;"
         offset="0.98456311"
         id="stop884" />
      <stop
         style="stop-color:#0b0b0b;stop-opacity:0;"
         offset="0.98700982"
         id="stop882" />
      <stop
         style="stop-color:#0b0b0b;stop-opacity:0;"
         offset="0.98924524"
         id="stop880" />
      <stop
         style="stop-color:#0b0b0b;stop-opacity:0;"
         offset="1"
         id="stop871" />
    </linearGradient>
    <linearGradient
       inkscape:collect="always"
       xlink:href="#linearGradient895"
       id="linearGradient897"
       x1="2685.9844"
       y1="1088.7905"
       x2="2685.9844"
       y2="1770.3615"
       gradientUnits="userSpaceOnUse"
       gradientTransform="matrix(0.04277854,0,0,0.04277854,-95.919086,-44.867312)" />
    <linearGradient
       inkscape:collect="always"
       id="linearGradient895">
      <stop
         style="stop-color:#52c4ff;stop-opacity:1"
         offset="0"
         id="stop891" />
      <stop
         style="stop-color:#0441ff;stop-opacity:1"
         offset="1"
         id="stop893" />
    </linearGradient>
    <linearGradient
       inkscape:collect="always"
       id="linearGradient879">
      <stop
         style="stop-color:#4ec5fc;stop-opacity:1"
         offset="0"
         id="stop875" />
      <stop
         style="stop-color:#004bf2;stop-opacity:1"
         offset="1"
         id="stop877" />
    </linearGradient>
    <radialGradient
       inkscape:collect="always"
       xlink:href="#linearGradient873"
       id="radialGradient898"
       gradientUnits="userSpaceOnUse"
       cx="60.636452"
       cy="20.456388"
       fx="60.636452"
       fy="20.456388"
       r="17.303919"
       gradientTransform="translate(-43.433354,-3.9448764)" />
    <radialGradient
       inkscape:collect="always"
       xlink:href="#linearGradient879"
       id="radialGradient993"
       cx="16.968126"
       cy="4.670938"
       fx="16.968126"
       fy="4.670938"
       r="13.695572"
       gradientUnits="userSpaceOnUse"
       gradientTransform="matrix(4.8885673,0,0,1.8641486,-65.723642,-2.4382716)" />
    <linearGradient
       inkscape:collect="always"
       xlink:href="#linearGradient961"
       id="linearGradient963"
       x1="14.324452"
       y1="13.463608"
       x2="14.324452"
       y2="23.481455"
       gradientUnits="userSpaceOnUse"
       gradientTransform="translate(0.0163173,-1.2898142)" />
    <linearGradient
       inkscape:collect="always"
       id="linearGradient961">
      <stop
         style="stop-color:#ffffff;stop-opacity:1;"
         offset="0"
         id="stop957" />
      <stop
         style="stop-color:#c2e4ff;stop-opacity:1"
         offset="1"
         id="stop959" />
    </linearGradient>
  </defs>
  <sodipodi:namedview
     id="base"
     pagecolor="#ffffff"
     bordercolor="#666666"
     borderopacity="1.0"
     inkscape:pageopacity="0.0"
     inkscape:pageshadow="2"
     inkscape:zoom="1.979899"
     inkscape:cx="-123.33256"
     inkscape:cy="33.203473"
     inkscape:document-units="mm"
     inkscape:current-layer="layer1"
     inkscape:document-rotation="0"
     showgrid="false"
     units="px"
     inkscape:window-width="1920"
     inkscape:window-height="1028"
     inkscape:window-x="0"
     inkscape:window-y="24"
     inkscape:window-maximized="1" />
  <metadata
     id="metadata1012">
    <rdf:RDF>
      <cc:Work
         rdf:about="">
        <dc:format>image/svg+xml</dc:format>
        <dc:type
           rdf:resource="http://purl.org/dc/dcmitype/StillImage" />
        <dc:title></dc:title>
      </cc:Work>
    </rdf:RDF>
  </metadata>
  <g
     inkscape:label="Capa 1"
     inkscape:groupmode="layer"
     id="layer1">
    <circle
       style="opacity:0.309726;fill:url(#radialGradient898);fill-opacity:1;stroke-width:3;stroke-linecap:square;stroke-linejoin:round"
       id="path867"
       cx="17.203098"
       cy="16.511513"
       r="17.303919" />
    <circle
       style="fill:url(#linearGradient897);fill-opacity:1;stroke:#b1aaaa;stroke-width:0.0575565;stroke-linecap:square;stroke-opacity:0.992157"
       id="circle839"
       cx="17.203098"
       cy="16.511513"
       r="15.118138" />
    <circle
       style="fill:url(#radialGradient993);fill-opacity:1;stroke:none;stroke-width:0.0498826;stroke-linecap:square;stroke-opacity:1"
       id="circle839-3"
       cx="17.203098"
       cy="16.511513"
       r="13.102469" />
    <path
       d="m 17.892573,7.8609112 c -2.998011,0.0032 -5.490741,2.4068618 -5.603687,5.4028928 -1.932626,0.453103 -3.3104275,2.18956 -3.3130715,4.174364 0,2.355345 1.9379095,4.293254 4.2932545,4.293254 0,0 0.288639,0.328929 0.16908,1.243722 -0.1037,0.795242 -2.450392,1.475676 -2.450392,1.475676 0,0 4.047484,1.235679 6.02238,-0.192984 1.715979,-1.24108 1.8745,-2.527736 1.8745,-2.527736 l 4.952433,0.0013 c 1.992731,0 3.632755,-1.640024 3.632755,-3.632755 0,-1.99273 -1.640024,-3.632752 -3.632755,-3.632752 -0.143317,0.0013 -0.285995,0.01123 -0.428004,0.02973 0.06341,-0.336195 0.09643,-0.678334 0.09776,-1.020473 0,-3.079914 -2.534342,-5.6142538 -5.614256,-5.6142538 z"
       fill="#ffffff"
       fill-rule="nonzero"
       id="path950"
       style="fill:#001e6e;fill-opacity:0.269708;stroke-width:0.6605"
       sodipodi:nodetypes="cccccccccsccccc" />
    <path
       d="m 17.107301,7.4145309 c -2.998011,0.0032 -5.490741,2.4068619 -5.603687,5.4028921 -1.9326255,0.453103 -3.3104275,2.18956 -3.3130715,4.174364 0,2.355345 1.9379095,4.293256 4.2932545,4.293256 0,0 0.288639,0.328928 0.16908,1.243721 -0.1037,0.795242 -1.66512,1.922056 -1.66512,1.922056 0,0 3.262212,0.7893 5.237108,-0.639363 1.715979,-1.24108 1.8745,-2.527737 1.8745,-2.527737 l 4.952433,0.0013 c 1.992731,0 3.632755,-1.640024 3.632755,-3.632755 0,-1.99273 -1.640024,-3.632752 -3.632755,-3.632752 -0.143317,0.0013 -0.285995,0.01123 -0.428004,0.02973 0.06341,-0.336195 0.09643,-0.678334 0.09776,-1.020473 0,-3.0799137 -2.534342,-5.6142541 -5.614256,-5.6142541 z"
       fill="#ffffff"
       fill-rule="nonzero"
       id="path9"
       style="fill:url(#linearGradient963);fill-opacity:1;stroke-width:0.6605" />
    <path
       id="path952"
       style="fill:#0075ff;fill-opacity:0.0973405;stroke-width:0.660501"
       d="m 17.107263,7.4145641 c -0.384637,4.233e-4 -0.760951,0.040655 -1.124996,0.1162719 0.09999,-0.00551 0.200577,-0.00868 0.30179,-0.00878 3.079914,-2e-7 5.614128,2.53473 5.614128,5.614644 -0.0013,0.342139 -0.03426,0.683897 -0.09767,1.020092 0.142009,-0.0185 0.284564,-0.02815 0.427881,-0.02946 1.992731,0 3.632854,1.640123 3.632854,3.632853 0,1.694353 -1.18727,3.129729 -2.767273,3.522782 1.973364,-0.02327 3.590478,-1.652336 3.590478,-3.630786 0,-1.99273 -1.640122,-3.632853 -3.632853,-3.632853 -0.143317,0.0013 -0.285872,0.01147 -0.427881,0.02997 0.06341,-0.336195 0.09634,-0.67847 0.09767,-1.020609 0,-3.0799137 -2.534214,-5.6141272 -5.614128,-5.6141269 z m 0.168465,13.9769239 c 0,0 -0.158325,1.286414 -1.874304,2.527494 -0.53186,0.384755 -1.157241,0.605324 -1.786971,0.727088 0.887211,-0.06249 1.844845,-0.280924 2.610177,-0.834575 1.50599,-1.089206 1.797064,-2.161149 1.849499,-2.420007 z" />
  </g>
</svg>
