<?xml version="1.0" encoding="UTF-8" standalone="no"?>
<svg
   width="128"
   height="128"
   viewBox="0 0 33.866666 33.866668"
   version="1.1"
   id="svg1015"
   inkscape:version="1.1.2 (0a00cf5339, 2022-02-04)"
   sodipodi:docname="metasploit.svg"
   xmlns:inkscape="http://www.inkscape.org/namespaces/inkscape"
   xmlns:sodipodi="http://sodipodi.sourceforge.net/DTD/sodipodi-0.dtd"
   xmlns:xlink="http://www.w3.org/1999/xlink"
   xmlns="http://www.w3.org/2000/svg"
   xmlns:svg="http://www.w3.org/2000/svg"
   xmlns:rdf="http://www.w3.org/1999/02/22-rdf-syntax-ns#"
   xmlns:cc="http://creativecommons.org/ns#"
   xmlns:dc="http://purl.org/dc/elements/1.1/">
  <defs
     id="defs1009">
    <linearGradient
       inkscape:collect="always"
       id="linearGradient873">
      <stop
         style="stop-color:#0b0b0b;stop-opacity:1;"
         offset="0"
         id="stop869" />
      <stop
         style="stop-color:#0b0b0b;stop-opacity:0.85882353;"
         offset="0.68076366"
         id="stop878" />
      <stop
         style="stop-color:#0b0b0b;stop-opacity:0.83137255;"
         offset="0.69925421"
         id="stop888" />
      <stop
         style="stop-color:#0b0b0b;stop-opacity:0.80392157;"
         offset="0.71879315"
         id="stop890" />
      <stop
         style="stop-color:#0b0b0b;stop-opacity:0.78039216;"
         offset="0.73593426"
         id="stop892" />
      <stop
         style="stop-color:#0b0b0b;stop-opacity:0.75686275;"
         offset="0.75022364"
         id="stop894" />
      <stop
         style="stop-color:#0b0b0b;stop-opacity:0.73333333;"
         offset="0.76798755"
         id="stop896" />
      <stop
         style="stop-color:#0b0b0b;stop-opacity:0.08235294;"
         offset="0.9150058"
         id="stop919" />
      <stop
         style="stop-color:#0b0b0b;stop-opacity:0.07058824;"
         offset="0.92246956"
         id="stop917" />
      <stop
         style="stop-color:#0b0b0b;stop-opacity:0.05882353;"
         offset="0.92918676"
         id="stop915" />
      <stop
         style="stop-color:#0b0b0b;stop-opacity:0.04705882;"
         offset="0.93840873"
         id="stop912" />
      <stop
         style="stop-color:#0b0b0b;stop-opacity:0.03137255;"
         offset="0.94760686"
         id="stop910" />
      <stop
         style="stop-color:#0b0b0b;stop-opacity:0.02352941;"
         offset="0.95380515"
         id="stop908" />
      <stop
         style="stop-color:#0b0b0b;stop-opacity:0.01568627;"
         offset="0.95886087"
         id="stop906" />
      <stop
         style="stop-color:#0b0b0b;stop-opacity:0.01176471;"
         offset="0.96356124"
         id="stop904" />
      <stop
         style="stop-color:#0b0b0b;stop-opacity:0.00784314;"
         offset="0.96845078"
         id="stop902" />
      <stop
         style="stop-color:#0b0b0b;stop-opacity:0.00392157;"
         offset="0.97347641"
         id="stop900" />
      <stop
         style="stop-color:#0b0b0b;stop-opacity:0;"
         offset="0.97812337"
         id="stop886" />
      <stop
         style="stop-color:#0b0b0b;stop-opacity:0;"
         offset="0.98456311"
         id="stop884" />
      <stop
         style="stop-color:#0b0b0b;stop-opacity:0;"
         offset="0.98700982"
         id="stop882" />
      <stop
         style="stop-color:#0b0b0b;stop-opacity:0;"
         offset="0.98924524"
         id="stop880" />
      <stop
         style="stop-color:#0b0b0b;stop-opacity:0;"
         offset="1"
         id="stop871" />
    </linearGradient>
    <linearGradient
       inkscape:collect="always"
       xlink:href="#linearGradient895"
       id="linearGradient897"
       x1="2685.9844"
       y1="1088.7905"
       x2="2685.9844"
       y2="1770.3615"
       gradientUnits="userSpaceOnUse"
       gradientTransform="matrix(0.04277854,0,0,0.04277854,-95.919086,-44.867312)" />
    <linearGradient
       inkscape:collect="always"
       id="linearGradient895">
      <stop
         style="stop-color:#85e9f1;stop-opacity:1"
         offset="0"
         id="stop891" />
      <stop
         style="stop-color:#0170fd;stop-opacity:1"
         offset="1"
         id="stop893" />
    </linearGradient>
    <linearGradient
       inkscape:collect="always"
       id="linearGradient879">
      <stop
         style="stop-color:#6ddce9;stop-opacity:1"
         offset="0"
         id="stop875" />
      <stop
         style="stop-color:#1889ff;stop-opacity:1"
         offset="1"
         id="stop877" />
    </linearGradient>
    <radialGradient
       inkscape:collect="always"
       xlink:href="#linearGradient873"
       id="radialGradient898"
       gradientUnits="userSpaceOnUse"
       cx="60.636452"
       cy="20.456388"
       fx="60.636452"
       fy="20.456388"
       r="17.303919"
       gradientTransform="translate(-43.433354,-3.9448764)" />
    <radialGradient
       inkscape:collect="always"
       xlink:href="#linearGradient879"
       id="radialGradient993"
       cx="16.968126"
       cy="3.7658708"
       fx="16.968126"
       fy="3.7658708"
       r="13.695572"
       gradientUnits="userSpaceOnUse"
       gradientTransform="matrix(4.8885673,0,0,1.8641486,-65.723642,-2.4382716)" />
    <linearGradient
       id="b"
       x2="1"
       gradientTransform="matrix(0.10138208,-17.338417,17.338417,0.10138208,16.113103,25.29877)"
       gradientUnits="userSpaceOnUse"
       x1="-1.2255912"
       y1="0.013013591"
       y2="1.110223e-16">
      <stop
         stop-color="#c9cfe5"
         offset="0"
         id="stop7"
         style="stop-color:#c22aff;stop-opacity:1" />
      <stop
         stop-color="#fff"
         offset="1"
         id="stop9" />
    </linearGradient>
    <linearGradient
       inkscape:collect="always"
       xlink:href="#linearGradient2000"
       id="linearGradient2002"
       x1="9.4399672"
       y1="11.542709"
       x2="9.4399672"
       y2="58.58252"
       gradientUnits="userSpaceOnUse"
       gradientTransform="translate(-0.13734928,-0.38007638)" />
    <linearGradient
       inkscape:collect="always"
       id="linearGradient2000">
      <stop
         style="stop-color:#ffffff;stop-opacity:0.9891004"
         offset="0"
         id="stop1996" />
      <stop
         style="stop-color:#2c9af9;stop-opacity:1"
         offset="1"
         id="stop1998" />
    </linearGradient>
  </defs>
  <sodipodi:namedview
     id="base"
     pagecolor="#ffffff"
     bordercolor="#666666"
     borderopacity="1.0"
     inkscape:pageopacity="0.0"
     inkscape:pageshadow="2"
     inkscape:zoom="3.959798"
     inkscape:cx="98.489872"
     inkscape:cy="29.420693"
     inkscape:document-units="mm"
     inkscape:current-layer="layer1"
     inkscape:document-rotation="0"
     showgrid="false"
     units="px"
     inkscape:window-width="1920"
     inkscape:window-height="1028"
     inkscape:window-x="0"
     inkscape:window-y="24"
     inkscape:window-maximized="1"
     inkscape:pagecheckerboard="0"
     inkscape:lockguides="false" />
  <metadata
     id="metadata1012">
    <rdf:RDF>
      <cc:Work
         rdf:about="">
        <dc:format>image/svg+xml</dc:format>
        <dc:type
           rdf:resource="http://purl.org/dc/dcmitype/StillImage" />
      </cc:Work>
    </rdf:RDF>
  </metadata>
  <g
     inkscape:label="Capa 1"
     inkscape:groupmode="layer"
     id="layer1">
    <circle
       style="opacity:0.309726;fill:url(#radialGradient898);fill-opacity:1;stroke-width:3;stroke-linecap:square;stroke-linejoin:round"
       id="path867"
       cx="17.203098"
       cy="16.511513"
       r="17.303919" />
    <circle
       style="fill:url(#linearGradient897);fill-opacity:1;stroke:#b1aaaa;stroke-width:0.0575565;stroke-linecap:square;stroke-opacity:0.992157"
       id="circle839"
       cx="17.203098"
       cy="16.511513"
       r="15.118138" />
    <circle
       style="fill:url(#radialGradient993);fill-opacity:1;stroke:none;stroke-width:0.0498826;stroke-linecap:square;stroke-opacity:1"
       id="circle839-3"
       cx="17.203098"
       cy="16.511513"
       r="13.102469" />
    <g
       id="g1277"
       style="opacity:0.522744"
       transform="translate(-0.13734928,-0.38007638)">
      <path
         id="path1142"
         style="fill:#06028a;fill-opacity:0.0976533;stroke-width:0.327631"
         d="m 17.31659,8.9985547 c -4.709697,0 -7.5355161,0.9828921 -7.5355161,0.9828921 V 20.006831 c 1.9657871,4.717887 7.5355161,7.339063 7.5355161,7.339063 0,0 5.569727,-2.621048 7.535513,-7.207883 V 9.9814468 c 0,0 -2.825816,-0.9828921 -7.535513,-0.9828921 z m -6.552622,1.6381563 h 2.621048 l 3.931574,3.866301 3.931573,-3.866301 h 2.621048 v 9.5013 c 0,0.655261 -2.621048,3.276312 -2.621048,3.276312 v -8.846041 l -2.62105,2.62105 v 3.60394 h -2.621048 v -3.60394 l -2.621049,-2.62105 v 8.846041 c 0,0 -2.621048,-2.621051 -2.621048,-3.276312 z" />
      <path
         id="path1270"
         style="fill:#06028a;fill-opacity:0.0976533;stroke-width:0.327631"
         d="m 17.737123,9.4294726 c -4.709697,0 -7.535516,0.9828924 -7.535516,0.9828924 v 10.025384 c 1.965787,4.717887 7.535516,7.339063 7.535516,7.339063 0,0 5.569727,-2.621048 7.535513,-7.207883 V 10.412365 c 0,0 -2.825816,-0.9828924 -7.535513,-0.9828924 z m -6.552622,1.6381564 h 2.621048 l 3.931574,3.866301 3.931573,-3.866301 h 2.621048 v 9.5013 c 0,0.655261 -2.621048,3.276312 -2.621048,3.276312 V 14.9992 l -2.62105,2.62105 v 3.60394 H 16.426598 V 17.62025 L 13.805549,14.9992 v 8.846041 c 0,0 -2.621048,-2.621051 -2.621048,-3.276312 z" />
      <path
         id="path1272"
         style="fill:#06028a;fill-opacity:0.0976533;stroke-width:0.327631"
         d="m 18.202529,9.8593263 c -4.709697,0 -7.535516,0.9828927 -7.535516,0.9828927 v 10.025384 c 1.965787,4.717887 7.535516,7.339063 7.535516,7.339063 0,0 5.569727,-2.621048 7.535513,-7.207883 V 10.842219 c 0,0 -2.825816,-0.9828927 -7.535513,-0.9828927 z m -6.552622,1.6381567 h 2.621048 l 3.931574,3.866301 3.931573,-3.866301 h 2.621048 v 9.5013 c 0,0.655261 -2.621048,3.276312 -2.621048,3.276312 v -8.846041 l -2.62105,2.62105 v 3.60394 h -2.621048 v -3.60394 l -2.621049,-2.62105 v 8.846041 c 0,0 -2.621048,-2.621051 -2.621048,-3.276312 z" />
    </g>
    <path
       id="path4"
       style="fill:url(#linearGradient2002);fill-opacity:1;stroke-width:0.327631"
       d="m 16.838134,8.5097007 c -4.709697,0 -7.535516,0.9828923 -7.535516,0.9828923 v 10.025384 c 1.965787,4.717887 7.535516,7.339063 7.535516,7.339063 0,0 5.569727,-2.621048 7.535513,-7.207883 V 9.492593 c 0,0 -2.825816,-0.9828923 -7.535513,-0.9828923 z m -6.552622,1.6381563 h 2.621048 l 3.931574,3.866301 3.931573,-3.866301 h 2.621048 v 9.5013 c 0,0.655261 -2.621048,3.276312 -2.621048,3.276312 v -8.846041 l -2.62105,2.62105 v 3.60394 h -2.621048 v -3.60394 l -2.621049,-2.62105 v 8.846041 c 0,0 -2.621048,-2.621051 -2.621048,-3.276312 z" />
    <path
       id="path1510"
       style="color:#000000;opacity:0.140199;fill:#052fe4;fill-opacity:0.312457;stroke-width:1;stroke-linecap:round;stroke-linejoin:round;-inkscape-stroke:none"
       d="m 16.838358,8.50982 c -0.449669,0 -0.882058,0.00911 -1.296561,0.025321 0.385378,-0.013592 0.787745,-0.021188 1.206644,-0.021188 4.476128,0 7.062181,0.8520441 7.286894,0.9275921 v 9.8924209 c -1.890296,4.361554 -7.094577,6.892886 -7.284827,6.984585 -0.187299,-0.09024 -5.39436,-2.620207 -7.2874099,-7.111193 V 9.4415463 C 9.3600535,9.4732129 9.3023844,9.4927058 9.3023844,9.4927058 V 19.517934 c 1.9195586,4.60694 7.2613596,7.207621 7.5122026,7.327718 a 0.250025,0.250025 0 0 0 0.04134,-0.0093 c 0,0 0.907957,-0.42327 2.124935,-1.232998 0.0032,-0.0022 0.0066,-0.0046 0.0098,-0.0067 1.787123,-1.201063 4.218048,-3.228908 5.383134,-5.947441 V 9.4927058 c 0,0 -2.825761,-0.9828858 -7.535458,-0.9828858 z M 10.19742,9.6508356 A 0.250025,0.250025 0 0 0 9.9473061,9.900433 v 9.502262 c 0,0.165241 0.06072,0.296338 0.1410769,0.447001 0.08035,0.150664 0.18916,0.313579 0.31626,0.488343 0.254202,0.349526 0.585021,0.743156 0.915706,1.115177 0.66137,0.744042 1.320332,1.402499 1.320333,1.402498 a 0.250025,0.250025 0 0 0 0.253214,0.05684 c -0.07268,-0.07281 -2.608626,-2.617455 -2.608626,-3.263366 v -9.501225 h 2.621545 l 3.918624,3.854028 a 0.250025,0.250025 0 0 0 0.05116,-0.02532 l 3.893302,-3.828708 h 2.621029 v 9.501229 c 0,0.632447 -2.419482,3.073972 -2.589506,3.244763 a 0.250025,0.250025 0 0 0 0.05633,-0.03824 c 0,0 0.658962,-0.658456 1.320333,-1.402498 0.330685,-0.372021 0.661506,-0.765651 0.915706,-1.115177 0.127101,-0.174764 0.236423,-0.337679 0.316777,-0.488343 0.08035,-0.150663 0.14056,-0.28176 0.14056,-0.447001 V 9.900433 A 0.250025,0.250025 0 0 0 23.301013,9.6508356 h -2.621029 a 0.250025,0.250025 0 0 0 -0.173632,0.071831 L 16.748441,13.415981 12.992598,9.7226661 a 0.250025,0.250025 0 0 0 -0.175699,-0.07183 z m 2.709395,4.4286704 v 8.829952 a 0.250025,0.250025 0 0 0 0.159681,-0.23151 v -8.242391 l 2.121317,2.121317 v 3.500045 a 0.250025,0.250025 0 0 0 0.250114,0.250114 h 2.621029 a 0.250025,0.250025 0 0 0 0.01292,-0.0026 h -2.544031 v -3.603905 z m 7.863086,0 -2.621028,2.621029 v 3.588411 a 0.250025,0.250025 0 0 0 0.160197,-0.232027 v -3.500045 l 2.1208,-2.11925 v 8.240324 a 0.250025,0.250025 0 0 0 0.340031,0.234094 z" />
  </g>
</svg>
