<?xml version="1.0" encoding="UTF-8" standalone="no"?>
<svg
   width="128"
   height="128"
   viewBox="0 0 33.866666 33.866668"
   version="1.1"
   id="svg1015"
   inkscape:version="1.1.2 (0a00cf5339, 2022-02-04)"
   sodipodi:docname="midterm.svg"
   xmlns:inkscape="http://www.inkscape.org/namespaces/inkscape"
   xmlns:sodipodi="http://sodipodi.sourceforge.net/DTD/sodipodi-0.dtd"
   xmlns:xlink="http://www.w3.org/1999/xlink"
   xmlns="http://www.w3.org/2000/svg"
   xmlns:svg="http://www.w3.org/2000/svg"
   xmlns:rdf="http://www.w3.org/1999/02/22-rdf-syntax-ns#"
   xmlns:cc="http://creativecommons.org/ns#"
   xmlns:dc="http://purl.org/dc/elements/1.1/">
  <defs
     id="defs1009">
    <linearGradient
       inkscape:collect="always"
       id="linearGradient873">
      <stop
         style="stop-color:#0b0b0b;stop-opacity:1;"
         offset="0"
         id="stop869" />
      <stop
         style="stop-color:#0b0b0b;stop-opacity:0.85882353;"
         offset="0.68076366"
         id="stop878" />
      <stop
         style="stop-color:#0b0b0b;stop-opacity:0.83137255;"
         offset="0.69925421"
         id="stop888" />
      <stop
         style="stop-color:#0b0b0b;stop-opacity:0.80392157;"
         offset="0.71879315"
         id="stop890" />
      <stop
         style="stop-color:#0b0b0b;stop-opacity:0.78039216;"
         offset="0.73593426"
         id="stop892" />
      <stop
         style="stop-color:#0b0b0b;stop-opacity:0.75686275;"
         offset="0.75022364"
         id="stop894" />
      <stop
         style="stop-color:#0b0b0b;stop-opacity:0.73333333;"
         offset="0.76798755"
         id="stop896" />
      <stop
         style="stop-color:#0b0b0b;stop-opacity:0.08235294;"
         offset="0.9150058"
         id="stop919" />
      <stop
         style="stop-color:#0b0b0b;stop-opacity:0.07058824;"
         offset="0.92246956"
         id="stop917" />
      <stop
         style="stop-color:#0b0b0b;stop-opacity:0.05882353;"
         offset="0.92918676"
         id="stop915" />
      <stop
         style="stop-color:#0b0b0b;stop-opacity:0.04705882;"
         offset="0.93840873"
         id="stop912" />
      <stop
         style="stop-color:#0b0b0b;stop-opacity:0.03137255;"
         offset="0.94760686"
         id="stop910" />
      <stop
         style="stop-color:#0b0b0b;stop-opacity:0.02352941;"
         offset="0.95380515"
         id="stop908" />
      <stop
         style="stop-color:#0b0b0b;stop-opacity:0.01568627;"
         offset="0.95886087"
         id="stop906" />
      <stop
         style="stop-color:#0b0b0b;stop-opacity:0.01176471;"
         offset="0.96356124"
         id="stop904" />
      <stop
         style="stop-color:#0b0b0b;stop-opacity:0.00784314;"
         offset="0.96845078"
         id="stop902" />
      <stop
         style="stop-color:#0b0b0b;stop-opacity:0.00392157;"
         offset="0.97347641"
         id="stop900" />
      <stop
         style="stop-color:#0b0b0b;stop-opacity:0;"
         offset="0.97812337"
         id="stop886" />
      <stop
         style="stop-color:#0b0b0b;stop-opacity:0;"
         offset="0.98456311"
         id="stop884" />
      <stop
         style="stop-color:#0b0b0b;stop-opacity:0;"
         offset="0.98700982"
         id="stop882" />
      <stop
         style="stop-color:#0b0b0b;stop-opacity:0;"
         offset="0.98924524"
         id="stop880" />
      <stop
         style="stop-color:#0b0b0b;stop-opacity:0;"
         offset="1"
         id="stop871" />
    </linearGradient>
    <linearGradient
       inkscape:collect="always"
       xlink:href="#linearGradient895"
       id="linearGradient897"
       x1="2685.9844"
       y1="1088.7905"
       x2="2685.9844"
       y2="1770.3615"
       gradientUnits="userSpaceOnUse"
       gradientTransform="matrix(0.04277854,0,0,0.04277854,-95.919086,-44.867312)" />
    <linearGradient
       inkscape:collect="always"
       id="linearGradient895">
      <stop
         style="stop-color:#8fea72;stop-opacity:1"
         offset="0"
         id="stop891" />
      <stop
         style="stop-color:#27a912;stop-opacity:1"
         offset="1"
         id="stop893" />
    </linearGradient>
    <linearGradient
       inkscape:collect="always"
       id="linearGradient879">
      <stop
         style="stop-color:#62dc3b;stop-opacity:1"
         offset="0"
         id="stop875" />
      <stop
         style="stop-color:#27b511;stop-opacity:1"
         offset="1"
         id="stop877" />
    </linearGradient>
    <radialGradient
       inkscape:collect="always"
       xlink:href="#linearGradient873"
       id="radialGradient898"
       gradientUnits="userSpaceOnUse"
       cx="60.636452"
       cy="20.456388"
       fx="60.636452"
       fy="20.456388"
       r="17.303919"
       gradientTransform="translate(-43.433354,-3.9448764)" />
    <radialGradient
       inkscape:collect="always"
       xlink:href="#linearGradient879"
       id="radialGradient993"
       cx="16.968126"
       cy="3.7658708"
       fx="16.968126"
       fy="3.7658708"
       r="13.695572"
       gradientUnits="userSpaceOnUse"
       gradientTransform="matrix(4.8885673,0,0,1.8641486,-65.723642,-2.4382716)" />
    <linearGradient
       id="b"
       x2="1"
       gradientTransform="matrix(0.10138208,-17.338417,17.338417,0.10138208,16.113103,25.29877)"
       gradientUnits="userSpaceOnUse"
       x1="-1.2255912"
       y1="0.013013591"
       y2="1.110223e-16">
      <stop
         stop-color="#c9cfe5"
         offset="0"
         id="stop7"
         style="stop-color:#c22aff;stop-opacity:1" />
      <stop
         stop-color="#fff"
         offset="1"
         id="stop9" />
    </linearGradient>
    <linearGradient
       inkscape:collect="always"
       xlink:href="#linearGradient2610"
       id="linearGradient2612"
       x1="21.667969"
       y1="41.595226"
       x2="21.667969"
       y2="223.35077"
       gradientUnits="userSpaceOnUse"
       gradientTransform="matrix(0.26458333,0,0,0.26458333,8.2232183,-0.91118574)" />
    <linearGradient
       inkscape:collect="always"
       id="linearGradient2610">
      <stop
         style="stop-color:#fdfdfd;stop-opacity:1"
         offset="0"
         id="stop2606" />
      <stop
         style="stop-color:#78db56;stop-opacity:1"
         offset="1"
         id="stop2608" />
    </linearGradient>
  </defs>
  <sodipodi:namedview
     id="base"
     pagecolor="#ffffff"
     bordercolor="#666666"
     borderopacity="1.0"
     inkscape:pageopacity="0.0"
     inkscape:pageshadow="2"
     inkscape:zoom="3.959798"
     inkscape:cx="99.500026"
     inkscape:cy="90.029846"
     inkscape:document-units="mm"
     inkscape:current-layer="layer1"
     inkscape:document-rotation="0"
     showgrid="false"
     units="px"
     inkscape:window-width="1920"
     inkscape:window-height="1028"
     inkscape:window-x="0"
     inkscape:window-y="24"
     inkscape:window-maximized="1"
     inkscape:pagecheckerboard="0"
     inkscape:lockguides="false" />
  <metadata
     id="metadata1012">
    <rdf:RDF>
      <cc:Work
         rdf:about="">
        <dc:format>image/svg+xml</dc:format>
        <dc:type
           rdf:resource="http://purl.org/dc/dcmitype/StillImage" />
      </cc:Work>
    </rdf:RDF>
  </metadata>
  <g
     inkscape:label="Capa 1"
     inkscape:groupmode="layer"
     id="layer1">
    <circle
       style="opacity:0.309726;fill:url(#radialGradient898);fill-opacity:1;stroke-width:3;stroke-linecap:square;stroke-linejoin:round"
       id="path867"
       cx="17.203098"
       cy="16.511513"
       r="17.303919" />
    <circle
       style="fill:url(#linearGradient897);fill-opacity:1;stroke:#b1aaaa;stroke-width:0.0575565;stroke-linecap:square;stroke-opacity:0.992157"
       id="circle839"
       cx="17.203098"
       cy="16.511513"
       r="15.118138" />
    <circle
       style="fill:url(#radialGradient993);fill-opacity:1;stroke:none;stroke-width:0.0498826;stroke-linecap:square;stroke-opacity:1"
       id="circle839-3"
       cx="17.203098"
       cy="16.511513"
       r="13.102469" />
    <g
       id="g5054"
       style="opacity:0.422704"
       transform="translate(-0.069968,-0.8370671)">
      <g
         id="path1498" />
      <g
         id="g4857"
         transform="translate(-5.2456617,0.33228153)"
         style="fill:#002d0a;fill-opacity:0.0322181">
        <path
           id="path4855"
           style="color:#000000;fill:#002d0a;fill-opacity:0.0322181;stroke-width:2;stroke-linecap:round;stroke-linejoin:round;-inkscape-stroke:none"
           d="m 14.881727,9.1610676 a 1.0001,1.0001 0 0 0 -0.359152,0.09612 1.0001,1.0001 0 0 0 -0.566373,0.9002034 v 3.310393 8.04292 a 1.0001,1.0001 0 0 0 0.293005,0.70745 l 2.36523,2.363163 a 1.0001,1.0001 0 0 0 1.70739,-0.706934 v -6.478676 l 1.931665,1.578199 A 1.0001,1.0001 0 0 0 21.88595,18.198242 V 14.88785 A 1.0001,1.0001 0 0 0 21.509229,14.106503 L 15.579358,9.3760416 a 1.0001,1.0001 0 0 0 -0.697631,-0.214974 z m 15.274519,0 a 1.0001,1.0001 0 0 0 -0.698149,0.214974 l -5.93142,4.7304614 a 1.0001,1.0001 0 0 0 -0.375171,0.781347 v 3.310392 a 1.0001,1.0001 0 0 0 1.630908,0.775664 l 1.933732,-1.578199 v 6.478674 a 1.0001,1.0001 0 0 0 1.706873,0.706934 l 2.36523,-2.363163 a 1.0001,1.0001 0 0 0 0.293005,-0.70745 v -8.04292 -3.310393 a 1.0001,1.0001 0 0 0 -0.566373,-0.9002034 1.0001,1.0001 0 0 0 -0.358635,-0.09612 z" />
      </g>
      <g
         id="g5023"
         transform="translate(-4.8741144,0.90315616)"
         style="fill:#002d0a;fill-opacity:0.0322181">
        <path
           id="path5021"
           style="color:#000000;fill:#002d0a;fill-opacity:0.0322181;stroke-width:2;stroke-linecap:round;stroke-linejoin:round;-inkscape-stroke:none"
           d="m 14.881727,9.1610676 a 1.0001,1.0001 0 0 0 -0.359152,0.09612 1.0001,1.0001 0 0 0 -0.566373,0.9002034 v 3.310393 8.04292 a 1.0001,1.0001 0 0 0 0.293005,0.70745 l 2.36523,2.363163 a 1.0001,1.0001 0 0 0 1.70739,-0.706934 v -6.478676 l 1.931665,1.578199 A 1.0001,1.0001 0 0 0 21.88595,18.198242 V 14.88785 A 1.0001,1.0001 0 0 0 21.509229,14.106503 L 15.579358,9.3760416 a 1.0001,1.0001 0 0 0 -0.697631,-0.214974 z m 15.274519,0 a 1.0001,1.0001 0 0 0 -0.698149,0.214974 l -5.93142,4.7304614 a 1.0001,1.0001 0 0 0 -0.375171,0.781347 v 3.310392 a 1.0001,1.0001 0 0 0 1.630908,0.775664 l 1.933732,-1.578199 v 6.478674 a 1.0001,1.0001 0 0 0 1.706873,0.706934 l 2.36523,-2.363163 a 1.0001,1.0001 0 0 0 0.293005,-0.70745 v -8.04292 -3.310393 a 1.0001,1.0001 0 0 0 -0.566373,-0.9002034 1.0001,1.0001 0 0 0 -0.358635,-0.09612 z" />
      </g>
      <g
         id="g5027"
         transform="translate(-4.526679,1.5665333)"
         style="fill:#002d0a;fill-opacity:0.0322181">
        <path
           id="path5025"
           style="color:#000000;fill:#002d0a;fill-opacity:0.0322181;stroke-width:2;stroke-linecap:round;stroke-linejoin:round;-inkscape-stroke:none"
           d="m 14.881727,9.1610676 a 1.0001,1.0001 0 0 0 -0.359152,0.09612 1.0001,1.0001 0 0 0 -0.566373,0.9002034 v 3.310393 8.04292 a 1.0001,1.0001 0 0 0 0.293005,0.70745 l 2.36523,2.363163 a 1.0001,1.0001 0 0 0 1.70739,-0.706934 v -6.478676 l 1.931665,1.578199 A 1.0001,1.0001 0 0 0 21.88595,18.198242 V 14.88785 A 1.0001,1.0001 0 0 0 21.509229,14.106503 L 15.579358,9.3760416 a 1.0001,1.0001 0 0 0 -0.697631,-0.214974 z m 15.274519,0 a 1.0001,1.0001 0 0 0 -0.698149,0.214974 l -5.93142,4.7304614 a 1.0001,1.0001 0 0 0 -0.375171,0.781347 v 3.310392 a 1.0001,1.0001 0 0 0 1.630908,0.775664 l 1.933732,-1.578199 v 6.478674 a 1.0001,1.0001 0 0 0 1.706873,0.706934 l 2.36523,-2.363163 a 1.0001,1.0001 0 0 0 0.293005,-0.70745 v -8.04292 -3.310393 a 1.0001,1.0001 0 0 0 -0.566373,-0.9002034 1.0001,1.0001 0 0 0 -0.358635,-0.09612 z" />
      </g>
      <g
         id="g5031"
         transform="translate(-4.0791225,2.2873084)"
         style="fill:#002d0a;fill-opacity:0.0322181">
        <path
           id="path5029"
           style="color:#000000;fill:#002d0a;fill-opacity:0.0322181;stroke-width:2;stroke-linecap:round;stroke-linejoin:round;-inkscape-stroke:none"
           d="m 14.881727,9.1610676 a 1.0001,1.0001 0 0 0 -0.359152,0.09612 1.0001,1.0001 0 0 0 -0.566373,0.9002034 v 3.310393 8.04292 a 1.0001,1.0001 0 0 0 0.293005,0.70745 l 2.36523,2.363163 a 1.0001,1.0001 0 0 0 1.70739,-0.706934 v -6.478676 l 1.931665,1.578199 A 1.0001,1.0001 0 0 0 21.88595,18.198242 V 14.88785 A 1.0001,1.0001 0 0 0 21.509229,14.106503 L 15.579358,9.3760416 a 1.0001,1.0001 0 0 0 -0.697631,-0.214974 z m 15.274519,0 a 1.0001,1.0001 0 0 0 -0.698149,0.214974 l -5.93142,4.7304614 a 1.0001,1.0001 0 0 0 -0.375171,0.781347 v 3.310392 a 1.0001,1.0001 0 0 0 1.630908,0.775664 l 1.933732,-1.578199 v 6.478674 a 1.0001,1.0001 0 0 0 1.706873,0.706934 l 2.36523,-2.363163 a 1.0001,1.0001 0 0 0 0.293005,-0.70745 v -8.04292 -3.310393 a 1.0001,1.0001 0 0 0 -0.566373,-0.9002034 1.0001,1.0001 0 0 0 -0.358635,-0.09612 z" />
      </g>
      <g
         id="g5035"
         transform="translate(-3.4554516,3.1556168)"
         style="fill:#002d0a;fill-opacity:0.0322181">
        <path
           id="path5033"
           style="color:#000000;fill:#002d0a;fill-opacity:0.0322181;stroke-width:2;stroke-linecap:round;stroke-linejoin:round;-inkscape-stroke:none"
           d="m 14.881727,9.1610676 a 1.0001,1.0001 0 0 0 -0.359152,0.09612 1.0001,1.0001 0 0 0 -0.566373,0.9002034 v 3.310393 8.04292 a 1.0001,1.0001 0 0 0 0.293005,0.70745 l 2.36523,2.363163 a 1.0001,1.0001 0 0 0 1.70739,-0.706934 v -6.478676 l 1.931665,1.578199 A 1.0001,1.0001 0 0 0 21.88595,18.198242 V 14.88785 A 1.0001,1.0001 0 0 0 21.509229,14.106503 L 15.579358,9.3760416 a 1.0001,1.0001 0 0 0 -0.697631,-0.214974 z m 15.274519,0 a 1.0001,1.0001 0 0 0 -0.698149,0.214974 l -5.93142,4.7304614 a 1.0001,1.0001 0 0 0 -0.375171,0.781347 v 3.310392 a 1.0001,1.0001 0 0 0 1.630908,0.775664 l 1.933732,-1.578199 v 6.478674 a 1.0001,1.0001 0 0 0 1.706873,0.706934 l 2.36523,-2.363163 a 1.0001,1.0001 0 0 0 0.293005,-0.70745 v -8.04292 -3.310393 a 1.0001,1.0001 0 0 0 -0.566373,-0.9002034 1.0001,1.0001 0 0 0 -0.358635,-0.09612 z" />
      </g>
      <g
         id="g5039"
         transform="translate(-2.5922048,4.1167437)"
         style="fill:#002d0a;fill-opacity:0.0322181">
        <path
           id="path5037"
           style="color:#000000;fill:#002d0a;fill-opacity:0.0322181;stroke-width:2;stroke-linecap:round;stroke-linejoin:round;-inkscape-stroke:none"
           d="m 14.881727,9.1610676 a 1.0001,1.0001 0 0 0 -0.359152,0.09612 1.0001,1.0001 0 0 0 -0.566373,0.9002034 v 3.310393 8.04292 a 1.0001,1.0001 0 0 0 0.293005,0.70745 l 2.36523,2.363163 a 1.0001,1.0001 0 0 0 1.70739,-0.706934 v -6.478676 l 1.931665,1.578199 A 1.0001,1.0001 0 0 0 21.88595,18.198242 V 14.88785 A 1.0001,1.0001 0 0 0 21.509229,14.106503 L 15.579358,9.3760416 a 1.0001,1.0001 0 0 0 -0.697631,-0.214974 z m 15.274519,0 a 1.0001,1.0001 0 0 0 -0.698149,0.214974 l -5.93142,4.7304614 a 1.0001,1.0001 0 0 0 -0.375171,0.781347 v 3.310392 a 1.0001,1.0001 0 0 0 1.630908,0.775664 l 1.933732,-1.578199 v 6.478674 a 1.0001,1.0001 0 0 0 1.706873,0.706934 l 2.36523,-2.363163 a 1.0001,1.0001 0 0 0 0.293005,-0.70745 v -8.04292 -3.310393 a 1.0001,1.0001 0 0 0 -0.566373,-0.9002034 1.0001,1.0001 0 0 0 -0.358635,-0.09612 z" />
      </g>
    </g>
    <g
       id="path10"
       transform="translate(-5.3156297,-0.50478557)"
       style="fill:#ababab;fill-opacity:1">
      <path
         id="path1527"
         style="color:#000000;fill:url(#linearGradient2612);fill-opacity:1;stroke-width:2;stroke-linecap:round;stroke-linejoin:round;-inkscape-stroke:none"
         d="m 14.881727,9.1610676 a 1.0001,1.0001 0 0 0 -0.359152,0.09612 1.0001,1.0001 0 0 0 -0.566373,0.9002034 v 3.310393 8.04292 a 1.0001,1.0001 0 0 0 0.293005,0.70745 l 2.36523,2.363163 a 1.0001,1.0001 0 0 0 1.70739,-0.706934 v -6.478676 l 1.931665,1.578199 A 1.0001,1.0001 0 0 0 21.88595,18.198242 V 14.88785 A 1.0001,1.0001 0 0 0 21.509229,14.106503 L 15.579358,9.3760416 a 1.0001,1.0001 0 0 0 -0.697631,-0.214974 z m 15.274519,0 a 1.0001,1.0001 0 0 0 -0.698149,0.214974 l -5.93142,4.7304614 a 1.0001,1.0001 0 0 0 -0.375171,0.781347 v 3.310392 a 1.0001,1.0001 0 0 0 1.630908,0.775664 l 1.933732,-1.578199 v 6.478674 a 1.0001,1.0001 0 0 0 1.706873,0.706934 l 2.36523,-2.363163 a 1.0001,1.0001 0 0 0 0.293005,-0.70745 v -8.04292 -3.310393 a 1.0001,1.0001 0 0 0 -0.566373,-0.9002034 1.0001,1.0001 0 0 0 -0.358635,-0.09612 z" />
    </g>
  </g>
</svg>
