<?xml version="1.0" encoding="UTF-8" standalone="no"?>
<svg
   xmlns:dc="http://purl.org/dc/elements/1.1/"
   xmlns:cc="http://creativecommons.org/ns#"
   xmlns:rdf="http://www.w3.org/1999/02/22-rdf-syntax-ns#"
   xmlns:svg="http://www.w3.org/2000/svg"
   xmlns="http://www.w3.org/2000/svg"
   xmlns:xlink="http://www.w3.org/1999/xlink"
   xmlns:sodipodi="http://sodipodi.sourceforge.net/DTD/sodipodi-0.dtd"
   xmlns:inkscape="http://www.inkscape.org/namespaces/inkscape"
   width="128"
   height="128"
   viewBox="0 0 33.866666 33.866668"
   version="1.1"
   id="svg1015"
   inkscape:version="1.0.2 (e86c870879, 2021-01-15)"
   sodipodi:docname="notable.svg">
  <defs
     id="defs1009">
    <linearGradient
       inkscape:collect="always"
       id="linearGradient873">
      <stop
         style="stop-color:#0b0b0b;stop-opacity:1;"
         offset="0"
         id="stop869" />
      <stop
         style="stop-color:#0b0b0b;stop-opacity:0.85882353;"
         offset="0.68076366"
         id="stop878" />
      <stop
         style="stop-color:#0b0b0b;stop-opacity:0.83137255;"
         offset="0.69925421"
         id="stop888" />
      <stop
         style="stop-color:#0b0b0b;stop-opacity:0.80392157;"
         offset="0.71879315"
         id="stop890" />
      <stop
         style="stop-color:#0b0b0b;stop-opacity:0.78039216;"
         offset="0.73593426"
         id="stop892" />
      <stop
         style="stop-color:#0b0b0b;stop-opacity:0.75686275;"
         offset="0.75022364"
         id="stop894" />
      <stop
         style="stop-color:#0b0b0b;stop-opacity:0.73333333;"
         offset="0.76798755"
         id="stop896" />
      <stop
         style="stop-color:#0b0b0b;stop-opacity:0.08235294;"
         offset="0.9150058"
         id="stop919" />
      <stop
         style="stop-color:#0b0b0b;stop-opacity:0.07058824;"
         offset="0.92246956"
         id="stop917" />
      <stop
         style="stop-color:#0b0b0b;stop-opacity:0.05882353;"
         offset="0.92918676"
         id="stop915" />
      <stop
         style="stop-color:#0b0b0b;stop-opacity:0.04705882;"
         offset="0.93840873"
         id="stop912" />
      <stop
         style="stop-color:#0b0b0b;stop-opacity:0.03137255;"
         offset="0.94760686"
         id="stop910" />
      <stop
         style="stop-color:#0b0b0b;stop-opacity:0.02352941;"
         offset="0.95380515"
         id="stop908" />
      <stop
         style="stop-color:#0b0b0b;stop-opacity:0.01568627;"
         offset="0.95886087"
         id="stop906" />
      <stop
         style="stop-color:#0b0b0b;stop-opacity:0.01176471;"
         offset="0.96356124"
         id="stop904" />
      <stop
         style="stop-color:#0b0b0b;stop-opacity:0.00784314;"
         offset="0.96845078"
         id="stop902" />
      <stop
         style="stop-color:#0b0b0b;stop-opacity:0.00392157;"
         offset="0.97347641"
         id="stop900" />
      <stop
         style="stop-color:#0b0b0b;stop-opacity:0;"
         offset="0.97812337"
         id="stop886" />
      <stop
         style="stop-color:#0b0b0b;stop-opacity:0;"
         offset="0.98456311"
         id="stop884" />
      <stop
         style="stop-color:#0b0b0b;stop-opacity:0;"
         offset="0.98700982"
         id="stop882" />
      <stop
         style="stop-color:#0b0b0b;stop-opacity:0;"
         offset="0.98924524"
         id="stop880" />
      <stop
         style="stop-color:#0b0b0b;stop-opacity:0;"
         offset="1"
         id="stop871" />
    </linearGradient>
    <linearGradient
       inkscape:collect="always"
       xlink:href="#linearGradient895"
       id="linearGradient897"
       x1="2685.9844"
       y1="1088.7905"
       x2="2685.9844"
       y2="1770.3615"
       gradientUnits="userSpaceOnUse"
       gradientTransform="matrix(0.04277854,0,0,0.04277854,-95.919086,-44.867312)" />
    <linearGradient
       inkscape:collect="always"
       id="linearGradient895">
      <stop
         style="stop-color:#ffffff;stop-opacity:1"
         offset="0"
         id="stop891" />
      <stop
         style="stop-color:#dfdfe1;stop-opacity:1"
         offset="1"
         id="stop893" />
    </linearGradient>
    <linearGradient
       inkscape:collect="always"
       id="linearGradient879">
      <stop
         style="stop-color:#f3f4f4;stop-opacity:1"
         offset="0"
         id="stop875" />
      <stop
         style="stop-color:#f0f0f1;stop-opacity:1"
         offset="1"
         id="stop877" />
    </linearGradient>
    <radialGradient
       inkscape:collect="always"
       xlink:href="#linearGradient873"
       id="radialGradient898"
       gradientUnits="userSpaceOnUse"
       cx="60.636452"
       cy="20.456388"
       fx="60.636452"
       fy="20.456388"
       r="17.303919"
       gradientTransform="translate(-43.433354,-3.9448764)" />
    <radialGradient
       inkscape:collect="always"
       xlink:href="#linearGradient879"
       id="radialGradient993"
       cx="16.968796"
       cy="4.4333887"
       fx="16.968796"
       fy="4.4333887"
       r="13.695572"
       gradientUnits="userSpaceOnUse"
       gradientTransform="matrix(4.8885673,0,0,1.5420669,-65.723642,-0.93384819)" />
  </defs>
  <sodipodi:namedview
     id="base"
     pagecolor="#ffffff"
     bordercolor="#666666"
     borderopacity="1.0"
     inkscape:pageopacity="0.0"
     inkscape:pageshadow="2"
     inkscape:zoom="5.6"
     inkscape:cx="59.688754"
     inkscape:cy="11.531904"
     inkscape:document-units="mm"
     inkscape:current-layer="layer1"
     inkscape:document-rotation="0"
     showgrid="false"
     units="px"
     inkscape:window-width="1920"
     inkscape:window-height="1028"
     inkscape:window-x="0"
     inkscape:window-y="24"
     inkscape:window-maximized="1" />
  <metadata
     id="metadata1012">
    <rdf:RDF>
      <cc:Work
         rdf:about="">
        <dc:format>image/svg+xml</dc:format>
        <dc:type
           rdf:resource="http://purl.org/dc/dcmitype/StillImage" />
        <dc:title></dc:title>
      </cc:Work>
    </rdf:RDF>
  </metadata>
  <g
     inkscape:label="Capa 1"
     inkscape:groupmode="layer"
     id="layer1">
    <circle
       style="opacity:0.309726;fill:url(#radialGradient898);fill-opacity:1;stroke-width:3;stroke-linecap:square;stroke-linejoin:round"
       id="path867"
       cx="17.203098"
       cy="16.511513"
       r="17.303919" />
    <circle
       style="fill:url(#linearGradient897);fill-opacity:1;stroke:#b1aaaa;stroke-width:0.0575565;stroke-linecap:square;stroke-opacity:0.992157"
       id="circle839"
       cx="17.203098"
       cy="16.511513"
       r="15.118138" />
    <circle
       style="fill:url(#radialGradient993);fill-opacity:1;stroke:none;stroke-width:0.0498826;stroke-linecap:square;stroke-opacity:1"
       id="circle839-3"
       cx="17.203098"
       cy="16.511513"
       r="13.102469" />
    <g
       id="g1100"
       transform="translate(1.9981081,-1.0347426)">
      <path
         style="opacity:0.2;stroke-width:0.301464"
         d="m 8.1205626,9.5297365 c -0.093943,0 -0.1859093,0.00854 -0.2743805,0.025317 -0.088189,0.016806 -0.1733875,0.041748 -0.2543605,0.073605 -0.081205,0.031948 -0.1586607,0.071748 -0.2308099,0.117171 C 7.0005153,9.9729672 6.7639699,10.357479 6.7639699,10.795658 v 11.395614 l 1.7911262,2.411719 1.374256,1.80879 1.3742559,-1.80879 1.791126,-2.411719 v -1.831165 l 4.425413,5.449332 c 0.238565,0.360905 0.662162,0.602342 1.151691,0.602342 h 0.753661 2.110255 0.753664 c 0.751552,0 1.356592,-0.56447 1.356592,-1.265918 V 10.795658 c 0,-0.701449 -0.60504,-1.2659169 -1.356592,-1.2659169 h -0.753664 -2.110255 -0.753661 c -0.751553,0 -1.356593,0.5644679 -1.356593,1.2659169 v 4.757495 L 12.886888,10.062016 C 12.832995,9.9951898 12.770291,9.9473305 12.703184,9.9077491 12.640221,9.8481816 12.572277,9.7928229 12.497693,9.7458297 h -6.03e-4 c -0.14411,-0.090707 -0.307931,-0.1571033 -0.484581,-0.1907701 -2.64e-4,-5.02e-5 -8.66e-4,4.9e-5 -0.0011,0 -0.08843,-0.016806 -0.179246,-0.025317 -0.27319,-0.025317 H 10.98454 8.8742866 Z"
         id="path2" />
      <path
         style="fill:#fabe5c;stroke-width:0.301464"
         d="m 8.1207985,9.439297 c -0.080852,0 -0.1596613,0.00718 -0.2349311,0.021432 C 7.8103734,9.47512 7.7375092,9.496449 7.6690714,9.523374 7.6007201,9.550263 7.5343072,9.5844449 7.4728846,9.6231159 7.1681603,9.8151131 6.9749959,10.132112 6.9749959,10.49442 v 11.32531 l 2.0682153,2.756522 0.8861409,1.182073 0.8861419,-1.182073 2.068216,-2.756522 v -1.761567 a 0.21104661,0.21104661 0 0 1 0.375064,-0.132716 l 4.424117,5.44792 a 0.21104661,0.21104661 0 0 1 0.01237,0.01649 c 0.198843,0.301805 0.556149,0.50943 0.976816,0.50943 h 0.753426 2.110255 0.753427 c 0.645846,0 1.145803,-0.475073 1.145803,-1.055126 V 10.494424 c 0,-0.5800539 -0.499957,-1.055127 -1.145803,-1.055127 H 21.535752 19.425497 18.67207 c -0.645846,0 -1.145803,0.4750731 -1.145803,1.055127 v 4.757141 a 0.21104661,0.21104661 0 0 1 -0.375062,0.132716 L 12.722967,9.8934965 c -0.03555,-0.044083 -0.07864,-0.076988 -0.136012,-0.1096327 a 0.21104661,0.21104661 0 0 1 -0.03874,-0.028029 c -0.05803,-0.053881 -0.109998,-0.098808 -0.160744,-0.1310669 a 0.21104661,0.21104661 0 0 1 -0.0017,-0.0016 0.21104661,0.21104661 0 0 0 -8.65e-4,0 C 12.263024,9.5464344 12.123693,9.4894874 11.973614,9.4607826 a 0.21104661,0.21104661 0 0 1 -0.0017,0 c -0.07546,-0.014345 -0.153271,-0.021432 -0.234123,-0.021432 H 10.984359 8.8741051 Z"
         id="path4" />
      <path
         style="fill:#faab00;stroke-width:0.301464"
         d="m 11.310226,9.5499562 c -0.087,0.040209 -0.396151,-0.2314009 -0.473299,-0.1691865 l -0.586091,0.473159 12.519495,15.5242063 0.365285,-0.10421 0.06004,-0.514696 0.160842,-1.65768 L 23.16649,22.506962 12.887007,9.7607808 C 12.687026,9.5128028 12.374082,9.4954977 12.111283,9.3891134 Z"
         id="path6" />
      <path
         style="fill:#ffcd6e;stroke-width:0.301464"
         d="m 8.607971,11.178608 -0.5860902,0.472335 c -0.5850204,0.471786 -0.6130665,1.401353 -0.062645,2.083877 l 9.6488352,11.88083 0.780721,0.140808 2.260825,0.353854 z"
         id="path8" />
      <path
         style="fill:#f5b94a;stroke-width:0.301464"
         d="M 10.250836,9.8539287 8.607971,11.178608 20.649612,26.110312 22.770331,25.378135 22.508684,25.053692 Z"
         id="path10" />
      <path
         style="fill:#faab00;stroke-width:0.301464"
         d="M 21.535754,9.2282707 V 26.110312 h 0.753428 c 0.751552,0 1.356828,-0.564705 1.356828,-1.266153 V 10.494424 c 0,-0.7014484 -0.605276,-1.2661533 -1.356828,-1.2661533 z"
         id="path12" />
      <path
         style="fill:#f5b94a;stroke-width:0.301464"
         d="M 8.8742254,9.2282707 V 24.703199 l 1.0551267,1.407113 1.0551269,-1.407113 V 9.2282707 Z"
         id="path14" />
      <path
         style="fill:#faab00;stroke-width:0.301464"
         d="M 10.984479,9.2282707 V 24.703199 l 2.110255,-2.813398 V 10.494424 c 0,-0.438179 -0.236309,-0.8230447 -0.596805,-1.050182 -2.06e-4,-1.288e-4 -6.34e-4,1.299e-4 -8.66e-4,0 -0.14411,-0.090696 -0.308048,-0.15675 -0.484699,-0.1904169 -2.63e-4,-5.02e-5 -5.42e-4,5.01e-5 -8.66e-4,0 -0.08844,-0.016806 -0.17969,-0.025556 -0.273634,-0.025556 z"
         id="path16" />
      <path
         style="fill:#ffcd6e;stroke-width:0.301464"
         d="m 8.1207985,9.2282707 c -0.093943,0 -0.186028,0.00878 -0.2744984,0.025557 -0.08819,0.016806 -0.1737399,0.041508 -0.2547144,0.073365 C 7.5103805,9.3591411 7.4329249,9.398827 7.3607773,9.4442451 7.0002809,9.6713822 6.7639699,10.056249 6.7639699,10.494427 v 11.395378 l 2.1102555,2.813398 V 9.2282707 Z"
         id="path18" />
      <path
         style="fill:#ffcd6e;stroke-width:0.301464"
         d="m 18.672074,9.2282707 c -0.751553,0 -1.356829,0.5647049 -1.356829,1.2661533 v 14.349735 c 0,0.701448 0.605276,1.266153 1.356829,1.266153 h 0.753425 V 9.2282707 Z"
         id="path20" />
      <rect
         style="fill:#f5b94a;stroke-width:0.301464"
         width="2.110255"
         height="16.88204"
         x="19.425499"
         y="9.2282715"
         id="rect22" />
      <rect
         style="fill:#8d8d8d;stroke-width:0.301464"
         width="6.3307657"
         height="1.8087901"
         x="17.315245"
         y="12.544386"
         id="rect24" />
      <path
         style="fill:#ff7863;stroke-width:0.301464"
         d="m 18.672074,9.2282707 c -0.751553,0 -1.356829,0.5647049 -1.356829,1.2661533 v 2.049962 h 6.330765 v -2.049962 c 0,-0.7014484 -0.605276,-1.2661533 -1.356828,-1.2661533 z"
         id="path26" />
      <path
         style="fill:#f8e2c8;stroke-width:0.301464"
         d="m 6.7639699,21.889801 1.7912442,2.41172 h 2.7482769 l 1.791243,-2.41172 z"
         id="path28" />
      <path
         style="fill:#8d6e63;stroke-width:0.301464"
         d="m 8.5552141,24.301521 1.374138,1.808791 1.3741389,-1.808791 z"
         id="path30" />
      <path
         style="opacity:0.2;fill:#ffffff;stroke-width:0.301464"
         d="m 8.1205626,9.2282707 c -0.093943,0 -0.1859093,0.00854 -0.2743805,0.025317 C 7.7579932,9.270394 7.6727946,9.2953352 7.5918216,9.3271928 7.5106165,9.3591411 7.4331609,9.3989409 7.3610117,9.4443637 7.0005153,9.6715014 6.7639699,10.056014 6.7639699,10.494192 v 0.301465 c 0,-0.438179 0.2365454,-0.8226909 0.5970418,-1.0498282 0.072151,-0.045416 0.149605,-0.085216 0.2308099,-0.1171709 0.080977,-0.031858 0.166167,-0.056787 0.2543605,-0.073605 0.088474,-0.016806 0.1804374,-0.025317 0.2743805,-0.025317 h 0.7536628 2.1102536 0.753663 c 0.09394,0 0.184779,0.00854 0.273203,0.025317 3e-4,5.02e-5 9.87e-4,-5.02e-5 0.0011,0 0.17665,0.03367 0.340471,0.1000732 0.484581,0.1907712 h 6.03e-4 c 0.07458,0.046988 0.142529,0.102352 0.205491,0.1619195 0.06711,0.039583 0.129812,0.087437 0.183704,0.1542644 l 4.428345,5.49114 V 15.251682 L 12.886851,9.7605438 C 12.832958,9.6937186 12.770255,9.6458592 12.703147,9.6062788 12.640185,9.5467112 12.572241,9.4913526 12.497656,9.4443594 h -6.02e-4 c -0.14411,-0.090707 -0.307932,-0.1571033 -0.484582,-0.1907713 -2.63e-4,-5.02e-5 -8.66e-4,5.02e-5 -0.0011,0 -0.08843,-0.016806 -0.179247,-0.025317 -0.273191,-0.025317 H 10.984517 8.8742632 Z"
         id="path32" />
      <path
         style="opacity:0.2;fill:#ffffff;stroke-width:0.301464"
         d="m 18.671838,9.2282707 c -0.751553,0 -1.356593,0.564469 -1.356593,1.2659183 v 0.301465 c 0,-0.70145 0.60504,-1.2659175 1.356593,-1.2659175 h 3.61758 c 0.751552,0 1.356592,0.5644675 1.356592,1.2659175 v -0.301465 c 0,-0.7014493 -0.60504,-1.2659183 -1.356592,-1.2659183 z"
         id="path34" />
      <rect
         style="opacity:0.2;stroke-width:0.301464"
         width="6.3307657"
         height="0.301465"
         x="17.315245"
         y="12.544386"
         id="rect36" />
      <rect
         style="opacity:0.2;fill:#ffffff;stroke-width:0.301464"
         width="6.3307657"
         height="0.301465"
         x="17.315245"
         y="14.353176"
         id="rect38" />
      <path
         style="opacity:0.2;fill:#ffffff;stroke-width:0.301464"
         d="m 6.7639699,21.889801 0.2237443,0.301465 h 5.8832768 l 0.223743,-0.301465 z"
         id="path40" />
    </g>
  </g>
</svg>
