<?xml version="1.0" encoding="UTF-8" standalone="no"?>
<svg
   width="128"
   height="128"
   viewBox="0 0 33.866666 33.866668"
   version="1.1"
   id="svg1015"
   inkscape:version="1.1.2 (0a00cf5339, 2022-02-04)"
   sodipodi:docname="org.flycast.Flycast.svg"
   xmlns:inkscape="http://www.inkscape.org/namespaces/inkscape"
   xmlns:sodipodi="http://sodipodi.sourceforge.net/DTD/sodipodi-0.dtd"
   xmlns:xlink="http://www.w3.org/1999/xlink"
   xmlns="http://www.w3.org/2000/svg"
   xmlns:svg="http://www.w3.org/2000/svg"
   xmlns:rdf="http://www.w3.org/1999/02/22-rdf-syntax-ns#"
   xmlns:cc="http://creativecommons.org/ns#"
   xmlns:dc="http://purl.org/dc/elements/1.1/">
  <defs
     id="defs1009">
    <linearGradient
       inkscape:collect="always"
       id="linearGradient873">
      <stop
         style="stop-color:#0b0b0b;stop-opacity:1;"
         offset="0"
         id="stop869" />
      <stop
         style="stop-color:#0b0b0b;stop-opacity:0.85882353;"
         offset="0.68076366"
         id="stop878" />
      <stop
         style="stop-color:#0b0b0b;stop-opacity:0.83137255;"
         offset="0.69925421"
         id="stop888" />
      <stop
         style="stop-color:#0b0b0b;stop-opacity:0.80392157;"
         offset="0.71879315"
         id="stop890" />
      <stop
         style="stop-color:#0b0b0b;stop-opacity:0.78039216;"
         offset="0.73593426"
         id="stop892" />
      <stop
         style="stop-color:#0b0b0b;stop-opacity:0.75686275;"
         offset="0.75022364"
         id="stop894" />
      <stop
         style="stop-color:#0b0b0b;stop-opacity:0.73333333;"
         offset="0.76798755"
         id="stop896" />
      <stop
         style="stop-color:#0b0b0b;stop-opacity:0.08235294;"
         offset="0.9150058"
         id="stop919" />
      <stop
         style="stop-color:#0b0b0b;stop-opacity:0.07058824;"
         offset="0.92246956"
         id="stop917" />
      <stop
         style="stop-color:#0b0b0b;stop-opacity:0.05882353;"
         offset="0.92918676"
         id="stop915" />
      <stop
         style="stop-color:#0b0b0b;stop-opacity:0.04705882;"
         offset="0.93840873"
         id="stop912" />
      <stop
         style="stop-color:#0b0b0b;stop-opacity:0.03137255;"
         offset="0.94760686"
         id="stop910" />
      <stop
         style="stop-color:#0b0b0b;stop-opacity:0.02352941;"
         offset="0.95380515"
         id="stop908" />
      <stop
         style="stop-color:#0b0b0b;stop-opacity:0.01568627;"
         offset="0.95886087"
         id="stop906" />
      <stop
         style="stop-color:#0b0b0b;stop-opacity:0.01176471;"
         offset="0.96356124"
         id="stop904" />
      <stop
         style="stop-color:#0b0b0b;stop-opacity:0.00784314;"
         offset="0.96845078"
         id="stop902" />
      <stop
         style="stop-color:#0b0b0b;stop-opacity:0.00392157;"
         offset="0.97347641"
         id="stop900" />
      <stop
         style="stop-color:#0b0b0b;stop-opacity:0;"
         offset="0.97812337"
         id="stop886" />
      <stop
         style="stop-color:#0b0b0b;stop-opacity:0;"
         offset="0.98456311"
         id="stop884" />
      <stop
         style="stop-color:#0b0b0b;stop-opacity:0;"
         offset="0.98700982"
         id="stop882" />
      <stop
         style="stop-color:#0b0b0b;stop-opacity:0;"
         offset="0.98924524"
         id="stop880" />
      <stop
         style="stop-color:#0b0b0b;stop-opacity:0;"
         offset="1"
         id="stop871" />
    </linearGradient>
    <linearGradient
       inkscape:collect="always"
       id="linearGradient895">
      <stop
         style="stop-color:#f928fe;stop-opacity:1"
         offset="0"
         id="stop891" />
      <stop
         style="stop-color:#7d07d9;stop-opacity:1"
         offset="1"
         id="stop893" />
    </linearGradient>
    <linearGradient
       inkscape:collect="always"
       id="linearGradient879">
      <stop
         style="stop-color:#f218ff;stop-opacity:1"
         offset="0"
         id="stop875" />
      <stop
         style="stop-color:#a510ff;stop-opacity:1"
         offset="1"
         id="stop877" />
    </linearGradient>
    <radialGradient
       inkscape:collect="always"
       xlink:href="#linearGradient873"
       id="radialGradient898"
       gradientUnits="userSpaceOnUse"
       cx="60.636452"
       cy="20.456388"
       fx="60.636452"
       fy="20.456388"
       r="17.303919"
       gradientTransform="translate(-43.433354,-3.9448764)" />
    <radialGradient
       inkscape:collect="always"
       xlink:href="#linearGradient879"
       id="radialGradient993"
       cx="16.968126"
       cy="3.7658708"
       fx="16.968126"
       fy="3.7658708"
       r="13.695572"
       gradientUnits="userSpaceOnUse"
       gradientTransform="matrix(4.8885673,0,0,1.8641486,-65.723642,-2.4382716)" />
    <linearGradient
       id="b"
       x2="1"
       gradientTransform="matrix(0.10138208,-17.338417,17.338417,0.10138208,16.113103,25.29877)"
       gradientUnits="userSpaceOnUse"
       x1="-1.2255912"
       y1="0.013013591"
       y2="1.110223e-16">
      <stop
         stop-color="#c9cfe5"
         offset="0"
         id="stop7"
         style="stop-color:#c22aff;stop-opacity:1" />
      <stop
         stop-color="#fff"
         offset="1"
         id="stop9" />
    </linearGradient>
    <linearGradient
       inkscape:collect="always"
       xlink:href="#linearGradient1399"
       id="linearGradient1401"
       x1="6.9469728"
       y1="7.5193329"
       x2="6.9469728"
       y2="49.583897"
       gradientUnits="userSpaceOnUse"
       gradientTransform="translate(-0.11066918,-0.90158828)" />
    <linearGradient
       inkscape:collect="always"
       id="linearGradient1399">
      <stop
         style="stop-color:#fcfcfc;stop-opacity:1"
         offset="0"
         id="stop1395" />
      <stop
         style="stop-color:#7e00dd;stop-opacity:1"
         offset="1"
         id="stop1397" />
    </linearGradient>
    <linearGradient
       inkscape:collect="always"
       xlink:href="#linearGradient895"
       id="linearGradient4782"
       gradientUnits="userSpaceOnUse"
       gradientTransform="matrix(0.04277854,0,0,0.04277854,-95.919086,-44.867312)"
       x1="2685.9844"
       y1="1088.7905"
       x2="2685.9844"
       y2="1770.3615" />
  </defs>
  <sodipodi:namedview
     id="base"
     pagecolor="#ffffff"
     bordercolor="#666666"
     borderopacity="1.0"
     inkscape:pageopacity="0.0"
     inkscape:pageshadow="2"
     inkscape:zoom="2.8"
     inkscape:cx="103.21429"
     inkscape:cy="75.178572"
     inkscape:document-units="mm"
     inkscape:current-layer="layer1"
     inkscape:document-rotation="0"
     showgrid="false"
     units="px"
     inkscape:window-width="1920"
     inkscape:window-height="1030"
     inkscape:window-x="0"
     inkscape:window-y="24"
     inkscape:window-maximized="1"
     inkscape:pagecheckerboard="0"
     inkscape:lockguides="false" />
  <metadata
     id="metadata1012">
    <rdf:RDF>
      <cc:Work
         rdf:about="">
        <dc:format>image/svg+xml</dc:format>
        <dc:type
           rdf:resource="http://purl.org/dc/dcmitype/StillImage" />
      </cc:Work>
    </rdf:RDF>
  </metadata>
  <g
     inkscape:label="Capa 1"
     inkscape:groupmode="layer"
     id="layer1">
    <circle
       style="opacity:0.309726;fill:url(#radialGradient898);fill-opacity:1;stroke-width:3;stroke-linecap:square;stroke-linejoin:round"
       id="path867"
       cx="17.203098"
       cy="16.511513"
       r="17.303919" />
    <circle
       style="fill:url(#linearGradient4782);fill-opacity:1;stroke:#b1aaaa;stroke-width:0.0575565;stroke-linecap:square;stroke-opacity:0.992157"
       id="circle839"
       cx="17.203098"
       cy="16.511513"
       r="15.118138" />
    <circle
       style="fill:url(#radialGradient993);fill-opacity:1;stroke:none;stroke-width:0.0498826;stroke-linecap:square;stroke-opacity:1"
       id="circle839-3"
       cx="17.203098"
       cy="16.511513"
       r="13.102469" />
    <path
       d="m 17.267074,7.3593973 c -5.282687,0 -10.4307703,4.4963487 -10.4307703,10.6627917 0,4.74888 4.2240183,9.039774 9.5615393,9.039774 1.940055,0 4.101204,-0.668997 5.857122,-1.912759 1.75592,-1.243765 3.12493,-3.144805 3.12493,-5.505129 0,-4.511722 -3.501758,-8.807754 -8.112821,-8.807754 -3.715135,0 -6.840375,2.936993 -6.953847,6.344933 -0.04959,1.489185 0.280259,3.071296 1.268761,4.323518 0.988499,1.252224 2.643264,2.08027 4.873578,2.08027 2.351239,0 4.867918,-1.820772 4.867918,-4.751343 0,-2.19156 -1.794996,-3.940966 -3.974919,-3.940966 -0.503606,0 -1.139691,0.02749 -1.771284,0.336147 -0.631593,0.308653 -1.207644,1.068625 -1.207644,1.981801 0,1.495629 0.916057,2.457162 1.75544,2.748037 0.839382,0.290876 1.603777,0.136953 1.603777,0.136953 A 0.86961216,0.86961216 0 1 0 17.431187,18.38211 c 0,0 -0.405627,0.04912 -0.73681,-0.06564 -0.331183,-0.114766 -0.586278,-0.167572 -0.586278,-1.105781 0,-0.358747 0.03205,-0.322179 0.232022,-0.419902 0.199965,-0.09772 0.619637,-0.159577 1.008444,-0.159577 1.283237,0 2.236458,0.9309 2.236458,2.202504 0,1.937119 -1.656276,3.01288 -3.129457,3.01288 -1.826098,0 -2.852279,-0.58672 -3.508616,-1.418159 -0.656333,-0.831439 -0.934765,-2.001886 -0.89526,-3.188311 0.07786,-2.338243 2.440263,-4.665326 5.215384,-4.665326 3.501758,0 6.374358,3.468193 6.374358,7.069292 0,1.696088 -0.955682,3.0696 -2.390384,4.085837 -1.434702,1.016238 -3.330099,1.593592 -4.853205,1.593592 -4.397864,0 -7.823077,-3.601773 -7.823077,-7.301315 0,-5.191507 4.406297,-8.9243295 8.692308,-8.9243295 5.026574,0 7.169467,2.0217365 8.261089,4.0360385 1.091621,2.014303 1.011838,4.03717 1.011838,4.03717 a 0.86931777,0.86931777 0 1 0 1.736198,0.07922 c 0,0 0.123263,-2.46816 -1.21896,-4.944883 C 25.715015,9.828698 22.787167,7.3594051 17.267074,7.3594051 Z"
       style="opacity:0.1;stroke-width:0.579486"
       id="path8" />
    <path
       d="m 17.267074,6.7799108 c -5.282687,0 -10.4307703,4.4963492 -10.4307703,10.6627922 0,4.74888 4.2240183,9.039774 9.5615393,9.039774 1.940055,0 4.101204,-0.668998 5.857122,-1.91276 1.75592,-1.243764 3.12493,-3.144805 3.12493,-5.50513 0,-4.51172 -3.501758,-8.807752 -8.112821,-8.807752 -3.715135,0 -6.840375,2.936993 -6.953847,6.344933 -0.04959,1.489185 0.280259,3.071294 1.268761,4.323516 0.988499,1.252222 2.643264,2.080269 4.873578,2.080269 2.351239,0 4.867918,-1.820769 4.867918,-4.751342 0,-2.191558 -1.794996,-3.940967 -3.974919,-3.940967 -0.503606,0 -1.139691,0.02749 -1.771284,0.336148 -0.631593,0.308655 -1.207644,1.068625 -1.207644,1.981803 0,1.495626 0.916057,2.45716 1.75544,2.748035 0.839382,0.290877 1.603777,0.136952 1.603777,0.136952 a 0.86961216,0.86961216 0 1 0 -0.297667,-1.713561 c 0,0 -0.405627,0.04912 -0.73681,-0.06564 -0.331183,-0.114765 -0.586278,-0.167571 -0.586278,-1.105778 0,-0.35875 0.03205,-0.322179 0.232022,-0.419902 0.199965,-0.09772 0.619637,-0.159577 1.008444,-0.159577 1.283237,0 2.236458,0.930901 2.236458,2.202504 0,1.937119 -1.656276,3.01288 -3.129457,3.01288 -1.826098,0 -2.852279,-0.586721 -3.508616,-1.418159 -0.656333,-0.831437 -0.934765,-2.001885 -0.89526,-3.188312 0.07786,-2.33824 2.440263,-4.665324 5.215384,-4.665324 3.501758,0 6.374358,3.468192 6.374358,7.069292 0,1.696086 -0.955682,3.069601 -2.390384,4.085838 -1.434702,1.016236 -3.330099,1.593589 -4.853205,1.593589 -4.397864,0 -7.823077,-3.60177 -7.823077,-7.301312 0,-5.191508 4.406297,-8.9243306 8.692308,-8.9243306 5.026574,0 7.169467,2.0217356 8.261089,4.0360396 1.091621,2.014303 1.011838,4.037169 1.011838,4.037169 a 0.86931777,0.86931777 0 1 0 1.736198,0.07922 c 0,0 0.123263,-2.468159 -1.21896,-4.944882 C 25.715015,9.2492128 22.787167,6.7799217 17.267074,6.7799217 Z"
       style="fill:url(#linearGradient1401);fill-opacity:1;stroke-width:0.579486"
       id="path10" />
  </g>
</svg>
