<?xml version="1.0" encoding="UTF-8" standalone="no"?>
<svg
   width="128"
   height="128"
   viewBox="0 0 33.866666 33.866668"
   version="1.1"
   id="svg1015"
   inkscape:version="1.1.2 (0a00cf5339, 2022-02-04)"
   sodipodi:docname="org.cryptomator.Cryptomator.svg"
   xmlns:inkscape="http://www.inkscape.org/namespaces/inkscape"
   xmlns:sodipodi="http://sodipodi.sourceforge.net/DTD/sodipodi-0.dtd"
   xmlns:xlink="http://www.w3.org/1999/xlink"
   xmlns="http://www.w3.org/2000/svg"
   xmlns:svg="http://www.w3.org/2000/svg"
   xmlns:rdf="http://www.w3.org/1999/02/22-rdf-syntax-ns#"
   xmlns:cc="http://creativecommons.org/ns#"
   xmlns:dc="http://purl.org/dc/elements/1.1/">
  <defs
     id="defs1009">
    <linearGradient
       inkscape:collect="always"
       id="linearGradient873">
      <stop
         style="stop-color:#0b0b0b;stop-opacity:1;"
         offset="0"
         id="stop869" />
      <stop
         style="stop-color:#0b0b0b;stop-opacity:0.85882353;"
         offset="0.68076366"
         id="stop878" />
      <stop
         style="stop-color:#0b0b0b;stop-opacity:0.83137255;"
         offset="0.69925421"
         id="stop888" />
      <stop
         style="stop-color:#0b0b0b;stop-opacity:0.80392157;"
         offset="0.71879315"
         id="stop890" />
      <stop
         style="stop-color:#0b0b0b;stop-opacity:0.78039216;"
         offset="0.73593426"
         id="stop892" />
      <stop
         style="stop-color:#0b0b0b;stop-opacity:0.75686275;"
         offset="0.75022364"
         id="stop894" />
      <stop
         style="stop-color:#0b0b0b;stop-opacity:0.73333333;"
         offset="0.76798755"
         id="stop896" />
      <stop
         style="stop-color:#0b0b0b;stop-opacity:0.08235294;"
         offset="0.9150058"
         id="stop919" />
      <stop
         style="stop-color:#0b0b0b;stop-opacity:0.07058824;"
         offset="0.92246956"
         id="stop917" />
      <stop
         style="stop-color:#0b0b0b;stop-opacity:0.05882353;"
         offset="0.92918676"
         id="stop915" />
      <stop
         style="stop-color:#0b0b0b;stop-opacity:0.04705882;"
         offset="0.93840873"
         id="stop912" />
      <stop
         style="stop-color:#0b0b0b;stop-opacity:0.03137255;"
         offset="0.94760686"
         id="stop910" />
      <stop
         style="stop-color:#0b0b0b;stop-opacity:0.02352941;"
         offset="0.95380515"
         id="stop908" />
      <stop
         style="stop-color:#0b0b0b;stop-opacity:0.01568627;"
         offset="0.95886087"
         id="stop906" />
      <stop
         style="stop-color:#0b0b0b;stop-opacity:0.01176471;"
         offset="0.96356124"
         id="stop904" />
      <stop
         style="stop-color:#0b0b0b;stop-opacity:0.00784314;"
         offset="0.96845078"
         id="stop902" />
      <stop
         style="stop-color:#0b0b0b;stop-opacity:0.00392157;"
         offset="0.97347641"
         id="stop900" />
      <stop
         style="stop-color:#0b0b0b;stop-opacity:0;"
         offset="0.97812337"
         id="stop886" />
      <stop
         style="stop-color:#0b0b0b;stop-opacity:0;"
         offset="0.98456311"
         id="stop884" />
      <stop
         style="stop-color:#0b0b0b;stop-opacity:0;"
         offset="0.98700982"
         id="stop882" />
      <stop
         style="stop-color:#0b0b0b;stop-opacity:0;"
         offset="0.98924524"
         id="stop880" />
      <stop
         style="stop-color:#0b0b0b;stop-opacity:0;"
         offset="1"
         id="stop871" />
    </linearGradient>
    <linearGradient
       inkscape:collect="always"
       xlink:href="#linearGradient895"
       id="linearGradient897"
       x1="2685.9844"
       y1="1088.7905"
       x2="2685.9844"
       y2="1770.3615"
       gradientUnits="userSpaceOnUse"
       gradientTransform="matrix(0.04277854,0,0,0.04277854,-95.919086,-44.867312)" />
    <linearGradient
       inkscape:collect="always"
       id="linearGradient895">
      <stop
         style="stop-color:#8fea72;stop-opacity:1"
         offset="0"
         id="stop891" />
      <stop
         style="stop-color:#27a912;stop-opacity:1"
         offset="1"
         id="stop893" />
    </linearGradient>
    <linearGradient
       inkscape:collect="always"
       id="linearGradient879">
      <stop
         style="stop-color:#62dc3b;stop-opacity:1"
         offset="0"
         id="stop875" />
      <stop
         style="stop-color:#27b511;stop-opacity:1"
         offset="1"
         id="stop877" />
    </linearGradient>
    <radialGradient
       inkscape:collect="always"
       xlink:href="#linearGradient873"
       id="radialGradient898"
       gradientUnits="userSpaceOnUse"
       cx="60.636452"
       cy="20.456388"
       fx="60.636452"
       fy="20.456388"
       r="17.303919"
       gradientTransform="translate(-43.433354,-3.9448764)" />
    <radialGradient
       inkscape:collect="always"
       xlink:href="#linearGradient879"
       id="radialGradient993"
       cx="16.968126"
       cy="3.7658708"
       fx="16.968126"
       fy="3.7658708"
       r="13.695572"
       gradientUnits="userSpaceOnUse"
       gradientTransform="matrix(4.8885673,0,0,1.8641486,-65.723642,-2.4382716)" />
    <linearGradient
       id="b"
       x2="1"
       gradientTransform="matrix(0.10138208,-17.338417,17.338417,0.10138208,16.113103,25.29877)"
       gradientUnits="userSpaceOnUse"
       x1="-1.2255912"
       y1="0.013013591"
       y2="1.110223e-16">
      <stop
         stop-color="#c9cfe5"
         offset="0"
         id="stop7"
         style="stop-color:#c22aff;stop-opacity:1" />
      <stop
         stop-color="#fff"
         offset="1"
         id="stop9" />
    </linearGradient>
    <linearGradient
       inkscape:collect="always"
       xlink:href="#linearGradient2245"
       id="linearGradient2247"
       x1="27.088989"
       y1="33.833038"
       x2="27.088989"
       y2="224.81226"
       gradientUnits="userSpaceOnUse"
       gradientTransform="matrix(0.26458333,0,0,0.26458333,-0.66407109,0.59389496)" />
    <linearGradient
       inkscape:collect="always"
       id="linearGradient2245">
      <stop
         style="stop-color:#ffffff;stop-opacity:1;"
         offset="0"
         id="stop2241" />
      <stop
         style="stop-color:#0ca570;stop-opacity:1"
         offset="1"
         id="stop2243" />
    </linearGradient>
  </defs>
  <sodipodi:namedview
     id="base"
     pagecolor="#ffffff"
     bordercolor="#666666"
     borderopacity="1.0"
     inkscape:pageopacity="0.0"
     inkscape:pageshadow="2"
     inkscape:zoom="3.959798"
     inkscape:cx="98.489872"
     inkscape:cy="90.029845"
     inkscape:document-units="mm"
     inkscape:current-layer="layer1"
     inkscape:document-rotation="0"
     showgrid="false"
     units="px"
     inkscape:window-width="1920"
     inkscape:window-height="1028"
     inkscape:window-x="0"
     inkscape:window-y="24"
     inkscape:window-maximized="1"
     inkscape:pagecheckerboard="0"
     inkscape:lockguides="false" />
  <metadata
     id="metadata1012">
    <rdf:RDF>
      <cc:Work
         rdf:about="">
        <dc:format>image/svg+xml</dc:format>
        <dc:type
           rdf:resource="http://purl.org/dc/dcmitype/StillImage" />
      </cc:Work>
    </rdf:RDF>
  </metadata>
  <g
     inkscape:label="Capa 1"
     inkscape:groupmode="layer"
     id="layer1">
    <circle
       style="opacity:0.309726;fill:url(#radialGradient898);fill-opacity:1;stroke-width:3;stroke-linecap:square;stroke-linejoin:round"
       id="path867"
       cx="17.203098"
       cy="16.511513"
       r="17.303919" />
    <circle
       style="fill:url(#linearGradient897);fill-opacity:1;stroke:#b1aaaa;stroke-width:0.0575565;stroke-linecap:square;stroke-opacity:0.992157"
       id="circle839"
       cx="17.203098"
       cy="16.511513"
       r="15.118138" />
    <circle
       style="fill:url(#radialGradient993);fill-opacity:1;stroke:none;stroke-width:0.0498826;stroke-linecap:square;stroke-opacity:1"
       id="circle839-3"
       cx="17.203098"
       cy="16.511513"
       r="13.102469" />
    <g
       id="g4054"
       style="opacity:0.573123"
       transform="translate(-0.17248786,-0.76760503)">
      <path
         id="path3769"
         style="color:#000000;fill:#0d3904;fill-opacity:0.0357439;stroke:none;stroke-width:1;-inkscape-stroke:none"
         d="m 17.14808,8.0278588 c -1.716168,0 -3.098501,0.7459291 -4.011641,1.8417481 -0.900815,1.0810291 -1.367827,2.4856121 -1.380278,3.8819331 -0.105772,0.02949 -0.212793,0.06118 -0.32091,0.09457 l -0.308509,0.0956 -0.05271,0.318326 c 0,0 -0.03192,0.171377 -0.05323,0.445968 a 1.3918037,1.3918037 0 0 0 -1.3864747,1.392163 1.3918037,1.3918037 0 0 0 0.270268,0.822689 L 9.5464775,17.621072 C 9.2657422,17.664102 9.009299,17.83717 8.8695162,18.110447 l -0.3829224,0.748792 c -0.1195721,0.233765 -0.1296419,0.493895 -0.049093,0.722436 a 1.5353422,1.5353422 0 0 0 -1.3477213,2.257744 0.3709004,0.3709004 0 0 0 0.649056,-0.358118 0.79372681,0.79372681 0 1 1 0.7834148,0.404626 0.3709004,0.3709004 0 0 0 0.041341,0.73949 0.40391053,0.40391053 0 0 0 0.042891,-0.0021 1.5353422,1.5353422 0 0 0 1.053682,-2.41794 c 0.231615,-0.06874 0.4357837,-0.228874 0.5550057,-0.461954 l 0.382923,-0.748792 c 0.143269,-0.280094 0.129431,-0.59802 -0.0093,-0.854211 l 0.334863,-0.654741 a 1.3918037,1.3918037 0 0 0 0.10232,0.0041 1.3918037,1.3918037 0 0 0 0.04341,-0.0016 c -0.07084,0.332658 -0.127445,0.749313 -0.128158,1.238684 -0.0016,1.061658 0.275983,1.973662 0.709518,2.748153 h -0.139527 a 0.95914841,0.95914841 0 0 0 -0.439249,0.10852 c -0.367377,0.187862 -0.66575,0.606945 -0.840259,1.18184 -0.162082,0.534282 -0.204967,1.152758 -0.120406,1.743046 0.157819,1.09972 0.720385,1.838648 1.400431,1.838648 h 1.919262 v -5.17e-4 c 0,0 5.17e-4,0 5.17e-4,0 0.08158,-0.0043 0.162068,-0.04122 0.239262,-0.110587 l 0.921391,-0.812354 c 0.167729,-0.149788 0.297551,-0.501282 0.35605,-0.958081 1.130817,0.583149 2.06344,0.815971 2.06344,0.815971 l 0.126608,0.03307 0.127124,-0.03101 c 0,0 0.886724,-0.219216 1.980241,-0.767395 0.06137,0.432 0.186841,0.763251 0.348299,0.907438 l 0.921391,0.812354 c 0.07737,0.06937 0.158203,0.106261 0.239778,0.110587 v 5.17e-4 h 1.91978 c 0.67986,0 1.242613,-0.738928 1.400431,-1.838648 0.08456,-0.590288 0.04168,-1.208764 -0.120406,-1.743046 -0.174508,-0.574895 -0.472882,-0.993978 -0.840259,-1.18184 a 0.95914841,0.95914841 0 0 0 -0.43925,-0.10852 h -0.02945 c 0.430827,-0.770099 0.707434,-1.676087 0.709001,-2.730583 0,-0.521995 -0.07016,-0.928041 -0.148829,-1.259871 a 1.3918037,1.3918037 0 0 0 0.114205,0.0052 1.3918037,1.3918037 0 0 0 0.101286,-0.0041 l 0.33538,0.655774 c -0.138733,0.256192 -0.152571,0.574118 -0.0093,0.854212 l 0.382923,0.748791 c 0.119222,0.233081 0.323391,0.393213 0.555005,0.461987 a 1.5355276,1.5355276 0 0 0 1.054716,2.416907 0.40965948,0.40965948 0 0 0 0.04237,0.0021 h 5.17e-4 a 0.3709004,0.3709004 0 0 0 0.04134,-0.73949 0.79372681,0.79372681 0 1 1 0.783416,-0.404626 0.3709004,0.3709004 0 1 0 0.649055,0.358118 1.5355276,1.5355276 0 0 0 -1.348238,-2.25826 c 0,0 5.17e-4,-5.17e-4 5.17e-4,-5.17e-4 0.07978,-0.228056 0.0691,-0.487289 -0.05013,-0.72037 l -0.382925,-0.7488 c -0.139783,-0.273278 -0.396226,-0.446342 -0.676961,-0.489376 l -0.358118,-0.700216 a 1.3918037,1.3918037 0 0 0 0.270785,-0.823722 1.3918037,1.3918037 0 0 0 -1.391647,-1.392163 1.3918037,1.3918037 0 0 0 -0.03514,0.0015 c -0.02003,-0.265275 -0.04909,-0.429898 -0.04909,-0.429898 l -0.05271,-0.318326 -0.308509,-0.0956 c -0.113446,-0.03541 -0.225552,-0.06865 -0.336413,-0.09974 -0.0225,-2.845678 -2.174572,-5.7360842 -5.390369,-5.7360842 z m 0,1.0464477 c 2.397871,0 4.005806,2.0576925 4.246253,4.2111125 h -8.501807 c 0.100659,-1.003524 0.422462,-1.99272 1.048515,-2.744019 0.736438,-0.8837667 1.787247,-1.4670935 3.207039,-1.4670935 z m -2.516642,5.3268065 c 0.357593,0.0037 0.676785,0.03066 0.956014,0.06976 0.893532,0.125131 1.330151,0.351917 1.330151,0.351917 l 0.234611,0.116788 0.234095,-0.115238 c 0,0 0.439819,-0.224877 1.334285,-0.347266 0.817864,-0.111908 2.019676,-0.07798 3.466455,0.312126 0.01185,0.106673 0.03324,0.258102 0.04341,0.442867 a 1.3918037,1.3918037 0 0 0 -0.30179,0.866097 1.3918037,1.3918037 0 0 0 0.125574,0.576192 c -0.01687,0.215484 9.5e-5,0.433191 0.05013,0.644405 l -10e-4,0.0098 0.02894,0.09974 c 0.0828,0.286613 0.176217,0.736022 0.176217,1.316199 -0.0021,1.106332 -0.357906,2.002334 -0.890385,2.730583 h -0.663009 v 5.16e-4 c -0.08197,0.0043 -0.161899,0.0409 -0.238745,0.106971 L 19.595,22.39544 c -0.183441,0.161699 -0.298589,0.523935 -0.35295,0.93586 -1.086205,0.622311 -1.997889,0.850923 -2.10168,0.877983 -0.107116,-0.02827 -1.075304,-0.274856 -2.206067,-0.947746 -0.05784,-0.382688 -0.169708,-0.713596 -0.342615,-0.866097 l -0.921907,-0.81287 c -0.07667,-0.06607 -0.156775,-0.102638 -0.238746,-0.106971 v -5.16e-4 H 12.880681 C 12.34433,20.742406 11.986565,19.84094 11.988229,18.72693 c 8.46e-4,-0.579661 0.09582,-1.029208 0.179318,-1.314648 l -0.0021,0.0041 c 0.06447,-0.215223 0.09317,-0.438438 0.0863,-0.660942 a 1.3918037,1.3918037 0 0 0 0.165882,-0.657324 1.3918037,1.3918037 0 0 0 -0.339514,-0.911055 c 0.0111,-0.171617 0.03083,-0.312311 0.04237,-0.413412 0.656207,-0.174823 1.292559,-0.313155 1.826245,-0.3514 0.241437,-0.0173 0.470157,-0.02342 0.684713,-0.02119 z m 2.596741,2.323889 a 1.0655968,1.0655968 0 0 0 -0.315743,2.101681 l -0.59893,2.512508 0.828373,0.238228 0.829407,-0.235644 -0.590662,-2.514059 a 1.0655968,1.0655968 0 0 0 0.832507,-1.038179 1.0655968,1.0655968 0 0 0 -0.984952,-1.064535 z" />
      <path
         id="path4041"
         style="color:#000000;fill:#0d3904;fill-opacity:0.0357439;stroke:none;stroke-width:1;-inkscape-stroke:none"
         d="m 17.439564,8.2180371 c -1.716168,0 -3.098501,0.7459291 -4.011641,1.8417479 -0.900815,1.081029 -1.367827,2.485612 -1.380278,3.881933 -0.105772,0.02949 -0.212793,0.06118 -0.32091,0.09457 l -0.308509,0.0956 -0.05271,0.318326 c 0,0 -0.03192,0.171377 -0.05323,0.445968 a 1.3918037,1.3918037 0 0 0 -1.3864754,1.392163 1.3918037,1.3918037 0 0 0 0.2702684,0.822689 L 9.8379611,17.81125 c -0.2807353,0.04303 -0.5371785,0.216098 -0.6769613,0.489375 l -0.3829224,0.748792 c -0.1195721,0.233765 -0.1296419,0.493895 -0.049093,0.722436 a 1.5353422,1.5353422 0 0 0 -1.3477213,2.257744 0.3709004,0.3709004 0 0 0 0.649056,-0.358118 0.79372681,0.79372681 0 1 1 0.7834148,0.404626 0.3709004,0.3709004 0 0 0 0.041341,0.73949 0.40391053,0.40391053 0 0 0 0.042891,-0.0021 1.5353422,1.5353422 0 0 0 1.0536817,-2.41794 c 0.2316154,-0.06874 0.4357844,-0.228874 0.5550064,-0.461954 l 0.382923,-0.748792 c 0.143269,-0.280094 0.129431,-0.59802 -0.0093,-0.854211 l 0.334863,-0.654741 a 1.3918037,1.3918037 0 0 0 0.10232,0.0041 1.3918037,1.3918037 0 0 0 0.04341,-0.0016 c -0.07084,0.332658 -0.127445,0.749313 -0.128158,1.238684 -0.0016,1.061658 0.275983,1.973662 0.709518,2.748153 h -0.139527 a 0.95914841,0.95914841 0 0 0 -0.439249,0.10852 c -0.367377,0.187862 -0.66575,0.606945 -0.840259,1.18184 -0.162082,0.534282 -0.204967,1.152758 -0.120406,1.743046 0.157819,1.09972 0.720385,1.838648 1.400431,1.838648 h 1.919262 v -5.17e-4 c 0,0 5.17e-4,0 5.17e-4,0 0.08158,-0.0043 0.162068,-0.04122 0.239262,-0.110587 l 0.921391,-0.812354 c 0.167729,-0.149788 0.297551,-0.501282 0.35605,-0.958081 1.130817,0.583149 2.06344,0.815971 2.06344,0.815971 l 0.126608,0.03307 0.127124,-0.03101 c 0,0 0.886724,-0.219216 1.980241,-0.767395 0.06137,0.432 0.186841,0.763251 0.348299,0.907438 l 0.921391,0.812354 c 0.07737,0.06937 0.158203,0.106261 0.239778,0.110587 v 5.17e-4 h 1.91978 c 0.67986,0 1.242613,-0.738928 1.400431,-1.838648 0.08456,-0.590288 0.04168,-1.208764 -0.120406,-1.743046 -0.174508,-0.574895 -0.472882,-0.993978 -0.840259,-1.18184 a 0.95914841,0.95914841 0 0 0 -0.43925,-0.10852 h -0.02945 c 0.430827,-0.770099 0.707434,-1.676087 0.709001,-2.730583 0,-0.521995 -0.07016,-0.928041 -0.148829,-1.259871 a 1.3918037,1.3918037 0 0 0 0.114205,0.0052 1.3918037,1.3918037 0 0 0 0.101286,-0.0041 l 0.33538,0.655774 c -0.138733,0.256192 -0.152571,0.574118 -0.0093,0.854212 l 0.382923,0.748791 c 0.119222,0.233081 0.323391,0.393213 0.555005,0.461987 a 1.5355276,1.5355276 0 0 0 1.054716,2.416907 0.40965948,0.40965948 0 0 0 0.04237,0.0021 h 5.17e-4 a 0.3709004,0.3709004 0 0 0 0.04134,-0.73949 0.79372681,0.79372681 0 1 1 0.783416,-0.404626 0.3709004,0.3709004 0 1 0 0.649055,0.358118 1.5355276,1.5355276 0 0 0 -1.348238,-2.25826 c 0,0 5.17e-4,-5.17e-4 5.17e-4,-5.17e-4 0.07978,-0.228056 0.0691,-0.487289 -0.05013,-0.72037 l -0.382925,-0.7488 c -0.139783,-0.273278 -0.396226,-0.446342 -0.676961,-0.489376 l -0.358118,-0.700216 a 1.3918037,1.3918037 0 0 0 0.270785,-0.823722 1.3918037,1.3918037 0 0 0 -1.391647,-1.392163 1.3918037,1.3918037 0 0 0 -0.03514,0.0015 c -0.02003,-0.265275 -0.04909,-0.429898 -0.04909,-0.429898 l -0.05271,-0.318326 -0.308509,-0.0956 c -0.113446,-0.03541 -0.225552,-0.06865 -0.336413,-0.09974 -0.0225,-2.845678 -2.174572,-5.7360839 -5.390369,-5.7360839 z m 0,1.0464477 c 2.397871,0 4.005806,2.0576922 4.246253,4.2111122 H 13.18401 c 0.100659,-1.003524 0.422462,-1.99272 1.048515,-2.744019 0.736438,-0.8837664 1.787247,-1.4670932 3.207039,-1.4670932 z m -2.516642,5.3268062 c 0.357593,0.0037 0.676785,0.03066 0.956014,0.06976 0.893532,0.125131 1.330151,0.351917 1.330151,0.351917 l 0.234611,0.116788 0.234095,-0.115238 c 0,0 0.439819,-0.224877 1.334285,-0.347266 0.817864,-0.111908 2.019676,-0.07798 3.466455,0.312126 0.01185,0.106673 0.03324,0.258102 0.04341,0.442867 a 1.3918037,1.3918037 0 0 0 -0.30179,0.866097 1.3918037,1.3918037 0 0 0 0.125574,0.576192 c -0.01687,0.215484 9.5e-5,0.433191 0.05013,0.644405 l -0.001,0.0098 0.02894,0.09974 c 0.0828,0.286613 0.176217,0.736022 0.176217,1.316199 -0.0021,1.106332 -0.357906,2.002334 -0.890385,2.730583 H 21.04662 v 5.16e-4 c -0.08197,0.0043 -0.161899,0.0409 -0.238745,0.106971 l -0.921391,0.81287 c -0.183441,0.161699 -0.298589,0.523935 -0.35295,0.93586 -1.086205,0.622311 -1.997889,0.850923 -2.10168,0.877983 -0.107116,-0.02827 -1.075304,-0.274856 -2.206067,-0.947746 -0.05784,-0.382688 -0.169708,-0.713596 -0.342615,-0.866097 l -0.921907,-0.81287 c -0.07667,-0.06607 -0.156775,-0.102638 -0.238746,-0.106971 v -5.16e-4 h -0.550354 c -0.536351,-0.732677 -0.894116,-1.634143 -0.892452,-2.748153 8.46e-4,-0.579661 0.09582,-1.029208 0.179318,-1.314648 l -0.0021,0.0041 c 0.06447,-0.215223 0.09317,-0.438438 0.0863,-0.660942 a 1.3918037,1.3918037 0 0 0 0.165882,-0.657324 1.3918037,1.3918037 0 0 0 -0.339514,-0.911055 c 0.0111,-0.171617 0.03083,-0.312311 0.04237,-0.413412 0.656207,-0.174823 1.292559,-0.313155 1.826245,-0.3514 0.241437,-0.0173 0.470157,-0.02342 0.684713,-0.02119 z m 2.596741,2.323889 a 1.0655968,1.0655968 0 0 0 -0.315743,2.101681 l -0.59893,2.512508 0.828373,0.238228 0.829407,-0.235644 -0.590662,-2.514059 a 1.0655968,1.0655968 0 0 0 0.832507,-1.038179 1.0655968,1.0655968 0 0 0 -0.984952,-1.064535 z" />
      <path
         id="path4043"
         style="color:#000000;fill:#0d3904;fill-opacity:0.0357439;stroke:none;stroke-width:1;-inkscape-stroke:none"
         d="m 17.793002,8.2231991 c -1.716168,0 -3.098501,0.7459291 -4.011641,1.8417479 -0.900815,1.081029 -1.367827,2.485612 -1.380278,3.881933 -0.105772,0.02949 -0.212793,0.06118 -0.32091,0.09457 l -0.308509,0.0956 -0.05271,0.318326 c 0,0 -0.03192,0.171377 -0.05323,0.445968 a 1.3918037,1.3918037 0 0 0 -1.386475,1.392163 1.3918037,1.3918037 0 0 0 0.270268,0.822689 l -0.358118,0.700216 c -0.2807352,0.04303 -0.5371784,0.216098 -0.6769612,0.489375 l -0.3829224,0.748792 c -0.1195721,0.233765 -0.1296419,0.493895 -0.049093,0.722436 a 1.5353422,1.5353422 0 0 0 -1.3477213,2.257744 0.3709004,0.3709004 0 0 0 0.649056,-0.358118 0.79372681,0.79372681 0 1 1 0.7834148,0.404626 0.3709004,0.3709004 0 0 0 0.041341,0.73949 0.40391053,0.40391053 0 0 0 0.042891,-0.0021 1.5353422,1.5353422 0 0 0 1.0536821,-2.41794 c 0.231615,-0.06874 0.435784,-0.228874 0.555006,-0.461954 l 0.382923,-0.748792 c 0.143269,-0.280094 0.129431,-0.59802 -0.0093,-0.854211 l 0.334863,-0.654741 a 1.3918037,1.3918037 0 0 0 0.10232,0.0041 1.3918037,1.3918037 0 0 0 0.04341,-0.0016 c -0.07084,0.332658 -0.127445,0.749313 -0.128158,1.238684 -0.0016,1.061658 0.275983,1.973662 0.709518,2.748153 h -0.139527 a 0.95914841,0.95914841 0 0 0 -0.439249,0.10852 c -0.367377,0.187862 -0.66575,0.606945 -0.840259,1.18184 -0.162082,0.534282 -0.204967,1.152758 -0.120406,1.743046 0.157819,1.09972 0.720385,1.838648 1.400431,1.838648 h 1.919262 v -5.17e-4 c 0,0 5.17e-4,0 5.17e-4,0 0.08158,-0.0043 0.162068,-0.04122 0.239262,-0.110587 l 0.921391,-0.812354 c 0.167729,-0.149788 0.297551,-0.501282 0.35605,-0.958081 1.130817,0.583149 2.06344,0.815971 2.06344,0.815971 l 0.126608,0.03307 0.127124,-0.03101 c 0,0 0.886724,-0.219216 1.980241,-0.767395 0.06137,0.432 0.186841,0.763251 0.348299,0.907438 l 0.921391,0.812354 c 0.07737,0.06937 0.158203,0.106261 0.239778,0.110587 v 5.17e-4 h 1.91978 c 0.67986,0 1.242613,-0.738928 1.400431,-1.838648 0.08456,-0.590288 0.04168,-1.208764 -0.120406,-1.743046 -0.174508,-0.574895 -0.472882,-0.993978 -0.840259,-1.18184 a 0.95914841,0.95914841 0 0 0 -0.43925,-0.10852 h -0.02945 c 0.430827,-0.770099 0.707434,-1.676087 0.709001,-2.730583 0,-0.521995 -0.07016,-0.928041 -0.148829,-1.259871 a 1.3918037,1.3918037 0 0 0 0.114205,0.0052 1.3918037,1.3918037 0 0 0 0.101286,-0.0041 l 0.33538,0.655774 c -0.138733,0.256192 -0.152571,0.574118 -0.0093,0.854212 l 0.382923,0.748791 c 0.119222,0.233081 0.323391,0.393213 0.555005,0.461987 a 1.5355276,1.5355276 0 0 0 1.054716,2.416907 0.40965948,0.40965948 0 0 0 0.04237,0.0021 h 5.17e-4 a 0.3709004,0.3709004 0 0 0 0.04134,-0.73949 0.79372681,0.79372681 0 1 1 0.783416,-0.404626 0.3709004,0.3709004 0 1 0 0.649055,0.358118 1.5355276,1.5355276 0 0 0 -1.348238,-2.25826 c 0,0 5.17e-4,-5.17e-4 5.17e-4,-5.17e-4 0.07978,-0.228056 0.0691,-0.487289 -0.05013,-0.72037 l -0.382925,-0.7488 C 25.981393,18.033543 25.72495,17.860479 25.444215,17.817445 l -0.358118,-0.700216 a 1.3918037,1.3918037 0 0 0 0.270785,-0.823722 1.3918037,1.3918037 0 0 0 -1.391647,-1.392163 1.3918037,1.3918037 0 0 0 -0.03514,0.0015 c -0.02003,-0.265275 -0.04909,-0.429898 -0.04909,-0.429898 l -0.05271,-0.318326 -0.308509,-0.0956 C 23.40634,14.02361 23.294234,13.99037 23.183373,13.95928 23.160873,11.113602 21.008801,8.2231961 17.793004,8.2231961 Z m 0,1.0464477 c 2.397871,0 4.005806,2.0576922 4.246253,4.2111122 h -8.501807 c 0.100659,-1.003524 0.422462,-1.99272 1.048515,-2.744019 0.736438,-0.8837664 1.787247,-1.4670932 3.207039,-1.4670932 z M 15.27636,14.596453 c 0.357593,0.0037 0.676785,0.03066 0.956014,0.06976 0.893532,0.125131 1.330151,0.351917 1.330151,0.351917 l 0.234611,0.116788 0.234095,-0.115238 c 0,0 0.439819,-0.224877 1.334285,-0.347266 0.817864,-0.111908 2.019676,-0.07798 3.466455,0.312126 0.01185,0.106673 0.03324,0.258102 0.04341,0.442867 a 1.3918037,1.3918037 0 0 0 -0.30179,0.866097 1.3918037,1.3918037 0 0 0 0.125574,0.576192 c -0.01687,0.215484 9.5e-5,0.433191 0.05013,0.644405 l -0.001,0.0098 0.02894,0.09974 c 0.0828,0.286613 0.176217,0.736022 0.176217,1.316199 -0.0021,1.106332 -0.357906,2.002334 -0.890385,2.730583 h -0.663009 v 5.16e-4 c -0.08197,0.0043 -0.161899,0.0409 -0.238745,0.106971 l -0.921391,0.81287 c -0.183441,0.161699 -0.298589,0.523935 -0.35295,0.93586 -1.086205,0.622311 -1.997889,0.850923 -2.10168,0.877983 -0.107116,-0.02827 -1.075304,-0.274856 -2.206067,-0.947746 -0.05784,-0.382688 -0.169708,-0.713596 -0.342615,-0.866097 l -0.921907,-0.81287 c -0.07667,-0.06607 -0.156775,-0.102638 -0.238746,-0.106971 v -5.16e-4 h -0.550354 c -0.536351,-0.732677 -0.894116,-1.634143 -0.892452,-2.748153 8.46e-4,-0.579661 0.09582,-1.029208 0.179318,-1.314648 l -0.0021,0.0041 c 0.06447,-0.215223 0.09317,-0.438438 0.0863,-0.660942 a 1.3918037,1.3918037 0 0 0 0.165882,-0.657324 1.3918037,1.3918037 0 0 0 -0.339514,-0.911055 c 0.0111,-0.171617 0.03083,-0.312311 0.04237,-0.413412 0.656207,-0.174823 1.292559,-0.313155 1.826245,-0.3514 0.241437,-0.0173 0.470157,-0.02342 0.684713,-0.02119 z m 2.596741,2.323889 a 1.0655968,1.0655968 0 0 0 -0.315743,2.101681 l -0.59893,2.512508 0.828373,0.238228 0.829407,-0.235644 -0.590662,-2.514059 a 1.0655968,1.0655968 0 0 0 0.832507,-1.038179 1.0655968,1.0655968 0 0 0 -0.984952,-1.064535 z" />
      <path
         id="path4045"
         style="color:#000000;fill:#0d3904;fill-opacity:0.0357439;stroke:none;stroke-width:1;-inkscape-stroke:none"
         d="m 18.353563,8.73715 c -1.716168,0 -3.098501,0.7459291 -4.011641,1.841748 -0.900815,1.081029 -1.367827,2.485612 -1.380278,3.881933 -0.105772,0.02949 -0.212793,0.06118 -0.32091,0.09457 l -0.308509,0.0956 -0.05271,0.318326 c 0,0 -0.03192,0.171377 -0.05323,0.445968 a 1.3918037,1.3918037 0 0 0 -1.386475,1.392163 1.3918037,1.3918037 0 0 0 0.270268,0.822689 l -0.358118,0.700216 c -0.280735,0.04303 -0.537179,0.216098 -0.676961,0.489375 L 9.6920763,19.56853 c -0.1195721,0.233765 -0.1296419,0.493895 -0.049093,0.722436 a 1.5353422,1.5353422 0 0 0 -1.3477213,2.257744 0.3709004,0.3709004 0 0 0 0.649056,-0.358118 0.79372681,0.79372681 0 1 1 0.7834148,0.404626 0.3709004,0.3709004 0 0 0 0.041341,0.73949 0.40391053,0.40391053 0 0 0 0.042891,-0.0021 1.5353422,1.5353422 0 0 0 1.0536822,-2.41794 c 0.231615,-0.06874 0.435784,-0.228874 0.555006,-0.461954 l 0.382923,-0.748792 c 0.143269,-0.280094 0.129431,-0.59802 -0.0093,-0.854211 l 0.334863,-0.654741 a 1.3918037,1.3918037 0 0 0 0.10232,0.0041 1.3918037,1.3918037 0 0 0 0.04341,-0.0016 c -0.07084,0.332658 -0.127445,0.749313 -0.128158,1.238684 -0.0016,1.061658 0.275983,1.973662 0.709518,2.748153 h -0.139527 a 0.95914841,0.95914841 0 0 0 -0.439249,0.10852 c -0.367377,0.187862 -0.66575,0.606945 -0.840259,1.18184 -0.162082,0.534282 -0.204967,1.152758 -0.120406,1.743046 0.157819,1.09972 0.720385,1.838648 1.400431,1.838648 h 1.919262 v -5.17e-4 c 0,0 5.17e-4,0 5.17e-4,0 0.08158,-0.0043 0.162068,-0.04122 0.239262,-0.110587 l 0.921391,-0.812354 c 0.167729,-0.149788 0.297551,-0.501282 0.35605,-0.958081 1.130817,0.583149 2.06344,0.815971 2.06344,0.815971 l 0.126608,0.03307 0.127124,-0.03101 c 0,0 0.886724,-0.219216 1.980241,-0.767395 0.06137,0.432 0.186841,0.763251 0.348299,0.907438 l 0.921391,0.812354 c 0.07737,0.06937 0.158203,0.106261 0.239778,0.110587 v 5.17e-4 h 1.91978 c 0.67986,0 1.242613,-0.738928 1.400431,-1.838648 0.08456,-0.590288 0.04168,-1.208764 -0.120406,-1.743046 -0.174508,-0.574895 -0.472882,-0.993978 -0.840259,-1.18184 a 0.95914841,0.95914841 0 0 0 -0.43925,-0.10852 h -0.02945 c 0.430827,-0.770099 0.707434,-1.676087 0.709001,-2.730583 0,-0.521995 -0.07016,-0.928041 -0.148829,-1.259871 a 1.3918037,1.3918037 0 0 0 0.114205,0.0052 1.3918037,1.3918037 0 0 0 0.101286,-0.0041 l 0.33538,0.655774 c -0.138733,0.256192 -0.152571,0.574118 -0.0093,0.854212 l 0.382923,0.748791 c 0.119222,0.233081 0.323391,0.393213 0.555005,0.461987 a 1.5355276,1.5355276 0 0 0 1.054716,2.416907 0.40965948,0.40965948 0 0 0 0.04237,0.0021 h 5.17e-4 a 0.3709004,0.3709004 0 0 0 0.04134,-0.73949 0.79372681,0.79372681 0 1 1 0.783416,-0.404626 0.3709004,0.3709004 0 1 0 0.649055,0.358118 1.5355276,1.5355276 0 0 0 -1.348238,-2.25826 c 0,0 5.17e-4,-5.17e-4 5.17e-4,-5.17e-4 0.07978,-0.228056 0.0691,-0.487289 -0.05013,-0.72037 l -0.382925,-0.7488 C 26.541954,18.547494 26.285511,18.37443 26.004776,18.331396 L 25.646658,17.63118 a 1.3918037,1.3918037 0 0 0 0.270785,-0.823722 1.3918037,1.3918037 0 0 0 -1.391647,-1.392163 1.3918037,1.3918037 0 0 0 -0.03514,0.0015 c -0.02003,-0.265275 -0.04909,-0.429898 -0.04909,-0.429898 l -0.05271,-0.318326 -0.308509,-0.0956 c -0.113446,-0.03541 -0.225552,-0.06865 -0.336413,-0.09974 -0.0225,-2.845678 -2.174572,-5.736084 -5.390369,-5.736084 z m 0,1.0464477 c 2.397871,0 4.005806,2.0576923 4.246253,4.2111123 h -8.501807 c 0.100659,-1.003524 0.422462,-1.99272 1.048515,-2.744019 0.736438,-0.883766 1.787247,-1.4670933 3.207039,-1.4670933 z m -2.516642,5.3268063 c 0.357593,0.0037 0.676785,0.03066 0.956014,0.06976 0.893532,0.125131 1.330151,0.351917 1.330151,0.351917 l 0.234611,0.116788 0.234095,-0.115238 c 0,0 0.439819,-0.224877 1.334285,-0.347266 0.817864,-0.111908 2.019676,-0.07798 3.466455,0.312126 0.01185,0.106673 0.03324,0.258102 0.04341,0.442867 a 1.3918037,1.3918037 0 0 0 -0.30179,0.866097 1.3918037,1.3918037 0 0 0 0.125574,0.576192 c -0.01687,0.215484 9.5e-5,0.433191 0.05013,0.644405 l -0.001,0.0098 0.02894,0.09974 c 0.0828,0.286613 0.176217,0.736022 0.176217,1.316199 -0.0021,1.106332 -0.357906,2.002334 -0.890385,2.730583 h -0.663009 v 5.16e-4 c -0.08197,0.0043 -0.161899,0.0409 -0.238745,0.106971 l -0.921391,0.81287 c -0.183441,0.161699 -0.298589,0.523935 -0.35295,0.93586 -1.086205,0.622311 -1.997889,0.850923 -2.10168,0.877983 -0.107116,-0.02827 -1.075304,-0.274856 -2.206067,-0.947746 -0.05784,-0.382688 -0.169708,-0.713596 -0.342615,-0.866097 l -0.921907,-0.81287 c -0.07667,-0.06607 -0.156775,-0.102638 -0.238746,-0.106971 v -5.16e-4 h -0.550354 c -0.536351,-0.732677 -0.894116,-1.634143 -0.892452,-2.748153 8.46e-4,-0.579661 0.09582,-1.029208 0.179318,-1.314648 l -0.0021,0.0041 c 0.06447,-0.215223 0.09317,-0.438438 0.0863,-0.660942 a 1.3918037,1.3918037 0 0 0 0.165882,-0.657324 1.3918037,1.3918037 0 0 0 -0.339514,-0.911055 c 0.0111,-0.171617 0.03083,-0.312311 0.04237,-0.413412 0.656207,-0.174823 1.292559,-0.313155 1.826245,-0.3514 0.241437,-0.0173 0.470157,-0.02342 0.684713,-0.02119 z m 2.596741,2.323889 a 1.0655968,1.0655968 0 0 0 -0.315743,2.101681 l -0.59893,2.512508 0.828373,0.238228 0.829407,-0.235644 -0.590662,-2.514059 a 1.0655968,1.0655968 0 0 0 0.832507,-1.038179 1.0655968,1.0655968 0 0 0 -0.984952,-1.064535 z" />
      <path
         id="path4047"
         style="color:#000000;fill:#0d3904;fill-opacity:0.0357439;stroke:none;stroke-width:1;-inkscape-stroke:none"
         d="m 19.053355,9.214181 c -1.716168,0 -3.098501,0.7459291 -4.011641,1.841748 -0.900815,1.081029 -1.367827,2.485612 -1.380278,3.881933 -0.105772,0.02949 -0.212793,0.06118 -0.32091,0.09457 l -0.308509,0.0956 -0.05271,0.318326 c 0,0 -0.03192,0.171377 -0.05323,0.445968 a 1.3918037,1.3918037 0 0 0 -1.386475,1.392163 1.3918037,1.3918037 0 0 0 0.270268,0.822689 l -0.358118,0.700216 c -0.280735,0.04303 -0.537179,0.216098 -0.676961,0.489375 l -0.382923,0.748792 c -0.119572,0.233765 -0.129642,0.493895 -0.04909,0.722436 a 1.5353422,1.5353422 0 0 0 -1.3477212,2.257744 0.3709004,0.3709004 0 0 0 0.649056,-0.358118 0.79372681,0.79372681 0 1 1 0.7834152,0.404626 0.3709004,0.3709004 0 0 0 0.04134,0.73949 0.40391053,0.40391053 0 0 0 0.04289,-0.0021 1.5353422,1.5353422 0 0 0 1.053682,-2.41794 c 0.231615,-0.06874 0.435784,-0.228874 0.555006,-0.461954 l 0.382923,-0.748792 c 0.143269,-0.280094 0.129431,-0.59802 -0.0093,-0.854211 l 0.334863,-0.654741 a 1.3918037,1.3918037 0 0 0 0.10232,0.0041 1.3918037,1.3918037 0 0 0 0.04341,-0.0016 c -0.07084,0.332658 -0.127445,0.749313 -0.128158,1.238684 -0.0016,1.061658 0.275983,1.973662 0.709518,2.748153 h -0.139527 a 0.95914841,0.95914841 0 0 0 -0.439249,0.10852 c -0.367377,0.187862 -0.66575,0.606945 -0.840259,1.18184 -0.162082,0.534282 -0.204967,1.152758 -0.120406,1.743046 0.157819,1.09972 0.720385,1.838648 1.400431,1.838648 h 1.919262 v -5.17e-4 c 0,0 5.17e-4,0 5.17e-4,0 0.08158,-0.0043 0.162068,-0.04122 0.239262,-0.110587 l 0.921391,-0.812354 c 0.167729,-0.149788 0.297551,-0.501282 0.35605,-0.958081 1.130817,0.583149 2.06344,0.815971 2.06344,0.815971 l 0.126608,0.03307 0.127124,-0.03101 c 0,0 0.886724,-0.219216 1.980241,-0.767395 0.06137,0.432 0.186841,0.763251 0.348299,0.907438 l 0.921391,0.812354 c 0.07737,0.06937 0.158203,0.106261 0.239778,0.110587 v 5.17e-4 h 1.91978 c 0.67986,0 1.242613,-0.738928 1.400431,-1.838648 0.08456,-0.590288 0.04168,-1.208764 -0.120406,-1.743046 -0.174508,-0.574895 -0.472882,-0.993978 -0.840259,-1.18184 a 0.95914841,0.95914841 0 0 0 -0.43925,-0.10852 h -0.02945 c 0.430827,-0.770099 0.707434,-1.676087 0.709001,-2.730583 0,-0.521995 -0.07016,-0.928041 -0.148829,-1.259871 a 1.3918037,1.3918037 0 0 0 0.114205,0.0052 1.3918037,1.3918037 0 0 0 0.101286,-0.0041 l 0.33538,0.655774 c -0.138733,0.256192 -0.152571,0.574118 -0.0093,0.854212 l 0.382923,0.748791 c 0.119222,0.233081 0.323391,0.393213 0.555005,0.461987 a 1.5355276,1.5355276 0 0 0 1.054716,2.416907 0.40965948,0.40965948 0 0 0 0.04237,0.0021 h 5.17e-4 a 0.3709004,0.3709004 0 0 0 0.04134,-0.73949 0.79372681,0.79372681 0 1 1 0.783416,-0.404626 0.3709004,0.3709004 0 1 0 0.649055,0.358118 1.5355276,1.5355276 0 0 0 -1.348238,-2.25826 c 0,0 5.17e-4,-5.17e-4 5.17e-4,-5.17e-4 0.07978,-0.228056 0.0691,-0.487289 -0.05013,-0.72037 l -0.382925,-0.7488 C 27.241746,19.024525 26.985303,18.851461 26.704568,18.808427 L 26.34645,18.108211 a 1.3918037,1.3918037 0 0 0 0.270785,-0.823722 1.3918037,1.3918037 0 0 0 -1.391647,-1.392163 1.3918037,1.3918037 0 0 0 -0.03514,0.0015 c -0.02003,-0.265275 -0.04909,-0.429898 -0.04909,-0.429898 l -0.05271,-0.318326 -0.308509,-0.0956 c -0.113446,-0.03541 -0.225552,-0.06865 -0.336413,-0.09974 -0.0225,-2.845678 -2.174572,-5.736084 -5.390369,-5.736084 z m 0,1.046448 c 2.397871,0 4.005806,2.057692 4.246253,4.211112 h -8.501807 c 0.100659,-1.003524 0.422462,-1.99272 1.048515,-2.744019 0.736438,-0.883766 1.787247,-1.467093 3.207039,-1.467093 z m -2.516642,5.326806 c 0.357593,0.0037 0.676785,0.03066 0.956014,0.06976 0.893532,0.125131 1.330151,0.351917 1.330151,0.351917 l 0.234611,0.116788 0.234095,-0.115238 c 0,0 0.439819,-0.224877 1.334285,-0.347266 0.817864,-0.111908 2.019676,-0.07798 3.466455,0.312126 0.01185,0.106673 0.03324,0.258102 0.04341,0.442867 a 1.3918037,1.3918037 0 0 0 -0.30179,0.866097 1.3918037,1.3918037 0 0 0 0.125574,0.576192 c -0.01687,0.215484 9.5e-5,0.433191 0.05013,0.644405 l -10e-4,0.0098 0.02894,0.09974 c 0.0828,0.286613 0.176217,0.736022 0.176217,1.316199 -0.0021,1.106332 -0.357906,2.002334 -0.890385,2.730583 h -0.663009 v 5.16e-4 c -0.08197,0.0043 -0.161899,0.0409 -0.238745,0.106971 l -0.921391,0.81287 c -0.183441,0.161699 -0.298589,0.523935 -0.35295,0.93586 -1.086205,0.622311 -1.997889,0.850923 -2.10168,0.877983 -0.107116,-0.02827 -1.075304,-0.274856 -2.206067,-0.947746 -0.05784,-0.382688 -0.169708,-0.713596 -0.342615,-0.866097 l -0.921907,-0.81287 c -0.07667,-0.06607 -0.156775,-0.102638 -0.238746,-0.106971 v -5.16e-4 h -0.550354 c -0.536351,-0.732677 -0.894116,-1.634143 -0.892452,-2.748153 8.46e-4,-0.579661 0.09582,-1.029208 0.179318,-1.314648 l -0.0021,0.0041 c 0.06447,-0.215223 0.09317,-0.438438 0.0863,-0.660942 a 1.3918037,1.3918037 0 0 0 0.165882,-0.657324 1.3918037,1.3918037 0 0 0 -0.339514,-0.911055 c 0.0111,-0.171617 0.03083,-0.312311 0.04237,-0.413412 0.656207,-0.174823 1.292559,-0.313155 1.826245,-0.3514 0.241437,-0.0173 0.470157,-0.02342 0.684713,-0.02119 z m 2.596741,2.323889 a 1.0655968,1.0655968 0 0 0 -0.315743,2.101681 l -0.59893,2.512508 0.828373,0.238228 0.829407,-0.235644 -0.590662,-2.514059 a 1.0655968,1.0655968 0 0 0 0.832507,-1.038179 1.0655968,1.0655968 0 0 0 -0.984952,-1.064535 z" />
    </g>
    <path
       id="path1097"
       style="color:#000000;fill:url(#linearGradient2247);fill-opacity:1;stroke:none;stroke-width:1;-inkscape-stroke:none"
       d="m 16.742101,7.1350977 c -1.716168,0 -3.098501,0.7459291 -4.011641,1.8417481 -0.900815,1.0810292 -1.367827,2.4856122 -1.380278,3.8819332 -0.105772,0.02949 -0.212793,0.06118 -0.32091,0.09457 l -0.308509,0.0956 -0.05271,0.318326 c 0,0 -0.03192,0.171377 -0.05323,0.445968 a 1.3918037,1.3918037 0 0 0 -1.3864748,1.392163 1.3918037,1.3918037 0 0 0 0.2702677,0.822689 L 9.1404983,16.728311 C 8.859763,16.771341 8.6033198,16.944409 8.463537,17.217686 l -0.3829224,0.748792 c -0.1195721,0.233765 -0.1296419,0.493895 -0.049093,0.722436 a 1.5353422,1.5353422 0 0 0 -1.3477213,2.257744 0.3709004,0.3709004 0 0 0 0.649056,-0.358118 0.79372681,0.79372681 0 1 1 0.7834148,0.404626 0.3709004,0.3709004 0 0 0 0.041341,0.73949 0.40391053,0.40391053 0 0 0 0.042891,-0.0021 1.5353422,1.5353422 0 0 0 1.0536825,-2.41794 C 9.4858,19.243876 9.6899691,19.083742 9.8091912,18.850662 L 10.192114,18.10187 c 0.143269,-0.280094 0.129431,-0.59802 -0.0093,-0.854211 l 0.334863,-0.654741 a 1.3918037,1.3918037 0 0 0 0.10232,0.0041 1.3918037,1.3918037 0 0 0 0.04341,-0.0016 c -0.07084,0.332658 -0.127445,0.749313 -0.128158,1.238684 -0.0016,1.061658 0.275983,1.973662 0.709518,2.748153 H 11.10524 a 0.95914841,0.95914841 0 0 0 -0.439249,0.10852 c -0.367377,0.187862 -0.66575,0.606945 -0.8402594,1.18184 -0.1620819,0.534282 -0.2049661,1.152758 -0.120406,1.743046 0.1578195,1.09972 0.7203854,1.838648 1.4004314,1.838648 h 1.919262 v -5.17e-4 c 0,0 5.17e-4,0 5.17e-4,0 0.08158,-0.0043 0.162068,-0.04122 0.239262,-0.110587 l 0.921391,-0.812354 c 0.167729,-0.149788 0.297551,-0.501282 0.35605,-0.958081 1.130817,0.583149 2.06344,0.815971 2.06344,0.815971 l 0.126608,0.03307 0.127124,-0.03101 c 0,0 0.886724,-0.219216 1.980241,-0.767395 0.06137,0.432 0.186841,0.763251 0.348299,0.907438 l 0.921391,0.812354 c 0.07737,0.06937 0.158203,0.106261 0.239778,0.110587 v 5.17e-4 h 1.91978 c 0.67986,0 1.242613,-0.738928 1.400431,-1.838648 0.08456,-0.590288 0.04168,-1.208764 -0.120406,-1.743046 -0.174508,-0.574895 -0.472882,-0.993978 -0.840259,-1.18184 a 0.95914841,0.95914841 0 0 0 -0.43925,-0.10852 h -0.02945 c 0.430827,-0.770099 0.707434,-1.676087 0.709001,-2.730583 0,-0.521995 -0.07016,-0.928041 -0.148829,-1.259871 a 1.3918037,1.3918037 0 0 0 0.114205,0.0052 1.3918037,1.3918037 0 0 0 0.101286,-0.0041 l 0.33538,0.655774 c -0.138733,0.256192 -0.152571,0.574118 -0.0093,0.854212 l 0.382923,0.748791 c 0.119222,0.233081 0.323391,0.393213 0.555005,0.461987 a 1.5355276,1.5355276 0 0 0 1.054716,2.416907 0.40965948,0.40965948 0 0 0 0.04237,0.0021 h 5.17e-4 a 0.3709004,0.3709004 0 0 0 0.04134,-0.73949 0.79372681,0.79372681 0 1 1 0.783416,-0.404626 0.3709004,0.3709004 0 1 0 0.649055,0.358118 1.5355276,1.5355276 0 0 0 -1.348238,-2.25826 c 0,0 5.17e-4,-5.17e-4 5.17e-4,-5.17e-4 0.07978,-0.228056 0.0691,-0.487289 -0.05013,-0.72037 l -0.382925,-0.7488 c -0.139783,-0.273278 -0.396226,-0.446342 -0.676961,-0.489376 l -0.358118,-0.700216 a 1.3918037,1.3918037 0 0 0 0.270785,-0.823722 1.3918037,1.3918037 0 0 0 -1.391647,-1.392163 1.3918037,1.3918037 0 0 0 -0.03514,0.0015 c -0.02003,-0.265275 -0.04909,-0.429898 -0.04909,-0.429898 l -0.05271,-0.318326 -0.308509,-0.0956 c -0.113446,-0.03541 -0.225552,-0.06865 -0.336413,-0.09974 -0.0225,-2.845678 -2.174572,-5.7360843 -5.390369,-5.7360843 z m 0,1.0464477 c 2.397871,0 4.005806,2.0576926 4.246253,4.2111126 h -8.501807 c 0.100659,-1.003524 0.422462,-1.99272 1.048515,-2.7440186 0.736438,-0.8837672 1.787247,-1.467094 3.207039,-1.467094 z m -2.516642,5.3268066 c 0.357593,0.0037 0.676785,0.03066 0.956014,0.06976 0.893532,0.125131 1.330151,0.351917 1.330151,0.351917 l 0.234611,0.116788 0.234095,-0.115238 c 0,0 0.439819,-0.224877 1.334285,-0.347266 0.817864,-0.111908 2.019676,-0.07798 3.466455,0.312126 0.01185,0.106673 0.03324,0.258102 0.04341,0.442867 a 1.3918037,1.3918037 0 0 0 -0.30179,0.866097 1.3918037,1.3918037 0 0 0 0.125574,0.576192 c -0.01687,0.215484 9.5e-5,0.433191 0.05013,0.644405 l -0.001,0.0098 0.02894,0.09974 c 0.0828,0.286613 0.176217,0.736022 0.176217,1.316199 -0.0021,1.106332 -0.357906,2.002334 -0.890385,2.730583 h -0.663009 v 5.16e-4 c -0.08197,0.0043 -0.161899,0.0409 -0.238745,0.106971 l -0.921391,0.81287 c -0.183441,0.161699 -0.298589,0.523935 -0.35295,0.93586 -1.086205,0.622311 -1.997889,0.850923 -2.10168,0.877983 -0.107116,-0.02827 -1.075304,-0.274856 -2.206067,-0.947746 -0.05784,-0.382688 -0.169708,-0.713596 -0.342615,-0.866097 l -0.921907,-0.81287 c -0.07667,-0.06607 -0.156775,-0.102638 -0.238746,-0.106971 v -5.16e-4 h -0.550354 c -0.536351,-0.732677 -0.894116,-1.634143 -0.892452,-2.748153 8.46e-4,-0.579661 0.09582,-1.029208 0.179318,-1.314648 l -0.0021,0.0041 c 0.06447,-0.215223 0.09317,-0.438438 0.0863,-0.660942 A 1.3918037,1.3918037 0 0 0 12.01165,15.205355 1.3918037,1.3918037 0 0 0 11.672136,14.2943 c 0.0111,-0.171617 0.03083,-0.312311 0.04237,-0.413412 0.656207,-0.174823 1.292559,-0.313155 1.826245,-0.3514 0.241437,-0.0173 0.470157,-0.02342 0.684713,-0.02119 z m 2.596741,2.323889 a 1.0655968,1.0655968 0 0 0 -0.315743,2.101681 l -0.59893,2.512508 0.828373,0.238228 0.829407,-0.235644 -0.590662,-2.514059 A 1.0655968,1.0655968 0 0 0 17.807152,16.896776 1.0655968,1.0655968 0 0 0 16.8222,15.832241 Z" />
  </g>
</svg>
