<?xml version="1.0" encoding="UTF-8" standalone="no"?>
<svg
   xmlns:dc="http://purl.org/dc/elements/1.1/"
   xmlns:cc="http://creativecommons.org/ns#"
   xmlns:rdf="http://www.w3.org/1999/02/22-rdf-syntax-ns#"
   xmlns:svg="http://www.w3.org/2000/svg"
   xmlns="http://www.w3.org/2000/svg"
   xmlns:xlink="http://www.w3.org/1999/xlink"
   xmlns:sodipodi="http://sodipodi.sourceforge.net/DTD/sodipodi-0.dtd"
   xmlns:inkscape="http://www.inkscape.org/namespaces/inkscape"
   height="128"
   viewBox="0 0 128 128"
   width="128"
   version="1.1"
   id="svg13"
   sodipodi:docname="org.xfce.terminal-settings.svg"
   inkscape:version="1.0.2 (e86c870879, 2021-01-15)">
  <metadata
     id="metadata19">
    <rdf:RDF>
      <cc:Work
         rdf:about="">
        <dc:format>image/svg+xml</dc:format>
        <dc:type
           rdf:resource="http://purl.org/dc/dcmitype/StillImage" />
        <dc:title></dc:title>
      </cc:Work>
    </rdf:RDF>
  </metadata>
  <defs
     id="defs17">
    <radialGradient
       inkscape:collect="always"
       xlink:href="#linearGradient1099"
       id="radialGradient1103"
       cx="23.935701"
       cy="287.29059"
       fx="23.935701"
       fy="287.29059"
       r="8.7326269"
       gradientTransform="matrix(3.7795276,0,0,3.7795276,-1.7164744,-1001.2797)"
       gradientUnits="userSpaceOnUse" />
    <linearGradient
       inkscape:collect="always"
       id="linearGradient1099">
      <stop
         style="stop-color:#000000;stop-opacity:1;"
         offset="0"
         id="stop1095" />
      <stop
         style="stop-color:#000000;stop-opacity:0;"
         offset="1"
         id="stop1097" />
    </linearGradient>
    <linearGradient
       gradientUnits="userSpaceOnUse"
       gradientTransform="matrix(0.46500001,0,0,0.46500001,61.416985,56.018598)"
       y2="119.07"
       y1="17.955999"
       x2="68.874001"
       x1="73.822998"
       id="h">
      <stop
         id="stop919"
         offset="0"
         stop-color="#2c2d31" />
      <stop
         id="stop921"
         offset="1"
         stop-color="#3c3e43" />
    </linearGradient>
    <radialGradient
       gradientUnits="userSpaceOnUse"
       gradientTransform="matrix(0.46500001,0,0,0.46500001,61.416985,56.018598)"
       r="59.750999"
       cy="65.333"
       cx="64.985001"
       id="a-3">
      <stop
         id="stop924"
         offset="0"
         stop-color="#2c2d31" />
      <stop
         id="stop926"
         offset=".72577"
         stop-color="#393b3f" />
      <stop
         id="stop928"
         offset="1"
         stop-color="#232529" />
    </radialGradient>
    <filter
       color-interpolation-filters="sRGB"
       height="1.072"
       width="1.072"
       y="-0.035999998"
       x="-0.035999998"
       id="j">
      <feGaussianBlur
         id="feGaussianBlur931"
         stdDeviation="1.7925294" />
    </filter>
    <filter
       color-interpolation-filters="sRGB"
       height="1.0718"
       width="1.0721999"
       y="-0.035918001"
       x="-0.036083002"
       id="i">
      <feGaussianBlur
         id="feGaussianBlur934"
         stdDeviation="1.7787305" />
    </filter>
    <radialGradient
       gradientUnits="userSpaceOnUse"
       gradientTransform="matrix(0.55838,-0.31472999,0.34575999,0.61344001,-53.984913,114.1125)"
       r="59.154999"
       cy="67.199997"
       cx="219.42"
       id="b">
      <stop
         id="stop937"
         offset="0"
         stop-color="#4a4a4a" />
      <stop
         id="stop939"
         offset=".75697"
         stop-color="#4a4a4a" />
      <stop
         id="stop941"
         offset="1"
         stop-color="#161616" />
    </radialGradient>
    <filter
       color-interpolation-filters="sRGB"
       height="1.12"
       width="1.12"
       y="-0.059999999"
       x="-0.059999999"
       id="m">
      <feGaussianBlur
         id="feGaussianBlur974"
         stdDeviation="2.98755" />
    </filter>
    <linearGradient
       gradientUnits="userSpaceOnUse"
       gradientTransform="matrix(0.46500001,0,0,0.46500001,61.416985,56.018598)"
       y2="126.5"
       y1="0.98582"
       x2="70.102997"
       x1="71.179001"
       id="f">
      <stop
         id="stop944"
         offset="0"
         stop-opacity=".98837"
         stop-color="#f6f6f6" />
      <stop
         id="stop946"
         offset="1"
         stop-color="#bfbfbf" />
    </linearGradient>
    <linearGradient
       gradientUnits="userSpaceOnUse"
       gradientTransform="matrix(0.46500001,0,0,0.46500001,61.416985,56.018598)"
       y2="120.83"
       y1="8.3325005"
       x2="71.235001"
       x1="50.235001"
       id="g">
      <stop
         id="stop949"
         offset="0"
         stop-color="#afb0b1" />
      <stop
         id="stop951"
         offset="1"
         stop-color="#bdbebf" />
    </linearGradient>
    <linearGradient
       gradientUnits="userSpaceOnUse"
       y2="97.864998"
       y1="37.209"
       x2="227.87"
       x1="202.69"
       id="k">
      <stop
         id="stop954"
         offset="0"
         stop-color="#494f52" />
      <stop
         id="stop956"
         offset="1"
         stop-color="#98a1a6" />
    </linearGradient>
    <linearGradient
       gradientUnits="userSpaceOnUse"
       y2="106.35"
       y1="30.726"
       x2="239.83"
       x1="196.60001"
       id="l">
      <stop
         id="stop959"
         offset="0"
         stop-color="#e2e6e8" />
      <stop
         id="stop961"
         offset="1"
         stop-color="#838d91" />
    </linearGradient>
    <linearGradient
       gradientUnits="userSpaceOnUse"
       y2="69.600998"
       y1="69.600998"
       x2="222.42"
       x1="214.77"
       id="e">
      <stop
         id="stop964"
         offset="0"
         stop-color="#5f6569" />
      <stop
         id="stop966"
         offset="1"
         stop-color="#686e72" />
    </linearGradient>
    <radialGradient
       gradientUnits="userSpaceOnUse"
       r="3.0051999"
       cy="69.600998"
       cx="218.59"
       id="d">
      <stop
         id="stop969"
         offset="0"
         stop-color="#27282c" />
      <stop
         id="stop971"
         offset="1"
         stop-color="#27282c" />
    </radialGradient>
  </defs>
  <sodipodi:namedview
     pagecolor="#ffffff"
     bordercolor="#666666"
     borderopacity="1"
     objecttolerance="10"
     gridtolerance="10"
     guidetolerance="10"
     inkscape:pageopacity="0"
     inkscape:pageshadow="2"
     inkscape:window-width="1920"
     inkscape:window-height="1031"
     id="namedview15"
     showgrid="false"
     inkscape:zoom="7.09375"
     inkscape:cx="64"
     inkscape:cy="64"
     inkscape:window-x="0"
     inkscape:window-y="24"
     inkscape:window-maximized="1"
     inkscape:current-layer="svg13" />
  <filter
     id="a"
     color-interpolation-filters="sRGB"
     height="1.091462"
     width="1.059367"
     x="-.029684"
     y="-.045731">
    <feGaussianBlur
       stdDeviation=".44564704"
       id="feGaussianBlur2" />
  </filter>
  <rect
     fill="#1a1a1a"
     height="105.1398"
     ry="5.959825"
     stroke="#3a3a3a"
     stroke-width="1.648264"
     width="119.64789"
     x="4.1029"
     y="12.379148"
     id="rect5" />
  <path
     d="m12.376953 19.681641v88.499999h49.5625 4.121094 49.564453v-88.499999h-49.564453-4.121094z"
     fill="#333"
     id="path7" />
  <path
     d="m19.962648 26.846403v4.635742l11.798613 4.214019-11.798613 5.055858v4.846604l18.647603-7.795453v-4.214018zm18.121247 18.121246v5.26672h17.910392v-4.846605z"
     filter="url(#a)"
     id="path9" />
  <path
     d="m19.962648 26.846403v4.635742l11.798613 4.214019-11.798613 5.055858v4.846604l18.647603-7.795453v-4.214018zm18.121247 18.121246v5.26672h17.910392v-4.846605z"
     fill="#fff"
     id="path11" />
  <path
     style="fill:url(#radialGradient1103);fill-opacity:1;stroke-width:1.05754;image-rendering:optimizeSpeed"
     d="m 88.748371,51.538535 c -18.206775,0 -33.003905,14.797153 -33.003905,33.003931 0,6.947036 2.159645,13.394946 5.835935,18.716784 l 46.068359,-7.240249 c 1.21508,-0.190866 2.03866,-1.323968 1.84765,-2.539049 L 103.44759,55.001451 C 99.018526,52.789936 94.028609,51.538535 88.748371,51.538535 Z"
     id="path1091" />
  <circle
     style="fill:url(#h);stroke-width:0.961251;image-rendering:optimizeSpeed"
     cx="91.635086"
     cy="86.398537"
     r="27.784"
     id="circle981" />
  <circle
     style="fill:url(#a-3);stroke-width:0.961251;image-rendering:optimizeSpeed"
     cx="91.635086"
     cy="86.398537"
     r="27.784"
     id="circle983" />
  <path
     style="fill-opacity:0.28736;stroke-width:2.0672;filter:url(#j);image-rendering:optimizeSpeed"
     inkscape:connector-curvature="0"
     transform="matrix(0.46500001,0,0,0.46500001,61.416985,56.018598)"
     d="m 64.985,5.5818 a 59.751,59.751 0 0 0 -59.752,59.75 59.751,59.751 0 0 0 59.752,59.752 59.751,59.751 0 0 0 59.75,-59.752 59.751,59.751 0 0 0 -59.75,-59.75 z m 0,5.25 a 54.501,54.501 0 0 1 54.5,54.5 54.501,54.501 0 0 1 -54.5,54.502 54.501,54.501 0 0 1 -54.502,-54.502 54.501,54.501 0 0 1 54.502,-54.5 z"
     id="path985" />
  <path
     style="fill-opacity:0.45349;stroke-width:2.0672;filter:url(#i);image-rendering:optimizeSpeed"
     inkscape:connector-curvature="0"
     transform="matrix(0.46500001,0,0,0.46500001,-10.262912,55.032217)"
     d="m 217.16,7.7734 a 59.751,59.751 0 0 0 -7.2559,0.68555 33.701,33.701 0 0 1 1.5742,8.2559 33.701,33.701 0 0 1 -31.621,35.66 33.701,33.701 0 0 1 -17.396,-3.7031 59.751,59.751 0 0 0 -2.2012,8.9805 c 0.62981,-0.78792 1.3635,-1.8312 2.3164,-3.1973 l -0.79296,-0.41016 c 1.5249,0.65942 3.0907,1.2196 4.6875,1.6797 -0.0332,4.5195 -0.36455,6.3015 1.7109,6.8594 1.7969,0.48301 2.3774,-1.1225 3.9199,-5.6328 1.4731,0.19236 2.9559,0.30068 4.4414,0.32422 1.1317,4.93 1.5036,6.6242 3.3887,6.3223 2.1164,-0.33894 1.9791,-2.1412 2.4102,-6.6133 1.4838,-0.19863 2.9551,-0.48223 4.4062,-0.84961 2.1004,4.354 2.8629,5.8923 4.5996,5.1934 1.9945,-0.80262 1.4511,-2.533 0.87695,-7.0195 1.3486,-0.55407 2.6654,-1.1816 3.9434,-1.8828 3.2736,3.6647 4.4272,4.9464 5.9141,3.7871 1.688,-1.3162 0.70309,-2.8292 -1.0723,-6.9414 1.1987,-0.92046 2.3423,-1.9099 3.4258,-2.9629 3.9356,2.6321 5.3716,3.5497 6.5039,2.0801 1.2896,-1.6738 -0.005,-2.8976 -2.6777,-6.332 0.87132,-1.1253 1.6793,-2.2981 2.4219,-3.5117 4.6932,1.3474 6.3499,1.8134 6.9883,0.04492 0.71288,-1.9749 -0.87472,-2.7554 -4.4199,-5.1738 0.59314,-1.4121 1.1032,-2.8582 1.5254,-4.3301 4.8608,0.15798 6.5794,0.20168 6.7656,-1.666 0.20859,-2.0927 -1.529,-2.4593 -5.5723,-3.9434 0.19372,-1.5314 0.29669,-3.0737 0.30664,-4.6172 4.6068,-0.88761 6.2663,-1.2481 6.0391,-3.082 -0.26005,-2.0986 -2.0422,-2.0587 -6.3652,-2.623 -0.2039,-1.4444 -0.49021,-2.8767 -0.85546,-4.2891 0.81818,-0.42173 1.4451,-0.75637 2.0644,-1.0918 z m 0.19336,36.676 -2.6289,0.34375 c -0.12138,0.0159 -0.22415,0.08029 -0.29297,0.16992 -0.0688,0.0896 -0.09,0.20377 -0.0879,0.32617 l 0.0566,3.2773 a 19.49,19.49 0 0 0 -5.4297,2.2754 l -2.2402,-2.3555 c -0.0763,-0.0958 -0.18097,-0.15512 -0.29297,-0.16992 -0.11199,-0.0148 -0.229,0.01339 -0.32617,0.08789 l -2.1055,1.6133 c -0.0972,0.0745 -0.15512,0.18097 -0.16992,0.29297 -0.0148,0.112 0.0271,0.22186 0.0879,0.32812 l 1.625,2.8398 a 19.49,19.49 0 0 0 -3.5371,4.668 l -3.0879,-0.9082 c -0.11392,-0.0448 -0.2335,-0.04505 -0.33789,-0.002 -0.10439,0.0432 -0.19137,0.12716 -0.23828,0.24023 l -1.0156,2.4492 c -0.0469,0.11308 -0.0451,0.2335 -0.002,0.33789 0.0432,0.10439 0.13447,0.17859 0.24024,0.24023 l 2.8262,1.6465 a 19.49,19.49 0 0 0 -0.75391,5.3027 19.49,19.49 0 0 0 0.0176,0.5 l -3.1504,0.76172 c -0.12105,0.0182 -0.2261,0.0784 -0.29492,0.16797 -0.0688,0.0896 -0.1019,0.20479 -0.0859,0.32617 l 0.34375,2.6289 c 0.0159,0.12138 0.0784,0.2261 0.16797,0.29492 0.0896,0.0688 0.2057,0.08544 0.32812,0.08594 l 3.2871,0.01367 a 19.49,19.49 0 0 0 2.2695,5.3887 l -2.3457,2.2324 c -0.0957,0.0763 -0.15512,0.18097 -0.16992,0.29297 -0.0148,0.112 0.0134,0.23096 0.0879,0.32812 l 1.6133,2.1035 c 0.0745,0.0972 0.18097,0.15512 0.29297,0.16992 0.11199,0.0148 0.2199,-0.02709 0.32617,-0.08789 l 2.832,-1.6191 a 19.49,19.49 0 0 0 4.6738,3.5391 l -0.90625,3.0801 c -0.0448,0.11392 -0.0432,0.23349 0,0.33789 0.0432,0.10439 0.1252,0.19333 0.23828,0.24023 l 2.4492,1.0156 c 0.11307,0.0469 0.23545,0.0432 0.33984,0 0.1044,-0.0432 0.17665,-0.13446 0.23829,-0.24023 l 1.6445,-2.8223 a 19.49,19.49 0 0 0 5.293,0.75195 19.49,19.49 0 0 0 0.51171,-0.01758 l 0.76172,3.1504 c 0.0182,0.12106 0.0784,0.22415 0.16797,0.29297 0.0896,0.0688 0.20675,0.1038 0.32813,0.08789 l 2.6289,-0.3457 c 0.12138,-0.0159 0.22415,-0.0784 0.29297,-0.16797 0.0688,-0.0896 0.0874,-0.2057 0.0879,-0.32812 l 0.0137,-3.2891 a 19.49,19.49 0 0 0 5.2559,-2.1973 l 2.3867,2.2637 c 0.61961,0.0819 0.18097,0.15512 0.29297,0.16992 0.11199,0.0148 0.22901,-0.01339 0.32617,-0.08789 l 2.1055,-1.6133 c 0.0972,-0.0745 0.15317,-0.18097 0.16797,-0.29297 0.0148,-0.112 -0.0249,-0.22122 -0.0879,-0.32617 l -1.6777,-2.7949 a 19.49,19.49 0 0 0 3.4902,-4.5684 l 3.2012,0.76758 c 0.57755,-0.23887 0.23546,0.0432 0.33985,0 0.1044,-0.0432 0.19138,-0.1252 0.23828,-0.23828 l 1.0156,-2.4492 c 0.0469,-0.11308 0.045,-0.23545 0.002,-0.33984 -0.0432,-0.10439 -0.13318,-0.1789 -0.24024,-0.23828 l -2.8809,-1.5977 a 19.49,19.49 0 0 0 0.76172,-5.3301 19.49,19.49 0 0 0 -0.0137,-0.36523 l 3.1465,-0.93164 c 0.38074,-0.49565 0.22415,-0.0784 0.29297,-0.16797 0.0688,-0.0896 0.1038,-0.20479 0.0879,-0.32617 l -0.3457,-2.6309 c -0.0159,-0.12138 -0.0784,-0.22415 -0.16797,-0.29297 -0.0896,-0.0688 -0.20573,-0.08804 -0.32812,-0.08594 l -3.2774,0.05664 a 19.49,19.49 0 0 0 -2.2031,-5.2969 l 2.2715,-2.3945 c 0.0819,-0.61961 0.15317,-0.18097 0.16797,-0.29297 0.0148,-0.11199 -0.0134,-0.23096 -0.0879,-0.32812 l -1.6113,-2.1035 c -0.0745,-0.0972 -0.18097,-0.15512 -0.29297,-0.16992 -0.11199,-0.0148 -0.22317,0.02489 -0.32812,0.08789 l -2.8027,1.6836 a 19.49,19.49 0 0 0 -4.5625,-3.4883 l 0.76953,-3.209 c -0.23887,-0.57755 0.0432,-0.2335 0,-0.33789 -0.0432,-0.10439 -0.1252,-0.19333 -0.23828,-0.24023 l -2.4492,-1.0156 c -0.11307,-0.0469 -0.23349,-0.0432 -0.33789,0 -0.10439,0.0432 -0.18085,0.13123 -0.24023,0.23828 l -1.5996,2.8848 a 19.49,19.49 0 0 0 -5.3398,-0.76367 19.49,19.49 0 0 0 -0.35157,0.01172 l -0.93164,-3.1445 c -0.49565,-0.38073 -0.0803,-0.2261 -0.16992,-0.29492 -0.0896,-0.0688 -0.20479,-0.10189 -0.32617,-0.08594 z m 1.7793,7.625 a 15.38,15.38 0 0 1 15.379,15.379 15.38,15.38 0 0 1 -15.379,15.379 15.38,15.38 0 0 1 -15.379,-15.379 15.38,15.38 0 0 1 15.379,-15.379 z m 49.91,18.033 c -2.1338,-0.01066 -2.303,1.7786 -3.4434,6.0781 -1.483,-0.05272 -2.9678,-0.02044 -4.4473,0.0957 -1.4487,-4.7372 -1.9527,-6.3902 -3.7949,-5.959 -2.0918,0.48967 -1.8196,2.2806 -1.9336,6.7949 -1.4157,0.327 -2.8112,0.7324 -4.1816,1.2148 -2.5429,-4.2581 -3.4288,-5.7407 -5.1152,-4.8809 -1.939,0.98867 -1.2078,2.6684 -0.21875,7.2109 -1.2795,0.66846 -2.5213,1.4071 -3.7188,2.2129 -3.729,-3.3618 -5.0092,-4.5302 -6.375,-3.2051 -1.5409,1.495 -0.38965,2.8924 1.832,6.8164 -1.0763,0.99515 -2.0956,2.0505 -3.0527,3.1602 -4.425,-2.3661 -5.9499,-3.1922 -6.957,-1.5781 -1.143,1.8318 0.32882,2.9034 3.4648,6.2227 -0.76672,1.2061 -1.4665,2.4536 -2.0957,3.7363 -4.4124,-0.94247 -6.0886,-1.624 -7.0527,0.29492 -0.85265,1.6971 0.64112,2.5704 4.9473,5.1074 -0.43761,1.3895 -0.79744,2.8029 -1.0762,4.2324 -4.4635,0.22819 -6.2534,0.0171 -6.6856,2.1113 -0.38022,1.8428 1.2746,2.3129 5.9883,3.6191 -0.0563,1.4346 -0.0327,2.8709 0.0703,4.3027 -4.2171,1.4766 -5.994,1.7793 -5.8184,3.9102 0.15259,1.8507 1.8571,1.8577 6.6016,1.7852 0.24821,1.0928 0.55892,2.1695 0.90039,3.2363 a 59.751,59.751 0 0 0 5.6055,-1.0098 c -2.2146,-6.6532 -2.6966,-14.023 0.98242,-23.537 0.68163,-1.7626 1.4903,-3.2817 2.4102,-4.4707 a 33.701,33.701 0 0 1 17.061,-13.926 c 0.93356,-0.47403 2.2183,-0.83972 3.6445,-1.123 a 33.701,33.701 0 0 1 3.1055,-0.63672 33.701,33.701 0 0 1 3.3535,-0.32031 33.701,33.701 0 0 1 13.51,2.1797 59.751,59.751 0 0 0 2.0176,-10.271 c -0.80264,0.79159 -1.6212,2.251 -2.9902,4.4004 -1.3881,-0.42982 -2.7989,-0.78213 -4.2266,-1.0547 -0.31017,-5.0092 -0.40789,-6.7405 -2.3106,-6.75 z"
     id="path987" />
  <path
     style="fill:url(#b);stroke-width:0.961251;image-rendering:optimizeSpeed"
     inkscape:connector-curvature="0"
     d="m 90.717085,58.646806 a 27.784,27.784 0 0 0 -3.373999,0.318614 15.671,15.671 0 0 1 0.732,3.839017 15.671,15.671 0 0 1 -14.703999,16.581997 15.671,15.671 0 0 1 -8.0891,-1.721915 27.784,27.784 0 0 0 -1.023602,4.175925 c 0.292876,-0.366237 0.634031,-0.851528 1.077101,-1.486715 l -0.368731,-0.190866 c 0.709081,0.306519 1.4372,0.567118 2.179699,0.781039 -0.0155,2.101606 -0.169511,2.93023 0.795572,3.189619 0.835559,0.224504 1.1055,-0.521953 1.822798,-2.619288 0.68499,0.08957 1.374501,0.139842 2.0653,0.150803 0.526243,2.292397 0.699171,3.080277 1.5757,2.939867 0.984133,-0.157606 0.920281,-0.99564 1.120702,-3.075174 0.689968,-0.09222 1.3741,-0.224126 2.048901,-0.395074 0.976687,2.024579 1.331199,2.739893 2.138797,2.414891 0.927443,-0.373039 0.674763,-1.177814 0.407781,-3.264113 0.627099,-0.257764 1.239401,-0.54943 1.833702,-0.87549 1.522197,1.704113 2.058599,2.300107 2.750097,1.760995 0.784921,-0.612019 0.32693,-1.315578 -0.498618,-3.227792 0.557398,-0.427994 1.0892,-0.888113 1.593,-1.377713 1.8301,1.223924 2.497799,1.650633 3.024298,0.967256 0.59966,-0.778318 -0.0023,-1.347401 -1.245097,-2.944403 0.405158,-0.523238 0.780869,-1.068586 1.126197,-1.632869 2.182303,0.626532 2.952703,0.843212 3.2496,0.02268 0.331502,-0.918312 -0.406738,-1.281298 -2.0553,-2.405783 0.275793,-0.656655 0.512992,-1.329108 0.709312,-2.013505 2.260301,0.07332 3.059399,0.09373 3.145999,-0.77469 0.09698,-0.973115 -0.710978,-1.14361 -2.5911,-1.833713 0.09007,-0.712101 0.137953,-1.429304 0.142601,-2.146999 2.142199,-0.412724 2.913801,-0.580346 2.808201,-1.433083 -0.120907,-0.975874 -0.949622,-0.957317 -2.959801,-1.219692 -0.09483,-0.67166 -0.227943,-1.337726 -0.397788,-1.994419 0.380447,-0.196157 0.67197,-0.351874 0.959947,-0.507704 z m 0.08991,17.053984 -1.222401,0.159874 c -0.05643,0.0076 -0.10424,0.03779 -0.136214,0.07899 -0.03213,0.04157 -0.04184,0.09487 -0.04086,0.151559 l 0.02646,1.523906 a 9.0628,9.0628 0 0 0 -2.5248,1.058078 l -1.041694,-1.095305 c -0.03553,-0.0446 -0.08413,-0.07219 -0.136214,-0.07899 -0.05208,-0.0076 -0.106469,0.0076 -0.151672,0.04082 l -0.97906,0.750199 c -0.0452,0.03401 -0.07211,0.08428 -0.07899,0.136063 -0.0068,0.05216 0.01247,0.103181 0.04086,0.152693 l 0.755622,1.320529 a 9.0628,9.0628 0 0 0 -1.644801,2.170582 l -1.435899,-0.422324 c -0.05299,-0.02268 -0.108586,-0.02268 -0.157115,-9.07e-4 -0.04853,0.0189 -0.08901,0.05896 -0.110816,0.111496 l -0.472248,1.138923 c -0.02192,0.05254 -0.02079,0.108472 -9.3e-4,0.157228 0.02003,0.04838 0.06251,0.08315 0.111723,0.111874 l 1.314198,0.765619 a 9.0628,9.0628 0 0 0 -0.350589,2.465802 9.0628,9.0628 0 0 0 0.0083,0.232441 l -1.464903,0.354141 c -0.05628,0.0076 -0.105147,0.0378 -0.137121,0.07824 -0.03213,0.04157 -0.04736,0.09524 -0.03995,0.151559 l 0.159836,1.222412 c 0.0076,0.05631 0.03628,0.105071 0.07812,0.137197 0.04165,0.03024 0.09566,0.03969 0.15258,0.04006 l 1.528497,0.0076 a 9.0628,9.0628 0 0 0 1.055301,2.505714 l -1.090798,1.038085 c -0.04448,0.03401 -0.07215,0.08428 -0.07899,0.136063 -0.0068,0.05216 0.006,0.107338 0.04086,0.152692 l 0.750183,0.978104 c 0.03477,0.04536 0.08413,0.07219 0.136214,0.07899 0.05208,0.0076 0.102236,-0.01134 0.151672,-0.04082 l 1.316901,-0.752882 a 9.0628,9.0628 0 0 0 2.1733,1.645719 l -0.421409,1.432177 c -0.02079,0.05291 -0.02003,0.108472 0,0.157228 0.02003,0.04838 0.0582,0.08995 0.110815,0.111874 l 1.138901,0.472252 c 0.05257,0.02268 0.109493,0.0189 0.158022,0 0.04853,-0.0189 0.08213,-0.06236 0.110815,-0.111874 l 0.76469,-1.312403 a 9.0628,9.0628 0 0 0 2.461198,0.349606 9.0628,9.0628 0 0 0 0.237959,-0.0076 l 0.354179,1.464908 c 0.0083,0.0563 0.03628,0.10432 0.07812,0.13606 0.04165,0.0302 0.09615,0.0484 0.15258,0.0408 l 1.222401,-0.16063 c 0.05643,-0.008 0.104239,-0.0378 0.136214,-0.0782 0.03213,-0.04158 0.04063,-0.09563 0.04086,-0.152698 l 0.0064,-1.529423 A 9.0628,9.0628 0 0 0 96.3073,94.153209 l 1.109801,1.052598 c 0.288113,0.03817 0.08413,0.07219 0.136214,0.07899 0.05208,0.0076 0.106507,-0.0076 0.151673,-0.04082 l 0.97906,-0.75016 c 0.0452,-0.03402 0.07121,-0.08428 0.07812,-0.136441 0.0068,-0.05216 -0.01172,-0.102803 -0.04086,-0.151559 L 97.941214,92.90622 a 9.0628,9.0628 0 0 0 1.622899,-2.124283 l 1.488597,0.356787 c 0.26858,-0.111118 0.1095,0.0189 0.15803,0 0.0486,-0.0189 0.089,-0.05821 0.11081,-0.11074 l 0.47225,-1.138923 c 0.0219,-0.05254 0.0208,-0.109606 9.3e-4,-0.157984 -0.02,-0.04838 -0.0619,-0.08315 -0.11172,-0.11074 l -1.3396,-0.742942 a 9.0628,9.0628 0 0 0 0.35422,-2.478501 9.0628,9.0628 0 0 0 -0.006,-0.169701 l 1.4631,-0.433247 c 0.17703,-0.230551 0.10424,-0.0378 0.13621,-0.07824 0.0321,-0.04158 0.0483,-0.09524 0.0409,-0.151559 l -0.16078,-1.223396 c -0.008,-0.05631 -0.0363,-0.104314 -0.0781,-0.136063 -0.0417,-0.03024 -0.0957,-0.04082 -0.15258,-0.04006 l -1.524,0.02646 A 9.0628,9.0628 0 0 0 99.391521,81.72997 l 1.056199,-1.113373 c 0.0381,-0.288 0.0712,-0.08428 0.0781,-0.136063 0.007,-0.05216 -0.006,-0.107339 -0.0409,-0.152693 l -0.749256,-0.978104 c -0.03477,-0.04535 -0.08417,-0.07219 -0.136214,-0.07899 -0.05208,-0.0076 -0.103748,0.01134 -0.152579,0.04082 l -1.303299,0.782853 a 9.0628,9.0628 0 0 0 -2.1216,-1.622097 l 0.357821,-1.492201 c -0.11108,-0.268724 0.02003,-0.108472 0,-0.157228 -0.02003,-0.04838 -0.05821,-0.08995 -0.110816,-0.111874 l -1.1389,-0.472252 c -0.05257,-0.02268 -0.108586,-0.0189 -0.157115,0 -0.04853,0.0189 -0.08409,0.06085 -0.111723,0.11074 L 94.117488,77.6909 a 9.0628,9.0628 0 0 0 -2.482998,-0.355275 9.0628,9.0628 0 0 0 -0.163465,0.0038 l -0.433209,-1.462186 c -0.230476,-0.176882 -0.03742,-0.105071 -0.07899,-0.137196 -0.04165,-0.03024 -0.09524,-0.04725 -0.151673,-0.04006 z m 0.82738,3.545613 a 7.1517,7.1517 0 0 1 7.151199,7.151206 7.1517,7.1517 0 0 1 -7.151199,7.151206 7.1517,7.1517 0 0 1 -7.151202,-7.151206 7.1517,7.1517 0 0 1 7.151202,-7.151206 z M 114.84238,87.6317 c -0.99222,-0.0038 -1.07091,0.827037 -1.6012,2.826293 -0.6896,-0.02268 -1.38,-0.01134 -2.06801,0.0446 -0.67363,-2.202822 -0.90799,-2.971427 -1.76459,-2.770923 -0.9727,0.227527 -0.84612,1.060498 -0.89912,3.159609 -0.65831,0.151937 -1.30721,0.340536 -1.94441,0.564889 -1.1824,-1.980019 -1.5944,-2.669405 -2.3786,-2.269607 -0.90164,0.459742 -0.56163,1.240781 -0.1017,3.353084 -0.59497,0.310677 -1.1724,0.654312 -1.7292,1.029014 -1.734,-1.563213 -2.3293,-2.106482 -2.964401,-1.490381 -0.716519,0.695168 -0.181191,1.344982 0.851881,3.169587 -0.50048,0.462728 -0.974451,0.953462 -1.419502,1.469481 -2.057597,-1.100183 -2.766697,-1.484372 -3.235,-0.733796 -0.531499,0.851792 0.15292,1.350082 1.6111,2.893602 -0.356523,0.56081 -0.681918,1.140888 -0.974499,1.737378 -2.051799,-0.43824 -2.831198,-0.755148 -3.2795,0.13719 -0.39648,0.78913 0.29813,1.1952 2.300501,2.37491 -0.20349,0.64611 -0.37081,1.30329 -0.500432,1.96807 -2.075498,0.10621 -2.907799,0.008 -3.108798,0.98177 -0.176806,0.8569 0.59269,1.07551 2.784601,1.68291 -0.02608,0.66709 -0.01512,1.33501 0.0325,2.00081 -1.961,0.68659 -2.787201,0.82734 -2.705601,1.81818 0.07094,0.8606 0.86355,0.86385 3.069702,0.83013 0.115426,0.50816 0.259918,1.0088 0.418677,1.5049 a 27.784,27.784 0 0 0 2.6066,-0.46957 c -1.0298,-3.09369 -1.2539,-6.5207 0.45682,-10.94498 0.316952,-0.81963 0.692992,-1.52602 1.120702,-2.07893 a 15.671,15.671 0 0 1 7.933399,-6.475576 c 0.43411,-0.220346 1.0315,-0.390463 1.69469,-0.522217 a 15.671,15.671 0 0 1 1.44411,-0.295937 15.671,15.671 0 0 1 1.5594,-0.148914 15.671,15.671 0 0 1 6.2822,1.013594 27.784,27.784 0 0 0 0.93818,-4.776 c -0.37323,0.368126 -0.75386,1.046702 -1.3904,2.046198 -0.64548,-0.199937 -1.3015,-0.36359 -1.9654,-0.490431 -0.14423,-2.329323 -0.18966,-3.134325 -1.0744,-3.138822 z"
     id="path989" />
  <path
     style="fill:#ffffff;fill-opacity:0.060606;stroke-width:0.961251;image-rendering:optimizeSpeed"
     inkscape:connector-curvature="0"
     d="m 90.806085,75.700488 -1.222401,0.159874 c -0.05643,0.0076 -0.104239,0.0378 -0.136214,0.07899 -0.03213,0.04157 -0.04184,0.09487 -0.04086,0.151559 l 0.02646,1.523905 c -0.890317,0.222615 -1.741599,0.579553 -2.5248,1.058079 l -1.041698,-1.095269 c -0.03553,-0.0446 -0.08417,-0.07219 -0.136214,-0.07899 -0.05208,-0.0076 -0.10647,0.0076 -0.151673,0.04082 l -0.979056,0.750198 c -0.0452,0.03402 -0.07215,0.08428 -0.07899,0.136063 -0.0068,0.05216 0.01247,0.103181 0.04086,0.152693 l 0.755622,1.320529 c -0.654451,0.636548 -1.208999,1.368378 -1.644801,2.170583 l -1.435899,-0.422325 c -0.05299,-0.02268 -0.108586,-0.02268 -0.157115,-9.07e-4 -0.04853,0.0189 -0.08901,0.05896 -0.110816,0.111496 l -0.472252,1.138923 c -0.02192,0.05254 -0.02079,0.108473 -9.3e-4,0.157229 0.02003,0.04838 0.06255,0.08315 0.111723,0.111874 l 1.314199,0.765618 c -0.229758,0.801865 -0.347755,1.631585 -0.350589,2.465802 0.0017,0.07748 0.0045,0.154961 0.0083,0.232441 l -1.4649,0.354142 c -0.05628,0.0076 -0.105146,0.0378 -0.137121,0.07824 -0.03213,0.04157 -0.0474,0.09524 -0.03995,0.151559 l 0.159836,1.222413 c 0.0076,0.05631 0.03628,0.105071 0.07812,0.137197 0.04165,0.03024 0.09566,0.03969 0.15258,0.04006 l 1.528501,0.0076 c 0.223786,0.883578 0.579538,1.728302 1.055297,2.505713 l -1.090798,1.038085 c -0.04448,0.03402 -0.07211,0.08428 -0.07899,0.136063 -0.0068,0.05216 0.006,0.107339 0.04086,0.152693 l 0.750179,0.978104 c 0.03477,0.04535 0.08417,0.07219 0.136214,0.07899 0.05208,0.0076 0.102237,-0.01134 0.151673,-0.04082 l 1.316901,-0.752882 c 0.637319,0.65503 1.369999,1.209827 2.1733,1.64572 l -0.42141,1.432214 c -0.02079,0.05291 -0.02003,0.108473 0,0.157228 0.02003,0.04838 0.0582,0.08995 0.110816,0.111497 l 1.1389,0.472251 c 0.05257,0.02268 0.109493,0.0189 0.158022,0 0.04857,-0.0189 0.08213,-0.06236 0.110816,-0.111496 l 0.764689,-1.312403 c 0.800462,0.22904 1.6287,0.346583 2.461202,0.349607 0.07933,-0.0017 0.158664,-0.0038 0.237959,-0.0076 l 0.354217,1.464904 c 0.0083,0.0563 0.03628,0.10432 0.07812,0.13607 0.04165,0.0302 0.09615,0.0484 0.15258,0.0408 l 1.222397,-0.16063 c 0.05643,-0.008 0.104239,-0.0378 0.136214,-0.0782 0.03213,-0.04157 0.04063,-0.09562 0.04086,-0.152694 l 0.0064,-1.529385 c 0.860311,-0.219213 1.683802,-0.563301 2.444001,-1.02172 l 1.109802,1.052598 c 0.288113,0.03817 0.08413,0.07219 0.136214,0.07899 0.05208,0.0076 0.106507,-0.0076 0.151673,-0.04082 l 0.97906,-0.750161 c 0.0452,-0.03402 0.07121,-0.08428 0.07812,-0.136063 0.0068,-0.05216 -0.01172,-0.102803 -0.04086,-0.151559 l -0.780189,-1.299591 c 0.643019,-0.623962 1.189901,-1.33988 1.622899,-2.124283 l 1.488605,0.356787 c 0.26857,-0.111118 0.10949,0.0189 0.15802,0 0.0486,-0.0189 0.089,-0.05821 0.11081,-0.11074 l 0.47225,-1.138923 c 0.0219,-0.05254 0.0208,-0.109606 9.3e-4,-0.157984 -0.02,-0.04838 -0.0619,-0.08315 -0.11172,-0.11074 l -1.3396,-0.742904 c 0.23217,-0.805795 0.35138,-1.639899 0.35418,-2.478501 -0.002,-0.05669 -0.004,-0.113386 -0.006,-0.169701 l 1.4631,-0.433209 c 0.17703,-0.230551 0.10424,-0.0378 0.13621,-0.07824 0.0321,-0.04157 0.0483,-0.09524 0.0409,-0.151559 l -0.16073,-1.223408 c -0.008,-0.05631 -0.0363,-0.104315 -0.0781,-0.136063 -0.0416,-0.03024 -0.0957,-0.04082 -0.15258,-0.04006 l -1.524,0.02646 c -0.21812,-0.867067 -0.563342,-1.697127 -1.024403,-2.463124 l 1.056203,-1.113373 c 0.0381,-0.288 0.0712,-0.08428 0.0781,-0.136063 0.007,-0.05216 -0.006,-0.107339 -0.0409,-0.152693 l -0.0863,-0.111874 c -4.7e-4,1.51e-4 -0.001,-1.14e-4 -0.002,0 4e-4,-2.27e-4 0.001,-4.92e-4 0.002,-9.07e-4 l -0.663004,-0.865512 c -0.03477,-0.04536 -0.08417,-0.07219 -0.136215,-0.07899 -0.05208,-0.0076 -0.103785,0.01134 -0.152579,0.04082 l -1.303302,0.782853 c -0.62321,-0.642482 -1.338199,-1.189077 -2.1216,-1.622098 l 0.357846,-1.492195 c -0.111081,-0.268724 0.02003,-0.108472 0,-0.157228 -0.02003,-0.04838 -0.05821,-0.08995 -0.110816,-0.111496 l -0.131679,-0.05443 -1.007199,-0.417788 c -0.05257,-0.02268 -0.108586,-0.0189 -0.157115,0 -0.04853,0.0189 -0.08409,0.06085 -0.111723,0.11074 l -0.743811,1.341392 c -0.807208,-0.232819 -1.6429,-0.352252 -2.482998,-0.355276 -0.0545,0.0013 -0.109002,0.0031 -0.163465,0.0038 l -0.433199,-1.462205 c -0.230476,-0.176882 -0.03742,-0.105071 -0.07899,-0.137197 -0.04165,-0.03024 -0.09524,-0.04724 -0.151673,-0.04006 z m -0.06629,0.313322 c 0.0091,0.0076 0.02041,0.0189 0.02986,0.02646 l 0.410509,1.384101 c 0.03934,0.132661 0.163994,0.221858 0.302438,0.216189 0.04993,-0.0021 0.09989,-0.0038 0.149858,-0.0038 4.65e-4,0 0.0014,0 0.0019,0 0.811517,0.0028 1.618896,0.1183 2.398597,0.343182 0.135421,0.03893 0.279723,-0.02268 0.34783,-0.144378 l 0.71294,-1.285985 0.959059,0.397758 c 0.0033,0.01134 0.0087,0.02646 0.01285,0.03893 l -0.338759,1.413203 c -0.03175,0.132284 0.02873,0.26948 0.148045,0.335244 0.7573,0.418507 1.448299,0.947377 2.050699,1.568391 0.09789,0.100535 0.252095,0.120567 0.372359,0.048 l 1.249701,-0.751106 0.632119,0.825562 c -0.004,0.01134 -0.006,0.02646 -0.009,0.04082 l -0.999009,1.053506 c -0.09377,0.09865 -0.110097,0.247559 -0.03995,0.363968 0.445731,0.740448 0.779112,1.542312 0.989939,2.380422 0.034,0.136441 0.15806,0.231308 0.29881,0.22904 l 1.4613,-0.02646 0.13531,1.028977 c -0.009,0.0076 -0.0196,0.02268 -0.028,0.03024 l -1.38411,0.409625 c -0.13353,0.03931 -0.22276,0.165165 -0.21615,0.304252 0.002,0.05216 0.004,0.103937 0.005,0.156094 -0.003,0.809953 -0.11814,1.615673 -0.34238,2.393991 -0.0388,0.135307 0.0212,0.279685 0.14441,0.347717 l 1.2842,0.712025 -0.39779,0.959962 c -0.0125,0.0032 -0.0268,0.0076 -0.039,0.01134 l -1.409502,-0.33789 c -0.132284,-0.03024 -0.269443,0.03024 -0.335131,0.148157 -0.41856,0.758287 -0.947811,1.450281 -1.5694,2.05338 -0.100535,0.09789 -0.120491,0.252094 -0.04815,0.372283 l 0.748369,1.246111 -0.824632,0.631181 c -0.01285,-0.0036 -0.02797,-0.0076 -0.04086,-0.0076 L 96.514463,93.93125 c -0.09857,-0.09373 -0.247635,-0.109985 -0.364196,-0.04006 -0.734891,0.443149 -1.530602,0.775483 -2.362201,0.987212 -0.13387,0.03402 -0.227716,0.154205 -0.227943,0.292536 l -0.0064,1.472201 -1.0499,0.137953 -0.338759,-1.401411 c -0.03402,-0.140598 -0.163238,-0.237354 -0.30788,-0.230551 -0.07423,0.0035 -0.148233,0.0038 -0.222501,0.0076 h -9.34e-4 c -0.804499,-0.0029 -1.604197,-0.11641 -2.377697,-0.33789 -0.133077,-0.03855 -0.275301,0.0189 -0.345108,0.137953 l -0.736559,1.264214 -0.977242,-0.405052 0.403242,-1.370494 c 0.04059,-0.136819 -0.02003,-0.283465 -0.145285,-0.351497 -0.7765,-0.421303 -1.484599,-0.957089 -2.100699,-1.590274 -0.09615,-0.09902 -0.247144,-0.120189 -0.366917,-0.05178 l -1.267899,0.724762 -0.64393,-0.840075 1.043498,-0.993563 c 0.103483,-0.09827 0.124308,-0.255118 0.04997,-0.376819 -0.459908,-0.751483 -0.803611,-1.568088 -1.019898,-2.422185 -0.03402,-0.133796 -0.154318,-0.227528 -0.292422,-0.227906 l -1.471302,-0.0076 -0.137121,-1.049008 1.401403,-0.338646 c 0.140712,-0.03401 0.237468,-0.163275 0.230703,-0.308031 -0.0033,-0.07257 -0.0057,-0.144378 -0.0072,-0.216945 v -9.07e-4 c 0.0028,-0.806022 0.116712,-1.607395 0.33876,-2.382199 0.03851,-0.133039 -0.01852,-0.275149 -0.138067,-0.34507 l -1.265998,-0.737424 0.405959,-0.977235 1.373201,0.404145 c 0.136479,0.04006 0.282444,-0.0189 0.350551,-0.145134 0.421263,-0.775483 0.957623,-1.482595 1.590301,-2.097902 0.09898,-0.096 0.120264,-0.247181 0.05178,-0.366992 l -0.728379,-1.272416 0.840998,-0.643918 0.99719,1.048101 c 0.09812,0.103559 0.255232,0.124346 0.376895,0.04989 0.757069,-0.462539 1.579702,-0.807232 2.440301,-1.022589 0.136554,-0.03402 0.231458,-0.157985 0.22885,-0.298961 l -0.02532,-1.461227 z m 0.89368,2.92989 c -4.1127,1.89e-4 -7.4535,3.3408 -7.4535,7.453493 1.77e-4,4.112693 3.3408,7.453493 7.4535,7.453493 4.112701,-1.89e-4 7.453501,-3.340875 7.453501,-7.453493 C 99.086798,82.2845 95.746176,78.9437 91.633475,78.9437 Z m 0,0.302362 c 3.949399,2.27e-4 7.150999,3.20179 7.151199,7.151169 -2.57e-4,3.949417 -3.2018,7.151017 -7.151199,7.151206 -3.949398,-2.26e-4 -7.150998,-3.201789 -7.151199,-7.151206 2.57e-4,-3.949379 3.201801,-7.15098 7.151199,-7.151169 z m 23.207995,8.385298 c -0.99222,-0.0038 -1.0709,0.827036 -1.6012,2.826293 -0.6896,-0.02268 -1.38,-0.01134 -2.068,0.0446 -0.67365,-2.202785 -0.90801,-2.971389 -1.7646,-2.770885 -0.97269,0.227527 -0.84611,1.060497 -0.89911,3.159609 -0.6583,0.151937 -1.30721,0.340535 -1.94441,0.56485 -1.18239,-1.979981 -1.5944,-2.669367 -2.3786,-2.269568 -0.90164,0.459704 -0.56163,1.240781 -0.1017,3.353083 -0.59498,0.310678 -1.1724,0.654312 -1.7292,1.029015 -1.734,-1.563213 -2.3293,-2.10652 -2.964405,-1.490419 -0.716519,0.695168 -0.181191,1.34502 0.851885,3.169625 -0.500483,0.462727 -0.974455,0.953461 -1.419502,1.46948 -2.057601,-1.100182 -2.766701,-1.484409 -3.235003,-0.733833 -0.5315,0.851792 0.152919,1.350122 1.611103,2.893602 -0.356523,0.56085 -0.681922,1.140928 -0.974503,1.737408 -2.051799,-0.43823 -2.831198,-0.755148 -3.279499,0.1372 -0.39648,0.78917 0.298129,1.1952 2.3005,2.37491 -0.20349,0.64614 -0.37081,1.30329 -0.500429,1.96811 -2.075501,0.1062 -2.907802,0.008 -3.108801,0.98177 -0.176806,0.85689 0.592691,1.0755 2.784601,1.68287 -0.02608,0.66709 -0.01512,1.33501 0.0325,2.00081 -1.961,0.68662 -2.787201,0.82737 -2.705601,1.81821 0.07094,0.86057 0.86355,0.86382 3.069702,0.8301 0.115427,0.50816 0.25988,1.00883 0.418681,1.50493 0.102085,-0.0113 0.204094,-0.0227 0.306066,-0.0378 -0.163729,-0.50604 -0.311736,-1.01703 -0.429581,-1.53581 -0.03175,-0.13947 -0.156737,-0.23773 -0.299717,-0.23509 -1.102401,0.0151 -1.850101,0.0189 -2.2669,-0.0726 -0.208365,-0.045 -0.3216,-0.10697 -0.383263,-0.16971 -0.06168,-0.0627 -0.09959,-0.14059 -0.113499,-0.30954 -0.01701,-0.20561 0.01096,-0.32579 0.07083,-0.42682 0.05991,-0.10129 0.168151,-0.20069 0.361474,-0.30803 0.386642,-0.21468 1.084702,-0.42826 2.071601,-0.77382 0.128806,-0.045 0.211427,-0.17084 0.201638,-0.3069 -0.04709,-0.65469 -0.05752,-1.31131 -0.03175,-1.96721 0.0057,-0.14022 -0.08625,-0.26608 -0.221594,-0.30349 -1.0957,-0.3035 -1.8334,-0.51678 -2.2187,-0.72295 -0.192642,-0.10318 -0.28645,-0.19502 -0.328781,-0.27326 -0.04233,-0.0782 -0.05669,-0.16517 -0.02192,-0.33411 0.04165,-0.20221 0.102878,-0.30841 0.188901,-0.38873 0.08602,-0.0801 0.216566,-0.14513 0.432309,-0.19351 0.431452,-0.0968 1.162402,-0.10545 2.206901,-0.15874 0.138595,-0.008 0.254664,-0.10734 0.281537,-0.2434 0.127408,-0.65352 0.29125,-1.30001 0.491319,-1.93542 0.04248,-0.13417 -0.01323,-0.27968 -0.1344,-0.3515 -1.001299,-0.5899 -1.672297,-0.99265 -1.9981,-1.29509 -0.16286,-0.15118 -0.230475,-0.26532 -0.251565,-0.35225 -0.02117,-0.0869 -0.01323,-0.17499 0.06539,-0.33147 0.09309,-0.18519 0.180094,-0.27288 0.284258,-0.32768 0.104201,-0.0552 0.248844,-0.0824 0.471371,-0.0726 0.445021,0.0189 1.157798,0.20259 2.190599,0.4232 0.135572,0.0302 0.273752,-0.0378 0.335131,-0.16177 0.287698,-0.5865 0.60757,-1.156908 0.958129,-1.708308 0.07465,-0.11716 0.06006,-0.26985 -0.03553,-0.37039 -0.734193,-0.77711 -1.268999,-1.29479 -1.5212,-1.66741 -0.126085,-0.186334 -0.177713,-0.325042 -0.185272,-0.44319 -0.0076,-0.117922 0.02117,-0.238111 0.131679,-0.41503 0.09283,-0.148914 0.16354,-0.201827 0.248844,-0.22904 0.08534,-0.02646 0.219477,-0.02646 0.43412,0.03402 0.429298,0.121701 1.124398,0.486047 2.153397,1.03631 0.124725,0.0669 0.279043,0.0382 0.371452,-0.0692 0.437658,-0.507408 0.903817,-0.98994 1.395897,-1.444882 0.10292,-0.09524 0.12699,-0.248315 0.0581,-0.370394 -0.519961,-0.918425 -0.909592,-1.543899 -1.0617,-1.962633 -0.07604,-0.209386 -0.09218,-0.355276 -0.07083,-0.471345 0.02117,-0.116031 0.07922,-0.22526 0.227943,-0.369638 0.125896,-0.122078 0.206778,-0.15685 0.296051,-0.162519 0.08931,-0.0076 0.219516,0.02646 0.413226,0.136441 0.38746,0.22148 0.9747,0.742185 1.8418,1.523905 0.10307,0.09298 0.25629,0.103937 0.37145,0.02646 0.54749,-0.368504 1.115,-0.706091 1.7001,-1.011704 0.1208,-0.06312 0.18437,-0.199181 0.1553,-0.332221 -0.23161,-1.06371 -0.42694,-1.793385 -0.45318,-2.248705 -0.0132,-0.227528 0.014,-0.375685 0.0681,-0.481361 0.0543,-0.105826 0.14105,-0.193889 0.32878,-0.289889 0.15518,-0.07899 0.24283,-0.08769 0.32969,-0.06728 0.0868,0.0189 0.20171,0.08731 0.35327,0.247937 0.30315,0.321638 0.7075,0.985361 1.2987,1.975294 0.0739,0.123591 0.22477,0.178016 0.36056,0.130016 0.62663,-0.220724 1.26441,-0.406261 1.91181,-0.555779 0.13443,-0.03024 0.23085,-0.148914 0.23429,-0.286866 0.0268,-1.056681 0.0144,-1.793575 0.099,-2.231396 0.0424,-0.218834 0.10371,-0.35263 0.18164,-0.441373 0.0779,-0.08844 0.18316,-0.152693 0.38509,-0.199937 0.16943,-0.03969 0.25674,-0.02646 0.33603,0.01512 0.0793,0.04044 0.17386,0.133039 0.28245,0.325039 0.21717,0.384567 0.45149,1.124599 0.78832,2.225991 0.0412,0.135685 0.17114,0.224126 0.31242,0.213543 0.67658,-0.05329 1.35539,-0.06765 2.0334,-0.04346 0.14135,0.0038 0.26736,-0.08844 0.30334,-0.22526 0.26687,-1.006073 0.42566,-1.715906 0.60943,-2.116082 0.0919,-0.199937 0.18165,-0.314079 0.27791,-0.38143 0.0963,-0.06728 0.21381,-0.104693 0.41959,-0.103559 0.17537,8.69e-4 0.2581,0.03402 0.32606,0.09184 0.0679,0.0582 0.13886,0.171212 0.19982,0.386003 0.12189,0.429278 0.17673,1.212888 0.24885,2.377701 0.009,0.137952 0.1096,0.252094 0.24521,0.277795 0.65277,0.124724 1.2979,0.285732 1.9326,0.48223 0.13006,0.04006 0.27099,-0.01134 0.3442,-0.126236 0.45605,-0.715994 0.78288,-1.266293 1.049,-1.638388 0.0306,-0.189732 0.0595,-0.379956 0.0863,-0.570368 -0.37323,0.368126 -0.75386,1.046702 -1.3904,2.046198 -0.64547,-0.199937 -1.3015,-0.363591 -1.9654,-0.490431 -0.14422,-2.329323 -0.18965,-3.134325 -1.0744,-3.138823 z m -2.0389,5.027603 c -0.25383,-4.53e-4 -0.50866,0.0038 -0.76469,0.01512 -0.53201,0.02268 -1.0624,0.07446 -1.5894,0.151559 -9.3e-4,0 -0.002,0 -0.003,0 -0.48992,0.07672 -0.97608,0.176881 -1.4568,0.29896 -0.67415,0.133796 -1.286,0.305386 -1.76279,0.545802 -3.34031,1.231899 -6.17291,3.543118 -8.048704,6.569116 -0.449821,0.58273 -0.835843,1.3112 -1.159801,2.14881 -1.7278,4.46797 -1.505802,7.98127 -0.468631,11.11998 0.09789,-0.0227 0.195704,-0.0435 0.293367,-0.0661 -1.029801,-3.0937 -1.2539,-6.52071 0.45682,-10.94498 0.316951,-0.81963 0.692987,-1.52603 1.120698,-2.07893 1.844701,-2.986098 4.638301,-5.266395 7.933401,-6.475579 0.4341,-0.220346 1.0315,-0.390463 1.69469,-0.522217 0.47644,-0.121323 0.95833,-0.219969 1.44411,-0.295937 0.51697,-0.07559 1.0374,-0.125103 1.55939,-0.148914 2.1413,-0.09524 4.2795,0.249449 6.2821,1.013594 0.0265,-0.100535 0.0521,-0.200693 0.0772,-0.301606 -1.7534,-0.663685 -3.6456,-1.026407 -5.6084,-1.029884 z"
     id="path991" />
  <path
     style="fill-opacity:0.28736;stroke-width:2.0672;filter:url(#m);image-rendering:optimizeSpeed"
     inkscape:connector-curvature="0"
     transform="matrix(0.46500001,0,0,0.46500001,61.416985,56.018598)"
     d="m 64.985,5.5818 a 59.751,59.751 0 0 0 -59.752,59.75 59.751,59.751 0 0 0 59.752,59.752 59.751,59.751 0 0 0 59.75,-59.752 59.751,59.751 0 0 0 -59.75,-59.75 z m 0,5.25 a 54.501,54.501 0 0 1 54.5,54.5 54.501,54.501 0 0 1 -54.5,54.502 54.501,54.501 0 0 1 -54.502,-54.502 54.501,54.501 0 0 1 54.502,-54.5 z"
     id="path993" />
  <path
     style="fill:url(#f);stroke-width:0.961251;image-rendering:optimizeSpeed"
     inkscape:connector-curvature="0"
     d="m 91.635087,56.398516 c -16.549002,0 -30,13.450998 -30,30 0,16.549004 13.450998,29.999994 30,29.999994 16.548993,0 29.999993,-13.45099 29.999993,-29.999994 0,-16.549002 -13.451,-30 -29.999993,-30 z m 0,3.255005 c 14.789993,0 26.744993,11.954986 26.744993,26.744995 0,14.789974 -11.955,26.744994 -26.744993,26.744994 -14.790002,0 -26.745003,-11.95502 -26.745003,-26.744994 0,-14.790009 11.955001,-26.744995 26.745003,-26.744995 z"
     id="path995" />
  <path
     style="fill:url(#g);stroke-width:0.961251;image-rendering:optimizeSpeed"
     inkscape:connector-curvature="0"
     d="m 91.635087,59.079486 c -15.082001,0 -27.319,12.236032 -27.319,27.31903 0,15.081974 12.235998,27.318994 27.319,27.318994 15.083003,0 27.318993,-12.236 27.318993,-27.318994 0,-15.082016 -12.23599,-27.31903 -27.318993,-27.31903 z m 0,0.574035 c 14.789993,0 26.744993,11.954986 26.744993,26.744995 0,14.789974 -11.955,26.744994 -26.744993,26.744994 -14.790002,0 -26.745003,-11.95502 -26.745003,-26.744994 0,-8.872214 4.3021,-16.724032 10.937,-21.586999 4.425801,-3.243628 9.889603,-5.157807 15.807001,-5.157807 z"
     id="path997" />
  <g
     style="stroke-width:2.0672;image-rendering:optimizeSpeed"
     transform="matrix(0.46500001,0,0,0.46500001,-10.011914,54.033968)"
     id="g1011">
    <path
       style="fill:url(#k)"
       inkscape:connector-curvature="0"
       d="m 215.19,34.459 -12.5,2.75 6.1016,11.729 c -2.672,-9.8369 3.4567,-11.205 9.3359,-11.232 2.3774,-0.01095 4.8364,0.35033 6.9277,0.79883 5.2679,1.0398 10.56,3.8692 14.154,6.8594 3.2399,2.7291 6.0143,6.0986 7.9043,9.793 1.2669,2.4764 1.9622,4.9352 1.627,7.1934 -0.356,2.3979 -2.8206,4.3041 -7.3789,5.502 l 10.703,-2.3926 -1.125,-9.75 -6,-10 -9.875,-8.75 z m -17.02,8.4141 -7.8809,5.8496 -5.6602,10.197 -2.6406,12.926 7.7734,18.463 8.6309,9.4512 7.1055,-11.148 c -7.183,7.2325 -11.431,2.6073 -14.395,-2.4707 -1.1982,-2.0534 -2.1142,-4.363 -2.7715,-6.3984 -1.7334,-5.082 -1.9292,-11.078 -1.1367,-15.686 0.74346,-4.1704 2.2749,-8.2602 4.5293,-11.744 1.5112,-2.3354 3.2928,-4.1671 5.416,-5.0059 2.2547,-0.89066 5.1366,0.29002 8.4531,3.6387 z m 43.496,28.781 c 9.855,2.6044 7.9747,8.5961 5.0586,13.701 -1.1792,2.0644 -2.7221,4.0146 -4.1562,5.6016 -3.5344,4.0422 -8.6289,7.2106 -13.016,8.8281 -3.9834,1.4413 -8.2911,2.1596 -12.436,1.9492 -2.7781,-0.14102 -5.255,-0.77007 -7.043,-2.1895 -1.8987,-1.5073 -2.3179,-4.5941 -1.0762,-9.1406 l -3.2774,10.467 9.0059,3.9004 11.66,-0.19727 12.516,-4.1758 12.102,-15.963 3.8691,-12.201 z"
       id="path999" />
    <path
       style="fill:url(#l)"
       inkscape:connector-curvature="0"
       d="m 218.5,24.385 c -2.1407,0.18113 -2.1309,1.9933 -2.8984,6.4434 a 38.984,38.878 0 0 0 -4.3144,0.5957 c -1.8985,-4.5819 -2.5602,-6.1785 -4.3535,-5.5723 -2.0619,0.69701 -1.5816,2.4656 -1.2617,7.1035 a 38.984,38.878 0 0 0 -4,1.6504 c -3.202,-3.8671 -4.3002,-5.2088 -5.8438,-4.0957 -1.7414,1.2557 -0.80489,2.8051 0.82422,7.0098 a 38.984,38.878 0 0 0 -3.4785,2.6836 c -4.0351,-2.9828 -5.4237,-4.0213 -6.6543,-2.5703 -1.3966,1.6466 -0.0961,2.9211 2.5254,6.6602 a 38.984,38.878 0 0 0 -2.6152,3.3926 c -4.2291,-1.5724 -5.7893,-2.4893 -7.0215,-0.73047 -1.0898,1.5555 0.26163,2.6368 4.1543,5.7715 a 38.984,38.878 0 0 0 -1.6777,4.0312 c -4.4494,-0.42155 -6.1906,-0.8903 -6.9219,1.1191 -0.64346,1.7682 0.92599,2.4732 5.4004,4.4492 a 38.984,38.878 0 0 0 -0.55468,4.2676 c -4.3866,0.84938 -6.189,0.89155 -6.3242,3.0254 -0.11743,1.8533 1.5686,2.1063 6.2734,2.7227 a 38.984,38.878 0 0 0 0.625,4.5371 c -4.0307,1.7662 -5.7647,2.2178 -5.4277,4.3145 0.3001,1.8673 2.0208,1.7073 6.9492,1.25 a 38.984,38.878 0 0 0 1.7422,4.1973 c -3.4365,2.6636 -4.9931,3.5307 -4.1582,5.4707 0.75058,1.744 2.381,1.1616 7.0898,-0.50195 a 38.984,38.878 0 0 0 2.5469,3.2891 c -2.5918,3.8058 -3.8861,5.0942 -2.4629,6.7285 1.2414,1.4255 2.6183,0.38074 6.5547,-2.6094 a 38.984,38.878 0 0 0 3.4863,2.6875 c -1.5776,4.3917 -2.5271,5.9642 -0.73047,7.1992 1.5735,1.0817 2.6387,-0.29087 5.7773,-4.2598 l -0.76758,-0.45704 a 38.984,38.878 0 0 0 4.5781,1.959 c -0.30411,4.5094 -0.74142,6.2679 1.2969,6.9492 1.7647,0.58989 2.4398,-0.97903 4.25,-5.3887 a 38.984,38.878 0 0 0 4.4141,0.58985 c 0.83409,4.989 1.1041,6.7039 3.0039,6.5156 2.133,-0.21142 2.1043,-2.0188 2.8027,-6.457 a 38.984,38.878 0 0 0 4.4492,-0.58398 c 1.8356,4.4722 2.5038,6.0525 4.2793,5.459 2.039,-0.68158 1.601,-2.4403 1.2969,-6.9531 a 38.984,38.878 0 0 0 4.0488,-1.6445 c 3.048,3.8544 4.1221,5.2028 5.6758,4.1348 1.7639,-1.2126 0.87127,-2.781 -0.6543,-6.9922 a 38.984,38.878 0 0 0 3.5976,-2.7519 c 3.7707,2.8633 5.1488,3.8659 6.3672,2.4668 1.3876,-1.5934 0.16915,-2.8939 -2.293,-6.4824 a 38.984,38.878 0 0 0 2.6289,-3.3594 c 4.604,1.6264 6.2294,2.1899 6.9727,0.46289 0.83002,-1.9286 -0.70777,-2.8031 -4.1016,-5.4297 a 38.984,38.878 0 0 0 1.7812,-4.2305 c 4.8426,0.44916 6.5557,0.59536 6.8535,-1.2578 0.3337,-2.0764 -1.3772,-2.5457 -5.3242,-4.2695 a 38.984,38.878 0 0 0 0.58203,-4.5898 c 4.6518,-0.60977 6.3297,-0.87064 6.2129,-2.7148 -0.13374,-2.1104 -1.9158,-2.1774 -6.1973,-3 a 38.984,38.878 0 0 0 -0.59571,-4.332 c 4.3974,-1.9423 5.9551,-2.6552 5.3164,-4.4102 -0.72532,-1.993 -2.4576,-1.5476 -6.8262,-1.1289 a 38.984,38.878 0 0 0 -1.6914,-4.0918 c 3.8157,-3.0728 5.1527,-4.1591 4.0723,-5.7012 -1.227,-1.7514 -2.788,-0.84725 -6.9766,0.71289 a 38.984,38.878 0 0 0 -2.6914,-3.4746 c 2.8295,-3.9986 3.8163,-5.4098 2.3555,-6.5977 -1.6413,-1.3345 -2.8994,-0.07045 -6.4121,2.5176 a 38.984,38.878 0 0 0 -3.5586,-2.7227 c 1.8726,-4.571 2.5269,-6.1685 0.83008,-7 -1.9531,-0.95712 -2.8613,0.63432 -5.8965,4.1465 a 38.984,38.878 0 0 0 -4.0293,-1.6562 c 0.41957,-5.0012 0.57453,-6.7283 -1.3066,-7.0137 -2.1097,-0.32001 -2.5372,1.4269 -4.2891,5.5156 a 38.984,38.878 0 0 0 -4.4141,-0.55078 c -0.74638,-4.8972 -1.0054,-6.6068 -2.8906,-6.4473 z m -1.5566,11.949 c 4.3154,-0.07229 9.439,0.69843 11.104,1.4219 7.2456,2.2087 13.946,6.2688 19.652,15.717 1.0626,1.7596 1.8261,3.4681 2.1699,5.0273 0.3413,1.6395 0.21329,3.5468 -0.8457,5.0508 -0.90751,1.196 -2.0313,2.323 -3.5996,2.4668 -4.8807,0.45727 -11.498,0.19906 -16.721,0.14258 -0.87881,-0.0095 -1.718,-0.36516 -1.9707,-0.64258 -1.5473,-0.97515 -2.5889,-3.0973 -4.3144,-3.6953 -2.7548,-1.2763 -3.87,-0.20604 -5.4238,-2.1172 -2.8622,-4.5917 -5.6318,-9.3091 -8.1738,-13.994 -1.8418,-3.2061 -0.62749,-6.4151 2.1484,-8.1445 1.0861,-0.84251 3.3853,-1.1891 5.9746,-1.2324 z m -19.234,9.8867 c 0.22474,-0.0071 0.45092,3.63e-4 0.67968,0.02344 1.4874,0.20378 3.021,0.62988 3.916,1.9258 2.7937,4.0282 5.8165,9.9202 8.3301,14.498 0.42299,0.77037 0.52593,1.6769 0.4082,2.0332 -0.0903,1.8267 -1.4293,3.7753 -1.1035,5.5723 0.23995,3.0266 1.721,3.472 0.81836,5.7637 -2.5961,4.7473 -5.349,9.4761 -8.1836,13.99 -1.8896,3.1782 -5.2812,3.6949 -8.1504,2.125 -3.379,-1.421 -7.9183,-12.084 -8.2168,-14.973 -1.6314,-7.397 -1.381,-15.228 4.0508,-24.836 1.0116,-1.7894 2.1266,-3.2927 3.3164,-4.3574 1.1034,-0.96424 2.5616,-1.7163 4.1348,-1.7656 z m 38.613,26.914 c 2.7097,0.01403 5.4089,0.0691 8.0723,0.16797 3.6972,0.04731 5.841,2.7264 5.916,5.9961 0.45885,3.6368 -6.5051,12.899 -8.8574,14.602 -5.5902,5.1113 -12.498,8.8102 -23.535,8.9102 -2.0555,0.0186 -3.9146,-0.19529 -5.4316,-0.69336 -1.5849,-0.54107 -3.1608,-1.6196 -3.916,-3.2969 -0.56722,-1.39 -0.96581,-2.9325 -0.29101,-4.3555 2.0916,-4.4335 5.6849,-9.9971 8.3926,-14.463 0.45566,-0.75151 1.1892,-1.293 1.5566,-1.3691 1.6271,-0.83516 3.9836,-0.65144 5.377,-1.832 2.5011,-1.7211 2.148,-3.2257 4.584,-3.5898 2.7046,-0.06268 5.4231,-0.0902 8.1328,-0.07617 z"
       id="path1001" />
    <path
       style="fill:#ffffff;fill-opacity:0.26744"
       inkscape:connector-curvature="0"
       d="m 218.5,24.385 c -2.1407,0.18113 -2.1309,1.9933 -2.8984,6.4434 a 38.984,38.878 0 0 0 -4.3145,0.5957 c -1.8985,-4.5819 -2.5602,-6.1785 -4.3535,-5.5723 -2.0619,0.69701 -1.5816,2.4656 -1.2617,7.1035 a 38.984,38.878 0 0 0 -4,1.6504 c -3.202,-3.8671 -4.3002,-5.2088 -5.8438,-4.0957 -1.7414,1.2557 -0.80489,2.8051 0.82422,7.0098 a 38.984,38.878 0 0 0 -3.4785,2.6836 c -4.0351,-2.9828 -5.4237,-4.0213 -6.6543,-2.5703 -1.3966,1.6466 -0.0961,2.9211 2.5254,6.6602 a 38.984,38.878 0 0 0 -2.6152,3.3926 c -4.2291,-1.5724 -5.7892,-2.4893 -7.0215,-0.73047 -1.0898,1.5555 0.26162,2.6368 4.1543,5.7715 a 38.984,38.878 0 0 0 -1.6777,4.0312 c -4.4494,-0.42155 -6.1906,-0.8903 -6.9219,1.1191 -0.64346,1.7682 0.926,2.4732 5.4004,4.4492 a 38.984,38.878 0 0 0 -0.55468,4.2676 c -4.3866,0.84938 -6.189,0.89155 -6.3242,3.0254 -0.11743,1.8533 1.5686,2.1063 6.2734,2.7227 a 38.984,38.878 0 0 0 0.625,4.5371 c -4.0307,1.7662 -5.7647,2.2178 -5.4277,4.3145 0.3001,1.8673 2.0208,1.7073 6.9492,1.25 a 38.984,38.878 0 0 0 1.7422,4.1973 c -3.4365,2.6636 -4.9931,3.5307 -4.1582,5.4707 0.75059,1.744 2.381,1.1616 7.0898,-0.50195 a 38.984,38.878 0 0 0 2.5469,3.2891 c -2.5918,3.8058 -3.8861,5.0942 -2.4629,6.7285 1.2414,1.4255 2.6183,0.38075 6.5547,-2.6094 a 38.984,38.878 0 0 0 3.4863,2.6875 c -1.5776,4.3917 -2.5271,5.9641 -0.73047,7.1992 1.5735,1.0817 2.6387,-0.29086 5.7773,-4.2598 l -0.76757,-0.45703 a 38.984,38.878 0 0 0 4.5781,1.959 c -0.30411,4.5094 -0.74141,6.2679 1.2969,6.9492 1.7647,0.58989 2.4398,-0.97902 4.25,-5.3887 a 38.984,38.878 0 0 0 4.4141,0.58985 c 0.83409,4.989 1.1041,6.7039 3.0039,6.5156 2.133,-0.21142 2.1043,-2.0188 2.8027,-6.457 a 38.984,38.878 0 0 0 4.4492,-0.58398 c 1.8356,4.4722 2.5038,6.0525 4.2793,5.459 2.039,-0.68158 1.601,-2.4403 1.2969,-6.9531 a 38.984,38.878 0 0 0 4.0488,-1.6445 c 3.048,3.8544 4.1221,5.2028 5.6758,4.1348 1.7639,-1.2126 0.87127,-2.781 -0.6543,-6.9922 a 38.984,38.878 0 0 0 3.5977,-2.752 c 3.7707,2.8634 5.1488,3.8659 6.3672,2.4668 1.3876,-1.5934 0.16915,-2.8939 -2.293,-6.4824 a 38.984,38.878 0 0 0 2.6289,-3.3594 c 4.604,1.6264 6.2294,2.1899 6.9727,0.46289 0.83002,-1.9286 -0.70776,-2.8031 -4.1016,-5.4297 a 38.984,38.878 0 0 0 1.7812,-4.2305 c 4.8426,0.44916 6.5557,0.59536 6.8535,-1.2578 0.3337,-2.0764 -1.3772,-2.5457 -5.3242,-4.2695 a 38.984,38.878 0 0 0 0.58203,-4.5898 c 4.6518,-0.60977 6.3298,-0.87064 6.2129,-2.7148 -0.13374,-2.1104 -1.9158,-2.1774 -6.1973,-3 a 38.984,38.878 0 0 0 -0.5957,-4.332 c 4.3974,-1.9423 5.955,-2.6552 5.3164,-4.4102 -0.72532,-1.993 -2.4576,-1.5476 -6.8262,-1.1289 a 38.984,38.878 0 0 0 -1.6914,-4.0918 c 3.8157,-3.0728 5.1526,-4.1591 4.0723,-5.7012 -1.227,-1.7514 -2.788,-0.84725 -6.9766,0.71289 a 38.984,38.878 0 0 0 -2.6914,-3.4746 c 2.8295,-3.9986 3.8163,-5.4098 2.3555,-6.5977 -1.6413,-1.3345 -2.8994,-0.07045 -6.4121,2.5176 a 38.984,38.878 0 0 0 -3.5586,-2.7227 c 1.8726,-4.571 2.5269,-6.1685 0.83008,-7 -1.9531,-0.95712 -2.8613,0.63432 -5.8965,4.1465 a 38.984,38.878 0 0 0 -4.0293,-1.6562 c 0.41957,-5.0012 0.57453,-6.7283 -1.3066,-7.0137 -2.1097,-0.32001 -2.5372,1.4269 -4.2891,5.5156 a 38.984,38.878 0 0 0 -4.4141,-0.55078 c -0.74638,-4.8972 -1.0054,-6.6068 -2.8906,-6.4473 z m 0.043,0.49805 c 0.39559,-0.03347 0.61903,0.02518 0.8086,0.16016 0.18957,0.13498 0.37763,0.39108 0.55468,0.84961 0.35411,0.91705 0.61704,2.567 0.99024,5.0156 a 0.50005,0.50005 0 0 0 0.46094,0.42188 c 1.4617,0.09838 2.9164,0.28111 4.3574,0.54492 a 0.50005,0.50005 0 0 0 0.54883,-0.29492 c 0.8803,-2.0545 1.4378,-3.5153 1.9707,-4.3359 0.26647,-0.41031 0.51174,-0.64802 0.76953,-0.77734 0.25779,-0.12932 0.55737,-0.17498 1.0156,-0.10547 0.39534,0.05997 0.60059,0.17122 0.7539,0.34766 0.15331,0.17644 0.27502,0.46894 0.33984,0.96094 0.12967,0.984 -0.001,2.669 -0.21093,5.1699 a 0.50005,0.50005 0 0 0 0.33398,0.51367 c 1.3554,0.47062 2.6842,1.0162 3.9785,1.6348 a 0.50005,0.50005 0 0 0 0.59375,-0.125 c 1.5259,-1.7657 2.5241,-3.0418 3.2969,-3.6934 0.38637,-0.3258 0.69841,-0.48798 0.98633,-0.53711 0.28792,-0.04913 0.5883,-0.0014 1.0137,0.20703 0.35601,0.17446 0.51816,0.33989 0.61133,0.55274 0.0932,0.21284 0.12445,0.52666 0.041,1.0098 -0.16683,0.96621 -0.78831,2.5133 -1.7246,4.7988 a 0.50005,0.50005 0 0 0 0.18164,0.60352 c 1.2217,0.82794 2.3954,1.7251 3.5137,2.6875 a 0.50005,0.50005 0 0 0 0.62305,0.02344 c 1.7647,-1.3002 2.9673,-2.2573 3.832,-2.6836 0.43236,-0.21316 0.76102,-0.29182 1.0469,-0.27148 0.28588,0.02034 0.56384,0.1343 0.91992,0.42383 0.30624,0.249 0.42741,0.44584 0.47071,0.67383 0.0433,0.22799 0.002,0.54067 -0.18555,0.99023 -0.37522,0.89914 -1.3178,2.2568 -2.7324,4.2559 a 0.50005,0.50005 0 0 0 0.0312,0.61719 c 0.94969,1.0925 1.8361,2.2374 2.6562,3.4297 a 0.50005,0.50005 0 0 0 0.58594,0.18555 c 2.1048,-0.78401 3.5522,-1.3933 4.5176,-1.5762 0.48267,-0.09142 0.82561,-0.07755 1.0977,0.01953 0.27209,0.09708 0.51077,0.28162 0.77734,0.66211 0.22647,0.32325 0.28838,0.54639 0.26758,0.77734 -0.0208,0.23095 -0.14555,0.51935 -0.44922,0.90039 -0.60733,0.76208 -1.8873,1.8114 -3.7949,3.3477 a 0.50005,0.50005 0 0 0 -0.13672,0.60547 c 0.633,1.3137 1.1908,2.6622 1.6699,4.0391 a 0.50005,0.50005 0 0 0 0.51954,0.33398 c 2.1948,-0.21034 3.7278,-0.41695 4.6934,-0.33984 0.48277,0.03855 0.80542,0.14041 1.041,0.30469 0.23558,0.16428 0.41681,0.40536 0.57422,0.83789 0.13361,0.36714 0.13731,0.5977 0.0586,0.81445 -0.0787,0.21676 -0.27119,0.46107 -0.65625,0.74805 -0.77011,0.57395 -2.2512,1.2479 -4.4492,2.2188 a 0.50005,0.50005 0 0 0 -0.28907,0.55273 c 0.27629,1.4133 0.47248,2.8421 0.58789,4.2773 a 0.50005,0.50005 0 0 0 0.4043,0.44922 c 2.1509,0.41325 3.6688,0.6484 4.5684,0.99414 0.44975,0.17287 0.73113,0.36025 0.91016,0.58398 0.17902,0.22373 0.28544,0.50508 0.31445,0.96289 0.0244,0.38494 -0.0392,0.60616 -0.17383,0.79102 -0.13459,0.18485 -0.38157,0.3631 -0.82226,0.5293 -0.88142,0.33239 -2.4588,0.56249 -4.7832,0.86719 a 0.50005,0.50005 0 0 0 -0.43359,0.46289 c -0.10116,1.5203 -0.29465,3.0337 -0.57617,4.5312 a 0.50005,0.50005 0 0 0 0.29297,0.55078 c 1.9825,0.86586 3.3956,1.4256 4.1875,1.959 0.39594,0.26671 0.6259,0.51044 0.75,0.76758 0.12408,0.25714 0.16412,0.5538 0.0918,1.0039 -0.0624,0.38813 -0.17247,0.59111 -0.34765,0.74219 -0.17519,0.15108 -0.46478,0.27163 -0.94532,0.33398 -0.96107,0.12471 -2.5986,-0.01179 -5.0195,-0.23633 a 0.50005,0.50005 0 0 0 -0.51758,0.33203 c -0.50315,1.4253 -1.0917,2.8195 -1.7598,4.1758 a 0.50005,0.50005 0 0 0 0.14258,0.61524 c 1.7046,1.3192 2.9339,2.2068 3.5684,2.916 0.31721,0.35461 0.48008,0.64646 0.53711,0.92578 0.057,0.27932 0.0237,0.57804 -0.15626,0.99609 -0.15575,0.36191 -0.31243,0.53109 -0.51953,0.63477 -0.20709,0.10367 -0.51751,0.14939 -1,0.0918 -0.96497,-0.1152 -2.5264,-0.64982 -4.8281,-1.4629 a 0.50005,0.50005 0 0 0 -0.57617,0.18555 c -0.80359,1.1519 -1.6705,2.2572 -2.5957,3.3145 a 0.50005,0.50005 0 0 0 -0.0352,0.61328 c 1.2369,1.8028 2.1511,3.0349 2.5469,3.9121 0.19788,0.43859 0.26442,0.76997 0.23438,1.0547 -0.03,0.28472 -0.15215,0.55866 -0.45313,0.90429 -0.25451,0.29227 -0.45504,0.40483 -0.68164,0.44141 -0.22659,0.0366 -0.52983,-0.0111 -0.96289,-0.20508 -0.86612,-0.38796 -2.1586,-1.3425 -4.043,-2.7734 a 0.50005,0.50005 0 0 0 -0.6289,0.01953 c -1.13,0.97349 -2.3151,1.8807 -3.5508,2.7168 a 0.50005,0.50005 0 0 0 -0.19141,0.58399 c 0.76665,2.1163 1.3641,3.5709 1.5391,4.5391 0.0875,0.48406 0.0721,0.82828 -0.0273,1.0996 -0.0995,0.27132 -0.28665,0.508 -0.66992,0.77148 -0.32579,0.22396 -0.5502,0.28468 -0.78125,0.26172 -0.23106,-0.0229 -0.51939,-0.15107 -0.89844,-0.45898 -0.7581,-0.61583 -1.7964,-1.9089 -3.3203,-3.8359 a 0.50005,0.50005 0 0 0 -0.60547,-0.14063 c -1.3008,0.61529 -2.6363,1.1569 -3.998,1.623 a 0.50005,0.50005 0 0 0 -0.33594,0.50586 c 0.15285,2.2682 0.32772,3.8437 0.23047,4.8301 -0.0486,0.49319 -0.15768,0.8223 -0.32812,1.0566 -0.17045,0.23435 -0.41605,0.41039 -0.85938,0.5586 -0.37165,0.12422 -0.60352,0.11988 -0.81836,0.0352 -0.21484,-0.0848 -0.4551,-0.28316 -0.73242,-0.67773 -0.55464,-0.78915 -1.1899,-2.2958 -2.1074,-4.5312 a 0.50005,0.50005 0 0 0 -0.55664,-0.30079 c -1.4518,0.27613 -2.9186,0.46827 -4.3926,0.57618 a 0.50005,0.50005 0 0 0 -0.45703,0.41992 c -0.351,2.2304 -0.5299,3.7974 -0.84375,4.7324 -0.15693,0.4675 -0.33659,0.76113 -0.55469,0.95117 -0.2181,0.19004 -0.49544,0.30757 -0.95898,0.35352 -0.39967,0.0396 -0.62802,-0.0168 -0.82032,-0.15039 -0.19229,-0.1336 -0.38393,-0.38987 -0.56836,-0.85352 -0.36884,-0.92729 -0.65708,-2.6007 -1.0742,-5.0957 a 0.50005,0.50005 0 0 0 -0.45508,-0.41602 c -1.4625,-0.11113 -2.9172,-0.30528 -4.3574,-0.58203 a 0.50005,0.50005 0 0 0 -0.55664,0.30078 c -0.90476,2.2039 -1.5367,3.692 -2.0879,4.4707 -0.2756,0.38934 -0.51249,0.58414 -0.72656,0.66797 -0.21407,0.0838 -0.44556,0.0881 -0.81445,-0.0352 -0.44314,-0.14813 -0.68895,-0.32433 -0.85938,-0.55859 -0.17042,-0.23427 -0.27946,-0.56178 -0.32812,-1.0547 -0.0973,-0.98583 0.0776,-2.5617 0.23047,-4.8281 a 0.50005,0.50005 0 0 0 -0.33203,-0.5039 c -1.5463,-0.54789 -3.054,-1.1935 -4.5176,-1.9336 a 0.50005,0.50005 0 0 0 -0.48242,0.875 l 0.25586,0.15235 c -1.299,1.6367 -2.3394,2.949 -3.0254,3.5137 -0.3855,0.3173 -0.67706,0.44836 -0.91016,0.47266 -0.2331,0.0243 -0.46003,-0.0361 -0.79102,-0.26368 -0.39139,-0.26906 -0.5795,-0.50971 -0.67773,-0.78516 -0.0982,-0.27544 -0.10909,-0.62662 -0.0137,-1.125 0.19089,-0.99674 0.81621,-2.499 1.6094,-4.707 a 0.50005,0.50005 0 0 0 -0.1875,-0.58203 c -1.1964,-0.81892 -2.3472,-1.706 -3.4434,-2.6543 a 0.50005,0.50005 0 0 0 -0.6289,-0.01953 c -1.9682,1.495 -3.3038,2.4936 -4.1953,2.9043 -0.44575,0.20536 -0.75632,0.2578 -0.98632,0.22266 -0.23001,-0.0351 -0.43295,-0.14823 -0.69336,-0.44727 -0.3098,-0.35575 -0.43191,-0.63395 -0.45899,-0.92382 -0.0271,-0.28988 0.0466,-0.63115 0.25977,-1.0859 0.42628,-0.90958 1.3963,-2.1961 2.6992,-4.1094 a 0.50005,0.50005 0 0 0 -0.0352,-0.60742 c -0.89549,-1.0368 -1.7343,-2.1219 -2.5137,-3.248 a 0.50005,0.50005 0 0 0 -0.57813,-0.18555 c -2.3546,0.83182 -3.9446,1.3819 -4.9258,1.5039 -0.49056,0.061 -0.80461,0.0158 -1.0137,-0.08789 -0.20909,-0.10369 -0.36772,-0.27429 -0.52539,-0.64062 -0.18108,-0.42076 -0.21252,-0.71978 -0.1543,-1 0.0582,-0.28022 0.22095,-0.57451 0.54297,-0.93164 0.64405,-0.71426 1.8908,-1.6092 3.6172,-2.9473 a 0.50005,0.50005 0 0 0 0.14258,-0.61328 c -0.65374,-1.3465 -1.227,-2.7293 -1.7188,-4.1426 a 0.50005,0.50005 0 0 0 -0.51953,-0.33398 c -2.4642,0.22863 -4.127,0.37057 -5.1016,0.24805 -0.48729,-0.06126 -0.77842,-0.18062 -0.95508,-0.33203 -0.17664,-0.15141 -0.28859,-0.35623 -0.35156,-0.74805 -0.0731,-0.45505 -0.0324,-0.75341 0.0937,-1.0117 0.12616,-0.25831 0.36149,-0.50448 0.76563,-0.77344 0.80828,-0.53791 2.2502,-1.1048 4.2754,-1.9922 a 0.50005,0.50005 0 0 0 0.28906,-0.55469 c -0.29371,-1.4795 -0.49996,-2.9749 -0.61719,-4.4785 a 0.50005,0.50005 0 0 0 -0.43359,-0.45703 c -2.3513,-0.30802 -3.9437,-0.53629 -4.834,-0.86914 -0.44515,-0.16642 -0.69652,-0.34603 -0.83203,-0.53125 -0.1355,-0.18522 -0.19836,-0.40767 -0.17382,-0.79492 0.0294,-0.4636 0.13677,-0.74608 0.31835,-0.9707 0.18161,-0.22462 0.46835,-0.41448 0.92774,-0.58789 0.91878,-0.34681 2.4714,-0.58099 4.6758,-1.0078 a 0.50005,0.50005 0 0 0 0.40234,-0.45312 c 0.10439,-1.4132 0.28848,-2.8199 0.54883,-4.2129 a 0.50005,0.50005 0 0 0 -0.29101,-0.54883 c -2.2369,-0.98786 -3.7411,-1.6695 -4.5234,-2.248 -0.39116,-0.28926 -0.58627,-0.53418 -0.66602,-0.75195 -0.0797,-0.21778 -0.0763,-0.44968 0.0586,-0.82031 0.15888,-0.43657 0.34059,-0.67756 0.57812,-0.8418 0.23754,-0.16424 0.56495,-0.26597 1.0547,-0.30274 0.97948,-0.07353 2.5356,0.13972 4.7715,0.35156 a 0.50005,0.50005 0 0 0 0.51954,-0.33203 c 0.47688,-1.3563 1.028,-2.686 1.6543,-3.9805 a 0.50005,0.50005 0 0 0 -0.13476,-0.60547 c -1.9465,-1.5675 -3.2516,-2.6313 -3.8711,-3.4023 -0.30972,-0.3855 -0.43544,-0.67767 -0.45703,-0.91016 -0.0216,-0.23248 0.0406,-0.4564 0.26953,-0.7832 0.2679,-0.38238 0.50649,-0.56728 0.7793,-0.66406 0.27281,-0.09678 0.61786,-0.10885 1.1035,-0.01563 0.97131,0.18645 2.4292,0.80153 4.5547,1.5918 a 0.50005,0.50005 0 0 0 0.58594,-0.18555 c 0.79823,-1.1627 1.6605,-2.2814 2.582,-3.3496 a 0.50005,0.50005 0 0 0 0.0312,-0.61328 c -1.3177,-1.8795 -2.2948,-3.1455 -2.7285,-4.0449 -0.21685,-0.44972 -0.29519,-0.78858 -0.27149,-1.0781 0.0237,-0.28952 0.14152,-0.56758 0.44531,-0.92578 0.25862,-0.30493 0.46074,-0.4231 0.69141,-0.46094 0.23067,-0.03784 0.54534,0.01172 0.99805,0.21484 0.90541,0.40625 2.2693,1.4029 4.2871,2.8945 a 0.50005,0.50005 0 0 0 0.625,-0.02344 c 1.0937,-0.94678 2.2399,-1.8325 3.4336,-2.6504 a 0.50005,0.50005 0 0 0 0.18359,-0.5918 c -0.81874,-2.1132 -1.4531,-3.5625 -1.6523,-4.5312 -0.0996,-0.48437 -0.0932,-0.82924 0,-1.1035 0.0932,-0.27427 0.27576,-0.51609 0.6543,-0.78906 0.32441,-0.23394 0.54821,-0.29994 0.78125,-0.28125 0.23304,0.01869 0.52722,0.14316 0.91797,0.44922 0.7815,0.61212 1.8656,1.906 3.4668,3.8398 a 0.50005,0.50005 0 0 0 0.60157,0.13281 c 1.285,-0.6156 2.6018,-1.1592 3.9473,-1.6289 a 0.50005,0.50005 0 0 0 0.33399,-0.50781 c -0.16081,-2.3318 -0.35047,-3.9435 -0.26172,-4.9512 0.0444,-0.50383 0.15076,-0.83658 0.32031,-1.0742 0.16955,-0.23762 0.4161,-0.41654 0.86523,-0.56836 0.3764,-0.12724 0.60953,-0.12476 0.82618,-0.03906 0.21665,0.0857 0.46026,0.28843 0.74218,0.69141 0.56384,0.80595 1.2129,2.3458 2.1621,4.6367 a 0.50005,0.50005 0 0 0 0.5586,0.29883 c 1.4076,-0.27503 2.8301,-0.47118 4.2598,-0.58789 a 0.50005,0.50005 0 0 0 0.45117,-0.41211 c 0.38575,-2.2366 0.58704,-3.8095 0.91407,-4.7441 0.16351,-0.4673 0.34756,-0.75987 0.56836,-0.94727 0.22079,-0.1874 0.50145,-0.30047 0.96679,-0.33984 z m -1.6074,10.951 c -2.6203,0.04389 -4.9497,0.32881 -6.2559,1.332 -1.4625,0.92006 -2.5401,2.238 -2.9961,3.7773 -0.45873,1.5488 -0.27724,3.3083 0.70117,5.0137 7.8e-4,0.0014 9.5e-4,0.0025 0.002,0.0039 2.5459,4.6915 5.319,9.4122 8.1836,14.008 a 0.50005,0.50005 0 0 0 0.0352,0.05078 c 0.84265,1.0365 1.7123,1.3392 2.5703,1.4766 0.858,0.13737 1.7256,0.1744 3.0313,0.7793 a 0.50005,0.50005 0 0 0 0.0469,0.01953 c 0.71929,0.24929 1.3611,0.85707 2.0195,1.5723 0.63557,0.69032 1.2917,1.456 2.1172,2.002 0.23744,0.25009 0.53728,0.403 0.92578,0.54102 0.39991,0.14207 0.87574,0.24454 1.3809,0.25 5.2097,0.05634 11.832,0.31806 16.771,-0.14453 1.7832,-0.16352 3.0169,-1.4283 3.9531,-2.6621 a 0.50005,0.50005 0 0 0 0.01,-0.01563 c 1.1626,-1.6512 1.2899,-3.6998 0.92774,-5.4395 a 0.50005,0.50005 0 0 0 -0.002,-0.0059 c -0.36108,-1.6362 -1.1486,-3.3863 -2.2305,-5.1777 -5.7486,-9.5189 -12.574,-13.681 -19.881,-15.918 l -0.006,-0.002 c -0.94544,-0.40995 -2.6348,-0.76613 -4.6836,-1.043 -2.0514,-0.27719 -4.4303,-0.45467 -6.6211,-0.41797 z m 0.008,0.5 c 4.3154,-0.07229 9.439,0.69843 11.104,1.4219 7.2456,2.2087 13.946,6.2688 19.652,15.717 1.0626,1.7596 1.8261,3.4681 2.1699,5.0273 0.3413,1.6395 0.21329,3.5468 -0.8457,5.0508 -0.90751,1.196 -2.0313,2.323 -3.5996,2.4668 -4.8807,0.45727 -11.498,0.19906 -16.721,0.14258 -0.87881,-0.0095 -1.718,-0.36516 -1.9707,-0.64258 -1.5473,-0.97515 -2.5889,-3.0973 -4.3145,-3.6953 -2.7548,-1.2763 -3.87,-0.20604 -5.4238,-2.1172 -2.8622,-4.5917 -5.6318,-9.3091 -8.1738,-13.994 -1.8418,-3.2061 -0.6275,-6.4151 2.1484,-8.1445 1.0861,-0.84251 3.3853,-1.1891 5.9746,-1.2324 z m -19.25,9.3867 c -1.7226,0.05406 -3.2765,0.86556 -4.4473,1.8887 a 0.50005,0.50005 0 0 0 -0.006,0.0039 c -1.2484,1.1172 -2.3879,2.6624 -3.418,4.4844 -5.4751,9.6848 -5.7484,17.677 -4.1094,25.145 0.0862,0.8196 0.43337,2.0242 0.95899,3.4668 0.52742,1.4475 1.2349,3.1105 2.041,4.7305 0.80611,1.62 1.7087,3.1962 2.6387,4.4746 0.92563,1.2724 1.8569,2.2598 2.8652,2.6895 1.5192,0.82248 3.197,1.112 4.7617,0.75391 1.5758,-0.36066 3.0195,-1.3824 4.0254,-3.0742 2.8386,-4.521 5.5948,-9.254 8.1934,-14.006 a 0.50005,0.50005 0 0 0 0.0254,-0.05664 c 0.48954,-1.2429 0.32518,-2.1482 0.0234,-2.9629 -0.3017,-0.81467 -0.69487,-1.589 -0.8086,-3.0234 a 0.50005,0.50005 0 0 0 -0.006,-0.05078 c -0.13577,-0.74896 0.0786,-1.6066 0.37891,-2.5312 0.29004,-0.8931 0.63677,-1.8381 0.70703,-2.8262 0.10159,-0.33015 0.0883,-0.66581 0.0176,-1.0723 -0.0727,-0.4183 -0.21981,-0.88346 -0.46289,-1.3262 -2.5075,-4.5667 -5.5283,-10.464 -8.3555,-14.541 l -0.002,-0.002 c -1.0178,-1.4716 -2.7242,-1.9266 -4.2578,-2.1367 a 0.50005,0.50005 0 0 0 -0.0176,-0.002 c -0.2508,-0.0253 -0.49973,-0.03317 -0.7461,-0.02539 z m 0.0156,0.5 c 0.22474,-0.0071 0.45093,3.6e-4 0.67969,0.02344 1.4874,0.20378 3.021,0.62988 3.916,1.9258 2.7937,4.0282 5.8165,9.9202 8.3301,14.498 0.42299,0.77037 0.52593,1.6769 0.4082,2.0332 -0.0903,1.8267 -1.4293,3.7753 -1.1035,5.5723 0.23995,3.0266 1.721,3.472 0.81836,5.7637 -2.5961,4.7473 -5.349,9.4761 -8.1836,13.99 -1.8896,3.1782 -5.2812,3.6949 -8.1504,2.125 -3.379,-1.421 -7.9183,-12.084 -8.2168,-14.973 -1.6314,-7.397 -1.381,-15.228 4.0508,-24.836 1.0116,-1.7894 2.1266,-3.2927 3.3164,-4.3574 1.1034,-0.96424 2.5616,-1.7163 4.1348,-1.7656 z m 38.615,26.414 c -2.7148,-0.01406 -5.4375,0.01339 -8.1465,0.07617 a 0.50005,0.50005 0 0 0 -0.0625,0.0059 c -1.3211,0.19748 -2.023,0.7925 -2.5781,1.4609 -0.55512,0.66844 -1.0294,1.3952 -2.2148,2.2109 a 0.50005,0.50005 0 0 0 -0.0391,0.03125 c -0.58084,0.49215 -1.4321,0.73486 -2.3828,0.9375 -0.91937,0.19596 -1.9132,0.36848 -2.8047,0.80273 -0.33444,0.07762 -0.61825,0.25646 -0.9336,0.51953 -0.32592,0.2719 -0.65606,0.63055 -0.91797,1.0625 -2.701,4.4548 -6.2988,10.021 -8.416,14.508 -0.7674,1.6183 -0.30585,3.3258 0.2793,4.7598 a 0.50005,0.50005 0 0 0 0.008,0.01563 c 0.82916,1.8415 2.5278,2.9905 4.209,3.5645 a 0.50005,0.50005 0 0 0 0.006,0.002 c 1.5917,0.5226 3.4989,0.73769 5.5918,0.71875 11.119,-0.10075 18.178,-3.8568 23.824,-9.0059 0.66756,-0.48322 1.5414,-1.3918 2.5312,-2.5723 0.9898,-1.1805 2.0764,-2.6228 3.0762,-4.1309 0.99981,-1.508 1.9126,-3.0789 2.5547,-4.5234 0.63822,-1.4359 1.027,-2.7331 0.89648,-3.8203 -0.0462,-1.7291 -0.63274,-3.3285 -1.7266,-4.5059 -1.1004,-1.1844 -2.7096,-1.924 -4.6777,-1.9492 -2.6652,-0.09881 -5.3654,-0.15393 -8.0762,-0.16797 z m -0.002,0.5 c 2.7097,0.01403 5.409,0.0691 8.0723,0.16797 3.6972,0.04731 5.841,2.7264 5.916,5.9961 0.45885,3.6368 -6.5051,12.899 -8.8574,14.602 -5.5902,5.1113 -12.498,8.8102 -23.535,8.9102 -2.0555,0.0186 -3.9146,-0.19529 -5.4316,-0.69336 -1.5849,-0.54107 -3.1608,-1.6196 -3.916,-3.2969 -0.56722,-1.39 -0.96582,-2.9325 -0.29102,-4.3555 2.0916,-4.4335 5.6849,-9.9971 8.3926,-14.463 0.45566,-0.75151 1.1892,-1.293 1.5566,-1.3691 1.6271,-0.83516 3.9836,-0.65144 5.377,-1.832 2.5011,-1.7211 2.148,-3.2257 4.584,-3.5898 2.7046,-0.06268 5.4231,-0.0902 8.1328,-0.07617 z"
       id="path1003" />
    <path
       style="fill:url(#e)"
       inkscape:connector-curvature="0"
       d="m 218.59,65.777 a 3.8228,3.8228 0 0 0 -3.8223,3.8223 3.8228,3.8228 0 0 0 3.8223,3.8242 3.8228,3.8228 0 0 0 3.8242,-3.8242 3.8228,3.8228 0 0 0 -3.8242,-3.8223 z m -0.0215,0.79492 a 3.0052,3.0052 0 0 1 3.0059,3.0059 3.0052,3.0052 0 0 1 -3.0059,3.0059 3.0052,3.0052 0 0 1 -3.0059,-3.0059 3.0052,3.0052 0 0 1 3.0059,-3.0059 z"
       id="path1005" />
    <circle
       style="fill:url(#d)"
       cx="218.59"
       cy="69.600998"
       r="3.0051999"
       id="circle1007" />
    <path
       style="fill:#ffffff;fill-opacity:0.38372"
       inkscape:connector-curvature="0"
       d="m 218.59,65.592 c -2.2121,3.08e-4 -4.0075,1.7957 -4.0078,4.0078 -8.3e-4,2.2129 1.7949,4.0095 4.0078,4.0098 2.2137,8.24e-4 4.0106,-1.7961 4.0098,-4.0098 -3e-4,-2.2129 -1.7968,-4.0086 -4.0098,-4.0078 z m 0,0.19531 c 2.1076,-7.85e-4 3.8161,1.7049 3.8164,3.8125 7.8e-4,2.1083 -1.7081,3.8152 -3.8164,3.8145 -2.1076,-2.93e-4 -3.8133,-1.7069 -3.8125,-3.8145 2.9e-4,-2.1068 1.7057,-3.8122 3.8125,-3.8125 z"
       id="path1009" />
  </g>
</svg>
