<?xml version="1.0" encoding="UTF-8" standalone="no"?>
<svg
   xmlns:dc="http://purl.org/dc/elements/1.1/"
   xmlns:cc="http://creativecommons.org/ns#"
   xmlns:rdf="http://www.w3.org/1999/02/22-rdf-syntax-ns#"
   xmlns:svg="http://www.w3.org/2000/svg"
   xmlns="http://www.w3.org/2000/svg"
   xmlns:xlink="http://www.w3.org/1999/xlink"
   xmlns:sodipodi="http://sodipodi.sourceforge.net/DTD/sodipodi-0.dtd"
   xmlns:inkscape="http://www.inkscape.org/namespaces/inkscape"
   width="128"
   height="128"
   viewBox="0 0 33.866666 33.866668"
   version="1.1"
   id="svg1015"
   inkscape:version="1.0.2 (e86c870879, 2021-01-15)"
   sodipodi:docname="pinegrow.svg">
  <defs
     id="defs1009">
    <linearGradient
       inkscape:collect="always"
       id="linearGradient873">
      <stop
         style="stop-color:#0b0b0b;stop-opacity:1;"
         offset="0"
         id="stop869" />
      <stop
         style="stop-color:#0b0b0b;stop-opacity:0.85882353;"
         offset="0.68076366"
         id="stop878" />
      <stop
         style="stop-color:#0b0b0b;stop-opacity:0.83137255;"
         offset="0.69925421"
         id="stop888" />
      <stop
         style="stop-color:#0b0b0b;stop-opacity:0.80392157;"
         offset="0.71879315"
         id="stop890" />
      <stop
         style="stop-color:#0b0b0b;stop-opacity:0.78039216;"
         offset="0.73593426"
         id="stop892" />
      <stop
         style="stop-color:#0b0b0b;stop-opacity:0.75686275;"
         offset="0.75022364"
         id="stop894" />
      <stop
         style="stop-color:#0b0b0b;stop-opacity:0.73333333;"
         offset="0.76798755"
         id="stop896" />
      <stop
         style="stop-color:#0b0b0b;stop-opacity:0.08235294;"
         offset="0.9150058"
         id="stop919" />
      <stop
         style="stop-color:#0b0b0b;stop-opacity:0.07058824;"
         offset="0.92246956"
         id="stop917" />
      <stop
         style="stop-color:#0b0b0b;stop-opacity:0.05882353;"
         offset="0.92918676"
         id="stop915" />
      <stop
         style="stop-color:#0b0b0b;stop-opacity:0.04705882;"
         offset="0.93840873"
         id="stop912" />
      <stop
         style="stop-color:#0b0b0b;stop-opacity:0.03137255;"
         offset="0.94760686"
         id="stop910" />
      <stop
         style="stop-color:#0b0b0b;stop-opacity:0.02352941;"
         offset="0.95380515"
         id="stop908" />
      <stop
         style="stop-color:#0b0b0b;stop-opacity:0.01568627;"
         offset="0.95886087"
         id="stop906" />
      <stop
         style="stop-color:#0b0b0b;stop-opacity:0.01176471;"
         offset="0.96356124"
         id="stop904" />
      <stop
         style="stop-color:#0b0b0b;stop-opacity:0.00784314;"
         offset="0.96845078"
         id="stop902" />
      <stop
         style="stop-color:#0b0b0b;stop-opacity:0.00392157;"
         offset="0.97347641"
         id="stop900" />
      <stop
         style="stop-color:#0b0b0b;stop-opacity:0;"
         offset="0.97812337"
         id="stop886" />
      <stop
         style="stop-color:#0b0b0b;stop-opacity:0;"
         offset="0.98456311"
         id="stop884" />
      <stop
         style="stop-color:#0b0b0b;stop-opacity:0;"
         offset="0.98700982"
         id="stop882" />
      <stop
         style="stop-color:#0b0b0b;stop-opacity:0;"
         offset="0.98924524"
         id="stop880" />
      <stop
         style="stop-color:#0b0b0b;stop-opacity:0;"
         offset="1"
         id="stop871" />
    </linearGradient>
    <linearGradient
       inkscape:collect="always"
       xlink:href="#linearGradient895"
       id="linearGradient897"
       x1="2685.9844"
       y1="1088.7905"
       x2="2685.9844"
       y2="1770.3615"
       gradientUnits="userSpaceOnUse"
       gradientTransform="matrix(0.04277854,0,0,0.04277854,-95.919086,-44.867312)" />
    <linearGradient
       inkscape:collect="always"
       id="linearGradient895">
      <stop
         style="stop-color:#27efe6;stop-opacity:1"
         offset="0"
         id="stop891" />
      <stop
         style="stop-color:#057ee3;stop-opacity:1"
         offset="1"
         id="stop893" />
    </linearGradient>
    <linearGradient
       inkscape:collect="always"
       id="linearGradient879">
      <stop
         style="stop-color:#0bdfd4;stop-opacity:1"
         offset="0"
         id="stop875" />
      <stop
         style="stop-color:#0a95ef;stop-opacity:1"
         offset="1"
         id="stop877" />
    </linearGradient>
    <radialGradient
       inkscape:collect="always"
       xlink:href="#linearGradient873"
       id="radialGradient898"
       gradientUnits="userSpaceOnUse"
       cx="60.636452"
       cy="20.456388"
       fx="60.636452"
       fy="20.456388"
       r="17.303919"
       gradientTransform="translate(-43.433354,-3.9448764)" />
    <radialGradient
       inkscape:collect="always"
       xlink:href="#linearGradient879"
       id="radialGradient993"
       cx="16.786602"
       cy="3.5456841"
       fx="16.786602"
       fy="3.5456841"
       r="13.695572"
       gradientUnits="userSpaceOnUse"
       gradientTransform="matrix(4.8885673,0,0,1.5420669,-65.723642,-0.93384819)" />
    <linearGradient
       inkscape:collect="always"
       xlink:href="#linearGradient1187"
       id="linearGradient1189"
       x1="6.8240833"
       y1="12.498845"
       x2="6.8240833"
       y2="98.78994"
       gradientUnits="userSpaceOnUse"
       gradientTransform="matrix(3.7795276,0,0,3.7795276,4.4294769,2.8938581)" />
    <linearGradient
       inkscape:collect="always"
       id="linearGradient1187">
      <stop
         style="stop-color:#ffffff;stop-opacity:1;"
         offset="0"
         id="stop1183" />
      <stop
         style="stop-color:#45a5ac;stop-opacity:1"
         offset="1"
         id="stop1185" />
    </linearGradient>
  </defs>
  <sodipodi:namedview
     id="base"
     pagecolor="#ffffff"
     bordercolor="#666666"
     borderopacity="1.0"
     inkscape:pageopacity="0.0"
     inkscape:pageshadow="2"
     inkscape:zoom="2.8"
     inkscape:cx="147.12558"
     inkscape:cy="74.824066"
     inkscape:document-units="mm"
     inkscape:current-layer="layer1"
     inkscape:document-rotation="0"
     showgrid="false"
     units="px"
     inkscape:window-width="1920"
     inkscape:window-height="1028"
     inkscape:window-x="0"
     inkscape:window-y="24"
     inkscape:window-maximized="1" />
  <metadata
     id="metadata1012">
    <rdf:RDF>
      <cc:Work
         rdf:about="">
        <dc:format>image/svg+xml</dc:format>
        <dc:type
           rdf:resource="http://purl.org/dc/dcmitype/StillImage" />
        <dc:title></dc:title>
      </cc:Work>
    </rdf:RDF>
  </metadata>
  <g
     inkscape:label="Capa 1"
     inkscape:groupmode="layer"
     id="layer1">
    <circle
       style="opacity:0.309726;fill:url(#radialGradient898);fill-opacity:1;stroke-width:3;stroke-linecap:square;stroke-linejoin:round"
       id="path867"
       cx="17.203098"
       cy="16.511513"
       r="17.303919" />
    <circle
       style="fill:url(#linearGradient897);fill-opacity:1;stroke:#b1aaaa;stroke-width:0.0575565;stroke-linecap:square;stroke-opacity:0.992157"
       id="circle839"
       cx="17.203098"
       cy="16.511513"
       r="15.118138" />
    <circle
       style="fill:url(#radialGradient993);fill-opacity:1;stroke:none;stroke-width:0.0498826;stroke-linecap:square;stroke-opacity:1"
       id="circle839-3"
       cx="17.203098"
       cy="16.511513"
       r="13.102469" />
    <g
       id="g940"
       transform="matrix(0.26458333,0,0,0.26458333,-0.94837204,-1.9342959)">
      <path
         d="m 104.66572,80.375353 -4.43005,5.336142 c -0.694329,0.849327 -2.342743,1.185558 -3.320885,0.68335 L 83.622489,79.560963 c -0.03288,-0.02116 -0.06108,-0.03742 -0.08954,-0.05012 0.02797,-0.02116 0.05692,-0.03477 0.08954,-0.04785 l 11.283598,-6.056636 c 1.174647,-0.626585 3.543598,-0.626585 4.722614,-0.0068 l 1.231409,0.654965 c 1.54365,0.818771 3.58289,2.454101 4.3711,3.504299 0.33403,0.447598 0.28165,1.79472 -0.56552,2.816534 M 86.037256,102.84651 c -0.687727,0.8384 -2.277238,1.13752 -3.229191,0.62005 l -0.576404,-0.31653 -2.165889,-1.20303 c -0.161575,-0.0808 -0.264227,-0.16592 -0.327534,-0.2205 0.0635,-0.0677 0.163767,-0.14631 0.310035,-0.24238 l 14.608861,-9.012906 z m -25.632643,2.16807 c -1.460682,0 -3.652762,-1.03492 -4.591612,-2.16807 l -3.984635,-4.801222 c -0.253266,-0.31876 -0.364573,-0.65497 -0.303496,-0.95849 0.05692,-0.3035 0.285997,-0.57641 0.64408,-0.761993 l 2.650606,-1.42574 c 0.576404,-0.303496 1.412628,-0.486845 2.30999,-0.486845 0.903912,0 1.79472,0.19646 2.37549,0.515278 L 77.819062,105.01462 Z M 40.966148,84.934212 53.040135,91.414424 c 0.06108,0.03477 0.111345,0.0635 0.152844,0.08511 -0.04112,0.02797 -0.09165,0.05855 -0.152844,0.08512 l -2.646232,1.421367 c -0.325266,0.170343 -0.722718,0.264151 -1.154994,0.264151 -0.827504,0 -1.659363,-0.349304 -2.115685,-0.897362 z M 37.108158,76.912569 45.0796,66.283971 c 0.635331,-0.851505 2.172446,-1.211762 3.124392,-0.713968 l 6.652698,3.421319 c 0.03942,0.01965 0.07181,0.03477 0.09827,0.05182 -0.02646,0.01965 -0.05854,0.04112 -0.09827,0.05461 l -15.325008,8.266224 c -0.884256,0.475975 -2.004317,0.779494 -2.862384,0.779494 -0.06768,0 -0.122302,0 -0.179062,-0.01058 0.06768,-0.281651 0.242354,-0.724857 0.617915,-1.220497 m 12.388382,-16.52598 6.087213,-8.106819 c 0.425696,-0.563281 1.218308,-0.930111 2.023971,-0.930111 0.386457,0 0.753245,0.08084 1.058933,0.244498 l 5.486782,2.923521 h 0.0022 l 8.820779,4.696396 c 0.01058,0 0.01739,0.0068 0.02646,0.01323 0.04785,0.01965 0.08954,0.05182 0.120075,0.07181 -0.03477,0.02116 -0.08084,0.05295 -0.133152,0.07672 l -11.626406,6.231305 c -0.602562,0.316573 -1.515254,0.508754 -2.445369,0.508754 -0.910458,0 -1.759786,-0.170343 -2.34056,-0.465059 l -6.652694,-3.427877 c -0.373304,-0.185612 -0.617919,-0.475978 -0.696472,-0.807878 -0.07427,-0.329688 0.02117,-0.689956 0.268535,-1.028356 M 60.051189,46.476351 c 4.098172,-5.176744 9.161382,-11.087101 10.986675,-12.587072 1.100417,0.775117 3.440976,3.165874 5.449671,5.617784 0.259729,0.314381 0.366803,0.655054 0.301304,0.96287 -0.05692,0.303496 -0.290382,0.56552 -0.644074,0.766375 l -12.838174,6.823 c -1.163728,0.344957 -2.705186,0.307918 -3.386396,-0.05012 -0.154961,-0.08735 -0.238035,-0.189959 -0.270728,-0.353688 -0.05692,-0.251112 0.02381,-0.698702 0.401718,-1.179009 m 25.298601,4.585051 c 0.253266,0.338419 0.349266,0.711746 0.27515,1.052379 -0.07672,0.349267 -0.318766,0.646303 -0.692096,0.849328 l -5.458398,2.923518 c -1.168108,0.633188 -3.532683,0.633188 -4.711695,0.01323 l -0.0042,-0.0068 -8.840429,-4.702949 c -0.05182,-0.02117 -0.09827,-0.04785 -0.139691,-0.07672 0.04112,-0.02117 0.09165,-0.05182 0.139691,-0.08084 l 12.00412,-6.467115 c 0.927927,-0.50216 2.432266,-0.16373 3.065431,0.678984 z m 13.084872,17.438505 -3.521756,-1.877688 c -0.01058,0 -0.01058,0 -0.01323,-0.0091 L 81.264585,59.362355 c -0.0022,-0.0042 -0.0091,-0.0042 -0.01965,-0.0042 -0.04785,-0.03061 -0.09165,-0.05012 -0.124422,-0.07839 0.03288,-0.02117 0.08084,-0.05182 0.135307,-0.08084 l 5.451847,-2.925698 c 0.930116,-0.493489 2.43882,-0.155074 3.071989,0.676834 z M 79.40231,76.659261 c -0.901727,0 -1.753236,-0.170343 -2.33619,-0.475978 L 63.138462,69.021868 c -0.03288,-0.01739 -0.0635,-0.03061 -0.09392,-0.05295 0.03061,-0.0091 0.06104,-0.03061 0.09392,-0.05012 l 11.624206,-6.229124 c 1.174658,-0.624435 3.541413,-0.633181 4.722606,-0.01323 h 0.0091 l 13.66783,7.281498 c 0.04392,0.01323 0.07427,0.03288 0.109153,0.05461 -0.04392,0.02797 -0.09165,0.05182 -0.139691,0.08084 l -11.285791,6.052271 c -0.600419,0.320919 -1.515254,0.513142 -2.443184,0.513142 m 13.678727,11.988846 c 0.109191,0.0652 0.203112,0.122305 0.266419,0.168075 -0.06104,0.05461 -0.141921,0.122306 -0.257612,0.192114 l -15.012779,9.274908 c -1.08731,0.67469 -3.351459,0.72709 -4.473702,0.10481 L 61.31797,91.627873 c -0.07015,-0.03742 -0.131037,-0.07015 -0.176807,-0.106923 0.05012,-0.03061 0.106923,-0.0635 0.176807,-0.107036 l 15.805345,-8.469249 c 1.181201,-0.633181 3.589444,-0.648446 4.779379,-0.04112 l 4.938762,2.539253 z M 41.302959,80.840012 c -0.05181,-0.01739 -0.10693,-0.04785 -0.144095,-0.07672 0.04618,-0.02797 0.09607,-0.05862 0.152822,-0.09396 l 15.329379,-8.25747 c 1.174651,-0.635324 3.58944,-0.657196 4.772822,-0.04392 l 13.929842,7.163604 c 0.03477,0.01323 0.0635,0.02797 0.09396,0.05012 -0.03061,0.0068 -0.05854,0.02646 -0.09396,0.05012 l -15.798792,8.467062 c -1.179016,0.637554 -3.547968,0.637554 -4.724795,0 z M 108.2426,75.29865 c -0.63533,-0.842774 -1.71831,-1.851488 -2.89513,-2.770681 0,-1.080767 -0.72709,-2.052362 -1.04802,-2.486853 L 92.786592,54.696464 c -0.83622,-1.106963 -2.061097,-1.886422 -3.440968,-2.22266 0.15719,-1.275085 -0.179074,-2.59166 -0.986888,-3.672413 L 83.991942,42.98217 c -0.840586,-1.126617 -2.080732,-1.901703 -3.478092,-2.242311 0.120076,-1.26417 -0.251112,-2.56108 -1.122244,-3.62001 -5.892888,-7.185441 -7.83171,-7.185441 -8.46271,-7.185441 -0.908269,0 -2.58946,0 -13.825032,14.207128 -0.87335,1.109144 -1.275084,2.421351 -1.187754,3.672409 -1.33621,0.360264 -2.526149,1.122255 -3.342716,2.211749 l -6.080655,8.104634 c -0.807878,1.08294 -1.137536,2.384224 -0.984696,3.652758 -1.382075,0.351534 -2.602575,1.128798 -3.438801,2.246676 l -7.971447,10.626414 c -1.135348,1.513073 -1.609136,3.192072 -1.301285,4.587239 0.07016,0.312189 0.185594,0.589531 0.323158,0.849328 -0.07428,1.152816 0.768513,2.192103 1.174645,2.678986 l 9.936473,11.995378 c 0.882077,1.058929 2.1528,1.799091 3.558879,2.109131 -0.09827,1.25325 0.285997,2.52615 1.152809,3.565422 l 3.980273,4.8034 c 1.663714,2.01087 4.879801,3.51957 7.482372,3.51957 h 21.036677 c 1.930088,0 2.8209,-0.64193 3.231368,-1.34494 1.676817,-0.17246 3.231382,-0.93666 4.26192,-2.1659 l 9.521635,-11.473563 c 0.711742,-0.858063 1.779441,-2.375494 1.927911,-3.814322 1.07421,-0.384299 2.04799,-1.002161 2.75104,-1.851489 l 4.41912,-5.342687 c 1.85585,-2.233576 2.15279,-5.515166 0.68772,-7.473642"
         style="clip-rule:evenodd;fill:#003373;fill-opacity:0.114572;fill-rule:nonzero;stroke-width:2.18336;stroke-linejoin:round;stroke-miterlimit:1.41421"
         id="path1191" />
      <path
         d="m 102.18237,78.407142 -4.430049,5.336141 c -0.694329,0.849328 -2.342744,1.185558 -3.320886,0.68335 L 81.139139,77.592752 c -0.03288,-0.02117 -0.06108,-0.03742 -0.08954,-0.05012 0.02797,-0.02116 0.05692,-0.03477 0.08954,-0.04785 l 11.283598,-6.056636 c 1.174647,-0.626585 3.543598,-0.626585 4.722615,-0.0068 l 1.231411,0.654966 c 1.543642,0.81877 3.582887,2.4541 4.371097,3.504298 0.33403,0.447598 0.28165,1.79472 -0.56552,2.816535 M 83.553906,100.87829 c -0.687727,0.83841 -2.277237,1.13753 -3.229191,0.62006 l -0.576404,-0.31653 -2.165889,-1.203032 c -0.161575,-0.0808 -0.264227,-0.16593 -0.327534,-0.2205 0.0635,-0.0677 0.163767,-0.14631 0.310035,-0.24238 l 14.608861,-9.012906 z m -25.632643,2.16808 c -1.460682,0 -3.652762,-1.03492 -4.591612,-2.16808 l -3.984635,-4.80121 c -0.253266,-0.318766 -0.364573,-0.65497 -0.303496,-0.958496 0.05692,-0.303496 0.285997,-0.576405 0.64408,-0.761991 l 2.650606,-1.42574 c 0.576404,-0.303496 1.412629,-0.486844 2.30999,-0.486844 0.903912,0 1.79472,0.19646 2.37549,0.515278 L 75.335712,103.04641 Z M 38.482799,82.966 50.556785,89.446212 c 0.06108,0.03477 0.111345,0.0635 0.152844,0.08512 -0.04112,0.02797 -0.09165,0.05854 -0.152844,0.08512 l -2.646232,1.421367 c -0.325266,0.170343 -0.722718,0.264151 -1.154994,0.264151 -0.827504,0 -1.659363,-0.349304 -2.115685,-0.897362 z M 34.62481,74.944357 42.59625,64.315759 c 0.635331,-0.851505 2.172446,-1.211762 3.124392,-0.713968 l 6.652698,3.421319 c 0.03942,0.01965 0.07181,0.03477 0.09827,0.05182 -0.02646,0.01965 -0.05854,0.04112 -0.09827,0.05461 l -15.325007,8.266223 c -0.884256,0.475975 -2.004316,0.779494 -2.862383,0.779494 -0.06768,0 -0.122302,0 -0.179063,-0.01058 0.06768,-0.28165 0.242355,-0.724856 0.617915,-1.220496 M 47.013183,58.4182 53.100396,50.311382 c 0.425696,-0.563282 1.218308,-0.930112 2.023971,-0.930112 0.386457,0 0.753245,0.08084 1.058933,0.244498 l 5.486782,2.923521 h 0.0022 l 8.820779,4.696396 c 0.01058,0 0.01739,0.0068 0.02646,0.01323 0.04785,0.01965 0.08954,0.05182 0.120075,0.07181 -0.03477,0.02117 -0.08084,0.05295 -0.133152,0.07672 l -11.626406,6.231306 c -0.602562,0.316573 -1.515254,0.508755 -2.445369,0.508755 -0.910458,0 -1.759786,-0.170344 -2.34056,-0.46506 L 47.441415,60.25457 c -0.373304,-0.185613 -0.617919,-0.475979 -0.696472,-0.807878 -0.07427,-0.329688 0.02117,-0.689957 0.268535,-1.028357 M 57.567839,44.508139 c 4.098172,-5.176744 9.161382,-11.087101 10.986675,-12.587072 1.100417,0.775118 3.440976,3.165875 5.449671,5.617785 0.259729,0.314381 0.366803,0.655052 0.301304,0.962868 -0.05692,0.303496 -0.290382,0.56552 -0.644073,0.766375 l -12.838175,6.823001 c -1.163728,0.344958 -2.705186,0.307918 -3.386396,-0.05012 -0.154961,-0.08734 -0.238035,-0.189959 -0.270728,-0.353688 -0.05692,-0.251112 0.02381,-0.698702 0.401719,-1.179008 m 25.2986,4.585051 c 0.253266,0.338418 0.349266,0.711745 0.27515,1.052379 -0.07672,0.349266 -0.318766,0.646303 -0.692096,0.849328 l -5.458398,2.923517 c -1.168108,0.633188 -3.532682,0.633188 -4.711695,0.01323 l -0.0042,-0.0068 -8.840429,-4.702949 c -0.05182,-0.02117 -0.09827,-0.04785 -0.139691,-0.07672 0.04112,-0.02117 0.09165,-0.05182 0.139691,-0.08084 l 12.00412,-6.467116 c 0.927927,-0.50216 2.432266,-0.163729 3.065431,0.678984 z m 13.084872,17.438505 -3.521756,-1.877688 c -0.01058,0 -0.01058,0 -0.01323,-0.0091 L 78.781235,57.394144 c -0.0022,-0.0042 -0.0091,-0.0042 -0.01965,-0.0042 -0.04785,-0.03061 -0.09165,-0.05012 -0.124422,-0.07839 0.03288,-0.02117 0.08084,-0.05182 0.135307,-0.08084 l 5.451848,-2.925699 c 0.930115,-0.493489 2.438819,-0.155074 3.071988,0.676834 z M 76.91896,74.69105 c -0.901727,0 -1.753236,-0.170344 -2.33619,-0.475979 L 60.655112,67.053656 c -0.03288,-0.01739 -0.0635,-0.03061 -0.09392,-0.05295 0.03061,-0.0091 0.06104,-0.03061 0.09392,-0.05012 l 11.624206,-6.229124 c 1.174658,-0.624434 3.541413,-0.63318 4.722607,-0.01323 h 0.0091 l 13.66783,7.281498 c 0.04392,0.01323 0.07427,0.03288 0.109153,0.05461 -0.04392,0.02797 -0.09165,0.05182 -0.139691,0.08084 l -11.28579,6.052271 c -0.60042,0.32092 -1.515255,0.513143 -2.443185,0.513143 m 13.678726,11.988845 c 0.109191,0.0652 0.203112,0.122306 0.266419,0.168076 -0.06104,0.05461 -0.141921,0.122305 -0.257612,0.192113 L 75.594096,96.31454 c -1.08731,0.674688 -3.351458,0.727088 -4.473702,0.104808 L 58.83462,89.659661 c -0.07015,-0.03742 -0.131036,-0.07015 -0.176807,-0.106923 0.05012,-0.03061 0.106923,-0.0635 0.176807,-0.107036 l 15.805345,-8.469249 c 1.181201,-0.63318 3.589444,-0.648446 4.779379,-0.04112 l 4.938762,2.539253 z M 38.819611,78.871801 c -0.05181,-0.01739 -0.106931,-0.04785 -0.144095,-0.07672 0.04618,-0.02797 0.09606,-0.05862 0.152821,-0.09396 l 15.329378,-8.25747 c 1.174651,-0.635324 3.58944,-0.657196 4.772822,-0.04392 l 13.929842,7.163603 c 0.03477,0.01323 0.0635,0.02797 0.09396,0.05012 -0.03061,0.0068 -0.05854,0.02646 -0.09396,0.05012 l -15.798792,8.467072 c -1.179016,0.637553 -3.547968,0.637553 -4.724795,0 z m 66.939639,-5.541362 c -0.63533,-0.842774 -1.71831,-1.851489 -2.89513,-2.770681 0,-1.080768 -0.72709,-2.052363 -1.04802,-2.486854 L 90.303242,52.728253 C 89.467022,51.621289 88.242145,50.84183 86.862274,50.505592 87.019464,49.230508 86.6832,47.913932 85.875386,46.83318 L 81.508592,41.013958 C 80.668006,39.887341 79.42786,39.112254 78.0305,38.771647 c 0.120076,-1.264169 -0.251112,-2.56108 -1.122244,-3.62001 -5.892888,-7.185441 -7.83171,-7.185441 -8.46271,-7.185441 -0.908269,0 -2.58946,0 -13.825031,14.207129 -0.873351,1.109144 -1.275085,2.42135 -1.187755,3.672408 -1.33621,0.360264 -2.526149,1.122255 -3.342716,2.211749 l -6.080655,8.104634 c -0.807878,1.08294 -1.137536,2.384224 -0.984696,3.652758 -1.382075,0.351534 -2.602575,1.128798 -3.438799,2.246676 l -7.971448,10.626414 c -1.135348,1.513074 -1.609135,3.192072 -1.301284,4.587239 0.07016,0.312189 0.185594,0.589531 0.323157,0.849328 -0.07428,1.152817 0.768513,2.192104 1.174646,2.678986 l 9.936471,11.995378 c 0.882077,1.058929 2.1528,1.799093 3.558879,2.109131 -0.09827,1.25325 0.285997,2.526142 1.152809,3.565422 l 3.980273,4.803402 c 1.663714,2.01087 4.879801,3.51957 7.482372,3.51957 h 21.036677 c 1.930088,0 2.8209,-0.64193 3.231368,-1.34494 1.676817,-0.17246 3.231382,-0.93666 4.26192,-2.1659 l 9.521635,-11.473565 c 0.711742,-0.858062 1.779436,-2.375494 1.927911,-3.814322 1.074206,-0.384299 2.04799,-1.002161 2.75104,-1.851489 l 4.41912,-5.342687 c 1.85585,-2.233576 2.15279,-5.515166 0.68772,-7.473641"
         style="clip-rule:evenodd;fill:url(#linearGradient1189);fill-opacity:1;fill-rule:nonzero;stroke-width:2.18336;stroke-linejoin:round;stroke-miterlimit:1.41421"
         id="path22" />
    </g>
  </g>
</svg>
