<?xml version="1.0" encoding="UTF-8" standalone="no"?>
<svg
   width="128"
   height="128"
   viewBox="0 0 33.866666 33.866668"
   version="1.1"
   id="svg1015"
   inkscape:version="1.1.2 (0a00cf5339, 2022-02-04)"
   sodipodi:docname="polychromatic.svg"
   xmlns:inkscape="http://www.inkscape.org/namespaces/inkscape"
   xmlns:sodipodi="http://sodipodi.sourceforge.net/DTD/sodipodi-0.dtd"
   xmlns:xlink="http://www.w3.org/1999/xlink"
   xmlns="http://www.w3.org/2000/svg"
   xmlns:svg="http://www.w3.org/2000/svg"
   xmlns:rdf="http://www.w3.org/1999/02/22-rdf-syntax-ns#"
   xmlns:cc="http://creativecommons.org/ns#"
   xmlns:dc="http://purl.org/dc/elements/1.1/">
  <defs
     id="defs1009">
    <linearGradient
       inkscape:collect="always"
       id="linearGradient873">
      <stop
         style="stop-color:#0b0b0b;stop-opacity:1;"
         offset="0"
         id="stop869" />
      <stop
         style="stop-color:#0b0b0b;stop-opacity:0.85882353;"
         offset="0.68076366"
         id="stop878" />
      <stop
         style="stop-color:#0b0b0b;stop-opacity:0.83137255;"
         offset="0.69925421"
         id="stop888" />
      <stop
         style="stop-color:#0b0b0b;stop-opacity:0.80392157;"
         offset="0.71879315"
         id="stop890" />
      <stop
         style="stop-color:#0b0b0b;stop-opacity:0.78039216;"
         offset="0.73593426"
         id="stop892" />
      <stop
         style="stop-color:#0b0b0b;stop-opacity:0.75686275;"
         offset="0.75022364"
         id="stop894" />
      <stop
         style="stop-color:#0b0b0b;stop-opacity:0.73333333;"
         offset="0.76798755"
         id="stop896" />
      <stop
         style="stop-color:#0b0b0b;stop-opacity:0.08235294;"
         offset="0.9150058"
         id="stop919" />
      <stop
         style="stop-color:#0b0b0b;stop-opacity:0.07058824;"
         offset="0.92246956"
         id="stop917" />
      <stop
         style="stop-color:#0b0b0b;stop-opacity:0.05882353;"
         offset="0.92918676"
         id="stop915" />
      <stop
         style="stop-color:#0b0b0b;stop-opacity:0.04705882;"
         offset="0.93840873"
         id="stop912" />
      <stop
         style="stop-color:#0b0b0b;stop-opacity:0.03137255;"
         offset="0.94760686"
         id="stop910" />
      <stop
         style="stop-color:#0b0b0b;stop-opacity:0.02352941;"
         offset="0.95380515"
         id="stop908" />
      <stop
         style="stop-color:#0b0b0b;stop-opacity:0.01568627;"
         offset="0.95886087"
         id="stop906" />
      <stop
         style="stop-color:#0b0b0b;stop-opacity:0.01176471;"
         offset="0.96356124"
         id="stop904" />
      <stop
         style="stop-color:#0b0b0b;stop-opacity:0.00784314;"
         offset="0.96845078"
         id="stop902" />
      <stop
         style="stop-color:#0b0b0b;stop-opacity:0.00392157;"
         offset="0.97347641"
         id="stop900" />
      <stop
         style="stop-color:#0b0b0b;stop-opacity:0;"
         offset="0.97812337"
         id="stop886" />
      <stop
         style="stop-color:#0b0b0b;stop-opacity:0;"
         offset="0.98456311"
         id="stop884" />
      <stop
         style="stop-color:#0b0b0b;stop-opacity:0;"
         offset="0.98700982"
         id="stop882" />
      <stop
         style="stop-color:#0b0b0b;stop-opacity:0;"
         offset="0.98924524"
         id="stop880" />
      <stop
         style="stop-color:#0b0b0b;stop-opacity:0;"
         offset="1"
         id="stop871" />
    </linearGradient>
    <linearGradient
       inkscape:collect="always"
       xlink:href="#linearGradient895"
       id="linearGradient897"
       x1="2685.9844"
       y1="1088.7905"
       x2="2685.9844"
       y2="1770.3615"
       gradientUnits="userSpaceOnUse"
       gradientTransform="matrix(0.04277854,0,0,0.04277854,-95.919086,-44.867312)" />
    <linearGradient
       inkscape:collect="always"
       id="linearGradient895">
      <stop
         style="stop-color:#eb62f6;stop-opacity:1"
         offset="0"
         id="stop891" />
      <stop
         style="stop-color:#7f11b5;stop-opacity:1"
         offset="1"
         id="stop893" />
    </linearGradient>
    <linearGradient
       inkscape:collect="always"
       id="linearGradient879">
      <stop
         style="stop-color:#ef5bf6;stop-opacity:1"
         offset="0"
         id="stop875" />
      <stop
         style="stop-color:#8416c4;stop-opacity:1"
         offset="1"
         id="stop877" />
    </linearGradient>
    <radialGradient
       inkscape:collect="always"
       xlink:href="#linearGradient873"
       id="radialGradient898"
       gradientUnits="userSpaceOnUse"
       cx="60.636452"
       cy="20.456388"
       fx="60.636452"
       fy="20.456388"
       r="17.303919"
       gradientTransform="translate(-43.433354,-3.9448764)" />
    <radialGradient
       inkscape:collect="always"
       xlink:href="#linearGradient879"
       id="radialGradient993"
       cx="16.968126"
       cy="4.670938"
       fx="16.968126"
       fy="4.670938"
       r="13.695572"
       gradientUnits="userSpaceOnUse"
       gradientTransform="matrix(4.8885673,0,0,1.8641486,-65.723642,-2.4382716)" />
    <linearGradient
       inkscape:collect="always"
       xlink:href="#linearGradient1181"
       id="linearGradient1183"
       x1="15.730485"
       y1="6.4469814"
       x2="15.730485"
       y2="69.079849"
       gradientUnits="userSpaceOnUse"
       gradientTransform="matrix(0.94276133,0,0,0.94276133,0.71118542,-2.2954814)" />
    <linearGradient
       inkscape:collect="always"
       id="linearGradient1181">
      <stop
         style="stop-color:#ffffff;stop-opacity:1;"
         offset="0"
         id="stop1177" />
      <stop
         style="stop-color:#8d1cc8;stop-opacity:1"
         offset="1"
         id="stop1179" />
    </linearGradient>
  </defs>
  <sodipodi:namedview
     id="base"
     pagecolor="#ffffff"
     bordercolor="#666666"
     borderopacity="1.0"
     inkscape:pageopacity="0.0"
     inkscape:pageshadow="2"
     inkscape:zoom="0.98994949"
     inkscape:cx="-176.7767"
     inkscape:cy="200.51528"
     inkscape:document-units="mm"
     inkscape:current-layer="layer1"
     inkscape:document-rotation="0"
     showgrid="false"
     units="px"
     inkscape:window-width="1920"
     inkscape:window-height="1023"
     inkscape:window-x="0"
     inkscape:window-y="25"
     inkscape:window-maximized="1"
     inkscape:pagecheckerboard="0" />
  <metadata
     id="metadata1012">
    <rdf:RDF>
      <cc:Work
         rdf:about="">
        <dc:format>image/svg+xml</dc:format>
        <dc:type
           rdf:resource="http://purl.org/dc/dcmitype/StillImage" />
      </cc:Work>
    </rdf:RDF>
  </metadata>
  <g
     inkscape:label="Capa 1"
     inkscape:groupmode="layer"
     id="layer1">
    <circle
       style="opacity:0.309726;fill:url(#radialGradient898);fill-opacity:1;stroke-width:3;stroke-linecap:square;stroke-linejoin:round"
       id="path867"
       cx="17.203098"
       cy="16.511513"
       r="17.303919" />
    <circle
       style="fill:url(#linearGradient897);fill-opacity:1;stroke:#b1aaaa;stroke-width:0.0575565;stroke-linecap:square;stroke-opacity:0.992157"
       id="circle839"
       cx="17.203098"
       cy="16.511513"
       r="15.118138" />
    <circle
       style="fill:url(#radialGradient993);fill-opacity:1;stroke:none;stroke-width:0.0498826;stroke-linecap:square;stroke-opacity:1"
       id="circle839-3"
       cx="17.203098"
       cy="16.511513"
       r="13.102469" />
    <path
       id="path2659"
       style="fill:#1d0047;fill-opacity:0.028682;stroke:none;stroke-width:3.7447;stroke-linecap:round;stroke-linejoin:round;stroke-opacity:1"
       d="m 9.979057,7.6450878 c -1.1758997,0 -2.1225758,0.9466766 -2.1225758,2.1225757 v 7.4147075 c 0,1.175899 0.9466761,2.122484 2.1225758,2.122484 h 7.059254 c 0.08009,-0.996332 0.450299,-1.913737 1.024674,-2.668282 h -3.279357 c -0.401496,0 -0.724712,-0.323217 -0.724712,-0.724713 0,-0.401494 0.323216,-0.724712 0.724712,-0.724712 h 3.660317 c 0.294189,0 0.544995,0.17441 0.658797,0.425119 0.845731,-0.624756 1.888663,-0.995966 3.014958,-0.995966 1.198872,0 2.303695,0.420336 3.176596,1.119661 V 9.7676635 c 0,-1.1758991 -0.946676,-2.1225757 -2.122575,-2.1225757 z m 1.064351,2.6311642 a 0.71254953,0.71254953 0 0 1 0.712553,0.712553 0.71254953,0.71254953 0 0 1 -0.712553,0.712554 0.71254953,0.71254953 0 0 1 -0.712554,-0.712554 0.71254953,0.71254953 0 0 1 0.712554,-0.712553 z m 3.707217,0 a 0.71254953,0.71254953 0 0 1 0.712461,0.712553 0.71254953,0.71254953 0 0 1 -0.712461,0.712554 0.71254953,0.71254953 0 0 1 -0.712553,-0.712554 0.71254953,0.71254953 0 0 1 0.712553,-0.712553 z m 3.707125,0 a 0.71254953,0.71254953 0 0 1 0.712553,0.712553 0.71254953,0.71254953 0 0 1 -0.712553,0.712554 0.71254953,0.71254953 0 0 1 -0.712553,-0.712554 0.71254953,0.71254953 0 0 1 0.712553,-0.712553 z m 3.707125,0 a 0.71254953,0.71254953 0 0 1 0.712553,0.712553 0.71254953,0.71254953 0 0 1 -0.712553,0.712554 0.71254953,0.71254953 0 0 1 -0.712554,-0.712554 0.71254953,0.71254953 0 0 1 0.712554,-0.712553 z m -9.247746,2.440363 a 0.71254953,0.71254953 0 0 1 0.712553,0.712553 0.71254953,0.71254953 0 0 1 -0.712553,0.712555 0.71254953,0.71254953 0 0 1 -0.712553,-0.712554 0.71254953,0.71254953 0 0 1 0.712553,-0.712554 z m 3.697526,0 a 0.71254953,0.71254953 0 0 1 0.712554,0.712553 0.71254953,0.71254953 0 0 1 -0.712554,0.712555 0.71254953,0.71254953 0 0 1 -0.712553,-0.712554 0.71254953,0.71254953 0 0 1 0.712553,-0.712554 z m 3.697526,0 a 0.71254953,0.71254953 0 0 1 0.712553,0.712553 0.71254953,0.71254953 0 0 1 -0.712553,0.712555 0.71254953,0.71254953 0 0 1 -0.712554,-0.712554 0.71254953,0.71254953 0 0 1 0.712554,-0.712554 z m 1.805519,3.069904 c -2.175601,0 -3.927089,1.751489 -3.927089,3.92709 v 0.07588 h 7.854178 v -0.07588 c 0,-2.175601 -1.751488,-3.92709 -3.927089,-3.92709 z m 0,1.844008 c 0.374228,0 0.675527,0.301301 0.675527,0.675529 v 0.409393 c 0,0.374227 -0.301299,0.675527 -0.675527,0.675527 -0.374227,0 -0.675527,-0.3013 -0.675527,-0.675527 v -0.409393 c 0,-0.374228 0.3013,-0.675529 0.675527,-0.675529 z m -3.927089,3.771214 v 1.85946 c 0,2.1756 1.751488,3.927089 3.927089,3.927089 2.175601,0 3.927089,-1.751489 3.927089,-3.927089 v -1.85946 z" />
    <path
       id="path2859"
       style="fill:#1d0047;fill-opacity:0.028682;stroke:none;stroke-width:3.7447;stroke-linecap:round;stroke-linejoin:round;stroke-opacity:1"
       d="m 10.04527,7.7401716 c -1.1759,0 -2.122576,0.9466768 -2.122576,2.1225769 v 7.4147065 c 0,1.175899 0.946676,2.122484 2.122576,2.122484 h 7.059254 c 0.08009,-0.996333 0.450299,-1.913738 1.024674,-2.668282 h -3.279357 c -0.401496,0 -0.724712,-0.323217 -0.724712,-0.724713 0,-0.401495 0.323216,-0.724712 0.724712,-0.724712 h 3.660317 c 0.294189,0 0.544995,0.17441 0.658797,0.425118 0.845731,-0.624756 1.888663,-0.995966 3.014958,-0.995966 1.198872,0 2.303695,0.420336 3.176596,1.119662 V 9.8627475 c 0,-1.1758991 -0.946676,-2.1225759 -2.122576,-2.1225759 z m 1.064351,2.6311654 a 0.71254953,0.71254953 0 0 1 0.712553,0.712553 0.71254953,0.71254953 0 0 1 -0.712553,0.712554 0.71254953,0.71254953 0 0 1 -0.712554,-0.712554 0.71254953,0.71254953 0 0 1 0.712554,-0.712553 z m 3.707217,0 a 0.71254953,0.71254953 0 0 1 0.712461,0.712553 0.71254953,0.71254953 0 0 1 -0.712461,0.712554 0.71254953,0.71254953 0 0 1 -0.712554,-0.712554 0.71254953,0.71254953 0 0 1 0.712554,-0.712553 z m 3.707125,0 a 0.71254953,0.71254953 0 0 1 0.712553,0.712553 0.71254953,0.71254953 0 0 1 -0.712553,0.712554 0.71254953,0.71254953 0 0 1 -0.712553,-0.712554 0.71254953,0.71254953 0 0 1 0.712553,-0.712553 z m 3.707125,0 a 0.71254953,0.71254953 0 0 1 0.712553,0.712553 0.71254953,0.71254953 0 0 1 -0.712553,0.712554 0.71254953,0.71254953 0 0 1 -0.712554,-0.712554 0.71254953,0.71254953 0 0 1 0.712554,-0.712553 z M 12.983342,12.8117 a 0.71254953,0.71254953 0 0 1 0.712553,0.712553 0.71254953,0.71254953 0 0 1 -0.712553,0.712554 0.71254953,0.71254953 0 0 1 -0.712553,-0.712554 0.71254953,0.71254953 0 0 1 0.712553,-0.712553 z m 3.697526,0 a 0.71254953,0.71254953 0 0 1 0.712554,0.712553 0.71254953,0.71254953 0 0 1 -0.712554,0.712554 0.71254953,0.71254953 0 0 1 -0.712553,-0.712554 0.71254953,0.71254953 0 0 1 0.712553,-0.712553 z m 3.697526,0 a 0.71254953,0.71254953 0 0 1 0.712553,0.712553 0.71254953,0.71254953 0 0 1 -0.712553,0.712554 0.71254953,0.71254953 0 0 1 -0.712554,-0.712554 0.71254953,0.71254953 0 0 1 0.712554,-0.712553 z m 1.805519,3.069903 c -2.175601,0 -3.927089,1.75149 -3.927089,3.92709 v 0.07588 h 7.854178 v -0.07588 c 0,-2.175601 -1.751488,-3.92709 -3.927089,-3.92709 z m 0,1.844009 c 0.374228,0 0.675527,0.3013 0.675527,0.675528 v 0.409393 c 0,0.374227 -0.301299,0.675527 -0.675527,0.675527 -0.374227,0 -0.675527,-0.3013 -0.675527,-0.675527 V 18.40114 c 0,-0.374227 0.3013,-0.675528 0.675527,-0.675528 z m -3.927089,3.771213 v 1.85946 c 0,2.175601 1.751488,3.927089 3.927089,3.927089 2.175601,0 3.927089,-1.751488 3.927089,-3.927089 v -1.85946 z" />
    <path
       id="path2861"
       style="fill:#1d0047;fill-opacity:0.028682;stroke:none;stroke-width:3.7447;stroke-linecap:round;stroke-linejoin:round;stroke-opacity:1"
       d="m 10.084139,7.9148558 c -1.1758995,0 -2.1225755,0.9466769 -2.1225755,2.1225762 v 7.414707 c 0,1.1759 0.946676,2.122484 2.1225755,2.122484 h 7.059254 c 0.08009,-0.996332 0.450299,-1.913737 1.024674,-2.668281 H 14.88871 c -0.401496,0 -0.724712,-0.323218 -0.724712,-0.724713 0,-0.401495 0.323216,-0.724712 0.724712,-0.724712 h 3.660317 c 0.294189,0 0.544995,0.17441 0.658797,0.425117 0.845731,-0.624755 1.888663,-0.995965 3.014958,-0.995965 1.198872,0 2.303695,0.420336 3.176596,1.119661 v -5.968298 c 0,-1.1758993 -0.946676,-2.1225762 -2.122575,-2.1225762 z m 1.064351,2.6311652 a 0.71254953,0.71254953 0 0 1 0.712553,0.712553 0.71254953,0.71254953 0 0 1 -0.712553,0.712553 0.71254953,0.71254953 0 0 1 -0.712554,-0.712553 0.71254953,0.71254953 0 0 1 0.712554,-0.712553 z m 3.707217,0 a 0.71254953,0.71254953 0 0 1 0.712461,0.712553 0.71254953,0.71254953 0 0 1 -0.712461,0.712553 0.71254953,0.71254953 0 0 1 -0.712553,-0.712553 0.71254953,0.71254953 0 0 1 0.712553,-0.712553 z m 3.707125,0 a 0.71254953,0.71254953 0 0 1 0.712553,0.712553 0.71254953,0.71254953 0 0 1 -0.712553,0.712553 0.71254953,0.71254953 0 0 1 -0.712553,-0.712553 0.71254953,0.71254953 0 0 1 0.712553,-0.712553 z m 3.707125,0 a 0.71254953,0.71254953 0 0 1 0.712553,0.712553 0.71254953,0.71254953 0 0 1 -0.712553,0.712553 0.71254953,0.71254953 0 0 1 -0.712554,-0.712553 0.71254953,0.71254953 0 0 1 0.712554,-0.712553 z m -9.247746,2.440362 a 0.71254953,0.71254953 0 0 1 0.712553,0.712553 0.71254953,0.71254953 0 0 1 -0.712553,0.712556 0.71254953,0.71254953 0 0 1 -0.712553,-0.712555 0.71254953,0.71254953 0 0 1 0.712553,-0.712554 z m 3.697526,0 a 0.71254953,0.71254953 0 0 1 0.712554,0.712553 0.71254953,0.71254953 0 0 1 -0.712554,0.712556 0.71254953,0.71254953 0 0 1 -0.712553,-0.712555 0.71254953,0.71254953 0 0 1 0.712553,-0.712554 z m 3.697526,0 a 0.71254953,0.71254953 0 0 1 0.712553,0.712553 0.71254953,0.71254953 0 0 1 -0.712553,0.712556 0.71254953,0.71254953 0 0 1 -0.712554,-0.712555 0.71254953,0.71254953 0 0 1 0.712554,-0.712554 z m 1.805519,3.069905 c -2.175601,0 -3.927089,1.751488 -3.927089,3.927089 v 0.07588 h 7.854179 v -0.07588 c 0,-2.175601 -1.751489,-3.927089 -3.92709,-3.927089 z m 0,1.844008 c 0.374228,0 0.675527,0.301301 0.675527,0.675528 v 0.409393 c 0,0.374227 -0.301299,0.675527 -0.675527,0.675527 -0.374227,0 -0.675527,-0.3013 -0.675527,-0.675527 v -0.409393 c 0,-0.374227 0.3013,-0.675528 0.675527,-0.675528 z m -3.927089,3.771213 v 1.85946 c 0,2.175601 1.751488,3.927089 3.927089,3.927089 2.175601,0 3.92709,-1.751488 3.92709,-3.927089 v -1.85946 z" />
    <path
       id="path2863"
       style="fill:#1d0047;fill-opacity:0.028682;stroke:none;stroke-width:3.7447;stroke-linecap:round;stroke-linejoin:round;stroke-opacity:1"
       d="m 10.139861,8.1378342 c -1.1758997,0 -2.1225757,0.9466766 -2.1225757,2.1225758 v 7.414707 c 0,1.1759 0.946676,2.122484 2.1225757,2.122484 h 7.059254 c 0.08009,-0.996333 0.450299,-1.913738 1.024674,-2.668281 h -3.279357 c -0.401496,0 -0.724712,-0.323218 -0.724712,-0.724713 0,-0.401496 0.323216,-0.724713 0.724712,-0.724713 h 3.660317 c 0.294189,0 0.544995,0.17441 0.658797,0.425118 0.845731,-0.624755 1.888663,-0.995966 3.014958,-0.995966 1.198872,0 2.303695,0.420336 3.176596,1.119662 V 10.26041 c 0,-1.1758992 -0.946676,-2.1225758 -2.122576,-2.1225758 z m 1.064351,2.6311648 a 0.71254953,0.71254953 0 0 1 0.712553,0.712553 0.71254953,0.71254953 0 0 1 -0.712553,0.712554 0.71254953,0.71254953 0 0 1 -0.712554,-0.712554 0.71254953,0.71254953 0 0 1 0.712554,-0.712553 z m 3.707217,0 a 0.71254953,0.71254953 0 0 1 0.712461,0.712553 0.71254953,0.71254953 0 0 1 -0.712461,0.712554 0.71254953,0.71254953 0 0 1 -0.712553,-0.712554 0.71254953,0.71254953 0 0 1 0.712553,-0.712553 z m 3.707125,0 a 0.71254953,0.71254953 0 0 1 0.712553,0.712553 0.71254953,0.71254953 0 0 1 -0.712553,0.712554 0.71254953,0.71254953 0 0 1 -0.712553,-0.712554 0.71254953,0.71254953 0 0 1 0.712553,-0.712553 z m 3.707125,0 a 0.71254953,0.71254953 0 0 1 0.712553,0.712553 0.71254953,0.71254953 0 0 1 -0.712553,0.712554 0.71254953,0.71254953 0 0 1 -0.712554,-0.712554 0.71254953,0.71254953 0 0 1 0.712554,-0.712553 z m -9.247746,2.440363 a 0.71254953,0.71254953 0 0 1 0.712553,0.712554 0.71254953,0.71254953 0 0 1 -0.712553,0.712554 0.71254953,0.71254953 0 0 1 -0.712553,-0.712554 0.71254953,0.71254953 0 0 1 0.712553,-0.712554 z m 3.697526,0 a 0.71254953,0.71254953 0 0 1 0.712554,0.712554 0.71254953,0.71254953 0 0 1 -0.712554,0.712554 0.71254953,0.71254953 0 0 1 -0.712553,-0.712554 0.71254953,0.71254953 0 0 1 0.712553,-0.712554 z m 3.697526,0 a 0.71254953,0.71254953 0 0 1 0.712553,0.712554 0.71254953,0.71254953 0 0 1 -0.712553,0.712554 0.71254953,0.71254953 0 0 1 -0.712554,-0.712554 0.71254953,0.71254953 0 0 1 0.712554,-0.712554 z m 1.805519,3.069904 c -2.175601,0 -3.927089,1.751489 -3.927089,3.927089 v 0.07588 h 7.854178 v -0.07588 c 0,-2.175601 -1.751488,-3.927089 -3.927089,-3.927089 z m 0,1.844008 c 0.374228,0 0.675527,0.301301 0.675527,0.675528 v 0.409393 c 0,0.374227 -0.301299,0.675527 -0.675527,0.675527 -0.374227,0 -0.675527,-0.3013 -0.675527,-0.675527 v -0.409393 c 0,-0.374226 0.3013,-0.675528 0.675527,-0.675528 z m -3.927089,3.771214 v 1.85946 c 0,2.175601 1.751488,3.927088 3.927089,3.927088 2.175601,0 3.927089,-1.751488 3.927089,-3.927088 v -1.85946 z" />
    <path
       id="path2865"
       style="fill:#1d0047;fill-opacity:0.028682;stroke:none;stroke-width:3.7447;stroke-linecap:round;stroke-linejoin:round;stroke-opacity:1"
       d="m 10.270664,8.4069221 c -1.1758996,0 -2.1225757,0.9466764 -2.1225757,2.1225769 v 7.414706 c 0,1.1759 0.9466761,2.122484 2.1225757,2.122484 h 7.059255 c 0.08009,-0.996333 0.450298,-1.913738 1.024673,-2.668282 h -3.279357 c -0.401495,0 -0.724712,-0.323217 -0.724712,-0.724713 0,-0.401495 0.323217,-0.724712 0.724712,-0.724712 h 3.660317 c 0.294189,0 0.544996,0.17441 0.658797,0.425118 0.845732,-0.624756 1.888663,-0.995966 3.014959,-0.995966 1.198871,0 2.303694,0.420336 3.176595,1.119662 v -5.968298 c 0,-1.1758995 -0.946675,-2.1225759 -2.122575,-2.1225759 z m 1.064351,2.6311649 a 0.71254953,0.71254953 0 0 1 0.712554,0.712553 0.71254953,0.71254953 0 0 1 -0.712554,0.712553 0.71254953,0.71254953 0 0 1 -0.712554,-0.712553 0.71254953,0.71254953 0 0 1 0.712554,-0.712553 z m 3.707217,0 a 0.71254953,0.71254953 0 0 1 0.712462,0.712553 0.71254953,0.71254953 0 0 1 -0.712462,0.712553 0.71254953,0.71254953 0 0 1 -0.712553,-0.712553 0.71254953,0.71254953 0 0 1 0.712553,-0.712553 z m 3.707125,0 a 0.71254953,0.71254953 0 0 1 0.712553,0.712553 0.71254953,0.71254953 0 0 1 -0.712553,0.712553 0.71254953,0.71254953 0 0 1 -0.712553,-0.712553 0.71254953,0.71254953 0 0 1 0.712553,-0.712553 z m 3.707125,0 a 0.71254953,0.71254953 0 0 1 0.712554,0.712553 0.71254953,0.71254953 0 0 1 -0.712554,0.712553 0.71254953,0.71254953 0 0 1 -0.712554,-0.712553 0.71254953,0.71254953 0 0 1 0.712554,-0.712553 z m -9.247745,2.440363 a 0.71254953,0.71254953 0 0 1 0.712553,0.712552 0.71254953,0.71254953 0 0 1 -0.712553,0.712554 0.71254953,0.71254953 0 0 1 -0.712553,-0.712554 0.71254953,0.71254953 0 0 1 0.712553,-0.712552 z m 3.697526,0 a 0.71254953,0.71254953 0 0 1 0.712554,0.712552 0.71254953,0.71254953 0 0 1 -0.712554,0.712554 0.71254953,0.71254953 0 0 1 -0.712554,-0.712554 0.71254953,0.71254953 0 0 1 0.712554,-0.712552 z m 3.697526,0 a 0.71254953,0.71254953 0 0 1 0.712553,0.712552 0.71254953,0.71254953 0 0 1 -0.712553,0.712554 0.71254953,0.71254953 0 0 1 -0.712555,-0.712554 0.71254953,0.71254953 0 0 1 0.712555,-0.712552 z m 1.805519,3.069903 c -2.175601,0 -3.92709,1.75149 -3.92709,3.92709 v 0.07588 h 7.854179 v -0.07588 c 0,-2.175601 -1.751489,-3.92709 -3.927089,-3.92709 z m 0,1.844009 c 0.374228,0 0.675527,0.3013 0.675527,0.675528 v 0.409394 c 0,0.374226 -0.301299,0.675526 -0.675527,0.675526 -0.374228,0 -0.675528,-0.3013 -0.675528,-0.675526 V 19.06789 c 0,-0.374227 0.3013,-0.675528 0.675528,-0.675528 z m -3.92709,3.771213 v 1.85946 c 0,2.175601 1.751489,3.927089 3.92709,3.927089 2.1756,0 3.927089,-1.751488 3.927089,-3.927089 v -1.85946 z" />
    <path
       id="rect856"
       style="fill:url(#linearGradient1183);fill-opacity:1;stroke:none;stroke-width:3.7447;stroke-linecap:round;stroke-linejoin:round;stroke-opacity:1"
       d="m 9.9278121,7.5491152 c -1.1759002,0 -2.1225762,0.946677 -2.1225762,2.1225763 v 7.4147075 c 0,1.175899 0.946676,2.122483 2.1225762,2.122483 h 7.0592539 c 0.08009,-0.996331 0.450298,-1.913736 1.024673,-2.668281 h -3.279357 c -0.401495,0 -0.724712,-0.323217 -0.724712,-0.724712 0,-0.401496 0.323217,-0.724713 0.724712,-0.724713 h 3.660317 c 0.294189,0 0.544996,0.17441 0.658797,0.425119 0.845732,-0.624756 1.888663,-0.995966 3.014958,-0.995966 1.198872,0 2.303695,0.420335 3.176596,1.119661 V 9.6716915 c 0,-1.1758993 -0.946676,-2.1225763 -2.122575,-2.1225763 z M 10.992162,10.18028 a 0.71254953,0.71254953 0 0 1 0.712554,0.712553 0.71254953,0.71254953 0 0 1 -0.712554,0.712554 0.71254953,0.71254953 0 0 1 -0.712554,-0.712554 0.71254953,0.71254953 0 0 1 0.712554,-0.712553 z m 3.707217,0 a 0.71254953,0.71254953 0 0 1 0.712462,0.712553 0.71254953,0.71254953 0 0 1 -0.712462,0.712554 0.71254953,0.71254953 0 0 1 -0.712553,-0.712554 0.71254953,0.71254953 0 0 1 0.712553,-0.712553 z m 3.707125,0 a 0.71254953,0.71254953 0 0 1 0.712553,0.712553 0.71254953,0.71254953 0 0 1 -0.712553,0.712554 0.71254953,0.71254953 0 0 1 -0.712553,-0.712554 0.71254953,0.71254953 0 0 1 0.712553,-0.712553 z m 3.707125,0 a 0.71254953,0.71254953 0 0 1 0.712553,0.712553 0.71254953,0.71254953 0 0 1 -0.712553,0.712554 0.71254953,0.71254953 0 0 1 -0.712554,-0.712554 0.71254953,0.71254953 0 0 1 0.712554,-0.712553 z m -9.247745,2.440363 a 0.71254953,0.71254953 0 0 1 0.712553,0.712554 0.71254953,0.71254953 0 0 1 -0.712553,0.712553 0.71254953,0.71254953 0 0 1 -0.712554,-0.712553 0.71254953,0.71254953 0 0 1 0.712554,-0.712554 z m 3.697526,0 a 0.71254953,0.71254953 0 0 1 0.712554,0.712554 0.71254953,0.71254953 0 0 1 -0.712554,0.712553 0.71254953,0.71254953 0 0 1 -0.712554,-0.712553 0.71254953,0.71254953 0 0 1 0.712554,-0.712554 z m 3.697525,0 a 0.71254953,0.71254953 0 0 1 0.712554,0.712554 0.71254953,0.71254953 0 0 1 -0.712554,0.712553 0.71254953,0.71254953 0 0 1 -0.712554,-0.712553 0.71254953,0.71254953 0 0 1 0.712554,-0.712554 z m 1.805519,3.069904 c -2.1756,0 -3.927089,1.751489 -3.927089,3.927089 v 0.07588 h 7.854179 v -0.07588 c 0,-2.1756 -1.751489,-3.927089 -3.92709,-3.927089 z m 0,1.844008 c 0.374229,0 0.675528,0.301301 0.675528,0.675528 v 0.409394 c 0,0.374227 -0.301299,0.675527 -0.675528,0.675527 -0.374227,0 -0.675527,-0.3013 -0.675527,-0.675527 v -0.409394 c 0,-0.374227 0.3013,-0.675528 0.675527,-0.675528 z m -3.927089,3.771213 v 1.85946 c 0,2.175602 1.751489,3.92709 3.927089,3.92709 2.175601,0 3.92709,-1.751489 3.92709,-3.92709 v -1.85946 z" />
  </g>
</svg>
