<?xml version="1.0" encoding="UTF-8" standalone="no"?>
<svg
   xmlns:dc="http://purl.org/dc/elements/1.1/"
   xmlns:cc="http://creativecommons.org/ns#"
   xmlns:rdf="http://www.w3.org/1999/02/22-rdf-syntax-ns#"
   xmlns:svg="http://www.w3.org/2000/svg"
   xmlns="http://www.w3.org/2000/svg"
   xmlns:xlink="http://www.w3.org/1999/xlink"
   xmlns:sodipodi="http://sodipodi.sourceforge.net/DTD/sodipodi-0.dtd"
   xmlns:inkscape="http://www.inkscape.org/namespaces/inkscape"
   width="128"
   height="128"
   viewBox="0 0 33.866666 33.866668"
   version="1.1"
   id="svg1015"
   inkscape:version="1.0.2 (e86c870879, 2021-01-15)"
   sodipodi:docname="pop_icon.svg">
  <defs
     id="defs1009">
    <linearGradient
       inkscape:collect="always"
       id="linearGradient873">
      <stop
         style="stop-color:#0b0b0b;stop-opacity:1;"
         offset="0"
         id="stop869" />
      <stop
         style="stop-color:#0b0b0b;stop-opacity:0.85882353;"
         offset="0.68076366"
         id="stop878" />
      <stop
         style="stop-color:#0b0b0b;stop-opacity:0.83137255;"
         offset="0.69925421"
         id="stop888" />
      <stop
         style="stop-color:#0b0b0b;stop-opacity:0.80392157;"
         offset="0.71879315"
         id="stop890" />
      <stop
         style="stop-color:#0b0b0b;stop-opacity:0.78039216;"
         offset="0.73593426"
         id="stop892" />
      <stop
         style="stop-color:#0b0b0b;stop-opacity:0.75686275;"
         offset="0.75022364"
         id="stop894" />
      <stop
         style="stop-color:#0b0b0b;stop-opacity:0.73333333;"
         offset="0.76798755"
         id="stop896" />
      <stop
         style="stop-color:#0b0b0b;stop-opacity:0.08235294;"
         offset="0.9150058"
         id="stop919" />
      <stop
         style="stop-color:#0b0b0b;stop-opacity:0.07058824;"
         offset="0.92246956"
         id="stop917" />
      <stop
         style="stop-color:#0b0b0b;stop-opacity:0.05882353;"
         offset="0.92918676"
         id="stop915" />
      <stop
         style="stop-color:#0b0b0b;stop-opacity:0.04705882;"
         offset="0.93840873"
         id="stop912" />
      <stop
         style="stop-color:#0b0b0b;stop-opacity:0.03137255;"
         offset="0.94760686"
         id="stop910" />
      <stop
         style="stop-color:#0b0b0b;stop-opacity:0.02352941;"
         offset="0.95380515"
         id="stop908" />
      <stop
         style="stop-color:#0b0b0b;stop-opacity:0.01568627;"
         offset="0.95886087"
         id="stop906" />
      <stop
         style="stop-color:#0b0b0b;stop-opacity:0.01176471;"
         offset="0.96356124"
         id="stop904" />
      <stop
         style="stop-color:#0b0b0b;stop-opacity:0.00784314;"
         offset="0.96845078"
         id="stop902" />
      <stop
         style="stop-color:#0b0b0b;stop-opacity:0.00392157;"
         offset="0.97347641"
         id="stop900" />
      <stop
         style="stop-color:#0b0b0b;stop-opacity:0;"
         offset="0.97812337"
         id="stop886" />
      <stop
         style="stop-color:#0b0b0b;stop-opacity:0;"
         offset="0.98456311"
         id="stop884" />
      <stop
         style="stop-color:#0b0b0b;stop-opacity:0;"
         offset="0.98700982"
         id="stop882" />
      <stop
         style="stop-color:#0b0b0b;stop-opacity:0;"
         offset="0.98924524"
         id="stop880" />
      <stop
         style="stop-color:#0b0b0b;stop-opacity:0;"
         offset="1"
         id="stop871" />
    </linearGradient>
    <linearGradient
       inkscape:collect="always"
       xlink:href="#linearGradient895"
       id="linearGradient897"
       x1="2685.9844"
       y1="1088.7905"
       x2="2685.9844"
       y2="1770.3615"
       gradientUnits="userSpaceOnUse"
       gradientTransform="matrix(0.04277854,0,0,0.04277854,-95.919086,-44.867312)" />
    <linearGradient
       inkscape:collect="always"
       id="linearGradient895">
      <stop
         style="stop-color:#f7f9fa;stop-opacity:1"
         offset="0"
         id="stop891" />
      <stop
         style="stop-color:#d2d4d8;stop-opacity:1"
         offset="1"
         id="stop893" />
    </linearGradient>
    <linearGradient
       inkscape:collect="always"
       id="linearGradient879">
      <stop
         style="stop-color:#f3f5f6;stop-opacity:0.97647059"
         offset="0"
         id="stop875" />
      <stop
         style="stop-color:#e8e9eb;stop-opacity:1"
         offset="1"
         id="stop877" />
    </linearGradient>
    <radialGradient
       inkscape:collect="always"
       xlink:href="#linearGradient873"
       id="radialGradient898"
       gradientUnits="userSpaceOnUse"
       cx="60.636452"
       cy="20.456388"
       fx="60.636452"
       fy="20.456388"
       r="17.303919"
       gradientTransform="translate(-43.433354,-3.9448764)" />
    <radialGradient
       inkscape:collect="always"
       xlink:href="#linearGradient879"
       id="radialGradient993"
       cx="16.786602"
       cy="3.5456841"
       fx="16.786602"
       fy="3.5456841"
       r="13.695572"
       gradientUnits="userSpaceOnUse"
       gradientTransform="matrix(2.0751827,0,0,1.5420669,-18.496474,-0.93384819)" />
  </defs>
  <sodipodi:namedview
     id="base"
     pagecolor="#ffffff"
     bordercolor="#666666"
     borderopacity="1.0"
     inkscape:pageopacity="0.0"
     inkscape:pageshadow="2"
     inkscape:zoom="11.2"
     inkscape:cx="72.929602"
     inkscape:cy="38.503028"
     inkscape:document-units="mm"
     inkscape:current-layer="layer1"
     inkscape:document-rotation="0"
     showgrid="false"
     units="px"
     inkscape:window-width="1920"
     inkscape:window-height="1028"
     inkscape:window-x="0"
     inkscape:window-y="24"
     inkscape:window-maximized="1" />
  <metadata
     id="metadata1012">
    <rdf:RDF>
      <cc:Work
         rdf:about="">
        <dc:format>image/svg+xml</dc:format>
        <dc:type
           rdf:resource="http://purl.org/dc/dcmitype/StillImage" />
        <dc:title></dc:title>
      </cc:Work>
    </rdf:RDF>
  </metadata>
  <g
     inkscape:label="Capa 1"
     inkscape:groupmode="layer"
     id="layer1">
    <circle
       style="opacity:0.309726;fill:url(#radialGradient898);fill-opacity:1;stroke-width:3;stroke-linecap:square;stroke-linejoin:round"
       id="path867"
       cx="17.203098"
       cy="16.511513"
       r="17.303919" />
    <circle
       style="fill:url(#linearGradient897);fill-opacity:1;stroke:#b1aaaa;stroke-width:0.0575565;stroke-linecap:square;stroke-opacity:0.992157"
       id="circle839"
       cx="17.203098"
       cy="16.511513"
       r="15.118138" />
    <circle
       style="fill:url(#radialGradient993);fill-opacity:1;stroke:none;stroke-width:0.0498826;stroke-linecap:square;stroke-opacity:1"
       id="circle839-3"
       cx="17.203098"
       cy="16.511513"
       r="13.102469" />
    <path
       id="path905"
       style="fill:#000000;fill-opacity:0.182474;stroke:none;stroke-width:0.0866805px;stroke-linecap:butt;stroke-linejoin:miter;stroke-opacity:1"
       d="M 15.425792,6.000258 C 13.983597,5.976792 12.393197,6.6388729 10.513462,8.0946349 10.288219,8.2700259 10.017555,8.4914666 9.8765657,8.6627972 9.1734456,9.5441887 9.7086207,10.524729 9.7086207,10.524729 l 0.8723903,1.761707 c 0.237095,0.478811 0.475109,0.957103 0.718158,1.432933 1.095287,2.158441 3.690186,7.182579 4.673621,8.306233 1.028682,1.175352 1.706876,0.517827 1.97536,0.01749 0.131741,-0.228165 0.107964,-0.644705 0.05672,-0.888135 -0.154344,-0.697055 -0.50383,-1.687216 -0.50383,-1.687216 l -1.19321,-3.090587 c 1.658798,-0.862412 3.513006,-2.222295 3.757385,-4.707991 C 20.19765,10.351203 20.032105,8.2380722 17.892113,6.7593695 17.103076,6.2750173 16.291106,6.014294 15.42579,6.0002412 Z m -1.14665,2.6376507 a 2.6228453,1.2719132 67.009433 0 1 1.897144,1.8825873 2.6228453,1.2719132 67.009433 0 1 -0.06821,2.977768 2.6228453,1.2719132 67.009433 0 1 -2.199171,-1.812831 2.6228453,1.2719132 67.009433 0 1 0.06821,-2.9777723 2.6228453,1.2719132 67.009433 0 1 0.302027,-0.069752 z m 9.478618,2.3146333 c -0.1321,-0.0015 -0.26164,0.0071 -0.387015,0.02624 -0.585892,0.09881 -1.214508,0.49269 -1.35827,1.682476 -0.284127,2.351425 -0.403439,3.834412 -0.403439,3.834412 0,0 -0.706785,5.907129 2.251318,0.661616 2.230152,-3.954665 2.38454,-5.044599 1.625423,-5.612542 -0.535281,-0.38703 -1.155551,-0.58563 -1.728017,-0.592204 z m -2.318019,9.676356 a 1.1233651,1.1233651 0 0 0 -1.116856,1.123288 1.1233651,1.1233651 0 0 0 1.123458,1.123461 1.1233651,1.1233651 0 0 0 1.123288,-1.123461 1.1233651,1.1233651 0 0 0 -1.123288,-1.123288 1.1233651,1.1233651 0 0 0 -0.0067,0 z m -9.761853,3.273195 c -0.606022,0 -1.093829,0.449802 -1.093829,1.008676 v 0.13119 c 0,0.558874 0.487807,1.008845 1.093829,1.008845 h 12.688158 c 0.606023,0 1.093828,-0.449971 1.093828,-1.008845 v -0.13119 c 0,-0.558874 -0.487805,-1.008676 -1.093828,-1.008676 z" />
    <path
       id="path839"
       style="fill:#363636;fill-opacity:1;stroke:none;stroke-width:0.0866805px;stroke-linecap:butt;stroke-linejoin:miter;stroke-opacity:1"
       d="m 14.926654,5.7420732 c -1.442195,-0.023466 -3.032595,0.6386149 -4.91233,2.0943769 -0.2252431,0.175391 -0.4959071,0.3968317 -0.6368961,0.5681623 -0.70312,0.8813915 -0.167945,1.8619316 -0.167945,1.8619316 l 0.8723901,1.761707 c 0.237095,0.478811 0.475109,0.957103 0.718158,1.432933 1.095287,2.158441 3.690186,7.182579 4.673621,8.306233 1.028682,1.175352 1.706876,0.517827 1.97536,0.01749 0.131741,-0.228165 0.107964,-0.644705 0.05672,-0.888135 -0.154344,-0.697055 -0.50383,-1.687216 -0.50383,-1.687216 l -1.19321,-3.090587 c 1.658798,-0.862412 3.513006,-2.222295 3.757385,-4.707991 0.132435,-1.31796 -0.03311,-3.4310906 -2.173102,-4.9097933 C 16.603938,6.0168325 15.791968,5.7561092 14.926652,5.7420564 Z m -1.14665,2.6376507 a 2.6228453,1.2719132 67.009433 0 1 1.897144,1.8825871 2.6228453,1.2719132 67.009433 0 1 -0.06821,2.977768 2.6228453,1.2719132 67.009433 0 1 -2.199171,-1.812831 2.6228453,1.2719132 67.009433 0 1 0.06821,-2.9777721 2.6228453,1.2719132 67.009433 0 1 0.302027,-0.069752 z m 9.478618,2.3146331 c -0.1321,-0.0015 -0.26164,0.0071 -0.387015,0.02624 -0.585892,0.09881 -1.214508,0.49269 -1.35827,1.682476 -0.284127,2.351425 -0.403439,3.834412 -0.403439,3.834412 0,0 -0.706785,5.907129 2.251318,0.661616 2.230152,-3.954665 2.38454,-5.044599 1.625423,-5.612542 -0.535281,-0.38703 -1.155551,-0.58563 -1.728017,-0.592204 z m -2.318019,9.676356 a 1.1233651,1.1233651 0 0 0 -1.116856,1.123288 1.1233651,1.1233651 0 0 0 1.123458,1.123461 1.1233651,1.1233651 0 0 0 1.123288,-1.123461 1.1233651,1.1233651 0 0 0 -1.123288,-1.123288 1.1233651,1.1233651 0 0 0 -0.0067,0 z m -9.761853,3.273195 c -0.606022,0 -1.093829,0.449802 -1.093829,1.008676 v 0.13119 c 0,0.558874 0.487807,1.008845 1.093829,1.008845 h 12.688158 c 0.606023,0 1.093828,-0.449971 1.093828,-1.008845 v -0.13119 c 0,-0.558874 -0.487805,-1.008676 -1.093828,-1.008676 z" />
  </g>
</svg>
