<?xml version="1.0" encoding="UTF-8" standalone="no"?>
<svg
   width="128"
   height="128"
   viewBox="0 0 33.866666 33.866668"
   version="1.1"
   id="svg1015"
   inkscape:version="1.1.2 (0a00cf5339, 2022-02-04)"
   sodipodi:docname="sideka.svg"
   xmlns:inkscape="http://www.inkscape.org/namespaces/inkscape"
   xmlns:sodipodi="http://sodipodi.sourceforge.net/DTD/sodipodi-0.dtd"
   xmlns:xlink="http://www.w3.org/1999/xlink"
   xmlns="http://www.w3.org/2000/svg"
   xmlns:svg="http://www.w3.org/2000/svg"
   xmlns:rdf="http://www.w3.org/1999/02/22-rdf-syntax-ns#"
   xmlns:cc="http://creativecommons.org/ns#"
   xmlns:dc="http://purl.org/dc/elements/1.1/">
  <defs
     id="defs1009">
    <linearGradient
       inkscape:collect="always"
       id="linearGradient873">
      <stop
         style="stop-color:#0b0b0b;stop-opacity:1;"
         offset="0"
         id="stop869" />
      <stop
         style="stop-color:#0b0b0b;stop-opacity:0.85882353;"
         offset="0.68076366"
         id="stop878" />
      <stop
         style="stop-color:#0b0b0b;stop-opacity:0.83137255;"
         offset="0.69925421"
         id="stop888" />
      <stop
         style="stop-color:#0b0b0b;stop-opacity:0.80392157;"
         offset="0.71879315"
         id="stop890" />
      <stop
         style="stop-color:#0b0b0b;stop-opacity:0.78039216;"
         offset="0.73593426"
         id="stop892" />
      <stop
         style="stop-color:#0b0b0b;stop-opacity:0.75686275;"
         offset="0.75022364"
         id="stop894" />
      <stop
         style="stop-color:#0b0b0b;stop-opacity:0.73333333;"
         offset="0.76798755"
         id="stop896" />
      <stop
         style="stop-color:#0b0b0b;stop-opacity:0.08235294;"
         offset="0.9150058"
         id="stop919" />
      <stop
         style="stop-color:#0b0b0b;stop-opacity:0.07058824;"
         offset="0.92246956"
         id="stop917" />
      <stop
         style="stop-color:#0b0b0b;stop-opacity:0.05882353;"
         offset="0.92918676"
         id="stop915" />
      <stop
         style="stop-color:#0b0b0b;stop-opacity:0.04705882;"
         offset="0.93840873"
         id="stop912" />
      <stop
         style="stop-color:#0b0b0b;stop-opacity:0.03137255;"
         offset="0.94760686"
         id="stop910" />
      <stop
         style="stop-color:#0b0b0b;stop-opacity:0.02352941;"
         offset="0.95380515"
         id="stop908" />
      <stop
         style="stop-color:#0b0b0b;stop-opacity:0.01568627;"
         offset="0.95886087"
         id="stop906" />
      <stop
         style="stop-color:#0b0b0b;stop-opacity:0.01176471;"
         offset="0.96356124"
         id="stop904" />
      <stop
         style="stop-color:#0b0b0b;stop-opacity:0.00784314;"
         offset="0.96845078"
         id="stop902" />
      <stop
         style="stop-color:#0b0b0b;stop-opacity:0.00392157;"
         offset="0.97347641"
         id="stop900" />
      <stop
         style="stop-color:#0b0b0b;stop-opacity:0;"
         offset="0.97812337"
         id="stop886" />
      <stop
         style="stop-color:#0b0b0b;stop-opacity:0;"
         offset="0.98456311"
         id="stop884" />
      <stop
         style="stop-color:#0b0b0b;stop-opacity:0;"
         offset="0.98700982"
         id="stop882" />
      <stop
         style="stop-color:#0b0b0b;stop-opacity:0;"
         offset="0.98924524"
         id="stop880" />
      <stop
         style="stop-color:#0b0b0b;stop-opacity:0;"
         offset="1"
         id="stop871" />
    </linearGradient>
    <linearGradient
       inkscape:collect="always"
       xlink:href="#linearGradient895"
       id="linearGradient897"
       x1="2685.9844"
       y1="1088.7905"
       x2="2685.9844"
       y2="1770.3615"
       gradientUnits="userSpaceOnUse"
       gradientTransform="matrix(0.04277854,0,0,0.04277854,-95.919086,-44.867312)" />
    <linearGradient
       inkscape:collect="always"
       id="linearGradient895">
      <stop
         style="stop-color:#85e9f1;stop-opacity:1"
         offset="0"
         id="stop891" />
      <stop
         style="stop-color:#0047ef;stop-opacity:1"
         offset="1"
         id="stop893" />
    </linearGradient>
    <linearGradient
       inkscape:collect="always"
       id="linearGradient879">
      <stop
         style="stop-color:#6ddce9;stop-opacity:1"
         offset="0"
         id="stop875" />
      <stop
         style="stop-color:#0b6aff;stop-opacity:1"
         offset="1"
         id="stop877" />
    </linearGradient>
    <radialGradient
       inkscape:collect="always"
       xlink:href="#linearGradient873"
       id="radialGradient898"
       gradientUnits="userSpaceOnUse"
       cx="60.636452"
       cy="20.456388"
       fx="60.636452"
       fy="20.456388"
       r="17.303919"
       gradientTransform="translate(-43.433354,-3.9448764)" />
    <radialGradient
       inkscape:collect="always"
       xlink:href="#linearGradient879"
       id="radialGradient993"
       cx="16.968126"
       cy="3.7658708"
       fx="16.968126"
       fy="3.7658708"
       r="13.695572"
       gradientUnits="userSpaceOnUse"
       gradientTransform="matrix(4.8885673,0,0,1.8641486,-65.723642,-2.4382716)" />
    <linearGradient
       id="b"
       x2="1"
       gradientTransform="matrix(0.10138208,-17.338417,17.338417,0.10138208,16.113103,25.29877)"
       gradientUnits="userSpaceOnUse"
       x1="-1.2255912"
       y1="0.013013591"
       y2="1.110223e-16">
      <stop
         stop-color="#c9cfe5"
         offset="0"
         id="stop7"
         style="stop-color:#c22aff;stop-opacity:1" />
      <stop
         stop-color="#fff"
         offset="1"
         id="stop9" />
    </linearGradient>
    <linearGradient
       inkscape:collect="always"
       xlink:href="#linearGradient1174"
       id="linearGradient1176"
       x1="9.1656609"
       y1="10.452144"
       x2="9.1656609"
       y2="49.291782"
       gradientUnits="userSpaceOnUse"
       gradientTransform="translate(1.2620407,-0.92030858)" />
    <linearGradient
       inkscape:collect="always"
       id="linearGradient1174">
      <stop
         style="stop-color:#ffffff;stop-opacity:1;"
         offset="0"
         id="stop1170" />
      <stop
         style="stop-color:#0e66d2;stop-opacity:1"
         offset="1"
         id="stop1172" />
    </linearGradient>
  </defs>
  <sodipodi:namedview
     id="base"
     pagecolor="#ffffff"
     bordercolor="#666666"
     borderopacity="1.0"
     inkscape:pageopacity="0.0"
     inkscape:pageshadow="2"
     inkscape:zoom="0.9899495"
     inkscape:cx="-63.63961"
     inkscape:cy="-11.616754"
     inkscape:document-units="mm"
     inkscape:current-layer="layer1"
     inkscape:document-rotation="0"
     showgrid="false"
     units="px"
     inkscape:window-width="1920"
     inkscape:window-height="1030"
     inkscape:window-x="0"
     inkscape:window-y="24"
     inkscape:window-maximized="1"
     inkscape:pagecheckerboard="0"
     inkscape:lockguides="false" />
  <metadata
     id="metadata1012">
    <rdf:RDF>
      <cc:Work
         rdf:about="">
        <dc:format>image/svg+xml</dc:format>
        <dc:type
           rdf:resource="http://purl.org/dc/dcmitype/StillImage" />
      </cc:Work>
    </rdf:RDF>
  </metadata>
  <g
     inkscape:label="Capa 1"
     inkscape:groupmode="layer"
     id="layer1">
    <circle
       style="opacity:0.309726;fill:url(#radialGradient898);fill-opacity:1;stroke-width:3;stroke-linecap:square;stroke-linejoin:round"
       id="path867"
       cx="17.203098"
       cy="16.511513"
       r="17.303919" />
    <circle
       style="fill:url(#linearGradient897);fill-opacity:1;stroke:#b1aaaa;stroke-width:0.0575565;stroke-linecap:square;stroke-opacity:0.992157"
       id="circle839"
       cx="17.203098"
       cy="16.511513"
       r="15.118138" />
    <circle
       style="fill:url(#radialGradient993);fill-opacity:1;stroke:none;stroke-width:0.0498826;stroke-linecap:square;stroke-opacity:1"
       id="circle839-3"
       cx="17.203098"
       cy="16.511513"
       r="13.102469" />
    <path
       style="fill:#002b60;fill-opacity:0.0923367;stroke-width:0.442498"
       d="m 13.352767,6.8666628 c -0.05738,-0.035439 -0.538057,0.282956 -0.923024,0.611894 -0.535003,0.4571385 -1.085443,1.2305213 -1.370708,1.9221023 -0.438527,1.0631129 -0.511355,2.3728119 -0.193594,3.4829479 0.197615,0.69039 0.826108,1.827251 1.005993,1.82012 0.04034,-0.0018 0.175666,-0.126938 0.300761,-0.27829 0.125416,-0.151974 0.229891,-0.294777 0.229891,-0.318045 0,-0.0233 -0.08844,-0.186221 -0.19532,-0.35953 -0.247964,-0.402117 -0.431237,-0.84541 -0.551395,-1.329225 -0.131236,-0.5284 -0.133795,-1.395276 -0.0035,-1.923831 0.258754,-1.0509059 0.851582,-1.9283369 1.735424,-2.5702943 0.198085,-0.1438796 0.361258,-0.2672552 0.361258,-0.2731054 0,-0.047832 -0.360873,-0.7631473 -0.395829,-0.7847435 z m 6.402401,0.088154 c -1.159996,-0.024836 -2.364606,0.3999195 -3.239228,0.9679655 -0.426704,0.2819828 -0.382255,0.3657838 0.06568,0.1244459 0.745472,-0.4016337 1.474281,-0.5607642 2.572022,-0.5617643 1.404347,-0.0012 2.187586,0.2177193 2.997237,0.8383262 l 0.342244,0.262733 0.437313,0.0035 c 0.239996,0.0023 0.533932,0.02111 0.653377,0.03975 0.315615,0.04915 0.361606,0.0496 0.388915,0.0052 C 24.030456,8.5319351 23.034235,7.8002849 22.455093,7.5218143 21.574952,7.0743325 20.639923,6.9765402 19.75516,6.9548688 Z m -5.470734,1.3534233 c -0.103022,0 -0.554994,0.185682 -0.878084,0.527195 -0.520515,0.550199 -0.851411,1.2037019 -0.99562,1.9670449 -0.145737,0.77144 -0.01825,1.76447 0.311131,2.423371 0.168617,0.337325 0.337138,0.594524 0.388915,0.594608 0.02534,4.7e-5 0.13234,-0.102788 0.238534,-0.228164 0.347639,-0.410457 0.333002,-0.341765 0.157293,-0.717331 -0.231659,-0.495158 -0.307477,-0.828111 -0.307675,-1.35688 -3.46e-4,-0.968829 0.465163,-1.9127589 1.208228,-2.4527559 0.131453,-0.09553 0.239257,-0.208241 0.240264,-0.250634 0.003,-0.120349 -0.296127,-0.506454 -0.362986,-0.506454 z m 2.050013,1.301567 c -1.222012,0 -2.212493,0.9904829 -2.212493,2.2124939 0,1.222011 0.990481,2.212494 2.212493,2.212494 1.22201,0 2.212493,-0.990483 2.212493,-2.212494 0,-1.222011 -0.990483,-2.2124939 -2.212493,-2.2124939 z m 6.19498,0 c -1.222012,0 -2.212493,0.9904829 -2.212493,2.2124939 0,1.222011 0.990481,2.212494 2.212493,2.212494 1.22201,0 2.212492,-0.990483 2.212492,-2.212494 0,-1.222011 -0.990482,-2.2124939 -2.212492,-2.2124939 z m -6.195845,0.8849989 c 0.732634,0 1.328361,0.593997 1.328361,1.326631 0,0.732635 -0.595727,1.32836 -1.328361,1.32836 -0.732635,0 -1.326631,-0.595725 -1.326631,-1.32836 0,-0.732634 0.593996,-1.326631 1.326631,-1.326631 z m 6.194981,0 c 0.732633,0 1.32836,0.593997 1.32836,1.326631 0,0.732635 -0.595727,1.32836 -1.32836,1.32836 -0.732636,0 -1.326631,-0.595725 -1.326631,-1.32836 0,-0.732634 0.593995,-1.326631 1.326631,-1.326631 z m -6.297827,0.502997 c -0.109862,0.0067 -0.207243,0.02057 -0.224707,0.03803 -0.01221,0.01221 -0.004,0.09043 0.01902,0.172851 0.07942,0.282897 -0.08287,0.458751 -0.34743,0.378544 -0.07094,-0.02151 -0.133962,-0.02504 -0.152108,-0.0069 -0.01708,0.01704 -0.02621,0.147843 -0.01902,0.29039 0.0107,0.210797 0.03243,0.28664 0.110615,0.404472 0.107019,0.161273 0.315472,0.313668 0.489169,0.357801 0.170505,0.04333 0.455086,0.01121 0.608435,-0.06742 0.416505,-0.213594 0.572701,-0.73351 0.345703,-1.14946 -0.110197,-0.201938 -0.334012,-0.376 -0.532382,-0.413113 -0.06611,-0.01238 -0.187436,-0.01187 -0.297303,-0.0052 z m 6.19498,0 c -0.109862,0.0067 -0.207243,0.02057 -0.224707,0.03803 -0.01221,0.01221 -0.004,0.09043 0.01902,0.172851 0.07942,0.282897 -0.08287,0.458751 -0.34743,0.378544 -0.07094,-0.02151 -0.133962,-0.02504 -0.152108,-0.0069 -0.01708,0.01704 -0.02621,0.147843 -0.01902,0.29039 0.0107,0.210797 0.03243,0.28664 0.110632,0.404472 0.107019,0.161273 0.31547,0.313668 0.489169,0.357801 0.170505,0.04333 0.455085,0.01121 0.608435,-0.06742 0.416504,-0.213594 0.572701,-0.73351 0.345703,-1.14946 -0.110197,-0.20194 -0.334014,-0.376 -0.532382,-0.413113 -0.06611,-0.01238 -0.187438,-0.01187 -0.297303,-0.0052 z m -2.99378,1.266996 c -0.295971,-8.7e-5 -0.469645,0.130032 -0.606706,0.457192 -0.116819,0.278829 -0.04743,0.945933 0.149516,1.416513 0.112154,0.267929 0.41893,0.781287 0.466698,0.781287 0.01639,0 0.08963,-0.08141 0.160755,-0.181493 0.283969,-0.399526 0.485392,-1.082909 0.492624,-1.666284 0.0038,-0.304656 -0.0038,-0.339148 -0.105431,-0.492624 -0.148595,-0.224794 -0.30706,-0.314509 -0.557444,-0.314591 z m 6.224365,0.668935 c -0.03295,0.0079 -0.342324,0.287911 -0.687948,0.622263 l -0.627447,0.608435 -0.02938,0.655106 c -0.128309,2.982707 -1.138293,5.403275 -3.043904,7.290854 -1.440108,1.426484 -3.610804,2.602856 -5.835451,3.14416 -0.679761,0.165404 -2.382299,0.410949 -2.440657,0.352616 -0.02741,-0.02741 0.01321,-0.12473 0.114077,-0.276562 0.375338,-0.565124 0.669378,-1.304001 0.808944,-2.034456 0.137257,-0.718328 0.152192,-1.212604 0.06914,-2.248792 -0.0916,-1.142822 -0.0685,-1.915477 0.05877,-2.508067 0.181715,-0.846096 0.546182,-1.514317 1.019821,-1.870248 0.578642,-0.434845 1.116598,-0.627449 1.756166,-0.627449 1.451644,0 2.918667,1.016285 3.212436,2.390529 0.08996,0.42083 0.05536,1.352481 -0.06914,1.970502 -0.289176,1.435563 -1.213476,2.469591 -2.294596,3.386151 -0.206989,0.175477 -0.445601,0.383567 -0.530654,0.461512 l -0.153831,0.141739 0.129647,-0.0484 c 0.07166,-0.02586 0.326336,-0.163381 0.565223,-0.305946 1.798788,-1.073514 2.984125,-2.161683 3.368001,-3.980759 0.117405,-0.556309 0.165889,-1.569024 0.09162,-1.996428 -0.121419,-0.698727 -0.540877,-1.431789 -1.146001,-2.001614 -1.24989,-1.176988 -3.176683,-1.450263 -4.750811,-0.713876 -0.808398,0.378176 -1.508235,1.012717 -1.851233,1.678384 -0.564651,1.095842 -0.660049,2.148777 -0.299032,4.02397 0.121553,0.631402 0.178036,1.125927 0.178036,1.562574 0,1.394404 -0.488492,2.712561 -1.363794,3.676541 -0.133528,0.147041 -0.243721,0.277962 -0.243721,0.292118 0,0.0436 0.105765,0.02943 0.625722,-0.08297 0.27588,-0.05962 0.91762,-0.16781 1.42602,-0.240262 1.948939,-0.27776 3.341953,-0.697608 4.96428,-1.498617 2.005331,-0.990107 3.574756,-2.315753 4.770688,-3.998044 1.222664,-1.719888 1.990832,-3.922555 2.177922,-6.246836 0.08874,-1.102401 0.09727,-1.593717 0.03111,-1.578128 z"
       id="path2648" />
    <path
       style="fill:#002b60;fill-opacity:0.0923367;stroke-width:0.442498"
       d="m 13.24902,6.6027325 c -0.05738,-0.035439 -0.538057,0.282956 -0.923024,0.611894 -0.535003,0.4571385 -1.085443,1.2305216 -1.370709,1.9221016 -0.438526,1.0631139 -0.511354,2.3728129 -0.193593,3.4829489 0.197614,0.69039 0.826108,1.827251 1.005993,1.82012 0.04034,-0.0018 0.175666,-0.126938 0.300761,-0.27829 0.125416,-0.151974 0.229891,-0.294777 0.229891,-0.318045 0,-0.0233 -0.08844,-0.186221 -0.19532,-0.35953 -0.247964,-0.402117 -0.431237,-0.84541 -0.551395,-1.329225 -0.131236,-0.5284 -0.133795,-1.395276 -0.0035,-1.923831 0.258754,-1.0509069 0.851582,-1.9283369 1.735424,-2.5702946 0.198085,-0.1438796 0.361258,-0.2672552 0.361258,-0.2731054 0,-0.047832 -0.360873,-0.7631473 -0.395829,-0.7847435 z m 6.402401,0.088154 c -1.159996,-0.024836 -2.364606,0.3999195 -3.239228,0.9679655 -0.426704,0.2819827 -0.382255,0.3657834 0.06568,0.1244459 0.745472,-0.4016337 1.474281,-0.5607642 2.572022,-0.5617643 1.404347,-0.0012 2.187586,0.2177193 2.997237,0.8383265 l 0.342244,0.262733 0.437313,0.0035 c 0.239996,0.0023 0.533932,0.02111 0.653377,0.03975 0.315615,0.04915 0.361606,0.0496 0.388915,0.0052 C 23.926711,8.2680111 22.930488,7.5363606 22.351346,7.25789 21.471205,6.8104082 20.536176,6.7126159 19.651413,6.6909445 Z M 14.180687,8.04431 c -0.103022,0 -0.554994,0.1856821 -0.878084,0.5271951 -0.520515,0.550198 -0.851411,1.203702 -0.99562,1.9670449 -0.145737,0.77144 -0.01825,1.76447 0.311131,2.423371 0.168617,0.337325 0.337138,0.594524 0.388915,0.594608 0.02534,4.7e-5 0.13234,-0.102788 0.238534,-0.228164 0.347639,-0.410457 0.333002,-0.341765 0.157293,-0.717331 -0.231659,-0.495158 -0.307477,-0.828111 -0.307675,-1.35688 -3.46e-4,-0.968829 0.465163,-1.9127589 1.208228,-2.4527559 0.131453,-0.09553 0.239257,-0.208242 0.240264,-0.250635 C 14.546673,8.4304151 14.247546,8.04431 14.180687,8.04431 Z M 16.2307,9.3458771 c -1.222012,0 -2.212493,0.9904829 -2.212493,2.2124939 0,1.222011 0.990481,2.212494 2.212493,2.212494 1.22201,0 2.212493,-0.990483 2.212493,-2.212494 0,-1.222011 -0.990483,-2.2124939 -2.212493,-2.2124939 z m 6.19498,0 c -1.222012,0 -2.212493,0.9904829 -2.212493,2.2124939 0,1.222011 0.990481,2.212494 2.212493,2.212494 1.22201,0 2.212492,-0.990483 2.212492,-2.212494 0,-1.222011 -0.990482,-2.2124939 -2.212492,-2.2124939 z m -6.195845,0.8849989 c 0.732634,0 1.328361,0.593997 1.328361,1.326631 0,0.732635 -0.595727,1.32836 -1.328361,1.32836 -0.732635,0 -1.326631,-0.595725 -1.326631,-1.32836 0,-0.732634 0.593996,-1.326631 1.326631,-1.326631 z m 6.194981,0 c 0.732633,0 1.32836,0.593997 1.32836,1.326631 0,0.732635 -0.595727,1.32836 -1.32836,1.32836 -0.732636,0 -1.326631,-0.595725 -1.326631,-1.32836 0,-0.732634 0.593995,-1.326631 1.326631,-1.326631 z m -6.297827,0.502997 c -0.109862,0.0067 -0.207243,0.02057 -0.224707,0.03803 -0.01221,0.01221 -0.004,0.09043 0.01902,0.172851 0.07942,0.282897 -0.08287,0.458751 -0.34743,0.378544 -0.07094,-0.02151 -0.133962,-0.02504 -0.152108,-0.0069 -0.01708,0.01704 -0.02621,0.147843 -0.01902,0.29039 0.0107,0.210797 0.03243,0.28664 0.110615,0.404472 0.107019,0.161273 0.315472,0.313668 0.489169,0.357801 0.170505,0.04333 0.455086,0.01121 0.608435,-0.06742 0.416505,-0.213594 0.572701,-0.73351 0.345703,-1.14946 -0.110197,-0.201938 -0.334012,-0.376 -0.532382,-0.413113 -0.06611,-0.01238 -0.187436,-0.01187 -0.297303,-0.0052 z m 6.19498,0 c -0.109862,0.0067 -0.207243,0.02057 -0.224707,0.03803 -0.01221,0.01221 -0.004,0.09043 0.01902,0.172851 0.07942,0.282897 -0.08287,0.458751 -0.34743,0.378544 -0.07094,-0.02151 -0.133962,-0.02504 -0.152108,-0.0069 -0.01708,0.01704 -0.02621,0.147843 -0.01902,0.29039 0.0107,0.210797 0.03243,0.28664 0.110632,0.404472 0.107019,0.161273 0.31547,0.313668 0.489169,0.357801 0.170505,0.04333 0.455085,0.01121 0.608435,-0.06742 0.416504,-0.213594 0.572701,-0.73351 0.345703,-1.14946 -0.110197,-0.20194 -0.334014,-0.376 -0.532382,-0.413113 -0.06611,-0.01238 -0.187438,-0.01187 -0.297303,-0.0052 z m -2.99378,1.266996 c -0.295971,-8.7e-5 -0.469645,0.130032 -0.606706,0.457192 -0.116819,0.278829 -0.04743,0.945933 0.149516,1.416513 0.112154,0.267929 0.41893,0.781287 0.466698,0.781287 0.01639,0 0.08963,-0.08141 0.160755,-0.181493 0.283969,-0.399526 0.485392,-1.082909 0.492624,-1.666284 0.0038,-0.304656 -0.0038,-0.339148 -0.105431,-0.492624 -0.148595,-0.224794 -0.30706,-0.314509 -0.557444,-0.314591 z m 6.224365,0.668935 c -0.03295,0.0079 -0.342324,0.287911 -0.687948,0.622263 l -0.627447,0.608435 -0.02938,0.655106 c -0.128309,2.982707 -1.138293,5.403275 -3.043904,7.290854 -1.440108,1.426484 -3.610804,2.602856 -5.835451,3.14416 -0.679761,0.165404 -2.382299,0.410949 -2.440657,0.352616 -0.02741,-0.02741 0.01321,-0.12473 0.114077,-0.276562 0.375338,-0.565124 0.669378,-1.304001 0.808944,-2.034456 0.137257,-0.718328 0.152192,-1.212604 0.06914,-2.248792 -0.0916,-1.142822 -0.0685,-1.915477 0.05877,-2.508067 0.181715,-0.846096 0.546182,-1.514317 1.019821,-1.870248 0.578642,-0.434845 1.116598,-0.627449 1.756166,-0.627449 1.451644,0 2.918667,1.016285 3.212436,2.390529 0.08996,0.42083 0.05536,1.352481 -0.06914,1.970502 -0.289176,1.435563 -1.213476,2.469591 -2.294596,3.386151 -0.206989,0.175477 -0.445601,0.383567 -0.530654,0.461512 l -0.153831,0.141739 0.129647,-0.0484 c 0.07166,-0.02586 0.326336,-0.163381 0.565223,-0.305946 1.798788,-1.073514 2.984125,-2.161683 3.368001,-3.980759 0.117405,-0.556309 0.165889,-1.569024 0.09162,-1.996428 -0.121419,-0.698727 -0.540877,-1.431789 -1.146001,-2.001614 -1.24989,-1.176988 -3.176683,-1.450263 -4.750811,-0.713876 -0.808398,0.378176 -1.508235,1.012717 -1.851233,1.678384 -0.564651,1.095842 -0.660049,2.148777 -0.299032,4.02397 0.121553,0.631402 0.178036,1.125927 0.178036,1.562574 0,1.394404 -0.488492,2.712561 -1.363794,3.676541 -0.133528,0.147041 -0.243721,0.277962 -0.243721,0.292118 0,0.0436 0.105765,0.02943 0.625722,-0.08297 0.27588,-0.05962 0.91762,-0.16781 1.42602,-0.240262 1.948939,-0.27776 3.341953,-0.697608 4.96428,-1.498617 2.005331,-0.990107 3.574756,-2.315753 4.770688,-3.998044 1.222664,-1.719888 1.990832,-3.922555 2.177922,-6.246836 0.08874,-1.102401 0.09727,-1.593717 0.03111,-1.578128 z"
       id="path2466" />
    <path
       style="fill:url(#linearGradient1176);fill-opacity:1;stroke-width:0.442498"
       d="m 13.110621,6.3843565 c -0.05738,-0.035439 -0.538057,0.282956 -0.923024,0.611894 -0.535003,0.4571385 -1.085443,1.2305216 -1.370709,1.9221016 -0.438527,1.063114 -0.511355,2.3728129 -0.193594,3.4829489 0.197615,0.69039 0.826109,1.827251 1.005994,1.82012 0.04034,-0.0018 0.175666,-0.126938 0.300761,-0.27829 0.125416,-0.151974 0.229891,-0.294777 0.229891,-0.318045 0,-0.0233 -0.08844,-0.186221 -0.19532,-0.35953 -0.247964,-0.402117 -0.431237,-0.84541 -0.551395,-1.329225 -0.131236,-0.5284 -0.133795,-1.395276 -0.0035,-1.923831 0.258754,-1.0509069 0.851582,-1.9283369 1.735424,-2.5702946 0.198085,-0.1438796 0.361258,-0.2672552 0.361258,-0.2731054 0,-0.047832 -0.360873,-0.7631473 -0.395829,-0.7847435 z m 6.402401,0.088154 C 18.353026,6.4476745 17.148416,6.87243 16.273794,7.440476 c -0.426704,0.2819827 -0.382255,0.3657834 0.06568,0.1244459 0.745472,-0.4016337 1.474281,-0.5607642 2.572022,-0.5617643 1.404347,-0.0012 2.187586,0.2177193 2.997237,0.8383266 l 0.342244,0.2627329 0.437313,0.0035 c 0.239996,0.0023 0.533932,0.02111 0.653377,0.03975 0.315615,0.04915 0.361606,0.0496 0.388915,0.0052 C 23.78831,8.0496289 22.792089,7.3179786 22.212947,7.039508 21.332806,6.5920262 20.397777,6.4942339 19.513014,6.4725625 Z M 14.042288,7.825934 c -0.103022,0 -0.554994,0.1856822 -0.878084,0.5271951 -0.520515,0.550198 -0.851411,1.203702 -0.99562,1.9670449 -0.145737,0.77144 -0.01825,1.76447 0.311131,2.423371 0.168617,0.337325 0.337138,0.594524 0.388915,0.594608 0.02534,4.7e-5 0.13234,-0.102788 0.238534,-0.228164 0.347639,-0.410457 0.333002,-0.341765 0.157293,-0.717331 -0.231659,-0.495158 -0.307477,-0.828111 -0.307675,-1.35688 -3.46e-4,-0.968829 0.465163,-1.9127589 1.208228,-2.4527559 0.131453,-0.09553 0.239257,-0.208242 0.240264,-0.250635 0.003,-0.120348 -0.296127,-0.5064531 -0.362986,-0.5064531 z m 2.050013,1.3015671 c -1.222012,0 -2.212493,0.9904829 -2.212493,2.2124939 0,1.222011 0.990481,2.212494 2.212493,2.212494 1.22201,0 2.212493,-0.990483 2.212493,-2.212494 0,-1.222011 -0.990483,-2.2124939 -2.212493,-2.2124939 z m 6.19498,0 c -1.222012,0 -2.212493,0.9904829 -2.212493,2.2124939 0,1.222011 0.990481,2.212494 2.212493,2.212494 1.22201,0 2.212492,-0.990483 2.212492,-2.212494 0,-1.222011 -0.990482,-2.2124939 -2.212492,-2.2124939 z M 16.091436,10.0125 c 0.732634,0 1.328361,0.593997 1.328361,1.326631 0,0.732635 -0.595727,1.32836 -1.328361,1.32836 -0.732635,0 -1.326631,-0.595725 -1.326631,-1.32836 0,-0.732634 0.593996,-1.326631 1.326631,-1.326631 z m 6.194981,0 c 0.732633,0 1.32836,0.593997 1.32836,1.326631 0,0.732635 -0.595727,1.32836 -1.32836,1.32836 -0.732636,0 -1.326631,-0.595725 -1.326631,-1.32836 0,-0.732634 0.593995,-1.326631 1.326631,-1.326631 z m -6.297827,0.502997 c -0.109862,0.0067 -0.207243,0.02057 -0.224707,0.03803 -0.01221,0.01221 -0.004,0.09043 0.01902,0.172851 0.07942,0.282897 -0.08287,0.458751 -0.34743,0.378544 -0.07094,-0.02151 -0.133962,-0.02504 -0.152108,-0.0069 -0.01708,0.01704 -0.02621,0.147843 -0.01902,0.29039 0.0107,0.210797 0.03243,0.28664 0.110615,0.404472 0.107019,0.161273 0.315472,0.313668 0.489169,0.357801 0.170505,0.04333 0.455086,0.01121 0.608435,-0.06742 0.416505,-0.213594 0.572701,-0.73351 0.345703,-1.14946 -0.110197,-0.201938 -0.334012,-0.376 -0.532382,-0.413113 -0.06611,-0.01238 -0.187436,-0.01187 -0.297303,-0.0052 z m 6.19498,0 c -0.109862,0.0067 -0.207243,0.02057 -0.224707,0.03803 -0.01221,0.01221 -0.004,0.09043 0.01902,0.172851 0.07942,0.282897 -0.08287,0.458751 -0.34743,0.378544 -0.07094,-0.02151 -0.133962,-0.02504 -0.152108,-0.0069 -0.01708,0.01704 -0.02621,0.147843 -0.01902,0.29039 0.0107,0.210797 0.03243,0.28664 0.110632,0.404472 0.107019,0.161273 0.31547,0.313668 0.489169,0.357801 0.170505,0.04333 0.455085,0.01121 0.608435,-0.06742 0.416504,-0.213594 0.572701,-0.73351 0.345703,-1.14946 -0.110197,-0.20194 -0.334014,-0.376 -0.532382,-0.413113 -0.06611,-0.01238 -0.187438,-0.01187 -0.297303,-0.0052 z m -2.99378,1.266996 c -0.295971,-8.7e-5 -0.469645,0.130032 -0.606706,0.457192 -0.116819,0.278829 -0.04743,0.945933 0.149516,1.416513 0.112154,0.267929 0.41893,0.781287 0.466698,0.781287 0.01639,0 0.08963,-0.08141 0.160755,-0.181493 0.283969,-0.399526 0.485392,-1.082909 0.492624,-1.666284 0.0038,-0.304656 -0.0038,-0.339148 -0.105431,-0.492624 -0.148595,-0.224794 -0.30706,-0.314509 -0.557444,-0.314591 z m 6.224365,0.668935 c -0.03295,0.0079 -0.342324,0.287911 -0.687948,0.622263 l -0.627447,0.608435 -0.02938,0.655106 c -0.128309,2.982707 -1.138293,5.403275 -3.043904,7.290854 -1.440108,1.426484 -3.610804,2.602856 -5.835451,3.14416 -0.679761,0.165404 -2.382299,0.410949 -2.440657,0.352616 -0.02741,-0.02741 0.01321,-0.12473 0.114077,-0.276562 0.375338,-0.565124 0.669378,-1.304001 0.808944,-2.034456 0.137257,-0.718328 0.152192,-1.212604 0.06914,-2.248792 -0.0916,-1.142822 -0.0685,-1.915477 0.05877,-2.508067 0.181715,-0.846096 0.546182,-1.514317 1.019821,-1.870248 0.578642,-0.434845 1.116598,-0.627449 1.756166,-0.627449 1.451644,0 2.918667,1.016285 3.212436,2.390529 0.08996,0.42083 0.05536,1.352481 -0.06914,1.970502 -0.289176,1.435563 -1.213476,2.469591 -2.294596,3.386151 -0.206989,0.175477 -0.445601,0.383567 -0.530654,0.461512 l -0.153831,0.141739 0.129647,-0.0484 c 0.07166,-0.02586 0.326336,-0.163381 0.565223,-0.305946 1.798788,-1.073514 2.984125,-2.161683 3.368001,-3.980759 0.117405,-0.556309 0.165889,-1.569024 0.09162,-1.996428 -0.121419,-0.698727 -0.540877,-1.431789 -1.146001,-2.001614 -1.24989,-1.176988 -3.176683,-1.450263 -4.750811,-0.713876 -0.808398,0.378176 -1.508235,1.012717 -1.851233,1.678384 -0.564651,1.095842 -0.660049,2.148777 -0.299032,4.02397 0.121553,0.631402 0.178036,1.125927 0.178036,1.562574 0,1.394404 -0.488492,2.712561 -1.363794,3.676541 -0.133528,0.147041 -0.243721,0.277962 -0.243721,0.292118 0,0.0436 0.105765,0.02943 0.625722,-0.08297 0.27588,-0.05962 0.91762,-0.16781 1.42602,-0.240262 1.948939,-0.27776 3.341953,-0.697608 4.96428,-1.498617 2.005331,-0.990107 3.574756,-2.315753 4.770688,-3.998044 1.222664,-1.719888 1.990832,-3.922555 2.177922,-6.246836 0.08874,-1.102401 0.09727,-1.593717 0.03111,-1.578128 z"
       id="path8" />
  </g>
</svg>
