<?xml version="1.0" encoding="UTF-8" standalone="no"?>
<!-- Created with Inkscape (http://www.inkscape.org/) -->

<svg
   xmlns:dc="http://purl.org/dc/elements/1.1/"
   xmlns:cc="http://creativecommons.org/ns#"
   xmlns:rdf="http://www.w3.org/1999/02/22-rdf-syntax-ns#"
   xmlns:svg="http://www.w3.org/2000/svg"
   xmlns="http://www.w3.org/2000/svg"
   xmlns:xlink="http://www.w3.org/1999/xlink"
   xmlns:sodipodi="http://sodipodi.sourceforge.net/DTD/sodipodi-0.dtd"
   xmlns:inkscape="http://www.inkscape.org/namespaces/inkscape"
   version="1.1"
   id="svg2"
   width="128"
   height="128"
   viewBox="0 0 128 128"
   sodipodi:docname="apper.svg"
   inkscape:version="0.92.4 5da689c313, 2019-01-14">
  <metadata
     id="metadata8">
    <rdf:RDF>
      <cc:Work
         rdf:about="">
        <dc:format>image/svg+xml</dc:format>
        <dc:type
           rdf:resource="http://purl.org/dc/dcmitype/StillImage" />
        <dc:title />
      </cc:Work>
    </rdf:RDF>
  </metadata>
  <defs
     id="defs6">
    <linearGradient
       inkscape:collect="always"
       id="linearGradient833">
      <stop
         style="stop-color:#1174f7;stop-opacity:1"
         offset="0"
         id="stop829" />
      <stop
         style="stop-color:#02bffd;stop-opacity:1"
         offset="1"
         id="stop831" />
    </linearGradient>
    <linearGradient
       inkscape:collect="always"
       id="linearGradient823">
      <stop
         style="stop-color:#012fcc;stop-opacity:1"
         offset="0"
         id="stop819" />
      <stop
         style="stop-color:#01c2fe;stop-opacity:1"
         offset="1"
         id="stop821" />
    </linearGradient>
    <linearGradient
       inkscape:collect="always"
       xlink:href="#linearGradient823"
       id="linearGradient825"
       x1="-741.83197"
       y1="959.04749"
       x2="-741.83197"
       y2="93.836403"
       gradientUnits="userSpaceOnUse"
       gradientTransform="matrix(0.13667801,0,0,0.13667801,162.31231,-5.989337)" />
    <linearGradient
       inkscape:collect="always"
       xlink:href="#linearGradient833"
       id="linearGradient835"
       x1="-738.76385"
       y1="931.43433"
       x2="-738.76385"
       y2="152.13077"
       gradientUnits="userSpaceOnUse"
       gradientTransform="matrix(0.13667801,0,0,0.13667801,162.31231,-5.989337)" />
  </defs>
  <sodipodi:namedview
     pagecolor="#ffffff"
     bordercolor="#666666"
     borderopacity="1"
     objecttolerance="10"
     gridtolerance="10"
     guidetolerance="10"
     inkscape:pageopacity="0"
     inkscape:pageshadow="2"
     inkscape:window-width="1920"
     inkscape:window-height="1030"
     id="namedview4"
     showgrid="false"
     inkscape:zoom="3.6875"
     inkscape:cx="99.315916"
     inkscape:cy="42.694467"
     inkscape:window-x="0"
     inkscape:window-y="26"
     inkscape:window-maximized="1"
     inkscape:current-layer="svg2" />
  <circle
     style="opacity:1;fill:url(#linearGradient825);fill-opacity:1;stroke:none;stroke-width:0.78699166;stroke-linecap:round;stroke-linejoin:round;stroke-miterlimit:4;stroke-dasharray:none;stroke-opacity:1"
     id="path817"
     cx="63.591888"
     cy="64.286316"
     r="61.380009" />
  <circle
     r="55.089832"
     cy="64.286316"
     cx="63.591888"
     id="circle827"
     style="opacity:1;fill:url(#linearGradient835);fill-opacity:1;stroke:none;stroke-width:0.70634133;stroke-linecap:round;stroke-linejoin:round;stroke-miterlimit:4;stroke-dasharray:none;stroke-opacity:1" />
  <g
     id="g998"
     transform="matrix(0.13667801,0,0,0.13667801,80.365693,60.896823)"
     style="opacity:0.40500004">
    <path
       id="path868-1-8"
       d="m -172.43046,-245.27168 c -5.87522,0.15304 -11.80389,1.72434 -17.2532,4.87086 -17.43862,10.06909 -23.40129,32.36157 -13.33179,49.8001 l 37.25857,64.52339 -119.13029,206.36403 h -93.00598 c -20.13736,0 -36.45212,16.3146 -36.45212,36.4526 0,20.13803 16.31476,36.45253 36.45212,36.45253 h 331.536531 c 16.01977,-29.79325 -4.6214,-72.90513 -41.2127,-72.90513 H -200.73856 l 156.390421,-270.88742 c 10.06901,-17.43853 4.10682,-39.73101 -13.33163,-49.8001 -17.43854,-10.06901 -39.73103,-4.09095 -49.800191,13.3475 0,0 -8.08248,28.02706 -16.19411,28.07086 -8.09867,0 -16.20948,-28.07086 -16.20948,-28.07086 -6.92298,-11.98897 -19.62079,-18.55577 -32.54691,-18.21836 z m 102.636691,139.57924 c -21.5567,17.81294 -43.355741,70.7194 -12.87302,123.52749 44.946,77.83289 89.8927304,155.68484 134.81907,233.51775 10.06901,17.43845 32.36148,23.40064 49.800019,13.33163 17.43853,-10.06901 23.40064,-32.3457 13.33163,-49.78424 L 79.669611,153.17604 h 52.773179 c 20.13802,0 36.45253,-16.31458 36.45253,-36.4526 0,-20.13801 -16.31451,-36.45252 -36.45253,-36.45252 H 37.571271 C 1.7878114,18.28046 -34.010309,-43.70198 -69.793769,-105.69244 Z m -237.091471,270.4131 c -11.05572,0.49473 -21.40456,6.18857 -27.15428,16.14666 l -26.21986,45.41934 c -9.19906,15.93299 -3.05421,36.57342 13.7739,46.28923 16.8289,9.71581 37.7865,4.72043 46.98557,-11.21247 l 26.22068,-45.41944 c 9.19824,-15.93297 3.05339,-36.5892 -13.7747,-46.30502 -6.31085,-3.64342 -13.1982,-5.21513 -19.83131,-4.9183 z"
       style="opacity:1;fill:none;fill-opacity:1;stroke:#064ead;stroke-width:1;stroke-linecap:round;stroke-linejoin:round;stroke-miterlimit:4;stroke-dasharray:none;stroke-opacity:0.01960784;filter:url(#d);image-rendering:optimizeSpeed"
       inkscape:connector-curvature="0" />
    <path
       inkscape:connector-curvature="0"
       style="opacity:1;fill:none;fill-opacity:1;stroke:#064ead;stroke-width:2;stroke-linecap:round;stroke-linejoin:round;stroke-miterlimit:4;stroke-dasharray:none;stroke-opacity:0.01960784;filter:url(#d);image-rendering:optimizeSpeed"
       d="m -172.43046,-245.27168 c -5.87522,0.15304 -11.80389,1.72434 -17.2532,4.87086 -17.43862,10.06909 -23.40129,32.36157 -13.33179,49.8001 l 37.25857,64.52339 -119.13029,206.36403 h -93.00598 c -20.13736,0 -36.45212,16.3146 -36.45212,36.4526 0,20.13803 16.31476,36.45253 36.45212,36.45253 h 331.536531 c 16.01977,-29.79325 -4.6214,-72.90513 -41.2127,-72.90513 H -200.73856 l 156.390421,-270.88742 c 10.06901,-17.43853 4.10682,-39.73101 -13.33163,-49.8001 -17.43854,-10.06901 -39.73103,-4.09095 -49.800191,13.3475 0,0 -8.08248,28.02706 -16.19411,28.07086 -8.09867,0 -16.20948,-28.07086 -16.20948,-28.07086 -6.92298,-11.98897 -19.62079,-18.55577 -32.54691,-18.21836 z m 102.636691,139.57924 c -21.5567,17.81294 -43.355741,70.7194 -12.87302,123.52749 44.946,77.83289 89.8927304,155.68484 134.81907,233.51775 10.06901,17.43845 32.36148,23.40064 49.800019,13.33163 17.43853,-10.06901 23.40064,-32.3457 13.33163,-49.78424 L 79.669611,153.17604 h 52.773179 c 20.13802,0 36.45253,-16.31458 36.45253,-36.4526 0,-20.13801 -16.31451,-36.45252 -36.45253,-36.45252 H 37.571271 C 1.7878114,18.28046 -34.010309,-43.70198 -69.793769,-105.69244 Z m -237.091471,270.4131 c -11.05572,0.49473 -21.40456,6.18857 -27.15428,16.14666 l -26.21986,45.41934 c -9.19906,15.93299 -3.05421,36.57342 13.7739,46.28923 16.8289,9.71581 37.7865,4.72043 46.98557,-11.21247 l 26.22068,-45.41944 c 9.19824,-15.93297 3.05339,-36.5892 -13.7747,-46.30502 -6.31085,-3.64342 -13.1982,-5.21513 -19.83131,-4.9183 z"
       id="path946" />
    <path
       id="path948"
       d="m -172.43046,-245.27168 c -5.87522,0.15304 -11.80389,1.72434 -17.2532,4.87086 -17.43862,10.06909 -23.40129,32.36157 -13.33179,49.8001 l 37.25857,64.52339 -119.13029,206.36403 h -93.00598 c -20.13736,0 -36.45212,16.3146 -36.45212,36.4526 0,20.13803 16.31476,36.45253 36.45212,36.45253 h 331.536531 c 16.01977,-29.79325 -4.6214,-72.90513 -41.2127,-72.90513 H -200.73856 l 156.390421,-270.88742 c 10.06901,-17.43853 4.10682,-39.73101 -13.33163,-49.8001 -17.43854,-10.06901 -39.73103,-4.09095 -49.800191,13.3475 0,0 -8.08248,28.02706 -16.19411,28.07086 -8.09867,0 -16.20948,-28.07086 -16.20948,-28.07086 -6.92298,-11.98897 -19.62079,-18.55577 -32.54691,-18.21836 z m 102.636691,139.57924 c -21.5567,17.81294 -43.355741,70.7194 -12.87302,123.52749 44.946,77.83289 89.8927304,155.68484 134.81907,233.51775 10.06901,17.43845 32.36148,23.40064 49.800019,13.33163 17.43853,-10.06901 23.40064,-32.3457 13.33163,-49.78424 L 79.669611,153.17604 h 52.773179 c 20.13802,0 36.45253,-16.31458 36.45253,-36.4526 0,-20.13801 -16.31451,-36.45252 -36.45253,-36.45252 H 37.571271 C 1.7878114,18.28046 -34.010309,-43.70198 -69.793769,-105.69244 Z m -237.091471,270.4131 c -11.05572,0.49473 -21.40456,6.18857 -27.15428,16.14666 l -26.21986,45.41934 c -9.19906,15.93299 -3.05421,36.57342 13.7739,46.28923 16.8289,9.71581 37.7865,4.72043 46.98557,-11.21247 l 26.22068,-45.41944 c 9.19824,-15.93297 3.05339,-36.5892 -13.7747,-46.30502 -6.31085,-3.64342 -13.1982,-5.21513 -19.83131,-4.9183 z"
       style="opacity:1;fill:none;fill-opacity:1;stroke:#064ead;stroke-width:3;stroke-linecap:round;stroke-linejoin:round;stroke-miterlimit:4;stroke-dasharray:none;stroke-opacity:0.01960784;filter:url(#d);image-rendering:optimizeSpeed"
       inkscape:connector-curvature="0" />
    <path
       inkscape:connector-curvature="0"
       style="opacity:1;fill:none;fill-opacity:1;stroke:#064ead;stroke-width:4;stroke-linecap:round;stroke-linejoin:round;stroke-miterlimit:4;stroke-dasharray:none;stroke-opacity:0.01960784;filter:url(#d);image-rendering:optimizeSpeed"
       d="m -172.43046,-245.27168 c -5.87522,0.15304 -11.80389,1.72434 -17.2532,4.87086 -17.43862,10.06909 -23.40129,32.36157 -13.33179,49.8001 l 37.25857,64.52339 -119.13029,206.36403 h -93.00598 c -20.13736,0 -36.45212,16.3146 -36.45212,36.4526 0,20.13803 16.31476,36.45253 36.45212,36.45253 h 331.536531 c 16.01977,-29.79325 -4.6214,-72.90513 -41.2127,-72.90513 H -200.73856 l 156.390421,-270.88742 c 10.06901,-17.43853 4.10682,-39.73101 -13.33163,-49.8001 -17.43854,-10.06901 -39.73103,-4.09095 -49.800191,13.3475 0,0 -8.08248,28.02706 -16.19411,28.07086 -8.09867,0 -16.20948,-28.07086 -16.20948,-28.07086 -6.92298,-11.98897 -19.62079,-18.55577 -32.54691,-18.21836 z m 102.636691,139.57924 c -21.5567,17.81294 -43.355741,70.7194 -12.87302,123.52749 44.946,77.83289 89.8927304,155.68484 134.81907,233.51775 10.06901,17.43845 32.36148,23.40064 49.800019,13.33163 17.43853,-10.06901 23.40064,-32.3457 13.33163,-49.78424 L 79.669611,153.17604 h 52.773179 c 20.13802,0 36.45253,-16.31458 36.45253,-36.4526 0,-20.13801 -16.31451,-36.45252 -36.45253,-36.45252 H 37.571271 C 1.7878114,18.28046 -34.010309,-43.70198 -69.793769,-105.69244 Z m -237.091471,270.4131 c -11.05572,0.49473 -21.40456,6.18857 -27.15428,16.14666 l -26.21986,45.41934 c -9.19906,15.93299 -3.05421,36.57342 13.7739,46.28923 16.8289,9.71581 37.7865,4.72043 46.98557,-11.21247 l 26.22068,-45.41944 c 9.19824,-15.93297 3.05339,-36.5892 -13.7747,-46.30502 -6.31085,-3.64342 -13.1982,-5.21513 -19.83131,-4.9183 z"
       id="path950" />
    <path
       id="path952"
       d="m -172.43046,-245.27168 c -5.87522,0.15304 -11.80389,1.72434 -17.2532,4.87086 -17.43862,10.06909 -23.40129,32.36157 -13.33179,49.8001 l 37.25857,64.52339 -119.13029,206.36403 h -93.00598 c -20.13736,0 -36.45212,16.3146 -36.45212,36.4526 0,20.13803 16.31476,36.45253 36.45212,36.45253 h 331.536531 c 16.01977,-29.79325 -4.6214,-72.90513 -41.2127,-72.90513 H -200.73856 l 156.390421,-270.88742 c 10.06901,-17.43853 4.10682,-39.73101 -13.33163,-49.8001 -17.43854,-10.06901 -39.73103,-4.09095 -49.800191,13.3475 0,0 -8.08248,28.02706 -16.19411,28.07086 -8.09867,0 -16.20948,-28.07086 -16.20948,-28.07086 -6.92298,-11.98897 -19.62079,-18.55577 -32.54691,-18.21836 z m 102.636691,139.57924 c -21.5567,17.81294 -43.355741,70.7194 -12.87302,123.52749 44.946,77.83289 89.8927304,155.68484 134.81907,233.51775 10.06901,17.43845 32.36148,23.40064 49.800019,13.33163 17.43853,-10.06901 23.40064,-32.3457 13.33163,-49.78424 L 79.669611,153.17604 h 52.773179 c 20.13802,0 36.45253,-16.31458 36.45253,-36.4526 0,-20.13801 -16.31451,-36.45252 -36.45253,-36.45252 H 37.571271 C 1.7878114,18.28046 -34.010309,-43.70198 -69.793769,-105.69244 Z m -237.091471,270.4131 c -11.05572,0.49473 -21.40456,6.18857 -27.15428,16.14666 l -26.21986,45.41934 c -9.19906,15.93299 -3.05421,36.57342 13.7739,46.28923 16.8289,9.71581 37.7865,4.72043 46.98557,-11.21247 l 26.22068,-45.41944 c 9.19824,-15.93297 3.05339,-36.5892 -13.7747,-46.30502 -6.31085,-3.64342 -13.1982,-5.21513 -19.83131,-4.9183 z"
       style="opacity:1;fill:none;fill-opacity:1;stroke:#064ead;stroke-width:5;stroke-linecap:round;stroke-linejoin:round;stroke-miterlimit:4;stroke-dasharray:none;stroke-opacity:0.01960784;filter:url(#d);image-rendering:optimizeSpeed"
       inkscape:connector-curvature="0" />
    <path
       inkscape:connector-curvature="0"
       style="opacity:1;fill:none;fill-opacity:1;stroke:#064ead;stroke-width:8;stroke-linecap:round;stroke-linejoin:round;stroke-miterlimit:4;stroke-dasharray:none;stroke-opacity:0.01960784;filter:url(#d);image-rendering:optimizeSpeed"
       d="m -172.43046,-245.27168 c -5.87522,0.15304 -11.80389,1.72434 -17.2532,4.87086 -17.43862,10.06909 -23.40129,32.36157 -13.33179,49.8001 l 37.25857,64.52339 -119.13029,206.36403 h -93.00598 c -20.13736,0 -36.45212,16.3146 -36.45212,36.4526 0,20.13803 16.31476,36.45253 36.45212,36.45253 h 331.536531 c 16.01977,-29.79325 -4.6214,-72.90513 -41.2127,-72.90513 H -200.73856 l 156.390421,-270.88742 c 10.06901,-17.43853 4.10682,-39.73101 -13.33163,-49.8001 -17.43854,-10.06901 -39.73103,-4.09095 -49.800191,13.3475 0,0 -8.08248,28.02706 -16.19411,28.07086 -8.09867,0 -16.20948,-28.07086 -16.20948,-28.07086 -6.92298,-11.98897 -19.62079,-18.55577 -32.54691,-18.21836 z m 102.636691,139.57924 c -21.5567,17.81294 -43.355741,70.7194 -12.87302,123.52749 44.946,77.83289 89.8927304,155.68484 134.81907,233.51775 10.06901,17.43845 32.36148,23.40064 49.800019,13.33163 17.43853,-10.06901 23.40064,-32.3457 13.33163,-49.78424 L 79.669611,153.17604 h 52.773179 c 20.13802,0 36.45253,-16.31458 36.45253,-36.4526 0,-20.13801 -16.31451,-36.45252 -36.45253,-36.45252 H 37.571271 C 1.7878114,18.28046 -34.010309,-43.70198 -69.793769,-105.69244 Z m -237.091471,270.4131 c -11.05572,0.49473 -21.40456,6.18857 -27.15428,16.14666 l -26.21986,45.41934 c -9.19906,15.93299 -3.05421,36.57342 13.7739,46.28923 16.8289,9.71581 37.7865,4.72043 46.98557,-11.21247 l 26.22068,-45.41944 c 9.19824,-15.93297 3.05339,-36.5892 -13.7747,-46.30502 -6.31085,-3.64342 -13.1982,-5.21513 -19.83131,-4.9183 z"
       id="path954" />
    <path
       id="path956"
       d="m -172.43046,-245.27168 c -5.87522,0.15304 -11.80389,1.72434 -17.2532,4.87086 -17.43862,10.06909 -23.40129,32.36157 -13.33179,49.8001 l 37.25857,64.52339 -119.13029,206.36403 h -93.00598 c -20.13736,0 -36.45212,16.3146 -36.45212,36.4526 0,20.13803 16.31476,36.45253 36.45212,36.45253 h 331.536531 c 16.01977,-29.79325 -4.6214,-72.90513 -41.2127,-72.90513 H -200.73856 l 156.390421,-270.88742 c 10.06901,-17.43853 4.10682,-39.73101 -13.33163,-49.8001 -17.43854,-10.06901 -39.73103,-4.09095 -49.800191,13.3475 0,0 -8.08248,28.02706 -16.19411,28.07086 -8.09867,0 -16.20948,-28.07086 -16.20948,-28.07086 -6.92298,-11.98897 -19.62079,-18.55577 -32.54691,-18.21836 z m 102.636691,139.57924 c -21.5567,17.81294 -43.355741,70.7194 -12.87302,123.52749 44.946,77.83289 89.8927304,155.68484 134.81907,233.51775 10.06901,17.43845 32.36148,23.40064 49.800019,13.33163 17.43853,-10.06901 23.40064,-32.3457 13.33163,-49.78424 L 79.669611,153.17604 h 52.773179 c 20.13802,0 36.45253,-16.31458 36.45253,-36.4526 0,-20.13801 -16.31451,-36.45252 -36.45253,-36.45252 H 37.571271 C 1.7878114,18.28046 -34.010309,-43.70198 -69.793769,-105.69244 Z m -237.091471,270.4131 c -11.05572,0.49473 -21.40456,6.18857 -27.15428,16.14666 l -26.21986,45.41934 c -9.19906,15.93299 -3.05421,36.57342 13.7739,46.28923 16.8289,9.71581 37.7865,4.72043 46.98557,-11.21247 l 26.22068,-45.41944 c 9.19824,-15.93297 3.05339,-36.5892 -13.7747,-46.30502 -6.31085,-3.64342 -13.1982,-5.21513 -19.83131,-4.9183 z"
       style="opacity:1;fill:none;fill-opacity:1;stroke:#064ead;stroke-width:11;stroke-linecap:round;stroke-linejoin:round;stroke-miterlimit:4;stroke-dasharray:none;stroke-opacity:0.01960784;filter:url(#d);image-rendering:optimizeSpeed"
       inkscape:connector-curvature="0" />
    <path
       inkscape:connector-curvature="0"
       style="opacity:1;fill:none;fill-opacity:1;stroke:#064ead;stroke-width:14;stroke-linecap:round;stroke-linejoin:round;stroke-miterlimit:4;stroke-dasharray:none;stroke-opacity:0.01960784;filter:url(#d);image-rendering:optimizeSpeed"
       d="m -172.43046,-245.27168 c -5.87522,0.15304 -11.80389,1.72434 -17.2532,4.87086 -17.43862,10.06909 -23.40129,32.36157 -13.33179,49.8001 l 37.25857,64.52339 -119.13029,206.36403 h -93.00598 c -20.13736,0 -36.45212,16.3146 -36.45212,36.4526 0,20.13803 16.31476,36.45253 36.45212,36.45253 h 331.536531 c 16.01977,-29.79325 -4.6214,-72.90513 -41.2127,-72.90513 H -200.73856 l 156.390421,-270.88742 c 10.06901,-17.43853 4.10682,-39.73101 -13.33163,-49.8001 -17.43854,-10.06901 -39.73103,-4.09095 -49.800191,13.3475 0,0 -8.08248,28.02706 -16.19411,28.07086 -8.09867,0 -16.20948,-28.07086 -16.20948,-28.07086 -6.92298,-11.98897 -19.62079,-18.55577 -32.54691,-18.21836 z m 102.636691,139.57924 c -21.5567,17.81294 -43.355741,70.7194 -12.87302,123.52749 44.946,77.83289 89.8927304,155.68484 134.81907,233.51775 10.06901,17.43845 32.36148,23.40064 49.800019,13.33163 17.43853,-10.06901 23.40064,-32.3457 13.33163,-49.78424 L 79.669611,153.17604 h 52.773179 c 20.13802,0 36.45253,-16.31458 36.45253,-36.4526 0,-20.13801 -16.31451,-36.45252 -36.45253,-36.45252 H 37.571271 C 1.7878114,18.28046 -34.010309,-43.70198 -69.793769,-105.69244 Z m -237.091471,270.4131 c -11.05572,0.49473 -21.40456,6.18857 -27.15428,16.14666 l -26.21986,45.41934 c -9.19906,15.93299 -3.05421,36.57342 13.7739,46.28923 16.8289,9.71581 37.7865,4.72043 46.98557,-11.21247 l 26.22068,-45.41944 c 9.19824,-15.93297 3.05339,-36.5892 -13.7747,-46.30502 -6.31085,-3.64342 -13.1982,-5.21513 -19.83131,-4.9183 z"
       id="path958" />
    <path
       id="path960"
       d="m -172.43046,-245.27168 c -5.87522,0.15304 -11.80389,1.72434 -17.2532,4.87086 -17.43862,10.06909 -23.40129,32.36157 -13.33179,49.8001 l 37.25857,64.52339 -119.13029,206.36403 h -93.00598 c -20.13736,0 -36.45212,16.3146 -36.45212,36.4526 0,20.13803 16.31476,36.45253 36.45212,36.45253 h 331.536531 c 16.01977,-29.79325 -4.6214,-72.90513 -41.2127,-72.90513 H -200.73856 l 156.390421,-270.88742 c 10.06901,-17.43853 4.10682,-39.73101 -13.33163,-49.8001 -17.43854,-10.06901 -39.73103,-4.09095 -49.800191,13.3475 0,0 -8.08248,28.02706 -16.19411,28.07086 -8.09867,0 -16.20948,-28.07086 -16.20948,-28.07086 -6.92298,-11.98897 -19.62079,-18.55577 -32.54691,-18.21836 z m 102.636691,139.57924 c -21.5567,17.81294 -43.355741,70.7194 -12.87302,123.52749 44.946,77.83289 89.8927304,155.68484 134.81907,233.51775 10.06901,17.43845 32.36148,23.40064 49.800019,13.33163 17.43853,-10.06901 23.40064,-32.3457 13.33163,-49.78424 L 79.669611,153.17604 h 52.773179 c 20.13802,0 36.45253,-16.31458 36.45253,-36.4526 0,-20.13801 -16.31451,-36.45252 -36.45253,-36.45252 H 37.571271 C 1.7878114,18.28046 -34.010309,-43.70198 -69.793769,-105.69244 Z m -237.091471,270.4131 c -11.05572,0.49473 -21.40456,6.18857 -27.15428,16.14666 l -26.21986,45.41934 c -9.19906,15.93299 -3.05421,36.57342 13.7739,46.28923 16.8289,9.71581 37.7865,4.72043 46.98557,-11.21247 l 26.22068,-45.41944 c 9.19824,-15.93297 3.05339,-36.5892 -13.7747,-46.30502 -6.31085,-3.64342 -13.1982,-5.21513 -19.83131,-4.9183 z"
       style="opacity:1;fill:none;fill-opacity:1;stroke:#064ead;stroke-width:17;stroke-linecap:round;stroke-linejoin:round;stroke-miterlimit:4;stroke-dasharray:none;stroke-opacity:0.01960784;filter:url(#d);image-rendering:optimizeSpeed"
       inkscape:connector-curvature="0" />
    <path
       inkscape:connector-curvature="0"
       style="opacity:1;fill:none;fill-opacity:1;stroke:#064ead;stroke-width:20;stroke-linecap:round;stroke-linejoin:round;stroke-miterlimit:4;stroke-dasharray:none;stroke-opacity:0.01960784;filter:url(#d);image-rendering:optimizeSpeed"
       d="m -172.43046,-245.27168 c -5.87522,0.15304 -11.80389,1.72434 -17.2532,4.87086 -17.43862,10.06909 -23.40129,32.36157 -13.33179,49.8001 l 37.25857,64.52339 -119.13029,206.36403 h -93.00598 c -20.13736,0 -36.45212,16.3146 -36.45212,36.4526 0,20.13803 16.31476,36.45253 36.45212,36.45253 h 331.536531 c 16.01977,-29.79325 -4.6214,-72.90513 -41.2127,-72.90513 H -200.73856 l 156.390421,-270.88742 c 10.06901,-17.43853 4.10682,-39.73101 -13.33163,-49.8001 -17.43854,-10.06901 -39.73103,-4.09095 -49.800191,13.3475 0,0 -8.08248,28.02706 -16.19411,28.07086 -8.09867,0 -16.20948,-28.07086 -16.20948,-28.07086 -6.92298,-11.98897 -19.62079,-18.55577 -32.54691,-18.21836 z m 102.636691,139.57924 c -21.5567,17.81294 -43.355741,70.7194 -12.87302,123.52749 44.946,77.83289 89.8927304,155.68484 134.81907,233.51775 10.06901,17.43845 32.36148,23.40064 49.800019,13.33163 17.43853,-10.06901 23.40064,-32.3457 13.33163,-49.78424 L 79.669611,153.17604 h 52.773179 c 20.13802,0 36.45253,-16.31458 36.45253,-36.4526 0,-20.13801 -16.31451,-36.45252 -36.45253,-36.45252 H 37.571271 C 1.7878114,18.28046 -34.010309,-43.70198 -69.793769,-105.69244 Z m -237.091471,270.4131 c -11.05572,0.49473 -21.40456,6.18857 -27.15428,16.14666 l -26.21986,45.41934 c -9.19906,15.93299 -3.05421,36.57342 13.7739,46.28923 16.8289,9.71581 37.7865,4.72043 46.98557,-11.21247 l 26.22068,-45.41944 c 9.19824,-15.93297 3.05339,-36.5892 -13.7747,-46.30502 -6.31085,-3.64342 -13.1982,-5.21513 -19.83131,-4.9183 z"
       id="path962" />
    <path
       id="path964"
       d="m -172.43046,-245.27168 c -5.87522,0.15304 -11.80389,1.72434 -17.2532,4.87086 -17.43862,10.06909 -23.40129,32.36157 -13.33179,49.8001 l 37.25857,64.52339 -119.13029,206.36403 h -93.00598 c -20.13736,0 -36.45212,16.3146 -36.45212,36.4526 0,20.13803 16.31476,36.45253 36.45212,36.45253 h 331.536531 c 16.01977,-29.79325 -4.6214,-72.90513 -41.2127,-72.90513 H -200.73856 l 156.390421,-270.88742 c 10.06901,-17.43853 4.10682,-39.73101 -13.33163,-49.8001 -17.43854,-10.06901 -39.73103,-4.09095 -49.800191,13.3475 0,0 -8.08248,28.02706 -16.19411,28.07086 -8.09867,0 -16.20948,-28.07086 -16.20948,-28.07086 -6.92298,-11.98897 -19.62079,-18.55577 -32.54691,-18.21836 z m 102.636691,139.57924 c -21.5567,17.81294 -43.355741,70.7194 -12.87302,123.52749 44.946,77.83289 89.8927304,155.68484 134.81907,233.51775 10.06901,17.43845 32.36148,23.40064 49.800019,13.33163 17.43853,-10.06901 23.40064,-32.3457 13.33163,-49.78424 L 79.669611,153.17604 h 52.773179 c 20.13802,0 36.45253,-16.31458 36.45253,-36.4526 0,-20.13801 -16.31451,-36.45252 -36.45253,-36.45252 H 37.571271 C 1.7878114,18.28046 -34.010309,-43.70198 -69.793769,-105.69244 Z m -237.091471,270.4131 c -11.05572,0.49473 -21.40456,6.18857 -27.15428,16.14666 l -26.21986,45.41934 c -9.19906,15.93299 -3.05421,36.57342 13.7739,46.28923 16.8289,9.71581 37.7865,4.72043 46.98557,-11.21247 l 26.22068,-45.41944 c 9.19824,-15.93297 3.05339,-36.5892 -13.7747,-46.30502 -6.31085,-3.64342 -13.1982,-5.21513 -19.83131,-4.9183 z"
       style="opacity:1;fill:none;fill-opacity:1;stroke:#064ead;stroke-width:26;stroke-linecap:round;stroke-linejoin:round;stroke-miterlimit:4;stroke-dasharray:none;stroke-opacity:0.01960784;filter:url(#d);image-rendering:optimizeSpeed"
       inkscape:connector-curvature="0" />
    <path
       inkscape:connector-curvature="0"
       style="opacity:1;fill:none;fill-opacity:1;stroke:#064ead;stroke-width:32;stroke-linecap:round;stroke-linejoin:round;stroke-miterlimit:4;stroke-dasharray:none;stroke-opacity:0.01960784;filter:url(#d);image-rendering:optimizeSpeed"
       d="m -172.43046,-245.27168 c -5.87522,0.15304 -11.80389,1.72434 -17.2532,4.87086 -17.43862,10.06909 -23.40129,32.36157 -13.33179,49.8001 l 37.25857,64.52339 -119.13029,206.36403 h -93.00598 c -20.13736,0 -36.45212,16.3146 -36.45212,36.4526 0,20.13803 16.31476,36.45253 36.45212,36.45253 h 331.536531 c 16.01977,-29.79325 -4.6214,-72.90513 -41.2127,-72.90513 H -200.73856 l 156.390421,-270.88742 c 10.06901,-17.43853 4.10682,-39.73101 -13.33163,-49.8001 -17.43854,-10.06901 -39.73103,-4.09095 -49.800191,13.3475 0,0 -8.08248,28.02706 -16.19411,28.07086 -8.09867,0 -16.20948,-28.07086 -16.20948,-28.07086 -6.92298,-11.98897 -19.62079,-18.55577 -32.54691,-18.21836 z m 102.636691,139.57924 c -21.5567,17.81294 -43.355741,70.7194 -12.87302,123.52749 44.946,77.83289 89.8927304,155.68484 134.81907,233.51775 10.06901,17.43845 32.36148,23.40064 49.800019,13.33163 17.43853,-10.06901 23.40064,-32.3457 13.33163,-49.78424 L 79.669611,153.17604 h 52.773179 c 20.13802,0 36.45253,-16.31458 36.45253,-36.4526 0,-20.13801 -16.31451,-36.45252 -36.45253,-36.45252 H 37.571271 C 1.7878114,18.28046 -34.010309,-43.70198 -69.793769,-105.69244 Z m -237.091471,270.4131 c -11.05572,0.49473 -21.40456,6.18857 -27.15428,16.14666 l -26.21986,45.41934 c -9.19906,15.93299 -3.05421,36.57342 13.7739,46.28923 16.8289,9.71581 37.7865,4.72043 46.98557,-11.21247 l 26.22068,-45.41944 c 9.19824,-15.93297 3.05339,-36.5892 -13.7747,-46.30502 -6.31085,-3.64342 -13.1982,-5.21513 -19.83131,-4.9183 z"
       id="path966" />
    <path
       id="path968"
       d="m -172.43046,-245.27168 c -5.87522,0.15304 -11.80389,1.72434 -17.2532,4.87086 -17.43862,10.06909 -23.40129,32.36157 -13.33179,49.8001 l 37.25857,64.52339 -119.13029,206.36403 h -93.00598 c -20.13736,0 -36.45212,16.3146 -36.45212,36.4526 0,20.13803 16.31476,36.45253 36.45212,36.45253 h 331.536531 c 16.01977,-29.79325 -4.6214,-72.90513 -41.2127,-72.90513 H -200.73856 l 156.390421,-270.88742 c 10.06901,-17.43853 4.10682,-39.73101 -13.33163,-49.8001 -17.43854,-10.06901 -39.73103,-4.09095 -49.800191,13.3475 0,0 -8.08248,28.02706 -16.19411,28.07086 -8.09867,0 -16.20948,-28.07086 -16.20948,-28.07086 -6.92298,-11.98897 -19.62079,-18.55577 -32.54691,-18.21836 z m 102.636691,139.57924 c -21.5567,17.81294 -43.355741,70.7194 -12.87302,123.52749 44.946,77.83289 89.8927304,155.68484 134.81907,233.51775 10.06901,17.43845 32.36148,23.40064 49.800019,13.33163 17.43853,-10.06901 23.40064,-32.3457 13.33163,-49.78424 L 79.669611,153.17604 h 52.773179 c 20.13802,0 36.45253,-16.31458 36.45253,-36.4526 0,-20.13801 -16.31451,-36.45252 -36.45253,-36.45252 H 37.571271 C 1.7878114,18.28046 -34.010309,-43.70198 -69.793769,-105.69244 Z m -237.091471,270.4131 c -11.05572,0.49473 -21.40456,6.18857 -27.15428,16.14666 l -26.21986,45.41934 c -9.19906,15.93299 -3.05421,36.57342 13.7739,46.28923 16.8289,9.71581 37.7865,4.72043 46.98557,-11.21247 l 26.22068,-45.41944 c 9.19824,-15.93297 3.05339,-36.5892 -13.7747,-46.30502 -6.31085,-3.64342 -13.1982,-5.21513 -19.83131,-4.9183 z"
       style="opacity:1;fill:none;fill-opacity:1;stroke:#064ead;stroke-width:38;stroke-linecap:round;stroke-linejoin:round;stroke-miterlimit:4;stroke-dasharray:none;stroke-opacity:0.01960784;filter:url(#d);image-rendering:optimizeSpeed"
       inkscape:connector-curvature="0" />
    <path
       inkscape:connector-curvature="0"
       style="opacity:1;fill:none;fill-opacity:1;stroke:#064ead;stroke-width:44;stroke-linecap:round;stroke-linejoin:round;stroke-miterlimit:4;stroke-dasharray:none;stroke-opacity:0.01960784;filter:url(#d);image-rendering:optimizeSpeed"
       d="m -172.43046,-245.27168 c -5.87522,0.15304 -11.80389,1.72434 -17.2532,4.87086 -17.43862,10.06909 -23.40129,32.36157 -13.33179,49.8001 l 37.25857,64.52339 -119.13029,206.36403 h -93.00598 c -20.13736,0 -36.45212,16.3146 -36.45212,36.4526 0,20.13803 16.31476,36.45253 36.45212,36.45253 h 331.536531 c 16.01977,-29.79325 -4.6214,-72.90513 -41.2127,-72.90513 H -200.73856 l 156.390421,-270.88742 c 10.06901,-17.43853 4.10682,-39.73101 -13.33163,-49.8001 -17.43854,-10.06901 -39.73103,-4.09095 -49.800191,13.3475 0,0 -8.08248,28.02706 -16.19411,28.07086 -8.09867,0 -16.20948,-28.07086 -16.20948,-28.07086 -6.92298,-11.98897 -19.62079,-18.55577 -32.54691,-18.21836 z m 102.636691,139.57924 c -21.5567,17.81294 -43.355741,70.7194 -12.87302,123.52749 44.946,77.83289 89.8927304,155.68484 134.81907,233.51775 10.06901,17.43845 32.36148,23.40064 49.800019,13.33163 17.43853,-10.06901 23.40064,-32.3457 13.33163,-49.78424 L 79.669611,153.17604 h 52.773179 c 20.13802,0 36.45253,-16.31458 36.45253,-36.4526 0,-20.13801 -16.31451,-36.45252 -36.45253,-36.45252 H 37.571271 C 1.7878114,18.28046 -34.010309,-43.70198 -69.793769,-105.69244 Z m -237.091471,270.4131 c -11.05572,0.49473 -21.40456,6.18857 -27.15428,16.14666 l -26.21986,45.41934 c -9.19906,15.93299 -3.05421,36.57342 13.7739,46.28923 16.8289,9.71581 37.7865,4.72043 46.98557,-11.21247 l 26.22068,-45.41944 c 9.19824,-15.93297 3.05339,-36.5892 -13.7747,-46.30502 -6.31085,-3.64342 -13.1982,-5.21513 -19.83131,-4.9183 z"
       id="path970" />
    <path
       id="path972"
       d="m -172.43046,-245.27168 c -5.87522,0.15304 -11.80389,1.72434 -17.2532,4.87086 -17.43862,10.06909 -23.40129,32.36157 -13.33179,49.8001 l 37.25857,64.52339 -119.13029,206.36403 h -93.00598 c -20.13736,0 -36.45212,16.3146 -36.45212,36.4526 0,20.13803 16.31476,36.45253 36.45212,36.45253 h 331.536531 c 16.01977,-29.79325 -4.6214,-72.90513 -41.2127,-72.90513 H -200.73856 l 156.390421,-270.88742 c 10.06901,-17.43853 4.10682,-39.73101 -13.33163,-49.8001 -17.43854,-10.06901 -39.73103,-4.09095 -49.800191,13.3475 0,0 -8.08248,28.02706 -16.19411,28.07086 -8.09867,0 -16.20948,-28.07086 -16.20948,-28.07086 -6.92298,-11.98897 -19.62079,-18.55577 -32.54691,-18.21836 z m 102.636691,139.57924 c -21.5567,17.81294 -43.355741,70.7194 -12.87302,123.52749 44.946,77.83289 89.8927304,155.68484 134.81907,233.51775 10.06901,17.43845 32.36148,23.40064 49.800019,13.33163 17.43853,-10.06901 23.40064,-32.3457 13.33163,-49.78424 L 79.669611,153.17604 h 52.773179 c 20.13802,0 36.45253,-16.31458 36.45253,-36.4526 0,-20.13801 -16.31451,-36.45252 -36.45253,-36.45252 H 37.571271 C 1.7878114,18.28046 -34.010309,-43.70198 -69.793769,-105.69244 Z m -237.091471,270.4131 c -11.05572,0.49473 -21.40456,6.18857 -27.15428,16.14666 l -26.21986,45.41934 c -9.19906,15.93299 -3.05421,36.57342 13.7739,46.28923 16.8289,9.71581 37.7865,4.72043 46.98557,-11.21247 l 26.22068,-45.41944 c 9.19824,-15.93297 3.05339,-36.5892 -13.7747,-46.30502 -6.31085,-3.64342 -13.1982,-5.21513 -19.83131,-4.9183 z"
       style="opacity:1;fill:none;fill-opacity:1;stroke:#064ead;stroke-width:54;stroke-linecap:round;stroke-linejoin:round;stroke-miterlimit:4;stroke-dasharray:none;stroke-opacity:0.01960784;filter:url(#d);image-rendering:optimizeSpeed"
       inkscape:connector-curvature="0" />
    <path
       inkscape:connector-curvature="0"
       style="opacity:1;fill:none;fill-opacity:1;stroke:#064ead;stroke-width:64;stroke-linecap:round;stroke-linejoin:round;stroke-miterlimit:4;stroke-dasharray:none;stroke-opacity:0.01960784;filter:url(#d);image-rendering:optimizeSpeed"
       d="m -172.43046,-245.27168 c -5.87522,0.15304 -11.80389,1.72434 -17.2532,4.87086 -17.43862,10.06909 -23.40129,32.36157 -13.33179,49.8001 l 37.25857,64.52339 -119.13029,206.36403 h -93.00598 c -20.13736,0 -36.45212,16.3146 -36.45212,36.4526 0,20.13803 16.31476,36.45253 36.45212,36.45253 h 331.536531 c 16.01977,-29.79325 -4.6214,-72.90513 -41.2127,-72.90513 H -200.73856 l 156.390421,-270.88742 c 10.06901,-17.43853 4.10682,-39.73101 -13.33163,-49.8001 -17.43854,-10.06901 -39.73103,-4.09095 -49.800191,13.3475 0,0 -8.08248,28.02706 -16.19411,28.07086 -8.09867,0 -16.20948,-28.07086 -16.20948,-28.07086 -6.92298,-11.98897 -19.62079,-18.55577 -32.54691,-18.21836 z m 102.636691,139.57924 c -21.5567,17.81294 -43.355741,70.7194 -12.87302,123.52749 44.946,77.83289 89.8927304,155.68484 134.81907,233.51775 10.06901,17.43845 32.36148,23.40064 49.800019,13.33163 17.43853,-10.06901 23.40064,-32.3457 13.33163,-49.78424 L 79.669611,153.17604 h 52.773179 c 20.13802,0 36.45253,-16.31458 36.45253,-36.4526 0,-20.13801 -16.31451,-36.45252 -36.45253,-36.45252 H 37.571271 C 1.7878114,18.28046 -34.010309,-43.70198 -69.793769,-105.69244 Z m -237.091471,270.4131 c -11.05572,0.49473 -21.40456,6.18857 -27.15428,16.14666 l -26.21986,45.41934 c -9.19906,15.93299 -3.05421,36.57342 13.7739,46.28923 16.8289,9.71581 37.7865,4.72043 46.98557,-11.21247 l 26.22068,-45.41944 c 9.19824,-15.93297 3.05339,-36.5892 -13.7747,-46.30502 -6.31085,-3.64342 -13.1982,-5.21513 -19.83131,-4.9183 z"
       id="path974" />
    <path
       id="path976"
       d="m -172.43046,-245.27168 c -5.87522,0.15304 -11.80389,1.72434 -17.2532,4.87086 -17.43862,10.06909 -23.40129,32.36157 -13.33179,49.8001 l 37.25857,64.52339 -119.13029,206.36403 h -93.00598 c -20.13736,0 -36.45212,16.3146 -36.45212,36.4526 0,20.13803 16.31476,36.45253 36.45212,36.45253 h 331.536531 c 16.01977,-29.79325 -4.6214,-72.90513 -41.2127,-72.90513 H -200.73856 l 156.390421,-270.88742 c 10.06901,-17.43853 4.10682,-39.73101 -13.33163,-49.8001 -17.43854,-10.06901 -39.73103,-4.09095 -49.800191,13.3475 0,0 -8.08248,28.02706 -16.19411,28.07086 -8.09867,0 -16.20948,-28.07086 -16.20948,-28.07086 -6.92298,-11.98897 -19.62079,-18.55577 -32.54691,-18.21836 z m 102.636691,139.57924 c -21.5567,17.81294 -43.355741,70.7194 -12.87302,123.52749 44.946,77.83289 89.8927304,155.68484 134.81907,233.51775 10.06901,17.43845 32.36148,23.40064 49.800019,13.33163 17.43853,-10.06901 23.40064,-32.3457 13.33163,-49.78424 L 79.669611,153.17604 h 52.773179 c 20.13802,0 36.45253,-16.31458 36.45253,-36.4526 0,-20.13801 -16.31451,-36.45252 -36.45253,-36.45252 H 37.571271 C 1.7878114,18.28046 -34.010309,-43.70198 -69.793769,-105.69244 Z m -237.091471,270.4131 c -11.05572,0.49473 -21.40456,6.18857 -27.15428,16.14666 l -26.21986,45.41934 c -9.19906,15.93299 -3.05421,36.57342 13.7739,46.28923 16.8289,9.71581 37.7865,4.72043 46.98557,-11.21247 l 26.22068,-45.41944 c 9.19824,-15.93297 3.05339,-36.5892 -13.7747,-46.30502 -6.31085,-3.64342 -13.1982,-5.21513 -19.83131,-4.9183 z"
       style="opacity:1;fill:none;fill-opacity:1;stroke:#064ead;stroke-width:74;stroke-linecap:round;stroke-linejoin:round;stroke-miterlimit:4;stroke-dasharray:none;stroke-opacity:0.01960784;filter:url(#d);image-rendering:optimizeSpeed"
       inkscape:connector-curvature="0" />
    <path
       inkscape:connector-curvature="0"
       style="opacity:1;fill:none;fill-opacity:1;stroke:#064ead;stroke-width:90;stroke-linecap:round;stroke-linejoin:round;stroke-miterlimit:4;stroke-dasharray:none;stroke-opacity:0.01960784;filter:url(#d);image-rendering:optimizeSpeed"
       d="m -172.43046,-245.27168 c -5.87522,0.15304 -11.80389,1.72434 -17.2532,4.87086 -17.43862,10.06909 -23.40129,32.36157 -13.33179,49.8001 l 37.25857,64.52339 -119.13029,206.36403 h -93.00598 c -20.13736,0 -36.45212,16.3146 -36.45212,36.4526 0,20.13803 16.31476,36.45253 36.45212,36.45253 h 331.536531 c 16.01977,-29.79325 -4.6214,-72.90513 -41.2127,-72.90513 H -200.73856 l 156.390421,-270.88742 c 10.06901,-17.43853 4.10682,-39.73101 -13.33163,-49.8001 -17.43854,-10.06901 -39.73103,-4.09095 -49.800191,13.3475 0,0 -8.08248,28.02706 -16.19411,28.07086 -8.09867,0 -16.20948,-28.07086 -16.20948,-28.07086 -6.92298,-11.98897 -19.62079,-18.55577 -32.54691,-18.21836 z m 102.636691,139.57924 c -21.5567,17.81294 -43.355741,70.7194 -12.87302,123.52749 44.946,77.83289 89.8927304,155.68484 134.81907,233.51775 10.06901,17.43845 32.36148,23.40064 49.800019,13.33163 17.43853,-10.06901 23.40064,-32.3457 13.33163,-49.78424 L 79.669611,153.17604 h 52.773179 c 20.13802,0 36.45253,-16.31458 36.45253,-36.4526 0,-20.13801 -16.31451,-36.45252 -36.45253,-36.45252 H 37.571271 C 1.7878114,18.28046 -34.010309,-43.70198 -69.793769,-105.69244 Z m -237.091471,270.4131 c -11.05572,0.49473 -21.40456,6.18857 -27.15428,16.14666 l -26.21986,45.41934 c -9.19906,15.93299 -3.05421,36.57342 13.7739,46.28923 16.8289,9.71581 37.7865,4.72043 46.98557,-11.21247 l 26.22068,-45.41944 c 9.19824,-15.93297 3.05339,-36.5892 -13.7747,-46.30502 -6.31085,-3.64342 -13.1982,-5.21513 -19.83131,-4.9183 z"
       id="path978" />
  </g>
  <path
     id="path868-1-2"
     d="m 56.79824,27.373578 c -0.80301,0.02092 -1.61333,0.23568 -2.35813,0.66574 -2.38347,1.376223 -3.19844,4.423115 -1.82216,6.806578 l 5.09243,8.818929 -16.2825,28.205425 H 28.71601 c -2.75233,0 -4.982201,2.229847 -4.982201,4.982268 0,2.752426 2.229871,4.98226 4.982201,4.98226 H 74.02977 C 76.21932,77.762695 73.39812,71.87025 68.3969,71.87025 H 52.92915 L 74.30428,34.845896 c 1.37621,-2.383463 0.56131,-5.430355 -1.82214,-6.806578 -2.38346,-1.376213 -5.43036,-0.559143 -6.80659,1.824309 0,0 -1.1047,3.830683 -2.21338,3.83667 -1.10691,0 -2.21548,-3.83667 -2.21548,-3.83667 -0.94622,-1.638628 -2.68173,-2.536165 -4.44845,-2.490049 z m 14.02818,19.077413 c -2.94632,2.434637 -5.92577,9.665787 -1.75946,16.883491 6.14313,10.638045 12.28636,21.278694 18.42681,31.916742 1.37621,2.383455 4.4231,3.198355 6.80656,1.822145 2.38347,-1.376217 3.19836,-4.420951 1.82214,-6.804416 l -4.86769,-8.436334 h 7.21293 c 2.75243,0 4.98226,-2.229844 4.98226,-4.982268 0,-2.752423 -2.22983,-4.982258 -4.98226,-4.982258 H 85.50086 C 80.61005,63.39536 75.71723,54.923723 70.82642,46.450991 Z M 38.42123,83.410515 c -1.51107,0.06762 -2.92553,0.845842 -3.71139,2.206894 l -3.58368,6.207825 c -1.25731,2.177689 -0.41744,4.998782 1.88259,6.326715 2.30014,1.32794 5.16458,0.64518 6.42189,-1.532494 l 3.5838,-6.207838 c 1.25719,-2.177687 0.41733,-5.000939 -1.8827,-6.328878 -0.86256,-0.497976 -1.80391,-0.712794 -2.71051,-0.672224 z"
     style="opacity:1;fill:#ffffff;fill-opacity:0.99494952;stroke-width:0.26931751;filter:url(#d);image-rendering:optimizeSpeed"
     inkscape:connector-curvature="0" />
</svg>
