<?xml version="1.0" encoding="UTF-8" standalone="no"?>
<svg
   width="128"
   height="128"
   viewBox="0 0 33.866666 33.866668"
   version="1.1"
   id="svg1015"
   inkscape:version="1.1.2 (0a00cf5339, 2022-02-04)"
   sodipodi:docname="soundcloud.svg"
   xmlns:inkscape="http://www.inkscape.org/namespaces/inkscape"
   xmlns:sodipodi="http://sodipodi.sourceforge.net/DTD/sodipodi-0.dtd"
   xmlns:xlink="http://www.w3.org/1999/xlink"
   xmlns="http://www.w3.org/2000/svg"
   xmlns:svg="http://www.w3.org/2000/svg"
   xmlns:rdf="http://www.w3.org/1999/02/22-rdf-syntax-ns#"
   xmlns:cc="http://creativecommons.org/ns#"
   xmlns:dc="http://purl.org/dc/elements/1.1/">
  <defs
     id="defs1009">
    <linearGradient
       inkscape:collect="always"
       id="linearGradient873">
      <stop
         style="stop-color:#0b0b0b;stop-opacity:1;"
         offset="0"
         id="stop869" />
      <stop
         style="stop-color:#0b0b0b;stop-opacity:0.85882353;"
         offset="0.68076366"
         id="stop878" />
      <stop
         style="stop-color:#0b0b0b;stop-opacity:0.83137255;"
         offset="0.69925421"
         id="stop888" />
      <stop
         style="stop-color:#0b0b0b;stop-opacity:0.80392157;"
         offset="0.71879315"
         id="stop890" />
      <stop
         style="stop-color:#0b0b0b;stop-opacity:0.78039216;"
         offset="0.73593426"
         id="stop892" />
      <stop
         style="stop-color:#0b0b0b;stop-opacity:0.75686275;"
         offset="0.75022364"
         id="stop894" />
      <stop
         style="stop-color:#0b0b0b;stop-opacity:0.73333333;"
         offset="0.76798755"
         id="stop896" />
      <stop
         style="stop-color:#0b0b0b;stop-opacity:0.08235294;"
         offset="0.9150058"
         id="stop919" />
      <stop
         style="stop-color:#0b0b0b;stop-opacity:0.07058824;"
         offset="0.92246956"
         id="stop917" />
      <stop
         style="stop-color:#0b0b0b;stop-opacity:0.05882353;"
         offset="0.92918676"
         id="stop915" />
      <stop
         style="stop-color:#0b0b0b;stop-opacity:0.04705882;"
         offset="0.93840873"
         id="stop912" />
      <stop
         style="stop-color:#0b0b0b;stop-opacity:0.03137255;"
         offset="0.94760686"
         id="stop910" />
      <stop
         style="stop-color:#0b0b0b;stop-opacity:0.02352941;"
         offset="0.95380515"
         id="stop908" />
      <stop
         style="stop-color:#0b0b0b;stop-opacity:0.01568627;"
         offset="0.95886087"
         id="stop906" />
      <stop
         style="stop-color:#0b0b0b;stop-opacity:0.01176471;"
         offset="0.96356124"
         id="stop904" />
      <stop
         style="stop-color:#0b0b0b;stop-opacity:0.00784314;"
         offset="0.96845078"
         id="stop902" />
      <stop
         style="stop-color:#0b0b0b;stop-opacity:0.00392157;"
         offset="0.97347641"
         id="stop900" />
      <stop
         style="stop-color:#0b0b0b;stop-opacity:0;"
         offset="0.97812337"
         id="stop886" />
      <stop
         style="stop-color:#0b0b0b;stop-opacity:0;"
         offset="0.98456311"
         id="stop884" />
      <stop
         style="stop-color:#0b0b0b;stop-opacity:0;"
         offset="0.98700982"
         id="stop882" />
      <stop
         style="stop-color:#0b0b0b;stop-opacity:0;"
         offset="0.98924524"
         id="stop880" />
      <stop
         style="stop-color:#0b0b0b;stop-opacity:0;"
         offset="1"
         id="stop871" />
    </linearGradient>
    <linearGradient
       inkscape:collect="always"
       xlink:href="#linearGradient895"
       id="linearGradient897"
       x1="2685.9844"
       y1="1088.7905"
       x2="2685.9844"
       y2="1770.3615"
       gradientUnits="userSpaceOnUse"
       gradientTransform="matrix(0.04277854,0,0,0.04277854,-95.919086,-44.867312)" />
    <linearGradient
       inkscape:collect="always"
       id="linearGradient895">
      <stop
         style="stop-color:#ffaf1c;stop-opacity:1"
         offset="0"
         id="stop891" />
      <stop
         style="stop-color:#f51306;stop-opacity:1"
         offset="1"
         id="stop893" />
    </linearGradient>
    <linearGradient
       inkscape:collect="always"
       id="linearGradient879">
      <stop
         style="stop-color:#ffa318;stop-opacity:1"
         offset="0"
         id="stop875" />
      <stop
         style="stop-color:#ff2a2b;stop-opacity:1"
         offset="1"
         id="stop877" />
    </linearGradient>
    <radialGradient
       inkscape:collect="always"
       xlink:href="#linearGradient873"
       id="radialGradient898"
       gradientUnits="userSpaceOnUse"
       cx="60.636452"
       cy="20.456388"
       fx="60.636452"
       fy="20.456388"
       r="17.303919"
       gradientTransform="translate(-43.433354,-3.9448764)" />
    <radialGradient
       inkscape:collect="always"
       xlink:href="#linearGradient879"
       id="radialGradient993"
       cx="16.968126"
       cy="3.7658708"
       fx="16.968126"
       fy="3.7658708"
       r="13.695572"
       gradientUnits="userSpaceOnUse"
       gradientTransform="matrix(4.8885673,0,0,1.8641486,-65.723642,-2.4382716)" />
    <linearGradient
       id="b"
       x2="1"
       gradientTransform="matrix(0.10138208,-17.338417,17.338417,0.10138208,16.113103,25.29877)"
       gradientUnits="userSpaceOnUse"
       x1="-1.2255912"
       y1="0.013013591"
       y2="1.110223e-16">
      <stop
         stop-color="#c9cfe5"
         offset="0"
         id="stop7"
         style="stop-color:#c22aff;stop-opacity:1" />
      <stop
         stop-color="#fff"
         offset="1"
         id="stop9" />
    </linearGradient>
    <linearGradient
       inkscape:collect="always"
       xlink:href="#linearGradient1129"
       id="linearGradient1131"
       x1="3.7828252"
       y1="10.72474"
       x2="3.7828252"
       y2="55.016644"
       gradientUnits="userSpaceOnUse"
       gradientTransform="matrix(0.83585179,0,0,0.83585179,2.4641325,1.0899662)" />
    <linearGradient
       inkscape:collect="always"
       id="linearGradient1129">
      <stop
         style="stop-color:#ffffff;stop-opacity:1"
         offset="0"
         id="stop1125" />
      <stop
         style="stop-color:#f15a25;stop-opacity:0.97647059"
         offset="1"
         id="stop1127" />
    </linearGradient>
    <linearGradient
       inkscape:collect="always"
       xlink:href="#linearGradient3354"
       id="linearGradient3356"
       x1="22.975348"
       y1="31.524529"
       x2="22.975348"
       y2="20.221727"
       gradientUnits="userSpaceOnUse"
       gradientTransform="matrix(0.83585179,0,0,0.83585179,2.4641325,1.0899662)" />
    <linearGradient
       inkscape:collect="always"
       id="linearGradient3354">
      <stop
         style="stop-color:#ee4d21;stop-opacity:1;"
         offset="0"
         id="stop3350" />
      <stop
         style="stop-color:#ee4d21;stop-opacity:0;"
         offset="1"
         id="stop3352" />
    </linearGradient>
  </defs>
  <sodipodi:namedview
     id="base"
     pagecolor="#ffffff"
     bordercolor="#666666"
     borderopacity="1.0"
     inkscape:pageopacity="0.0"
     inkscape:pageshadow="2"
     inkscape:zoom="2.8"
     inkscape:cx="115.71429"
     inkscape:cy="75.535714"
     inkscape:document-units="mm"
     inkscape:current-layer="layer1"
     inkscape:document-rotation="0"
     showgrid="false"
     units="px"
     inkscape:window-width="1920"
     inkscape:window-height="1028"
     inkscape:window-x="0"
     inkscape:window-y="24"
     inkscape:window-maximized="1"
     inkscape:pagecheckerboard="0"
     inkscape:lockguides="false" />
  <metadata
     id="metadata1012">
    <rdf:RDF>
      <cc:Work
         rdf:about="">
        <dc:format>image/svg+xml</dc:format>
        <dc:type
           rdf:resource="http://purl.org/dc/dcmitype/StillImage" />
      </cc:Work>
    </rdf:RDF>
  </metadata>
  <g
     inkscape:label="Capa 1"
     inkscape:groupmode="layer"
     id="layer1">
    <circle
       style="opacity:0.309726;fill:url(#radialGradient898);fill-opacity:1;stroke-width:3;stroke-linecap:square;stroke-linejoin:round"
       id="path867"
       cx="17.203098"
       cy="16.511513"
       r="17.303919" />
    <circle
       style="fill:url(#linearGradient897);fill-opacity:1;stroke:#b1aaaa;stroke-width:0.0575565;stroke-linecap:square;stroke-opacity:0.992157"
       id="circle839"
       cx="17.203098"
       cy="16.511513"
       r="15.118138" />
    <circle
       style="fill:url(#radialGradient993);fill-opacity:1;stroke:none;stroke-width:0.0498826;stroke-linecap:square;stroke-opacity:1"
       id="circle839-3"
       cx="17.203098"
       cy="16.511513"
       r="13.102469" />
    <g
       id="g3656"
       style="opacity:0.500244"
       transform="matrix(0.83585179,0,0,0.83585179,2.4641325,1.0899661)">
      <path
         sodipodi:nodetypes="scccsccccccscscccscccccccsccccccscccscccsscccscccsscccccscccscccccscccccscccscccsscccscccsccccsccccccscccscccsccccscccscccccsccccssccccccscccccc"
         inkscape:connector-curvature="0"
         d="m 4.5529269,18.611246 c -0.056194,0 -0.1008025,0.0437 -0.1080455,0.106125 l -0.196957,1.50577 0.196957,1.479843 c 0.0073,0.06237 0.051846,0.105819 0.1080455,0.105819 0.054425,0 0.098765,-0.04316 0.1074508,-0.105255 v 0 0 0 L 4.8938395,20.223131 4.6603772,18.717078 c -0.00835,-0.06209 -0.053303,-0.105843 -0.1074508,-0.105843 z m 1.1075982,-0.822701 c -0.00927,-0.06473 -0.055325,-0.109326 -0.1120906,-0.109326 -0.057047,0 -0.1042701,0.04607 -0.1120906,0.109326 0,4.94e-4 -0.2647381,2.434586 -0.2647381,2.434586 l 0.2647381,2.380676 c 0.00753,0.06386 0.054707,0.109889 0.1120906,0.109889 0.056497,0 0.1025412,-0.04489 0.1117988,-0.109301 l 0.3012374,-2.38126 z m 4.172072,-2.245684 c -0.108626,0 -0.198412,0.0895 -0.203629,0.203183 l -0.21086,4.47912 0.21086,2.894621 c 0.0055,0.113139 0.095,0.202336 0.203629,0.202336 0.108026,0 0.1975419,-0.08947 0.2039039,-0.202886 v 0.0023 l 0.238378,-2.894942 -0.238378,-4.479113 c -0.0064,-0.113716 -0.09587,-0.203183 -0.2039039,-0.203183 z M 7.6732839,17.09965 c -0.083429,0 -0.1514802,0.06706 -0.1581604,0.156549 l -0.2375134,2.967799 0.2375134,2.871325 c 0.00638,0.08892 0.074735,0.155977 0.1581604,0.155977 0.082534,0 0.1506122,-0.06706 0.1578442,-0.155977 l 0.269951,-2.871325 -0.269951,-2.968376 c -0.0072,-0.08892 -0.07531,-0.155977 -0.1578442,-0.155977 z m 4.3536751,6.222201 c 0.134686,0 0.244168,-0.109325 0.249674,-0.24925 l 0.20681,-2.845975 -0.206513,-5.963306 c -0.0055,-0.139923 -0.115003,-0.249258 -0.249678,-0.249258 -0.135851,0 -0.24562,0.10962 -0.249964,0.249561 0,3.71e-4 -0.183354,5.962723 -0.183354,5.962723 l 0.183354,2.847096 c 0.0044,0.138799 0.11412,0.248415 0.249678,0.248415 z m 4.492409,0.01315 c 0.185369,0 0.338307,-0.153644 0.341787,-0.342557 v 0.0023 -0.0023 l 0.144228,-2.764328 -0.144228,-6.887185 c -0.0027,-0.188613 -0.156422,-0.34254 -0.341787,-0.34254 -0.185666,0 -0.338883,0.153645 -0.341777,0.342837 l -0.128895,6.884547 c 0,0.0044 0.128895,2.768418 0.128895,2.768418 0.0027,0.187172 0.156401,0.340808 0.341777,0.340808 z m -2.263296,-0.01079 c 0.161342,0 0.291391,-0.130317 0.295733,-0.296514 v 0.0023 l 0.175529,-2.802808 -0.175805,-6.006454 c -0.0044,-0.166179 -0.134389,-0.2962 -0.295729,-0.2962 -0.162487,0 -0.292544,0.13002 -0.296018,0.2962 l -0.156126,6.006748 0.156423,2.802241 c 0.0034,0.164396 0.13354,0.294723 0.296012,0.294723 z m -5.5073349,-0.02622 c 0.09587,0 0.173494,-0.07724 0.180747,-0.178965 l 0.254307,-2.895217 -0.254307,-2.754111 c -0.007,-0.101724 -0.08457,-0.178413 -0.180747,-0.178413 -0.09732,0 -0.174935,0.07726 -0.181022,0.17958 l -0.223901,2.752944 0.223901,2.894941 c 0.0064,0.10203 0.0837,0.179262 0.181022,0.179262 z M 6.6065108,23.139426 c 0.0701,0 0.1268697,-0.05572 0.1349771,-0.13265 L 7.0270821,20.223193 6.7417736,17.334685 c -0.00846,-0.07726 -0.065171,-0.132945 -0.1352628,-0.132945 -0.070959,0 -0.1277342,0.05601 -0.1349723,0.132945 0,3.78e-4 -0.2514108,2.888508 -0.2514108,2.888508 l 0.2514108,2.782994 c 0.00699,0.07726 0.063724,0.133222 0.1349723,0.133222 z m 8.7768652,-9.018693 c -0.175233,0 -0.315718,0.140241 -0.319192,0.319822 l -0.14251,5.787222 0.14251,2.784729 c 0.0034,0.177269 0.143677,0.317476 0.319192,0.317476 0.174956,0 0.314554,-0.139922 0.318615,-0.319511 v 0.0023 l 0.159878,-2.784753 -0.159878,-5.78785 c -0.0044,-0.179008 -0.143656,-0.31922 -0.318615,-0.31922 z M 10.92572,23.32765 c 0.121072,0 0.220998,-0.09939 0.226794,-0.226232 l 0.222447,-2.875403 -0.222447,-5.503553 c -0.0061,-0.127114 -0.105721,-0.226229 -0.226794,-0.226229 -0.122237,0 -0.221871,0.09942 -0.227084,0.226229 0,3.82e-4 -0.196949,5.503553 -0.196949,5.503553 l 0.197246,2.876577 c 0.0051,0.125651 0.104543,0.225058 0.226787,0.225058 z m 2.484008,-0.271388 v -0.0023 l 0.191158,-2.827879 -0.191158,-6.164172 c -0.0051,-0.153051 -0.124548,-0.273167 -0.272559,-0.273167 -0.148873,0 -0.26879,0.119846 -0.272846,0.273167 l -0.16974,6.163883 0.170015,2.829337 c 0.0044,0.151608 0.123976,0.271409 0.272556,0.271409 0.148299,0 0.267631,-0.119798 0.272559,-0.272313 v 0.0023 z m 14.458566,-6.382566 c -0.45388,0 -0.886901,0.09242 -1.281398,0.258879 -0.263576,-3.005127 -2.767279,-5.362458 -5.821309,-5.362458 -0.747289,0 -1.475747,0.148089 -2.119059,0.398522 -0.249959,0.09738 -0.316583,0.197669 -0.318901,0.392124 v 10.582662 c 0.0023,0.204074 0.159901,0.374022 0.357718,0.394115 0.0085,0.0023 9.123569,0.0055 9.182658,0.0055 1.829406,0 3.312685,-1.492933 3.312685,-3.334568 0,-1.841606 -1.482992,-3.334843 -3.312394,-3.334843 z M 17.650442,12.351633 c -0.198984,0 -0.362352,0.164417 -0.365248,0.366455 l -0.149467,7.511351 0.149743,2.72614 c 0.0023,0.199112 0.165965,0.363261 0.364961,0.363261 0.198412,0 0.361762,-0.164141 0.364659,-0.36618 v 0.0027 l 0.162488,-2.726432 -0.162488,-7.511935 c -0.0027,-0.201445 -0.166261,-0.365864 -0.364659,-0.365864 z"
         id="path3649"
         style="display:inline;fill:#2e0006;fill-opacity:0.0823955;stroke-width:0.561097;enable-background:new" />
      <path
         sodipodi:nodetypes="scccsccccccscscccscccccccsccccccscccscccsscccscccsscccccscccscccccscccccscccscccsscccscccsccccsccccccscccscccsccccscccscccccsccccssccccccscccccc"
         inkscape:connector-curvature="0"
         d="m 4.3690459,17.868463 c -0.056194,0 -0.1008025,0.0437 -0.1080455,0.106125 l -0.196957,1.50577 0.196957,1.479843 c 0.0073,0.06237 0.051846,0.105819 0.1080455,0.105819 0.054425,0 0.098765,-0.04316 0.1074508,-0.105255 v 0 0 0 L 4.7099585,19.480348 4.4764962,17.974295 c -0.00835,-0.06209 -0.053303,-0.105843 -0.1074508,-0.105843 z m 1.1075982,-0.822701 c -0.00927,-0.06473 -0.055325,-0.109326 -0.1120906,-0.109326 -0.057047,0 -0.1042701,0.04607 -0.1120906,0.109326 0,4.94e-4 -0.2647381,2.434586 -0.2647381,2.434586 l 0.2647381,2.380676 c 0.00753,0.06386 0.054707,0.109889 0.1120906,0.109889 0.056497,0 0.1025412,-0.04489 0.1117988,-0.109301 l 0.3012374,-2.38126 z m 4.172072,-2.245684 c -0.108626,0 -0.198412,0.0895 -0.203629,0.203183 l -0.21086,4.47912 0.21086,2.894621 c 0.0055,0.113139 0.095,0.202336 0.203629,0.202336 0.108026,0 0.197542,-0.08947 0.203904,-0.202886 v 0.0023 L 10.090998,19.48381 9.8526201,15.004697 c -0.0064,-0.113716 -0.09587,-0.203183 -0.203904,-0.203183 z m -2.1593132,1.556789 c -0.083429,0 -0.1514802,0.06706 -0.1581604,0.156549 l -0.2375134,2.967799 0.2375134,2.871325 c 0.00638,0.08892 0.074735,0.155977 0.1581604,0.155977 0.082534,0 0.1506122,-0.06706 0.1578442,-0.155977 l 0.269951,-2.871325 -0.269951,-2.968376 c -0.0072,-0.08892 -0.07531,-0.155977 -0.1578442,-0.155977 z m 4.3536751,6.222201 c 0.134686,0 0.244168,-0.109325 0.249674,-0.24925 l 0.20681,-2.845975 -0.206513,-5.963306 c -0.0055,-0.139923 -0.115003,-0.249258 -0.249678,-0.249258 -0.135851,0 -0.24562,0.10962 -0.249964,0.249561 0,3.71e-4 -0.183354,5.962723 -0.183354,5.962723 l 0.183354,2.847096 c 0.0044,0.138799 0.11412,0.248415 0.249678,0.248415 z m 4.492409,0.01315 c 0.185369,0 0.338307,-0.153644 0.341787,-0.342557 v 0.0023 -0.0023 l 0.144228,-2.764328 -0.144228,-6.887185 c -0.0027,-0.188613 -0.156422,-0.34254 -0.341787,-0.34254 -0.185666,0 -0.338883,0.153645 -0.341777,0.342837 l -0.128895,6.884547 c 0,0.0044 0.128895,2.768418 0.128895,2.768418 0.0027,0.187172 0.156401,0.340808 0.341777,0.340808 z m -2.263296,-0.01079 c 0.161342,0 0.291391,-0.130317 0.295733,-0.296514 v 0.0023 l 0.175529,-2.802808 -0.175805,-6.006454 c -0.0044,-0.166179 -0.134389,-0.2962 -0.295729,-0.2962 -0.162487,0 -0.292544,0.13002 -0.296018,0.2962 l -0.156126,6.006748 0.156423,2.802241 c 0.0034,0.164396 0.13354,0.294723 0.296012,0.294723 z m -5.5073349,-0.02622 c 0.09587,0 0.173494,-0.07724 0.180747,-0.178965 l 0.254307,-2.895217 -0.254307,-2.754111 c -0.007,-0.101724 -0.08457,-0.178413 -0.180747,-0.178413 -0.09732,0 -0.174935,0.07726 -0.181022,0.17958 l -0.223901,2.752944 0.223901,2.894941 c 0.0064,0.10203 0.0837,0.179262 0.181022,0.179262 z M 6.4226298,22.396643 c 0.0701,0 0.1268697,-0.05572 0.1349771,-0.13265 L 6.8432011,19.48041 6.5578926,16.591902 c -0.00846,-0.07726 -0.065171,-0.132945 -0.1352628,-0.132945 -0.070959,0 -0.1277342,0.05601 -0.1349723,0.132945 0,3.78e-4 -0.2514108,2.888508 -0.2514108,2.888508 l 0.2514108,2.782994 c 0.00699,0.07726 0.063724,0.133222 0.1349723,0.133222 z M 15.199495,13.37795 c -0.175233,0 -0.315718,0.140241 -0.319192,0.319822 l -0.14251,5.787222 0.14251,2.784729 c 0.0034,0.177269 0.143677,0.317476 0.319192,0.317476 0.174956,0 0.314554,-0.139922 0.318615,-0.319511 v 0.0023 l 0.159878,-2.784753 -0.159878,-5.78785 c -0.0044,-0.179008 -0.143656,-0.31922 -0.318615,-0.31922 z m -4.457656,9.206917 c 0.121072,0 0.220998,-0.09939 0.226794,-0.226232 l 0.222447,-2.875403 -0.222447,-5.503553 c -0.0061,-0.127114 -0.105721,-0.226229 -0.226794,-0.226229 -0.122237,0 -0.221871,0.09942 -0.227084,0.226229 0,3.82e-4 -0.196949,5.503553 -0.196949,5.503553 l 0.197246,2.876577 c 0.0051,0.125651 0.104543,0.225058 0.226787,0.225058 z m 2.484008,-0.271388 v -0.0023 L 13.417005,19.4833 13.225847,13.319128 c -0.0051,-0.153051 -0.124548,-0.273167 -0.272559,-0.273167 -0.148873,0 -0.26879,0.119846 -0.272846,0.273167 l -0.16974,6.163883 0.170015,2.829337 c 0.0044,0.151608 0.123976,0.271409 0.272556,0.271409 0.148299,0 0.267631,-0.119798 0.272559,-0.272313 v 0.0023 z m 14.458566,-6.382566 c -0.45388,0 -0.886901,0.09242 -1.281398,0.258879 -0.263576,-3.005127 -2.767279,-5.362458 -5.821309,-5.362458 -0.747289,0 -1.475747,0.148089 -2.119059,0.398522 -0.249959,0.09738 -0.316583,0.197669 -0.318901,0.392124 v 10.582662 c 0.0023,0.204074 0.159901,0.374022 0.357718,0.394115 0.0085,0.0023 9.123569,0.0055 9.182658,0.0055 1.829406,0 3.312685,-1.492933 3.312685,-3.334568 0,-1.841606 -1.482992,-3.334843 -3.312394,-3.334843 z M 17.466561,11.60885 c -0.198984,0 -0.362352,0.164417 -0.365248,0.366455 l -0.149467,7.511351 0.149743,2.72614 c 0.0023,0.199112 0.165965,0.363261 0.364961,0.363261 0.198412,0 0.361762,-0.164141 0.364659,-0.36618 v 0.0027 l 0.162488,-2.726432 -0.162488,-7.511935 c -0.0027,-0.201445 -0.166261,-0.365864 -0.364659,-0.365864 z"
         id="path3358"
         style="display:inline;fill:#2e0006;fill-opacity:0.0823955;stroke-width:0.561097;enable-background:new" />
      <path
         sodipodi:nodetypes="scccsccccccscscccscccccccsccccccscccscccsscccscccsscccccscccscccccscccccscccscccsscccscccsccccsccccccscccscccsccccscccscccccsccccssccccccscccccc"
         inkscape:connector-curvature="0"
         d="m 4.8650997,20.101602 c -0.056194,0 -0.1008025,0.0437 -0.1080455,0.106125 l -0.196957,1.50577 0.196957,1.479843 c 0.0073,0.06237 0.051846,0.105819 0.1080455,0.105819 0.054425,0 0.098765,-0.04316 0.1074508,-0.105255 v 0 0 0 L 5.2060123,21.713487 4.97255,20.207434 C 4.9642,20.145344 4.919247,20.101591 4.8650992,20.101591 Z m 1.1075982,-0.822701 c -0.00927,-0.06473 -0.055325,-0.109326 -0.1120906,-0.109326 -0.057047,0 -0.1042701,0.04607 -0.1120906,0.109326 0,4.94e-4 -0.2647381,2.434586 -0.2647381,2.434586 l 0.2647381,2.380676 c 0.00753,0.06386 0.054707,0.109889 0.1120906,0.109889 0.056497,0 0.1025412,-0.04489 0.1117988,-0.109301 l 0.3012374,-2.38126 z M 10.14477,17.033217 c -0.108626,0 -0.1984122,0.0895 -0.2036292,0.203183 l -0.2108599,4.47912 0.2108599,2.894621 c 0.0055,0.113139 0.095,0.202336 0.2036292,0.202336 0.108026,0 0.197542,-0.08947 0.203904,-0.202886 v 0.0023 l 0.238378,-2.894942 -0.238378,-4.479113 c -0.0064,-0.113716 -0.09587,-0.203183 -0.203904,-0.203183 z m -2.1593133,1.556789 c -0.083429,0 -0.1514802,0.06706 -0.1581604,0.156549 l -0.2375134,2.967799 0.2375134,2.871325 c 0.00638,0.08892 0.074735,0.155977 0.1581604,0.155977 0.082534,0 0.1506122,-0.06706 0.1578442,-0.155977 l 0.269951,-2.871325 -0.269951,-2.968376 c -0.0072,-0.08892 -0.07531,-0.155977 -0.1578442,-0.155977 z m 4.3536753,6.222201 c 0.134686,0 0.244168,-0.109325 0.249674,-0.24925 l 0.20681,-2.845975 -0.206513,-5.963306 c -0.0055,-0.139923 -0.115003,-0.249258 -0.249678,-0.249258 -0.135851,0 -0.24562,0.10962 -0.249964,0.249561 0,3.71e-4 -0.183354,5.962723 -0.183354,5.962723 l 0.183354,2.847096 c 0.0044,0.138799 0.11412,0.248415 0.249678,0.248415 z m 4.492409,0.01315 c 0.185369,0 0.338307,-0.153644 0.341787,-0.342557 v 0.0023 -0.0023 l 0.144228,-2.764328 -0.144228,-6.887185 c -0.0027,-0.188613 -0.156422,-0.34254 -0.341787,-0.34254 -0.185666,0 -0.338883,0.153645 -0.341777,0.342837 l -0.128895,6.884547 c 0,0.0044 0.128895,2.768418 0.128895,2.768418 0.0027,0.187172 0.156401,0.340808 0.341777,0.340808 z m -2.263296,-0.01079 c 0.161342,0 0.291391,-0.130317 0.295733,-0.296514 v 0.0023 l 0.175529,-2.802808 -0.175805,-6.006454 c -0.0044,-0.166179 -0.134389,-0.2962 -0.295729,-0.2962 -0.162487,0 -0.292544,0.13002 -0.296018,0.2962 l -0.156126,6.006748 0.156423,2.802241 c 0.0034,0.164396 0.13354,0.294723 0.296012,0.294723 z m -5.5073351,-0.02622 c 0.09587,0 0.173494,-0.07724 0.180747,-0.178965 l 0.254307,-2.895217 -0.254307,-2.754111 c -0.007,-0.101724 -0.08457,-0.178413 -0.180747,-0.178413 -0.09732,0 -0.174935,0.07726 -0.181022,0.17958 l -0.223901,2.752944 0.223901,2.894941 c 0.0064,0.10203 0.0837,0.179262 0.181022,0.179262 z M 6.9186836,24.629782 c 0.0701,0 0.1268697,-0.05572 0.1349771,-0.13265 L 7.3392549,21.713549 7.0539464,18.825041 c -0.00846,-0.07726 -0.065171,-0.132945 -0.1352628,-0.132945 -0.070959,0 -0.1277342,0.05601 -0.1349723,0.132945 0,3.78e-4 -0.2514108,2.888508 -0.2514108,2.888508 l 0.2514108,2.782994 c 0.00699,0.07726 0.063724,0.133222 0.1349723,0.133222 z m 8.7768654,-9.018693 c -0.175233,0 -0.315718,0.140241 -0.319192,0.319822 l -0.14251,5.787222 0.14251,2.784729 c 0.0034,0.177269 0.143677,0.317476 0.319192,0.317476 0.174956,0 0.314554,-0.139922 0.318615,-0.319511 v 0.0023 l 0.159878,-2.784753 -0.159878,-5.78785 c -0.0044,-0.179008 -0.143656,-0.31922 -0.318615,-0.31922 z m -4.457656,9.206917 c 0.121072,0 0.220998,-0.09939 0.226794,-0.226232 l 0.222447,-2.875403 -0.222447,-5.503553 c -0.0061,-0.127114 -0.105721,-0.226229 -0.226794,-0.226229 -0.122237,0 -0.221871,0.09942 -0.227084,0.226229 0,3.82e-4 -0.196949,5.503553 -0.196949,5.503553 l 0.197246,2.876577 c 0.0051,0.125651 0.104543,0.225058 0.226787,0.225058 z m 2.484008,-0.271388 v -0.0023 l 0.191158,-2.827879 -0.191158,-6.164172 c -0.0051,-0.153051 -0.124548,-0.273167 -0.272559,-0.273167 -0.148873,0 -0.26879,0.119846 -0.272846,0.273167 l -0.16974,6.163883 0.170015,2.829337 c 0.0044,0.151608 0.123976,0.271409 0.272556,0.271409 0.148299,0 0.267631,-0.119798 0.272559,-0.272313 v 0.0023 z m 14.458566,-6.382566 c -0.45388,0 -0.886901,0.09242 -1.281398,0.258879 -0.263576,-3.005127 -2.767279,-5.362458 -5.821309,-5.362458 -0.747289,0 -1.475747,0.148089 -2.119059,0.398522 -0.249959,0.09738 -0.316583,0.197669 -0.318901,0.392124 v 10.582662 c 0.0023,0.204074 0.159901,0.374022 0.357718,0.394115 0.0085,0.0023 9.123569,0.0055 9.182658,0.0055 1.829406,0 3.312685,-1.492933 3.312685,-3.334568 0,-1.841606 -1.482992,-3.334843 -3.312394,-3.334843 z M 17.962615,13.841989 c -0.198984,0 -0.362352,0.164417 -0.365248,0.366455 l -0.149467,7.511351 0.149743,2.72614 c 0.0023,0.199112 0.165965,0.363261 0.364961,0.363261 0.198412,0 0.361762,-0.164141 0.364659,-0.36618 v 0.0027 l 0.162488,-2.726432 -0.162488,-7.511935 c -0.0027,-0.201445 -0.166261,-0.365864 -0.364659,-0.365864 z"
         id="path3651"
         style="display:inline;fill:#2e0006;fill-opacity:0.0823955;stroke-width:0.561097;enable-background:new" />
    </g>
    <path
       sodipodi:nodetypes="scccsccccccscscccscccccccsccccccscccscccsscccscccsscccccscccscccccscccccscccscccsscccscccsccccsccccccscccscccsccccscccscccccsccccssccccccscccccc"
       inkscape:connector-curvature="0"
       d="m 5.8809507,15.642183 c -0.04697,0 -0.084256,0.03653 -0.09031,0.08871 l -0.1646269,1.2586 0.1646269,1.23693 c 0.0061,0.05213 0.043336,0.08845 0.09031,0.08845 0.045491,0 0.082553,-0.03608 0.089813,-0.08798 v 0 0 0 L 6.1659031,16.98948 5.9707632,15.730643 c -0.00698,-0.0519 -0.044553,-0.08847 -0.089813,-0.08847 z m 0.9257879,-0.687656 c -0.00775,-0.0541 -0.046244,-0.09138 -0.093691,-0.09138 -0.047683,0 -0.087154,0.03851 -0.093691,0.09138 0,4.13e-4 -0.2212818,2.034953 -0.2212818,2.034953 l 0.2212818,1.989892 c 0.00629,0.05338 0.045727,0.09185 0.093691,0.09185 0.047223,0 0.085709,-0.03752 0.093447,-0.09136 l 0.2517898,-1.990381 z m 3.4872344,-1.877059 c -0.09079,0 -0.165844,0.07481 -0.170204,0.169831 l -0.1762479,3.74388 0.1762479,2.419474 c 0.0046,0.09457 0.07941,0.169123 0.170204,0.169123 0.09029,0 0.165115,-0.07478 0.170433,-0.169582 v 0.0019 l 0.199249,-2.41972 -0.199249,-3.743875 c -0.0053,-0.09505 -0.08013,-0.169831 -0.170433,-0.169831 z m -1.8048663,1.301245 c -0.069734,0 -0.126615,0.05605 -0.1321987,0.130851 l -0.198526,2.480641 0.198526,2.400002 c 0.00533,0.07432 0.062467,0.130373 0.1321987,0.130373 0.068986,0 0.1258894,-0.05605 0.1319343,-0.130373 L 8.84668,16.990205 8.621041,14.509082 C 8.615021,14.434762 8.558093,14.378709 8.4891067,14.378709 Z m 3.6390273,5.200838 c 0.112577,0 0.204088,-0.09138 0.20869,-0.208337 l 0.172863,-2.378813 -0.172614,-4.98444 c -0.0046,-0.116955 -0.09613,-0.208343 -0.208694,-0.208343 -0.113551,0 -0.205302,0.09163 -0.208933,0.208596 0,3.11e-4 -0.153257,4.983953 -0.153257,4.983953 l 0.153257,2.37975 c 0.0037,0.116016 0.09539,0.207639 0.208694,0.207639 z m 3.754988,0.01099 c 0.154941,0 0.282775,-0.128424 0.285684,-0.286327 v 0.0019 -0.0019 l 0.120553,-2.310568 -0.120553,-5.756666 c -0.0023,-0.157653 -0.130746,-0.286313 -0.285684,-0.286313 -0.155189,0 -0.283256,0.128424 -0.285675,0.286561 l -0.107737,5.754461 c 0,0.0037 0.107737,2.313987 0.107737,2.313987 0.0023,0.156448 0.130729,0.284865 0.285675,0.284865 z m -1.89178,-0.009 c 0.134858,0 0.24356,-0.108926 0.247189,-0.247842 v 0.0019 l 0.146717,-2.342727 -0.146947,-5.020506 c -0.0037,-0.138901 -0.11233,-0.247579 -0.247186,-0.247579 -0.135815,0 -0.244523,0.108678 -0.247427,0.247579 l -0.130498,5.020752 0.130746,2.342258 c 0.0028,0.13741 0.11162,0.246344 0.247422,0.246344 z m -4.6033159,-0.02192 c 0.080133,0 0.1450153,-0.06456 0.1510777,-0.149588 l 0.212563,-2.419972 -0.212563,-2.302029 c -0.00585,-0.08503 -0.070688,-0.149127 -0.1510777,-0.149127 -0.081345,0 -0.1462197,0.06458 -0.1513075,0.150102 l -0.1871481,2.301054 0.1871481,2.419741 c 0.00535,0.08528 0.069961,0.149837 0.1513075,0.149837 z M 7.5974425,19.42707 c 0.058593,0 0.1060442,-0.04657 0.1128208,-0.110875 L 7.9489777,16.989532 7.7105021,14.575167 c -0.00707,-0.06458 -0.054473,-0.111122 -0.1130596,-0.111122 -0.059311,0 -0.1067669,0.04682 -0.1128169,0.111122 0,3.16e-4 -0.2101421,2.414365 -0.2101421,2.414365 l 0.2101421,2.32617 c 0.00584,0.06458 0.053264,0.111354 0.1128169,0.111354 z m 7.3361585,-7.53829 c -0.146468,0 -0.263893,0.11722 -0.266797,0.267323 l -0.119117,4.83726 0.119117,2.327621 c 0.0028,0.148171 0.120093,0.265363 0.266797,0.265363 0.146238,0 0.262921,-0.116954 0.266315,-0.267064 v 0.0019 l 0.133635,-2.32764 -0.133635,-4.837785 c -0.0037,-0.149624 -0.120075,-0.266821 -0.266315,-0.266821 z m -3.72594,7.695618 c 0.101199,0 0.184722,-0.08308 0.189566,-0.189097 L 11.58316,16.99189 11.397227,12.391736 c -0.0051,-0.106249 -0.08837,-0.189094 -0.189566,-0.189094 -0.102172,0 -0.185451,0.0831 -0.189808,0.189094 0,3.19e-4 -0.16462,4.600154 -0.16462,4.600154 l 0.164868,2.404393 c 0.0043,0.105025 0.08738,0.188115 0.18956,0.188115 z m 2.076263,-0.22684 v -0.0019 l 0.159779,-2.363711 -0.159779,-5.152334 c -0.0043,-0.127928 -0.104104,-0.228327 -0.227819,-0.228327 -0.124435,0 -0.224669,0.100174 -0.228059,0.228327 l -0.141877,5.152093 0.142107,2.364906 c 0.0037,0.126722 0.103626,0.226858 0.227816,0.226858 0.123956,0 0.2237,-0.100134 0.227819,-0.227613 v 0.0019 z m 12.085218,-5.33488 c -0.379377,0 -0.741318,0.07725 -1.071059,0.216385 -0.220311,-2.511841 -2.313035,-4.4822203 -4.865752,-4.4822203 -0.624623,0 -1.233505,0.12378 -1.771219,0.3331053 -0.208929,0.0814 -0.264616,0.165222 -0.266554,0.327758 v 8.845537 c 0.0019,0.170575 0.133654,0.312626 0.298999,0.329421 0.0071,0.0019 7.625952,0.0046 7.675341,0.0046 1.529113,0 2.768914,-1.24787 2.768914,-2.787204 0,-1.53931 -1.239561,-2.787435 -2.76867,-2.787435 z m -8.540609,-3.612604 c -0.166322,0 -0.302874,0.137428 -0.305294,0.306302 l -0.124933,6.278376 0.125163,2.278649 c 0.0019,0.166429 0.138722,0.303633 0.305054,0.303633 0.165843,0 0.302379,-0.137198 0.3048,-0.306072 v 0.0023 l 0.135816,-2.278893 -0.135816,-6.278864 c -0.0023,-0.168378 -0.138968,-0.305808 -0.3048,-0.305808 z"
       id="path3850"
       style="display:inline;fill:url(#linearGradient1131);fill-opacity:1;stroke-width:0.468994;enable-background:new" />
    <path
       sodipodi:nodetypes="scccsccccccscscccscccccccsccccccscccscccsscccscccsscccccscccscccccscccccscccscccsscccscccsccccsccccccscccscccsccccscccscccccsccccssccccccscccccc"
       inkscape:connector-curvature="0"
       d="m 5.8809507,15.642183 c -0.04697,0 -0.084256,0.03653 -0.09031,0.08871 l -0.1646269,1.2586 0.1646269,1.23693 c 0.0061,0.05213 0.043336,0.08845 0.09031,0.08845 0.045491,0 0.082553,-0.03608 0.089813,-0.08798 v 0 0 0 L 6.1659031,16.98948 5.9707632,15.730643 c -0.00698,-0.0519 -0.044553,-0.08847 -0.089813,-0.08847 z m 0.9257879,-0.687656 c -0.00775,-0.0541 -0.046244,-0.09138 -0.093691,-0.09138 -0.047683,0 -0.087154,0.03851 -0.093691,0.09138 0,4.13e-4 -0.2212818,2.034953 -0.2212818,2.034953 l 0.2212818,1.989892 c 0.00629,0.05338 0.045727,0.09185 0.093691,0.09185 0.047223,0 0.085709,-0.03752 0.093447,-0.09136 l 0.2517898,-1.990381 z m 3.4872344,-1.877059 c -0.09079,0 -0.165844,0.07481 -0.170204,0.169831 l -0.1762479,3.74388 0.1762479,2.419474 c 0.0046,0.09457 0.07941,0.169123 0.170204,0.169123 0.09029,0 0.165115,-0.07478 0.170433,-0.169582 v 0.0019 l 0.199249,-2.41972 -0.199249,-3.743875 c -0.0053,-0.09505 -0.08013,-0.169831 -0.170433,-0.169831 z m -1.8048663,1.301245 c -0.069734,0 -0.126615,0.05605 -0.1321987,0.130851 l -0.198526,2.480641 0.198526,2.400002 c 0.00533,0.07432 0.062467,0.130373 0.1321987,0.130373 0.068986,0 0.1258894,-0.05605 0.1319343,-0.130373 L 8.84668,16.990205 8.621041,14.509082 C 8.615021,14.434762 8.558093,14.378709 8.4891067,14.378709 Z m 3.6390273,5.200838 c 0.112577,0 0.204088,-0.09138 0.20869,-0.208337 l 0.172863,-2.378813 -0.172614,-4.98444 c -0.0046,-0.116955 -0.09613,-0.208343 -0.208694,-0.208343 -0.113551,0 -0.205302,0.09163 -0.208933,0.208596 0,3.11e-4 -0.153257,4.983953 -0.153257,4.983953 l 0.153257,2.37975 c 0.0037,0.116016 0.09539,0.207639 0.208694,0.207639 z m 3.754988,0.01099 c 0.154941,0 0.282775,-0.128424 0.285684,-0.286327 v 0.0019 -0.0019 l 0.120553,-2.310568 -0.120553,-5.756666 c -0.0023,-0.157653 -0.130746,-0.286313 -0.285684,-0.286313 -0.155189,0 -0.283256,0.128424 -0.285675,0.286561 l -0.107737,5.754461 c 0,0.0037 0.107737,2.313987 0.107737,2.313987 0.0023,0.156448 0.130729,0.284865 0.285675,0.284865 z m -1.89178,-0.009 c 0.134858,0 0.24356,-0.108926 0.247189,-0.247842 v 0.0019 l 0.146717,-2.342727 -0.146947,-5.020506 c -0.0037,-0.138901 -0.11233,-0.247579 -0.247186,-0.247579 -0.135815,0 -0.244523,0.108678 -0.247427,0.247579 l -0.130498,5.020752 0.130746,2.342258 c 0.0028,0.13741 0.11162,0.246344 0.247422,0.246344 z m -4.6033159,-0.02192 c 0.080133,0 0.1450153,-0.06456 0.1510777,-0.149588 l 0.212563,-2.419972 -0.212563,-2.302029 c -0.00585,-0.08503 -0.070688,-0.149127 -0.1510777,-0.149127 -0.081345,0 -0.1462197,0.06458 -0.1513075,0.150102 l -0.1871481,2.301054 0.1871481,2.419741 c 0.00535,0.08528 0.069961,0.149837 0.1513075,0.149837 z M 7.5974425,19.42707 c 0.058593,0 0.1060442,-0.04657 0.1128208,-0.110875 L 7.9489777,16.989532 7.7105021,14.575167 c -0.00707,-0.06458 -0.054473,-0.111122 -0.1130596,-0.111122 -0.059311,0 -0.1067669,0.04682 -0.1128169,0.111122 0,3.16e-4 -0.2101421,2.414365 -0.2101421,2.414365 l 0.2101421,2.32617 c 0.00584,0.06458 0.053264,0.111354 0.1128169,0.111354 z m 7.3361585,-7.53829 c -0.146468,0 -0.263893,0.11722 -0.266797,0.267323 l -0.119117,4.83726 0.119117,2.327621 c 0.0028,0.148171 0.120093,0.265363 0.266797,0.265363 0.146238,0 0.262921,-0.116954 0.266315,-0.267064 v 0.0019 l 0.133635,-2.32764 -0.133635,-4.837785 c -0.0037,-0.149624 -0.120075,-0.266821 -0.266315,-0.266821 z m -3.72594,7.695618 c 0.101199,0 0.184722,-0.08308 0.189566,-0.189097 L 11.58316,16.99189 11.397227,12.391736 c -0.0051,-0.106249 -0.08837,-0.189094 -0.189566,-0.189094 -0.102172,0 -0.185451,0.0831 -0.189808,0.189094 0,3.19e-4 -0.16462,4.600154 -0.16462,4.600154 l 0.164868,2.404393 c 0.0043,0.105025 0.08738,0.188115 0.18956,0.188115 z m 2.076263,-0.22684 v -0.0019 l 0.159779,-2.363711 -0.159779,-5.152334 c -0.0043,-0.127928 -0.104104,-0.228327 -0.227819,-0.228327 -0.124435,0 -0.224669,0.100174 -0.228059,0.228327 l -0.141877,5.152093 0.142107,2.364906 c 0.0037,0.126722 0.103626,0.226858 0.227816,0.226858 0.123956,0 0.2237,-0.100134 0.227819,-0.227613 v 0.0019 z m 12.085218,-5.33488 c -0.379377,0 -0.741318,0.07725 -1.071059,0.216385 -0.220311,-2.511841 -2.313035,-4.4822203 -4.865752,-4.4822203 -0.624623,0 -1.233505,0.12378 -1.771219,0.3331053 -0.208929,0.0814 -0.264616,0.165222 -0.266554,0.327758 v 8.845537 c 0.0019,0.170575 0.133654,0.312626 0.298999,0.329421 0.0071,0.0019 7.625952,0.0046 7.675341,0.0046 1.529113,0 2.768914,-1.24787 2.768914,-2.787204 0,-1.53931 -1.239561,-2.787435 -2.76867,-2.787435 z m -8.540609,-3.612604 c -0.166322,0 -0.302874,0.137428 -0.305294,0.306302 l -0.124933,6.278376 0.125163,2.278649 c 0.0019,0.166429 0.138722,0.303633 0.305054,0.303633 0.165843,0 0.302379,-0.137198 0.3048,-0.306072 v 0.0023 l 0.135816,-2.278893 -0.135816,-6.278864 c -0.0023,-0.168378 -0.138968,-0.305808 -0.3048,-0.305808 z"
       id="path2413"
       style="display:inline;fill:url(#linearGradient3356);fill-opacity:1;stroke-width:0.468994;enable-background:new" />
  </g>
</svg>
