<?xml version="1.0" encoding="UTF-8" standalone="no"?>
<svg
   width="128"
   height="128"
   viewBox="0 0 33.866666 33.866668"
   version="1.1"
   id="svg1015"
   inkscape:version="1.1.2 (0a00cf5339, 2022-02-04)"
   sodipodi:docname="unison-gtk.svg"
   xmlns:inkscape="http://www.inkscape.org/namespaces/inkscape"
   xmlns:sodipodi="http://sodipodi.sourceforge.net/DTD/sodipodi-0.dtd"
   xmlns:xlink="http://www.w3.org/1999/xlink"
   xmlns="http://www.w3.org/2000/svg"
   xmlns:svg="http://www.w3.org/2000/svg"
   xmlns:rdf="http://www.w3.org/1999/02/22-rdf-syntax-ns#"
   xmlns:cc="http://creativecommons.org/ns#"
   xmlns:dc="http://purl.org/dc/elements/1.1/">
  <defs
     id="defs1009">
    <linearGradient
       inkscape:collect="always"
       id="linearGradient873">
      <stop
         style="stop-color:#0b0b0b;stop-opacity:1;"
         offset="0"
         id="stop869" />
      <stop
         style="stop-color:#0b0b0b;stop-opacity:0.85882353;"
         offset="0.68076366"
         id="stop878" />
      <stop
         style="stop-color:#0b0b0b;stop-opacity:0.83137255;"
         offset="0.69925421"
         id="stop888" />
      <stop
         style="stop-color:#0b0b0b;stop-opacity:0.80392157;"
         offset="0.71879315"
         id="stop890" />
      <stop
         style="stop-color:#0b0b0b;stop-opacity:0.78039216;"
         offset="0.73593426"
         id="stop892" />
      <stop
         style="stop-color:#0b0b0b;stop-opacity:0.75686275;"
         offset="0.75022364"
         id="stop894" />
      <stop
         style="stop-color:#0b0b0b;stop-opacity:0.73333333;"
         offset="0.76798755"
         id="stop896" />
      <stop
         style="stop-color:#0b0b0b;stop-opacity:0.08235294;"
         offset="0.9150058"
         id="stop919" />
      <stop
         style="stop-color:#0b0b0b;stop-opacity:0.07058824;"
         offset="0.92246956"
         id="stop917" />
      <stop
         style="stop-color:#0b0b0b;stop-opacity:0.05882353;"
         offset="0.92918676"
         id="stop915" />
      <stop
         style="stop-color:#0b0b0b;stop-opacity:0.04705882;"
         offset="0.93840873"
         id="stop912" />
      <stop
         style="stop-color:#0b0b0b;stop-opacity:0.03137255;"
         offset="0.94760686"
         id="stop910" />
      <stop
         style="stop-color:#0b0b0b;stop-opacity:0.02352941;"
         offset="0.95380515"
         id="stop908" />
      <stop
         style="stop-color:#0b0b0b;stop-opacity:0.01568627;"
         offset="0.95886087"
         id="stop906" />
      <stop
         style="stop-color:#0b0b0b;stop-opacity:0.01176471;"
         offset="0.96356124"
         id="stop904" />
      <stop
         style="stop-color:#0b0b0b;stop-opacity:0.00784314;"
         offset="0.96845078"
         id="stop902" />
      <stop
         style="stop-color:#0b0b0b;stop-opacity:0.00392157;"
         offset="0.97347641"
         id="stop900" />
      <stop
         style="stop-color:#0b0b0b;stop-opacity:0;"
         offset="0.97812337"
         id="stop886" />
      <stop
         style="stop-color:#0b0b0b;stop-opacity:0;"
         offset="0.98456311"
         id="stop884" />
      <stop
         style="stop-color:#0b0b0b;stop-opacity:0;"
         offset="0.98700982"
         id="stop882" />
      <stop
         style="stop-color:#0b0b0b;stop-opacity:0;"
         offset="0.98924524"
         id="stop880" />
      <stop
         style="stop-color:#0b0b0b;stop-opacity:0;"
         offset="1"
         id="stop871" />
    </linearGradient>
    <linearGradient
       inkscape:collect="always"
       xlink:href="#linearGradient895"
       id="linearGradient897"
       x1="2685.9844"
       y1="1088.7905"
       x2="2685.9844"
       y2="1770.3615"
       gradientUnits="userSpaceOnUse"
       gradientTransform="matrix(0.04277854,0,0,0.04277854,-95.919086,-44.867312)" />
    <linearGradient
       inkscape:collect="always"
       id="linearGradient895">
      <stop
         style="stop-color:#ffe95f;stop-opacity:1"
         offset="0"
         id="stop891" />
      <stop
         style="stop-color:#ffa115;stop-opacity:1"
         offset="1"
         id="stop893" />
    </linearGradient>
    <linearGradient
       inkscape:collect="always"
       id="linearGradient879">
      <stop
         style="stop-color:#fcd840;stop-opacity:1"
         offset="0"
         id="stop875" />
      <stop
         style="stop-color:#ffb937;stop-opacity:1"
         offset="1"
         id="stop877" />
    </linearGradient>
    <radialGradient
       inkscape:collect="always"
       xlink:href="#linearGradient873"
       id="radialGradient898"
       gradientUnits="userSpaceOnUse"
       cx="60.636452"
       cy="20.456388"
       fx="60.636452"
       fy="20.456388"
       r="17.303919"
       gradientTransform="translate(-43.433354,-3.9448764)" />
    <radialGradient
       inkscape:collect="always"
       xlink:href="#linearGradient879"
       id="radialGradient993"
       cx="16.968126"
       cy="4.670938"
       fx="16.968126"
       fy="4.670938"
       r="13.695572"
       gradientUnits="userSpaceOnUse"
       gradientTransform="matrix(4.8885673,0,0,1.8641486,-65.723642,-2.4382716)" />
  </defs>
  <sodipodi:namedview
     id="base"
     pagecolor="#ffffff"
     bordercolor="#666666"
     borderopacity="1.0"
     inkscape:pageopacity="0.0"
     inkscape:pageshadow="2"
     inkscape:zoom="3.959798"
     inkscape:cx="36.61803"
     inkscape:cy="30.430845"
     inkscape:document-units="mm"
     inkscape:current-layer="layer1"
     inkscape:document-rotation="0"
     showgrid="false"
     units="px"
     inkscape:window-width="1920"
     inkscape:window-height="1030"
     inkscape:window-x="0"
     inkscape:window-y="24"
     inkscape:window-maximized="1"
     inkscape:pagecheckerboard="0" />
  <metadata
     id="metadata1012">
    <rdf:RDF>
      <cc:Work
         rdf:about="">
        <dc:format>image/svg+xml</dc:format>
        <dc:type
           rdf:resource="http://purl.org/dc/dcmitype/StillImage" />
      </cc:Work>
    </rdf:RDF>
  </metadata>
  <g
     inkscape:label="Capa 1"
     inkscape:groupmode="layer"
     id="layer1">
    <circle
       style="opacity:0.309726;fill:url(#radialGradient898);fill-opacity:1;stroke-width:3;stroke-linecap:square;stroke-linejoin:round"
       id="path867"
       cx="17.203098"
       cy="16.511513"
       r="17.303919" />
    <circle
       style="fill:url(#linearGradient897);fill-opacity:1;stroke:#b1aaaa;stroke-width:0.0575565;stroke-linecap:square;stroke-opacity:0.992157"
       id="circle839"
       cx="17.203098"
       cy="16.511513"
       r="15.118138" />
    <circle
       style="fill:url(#radialGradient993);fill-opacity:1;stroke:none;stroke-width:0.0498826;stroke-linecap:square;stroke-opacity:1"
       id="circle839-3"
       cx="17.203098"
       cy="16.511513"
       r="13.102469" />
    <path
       id="path2918"
       style="fill:#190006;fill-opacity:0.0359888;stroke-width:0.523051"
       d="M 11.992576,6.9612158 A 0.54763521,0.35316791 0 0 0 11.546669,7.1370742 L 8.4328488,10.615158 a 0.54763521,0.35316791 0 0 0 0.4747981,0.530064 h 1.0211935 v 10.461882 c 0,3.477246 2.7993726,6.276629 6.2766256,6.276629 h 2.09137 c 3.477254,0 6.276629,-2.799383 6.276629,-6.276629 V 11.145222 h 1.021191 a 0.54763521,0.35316791 0 0 0 0.474799,-0.530064 L 22.955634,7.1370742 a 0.54763521,0.35316791 0 0 0 -0.448421,-0.1758584 0.54763521,0.35316791 0 0 0 -0.05401,0 0.54763521,0.35316791 0 0 0 -0.445908,0.1758584 L 18.89348,10.615158 a 0.54763521,0.35316791 0 0 0 0.474798,0.530064 h 1.021189 v 7.322941 4.185256 c 0,1.733188 -1.4057,3.137685 -3.138941,3.137685 -1.733245,0 -3.137688,-1.404497 -3.137688,-3.137685 v -4.185264 -7.322939 h 1.021194 a 0.54763521,0.35316791 0 0 0 0.474794,-0.530065 l -3.11382,-3.4780841 a 0.54763521,0.35316791 0 0 0 -0.448421,-0.1758584 0.54763521,0.35316791 0 0 0 -0.054,0 z" />
    <path
       id="path3156"
       style="fill:#190006;fill-opacity:0.0359888;stroke-width:0.523051"
       d="M 12.097358,7.1340406 A 0.54763521,0.35316791 0 0 0 11.651451,7.309899 l -3.1138203,3.478084 a 0.54763521,0.35316791 0 0 0 0.4747981,0.530064 h 1.0211932 v 10.461882 c 0,3.477246 2.799373,6.276629 6.276626,6.276629 h 2.09137 c 3.477254,0 6.276629,-2.799383 6.276629,-6.276629 V 11.318047 h 1.021191 a 0.54763521,0.35316791 0 0 0 0.474799,-0.530064 L 23.060416,7.309899 a 0.54763521,0.35316791 0 0 0 -0.448421,-0.1758584 0.54763521,0.35316791 0 0 0 -0.05401,0 0.54763521,0.35316791 0 0 0 -0.445908,0.1758584 l -3.113815,3.478084 a 0.54763521,0.35316791 0 0 0 0.474798,0.530064 h 1.021189 v 7.322941 4.185256 c 0,1.733188 -1.4057,3.137685 -3.138941,3.137685 -1.733245,0 -3.137688,-1.404497 -3.137688,-3.137685 V 18.64098 11.318041 h 1.021194 a 0.54763521,0.35316791 0 0 0 0.474794,-0.530065 l -3.11382,-3.4780843 a 0.54763521,0.35316791 0 0 0 -0.448421,-0.1758584 0.54763521,0.35316791 0 0 0 -0.054,0 z" />
    <path
       id="path3158"
       style="fill:#190006;fill-opacity:0.0359888;stroke-width:0.523051"
       d="M 12.243919,7.4490666 A 0.54763521,0.35316791 0 0 0 11.798012,7.624925 l -3.11382,3.478084 a 0.54763521,0.35316791 0 0 0 0.4747981,0.530064 h 1.0211939 v 10.461882 c 0,3.477246 2.799372,6.276629 6.276625,6.276629 h 2.09137 c 3.477254,0 6.276629,-2.799383 6.276629,-6.276629 V 11.633073 h 1.021191 a 0.54763521,0.35316791 0 0 0 0.474799,-0.530064 L 23.206977,7.624925 a 0.54763521,0.35316791 0 0 0 -0.448421,-0.1758584 0.54763521,0.35316791 0 0 0 -0.05401,0 0.54763521,0.35316791 0 0 0 -0.445908,0.1758584 l -3.113815,3.478084 a 0.54763521,0.35316791 0 0 0 0.474798,0.530064 h 1.021189 v 7.322941 4.185256 c 0,1.733188 -1.4057,3.137685 -3.138941,3.137685 -1.733245,0 -3.137688,-1.404497 -3.137688,-3.137685 v -4.185264 -7.322939 h 1.021194 a 0.54763521,0.35316791 0 0 0 0.474794,-0.530065 l -3.11382,-3.4780843 a 0.54763521,0.35316791 0 0 0 -0.448421,-0.1758584 0.54763521,0.35316791 0 0 0 -0.054,0 z" />
    <path
       id="path3160"
       style="fill:#190006;fill-opacity:0.0359888;stroke-width:0.523051"
       d="M 12.497597,7.9683939 A 0.54763521,0.35316791 0 0 0 12.05169,8.1442523 L 8.9378696,11.622336 A 0.54763521,0.35316791 0 0 0 9.4126677,12.1524 h 1.0211933 v 10.461882 c 0,3.477246 2.799373,6.276629 6.276626,6.276629 h 2.09137 c 3.477254,0 6.276629,-2.799383 6.276629,-6.276629 V 12.1524 h 1.021191 a 0.54763521,0.35316791 0 0 0 0.474799,-0.530064 L 23.460655,8.1442523 a 0.54763521,0.35316791 0 0 0 -0.448421,-0.1758584 0.54763521,0.35316791 0 0 0 -0.05401,0 0.54763521,0.35316791 0 0 0 -0.445908,0.1758584 l -3.113815,3.4780837 a 0.54763521,0.35316791 0 0 0 0.474798,0.530064 h 1.021189 v 7.322941 4.185256 c 0,1.733188 -1.4057,3.137685 -3.138941,3.137685 -1.733245,0 -3.137688,-1.404497 -3.137688,-3.137685 v -4.185264 -7.322939 h 1.021194 a 0.54763521,0.35316791 0 0 0 0.474794,-0.530065 l -3.11382,-3.478084 a 0.54763521,0.35316791 0 0 0 -0.448421,-0.1758584 0.54763521,0.35316791 0 0 0 -0.054,0 z" />
    <path
       id="path3162"
       style="fill:#190006;fill-opacity:0.0359888;stroke-width:0.523051"
       d="M 12.931221,8.3624648 A 0.54763521,0.35316791 0 0 0 12.485314,8.5383232 L 9.3714931,12.016407 a 0.54763521,0.35316791 0 0 0 0.4747981,0.530064 h 1.0211938 v 10.461882 c 0,3.477246 2.799373,6.276629 6.276626,6.276629 h 2.09137 c 3.477254,0 6.276629,-2.799383 6.276629,-6.276629 V 12.546471 h 1.021191 A 0.54763521,0.35316791 0 0 0 27.0081,12.016407 L 23.894279,8.5383232 a 0.54763521,0.35316791 0 0 0 -0.448421,-0.1758584 0.54763521,0.35316791 0 0 0 -0.05401,0 0.54763521,0.35316791 0 0 0 -0.445908,0.1758584 l -3.113815,3.4780838 a 0.54763521,0.35316791 0 0 0 0.474798,0.530064 h 1.021189 v 7.322941 4.185256 c 0,1.733188 -1.4057,3.137685 -3.138941,3.137685 -1.733245,0 -3.137688,-1.404497 -3.137688,-3.137685 v -4.185264 -7.322939 h 1.021194 A 0.54763521,0.35316791 0 0 0 16.547471,12.0164 l -3.11382,-3.4780841 a 0.54763521,0.35316791 0 0 0 -0.448421,-0.1758584 0.54763521,0.35316791 0 0 0 -0.054,0 z" />
    <path
       id="path4"
       style="fill:#ffffff;fill-opacity:1;stroke-width:0.523051"
       d="M 11.907541,6.8335606 A 0.54763521,0.35316791 0 0 0 11.461634,7.009419 l -3.1138205,3.478084 a 0.54763521,0.35316791 0 0 0 0.4747981,0.530064 h 1.0211935 v 10.461882 c 0,3.477246 2.7993729,6.276629 6.2766259,6.276629 h 2.09137 c 3.477254,0 6.276629,-2.799383 6.276629,-6.276629 V 11.017567 h 1.021191 A 0.54763521,0.35316791 0 0 0 25.98442,10.487503 L 22.870599,7.009419 a 0.54763521,0.35316791 0 0 0 -0.448421,-0.1758584 0.54763521,0.35316791 0 0 0 -0.05401,0 0.54763521,0.35316791 0 0 0 -0.445908,0.1758584 l -3.113815,3.478084 a 0.54763521,0.35316791 0 0 0 0.474798,0.530064 h 1.021189 v 7.322941 4.185256 c 0,1.733188 -1.4057,3.137685 -3.138941,3.137685 -1.733245,0 -3.137688,-1.404497 -3.137688,-3.137685 V 18.3405 11.017561 h 1.021194 a 0.54763521,0.35316791 0 0 0 0.474794,-0.530065 l -3.11382,-3.4780843 a 0.54763521,0.35316791 0 0 0 -0.448421,-0.1758584 0.54763521,0.35316791 0 0 0 -0.054,0 z" />
  </g>
</svg>
