<?xml version="1.0" encoding="UTF-8" standalone="no"?>
<svg
   width="128"
   height="128"
   viewBox="0 0 33.866666 33.866668"
   version="1.1"
   id="svg1015"
   inkscape:version="1.1.2 (0a00cf5339, 2022-02-04)"
   sodipodi:docname="xampp.svg"
   xmlns:inkscape="http://www.inkscape.org/namespaces/inkscape"
   xmlns:sodipodi="http://sodipodi.sourceforge.net/DTD/sodipodi-0.dtd"
   xmlns:xlink="http://www.w3.org/1999/xlink"
   xmlns="http://www.w3.org/2000/svg"
   xmlns:svg="http://www.w3.org/2000/svg"
   xmlns:rdf="http://www.w3.org/1999/02/22-rdf-syntax-ns#"
   xmlns:cc="http://creativecommons.org/ns#"
   xmlns:dc="http://purl.org/dc/elements/1.1/">
  <defs
     id="defs1009">
    <linearGradient
       inkscape:collect="always"
       id="linearGradient873">
      <stop
         style="stop-color:#0b0b0b;stop-opacity:1;"
         offset="0"
         id="stop869" />
      <stop
         style="stop-color:#0b0b0b;stop-opacity:0.85882353;"
         offset="0.68076366"
         id="stop878" />
      <stop
         style="stop-color:#0b0b0b;stop-opacity:0.83137255;"
         offset="0.69925421"
         id="stop888" />
      <stop
         style="stop-color:#0b0b0b;stop-opacity:0.80392157;"
         offset="0.71879315"
         id="stop890" />
      <stop
         style="stop-color:#0b0b0b;stop-opacity:0.78039216;"
         offset="0.73593426"
         id="stop892" />
      <stop
         style="stop-color:#0b0b0b;stop-opacity:0.75686275;"
         offset="0.75022364"
         id="stop894" />
      <stop
         style="stop-color:#0b0b0b;stop-opacity:0.73333333;"
         offset="0.76798755"
         id="stop896" />
      <stop
         style="stop-color:#0b0b0b;stop-opacity:0.08235294;"
         offset="0.9150058"
         id="stop919" />
      <stop
         style="stop-color:#0b0b0b;stop-opacity:0.07058824;"
         offset="0.92246956"
         id="stop917" />
      <stop
         style="stop-color:#0b0b0b;stop-opacity:0.05882353;"
         offset="0.92918676"
         id="stop915" />
      <stop
         style="stop-color:#0b0b0b;stop-opacity:0.04705882;"
         offset="0.93840873"
         id="stop912" />
      <stop
         style="stop-color:#0b0b0b;stop-opacity:0.03137255;"
         offset="0.94760686"
         id="stop910" />
      <stop
         style="stop-color:#0b0b0b;stop-opacity:0.02352941;"
         offset="0.95380515"
         id="stop908" />
      <stop
         style="stop-color:#0b0b0b;stop-opacity:0.01568627;"
         offset="0.95886087"
         id="stop906" />
      <stop
         style="stop-color:#0b0b0b;stop-opacity:0.01176471;"
         offset="0.96356124"
         id="stop904" />
      <stop
         style="stop-color:#0b0b0b;stop-opacity:0.00784314;"
         offset="0.96845078"
         id="stop902" />
      <stop
         style="stop-color:#0b0b0b;stop-opacity:0.00392157;"
         offset="0.97347641"
         id="stop900" />
      <stop
         style="stop-color:#0b0b0b;stop-opacity:0;"
         offset="0.97812337"
         id="stop886" />
      <stop
         style="stop-color:#0b0b0b;stop-opacity:0;"
         offset="0.98456311"
         id="stop884" />
      <stop
         style="stop-color:#0b0b0b;stop-opacity:0;"
         offset="0.98700982"
         id="stop882" />
      <stop
         style="stop-color:#0b0b0b;stop-opacity:0;"
         offset="0.98924524"
         id="stop880" />
      <stop
         style="stop-color:#0b0b0b;stop-opacity:0;"
         offset="1"
         id="stop871" />
    </linearGradient>
    <linearGradient
       inkscape:collect="always"
       xlink:href="#linearGradient895"
       id="linearGradient897"
       x1="2685.9844"
       y1="1088.7905"
       x2="2685.9844"
       y2="1770.3615"
       gradientUnits="userSpaceOnUse"
       gradientTransform="matrix(0.04277854,0,0,0.04277854,-95.919086,-44.867312)" />
    <linearGradient
       inkscape:collect="always"
       id="linearGradient895">
      <stop
         style="stop-color:#ffcc60;stop-opacity:1"
         offset="0"
         id="stop891" />
      <stop
         style="stop-color:#ff0202;stop-opacity:1"
         offset="1"
         id="stop893" />
    </linearGradient>
    <linearGradient
       inkscape:collect="always"
       id="linearGradient879">
      <stop
         style="stop-color:#ffb648;stop-opacity:1"
         offset="0"
         id="stop875" />
      <stop
         style="stop-color:#ff332b;stop-opacity:1"
         offset="1"
         id="stop877" />
    </linearGradient>
    <radialGradient
       inkscape:collect="always"
       xlink:href="#linearGradient873"
       id="radialGradient898"
       gradientUnits="userSpaceOnUse"
       cx="60.636452"
       cy="20.456388"
       fx="60.636452"
       fy="20.456388"
       r="17.303919"
       gradientTransform="translate(-43.433354,-3.9448764)" />
    <radialGradient
       inkscape:collect="always"
       xlink:href="#linearGradient879"
       id="radialGradient993"
       cx="16.968126"
       cy="3.7658708"
       fx="16.968126"
       fy="3.7658708"
       r="13.695572"
       gradientUnits="userSpaceOnUse"
       gradientTransform="matrix(4.8885673,0,0,1.8641486,-65.723642,-2.4382716)" />
    <linearGradient
       id="b"
       x2="1"
       gradientTransform="matrix(0.10138208,-17.338417,17.338417,0.10138208,16.113103,25.29877)"
       gradientUnits="userSpaceOnUse"
       x1="-1.2255912"
       y1="0.013013591"
       y2="1.110223e-16">
      <stop
         stop-color="#c9cfe5"
         offset="0"
         id="stop7"
         style="stop-color:#c22aff;stop-opacity:1" />
      <stop
         stop-color="#fff"
         offset="1"
         id="stop9" />
    </linearGradient>
    <linearGradient
       inkscape:collect="always"
       xlink:href="#linearGradient1154"
       id="linearGradient1156"
       x1="14.997623"
       y1="12.264947"
       x2="14.997623"
       y2="45.910217"
       gradientUnits="userSpaceOnUse"
       gradientTransform="translate(0.06486718,-0.44755817)" />
    <linearGradient
       inkscape:collect="always"
       id="linearGradient1154">
      <stop
         style="stop-color:#ffffff;stop-opacity:1;"
         offset="0"
         id="stop1150" />
      <stop
         style="stop-color:#f88021;stop-opacity:1"
         offset="1"
         id="stop1152" />
    </linearGradient>
  </defs>
  <sodipodi:namedview
     id="base"
     pagecolor="#ffffff"
     bordercolor="#666666"
     borderopacity="1.0"
     inkscape:pageopacity="0.0"
     inkscape:pageshadow="2"
     inkscape:zoom="1.979899"
     inkscape:cx="57.578695"
     inkscape:cy="50.760165"
     inkscape:document-units="mm"
     inkscape:current-layer="layer1"
     inkscape:document-rotation="0"
     showgrid="false"
     units="px"
     inkscape:window-width="1920"
     inkscape:window-height="1030"
     inkscape:window-x="0"
     inkscape:window-y="24"
     inkscape:window-maximized="1"
     inkscape:pagecheckerboard="0" />
  <metadata
     id="metadata1012">
    <rdf:RDF>
      <cc:Work
         rdf:about="">
        <dc:format>image/svg+xml</dc:format>
        <dc:type
           rdf:resource="http://purl.org/dc/dcmitype/StillImage" />
      </cc:Work>
    </rdf:RDF>
  </metadata>
  <g
     inkscape:label="Capa 1"
     inkscape:groupmode="layer"
     id="layer1">
    <circle
       style="opacity:0.309726;fill:url(#radialGradient898);fill-opacity:1;stroke-width:3;stroke-linecap:square;stroke-linejoin:round"
       id="path867"
       cx="17.203098"
       cy="16.511513"
       r="17.303919" />
    <circle
       style="fill:url(#linearGradient897);fill-opacity:1;stroke:#b1aaaa;stroke-width:0.0575565;stroke-linecap:square;stroke-opacity:0.992157"
       id="circle839"
       cx="17.203098"
       cy="16.511513"
       r="15.118138" />
    <circle
       style="fill:url(#radialGradient993);fill-opacity:1;stroke:none;stroke-width:0.0498826;stroke-linecap:square;stroke-opacity:1"
       id="circle839-3"
       cx="17.203098"
       cy="16.511513"
       r="13.102469" />
    <g
       id="g2594"
       transform="translate(0.06486718,-0.44755817)">
      <path
         d="m 12.337244,7.9021275 a 4.6109964,4.6109964 0 0 0 -4.6109966,4.6109955 4.6109964,4.6109964 0 0 0 4.6109966,4.610998 4.6109964,4.6109964 0 0 0 -4.6109966,4.610995 4.6109964,4.6109964 0 0 0 4.6109966,4.610997 4.6109964,4.6109964 0 0 0 4.610998,-4.610997 4.6109964,4.6109964 0 0 0 -0.0162,-0.315207 4.6109964,4.6109964 0 0 0 0.0162,0.002 4.6109964,4.6109964 0 0 0 0.01076,0 4.6109964,4.6109964 0 0 0 -0.01098,0.313548 4.6109964,4.6109964 0 0 0 4.610998,4.610996 4.6109964,4.6109964 0 0 0 4.610996,-4.610996 4.6109964,4.6109964 0 0 0 -4.610996,-4.610998 4.6109964,4.6109964 0 0 0 -0.0162,0.002 4.6109964,4.6109964 0 0 0 0,-0.002 4.6109964,4.6109964 0 0 0 0.0162,0 4.6109964,4.6109964 0 0 0 4.610996,-4.610995 4.6109964,4.6109964 0 0 0 -4.610996,-4.6109956 4.6109964,4.6109964 0 0 0 -4.600255,4.2976316 4.6109964,4.6109964 0 0 0 -0.01075,0 4.6109964,4.6109964 0 0 0 -0.0162,0 4.6109964,4.6109964 0 0 0 -4.594443,-4.2974469 z m 9.213233,2.7431735 a 1.844629,1.8445831 0 0 1 1.703991,2.593685 c -0.540407,1.260647 -1.007963,2.541582 -1.940353,3.699864 -0.93142,1.15736 -2.528716,2.02976 -4.365736,2.02976 -1.102397,0 -1.091053,0.04956 -1.388739,0.399856 -0.297608,0.350289 -0.79014,1.407368 -1.532788,3.10523 a 1.844629,1.8445831 0 1 1 -3.378985,-1.477363 c 0.721345,-1.648892 1.149984,-2.897549 2.099895,-4.016179 0.950787,-1.118626 2.536095,-1.700534 4.200662,-1.700534 0.929669,0 1.086537,-0.148569 1.493133,-0.653839 0.406667,-0.505274 0.861751,-1.529283 1.422954,-2.838622 a 1.844629,1.8445831 0 0 1 1.685825,-1.142053 z m -9.212772,0.02342 a 1.8444446,1.8443985 0 0 1 1.844445,1.844398 1.8444446,1.8443985 0 0 1 -1.844445,1.844401 1.8444446,1.8443985 0 0 1 -1.844444,-1.844401 1.8444446,1.8443985 0 0 1 1.844444,-1.844398 z m 9.221992,9.221995 a 1.8444446,1.8443985 0 0 1 1.844444,1.844397 1.8444446,1.8443985 0 0 1 -1.844444,1.844398 1.8444446,1.8443985 0 0 1 -1.844443,-1.844398 1.8444446,1.8443985 0 0 1 1.844443,-1.844397 z"
         fill="#ffffff"
         id="path2269"
         style="fill:#311500;fill-opacity:0.0193339;stroke-width:0.461099" />
      <path
         d="M 12.38699,8.1082349 A 4.6109964,4.6109964 0 0 0 7.7759935,12.71923 4.6109964,4.6109964 0 0 0 12.38699,17.330228 4.6109964,4.6109964 0 0 0 7.7759935,21.941223 4.6109964,4.6109964 0 0 0 12.38699,26.55222 a 4.6109964,4.6109964 0 0 0 4.610998,-4.610997 4.6109964,4.6109964 0 0 0 -0.0162,-0.315207 4.6109964,4.6109964 0 0 0 0.0162,0.002 4.6109964,4.6109964 0 0 0 0.01076,0 4.6109964,4.6109964 0 0 0 -0.01098,0.313548 4.6109964,4.6109964 0 0 0 4.610998,4.610996 4.6109964,4.6109964 0 0 0 4.610996,-4.610996 4.6109964,4.6109964 0 0 0 -4.610996,-4.610998 4.6109964,4.6109964 0 0 0 -0.0162,0.002 4.6109964,4.6109964 0 0 0 0,-0.002 4.6109964,4.6109964 0 0 0 0.0162,0 4.6109964,4.6109964 0 0 0 4.610996,-4.610995 4.6109964,4.6109964 0 0 0 -4.610996,-4.6109952 4.6109964,4.6109964 0 0 0 -4.600255,4.2976312 4.6109964,4.6109964 0 0 0 -0.01075,0 4.6109964,4.6109964 0 0 0 -0.0162,0 4.6109964,4.6109964 0 0 0 -4.594443,-4.2974465 z m 9.213233,2.7431731 a 1.844629,1.8445831 0 0 1 1.703991,2.593685 c -0.540407,1.260647 -1.007963,2.541582 -1.940353,3.699864 -0.93142,1.15736 -2.528716,2.02976 -4.365736,2.02976 -1.102397,0 -1.091053,0.04956 -1.388739,0.399856 -0.297608,0.350289 -0.79014,1.407368 -1.532788,3.10523 A 1.844629,1.8445831 0 1 1 10.697613,21.20244 c 0.721345,-1.648892 1.149984,-2.897549 2.099895,-4.016179 0.950787,-1.118626 2.536095,-1.700534 4.200662,-1.700534 0.929669,0 1.086537,-0.148569 1.493133,-0.653839 0.406667,-0.505274 0.861751,-1.529283 1.422954,-2.838622 a 1.844629,1.8445831 0 0 1 1.685825,-1.142053 z m -9.212772,0.02342 a 1.8444446,1.8443985 0 0 1 1.844445,1.844398 1.8444446,1.8443985 0 0 1 -1.844445,1.844401 1.8444446,1.8443985 0 0 1 -1.844444,-1.844401 1.8444446,1.8443985 0 0 1 1.844444,-1.844398 z m 9.221992,9.221995 A 1.8444446,1.8443985 0 0 1 23.453887,21.94122 1.8444446,1.8443985 0 0 1 21.609443,23.785618 1.8444446,1.8443985 0 0 1 19.765,21.94122 1.8444446,1.8443985 0 0 1 21.609443,20.096823 Z"
         fill="#ffffff"
         id="path2533"
         style="fill:#311500;fill-opacity:0.0193339;stroke-width:0.461099" />
      <path
         d="m 12.483358,8.2873785 a 4.6109964,4.6109964 0 0 0 -4.610996,4.6109955 4.6109964,4.6109964 0 0 0 4.610996,4.610998 4.6109964,4.6109964 0 0 0 -4.610996,4.610995 4.6109964,4.6109964 0 0 0 4.610996,4.610997 4.6109964,4.6109964 0 0 0 4.610998,-4.610997 4.6109964,4.6109964 0 0 0 -0.0162,-0.315207 4.6109964,4.6109964 0 0 0 0.0162,0.002 4.6109964,4.6109964 0 0 0 0.01076,0 4.6109964,4.6109964 0 0 0 -0.01098,0.313548 4.6109964,4.6109964 0 0 0 4.610998,4.610996 4.6109964,4.6109964 0 0 0 4.610996,-4.610996 4.6109964,4.6109964 0 0 0 -4.610996,-4.610998 4.6109964,4.6109964 0 0 0 -0.0162,0.002 4.6109964,4.6109964 0 0 0 0,-0.002 4.6109964,4.6109964 0 0 0 0.0162,0 4.6109964,4.6109964 0 0 0 4.610996,-4.610995 4.6109964,4.6109964 0 0 0 -4.610996,-4.6109956 4.6109964,4.6109964 0 0 0 -4.600255,4.2976316 4.6109964,4.6109964 0 0 0 -0.01075,0 4.6109964,4.6109964 0 0 0 -0.0162,0 4.6109964,4.6109964 0 0 0 -4.594443,-4.2974469 z m 9.213233,2.7431735 a 1.844629,1.8445831 0 0 1 1.703991,2.593685 c -0.540407,1.260647 -1.007963,2.541582 -1.940353,3.699864 -0.93142,1.15736 -2.528716,2.02976 -4.365736,2.02976 -1.102397,0 -1.091053,0.04956 -1.388739,0.399856 -0.297608,0.350289 -0.79014,1.407368 -1.532788,3.10523 a 1.844629,1.8445831 0 1 1 -3.378985,-1.477363 c 0.721345,-1.648892 1.149984,-2.897549 2.099895,-4.016179 0.950787,-1.118626 2.536095,-1.700534 4.200662,-1.700534 0.929669,0 1.086537,-0.148569 1.493133,-0.653839 0.406667,-0.505274 0.861751,-1.529283 1.422954,-2.838622 a 1.844629,1.8445831 0 0 1 1.685825,-1.142053 z m -9.212772,0.02342 a 1.8444446,1.8443985 0 0 1 1.844445,1.844398 1.8444446,1.8443985 0 0 1 -1.844445,1.844401 1.8444446,1.8443985 0 0 1 -1.844444,-1.844401 1.8444446,1.8443985 0 0 1 1.844444,-1.844398 z m 9.221992,9.221995 a 1.8444446,1.8443985 0 0 1 1.844444,1.844397 1.8444446,1.8443985 0 0 1 -1.844444,1.844398 1.8444446,1.8443985 0 0 1 -1.844443,-1.844398 1.8444446,1.8443985 0 0 1 1.844443,-1.844397 z"
         fill="#ffffff"
         id="path2535"
         style="fill:#311500;fill-opacity:0.0193339;stroke-width:0.461099" />
      <path
         d="m 12.608683,8.5105096 a 4.6109964,4.6109964 0 0 0 -4.6109963,4.6109954 4.6109964,4.6109964 0 0 0 4.6109963,4.610998 4.6109964,4.6109964 0 0 0 -4.6109963,4.610995 4.6109964,4.6109964 0 0 0 4.6109963,4.610997 4.6109964,4.6109964 0 0 0 4.610998,-4.610997 4.6109964,4.6109964 0 0 0 -0.0162,-0.315207 4.6109964,4.6109964 0 0 0 0.0162,0.002 4.6109964,4.6109964 0 0 0 0.01076,0 4.6109964,4.6109964 0 0 0 -0.01098,0.313548 4.6109964,4.6109964 0 0 0 4.610998,4.610996 4.6109964,4.6109964 0 0 0 4.610996,-4.610996 4.6109964,4.6109964 0 0 0 -4.610996,-4.610998 4.6109964,4.6109964 0 0 0 -0.0162,0.002 4.6109964,4.6109964 0 0 0 0,-0.002 4.6109964,4.6109964 0 0 0 0.0162,0 4.6109964,4.6109964 0 0 0 4.610996,-4.610995 4.6109964,4.6109964 0 0 0 -4.610996,-4.6109955 4.6109964,4.6109964 0 0 0 -4.600255,4.2976315 4.6109964,4.6109964 0 0 0 -0.01075,0 4.6109964,4.6109964 0 0 0 -0.0162,0 4.6109964,4.6109964 0 0 0 -4.594443,-4.2974468 z m 9.213233,2.7431734 a 1.844629,1.8445831 0 0 1 1.703991,2.593685 c -0.540407,1.260647 -1.007963,2.541582 -1.940353,3.699864 -0.93142,1.15736 -2.528716,2.02976 -4.365736,2.02976 -1.102397,0 -1.091053,0.04956 -1.388739,0.399856 -0.297608,0.350289 -0.79014,1.407368 -1.532788,3.10523 a 1.844629,1.8445831 0 1 1 -3.378985,-1.477363 c 0.721345,-1.648892 1.149984,-2.897549 2.099895,-4.016179 0.950787,-1.118626 2.536095,-1.700534 4.200662,-1.700534 0.929669,0 1.086537,-0.148569 1.493133,-0.653839 0.406667,-0.505274 0.861751,-1.529283 1.422954,-2.838622 a 1.844629,1.8445831 0 0 1 1.685825,-1.142053 z m -9.212772,0.02342 a 1.8444446,1.8443985 0 0 1 1.844445,1.844398 1.8444446,1.8443985 0 0 1 -1.844445,1.844401 1.8444446,1.8443985 0 0 1 -1.844444,-1.844401 1.8444446,1.8443985 0 0 1 1.844444,-1.844398 z m 9.221992,9.221995 a 1.8444446,1.8443985 0 0 1 1.844444,1.844397 1.8444446,1.8443985 0 0 1 -1.844444,1.844398 1.8444446,1.8443985 0 0 1 -1.844443,-1.844398 1.8444446,1.8443985 0 0 1 1.844443,-1.844397 z"
         fill="#ffffff"
         id="path2537"
         style="fill:#311500;fill-opacity:0.0193339;stroke-width:0.461099" />
      <path
         d="m 12.748848,8.7268744 a 4.6109964,4.6109964 0 0 0 -4.6109965,4.6109956 4.6109964,4.6109964 0 0 0 4.6109965,4.610998 4.6109964,4.6109964 0 0 0 -4.6109965,4.610995 4.6109964,4.6109964 0 0 0 4.6109965,4.610997 4.6109964,4.6109964 0 0 0 4.610998,-4.610997 4.6109964,4.6109964 0 0 0 -0.0162,-0.315207 4.6109964,4.6109964 0 0 0 0.0162,0.002 4.6109964,4.6109964 0 0 0 0.01076,0 4.6109964,4.6109964 0 0 0 -0.01098,0.313548 4.6109964,4.6109964 0 0 0 4.610998,4.610996 4.6109964,4.6109964 0 0 0 4.610996,-4.610996 4.6109964,4.6109964 0 0 0 -4.610996,-4.610998 4.6109964,4.6109964 0 0 0 -0.0162,0.002 4.6109964,4.6109964 0 0 0 0,-0.002 4.6109964,4.6109964 0 0 0 0.0162,0 4.6109964,4.6109964 0 0 0 4.610996,-4.610995 4.6109964,4.6109964 0 0 0 -4.610996,-4.6109957 4.6109964,4.6109964 0 0 0 -4.600255,4.2976317 4.6109964,4.6109964 0 0 0 -0.01075,0 4.6109964,4.6109964 0 0 0 -0.0162,0 A 4.6109964,4.6109964 0 0 0 12.748976,8.7274 Z m 9.213233,2.7431736 a 1.844629,1.8445831 0 0 1 1.703991,2.593685 c -0.540407,1.260647 -1.007963,2.541582 -1.940353,3.699864 -0.93142,1.15736 -2.528716,2.02976 -4.365736,2.02976 -1.102397,0 -1.091053,0.04956 -1.388739,0.399856 -0.297608,0.350289 -0.79014,1.407368 -1.532788,3.10523 A 1.844629,1.8445831 0 1 1 11.059471,21.82108 c 0.721345,-1.648892 1.149984,-2.897549 2.099895,-4.016179 0.950787,-1.118626 2.536095,-1.700534 4.200662,-1.700534 0.929669,0 1.086537,-0.148569 1.493133,-0.653839 0.406667,-0.505274 0.861751,-1.529283 1.422954,-2.838622 a 1.844629,1.8445831 0 0 1 1.685825,-1.142053 z m -9.212772,0.02342 a 1.8444446,1.8443985 0 0 1 1.844445,1.844398 1.8444446,1.8443985 0 0 1 -1.844445,1.844401 1.8444446,1.8443985 0 0 1 -1.844444,-1.844401 1.8444446,1.8443985 0 0 1 1.844444,-1.844398 z m 9.221992,9.221995 a 1.8444446,1.8443985 0 0 1 1.844444,1.844397 1.8444446,1.8443985 0 0 1 -1.844444,1.844398 1.8444446,1.8443985 0 0 1 -1.844443,-1.844398 1.8444446,1.8443985 0 0 1 1.844443,-1.844397 z"
         fill="#ffffff"
         id="path2539"
         style="fill:#311500;fill-opacity:0.0193339;stroke-width:0.461099" />
      <path
         d="m 12.867723,8.9591228 a 4.6109964,4.6109964 0 0 0 -4.610997,4.6109952 4.6109964,4.6109964 0 0 0 4.610997,4.610998 4.6109964,4.6109964 0 0 0 -4.610997,4.610995 4.6109964,4.6109964 0 0 0 4.610997,4.610997 4.6109964,4.6109964 0 0 0 4.610998,-4.610997 4.6109964,4.6109964 0 0 0 -0.0162,-0.315207 4.6109964,4.6109964 0 0 0 0.0162,0.002 4.6109964,4.6109964 0 0 0 0.01076,0 4.6109964,4.6109964 0 0 0 -0.01098,0.313548 4.6109964,4.6109964 0 0 0 4.610998,4.610996 4.6109964,4.6109964 0 0 0 4.610996,-4.610996 4.6109964,4.6109964 0 0 0 -4.610996,-4.610998 4.6109964,4.6109964 0 0 0 -0.0162,0.002 4.6109964,4.6109964 0 0 0 0,-0.002 4.6109964,4.6109964 0 0 0 0.0162,0 4.6109964,4.6109964 0 0 0 4.610996,-4.610995 4.6109964,4.6109964 0 0 0 -4.610996,-4.6109953 4.6109964,4.6109964 0 0 0 -4.600255,4.2976313 4.6109964,4.6109964 0 0 0 -0.01075,0 4.6109964,4.6109964 0 0 0 -0.0162,0 4.6109964,4.6109964 0 0 0 -4.594443,-4.2974466 z m 9.213233,2.7431732 a 1.844629,1.8445831 0 0 1 1.703991,2.593685 c -0.540407,1.260647 -1.007963,2.541582 -1.940353,3.699864 -0.93142,1.15736 -2.528716,2.02976 -4.365736,2.02976 -1.102397,0 -1.091053,0.04956 -1.388739,0.399856 -0.297608,0.350289 -0.79014,1.407368 -1.532788,3.10523 a 1.844629,1.8445831 0 1 1 -3.378985,-1.477363 c 0.721345,-1.648892 1.149984,-2.897549 2.099895,-4.016179 0.950787,-1.118626 2.536095,-1.700534 4.200662,-1.700534 0.929669,0 1.086537,-0.148569 1.493133,-0.653839 0.406667,-0.505274 0.861751,-1.529283 1.422954,-2.838622 a 1.844629,1.8445831 0 0 1 1.685825,-1.142053 z m -9.212772,0.02342 a 1.8444446,1.8443985 0 0 1 1.844445,1.844398 1.8444446,1.8443985 0 0 1 -1.844445,1.844401 1.8444446,1.8443985 0 0 1 -1.844444,-1.844401 1.8444446,1.8443985 0 0 1 1.844444,-1.844398 z m 9.221992,9.221995 a 1.8444446,1.8443985 0 0 1 1.844444,1.844397 1.8444446,1.8443985 0 0 1 -1.844444,1.844398 1.8444446,1.8443985 0 0 1 -1.844443,-1.844398 1.8444446,1.8443985 0 0 1 1.844443,-1.844397 z"
         fill="#ffffff"
         id="path2541"
         style="fill:#311500;fill-opacity:0.0193339;stroke-width:0.461099" />
      <path
         d="m 12.992041,9.2137258 a 4.6109964,4.6109964 0 0 0 -4.6109974,4.6109952 4.6109964,4.6109964 0 0 0 4.6109974,4.610998 4.6109964,4.6109964 0 0 0 -4.6109974,4.610995 4.6109964,4.6109964 0 0 0 4.6109974,4.610997 4.6109964,4.6109964 0 0 0 4.610998,-4.610997 4.6109964,4.6109964 0 0 0 -0.0162,-0.315207 4.6109964,4.6109964 0 0 0 0.0162,0.002 4.6109964,4.6109964 0 0 0 0.01076,0 4.6109964,4.6109964 0 0 0 -0.01098,0.313548 4.6109964,4.6109964 0 0 0 4.610998,4.610996 4.6109964,4.6109964 0 0 0 4.610996,-4.610996 4.6109964,4.6109964 0 0 0 -4.610996,-4.610998 4.6109964,4.6109964 0 0 0 -0.0162,0.002 4.6109964,4.6109964 0 0 0 0,-0.002 4.6109964,4.6109964 0 0 0 0.0162,0 4.6109964,4.6109964 0 0 0 4.610996,-4.610995 4.6109964,4.6109964 0 0 0 -4.610996,-4.6109953 4.6109964,4.6109964 0 0 0 -4.600255,4.2976313 4.6109964,4.6109964 0 0 0 -0.01075,0 4.6109964,4.6109964 0 0 0 -0.0162,0 4.6109964,4.6109964 0 0 0 -4.594443,-4.2974466 z m 9.213233,2.7431732 a 1.844629,1.8445831 0 0 1 1.703991,2.593685 c -0.540407,1.260647 -1.007963,2.541582 -1.940353,3.699864 -0.93142,1.15736 -2.528716,2.02976 -4.365736,2.02976 -1.102397,0 -1.091053,0.04956 -1.388739,0.399856 -0.297608,0.350289 -0.79014,1.407368 -1.532788,3.10523 a 1.844629,1.8445831 0 1 1 -3.378985,-1.477363 c 0.721345,-1.648892 1.149984,-2.897549 2.099895,-4.016179 0.950787,-1.118626 2.536095,-1.700534 4.200662,-1.700534 0.929669,0 1.086537,-0.148569 1.493133,-0.653839 0.406667,-0.505274 0.861751,-1.529283 1.422954,-2.838622 a 1.844629,1.8445831 0 0 1 1.685825,-1.142053 z m -9.212772,0.02342 a 1.8444446,1.8443985 0 0 1 1.844445,1.844398 1.8444446,1.8443985 0 0 1 -1.844445,1.844401 1.8444446,1.8443985 0 0 1 -1.844444,-1.844401 1.8444446,1.8443985 0 0 1 1.844444,-1.844398 z m 9.221992,9.221995 a 1.8444446,1.8443985 0 0 1 1.844444,1.844397 1.8444446,1.8443985 0 0 1 -1.844444,1.844398 1.8444446,1.8443985 0 0 1 -1.844443,-1.844398 1.8444446,1.8443985 0 0 1 1.844443,-1.844397 z"
         fill="#ffffff"
         id="path2543"
         style="fill:#311500;fill-opacity:0.0193339;stroke-width:0.461099" />
      <path
         d="m 13.148598,9.492457 a 4.6109964,4.6109964 0 0 0 -4.6109971,4.610995 4.6109964,4.6109964 0 0 0 4.6109971,4.610998 4.6109964,4.6109964 0 0 0 -4.6109971,4.610995 4.6109964,4.6109964 0 0 0 4.6109971,4.610997 4.6109964,4.6109964 0 0 0 4.610998,-4.610997 4.6109964,4.6109964 0 0 0 -0.0162,-0.315207 4.6109964,4.6109964 0 0 0 0.0162,0.002 4.6109964,4.6109964 0 0 0 0.01076,0 4.6109964,4.6109964 0 0 0 -0.01098,0.313548 4.6109964,4.6109964 0 0 0 4.610998,4.610996 4.6109964,4.6109964 0 0 0 4.610996,-4.610996 4.6109964,4.6109964 0 0 0 -4.610996,-4.610998 4.6109964,4.6109964 0 0 0 -0.0162,0.002 4.6109964,4.6109964 0 0 0 0,-0.002 4.6109964,4.6109964 0 0 0 0.0162,0 4.6109964,4.6109964 0 0 0 4.610996,-4.610995 4.6109964,4.6109964 0 0 0 -4.610996,-4.6109951 4.6109964,4.6109964 0 0 0 -4.600255,4.2976311 4.6109964,4.6109964 0 0 0 -0.01075,0 4.6109964,4.6109964 0 0 0 -0.0162,0 4.6109964,4.6109964 0 0 0 -4.594443,-4.2974464 z m 9.213233,2.743173 a 1.844629,1.8445831 0 0 1 1.703991,2.593685 c -0.540407,1.260647 -1.007963,2.541582 -1.940353,3.699864 -0.93142,1.15736 -2.528716,2.02976 -4.365736,2.02976 -1.102397,0 -1.091053,0.04956 -1.388739,0.399856 -0.297608,0.350289 -0.79014,1.407368 -1.532788,3.10523 a 1.844629,1.8445831 0 1 1 -3.378985,-1.477363 c 0.721345,-1.648892 1.149984,-2.897549 2.099895,-4.016179 0.950787,-1.118626 2.536095,-1.700534 4.200662,-1.700534 0.929669,0 1.086537,-0.148569 1.493133,-0.653839 0.406667,-0.505274 0.861751,-1.529283 1.422954,-2.838622 a 1.844629,1.8445831 0 0 1 1.685825,-1.142053 z m -9.212772,0.02342 a 1.8444446,1.8443985 0 0 1 1.844445,1.844398 1.8444446,1.8443985 0 0 1 -1.844445,1.844401 1.8444446,1.8443985 0 0 1 -1.844444,-1.844401 1.8444446,1.8443985 0 0 1 1.844444,-1.844398 z m 9.221992,9.221995 a 1.8444446,1.8443985 0 0 1 1.844444,1.844397 1.8444446,1.8443985 0 0 1 -1.844444,1.844398 1.8444446,1.8443985 0 0 1 -1.844443,-1.844398 1.8444446,1.8443985 0 0 1 1.844443,-1.844397 z"
         fill="#ffffff"
         id="path2545"
         style="fill:#311500;fill-opacity:0.0193339;stroke-width:0.461099" />
      <path
         d="m 13.309246,9.7561488 a 4.6109964,4.6109964 0 0 0 -4.6109976,4.6109952 4.6109964,4.6109964 0 0 0 4.6109976,4.610998 4.6109964,4.6109964 0 0 0 -4.6109976,4.610995 4.6109964,4.6109964 0 0 0 4.6109976,4.610997 4.6109964,4.6109964 0 0 0 4.610998,-4.610997 4.6109964,4.6109964 0 0 0 -0.0162,-0.315207 4.6109964,4.6109964 0 0 0 0.0162,0.002 4.6109964,4.6109964 0 0 0 0.01076,0 4.6109964,4.6109964 0 0 0 -0.01098,0.313548 4.6109964,4.6109964 0 0 0 4.610998,4.610996 4.6109964,4.6109964 0 0 0 4.610996,-4.610996 4.6109964,4.6109964 0 0 0 -4.610996,-4.610998 4.6109964,4.6109964 0 0 0 -0.0162,0.002 4.6109964,4.6109964 0 0 0 0,-0.002 4.6109964,4.6109964 0 0 0 0.0162,0 4.6109964,4.6109964 0 0 0 4.610996,-4.610995 4.6109964,4.6109964 0 0 0 -4.610996,-4.6109953 4.6109964,4.6109964 0 0 0 -4.600255,4.2976313 4.6109964,4.6109964 0 0 0 -0.01075,0 4.6109964,4.6109964 0 0 0 -0.0162,0 4.6109964,4.6109964 0 0 0 -4.594443,-4.2974466 z m 9.213233,2.7431732 a 1.844629,1.8445831 0 0 1 1.703991,2.593685 c -0.540407,1.260647 -1.007963,2.541582 -1.940353,3.699864 -0.93142,1.15736 -2.528716,2.02976 -4.365736,2.02976 -1.102397,0 -1.091053,0.04956 -1.388739,0.399856 -0.297608,0.350289 -0.79014,1.407368 -1.532788,3.10523 a 1.844629,1.8445831 0 1 1 -3.378985,-1.477363 c 0.721345,-1.648892 1.149984,-2.897549 2.099895,-4.016179 0.950787,-1.118626 2.536095,-1.700534 4.200662,-1.700534 0.929669,0 1.086537,-0.148569 1.493133,-0.653839 0.406667,-0.505274 0.861751,-1.529283 1.422954,-2.838622 a 1.844629,1.8445831 0 0 1 1.685825,-1.142053 z m -9.212772,0.02342 a 1.8444446,1.8443985 0 0 1 1.844445,1.844398 1.8444446,1.8443985 0 0 1 -1.844445,1.844401 1.8444446,1.8443985 0 0 1 -1.844444,-1.844401 1.8444446,1.8443985 0 0 1 1.844444,-1.844398 z m 9.221992,9.221995 a 1.8444446,1.8443985 0 0 1 1.844444,1.844397 1.8444446,1.8443985 0 0 1 -1.844444,1.844398 1.8444446,1.8443985 0 0 1 -1.844443,-1.844398 1.8444446,1.8443985 0 0 1 1.844443,-1.844397 z"
         fill="#ffffff"
         id="path2547"
         style="fill:#311500;fill-opacity:0.0193339;stroke-width:0.461099" />
    </g>
    <path
       d="m 12.29196,7.3589655 a 4.6109964,4.6109964 0 0 0 -4.610996,4.6109955 4.6109964,4.6109964 0 0 0 4.610996,4.610998 4.6109964,4.6109964 0 0 0 -4.610996,4.610995 4.6109964,4.6109964 0 0 0 4.610996,4.610997 4.6109964,4.6109964 0 0 0 4.610998,-4.610997 4.6109964,4.6109964 0 0 0 -0.0162,-0.315207 4.6109964,4.6109964 0 0 0 0.0162,0.002 4.6109964,4.6109964 0 0 0 0.01076,0 4.6109964,4.6109964 0 0 0 -0.01098,0.313548 4.6109964,4.6109964 0 0 0 4.610998,4.610996 4.6109964,4.6109964 0 0 0 4.610996,-4.610996 4.6109964,4.6109964 0 0 0 -4.610996,-4.610998 4.6109964,4.6109964 0 0 0 -0.0162,0.002 4.6109964,4.6109964 0 0 0 0,-0.002 4.6109964,4.6109964 0 0 0 0.0162,0 4.6109964,4.6109964 0 0 0 4.610996,-4.610995 4.6109964,4.6109964 0 0 0 -4.610996,-4.6109956 4.6109964,4.6109964 0 0 0 -4.600255,4.2976316 4.6109964,4.6109964 0 0 0 -0.01075,0 4.6109964,4.6109964 0 0 0 -0.0162,0 4.6109964,4.6109964 0 0 0 -4.594443,-4.2974469 z m 9.213233,2.7431735 a 1.844629,1.8445831 0 0 1 1.703991,2.593685 c -0.540407,1.260647 -1.007963,2.541582 -1.940353,3.699864 -0.93142,1.15736 -2.528716,2.02976 -4.365736,2.02976 -1.102397,0 -1.091053,0.04956 -1.388739,0.399856 -0.297608,0.350289 -0.79014,1.407368 -1.532788,3.10523 a 1.844629,1.8445831 0 1 1 -3.378985,-1.477363 c 0.721345,-1.648892 1.149984,-2.897549 2.099895,-4.016179 0.950787,-1.118626 2.536095,-1.700534 4.200662,-1.700534 0.929669,0 1.086537,-0.148569 1.493133,-0.653839 0.406667,-0.505274 0.861751,-1.529283 1.422954,-2.838622 a 1.844629,1.8445831 0 0 1 1.685825,-1.142053 z m -9.212772,0.02342 a 1.8444446,1.8443985 0 0 1 1.844445,1.844398 1.8444446,1.8443985 0 0 1 -1.844445,1.844401 1.8444446,1.8443985 0 0 1 -1.844444,-1.844401 1.8444446,1.8443985 0 0 1 1.844444,-1.844398 z m 9.221992,9.221995 a 1.8444446,1.8443985 0 0 1 1.844444,1.844397 1.8444446,1.8443985 0 0 1 -1.844444,1.844398 1.8444446,1.8443985 0 0 1 -1.844443,-1.844398 1.8444446,1.8443985 0 0 1 1.844443,-1.844397 z"
       fill="#ffffff"
       id="path18"
       style="fill:url(#linearGradient1156);fill-opacity:1;stroke-width:0.461099" />
  </g>
</svg>
