<?xml version="1.0" encoding="UTF-8" standalone="no"?>
<!-- Created with Inkscape (http://www.inkscape.org/) -->

<svg
   width="128"
   height="128"
   viewBox="0 0 33.866666 33.866668"
   version="1.1"
   id="svg956"
   inkscape:version="1.1.2 (0a00cf5339, 2022-02-04)"
   sodipodi:docname="yast-remote.svg"
   xmlns:inkscape="http://www.inkscape.org/namespaces/inkscape"
   xmlns:sodipodi="http://sodipodi.sourceforge.net/DTD/sodipodi-0.dtd"
   xmlns:xlink="http://www.w3.org/1999/xlink"
   xmlns="http://www.w3.org/2000/svg"
   xmlns:svg="http://www.w3.org/2000/svg"
   xmlns:rdf="http://www.w3.org/1999/02/22-rdf-syntax-ns#"
   xmlns:cc="http://creativecommons.org/ns#"
   xmlns:dc="http://purl.org/dc/elements/1.1/">
  <defs
     id="defs950">
    <linearGradient
       inkscape:collect="always"
       id="linearGradient3944">
      <stop
         style="stop-color:#000000;stop-opacity:1;"
         offset="0"
         id="stop3940" />
      <stop
         style="stop-color:#000000;stop-opacity:0.91372549;"
         offset="0.60457933"
         id="stop4095" />
      <stop
         style="stop-color:#000000;stop-opacity:0.70588235;"
         offset="0.68595147"
         id="stop5589" />
      <stop
         style="stop-color:#000000;stop-opacity:0.64313725;"
         offset="0.71124601"
         id="stop4937" />
      <stop
         style="stop-color:#000000;stop-opacity:0.48235294;"
         offset="0.76781589"
         id="stop5393" />
      <stop
         style="stop-color:#000000;stop-opacity:0.35294118;"
         offset="0.7997219"
         id="stop6045" />
      <stop
         style="stop-color:#000000;stop-opacity:0.14117647;"
         offset="0.87159246"
         id="stop5979" />
      <stop
         style="stop-color:#000000;stop-opacity:0.11372549;"
         offset="0.89791268"
         id="stop4547" />
      <stop
         style="stop-color:#000000;stop-opacity:0.04705882;"
         offset="0.95124602"
         id="stop4353" />
      <stop
         style="stop-color:#000000;stop-opacity:0;"
         offset="1"
         id="stop3942" />
    </linearGradient>
    <linearGradient
       inkscape:collect="always"
       id="linearGradient4766">
      <stop
         style="stop-color:#45cca3;stop-opacity:1"
         offset="0"
         id="stop4762" />
      <stop
         style="stop-color:#9ee250;stop-opacity:1"
         offset="1"
         id="stop4764" />
    </linearGradient>
    <linearGradient
       inkscape:collect="always"
       id="linearGradient1606-5">
      <stop
         style="stop-color:#f3f9f9;stop-opacity:1"
         offset="0"
         id="stop1602" />
      <stop
         style="stop-color:#d5dada;stop-opacity:1"
         offset="1"
         id="stop1604" />
    </linearGradient>
    <linearGradient
       gradientTransform="matrix(0.26458333,0,0,0.26458333,-0.75004731,260.85009)"
       inkscape:collect="always"
       xlink:href="#linearGradient944"
       id="linearGradient948"
       gradientUnits="userSpaceOnUse"
       x1="122.34071"
       y1="117.04197"
       x2="84.091423"
       y2="71.020111" />
    <linearGradient
       inkscape:collect="always"
       id="linearGradient944">
      <stop
         style="stop-color:#d5dada;stop-opacity:1"
         offset="0"
         id="stop940" />
      <stop
         style="stop-color:#f1f1f1;stop-opacity:1"
         offset="1"
         id="stop942" />
    </linearGradient>
    <filter
       style="color-interpolation-filters:sRGB"
       id="c"
       height="1.1655999"
       width="1.1655999"
       x="-0.082800001"
       y="-0.082800001">
      <feGaussianBlur
         stdDeviation="2.1101835"
         id="feGaussianBlur10" />
    </filter>
    <linearGradient
       gradientTransform="matrix(0.25320785,0,0,0.25320785,-0.0941833,263.43808)"
       inkscape:collect="always"
       xlink:href="#linearGradient870"
       id="linearGradient872"
       x1="36.951637"
       y1="28.276243"
       x2="67.632683"
       y2="108.04747"
       gradientUnits="userSpaceOnUse" />
    <linearGradient
       inkscape:collect="always"
       id="linearGradient870">
      <stop
         style="stop-color:#2c332e;stop-opacity:1"
         offset="0"
         id="stop866" />
      <stop
         style="stop-color:#191b19;stop-opacity:1"
         offset="1"
         id="stop868" />
    </linearGradient>
    <filter
       style="color-interpolation-filters:sRGB"
       id="a"
       height="1.0351278"
       width="1.0356731"
       x="-0.017836536"
       y="-0.017563889">
      <feGaussianBlur
         stdDeviation=".7986332"
         id="feGaussianBlur2" />
    </filter>
    <linearGradient
       inkscape:collect="always"
       xlink:href="#linearGradient1606-5"
       id="linearGradient1615"
       gradientUnits="userSpaceOnUse"
       x1="21.771429"
       y1="281.84537"
       x2="30.878431"
       y2="291.66385"
       gradientTransform="matrix(0.95700606,0,0,0.95700606,0.62361651,13.80297)" />
    <clipPath
       id="clipPath16"
       clipPathUnits="userSpaceOnUse">
      <path
         inkscape:connector-curvature="0"
         id="path18"
         d="m 0,200.303 320,0 L 320,0 0,0 0,200.303 Z" />
    </clipPath>
    <linearGradient
       inkscape:collect="always"
       xlink:href="#linearGradient4766"
       id="linearGradient4768"
       x1="25.4"
       y1="291.9729"
       x2="23.8125"
       y2="285.09375"
       gradientUnits="userSpaceOnUse" />
    <linearGradient
       inkscape:collect="always"
       xlink:href="#linearGradient5466"
       id="linearGradient5468"
       x1="1133.7979"
       y1="623.83655"
       x2="1153.6304"
       y2="686.44214"
       gradientUnits="userSpaceOnUse"
       gradientTransform="matrix(0.26458333,0,0,0.26458333,-315.66283,122.34861)" />
    <linearGradient
       inkscape:collect="always"
       id="linearGradient5466">
      <stop
         style="stop-color:#33db88;stop-opacity:1"
         offset="0"
         id="stop5462" />
      <stop
         style="stop-color:#0083e0;stop-opacity:1"
         offset="1"
         id="stop5464" />
    </linearGradient>
    <linearGradient
       inkscape:collect="always"
       xlink:href="#linearGradient20905"
       id="linearGradient20907"
       x1="1129.9"
       y1="678.76282"
       x2="1119.0254"
       y2="660.76074"
       gradientUnits="userSpaceOnUse"
       gradientTransform="matrix(0.26458333,0,0,0.26458333,-319.67013,122.39425)" />
    <linearGradient
       inkscape:collect="always"
       id="linearGradient20905">
      <stop
         style="stop-color:#305ed6;stop-opacity:0.41441572"
         offset="0"
         id="stop20901" />
      <stop
         style="stop-color:#5130d6;stop-opacity:0;"
         offset="1"
         id="stop20903" />
    </linearGradient>
    <linearGradient
       inkscape:collect="always"
       xlink:href="#linearGradient9260"
       id="linearGradient9262"
       x1="1140.1895"
       y1="623.42657"
       x2="1156.4679"
       y2="672.66003"
       gradientUnits="userSpaceOnUse"
       gradientTransform="matrix(0.26458333,0,0,0.26458333,-319.67013,122.39425)" />
    <linearGradient
       inkscape:collect="always"
       id="linearGradient9260">
      <stop
         style="stop-color:#005bff;stop-opacity:1;"
         offset="0"
         id="stop9256" />
      <stop
         style="stop-color:#005bff;stop-opacity:0;"
         offset="1"
         id="stop9258" />
    </linearGradient>
    <linearGradient
       inkscape:collect="always"
       xlink:href="#linearGradient8277"
       id="linearGradient8279"
       x1="1154.9387"
       y1="660.44135"
       x2="1125.7916"
       y2="649.1394"
       gradientUnits="userSpaceOnUse"
       gradientTransform="matrix(0.26458333,0,0,0.26458333,-319.67013,122.39425)" />
    <linearGradient
       inkscape:collect="always"
       id="linearGradient8277">
      <stop
         style="stop-color:#5dfff3;stop-opacity:1;"
         offset="0"
         id="stop8273" />
      <stop
         style="stop-color:#5dfff3;stop-opacity:0;"
         offset="1"
         id="stop8275" />
    </linearGradient>
    <linearGradient
       inkscape:collect="always"
       xlink:href="#linearGradient19406"
       id="linearGradient19408"
       x1="1163.5502"
       y1="621.31067"
       x2="1132.3615"
       y2="643.47711"
       gradientUnits="userSpaceOnUse"
       gradientTransform="matrix(0.26458333,0,0,0.26458333,-319.67013,122.39425)" />
    <linearGradient
       inkscape:collect="always"
       id="linearGradient19406">
      <stop
         style="stop-color:#30d68d;stop-opacity:1;"
         offset="0"
         id="stop19402" />
      <stop
         style="stop-color:#0f99c9;stop-opacity:1"
         offset="1"
         id="stop19404" />
    </linearGradient>
    <linearGradient
       inkscape:collect="always"
       xlink:href="#linearGradient16318"
       id="linearGradient16320"
       x1="1147.7186"
       y1="631.2121"
       x2="1115.4965"
       y2="580.64471"
       gradientUnits="userSpaceOnUse"
       gradientTransform="matrix(0.26458333,0,0,0.26458333,-319.67013,122.39425)" />
    <linearGradient
       inkscape:collect="always"
       id="linearGradient16318">
      <stop
         style="stop-color:#4cc676;stop-opacity:1"
         offset="0"
         id="stop16314" />
      <stop
         style="stop-color:#aae251;stop-opacity:1"
         offset="1"
         id="stop16316" />
    </linearGradient>
    <linearGradient
       inkscape:collect="always"
       xlink:href="#linearGradient22299"
       id="linearGradient22301"
       x1="1140.2845"
       y1="676.88428"
       x2="1133.0908"
       y2="695.10974"
       gradientUnits="userSpaceOnUse"
       gradientTransform="matrix(0.26458333,0,0,0.26458333,-319.67013,122.39425)" />
    <linearGradient
       inkscape:collect="always"
       id="linearGradient22299">
      <stop
         style="stop-color:#0a43d6;stop-opacity:1;"
         offset="0"
         id="stop22295" />
      <stop
         style="stop-color:#0a43d6;stop-opacity:0;"
         offset="1"
         id="stop22297" />
    </linearGradient>
    <linearGradient
       inkscape:collect="always"
       xlink:href="#linearGradient27199"
       id="linearGradient27201"
       x1="1052.1866"
       y1="629.44763"
       x2="1143.6211"
       y2="568.57812"
       gradientUnits="userSpaceOnUse"
       gradientTransform="matrix(0.26458333,0,0,0.26458333,-319.67013,122.39425)" />
    <linearGradient
       inkscape:collect="always"
       id="linearGradient27199">
      <stop
         style="stop-color:#fefefe;stop-opacity:1;"
         offset="0"
         id="stop27195" />
      <stop
         style="stop-color:#fefefe;stop-opacity:0;"
         offset="1"
         id="stop27197" />
    </linearGradient>
    <radialGradient
       inkscape:collect="always"
       xlink:href="#linearGradient3944"
       id="radialGradient3946"
       cx="25.671314"
       cy="287.9173"
       fx="25.671314"
       fy="287.9173"
       r="9.921875"
       gradientUnits="userSpaceOnUse"
       gradientTransform="matrix(3.7795276,0,0,3.7795276,0,-994.51963)" />
  </defs>
  <sodipodi:namedview
     id="base"
     pagecolor="#ffffff"
     bordercolor="#666666"
     borderopacity="1.0"
     inkscape:pageopacity="0.0"
     inkscape:pageshadow="2"
     inkscape:zoom="1.3147767"
     inkscape:cx="-116.36957"
     inkscape:cy="184.82226"
     inkscape:document-units="mm"
     inkscape:current-layer="layer1"
     showgrid="true"
     units="px"
     inkscape:window-width="1920"
     inkscape:window-height="1033"
     inkscape:window-x="0"
     inkscape:window-y="24"
     inkscape:window-maximized="1"
     inkscape:pagecheckerboard="0">
    <inkscape:grid
       type="xygrid"
       id="grid1636" />
  </sodipodi:namedview>
  <metadata
     id="metadata953">
    <rdf:RDF>
      <cc:Work
         rdf:about="">
        <dc:format>image/svg+xml</dc:format>
        <dc:type
           rdf:resource="http://purl.org/dc/dcmitype/StillImage" />
      </cc:Work>
    </rdf:RDF>
  </metadata>
  <g
     inkscape:label="Capa 1"
     inkscape:groupmode="layer"
     id="layer1"
     transform="translate(0,-263.13332)">
    <rect
       style="fill:#5d5d5d;filter:url(#a)"
       id="rect13"
       y="-8.1696901"
       x="159.55064"
       width="107.46031"
       transform="matrix(0.24270815,-0.03939202,0.03939202,0.24270815,-37.675115,277.00978)"
       rx="4.8269792"
       height="109.12843" />
    <rect
       style="fill:#ffffff;stroke-width:0.24588409"
       id="rect15"
       y="265.38727"
       x="-42.336063"
       width="26.422779"
       transform="rotate(-9.2188336)"
       rx="1.1868773"
       height="26.832945" />
    <path
       style="fill:url(#linearGradient872);fill-opacity:1;stroke-width:0.24588409"
       inkscape:connector-curvature="0"
       id="path17"
       d="m 2.3221944,270.32599 23.1665436,-4.08145 4.023968,22.99409 -23.1090621,4.25391 z" />
    <path
       inkscape:connector-curvature="0"
       d=""
       style="opacity:1;fill:url(#linearGradient948);fill-opacity:1;stroke:none;stroke-width:0.57240593;stroke-linecap:round;stroke-linejoin:round;stroke-miterlimit:4;stroke-dasharray:none;stroke-dashoffset:0;stroke-opacity:0.03831416;paint-order:fill markers stroke"
       id="path864"
       r="28.431282"
       cy="97.610519"
       cx="103.31834" />
    <g
       id="g972"
       transform="matrix(0.60707065,0.16266409,-0.16266409,0.60707065,73.424412,106.6182)">
      <path
         style="fill:#35d2be;fill-opacity:1;stroke:none;stroke-width:0.264583px;stroke-linecap:butt;stroke-linejoin:miter;stroke-opacity:1"
         d="m -21.184574,292.77494 c -1.397397,-0.0415 -4.616476,0.41867 -5.02023,0.61277 -0.355547,0.12817 -0.844365,0.58188 -0.472387,1.13368 0.268499,0.37789 0.780071,0.78275 1.111223,1.11204 0.322871,0.3056 0.557451,0.3965 0.92329,0.48359 l 2.479728,0.31141 5.053277,-1.96861 -1.335908,-3.13443 z"
         id="path28682"
         sodipodi:nodetypes="ccccccccc" />
      <path
         id="path36306"
         style="opacity:0.494446;fill:#3539d2;fill-opacity:1;stroke:none;stroke-width:0.264583px;stroke-linecap:butt;stroke-linejoin:miter;stroke-opacity:1"
         d="m -17.93041,292.53425 -2.135796,0.11317 c 0,0 -3.532611,0.87828 -5.672508,2.82308 0.05913,0.0549 0.120676,0.11117 0.172587,0.16279 0.322871,0.30559 0.557636,0.39659 0.923476,0.48369 l 2.479939,0.31161 5.052933,-1.96888 z" />
      <path
         id="path860"
         style="fill:url(#linearGradient5468);fill-opacity:1;stroke:none;stroke-width:0.264583px;stroke-linecap:butt;stroke-linejoin:miter;stroke-opacity:1"
         d="m -12.697614,284.61602 -7.36854,8.03155 c -2.288672,0.59826 -5.132837,3.82345 -5.373846,6.57531 -0.328453,3.75018 1.796336,6.29536 4.472596,7.44968 3.832093,1.65284 11.6748455,-0.63599 14.1231674,-8.14576 2.335821,-7.1647 -3.3553664,-12.83659 -5.8533774,-13.91078 z m -7.020242,13.69736 c 0.479213,0.0216 1.019731,0.28475 1.577657,0.91519 1.744398,1.97104 3.827675,0.40462 3.827675,0.40462 0,0 -1.571361,3.17786 -4.37441,3.19154 -1.598744,0.008 -2.812044,-1.03424 -2.8303,-2.49029 -0.01191,-0.94776 0.745066,-2.06863 1.799378,-2.02106 z" />
      <path
         id="path20767"
         style="fill:url(#linearGradient20907);fill-opacity:1;stroke:none;stroke-width:0.264583px;stroke-linecap:butt;stroke-linejoin:miter;stroke-opacity:1"
         d="m -20.066206,292.64742 c -2.288673,0.59825 -5.132811,3.82345 -5.37382,6.57531 -0.02275,0.26025 -0.03069,0.51365 -0.03051,0.76223 2.42062,-2.66092 4.960382,-2.10397 6.197045,-1.5813 0.111786,0.0386 0.22516,0.089 0.341074,0.15554 0.271462,0.13709 0.429948,0.24495 0.429948,0.24495 l 0.01614,0.0801 c 0.114539,0.10072 0.229791,0.21259 0.346234,0.34417 1.07397,1.2135 2.274517,1.08535 3.040142,0.80822 l 0.787532,-0.4036 c 2.019221,-1.44957 0.263155,-8.14144 -5.586227,-7.01508 l -0.167428,0.0295 z"
         sodipodi:nodetypes="cscccccsccccc" />
      <path
         id="path8504"
         style="fill:url(#linearGradient9262);fill-opacity:1;stroke:none;stroke-width:0.264583px;stroke-linecap:butt;stroke-linejoin:miter;stroke-opacity:1"
         d="m -12.844431,289.59128 c -1.562603,1.37425 -4.405154,2.44577 -7.054347,3.02668 5.849382,-1.12636 7.776421,6.20723 5.586227,7.01508 l 3.332612,3.15226 0.392219,-0.71882 c 4.45934,-7.97387 -2.256711,-12.4752 -2.256711,-12.4752 z" />
      <path
         style="fill:url(#linearGradient8279);fill-opacity:1;stroke:none;stroke-width:0.264583px;stroke-linecap:butt;stroke-linejoin:miter;stroke-opacity:1"
         d="m -20.066154,292.64757 c 0,0 3.14161,-0.76318 5.129054,1.41564 1.987471,2.17882 0.974699,3.83073 0.299985,3.98551 -0.674741,0.15478 -1.138926,0.51298 -3.098933,-1.51166 -1.960033,-2.02464 -3.194949,-1.91625 -4.757578,-1.26982 l -0.832168,-1.52052 z"
         id="path6854" />
      <path
         style="fill:url(#linearGradient19408);fill-opacity:1;stroke:none;stroke-width:0.264583px;stroke-linecap:butt;stroke-linejoin:miter;stroke-opacity:1"
         d="m -24.29909,292.8402 c 0,0 9.604719,1.28524 14.073769,-6.35742 -0.819335,-0.84609 -1.823085,-1.43811 -2.472293,-1.86676 z"
         id="path16545"
         sodipodi:nodetypes="cccc" />
      <circle
         style="fill:#68ce6b;fill-opacity:1;stroke:none;stroke-width:1.5875;stroke-linecap:round;stroke-linejoin:round;stroke-opacity:1"
         id="path27282"
         cx="-26.793081"
         cy="283.89917"
         r="3.5009475" />
      <circle
         style="fill:#0065ce;fill-opacity:0.235823;stroke:none;stroke-width:2.7023;stroke-linecap:round;stroke-linejoin:round;stroke-opacity:1"
         id="circle28575"
         cx="-23.478136"
         cy="284.68182"
         r="5.9594321" />
      <path
         style="fill:url(#linearGradient16320);fill-opacity:1;stroke:none;stroke-width:0.264583px;stroke-linecap:butt;stroke-linejoin:miter;stroke-opacity:1"
         d="m -23.189322,292.85009 c 6.297719,-0.64702 10.911655,-8.00299 10.491708,-8.23407 -0.883973,-3.78625 -1.054364,-5.25306 -3.97211,-4.78708 l 0.301916,-5.88618 c 0.0045,-0.637 -0.123216,-1.18274 -0.848492,-1.10506 -12.810913,1.68025 -12.201022,15.44571 -11.86389,18.76466 0.05263,0.4369 0.436721,0.76681 0.875136,0.84784 1.257088,0.2129 3.576293,0.54665 5.015732,0.39989 z"
         id="path9720"
         sodipodi:nodetypes="cccccccc" />
      <path
         id="path21529"
         style="opacity:0.485485;fill:url(#linearGradient22301);fill-opacity:1;stroke:none;stroke-width:0.264583px;stroke-linecap:butt;stroke-linejoin:miter;stroke-opacity:1"
         d="m -14.669633,290.97207 c -1.250711,0.63416 -2.519071,1.24302 -4.033864,1.49707 5.433113,0.11407 6.000274,6.20442 4.390946,7.1639 0,0 -1.57136,3.17786 -4.374409,3.19154 -1.598745,0.008 -2.812045,-1.03424 -2.830301,-2.49029 -0.01058,-0.83782 0.580496,-1.80894 1.445895,-1.99058 -2.400644,0.31492 -5.425281,4.31877 -1.226793,8.17367 0.109643,0.053 0.219022,0.10685 0.330729,0.15503 0.451141,0.19458 0.959379,0.33224 1.506352,0.41547 1.20269,-0.14258 6.093328,-1.05175 7.69411,-6.49159 1.7988753,-6.11293 -2.902665,-9.62422 -2.902665,-9.62422 z m 0.357082,8.66097 -0.787532,0.4036 c 0.477943,-0.17301 0.787532,-0.4036 0.787532,-0.4036 z m -0.787532,0.4036 c -0.08893,0.0322 -0.18497,0.0616 -0.284745,0.0879 0.100119,-0.0263 0.19558,-0.0556 0.284745,-0.0879 z m -4.361498,-1.68621 c 0.05948,0.013 0.119936,0.0294 0.18087,0.0501 -0.03143,-0.013 -0.06612,-0.0257 -0.09872,-0.0388 -0.0268,-0.006 -0.05493,-0.007 -0.08215,-0.0114 z m 0.530702,0.20929 c 0.145468,0.0836 0.294084,0.19231 0.44442,0.32453 -0.05763,-0.0668 -0.119089,-0.12646 -0.183435,-0.18087 -0.07009,-0.041 -0.149411,-0.0872 -0.260985,-0.14366 z m 0.610817,0.47956 c 0.05977,0.0596 0.119644,0.1211 0.179837,0.18914 -0.0603,-0.0681 -0.120094,-0.13039 -0.179837,-0.18914 z m 0.474398,0.48317 c 0.02196,0.0197 0.04368,0.0397 0.06564,0.0584 -0.02196,-0.0186 -0.04379,-0.0388 -0.06564,-0.0584 z m 0.349858,0.27337 c 0.0217,0.0143 0.04297,0.0268 0.06459,0.0403 -0.0217,-0.0135 -0.04302,-0.026 -0.06459,-0.0403 z m 0.32348,0.18397 c 0.01535,0.007 0.03067,0.0163 0.04601,0.0233 -0.01535,-0.007 -0.03066,-0.0159 -0.04601,-0.0233 z m 0.331258,0.13074 c 0.02355,0.007 0.04723,0.0141 0.0708,0.0207 -0.02355,-0.007 -0.04718,-0.0133 -0.0708,-0.0207 z m 1.404038,0.0269 c -0.08416,0.0207 -0.172191,0.0374 -0.26252,0.0512 0.09067,-0.0138 0.178065,-0.0305 0.26252,-0.0512 z m -1.053148,0.0558 c 0.01508,0.002 0.02985,0.004 0.04495,0.006 -0.01508,-0.002 -0.02984,-0.003 -0.04495,-0.006 z m 0.688314,0.0103 c -0.03101,0.004 -0.06197,0.007 -0.09353,0.01 0.0317,-0.003 0.06241,-0.006 0.09353,-0.01 z m -0.403066,0.0155 c 0.02249,8e-4 0.04493,0.002 0.06718,0.003 -0.02222,-2.4e-4 -0.04479,-0.002 -0.06718,-0.003 z" />
      <circle
         style="fill:#ffffff;fill-opacity:0.970956;stroke:none;stroke-width:1.5875;stroke-linecap:round;stroke-linejoin:round;stroke-opacity:1"
         id="path22553"
         cx="-20.921574"
         cy="285.07416"
         r="3.3840587" />
      <circle
         style="fill:#6cd069;fill-opacity:1;stroke:none;stroke-width:1.5875;stroke-linecap:round;stroke-linejoin:round;stroke-opacity:1"
         id="path25532"
         cx="-19.935619"
         cy="285.79019"
         r="0.98863667" />
      <path
         id="path26780"
         style="fill:url(#linearGradient27201);fill-opacity:1;stroke:none;stroke-width:0.264583px;stroke-linecap:butt;stroke-linejoin:miter;stroke-opacity:1"
         d="m -17.087051,272.83054 c -0.04077,1.2e-4 -0.08387,0.002 -0.129196,0.007 -7.631165,1.00088 -10.499328,6.28985 -11.500591,11.10474 1.632797,-3.32337 5.066374,-7.30125 12.290716,-8.86509 l 0.05839,-1.13481 c 0.0042,-0.59719 -0.107712,-1.1138 -0.719323,-1.11208 z" />
      <path
         style="fill:#34185f;fill-opacity:0.421552;stroke:none;stroke-width:0.264583px;stroke-linecap:butt;stroke-linejoin:miter;stroke-opacity:1"
         d="m -16.084624,301.80054 c 3.845269,-2.87907 2.612152,-6.3108 1.225259,-7.6805 5.8780888,5.17616 -0.364279,8.80908 -1.225259,7.6805 z"
         id="path36565"
         sodipodi:nodetypes="ccc" />
    </g>
    <path
       id="path3648"
       style="opacity:0.41742706;fill:url(#radialGradient3946);fill-opacity:1;stroke-width:6;stroke-linecap:round;stroke-linejoin:round"
       d="M 97.025391 56.171875 A 37.5 37.5 0 0 0 59.525391 93.671875 A 37.5 37.5 0 0 0 65.398438 113.77344 L 113.14453 106.02344 C 115.59758 105.6253 117.25165 103.33001 116.85352 100.87695 L 109.97266 58.480469 A 37.5 37.5 0 0 0 97.025391 56.171875 z "
       transform="matrix(0.26458333,0,0,0.26458333,0,263.13332)" />
    <circle
       style="opacity:1;fill:url(#linearGradient1615);fill-opacity:1;stroke:none;stroke-width:0.72103304;stroke-linecap:round;stroke-linejoin:round;stroke-miterlimit:4;stroke-dasharray:none;stroke-dashoffset:0;stroke-opacity:0.03831416;paint-order:fill markers stroke"
       id="path1600"
       cx="25.578423"
       cy="287.9906"
       r="7.251533" />
    <g
       id="g3051">
      <path
         id="path2952"
         d="m 27.378516,291.32178 c -0.170859,0 -0.341272,-0.0733 -0.465222,-0.21743 -0.317818,-0.37058 -0.770477,-0.58239 -1.2424,-0.58239 -0.479873,0 -0.920812,0.20579 -1.241565,0.57931 -0.232799,0.27187 -0.62978,0.29276 -0.887308,0.0459 -0.25711,-0.24618 -0.276798,-0.66552 -0.04352,-0.9366 0.553572,-0.64519 1.345408,-1.01529 2.172416,-1.01529 0.825751,0 1.617591,0.37099 2.172837,1.01751 0.233245,0.27153 0.213557,0.69073 -0.04352,0.93702 -0.119772,0.11539 -0.270909,0.17189 -0.421668,0.17189 z m 1.393561,-1.65959 c -0.160382,0 -0.320763,-0.0647 -0.443028,-0.19311 -0.711019,-0.74689 -1.654854,-1.15815 -2.658155,-1.15815 -1.005389,0 -1.949646,0.41037 -2.659415,1.15547 -0.245811,0.25818 -0.6436,0.25681 -0.888137,-0.003 -0.244544,-0.25954 -0.243722,-0.67967 0.0026,-0.93791 0.946349,-0.9941 2.205499,-1.54153 3.545046,-1.54153 1.337458,0 2.596184,0.54832 3.544207,1.54417 0.246221,0.25817 0.247077,0.67836 0.0026,0.93838 -0.122683,0.12943 -0.284331,0.19552 -0.445538,0.19552 z m 1.390633,-1.65695 c -0.156204,0 -0.312785,-0.0616 -0.434649,-0.18456 -1.096681,-1.10996 -2.537144,-1.72108 -4.057167,-1.72108 -1.522954,0 -2.964256,0.61026 -4.058002,1.7193 -0.249988,0.25338 -0.647788,0.24516 -0.888144,-0.0205 -0.240366,-0.26434 -0.231978,-0.68453 0.01781,-0.93791 1.329079,-1.34698 3.078992,-2.08855 4.928142,-2.08855 1.845385,0 3.594876,0.74246 4.926465,2.08985 0.250399,0.25338 0.258788,0.67351 0.01883,0.93794 -0.123539,0.13559 -0.288508,0.20442 -0.453495,0.20442 z m -4.570538,4.92138 c 0.419046,0 0.758754,-0.34035 0.758754,-0.7602 0,-0.41982 -0.339698,-0.76017 -0.758754,-0.76017 -0.419049,0 -0.758757,0.34035 -0.758757,0.76017 0,0.41985 0.339698,0.7602 0.758757,0.7602 z"
         inkscape:connector-curvature="0"
         style="fill:#212c14;fill-opacity:0.03039454;stroke:none;stroke-width:0.0479199;stroke-opacity:0.8" />
      <path
         id="path3044"
         d="m 27.378516,291.85095 c -0.170859,0 -0.341272,-0.0733 -0.465222,-0.21743 -0.317818,-0.37058 -0.770477,-0.58239 -1.2424,-0.58239 -0.479873,0 -0.920812,0.20579 -1.241565,0.57931 -0.232799,0.27187 -0.62978,0.29276 -0.887308,0.0459 -0.25711,-0.24618 -0.276798,-0.66552 -0.04352,-0.9366 0.553572,-0.64519 1.345408,-1.01529 2.172416,-1.01529 0.825751,0 1.617591,0.37099 2.172837,1.01751 0.233245,0.27153 0.213557,0.69073 -0.04352,0.93702 -0.119772,0.11539 -0.270909,0.17189 -0.421668,0.17189 z m 1.393561,-1.65959 c -0.160382,0 -0.320763,-0.0647 -0.443028,-0.19311 -0.711019,-0.74689 -1.654854,-1.15815 -2.658155,-1.15815 -1.005389,0 -1.949646,0.41037 -2.659415,1.15547 -0.245811,0.25818 -0.6436,0.25681 -0.888137,-0.003 -0.244544,-0.25954 -0.243722,-0.67967 0.0026,-0.93791 0.946349,-0.9941 2.205499,-1.54153 3.545046,-1.54153 1.337458,0 2.596184,0.54832 3.544207,1.54417 0.246221,0.25817 0.247077,0.67836 0.0026,0.93838 -0.122683,0.12943 -0.284331,0.19552 -0.445538,0.19552 z m 1.390633,-1.65695 c -0.156204,0 -0.312785,-0.0616 -0.434649,-0.18456 -1.096681,-1.10996 -2.537144,-1.72108 -4.057167,-1.72108 -1.522954,0 -2.964256,0.61026 -4.058002,1.7193 -0.249988,0.25338 -0.647788,0.24516 -0.888144,-0.0205 -0.240366,-0.26434 -0.231978,-0.68453 0.01781,-0.93791 1.329079,-1.34698 3.078992,-2.08855 4.928142,-2.08855 1.845385,0 3.594876,0.74246 4.926465,2.08985 0.250399,0.25338 0.258788,0.67351 0.01883,0.93794 -0.123539,0.13559 -0.288508,0.20442 -0.453495,0.20442 z m -4.570538,4.92138 c 0.419046,0 0.758754,-0.34035 0.758754,-0.7602 0,-0.41982 -0.339698,-0.76017 -0.758754,-0.76017 -0.419049,0 -0.758757,0.34035 -0.758757,0.76017 0,0.41985 0.339698,0.7602 0.758757,0.7602 z"
         inkscape:connector-curvature="0"
         style="fill:#212c14;fill-opacity:0.0303946;stroke:none;stroke-width:0.0479199;stroke-opacity:0.8" />
      <path
         id="path3046"
         d="m 27.378516,292.11553 c -0.170859,0 -0.341272,-0.0733 -0.465222,-0.21743 -0.317818,-0.37058 -0.770477,-0.58239 -1.2424,-0.58239 -0.479873,0 -0.920812,0.20579 -1.241565,0.57931 -0.232799,0.27187 -0.62978,0.29276 -0.887308,0.0459 -0.25711,-0.24618 -0.276798,-0.66552 -0.04352,-0.9366 0.553572,-0.64519 1.345408,-1.01529 2.172416,-1.01529 0.825751,0 1.617591,0.37099 2.172837,1.01751 0.233245,0.27153 0.213557,0.69073 -0.04352,0.93702 -0.119772,0.11539 -0.270909,0.17189 -0.421668,0.17189 z m 1.393561,-1.65959 c -0.160382,0 -0.320763,-0.0647 -0.443028,-0.19311 -0.711019,-0.74689 -1.654854,-1.15815 -2.658155,-1.15815 -1.005389,0 -1.949646,0.41037 -2.659415,1.15547 -0.245811,0.25818 -0.6436,0.25681 -0.888137,-0.003 -0.244544,-0.25954 -0.243722,-0.67967 0.0026,-0.93791 0.946349,-0.9941 2.205499,-1.54153 3.545046,-1.54153 1.337458,0 2.596184,0.54832 3.544207,1.54417 0.246221,0.25817 0.247077,0.67836 0.0026,0.93838 -0.122683,0.12943 -0.284331,0.19552 -0.445538,0.19552 z m 1.390633,-1.65695 c -0.156204,0 -0.312785,-0.0616 -0.434649,-0.18456 -1.096681,-1.10996 -2.537144,-1.72108 -4.057167,-1.72108 -1.522954,0 -2.964256,0.61026 -4.058002,1.7193 -0.249988,0.25338 -0.647788,0.24516 -0.888144,-0.0205 -0.240366,-0.26434 -0.231978,-0.68453 0.01781,-0.93791 1.329079,-1.34698 3.078992,-2.08855 4.928142,-2.08855 1.845385,0 3.594876,0.74246 4.926465,2.08985 0.250399,0.25338 0.258788,0.67351 0.01883,0.93794 -0.123539,0.13559 -0.288508,0.20442 -0.453495,0.20442 z m -4.570538,4.92138 c 0.419046,0 0.758754,-0.34035 0.758754,-0.7602 0,-0.41982 -0.339698,-0.76017 -0.758754,-0.76017 -0.419049,0 -0.758757,0.34035 -0.758757,0.76017 0,0.41985 0.339698,0.7602 0.758757,0.7602 z"
         inkscape:connector-curvature="0"
         style="fill:#212c14;fill-opacity:0.0303946;stroke:none;stroke-width:0.0479199;stroke-opacity:0.8" />
    </g>
    <path
       id="path4537-7"
       d="m 27.181439,290.98666 c -0.170859,0 -0.341272,-0.0733 -0.465222,-0.21743 -0.317818,-0.37058 -0.770477,-0.58239 -1.2424,-0.58239 -0.479873,0 -0.920812,0.20579 -1.241565,0.57931 -0.232799,0.27187 -0.62978,0.29276 -0.887308,0.0459 -0.25711,-0.24618 -0.276798,-0.66552 -0.04352,-0.9366 0.553572,-0.64519 1.345408,-1.01529 2.172416,-1.01529 0.825751,0 1.617591,0.37099 2.172837,1.01751 0.233245,0.27153 0.213557,0.69073 -0.04352,0.93702 -0.119772,0.11539 -0.270909,0.17189 -0.421668,0.17189 z M 28.575,289.32707 c -0.160382,0 -0.320763,-0.0647 -0.443028,-0.19311 -0.711019,-0.74689 -1.654854,-1.15815 -2.658155,-1.15815 -1.005389,0 -1.949646,0.41037 -2.659415,1.15547 -0.245811,0.25818 -0.6436,0.25681 -0.888137,-0.003 -0.244544,-0.25954 -0.243722,-0.67967 0.0026,-0.93791 0.946349,-0.9941 2.205499,-1.54153 3.545046,-1.54153 1.337458,0 2.596184,0.54832 3.544207,1.54417 0.246221,0.25817 0.247077,0.67836 0.0026,0.93838 -0.122683,0.12943 -0.284331,0.19552 -0.445538,0.19552 z m 1.390633,-1.65695 c -0.156204,0 -0.312785,-0.0616 -0.434649,-0.18456 -1.096681,-1.10996 -2.537144,-1.72108 -4.057167,-1.72108 -1.522954,0 -2.964256,0.61026 -4.058002,1.7193 -0.249988,0.25338 -0.647788,0.24516 -0.888144,-0.0205 -0.240366,-0.26434 -0.231978,-0.68453 0.01781,-0.93791 1.329079,-1.34698 3.078992,-2.08855 4.928142,-2.08855 1.845385,0 3.594876,0.74246 4.926465,2.08985 0.250399,0.25338 0.258788,0.67351 0.01883,0.93794 -0.123539,0.13559 -0.288508,0.20442 -0.453495,0.20442 z m -4.570538,4.92138 c 0.419046,0 0.758754,-0.34035 0.758754,-0.7602 0,-0.41982 -0.339698,-0.76017 -0.758754,-0.76017 -0.419049,0 -0.758757,0.34035 -0.758757,0.76017 0,0.41985 0.339698,0.7602 0.758757,0.7602 z"
       inkscape:connector-curvature="0"
       style="fill:url(#linearGradient4768);fill-opacity:1;stroke:none;stroke-width:0.0479199;stroke-opacity:0.8" />
  </g>
</svg>
