<?xml version="1.0" encoding="UTF-8" standalone="no"?>
<!-- Generator: Adobe Illustrator 16.0.0, SVG Export Plug-In . SVG Version: 6.00 Build 0)  -->

<svg
   xmlns:dc="http://purl.org/dc/elements/1.1/"
   xmlns:cc="http://creativecommons.org/ns#"
   xmlns:rdf="http://www.w3.org/1999/02/22-rdf-syntax-ns#"
   xmlns:svg="http://www.w3.org/2000/svg"
   xmlns="http://www.w3.org/2000/svg"
   xmlns:sodipodi="http://sodipodi.sourceforge.net/DTD/sodipodi-0.dtd"
   xmlns:inkscape="http://www.inkscape.org/namespaces/inkscape"
   version="1.1"
   id="Capa_1"
   x="0px"
   y="0px"
   width="35.676px"
   height="35.676px"
   viewBox="0 0 35.676 35.676"
   style="enable-background:new 0 0 35.676 35.676;"
   xml:space="preserve"
   sodipodi:docname="37150.svg"
   inkscape:version="0.92.4 (5da689c313, 2019-01-14)"><metadata
   id="metadata41"><rdf:RDF><cc:Work
       rdf:about=""><dc:format>image/svg+xml</dc:format><dc:type
         rdf:resource="http://purl.org/dc/dcmitype/StillImage" /></cc:Work></rdf:RDF></metadata><defs
   id="defs39" /><sodipodi:namedview
   pagecolor="#ffffff"
   bordercolor="#666666"
   borderopacity="1"
   objecttolerance="10"
   gridtolerance="10"
   guidetolerance="10"
   inkscape:pageopacity="0"
   inkscape:pageshadow="2"
   inkscape:window-width="1920"
   inkscape:window-height="1025"
   id="namedview37"
   showgrid="false"
   inkscape:zoom="6.6150916"
   inkscape:cx="18.518262"
   inkscape:cy="17.837999"
   inkscape:window-x="0"
   inkscape:window-y="29"
   inkscape:window-maximized="1"
   inkscape:current-layer="Capa_1" />
<rect
   style="opacity:1;fill:#f5f5f5;fill-opacity:0;stroke:none;stroke-width:1.4;stroke-linecap:round;stroke-linejoin:round;stroke-miterlimit:4;stroke-dasharray:none;stroke-opacity:1"
   id="rect848"
   width="35.52483"
   height="35.52483"
   x="0.30233896"
   y="0" /><g
   id="g4"
   transform="matrix(0.8644041,0,0,0.8644041,1.9702094,2.7210507)"
   style="fill:#1a1a1a">
	<path
   d="m 32.295,26.202 c -0.096,0.271 -0.189,0.562 -0.296,0.848 -0.886,2.399 -2.231,4.529 -3.863,6.481 -0.315,0.38 -0.682,0.724 -1.061,1.043 -0.749,0.634 -1.611,1.017 -2.608,1.052 -0.749,0.024 -1.468,-0.112 -2.161,-0.394 -0.502,-0.205 -0.996,-0.434 -1.505,-0.619 -1.652,-0.6 -3.295,-0.521 -4.92,0.121 -0.586,0.232 -1.164,0.488 -1.761,0.689 -0.692,0.232 -1.41,0.326 -2.141,0.188 C 11.341,35.492 10.783,35.195 10.265,34.812 9.622,34.336 9.082,33.756 8.577,33.142 6.186,30.226 4.581,26.929 3.806,23.236 3.472,21.648 3.312,20.047 3.41,18.424 3.525,16.478 3.977,14.625 5.017,12.955 6.322,10.856 8.163,9.481 10.585,8.914 c 1.457,-0.343 2.874,-0.203 4.263,0.332 0.731,0.28 1.464,0.557 2.198,0.832 0.676,0.254 1.349,0.254 2.026,-0.005 0.749,-0.286 1.499,-0.571 2.251,-0.85 0.771,-0.281 1.555,-0.511 2.373,-0.576 1.224,-0.099 2.418,0.06 3.58,0.449 1.647,0.551 2.987,1.526 3.999,2.946 0.027,0.039 0.057,0.082 0.077,0.113 -2.552,1.779 -4.005,4.129 -3.794,7.311 0.213,3.184 1.927,5.338 4.737,6.736 z M 17.98,8.253 C 18.733,8.273 19.457,8.128 20.154,7.851 23.333,6.589 24.995,3.226 24.945,0.654 24.941,0.447 24.927,0.24 24.918,0 24.591,0.049 24.293,0.072 24.007,0.144 21.686,0.713 19.9,2.008 18.726,4.105 c -0.687,1.228 -1.069,2.532 -0.952,3.957 0.008,0.151 0.063,0.189 0.206,0.191 z"
   id="path2"
   inkscape:connector-curvature="0"
   style="fill:#1a1a1a" />
</g>
<g
   id="g6">
</g>
<g
   id="g8">
</g>
<g
   id="g10">
</g>
<g
   id="g12">
</g>
<g
   id="g14">
</g>
<g
   id="g16">
</g>
<g
   id="g18">
</g>
<g
   id="g20">
</g>
<g
   id="g22">
</g>
<g
   id="g24">
</g>
<g
   id="g26">
</g>
<g
   id="g28">
</g>
<g
   id="g30">
</g>
<g
   id="g32">
</g>
<g
   id="g34">
</g>
</svg>